<svg id="Layer_1" data-name="Layer 1" xmlns="http://www.w3.org/2000/svg" xmlns:xlink="http://www.w3.org/1999/xlink" viewBox="0 0 473.15 367.25"><defs><style>.cls-1{fill:url(#linear-gradient);}.cls-2{fill:url(#linear-gradient-2);}.cls-3{fill:url(#linear-gradient-3);}.cls-4{fill:#f5f6f6;}.cls-5{fill:#e0e1e0;}.cls-6{fill:#ebebeb;}.cls-11,.cls-7{fill:#273339;}.cls-8{fill:#fafbfc;}.cls-9{fill:#f8e500;}.cls-10{fill:#f6eb16;}.cls-11{fill-rule:evenodd;}.cls-12{opacity:0.62;}.cls-13{fill:#465b65;}.cls-14{fill:#f2ea14;}.cls-15{fill:none;}.cls-16{opacity:0.8;}.cls-17{fill:#fff;}.cls-18{opacity:0.3;}.cls-19{fill:#010101;}.cls-20{opacity:0.5;}.cls-21{fill:#a36958;}.cls-22{fill:#7d3c2a;}</style><linearGradient id="linear-gradient" x1="-44.52" y1="873.84" x2="-44.52" y2="873.84" gradientTransform="matrix(1, 0, 0, -1, 0, 502)" gradientUnits="userSpaceOnUse"><stop offset="0" stop-color="#f1e913" stop-opacity="0.1"/><stop offset="0.46" stop-color="#f5eb17" stop-opacity="0.67"/><stop offset="0.77" stop-color="#f1e913"/></linearGradient><linearGradient id="linear-gradient-2" x1="701.64" y1="490.67" x2="701.64" y2="490.67" gradientTransform="matrix(1, 0, 0, 1, 0, 0)" xlink:href="#linear-gradient"/><linearGradient id="linear-gradient-3" x1="38.97" y1="420.08" x2="518.33" y2="143.32" gradientTransform="matrix(1, 0, 0, 1, 0, 0)" xlink:href="#linear-gradient"/></defs><path class="cls-1" d="M-44.52-371.84" transform="translate(-13.48 -56.23)"/><path class="cls-2" d="M701.64,490.67" transform="translate(-13.48 -56.23)"/><path class="cls-3" d="M38.35,419C-3.46,251.85,14.82,199.55,39.5,182.85c39.64-26.8,90.33,41.94,179.75,36.13C354.88,210.16,419.64,40.23,463.42,57.46,490.63,68.17,502,148.15,451.57,418.9Z" transform="translate(-13.48 -56.23)"/><g id="freepik--background-complete--inject-18"><rect class="cls-4" x="17.99" y="287.46" width="101.08" height="46.27"/><path class="cls-5" d="M130.15,387.78H33.78V346.13h96.37Zm-95.74-.65h95.1V346.75H34.41Z" transform="translate(-13.48 -56.23)"/><rect class="cls-5" x="119.07" y="287.46" width="24.69" height="46.27"/><path class="cls-5" d="M34.09,359h95.74a.13.13,0,0,0,.13-.13.12.12,0,0,0-.13-.12H34.09a.12.12,0,0,0-.12.12A.12.12,0,0,0,34.09,359Z" transform="translate(-13.48 -56.23)"/><path class="cls-5" d="M82.28,358.89a105.26,105.26,0,0,0,0-12.56.13.13,0,0,0-.16-.1.13.13,0,0,0-.1.1,101.22,101.22,0,0,0,0,12.56.1.1,0,0,0,.12.07.08.08,0,0,0,.07-.07Z" transform="translate(-13.48 -56.23)"/><path class="cls-5" d="M108,352.61a1.32,1.32,0,1,1-1.31-1.31A1.31,1.31,0,0,1,108,352.61Z" transform="translate(-13.48 -56.23)"/><path class="cls-5" d="M57.8,352.61a1.32,1.32,0,1,1-1.31-1.31A1.31,1.31,0,0,1,57.8,352.61Z" transform="translate(-13.48 -56.23)"/><path class="cls-5" d="M83.26,367a1.32,1.32,0,1,1-1.31-1.3A1.31,1.31,0,0,1,83.26,367Z" transform="translate(-13.48 -56.23)"/><polygon class="cls-5" points="30.08 333.73 24.88 362.78 27.8 362.78 37.4 333.73 30.08 333.73"/><polygon class="cls-5" points="111.92 333.73 116.28 362.83 113.35 362.83 104.61 333.73 111.92 333.73"/><polygon class="cls-5" points="131.46 333.73 136.39 362.83 133.47 362.83 124.14 333.73 131.46 333.73"/><path class="cls-5" d="M83.18,380.05a1.32,1.32,0,1,1-1.32-1.31A1.31,1.31,0,0,1,83.18,380.05Z" transform="translate(-13.48 -56.23)"/><path class="cls-5" d="M34.09,373.35h95.74a.13.13,0,0,0,.1-.16.13.13,0,0,0-.1-.1H34.09a.13.13,0,0,0,0,.26Z" transform="translate(-13.48 -56.23)"/><rect class="cls-5" x="71.46" y="321.88" width="30.56" height="6.17" transform="translate(-15.19 -55.77) rotate(-0.3)"/><rect class="cls-4" x="71.62" y="334.04" width="34.06" height="9.59" transform="translate(-15.26 -55.76) rotate(-0.3)"/><path class="cls-5" d="M99.15,343.5a72.08,72.08,0,0,1,0-9.6,67.85,67.85,0,0,1,0,9.6Z" transform="translate(-13.48 -56.23)"/><path class="cls-5" d="M100.59,343.5a67.85,67.85,0,0,1,0-9.6,72.08,72.08,0,0,1,0,9.6Z" transform="translate(-13.48 -56.23)"/><path class="cls-5" d="M76.78,343.5a67.85,67.85,0,0,1,0-9.6,72.08,72.08,0,0,1,0,9.6Z" transform="translate(-13.48 -56.23)"/><path class="cls-5" d="M78.2,343.5a72.08,72.08,0,0,1,0-9.6,64.09,64.09,0,0,1,0,9.6Z" transform="translate(-13.48 -56.23)"/><path class="cls-5" d="M81.33,338.85c0-.09,3.44-.16,7.67-.16s7.68.07,7.68.16S93.24,339,89,339,81.33,339,81.33,338.85Z" transform="translate(-13.48 -56.23)"/><rect class="cls-6" x="76.45" y="327.84" width="42.04" height="6.17" transform="translate(-15.22 -55.71) rotate(-0.3)"/><path class="cls-5" d="M112.49,333.15a2,2,0,1,1,2-2v0a2,2,0,0,1-1.94,2Z" transform="translate(-13.48 -56.23)"/><rect class="cls-5" x="65.41" y="274.3" width="28.14" height="1.23"/><rect class="cls-5" x="431.27" y="172.39" width="5.94" height="29.33" transform="translate(-14.47 -53.9) rotate(-0.31)"/><rect class="cls-6" x="379.78" y="172.5" width="15.38" height="16.19" transform="translate(-14.44 -54.15) rotate(-0.31)"/><rect class="cls-4" x="395.1" y="172.41" width="15.38" height="16.19" transform="translate(-14.44 -54.07) rotate(-0.31)"/><path class="cls-5" d="M379.77,177q15.35.12,30.69-.14a.17.17,0,0,0,.13-.2.15.15,0,0,0-.13-.12q-15.33-.09-30.69.18a.14.14,0,0,0,0,.28Z" transform="translate(-13.48 -56.23)"/><rect class="cls-6" x="370.19" y="188.46" width="27.94" height="13.19" transform="matrix(1, -0.01, 0.01, 1, -14.52, -54.17)"/><rect class="cls-4" x="398" y="188.3" width="27.94" height="13.19" transform="matrix(1, -0.01, 0.01, 1, -14.52, -54.02)"/><path class="cls-5" d="M370.17,192.24c18.57.21,37.19,0,55.75-.28a.16.16,0,0,0,0-.32c-18.56-.1-37.19-.08-55.76.32a.13.13,0,0,0-.13.14.14.14,0,0,0,.13.14Z" transform="translate(-13.48 -56.23)"/><rect class="cls-5" x="346.24" y="145.51" width="108.27" height="4.73"/><rect class="cls-5" x="363.97" y="147.79" width="4.4" height="16.13"/><rect class="cls-5" x="429.58" y="147.79" width="4.4" height="16.13"/><rect class="cls-6" x="437.1" y="161.46" width="5.94" height="40.34" transform="translate(-14.45 -53.87) rotate(-0.31)"/><rect class="cls-4" x="443.07" y="168.98" width="9.23" height="32.69" transform="translate(-14.46 -53.82) rotate(-0.31)"/><path class="cls-5" d="M452.16,175.25a64.34,64.34,0,0,1-9.21,0A70.76,70.76,0,0,1,452.16,175.25Z" transform="translate(-13.48 -56.23)"/><path class="cls-5" d="M452.16,173.9a70.76,70.76,0,0,1-9.21,0A67.4,67.4,0,0,1,452.16,173.9Z" transform="translate(-13.48 -56.23)"/><path class="cls-5" d="M452.16,196.74a64.34,64.34,0,0,1-9.21,0A67.4,67.4,0,0,1,452.16,196.74Z" transform="translate(-13.48 -56.23)"/><path class="cls-5" d="M452.16,195.37a67.4,67.4,0,0,1-9.21,0A67.4,67.4,0,0,1,452.16,195.37Z" transform="translate(-13.48 -56.23)"/><path class="cls-5" d="M447.68,192.37c-.09,0-.16-3.26-.16-7.36s.07-7.36.16-7.36.16,3.26.16,7.36S447.76,192.37,447.68,192.37Z" transform="translate(-13.48 -56.23)"/><rect class="cls-6" x="438.77" y="120.77" width="10.04" height="24.68"/><path class="cls-5" d="M441.58,168.35a1.71,1.71,0,1,1-1.71-1.7h0a1.71,1.71,0,0,1,1.71,1.69Z" transform="translate(-13.48 -56.23)"/><rect class="cls-5" x="425.86" y="116.78" width="1.05" height="24"/><path class="cls-6" d="M453.1,289.71s-6.85-3.67-13.35,12.41-8.69,25.19-8.69,25.19-1.8,3.4-4.22,1.49-6-7.6-9.69-6.19-4.73,5.92-3.4,12.25,3.71,20.28,3.95,21.55-.35,3.15-2.21,2.11-12.91-11.26-17.49-5.76,2,22.51,2.72,24.39.38,2.72-.5,3.26-4.26-3.22-7.52-6-7.55-5.44-9.92-2-2,16.57,12.44,36.73l7.33,8.91,11.51-1.67c24.43-5,33.68-14.5,34.26-18.59s-4.38-5-8.68-5.18-9.37.34-9.64-.65.1-1.83,1.88-2.75,18.28-9,18.68-16.08-14.74-7.09-16.83-7.57-1.17-2.26-.17-3,12.32-9.43,17.61-13.18,7.69-7.63,5.89-11.28-8.28-1.76-11.36-2-2.07-3.92-2.07-3.92,4.61-8.17,10.84-24.34-1.53-18.11-1.53-18.11" transform="translate(-13.48 -56.23)"/><path class="cls-5" d="M402.89,415.61c4.61-11.86,11.1-28.19,18.34-46.21s13.78-34.32,18.43-46.16l5.51-14c.66-1.64,1.15-2.92,1.51-3.81.17-.42.3-.75.4-1l.14-.34a.93.93,0,0,1-.11.35c-.11.23-.2.57-.36,1l-1.43,3.84c-1.25,3.33-3.1,8.14-5.41,14.06-4.6,11.86-11.1,28.2-18.34,46.21s-13.78,34.33-18.42,46.17" transform="translate(-13.48 -56.23)"/><path class="cls-5" d="M421.84,330.75a3.27,3.27,0,0,1,.37.75c.22.49.51,1.21.85,2.1.69,1.79,1.58,4.27,2.51,7s1.71,5.18,2.35,7.08l.71,2.15a3.07,3.07,0,0,1,.23.8,3.27,3.27,0,0,1-.37-.75c-.21-.49-.5-1.21-.84-2.11-.65-1.78-1.53-4.29-2.46-7.05l-2.39-7.07c-.29-.83-.53-1.55-.73-2.14A3.51,3.51,0,0,1,421.84,330.75Z" transform="translate(-13.48 -56.23)"/><path class="cls-5" d="M429.94,350.77c0-.09,5.05-2.15,11.36-4.57s11.47-4.3,11.5-4.2-5,2.14-11.35,4.57S430,350.88,429.94,350.77Z" transform="translate(-13.48 -56.23)"/><path class="cls-5" d="M417.57,377.94a4,4,0,0,1,.84-.12l2.32-.2c2-.17,4.65-.42,7.62-.8s5.65-.8,7.58-1.12l2.3-.38a3.47,3.47,0,0,1,.85-.1,4,4,0,0,1-.83.25c-.53.13-1.31.31-2.27.5-1.92.39-4.6.86-7.58,1.24s-5.69.58-7.65.69l-2.33.08A3.46,3.46,0,0,1,417.57,377.94Z" transform="translate(-13.48 -56.23)"/><path class="cls-5" d="M406.23,361.43a3.24,3.24,0,0,1,.51.6c.32.4.75,1,1.32,1.71,1.06,1.46,2.52,3.48,4.11,5.73s3,4.3,4,5.8c.51.75.91,1.36,1.18,1.78a2.93,2.93,0,0,1,.39.69,3.3,3.3,0,0,1-.52-.6c-.31-.4-.74-1-1.28-1.71-1.07-1.46-2.53-3.48-4.11-5.73s-3-4.31-4-5.8c-.51-.75-.92-1.36-1.19-1.78A3.4,3.4,0,0,1,406.23,361.43Z" transform="translate(-13.48 -56.23)"/><path class="cls-5" d="M392.23,384a4.4,4.4,0,0,1,.66.77l1.65,2.19c1.38,1.85,3.29,4.43,5.34,7.3s3.94,5.47,5.26,7.37l1.55,2.26a4.26,4.26,0,0,1,.52.87,5.38,5.38,0,0,1-.65-.78l-1.66-2.18c-1.38-1.87-3.29-4.44-5.33-7.31s-3.91-5.48-5.26-7.37l-1.55-2.25A4.81,4.81,0,0,1,392.23,384Z" transform="translate(-13.48 -56.23)"/><path class="cls-5" d="M407,404.19A7.83,7.83,0,0,1,408,404l2.92-.36c2.47-.31,5.89-.75,9.64-1.31s7.14-1.18,9.59-1.64l2.89-.53a5,5,0,0,1,1.08-.15,6.47,6.47,0,0,1-1,.3c-.66.17-1.66.4-2.88.65-2.44.52-5.82,1.18-9.58,1.76s-7.19,1-9.67,1.21c-1.24.11-2.24.19-2.94.23A5,5,0,0,1,407,404.19Z" transform="translate(-13.48 -56.23)"/></g><g id="freepik--Floor--inject-18"><path class="cls-7" d="M462.45,418.94c0,.09-98.6.17-220.2.17S22,419,22,418.94s98.58-.17,220.23-.17S462.45,418.88,462.45,418.94Z" transform="translate(-13.48 -56.23)"/></g><g id="freepik--Dasboard--inject-18"><path class="cls-8" d="M89.31,159.57H410.17a5.7,5.7,0,0,1,5.72,5.67V386.57a5.7,5.7,0,0,1-5.72,5.67H89.31a5.7,5.7,0,0,1-5.72-5.67V165.24A5.7,5.7,0,0,1,89.31,159.57Z" transform="translate(-13.48 -56.23)"/><path class="cls-5" d="M404.71,345.33H345.55a4.73,4.73,0,0,1-4.75-4.71V217.17a4.73,4.73,0,0,1,4.75-4.71h59.16a4.73,4.73,0,0,1,4.75,4.71V340.62A4.73,4.73,0,0,1,404.71,345.33ZM345.55,213.08a4.08,4.08,0,0,0-4.09,4.07V340.59a4.08,4.08,0,0,0,4.08,4.09h59.17a4.09,4.09,0,0,0,4.1-4.06V217.17a4.09,4.09,0,0,0-4.1-4.06Z" transform="translate(-13.48 -56.23)"/><path class="cls-9" d="M89.81,159.8H108a6.32,6.32,0,0,1,6.35,6.3v220a6.32,6.32,0,0,1-6.35,6.3H89.81a6.32,6.32,0,0,1-6.35-6.3v-220A6.32,6.32,0,0,1,89.81,159.8Z" transform="translate(-13.48 -56.23)"/><path class="cls-8" d="M112.66,260.08H89a1.83,1.83,0,0,0-1.84,1.82h0v18.56A1.84,1.84,0,0,0,89,282.3h25.68a1.82,1.82,0,0,0,1.83-1.83,1.15,1.15,0,0,0,0-.19L118.77,260Z" transform="translate(-13.48 -56.23)"/><path class="cls-7" d="M374.33,181.51l.16-.1a1.41,1.41,0,0,0,.39-.34,3.11,3.11,0,0,0,.52-1.82,5.89,5.89,0,0,1,.25-1.38,1.86,1.86,0,0,1,2.27-1.3,1.88,1.88,0,0,1,.64.3,2.69,2.69,0,0,1,.86,1.75,6.11,6.11,0,0,1,.08.86,1.91,1.91,0,0,0,.09.75,3,3,0,0,0,.89,1.15l.36.29h-.46c-1.81,0-3.39-.08-4.44-.11l-1.61-.05,1.79,0c1.09,0,2.55-.12,4.26-.12l-.09.29a3.1,3.1,0,0,1-1-1.31,2.11,2.11,0,0,1-.12-.86,7.35,7.35,0,0,0-.07-.82,2.48,2.48,0,0,0-.73-1.53,1.64,1.64,0,0,0-1.5-.21,1.62,1.62,0,0,0-.94,1,6.41,6.41,0,0,0-.28,1.3,4.91,4.91,0,0,1-.22,1.13,2.12,2.12,0,0,1-.44.75,1.2,1.2,0,0,1-.45.32.28.28,0,0,1-.13,0Z" transform="translate(-13.48 -56.23)"/><ellipse class="cls-10" cx="365.61" cy="121.28" rx="1.3" ry="1.29"/><path class="cls-11" d="M376.55,182.33h1.78a.86.86,0,0,1-.83.9.65.65,0,0,1-.14,0,.74.74,0,0,1-.83-.63A.82.82,0,0,1,376.55,182.33Z" transform="translate(-13.48 -56.23)"/><path class="cls-10" d="M390.5,173.17h7.83a3,3,0,0,1,3,3v7.77a3,3,0,0,1-3,2.94H390.5a3,3,0,0,1-3-2.94v-7.77A3,3,0,0,1,390.5,173.17Z" transform="translate(-13.48 -56.23)"/><path class="cls-10" d="M240.92,291.87c-5.92,0-8.56-4.61-11.08-9.08-2.11-3.67-4.28-7.47-7.84-7.47-3.95,0-5.92,1.48-8.19,3.2-2.46,1.87-5.26,4-10.72,4-6,0-8.5-5.59-11.14-11.5-2-4.58-4.33-9.72-7.78-9.72s-5.75,5.16-7.77,9.71c-2.64,5.92-5.14,11.51-11.14,11.51-5.66,0-8.44-3-10.91-5.59-2.25-2.41-4.21-4.48-8-4.48v-.56c4,0,6.08,2.16,8.42,4.66s5.09,5.41,10.5,5.41c5.64,0,8.06-5.43,10.62-11.17,2.09-4.71,4.48-10,8.29-10s6.2,5.34,8.3,10c2.56,5.74,5,11.17,10.62,11.17,5.26,0,8-2.06,10.37-3.87s4.37-3.32,8.56-3.32c3.89,0,6.14,3.92,8.32,7.76,2.47,4.32,5,8.78,10.6,8.78s8.11-4.18,10.58-8.22c2.28-3.73,4.42-7.24,8.33-7.24s6.06,2.23,8.41,4.82,5.09,5.61,10.53,5.61c5.65,0,8.07-5.78,10.63-11.91,2.1-5,4.49-10.75,8.29-10.75s6.12,4.38,8.31,8.63c2.46,4.78,5,9.71,10.61,9.71,5.41,0,8.11-2.87,10.53-5.41s4.38-4.66,8.42-4.66v.56c-3.8,0-5.75,2.07-8,4.48-2.46,2.61-5.26,5.59-10.91,5.59-5.92,0-8.55-5.09-11.11-10-2.11-4.09-4.29-8.33-7.81-8.33S292,269.69,290,274.57c-2.63,6.3-5.12,12.25-11.15,12.25-5.67,0-8.46-3.07-10.92-5.78-2.26-2.5-4.21-4.65-8-4.65-3.59,0-5.66,3.39-7.85,7C249.47,287.54,246.8,291.87,240.92,291.87Z" transform="translate(-13.48 -56.23)"/><path class="cls-5" d="M147.08,299.59l.14-.17a.63.63,0,0,0,.52.28c.29,0,.43-.17.43-.51v-1.41h-.86v-.22h1.1v1.62c0,.5-.23.74-.65.74A.78.78,0,0,1,147.08,299.59Z" transform="translate(-13.48 -56.23)"/><path class="cls-5" d="M150.45,298.81v1.09h-.23v-.27a.64.64,0,0,1-.61.28c-.4,0-.66-.2-.66-.51s.17-.49.66-.49h.56v-.11c0-.3-.17-.46-.5-.46a1,1,0,0,0-.59.2l-.11-.17a1.12,1.12,0,0,1,.72-.24.66.66,0,0,1,.75.55A.57.57,0,0,1,150.45,298.81Zm-.24.56v-.29h-.55c-.34,0-.46.14-.46.32s.17.33.45.33a.56.56,0,0,0,.56-.38Z" transform="translate(-13.48 -56.23)"/><path class="cls-5" d="M152.74,298.88v1h-.25v-1a.48.48,0,0,0-.4-.55.24.24,0,0,0-.12,0,.57.57,0,0,0-.62.52.28.28,0,0,0,0,.13v.92h-.24v-1.76h.23v.32a.75.75,0,0,1,.65-.33.66.66,0,0,1,.75.56A1,1,0,0,1,152.74,298.88Z" transform="translate(-13.48 -56.23)"/><path class="cls-5" d="M172.78,297.78v.92H174v.21h-1.22v1h-.25v-2.34h1.61v.21Z" transform="translate(-13.48 -56.23)"/><path class="cls-5" d="M176.09,299.1h-1.48a.65.65,0,0,0,.7.6.73.73,0,0,0,.54-.22l.13.15a.92.92,0,0,1-1.58-.53.22.22,0,0,1,0-.08.86.86,0,0,1,.81-.89h.06a.83.83,0,0,1,.85.82V299Zm-1.48-.18h1.26a.66.66,0,0,0-.82-.43A.67.67,0,0,0,174.61,298.92Z" transform="translate(-13.48 -56.23)"/><path class="cls-5" d="M178.4,299a.84.84,0,0,1-.81.89h-.07a.74.74,0,0,1-.66-.36v.35h-.22v-2.48h.24v1.06a.75.75,0,0,1,.65-.35.85.85,0,0,1,.87.84Zm-.23,0a.66.66,0,0,0-.69-.62.65.65,0,0,0-.63.68.66.66,0,0,0,.66.62.65.65,0,0,0,.63-.67h0Z" transform="translate(-13.48 -56.23)"/><path class="cls-5" d="M201.24,297.56v2.34H201v-1.85l-.92,1.56H200l-.92-1.56v1.86h-.23v-2.34H199l1,1.73,1-1.73Z" transform="translate(-13.48 -56.23)"/><path class="cls-5" d="M203.29,298.81v1.09h-.23v-.27a.68.68,0,0,1-.61.28c-.4,0-.65-.2-.65-.51s.17-.49.65-.49H203v-.11c0-.3-.17-.46-.5-.46a1,1,0,0,0-.59.2l-.11-.17a1.12,1.12,0,0,1,.72-.24.65.65,0,0,1,.74.55A.62.62,0,0,1,203.29,298.81Zm-.24.56v-.29h-.56c-.34,0-.45.14-.45.32s.16.33.45.33a.56.56,0,0,0,.56-.38Z" transform="translate(-13.48 -56.23)"/><path class="cls-5" d="M204.83,298.13v.23h-.05a.57.57,0,0,0-.61.53.49.49,0,0,0,0,.12v.9h-.24v-1.76h.23v.35A.66.66,0,0,1,204.83,298.13Z" transform="translate(-13.48 -56.23)"/><path class="cls-5" d="M225.32,299.27H224l-.29.66h-.25l1.08-2.34h.24l1.08,2.34h-.26Zm-.09-.19-.57-1.26-.56,1.26Z" transform="translate(-13.48 -56.23)"/><path class="cls-5" d="M228,299a.84.84,0,0,1-.81.89h-.07a.76.76,0,0,1-.66-.34v1h-.24v-2.41h.22v.35a.76.76,0,0,1,.66-.36.85.85,0,0,1,.9.8Zm-.24,0a.66.66,0,0,0-1.31.06.66.66,0,0,0,.66.62.65.65,0,0,0,.65-.65v0Z" transform="translate(-13.48 -56.23)"/><path class="cls-5" d="M229.38,298.13v.23h-.06a.57.57,0,0,0-.59.65v.9h-.24v-1.76h.23v.35A.66.66,0,0,1,229.38,298.13Z" transform="translate(-13.48 -56.23)"/><path class="cls-5" d="M253.76,297.56v2.34h-.24v-1.85l-.93,1.56h-.12l-.92-1.56v1.86h-.24v-2.34h.2l1,1.73,1-1.73Z" transform="translate(-13.48 -56.23)"/><path class="cls-5" d="M255.81,298.81v1.09h-.23v-.27a.66.66,0,0,1-.6.28c-.41,0-.66-.2-.66-.51s.17-.49.66-.49h.56v-.11c0-.3-.17-.46-.5-.46a1,1,0,0,0-.59.2l-.11-.17a1.12,1.12,0,0,1,.72-.24.67.67,0,0,1,.75.55Zm-.24.56v-.29H255c-.34,0-.45.14-.45.32s.17.33.45.33a.56.56,0,0,0,.56-.38Z" transform="translate(-13.48 -56.23)"/><path class="cls-5" d="M257.92,298.14l-.89,2c-.15.35-.34.46-.59.46a.63.63,0,0,1-.42-.16l.1-.18a.48.48,0,0,0,.32.13c.16,0,.27-.07.37-.29l.08-.17-.79-1.75h.25l.66,1.49.66-1.49Z" transform="translate(-13.48 -56.23)"/><path class="cls-5" d="M276,299.59l.14-.17a.61.61,0,0,0,.51.28c.29,0,.44-.17.44-.51v-1.41h-.86v-.22h1.1v1.62c0,.5-.23.74-.65.74A.78.78,0,0,1,276,299.59Z" transform="translate(-13.48 -56.23)"/><path class="cls-5" d="M279.59,298.14v1.76h-.22v-.32a.72.72,0,0,1-.66.33.66.66,0,0,1-.75-.54.74.74,0,0,1,0-.21v-1h.25v1c0,.38.19.56.53.56a.56.56,0,0,0,.6-.54v-1Z" transform="translate(-13.48 -56.23)"/><path class="cls-5" d="M281.9,298.88v1h-.25v-1a.48.48,0,0,0-.4-.55.24.24,0,0,0-.12,0,.58.58,0,0,0-.63.52.53.53,0,0,0,0,.13v.92h-.24v-1.76h.23v.32a.75.75,0,0,1,.65-.33.66.66,0,0,1,.75.56Z" transform="translate(-13.48 -56.23)"/><path class="cls-5" d="M302.22,299.59l.16-.17a.56.56,0,0,0,.5.28c.29,0,.44-.17.44-.51v-1.41h-.86v-.22h1.1v1.62c0,.5-.23.74-.66.74A.79.79,0,0,1,302.22,299.59Z" transform="translate(-13.48 -56.23)"/><path class="cls-5" d="M305.86,298.14v1.76h-.23v-.32a.73.73,0,0,1-.66.33.66.66,0,0,1-.75-.55.45.45,0,0,1,0-.2v-1h.23v1a.49.49,0,0,0,.54.56.58.58,0,0,0,.61-.54.45.45,0,0,0,0-.11v-.92Z" transform="translate(-13.48 -56.23)"/><path class="cls-5" d="M306.53,297.42h.24v2.48h-.24Z" transform="translate(-13.48 -56.23)"/><path class="cls-5" d="M329.15,299.27h-1.31l-.29.66h-.25l1.07-2.34h.25l1.07,2.34h-.26Zm-.08-.19-.57-1.26-.56,1.26Z" transform="translate(-13.48 -56.23)"/><path class="cls-5" d="M331.6,298.14v1.76h-.22v-.32a.73.73,0,0,1-.66.33.66.66,0,0,1-.75-.55.67.67,0,0,1,0-.2v-1h.23v1a.49.49,0,0,0,.54.56.56.56,0,0,0,.6-.54.41.41,0,0,0,0-.11v-.92Z" transform="translate(-13.48 -56.23)"/><path class="cls-5" d="M333.91,298.14v1.54a.77.77,0,0,1-.65.89H333a1.22,1.22,0,0,1-.82-.28l.12-.17a1,1,0,0,0,.69.23c.45,0,.66-.2.66-.65v-.23a.78.78,0,0,1-.69.35.86.86,0,0,1-.93-.78.85.85,0,0,1,.78-.93H333a.8.8,0,0,1,.7.35v-.34Zm-.23.84a.66.66,0,1,0-.66.65.65.65,0,0,0,.66-.65v0Z" transform="translate(-13.48 -56.23)"/><path class="cls-5" d="M134.75,298.5c0-.51.27-.82.65-.82s.66.31.66.82-.27.81-.66.81S134.75,299,134.75,298.5Zm1.11,0c0-.43-.19-.66-.47-.66s-.48.24-.48.66.2.65.48.65S135.86,298.93,135.86,298.5Z" transform="translate(-13.48 -56.23)"/><path class="cls-5" d="M133.28,290.1v1.61h-.17v-1.46h-.38v-.15Z" transform="translate(-13.48 -56.23)"/><path class="cls-5" d="M133.65,290.91c0-.51.27-.82.66-.82s.66.31.66.82-.27.81-.66.81S133.65,291.42,133.65,290.91Zm1.12,0c0-.43-.19-.66-.47-.66s-.48.24-.48.66.2.65.48.65.49-.23.49-.65Z" transform="translate(-13.48 -56.23)"/><path class="cls-5" d="M133.94,285.28v.15H132.8v-.12l.66-.65c.18-.18.22-.29.22-.4a.37.37,0,0,0-.38-.3.55.55,0,0,0-.44.18l-.12-.1a.73.73,0,0,1,.57-.23c.33,0,.54.17.54.43a.68.68,0,0,1-.27.51l-.55.53Z" transform="translate(-13.48 -56.23)"/><path class="cls-5" d="M134.13,284.62c0-.51.27-.81.66-.81s.66.3.66.81-.27.82-.66.82S134.13,285.14,134.13,284.62Zm1.12,0c0-.42-.19-.65-.47-.65s-.48.24-.48.65.2.66.48.66S135.25,285.05,135.25,284.62Z" transform="translate(-13.48 -56.23)"/><path class="cls-5" d="M133.9,278.45c0,.27-.19.48-.59.48a.88.88,0,0,1-.58-.21l.08-.13a.78.78,0,0,0,.5.19c.27,0,.42-.13.42-.33s-.14-.32-.44-.32h-.11V278l.45-.56h-.83v-.14h1v.12l-.46.56C133.73,278,133.9,278.22,133.9,278.45Z" transform="translate(-13.48 -56.23)"/><path class="cls-5" d="M134.13,278.13c0-.51.27-.82.66-.82s.66.31.66.82-.27.82-.66.82S134.13,278.64,134.13,278.13Zm1.12,0c0-.43-.19-.65-.47-.65s-.48.23-.48.65.2.65.48.65S135.25,278.56,135.25,278.13Z" transform="translate(-13.48 -56.23)"/><path class="cls-5" d="M134.21,272.23h-.33v.42h-.16v-.42h-.92v-.11l.86-1.07h.18l-.84,1h.69v-.36h.17v.36h.32Z" transform="translate(-13.48 -56.23)"/><path class="cls-5" d="M134.36,271.85c0-.51.27-.81.66-.81s.65.3.65.81-.27.82-.65.82S134.36,272.36,134.36,271.85Zm1.12,0c0-.43-.19-.65-.48-.65s-.47.24-.47.65.19.66.47.66S135.48,272.28,135.48,271.85Z" transform="translate(-13.48 -56.23)"/><path class="cls-5" d="M133.93,266.16c0,.27-.19.48-.59.48a.8.8,0,0,1-.57-.2l.07-.13a.72.72,0,0,0,.5.18c.27,0,.42-.13.42-.32s-.13-.34-.54-.34h-.34L133,265h.88v.15h-.73l-.06.51h.21C133.75,265.68,133.93,265.87,133.93,266.16Z" transform="translate(-13.48 -56.23)"/><path class="cls-5" d="M134.14,265.83c0-.51.27-.82.66-.82s.66.31.66.82-.28.81-.66.81S134.14,266.34,134.14,265.83Zm1.12,0c0-.43-.2-.66-.47-.66s-.49.24-.49.66.2.65.49.65S135.26,266.26,135.26,265.83Z" transform="translate(-13.48 -56.23)"/><path class="cls-5" d="M134.05,259.88a.5.5,0,0,1-.51.49h0c-.43,0-.66-.3-.66-.81a.74.74,0,0,1,.73-.83.86.86,0,0,1,.39.09l-.06.13a.6.6,0,0,0-.32-.07c-.35,0-.57.22-.57.65v.13a.57.57,0,0,1,1,.16Zm-.17,0a.35.35,0,0,0-.4-.35.38.38,0,0,0-.42.33v0c0,.18.15.35.43.35a.36.36,0,0,0,.39-.31Z" transform="translate(-13.48 -56.23)"/><path class="cls-5" d="M134.24,259.55c0-.51.27-.82.66-.82s.66.31.66.82-.27.82-.66.82S134.24,260.06,134.24,259.55Zm1.12,0c0-.43-.19-.65-.48-.65s-.48.23-.48.65.2.65.48.65S135.36,260,135.36,259.55Z" transform="translate(-13.48 -56.23)"/><g class="cls-12"><rect class="cls-5" x="129.04" y="203.71" width="193.64" height="0.16"/><rect class="cls-5" x="129.04" y="209.97" width="193.64" height="0.16"/><rect class="cls-5" x="129.04" y="216.24" width="193.64" height="0.16"/><rect class="cls-5" x="129.04" y="222.5" width="193.64" height="0.16"/><rect class="cls-5" x="129.04" y="228.76" width="193.64" height="0.16"/><rect class="cls-5" x="129.04" y="235.03" width="193.64" height="0.16"/></g><path class="cls-10" d="M186.06,261.29a1.93,1.93,0,1,0-1.94,1.9h0A1.92,1.92,0,0,0,186.06,261.29Z" transform="translate(-13.48 -56.23)"/><path class="cls-13" d="M242.68,291.4a1.92,1.92,0,1,0-1.92,1.92,1.91,1.91,0,0,0,1.92-1.92Z" transform="translate(-13.48 -56.23)"/><path class="cls-8" d="M103.47,209.52a.25.25,0,0,1-.16-.06l-4.42-4-4.43,4a.26.26,0,0,1-.35,0,.23.23,0,0,1,0-.34h0L98.72,205a.26.26,0,0,1,.33,0l4.61,4.12a.25.25,0,0,1,0,.35h0A.31.31,0,0,1,103.47,209.52Z" transform="translate(-13.48 -56.23)"/><path class="cls-8" d="M102.22,213H95.55a.24.24,0,0,1-.24-.24v-4.57a.23.23,0,0,1,.23-.25h0a.25.25,0,0,1,.25.25h0v4.29H102v-4.35a.25.25,0,0,1,.24-.25h0a.25.25,0,0,1,.25.25h0v4.57a.24.24,0,0,1-.19.29Z" transform="translate(-13.48 -56.23)"/><path class="cls-8" d="M103,241.52H94.34a.24.24,0,0,1-.25-.24v-5.51a1.24,1.24,0,0,1,1.24-1.23H97.6a1.39,1.39,0,0,1,1.31.86l.39.92h2.75a1.24,1.24,0,0,1,1.24,1.23v3.73a.24.24,0,0,1-.24.24ZM94.58,241h8.2v-3.48a.75.75,0,0,0-.75-.74H99.12a.25.25,0,0,1-.23-.15l-.46-1.07a.89.89,0,0,0-.83-.56H95.33a.75.75,0,0,0-.75.74Z" transform="translate(-13.48 -56.23)"/><path class="cls-8" d="M96.22,342.54a.67.67,0,0,1-.38-.13.63.63,0,0,1-.26-.65l.36-2.29a.16.16,0,0,0,0-.14l-1.65-1.65a.65.65,0,0,1,0-.92.66.66,0,0,1,.35-.18l2.31-.36a.16.16,0,0,0,.12-.09l1.07-2.07a.65.65,0,0,1,.88-.28.61.61,0,0,1,.29.28l1.06,2.07a.19.19,0,0,0,.12.09l2.31.36a.65.65,0,0,1,.54.75.59.59,0,0,1-.18.35l-1.65,1.65a.19.19,0,0,0,0,.14l.37,2.29a.65.65,0,0,1-.92.71l-2.09-1.05a.19.19,0,0,0-.15,0l-2.08,1.05A.72.72,0,0,1,96.22,342.54Zm2.46-1.63a.73.73,0,0,1,.3.07l2.09,1a.16.16,0,0,0,.22-.07.16.16,0,0,0,0-.1l-.37-2.29a.66.66,0,0,1,.19-.56l1.65-1.65a.17.17,0,0,0,0-.23l-.09,0-2.31-.37a.65.65,0,0,1-.48-.34l-1.06-2.07h0a.16.16,0,0,0-.15-.09.15.15,0,0,0-.14.09l-1.08,2.07a.65.65,0,0,1-.48.34l-2.31.37a.15.15,0,0,0-.13.11.14.14,0,0,0,0,.16L96.23,339a.62.62,0,0,1,.18.56l-.36,2.29a.16.16,0,0,0,.07.16.17.17,0,0,0,.17,0l2.08-1A.85.85,0,0,1,98.68,340.91Z" transform="translate(-13.48 -56.23)"/><path class="cls-8" d="M103.56,308.12H93.8a.26.26,0,0,1-.24-.25v-6.11a.24.24,0,0,1,.24-.24h9.76a.25.25,0,0,1,.25.24h0v6.08a.26.26,0,0,1-.22.28Zm-9.51-.49h9.27V302H94.05Z" transform="translate(-13.48 -56.23)"/><path class="cls-8" d="M98.78,306.4a.22.22,0,0,1-.17-.07l-5-4.39a.23.23,0,0,1-.07-.34.24.24,0,0,1,.34-.07l.06.05,4.83,4.24,4.61-4.23a.24.24,0,0,1,.34,0h0a.23.23,0,0,1,0,.34L99,306.32A.25.25,0,0,1,98.78,306.4Z" transform="translate(-13.48 -56.23)"/><path class="cls-8" d="M94,307.84a.25.25,0,0,1-.19-.41h0l3-2.94a.23.23,0,0,1,.34,0,.24.24,0,0,1,0,.35l-3,2.94A.23.23,0,0,1,94,307.84Z" transform="translate(-13.48 -56.23)"/><path class="cls-8" d="M103.63,308.05a.24.24,0,0,1-.18-.07l-3.17-3.15a.24.24,0,1,1,.34-.34h0l3.18,3.14a.25.25,0,0,1,0,.35h0A.28.28,0,0,1,103.63,308.05Z" transform="translate(-13.48 -56.23)"/><rect class="cls-14" x="84.69" y="212.7" width="1.44" height="1.43"/><rect class="cls-14" x="87.41" y="212.7" width="1.44" height="1.43"/><rect class="cls-14" x="81.97" y="212.7" width="1.44" height="1.43"/><rect class="cls-14" x="87.41" y="214.96" width="1.44" height="1.43"/><rect class="cls-14" x="84.69" y="214.96" width="1.44" height="1.43"/><rect class="cls-14" x="81.97" y="214.96" width="1.44" height="1.43"/><path class="cls-14" d="M104,275.06H93.77a.24.24,0,0,1-.25-.23h0v-8.35a.25.25,0,0,1,.25-.25H104a.25.25,0,0,1,.25.25v8.35a.24.24,0,0,1-.24.24Zm-10-.49h9.75v-7.88H94Z" transform="translate(-13.48 -56.23)"/><path class="cls-14" d="M96.53,267.72a.25.25,0,0,1-.24-.25v-2.69a.25.25,0,0,1,.2-.28.24.24,0,0,1,.29.2.11.11,0,0,1,0,.08v2.69a.25.25,0,0,1-.25.25Z" transform="translate(-13.48 -56.23)"/><path class="cls-14" d="M101,267.72a.24.24,0,0,1-.24-.25v-2.69a.24.24,0,0,1,.2-.28.24.24,0,0,1,.29.2v2.77a.25.25,0,0,1-.25.25Z" transform="translate(-13.48 -56.23)"/><rect class="cls-10" x="157.87" y="300.11" width="3.28" height="10.91"/><rect class="cls-10" x="130.46" y="298.53" width="3.28" height="12.49"/><rect class="cls-10" x="137.31" y="295.93" width="3.28" height="15.09"/><rect class="cls-10" x="144.16" y="296.76" width="3.28" height="14.26"/><rect class="cls-10" x="151.01" y="291.94" width="3.28" height="19.08"/><rect class="cls-10" x="164.72" y="292.03" width="3.28" height="18.99"/><rect class="cls-10" x="171.57" y="298.27" width="3.28" height="12.76"/><rect class="cls-10" x="178.41" y="292.86" width="3.28" height="18.16"/><rect class="cls-10" x="185.26" y="288.78" width="3.28" height="22.25"/><rect class="cls-10" x="192.11" y="292.77" width="3.28" height="18.25"/><path class="cls-5" d="M215.73,380.77H135a6.63,6.63,0,0,1-6.65-6.61V326.28a6.63,6.63,0,0,1,6.66-6.61h80.68a6.65,6.65,0,0,1,6.66,6.61v47.88A6.65,6.65,0,0,1,215.73,380.77ZM135,320.32a6,6,0,0,0-6,6v47.88a6,6,0,0,0,6,6h80.69a6,6,0,0,0,6-6V326.28a6,6,0,0,0-6-6Z" transform="translate(-13.48 -56.23)"/><path class="cls-5" d="M181,335.59c0,.1-9.33.17-20.84.17s-20.85-.07-20.85-.17,9.33-.17,20.85-.17S181,335.5,181,335.59Z" transform="translate(-13.48 -56.23)"/><path class="cls-15" d="M254.59,344.93a10.7,10.7,0,0,0-2.31,1.76,11.52,11.52,0,0,0-1.77,2.28,11,11,0,0,0,0,11,11.11,11.11,0,0,0,4.08,4.05,11.63,11.63,0,0,0,2.68,1.1,11.29,11.29,0,0,0,5.77,0,11.55,11.55,0,0,0,2.68-1.1,11,11,0,0,0,2.27-1.74h0a11.17,11.17,0,0,0,2.89-4.95A11,11,0,0,0,265.69,345a11.19,11.19,0,0,0-8.45-1.11A11.38,11.38,0,0,0,254.59,344.93Z" transform="translate(-13.48 -56.23)"/><path class="cls-10" d="M265.72,364.07a11.55,11.55,0,0,1-2.68,1.1,11.29,11.29,0,0,1-5.77,0,11.63,11.63,0,0,1-2.68-1.1,11.11,11.11,0,0,1-4.08-4.05,11,11,0,0,1,0-11,11.52,11.52,0,0,1,1.77-2.28,10.7,10.7,0,0,1,2.31-1.76,11.66,11.66,0,0,1,2.68-1.11,10.79,10.79,0,0,1,2.88-.37v-2.18a13.26,13.26,0,0,0-11.54,6.61,12.69,12.69,0,0,0-1.31,3.19,13.26,13.26,0,0,0,0,6.85,12.69,12.69,0,0,0,1.31,3.19,13.42,13.42,0,0,0,8.1,6.17,13.67,13.67,0,0,0,6.9,0,13,13,0,0,0,3.21-1.31,13.52,13.52,0,0,0,2.74-2.07L268,362.35A10.92,10.92,0,0,1,265.72,364.07Z" transform="translate(-13.48 -56.23)"/><path class="cls-5" d="M273,351.07a13.34,13.34,0,0,0-9.43-9.36,13.77,13.77,0,0,0-3.45-.44v2.18a11.17,11.17,0,0,1,7.87,3.23,11.13,11.13,0,0,1,2.89,5,10.88,10.88,0,0,1,0,5.72,11.12,11.12,0,0,1-1.12,2.66,11,11,0,0,1-1.77,2.29h0l1.56,1.54h0A13.19,13.19,0,0,0,273,351.07Z" transform="translate(-13.48 -56.23)"/><path class="cls-7" d="M258,355.9a1.2,1.2,0,0,1-1.21,1.18h-.11c-1,0-1.58-.7-1.58-1.91a1.76,1.76,0,0,1,1.76-2,1.83,1.83,0,0,1,.92.21l-.17.32a1.28,1.28,0,0,0-.74-.19c-.83,0-1.37.53-1.37,1.57v.31a1.24,1.24,0,0,1,1.18-.65,1.17,1.17,0,0,1,1.31,1C258,355.81,258,355.85,258,355.9Zm-.39,0c0-.5-.37-.82-1-.82a.89.89,0,0,0-1,.78v.05c0,.42.34.82,1,.82a.83.83,0,0,0,.92-.75.17.17,0,0,0,0-.07Z" transform="translate(-13.48 -56.23)"/><path class="cls-7" d="M261.08,355.91c0,.66-.45,1.16-1.39,1.16a2,2,0,0,1-1.38-.49l.19-.31a1.61,1.61,0,0,0,1.18.44c.66,0,1-.31,1-.78s-.3-.79-1.28-.79h-.82l.2-1.92h2.1v.34h-1.76l-.13,1.22h.49C260.66,354.78,261.08,355.24,261.08,355.91Z" transform="translate(-13.48 -56.23)"/><path class="cls-7" d="M261.48,354.22c0-.62.35-1,.86-1s.87.41.87,1a.91.91,0,0,1-.87,1C261.83,355.25,261.48,354.87,261.48,354.22Zm1.46,0c0-.5-.24-.79-.6-.79s-.59.3-.59.79.23.79.59.79S262.94,354.73,262.94,354.22Zm1.73-1H265L262.37,357H262Zm-.84,2.81a.92.92,0,0,1,.87-1c.52,0,.86.42.86,1s-.34,1-.86,1a.9.9,0,0,1-.87-1Zm1.46,0c0-.49-.23-.79-.59-.79s-.6.29-.6.79.24.79.6.79.57-.29.57-.78Z" transform="translate(-13.48 -56.23)"/><path class="cls-5" d="M311.86,354.5A13.2,13.2,0,0,1,305.2,366a12.89,12.89,0,0,1-3.22,1.31,13.67,13.67,0,0,1-6.9,0,13.2,13.2,0,0,1-8.08-6.15,12.8,12.8,0,0,1-1.32-3.18,13.29,13.29,0,0,1-.42-2.51h2.2a11.82,11.82,0,0,0,.34,2,10.7,10.7,0,0,0,1.11,2.66,11,11,0,0,0,1.78,2.29,11.17,11.17,0,0,0,10.75,2.86,10.81,10.81,0,0,0,2.68-1.1,11.23,11.23,0,0,0,2.3-1.76,11.17,11.17,0,0,0,2.89-5,10.88,10.88,0,0,0-1.14-8.41,10.63,10.63,0,0,0-1.77-2.29,11.18,11.18,0,0,0-7.87-3.24v-2.18a13.2,13.2,0,0,1,13.33,13.22Z" transform="translate(-13.48 -56.23)"/><path class="cls-7" d="M295.54,353v.27l-1.62,3.55h-.43l1.58-3.47h-2v.71h-.39V353Z" transform="translate(-13.48 -56.23)"/><path class="cls-7" d="M298.55,355.7c0,.65-.45,1.15-1.39,1.15a1.94,1.94,0,0,1-1.38-.49l.19-.31a1.69,1.69,0,0,0,1.19.45c.66,0,1-.32,1-.78s-.3-.8-1.31-.8H296l.2-1.91h2.1v.34h-1.73l-.13,1.22H297C298.12,354.57,298.55,355,298.55,355.7Z" transform="translate(-13.48 -56.23)"/><path class="cls-7" d="M299,354c0-.62.35-1,.87-1s.87.42.87,1a.88.88,0,1,1-1.74,0Zm1.46,0c0-.49-.24-.79-.59-.79s-.6.3-.6.79.23.79.6.79S300.41,354.51,300.41,354Zm1.74-1h.32l-2.63,3.81h-.33Zm-.85,2.81c0-.66.36-1,.87-1s.87.41.87,1-.35,1-.87,1a.91.91,0,0,1-.87-1Zm1.46,0c0-.5-.23-.79-.59-.79s-.59.29-.59.79.24.79.59.79.61-.3.61-.79Z" transform="translate(-13.48 -56.23)"/><path class="cls-10" d="M309.67,354.5a11,11,0,0,1-.38,2.86,10.89,10.89,0,0,1-1.12,2.66,11.14,11.14,0,0,1-1.77,2.29,11.6,11.6,0,0,1-2.3,1.76,11.22,11.22,0,0,1-11.13,0,11.6,11.6,0,0,1-2.3-1.76,11.27,11.27,0,0,1-1.78-2.29,10.86,10.86,0,0,1-1.11-2.66,12,12,0,0,1-.34-2h0c0-.31,0-.61,0-.92a11,11,0,0,1,.37-2.86,11.18,11.18,0,0,1,10.78-8.22v-2.18a13.43,13.43,0,0,0-9.42,3.88,13.22,13.22,0,0,0-3.91,9.35,7.08,7.08,0,0,0,0,.92h0a13.19,13.19,0,0,0,.42,2.5,12.69,12.69,0,0,0,1.31,3.19,13.24,13.24,0,0,0,8.09,6.15,13.67,13.67,0,0,0,6.9,0,13,13,0,0,0,3.22-1.31,13.31,13.31,0,0,0,6.21-8,13.09,13.09,0,0,0,.45-3.41Z" transform="translate(-13.48 -56.23)"/><path class="cls-5" d="M322.36,379.94H236.31a5.78,5.78,0,0,1-5.78-5.75V326.25a5.77,5.77,0,0,1,5.78-5.74h86.05a5.78,5.78,0,0,1,5.79,5.74v47.94A5.79,5.79,0,0,1,322.36,379.94Zm-86.05-58.77a5.1,5.1,0,0,0-5.12,5.08v47.94a5.1,5.1,0,0,0,5.12,5.09h86.05a5.12,5.12,0,0,0,5.13-5.09V326.25a5.11,5.11,0,0,0-5.13-5.08Z" transform="translate(-13.48 -56.23)"/><path class="cls-5" d="M280.25,334c0,.1-9,.17-20.1.17s-20.09-.07-20.09-.17,9-.17,20.09-.17S280.25,333.88,280.25,334Z" transform="translate(-13.48 -56.23)"/><path class="cls-5" d="M351.34,268.58h0a1.38,1.38,0,0,1-1.38-1.36V241.71a1.37,1.37,0,0,1,1.38-1.36h0a1.37,1.37,0,0,1,1.37,1.36h0v25.51a1.37,1.37,0,0,1-1.37,1.36Z" transform="translate(-13.48 -56.23)"/><path class="cls-10" d="M351.34,268.7h0a1.37,1.37,0,0,1-1.38-1.35V250.9a1.38,1.38,0,0,1,1.38-1.37h0a1.37,1.37,0,0,1,1.37,1.37v16.45A1.37,1.37,0,0,1,351.34,268.7Z" transform="translate(-13.48 -56.23)"/><path class="cls-7" d="M350.47,269.76V272h-.23V270h-.54v-.21Z" transform="translate(-13.48 -56.23)"/><path class="cls-7" d="M351,270.89c0-.71.39-1.15.92-1.15s.91.44.91,1.15-.38,1.16-.91,1.16S351,271.62,351,270.89Zm1.59,0c0-.6-.28-.93-.66-.93s-.66.33-.66.93.27.94.66.94.66-.33.66-.94Z" transform="translate(-13.48 -56.23)"/><path class="cls-5" d="M356.81,268.58h0a1.37,1.37,0,0,1-1.39-1.34V241.71a1.37,1.37,0,0,1,1.37-1.36h0a1.36,1.36,0,0,1,1.37,1.36h0v25.51A1.37,1.37,0,0,1,356.81,268.58Z" transform="translate(-13.48 -56.23)"/><path class="cls-10" d="M356.81,268.7h0a1.37,1.37,0,0,1-1.39-1.34h0V245.72a1.37,1.37,0,0,1,1.37-1.37h0a1.37,1.37,0,0,1,1.37,1.37v21.63A1.36,1.36,0,0,1,356.81,268.7Z" transform="translate(-13.48 -56.23)"/><path class="cls-7" d="M356.48,271.82V272h-1.6v-.16l.95-.93c.26-.25.31-.4.31-.56s-.19-.42-.54-.42a.81.81,0,0,0-.62.25l-.17-.15a1.11,1.11,0,0,1,.81-.32c.47,0,.76.24.76.62a.89.89,0,0,1-.38.7l-.77.76Z" transform="translate(-13.48 -56.23)"/><path class="cls-7" d="M356.74,270.89c0-.71.38-1.15.91-1.15s.91.44.91,1.15-.39,1.16-.91,1.16S356.74,271.62,356.74,270.89Zm1.58,0c0-.6-.27-.93-.66-.93s-.66.33-.66.93.28.94.66.94.69-.33.69-.94Z" transform="translate(-13.48 -56.23)"/><path class="cls-5" d="M362.29,268.58h0a1.36,1.36,0,0,1-1.37-1.36h0V241.71a1.36,1.36,0,0,1,1.37-1.36h0a1.37,1.37,0,0,1,1.37,1.36h0v25.51a1.37,1.37,0,0,1-1.37,1.36Z" transform="translate(-13.48 -56.23)"/><path class="cls-10" d="M362.29,268.7h0a1.36,1.36,0,0,1-1.37-1.36h0V254.77a1.36,1.36,0,0,1,1.37-1.35h0a1.36,1.36,0,0,1,1.37,1.35h0v12.58A1.37,1.37,0,0,1,362.29,268.7Z" transform="translate(-13.48 -56.23)"/><path class="cls-7" d="M361.93,271.38c0,.38-.27.65-.83.65a1.18,1.18,0,0,1-.82-.29l.11-.19a1.05,1.05,0,0,0,.71.27c.38,0,.59-.18.59-.46s-.19-.45-.61-.45h-.17v-.17l.66-.79H360.4v-.21h1.47V270l-.66.81C361.69,270.76,361.93,271,361.93,271.38Z" transform="translate(-13.48 -56.23)"/><path class="cls-7" d="M362.26,270.89c0-.71.38-1.15.91-1.15s.91.44.91,1.15-.38,1.16-.91,1.16S362.26,271.62,362.26,270.89Zm1.58,0c0-.6-.27-.93-.66-.93s-.66.33-.66.93.28.94.66.94.66-.33.66-.94Z" transform="translate(-13.48 -56.23)"/><path class="cls-5" d="M367.76,268.58h0a1.37,1.37,0,0,1-1.37-1.36h0V241.71a1.37,1.37,0,0,1,1.37-1.36h0a1.36,1.36,0,0,1,1.37,1.36h0v25.51a1.36,1.36,0,0,1-1.37,1.36Z" transform="translate(-13.48 -56.23)"/><path class="cls-10" d="M367.76,268.7h0a1.37,1.37,0,0,1-1.37-1.36h0V245.72a1.37,1.37,0,0,1,1.37-1.37h0a1.37,1.37,0,0,1,1.37,1.37v21.63A1.36,1.36,0,0,1,367.76,268.7Z" transform="translate(-13.48 -56.23)"/><path class="cls-7" d="M367.78,271.44h-.46V272h-.24v-.59h-1.31v-.17l1.21-1.51h.26l-1.17,1.47h1v-.53h.24v.53h.45Z" transform="translate(-13.48 -56.23)"/><path class="cls-7" d="M368,270.89c0-.71.38-1.15.91-1.15s.92.44.92,1.15-.39,1.16-.92,1.16S368,271.62,368,270.89Zm1.58,0c0-.6-.27-.93-.66-.93s-.65.33-.65.93.27.94.65.94S369.57,271.5,369.57,270.89Z" transform="translate(-13.48 -56.23)"/><path class="cls-5" d="M373.24,268.58h0a1.37,1.37,0,0,1-1.36-1.36V241.71a1.36,1.36,0,0,1,1.37-1.36h0a1.36,1.36,0,0,1,1.37,1.36h0v25.51a1.36,1.36,0,0,1-1.37,1.36Z" transform="translate(-13.48 -56.23)"/><path class="cls-10" d="M373.24,268.7h0a1.36,1.36,0,0,1-1.36-1.35V249.86a1.36,1.36,0,0,1,1.37-1.36h0a1.36,1.36,0,0,1,1.37,1.36h0v17.49a1.36,1.36,0,0,1-1.38,1.35Z" transform="translate(-13.48 -56.23)"/><path class="cls-7" d="M373.12,271.36c0,.39-.27.66-.83.66a1.19,1.19,0,0,1-.82-.3l.12-.18a1,1,0,0,0,.7.26c.39,0,.59-.19.59-.46s-.18-.47-.76-.47h-.49l.12-1.14H373V270H372l-.07.72h.29C372.86,270.69,373.12,271,373.12,271.36Z" transform="translate(-13.48 -56.23)"/><path class="cls-7" d="M373.42,270.89c0-.71.38-1.15.9-1.15s.92.44.92,1.15-.38,1.16-.92,1.16S373.42,271.62,373.42,270.89Zm1.58,0c0-.6-.28-.93-.66-.93s-.66.33-.66.93.28.94.66.94S375,271.5,375,270.89Z" transform="translate(-13.48 -56.23)"/><path class="cls-5" d="M378.72,268.58h0a1.36,1.36,0,0,1-1.37-1.36h0V241.71a1.36,1.36,0,0,1,1.37-1.36h0a1.36,1.36,0,0,1,1.37,1.36h0v25.51a1.36,1.36,0,0,1-1.37,1.36Z" transform="translate(-13.48 -56.23)"/><path class="cls-10" d="M378.72,268.58h0a1.31,1.31,0,0,1-1.37-1.24V254.77a1.39,1.39,0,0,1,1.3-1.47h.07a1.36,1.36,0,0,1,1.37,1.36h0v12.56a1.36,1.36,0,0,1-1.37,1.36Z" transform="translate(-13.48 -56.23)"/><path class="cls-7" d="M378.53,271.35a.7.7,0,0,1-.71.7h-.06c-.61,0-.94-.42-.94-1.14a1.05,1.05,0,0,1,1-1.17,1.06,1.06,0,0,1,.55.13l-.1.18a.84.84,0,0,0-.44-.1c-.49,0-.81.31-.81.92v.19a.74.74,0,0,1,.7-.39.69.69,0,0,1,.77.6Zm-.23,0c0-.29-.21-.49-.57-.49a.51.51,0,0,0-.2,1h.2a.5.5,0,0,0,.57-.42v-.07Z" transform="translate(-13.48 -56.23)"/><path class="cls-7" d="M378.8,270.89c0-.71.39-1.15.92-1.15s.91.44.91,1.15-.38,1.16-.91,1.16S378.8,271.62,378.8,270.89Zm1.59,0c0-.6-.28-.93-.66-.93s-.66.33-.66.93.27.94.66.94S380.39,271.5,380.39,270.89Z" transform="translate(-13.48 -56.23)"/><path class="cls-5" d="M384.19,268.58h0a1.36,1.36,0,0,1-1.36-1.36h0V241.71a1.36,1.36,0,0,1,1.36-1.36h0a1.36,1.36,0,0,1,1.37,1.36h0v25.51a1.36,1.36,0,0,1-1.37,1.36Z" transform="translate(-13.48 -56.23)"/><path class="cls-10" d="M384.19,268.7h0a1.36,1.36,0,0,1-1.36-1.36h0V244.42a1.36,1.36,0,0,1,1.36-1.36h0a1.36,1.36,0,0,1,1.37,1.36h0v22.93A1.36,1.36,0,0,1,384.19,268.7Z" transform="translate(-13.48 -56.23)"/><path class="cls-7" d="M383.9,269.76v.2l-1,2.1h-.25l.94-2.05h-1.17v.41h-.23v-.65Z" transform="translate(-13.48 -56.23)"/><path class="cls-7" d="M384.15,270.89c0-.71.38-1.15.91-1.15s.91.44.91,1.15-.39,1.16-.91,1.16S384.15,271.62,384.15,270.89Zm1.58,0c0-.6-.27-.93-.66-.93s-.66.33-.66.93.28.94.66.94.66-.33.66-.94Z" transform="translate(-13.48 -56.23)"/><path class="cls-5" d="M389.64,268.58h0a1.36,1.36,0,0,1-1.31-1.36V241.71a1.36,1.36,0,0,1,1.37-1.36h0a1.36,1.36,0,0,1,1.36,1.36h0v25.51a1.36,1.36,0,0,1-1.36,1.36Z" transform="translate(-13.48 -56.23)"/><path class="cls-10" d="M389.64,268.7h0a1.36,1.36,0,0,1-1.31-1.35v-10A1.36,1.36,0,0,1,389.7,256h0a1.36,1.36,0,0,1,1.36,1.36h0v10a1.36,1.36,0,0,1-1.37,1.35Z" transform="translate(-13.48 -56.23)"/><path class="cls-7" d="M389.4,271.4c0,.4-.34.65-.89.65s-.88-.25-.88-.65a.57.57,0,0,1,.44-.56.51.51,0,0,1-.36-.49c0-.38.32-.61.8-.61s.8.23.8.61a.49.49,0,0,1-.36.49A.58.58,0,0,1,389.4,271.4Zm-.24,0c0-.28-.25-.46-.66-.46s-.66.18-.66.46.24.45.66.45S389.16,271.68,389.16,271.4Zm-.66-.66c.35,0,.56-.15.56-.4s-.22-.41-.56-.41-.57.15-.57.41.23.42.58.42Z" transform="translate(-13.48 -56.23)"/><path class="cls-7" d="M389.72,270.89c0-.71.38-1.15.92-1.15s.9.44.9,1.15-.38,1.16-.9,1.16S389.72,271.62,389.72,270.89Zm1.59,0c0-.6-.28-.93-.66-.93s-.66.33-.66.93.28.94.66.94.66-.33.66-.94Z" transform="translate(-13.48 -56.23)"/><path class="cls-5" d="M395.14,268.58h0a1.36,1.36,0,0,1-1.36-1.36h0V241.71a1.36,1.36,0,0,1,1.36-1.36h0a1.37,1.37,0,0,1,1.38,1.36v25.51A1.37,1.37,0,0,1,395.14,268.58Z" transform="translate(-13.48 -56.23)"/><path class="cls-10" d="M395.14,268.58h0a1.3,1.3,0,0,1-1.36-1.24v-3.5a1.38,1.38,0,0,1,1.3-1.47h.06a1.37,1.37,0,0,1,1.38,1.36v3.5A1.37,1.37,0,0,1,395.14,268.58Z" transform="translate(-13.48 -56.23)"/><path class="cls-7" d="M394.74,270.87c0,.78-.43,1.18-1.05,1.18a1,1,0,0,1-.54-.12l.09-.19a.88.88,0,0,0,.45.11c.49,0,.81-.32.81-.94v-.18a.72.72,0,0,1-.7.39.67.67,0,0,1-.76-.6.25.25,0,0,1,0-.08.7.7,0,0,1,.71-.7h.07C394.41,269.74,394.74,270.16,394.74,270.87Zm-.33-.45c0-.24-.21-.48-.6-.48a.5.5,0,0,0-.56.43v.06c0,.3.22.49.57.49a.53.53,0,0,0,.59-.45v-.05Z" transform="translate(-13.48 -56.23)"/><path class="cls-7" d="M395.07,270.89c0-.71.38-1.15.92-1.15s.91.44.91,1.15-.39,1.16-.91,1.16S395.07,271.62,395.07,270.89Zm1.59,0c0-.6-.28-.93-.66-.93s-.66.33-.66.93.28.94.66.94S396.66,271.5,396.66,270.89Z" transform="translate(-13.48 -56.23)"/><path class="cls-5" d="M400.63,268.58h0a1.36,1.36,0,0,1-1.37-1.36h0V241.71a1.36,1.36,0,0,1,1.37-1.36h0a1.37,1.37,0,0,1,1.37,1.36h0v25.51a1.37,1.37,0,0,1-1.37,1.36Z" transform="translate(-13.48 -56.23)"/><path class="cls-10" d="M400.63,268.58h0a1.31,1.31,0,0,1-1.37-1.24V254.77a1.39,1.39,0,0,1,1.3-1.47h.07a1.37,1.37,0,0,1,1.37,1.36h0v12.56a1.37,1.37,0,0,1-1.37,1.36Z" transform="translate(-13.48 -56.23)"/><path class="cls-7" d="M398.66,269.76V272h-.23V270h-.54v-.21Z" transform="translate(-13.48 -56.23)"/><path class="cls-7" d="M399.2,270.89c0-.71.39-1.15.92-1.15s.91.44.91,1.15-.38,1.16-.91,1.16S399.2,271.62,399.2,270.89Zm1.59,0c0-.6-.28-.93-.66-.93s-.66.33-.66.93.28.94.66.94S400.79,271.5,400.79,270.89Z" transform="translate(-13.48 -56.23)"/><path class="cls-7" d="M401.36,270.89c0-.71.39-1.15.92-1.15s.91.44.91,1.15-.39,1.16-.91,1.16S401.36,271.62,401.36,270.89Zm1.59,0c0-.6-.28-.93-.66-.93s-.66.33-.66.93.28.94.66.94S403,271.5,403,270.89Z" transform="translate(-13.48 -56.23)"/><path class="cls-5" d="M389.64,227.6c0,.09-8.91.17-19.91.17s-19.91-.08-19.91-.17,8.91-.17,19.91-.17S389.64,227.51,389.64,227.6Z" transform="translate(-13.48 -56.23)"/><path class="cls-5" d="M402,287.28c0,.09-11.69.17-26.11.17s-26.11-.08-26.11-.17,11.69-.17,26.11-.17S402,287.18,402,287.28Z" transform="translate(-13.48 -56.23)"/><path class="cls-5" d="M402,296.18c0,.1-11.69.17-26.11.17s-26.11-.07-26.11-.17,11.69-.17,26.11-.17S402,296.09,402,296.18Z" transform="translate(-13.48 -56.23)"/><path class="cls-5" d="M402,305.09c0,.09-11.69.17-26.11.17s-26.11-.08-26.11-.17,11.69-.17,26.11-.17S402,305,402,305.09Z" transform="translate(-13.48 -56.23)"/><path class="cls-5" d="M402,314c0,.09-11.69.17-26.11.17s-26.11-.08-26.11-.17,11.69-.17,26.11-.17S402,313.89,402,314Z" transform="translate(-13.48 -56.23)"/><path class="cls-5" d="M402,322.86c0,.1-11.69.17-26.11.17s-26.11-.07-26.11-.17,11.69-.16,26.11-.16S402,322.8,402,322.86Z" transform="translate(-13.48 -56.23)"/><path class="cls-10" d="M399.92,353.19a8.77,8.77,0,0,1,8.81,8.73v7.26a8.79,8.79,0,0,1-8.8,8.73H350.82a8.76,8.76,0,0,1-8.79-8.73v-7.26a8.76,8.76,0,0,1,8.79-8.73H400m0-.65H350.82a9.41,9.41,0,0,0-9.45,9.38v7.26a9.41,9.41,0,0,0,9.45,9.38H400a9.43,9.43,0,0,0,9.44-9.38v-7.26a9.42,9.42,0,0,0-9.45-9.38h0Z" transform="translate(-13.48 -56.23)"/><path class="cls-10" d="M395.8,366.28c0,.09-9.15.17-20.44.17s-20.45-.08-20.45-.17,9.15-.17,20.45-.17S395.8,366.19,395.8,366.28Z" transform="translate(-13.48 -56.23)"/><path class="cls-10" d="M203.68,188.49c5.07-3.92,9.54-8.79,15.36-11.53,10-4.72,21.79-2.33,32.47.59s21.94,6.31,32.59,3.27A29,29,0,0,0,304,159.53H120.83a46.37,46.37,0,0,0,38,40.17l1.27.2A58.12,58.12,0,0,0,203.68,188.49Z" transform="translate(-13.48 -56.23)"/><path class="cls-10" d="M328,178.21c5.16,4.65,12.68,5.88,19.6,5.12,4.65-.54,9.39-2,12.75-5.23a16.11,16.11,0,0,0,4.36-14.54,17.15,17.15,0,0,0-1.32-4H325.21C321,165.05,322.84,173.58,328,178.21Z" transform="translate(-13.48 -56.23)"/><g class="cls-16"><path class="cls-17" d="M203.68,188.49c5.07-3.92,9.54-8.79,15.36-11.53,10-4.72,21.79-2.33,32.47.59s21.94,6.31,32.59,3.27A29,29,0,0,0,304,159.53H120.83a46.37,46.37,0,0,0,38,40.17l1.27.2A58.12,58.12,0,0,0,203.68,188.49Z" transform="translate(-13.48 -56.23)"/><path class="cls-17" d="M328,178.21c5.16,4.65,12.68,5.88,19.6,5.12,4.65-.54,9.39-2,12.75-5.23a16.11,16.11,0,0,0,4.36-14.54,17.15,17.15,0,0,0-1.32-4H325.21C321,165.05,322.84,173.58,328,178.21Z" transform="translate(-13.48 -56.23)"/></g><path class="cls-15" d="M366.05,177.38a2.48,2.48,0,0,1,.66.18l.5-.42.86.66-.27.58a3,3,0,0,1,.35.6l.66.06.14,1.07-.61.23a2.52,2.52,0,0,1-.18.65l.42.5-.66.85-.59-.27a2.47,2.47,0,0,1-.61.35l-.06.65-1.07.15-.23-.61a2.48,2.48,0,0,1-.66-.18l-.5.42-.86-.65.27-.59a2.81,2.81,0,0,1-.36-.6l-.65-.06-.15-1.06.61-.23a3,3,0,0,1,.19-.65l-.42-.5.65-.85.6.27a2.84,2.84,0,0,1,.61-.35l.06-.65,1.06-.15.23.61Zm-.32,1.47a1.15,1.15,0,1,0,1.19,1.11.85.85,0,0,0,0-.23,1.14,1.14,0,0,0-1.16-.88Z" transform="translate(-13.48 -56.23)"/><path class="cls-7" d="M365.73,178.85a.52.52,0,0,1,.3,0,1.21,1.21,0,0,1,.73.38,1.27,1.27,0,0,1,.26,1.21,1.32,1.32,0,0,1-1.66.84,1.34,1.34,0,0,1-.82-.76,1.28,1.28,0,0,1,.19-1.22,1.11,1.11,0,0,1,.7-.43h.3a1.18,1.18,0,0,0-.8.55,1,1,0,0,0-.09,1,1,1,0,0,0,1,.62,1,1,0,0,0,.92-.66,1,1,0,0,0-.15-1A1.55,1.55,0,0,0,365.73,178.85Z" transform="translate(-13.48 -56.23)"/><path class="cls-7" d="M366.05,177.38a3.88,3.88,0,0,1-.28-.58h.06l-1.06.17.07-.08a3.07,3.07,0,0,1,0,.66v.06h-.05a2.11,2.11,0,0,0-.58.34l-.06,0H364l-.59-.26h.14l-.66.86v-.17l.42.49.06.07v.08a2.4,2.4,0,0,0-.17.65v.09h-.08l-.62.23.1-.16c.06.33.1.69.15,1.06l-.13-.12.66.05h.1l0,.09a3.25,3.25,0,0,0,.33.57l.06.08,0,.09-.27.59-.05-.21.86.66h-.21l.5-.42.08-.07.1,0a2.47,2.47,0,0,0,.66.17h0l.14.11h0v.11l.06.15.11.3-.18-.1,1.07-.14-.14.15.06-.66v-.09l.09,0a2.92,2.92,0,0,0,.57-.33l.08-.07.09,0,.6.27-.2.05.66-.85v.2l-.42-.51L368,181v-.08a2.48,2.48,0,0,0,.18-.66v-.09h.08l.61-.21-.09.15c-.05-.37-.09-.73-.13-1.07l.12.11-.66-.06h-.07V179a3.33,3.33,0,0,0-.33-.58l-.05-.06,0-.06.28-.58v.12l-.84-.65h.13l-.51.4h0a6.46,6.46,0,0,0-.66-.23.28.28,0,0,1,.18,0,2.4,2.4,0,0,1,.53.12h-.06l.49-.44,0,0,.06,0,.87.66.06.05,0,.07-.26.6v-.12a3.07,3.07,0,0,1,.38.66l-.1-.07.65,0h.1V179c0,.34.1.69.15,1.06v.11l-.1,0-.61.24.09-.13a2.92,2.92,0,0,1-.18.72v-.16l.42.5.08.09-.08.11-.66.85-.07.11-.12-.06-.6-.26h.17a3.07,3.07,0,0,1-.66.38l.11-.14a3.74,3.74,0,0,1-.06.65v.13h-.14l-1.07.15h-.13l-.05-.14-.12-.3-.06-.15v-.11h0l.14.1h0a2.55,2.55,0,0,1-.72-.19h.17l-.5.42-.11.08-.1-.08-.86-.65-.11-.09.06-.12.27-.58v.17a3.64,3.64,0,0,1-.38-.66l.14.1-.66-.06h-.12v-.12c-.05-.37-.09-.73-.14-1.07v-.11l.11,0,.61-.23-.09.12a2.6,2.6,0,0,1,.2-.71v.14l-.42-.5-.11-.13.07-.08.66-.85.06-.08.08.05.59.27H364a3.48,3.48,0,0,1,.66-.35l-.06.08a4.44,4.44,0,0,1,.08-.65v-.07h.06l1.07-.12h.05v0A3.41,3.41,0,0,1,366.05,177.38Z" transform="translate(-13.48 -56.23)"/><path class="cls-7" d="M410.17,392.24h.18a3.17,3.17,0,0,0,.55,0,5.67,5.67,0,0,0,5-5.42v-2.61c0-7.43,0-18.39,0-32.49,0-28.23,0-69.06-.05-119.53v-66a7.2,7.2,0,0,0-.31-2.61,5.26,5.26,0,0,0-1.43-2.22,5.44,5.44,0,0,0-2.31-1.31,9.47,9.47,0,0,0-2.71-.22H89.35A5.57,5.57,0,0,0,84,163.6a12.43,12.43,0,0,0-.25,3.52V385.8a12.79,12.79,0,0,0,.06,1.52,5.55,5.55,0,0,0,5.07,4.74c1,0,2,0,3.06,0H245.62l164.52.12-164.52.11H88.84a5.84,5.84,0,0,1-2.94-1.05,5.76,5.76,0,0,1-2.41-3.92,10.18,10.18,0,0,1-.06-1.56V165.31a6.34,6.34,0,0,1,.27-1.83,5.91,5.91,0,0,1,5.65-4.08H409a9.67,9.67,0,0,1,2.79.22,5.82,5.82,0,0,1,3.95,3.72,7.39,7.39,0,0,1,.32,2.72v66.06c0,50.45,0,91.28-.05,119.53,0,14.11,0,25.06,0,32.49v2.62a5.68,5.68,0,0,1-3,4.77,5.46,5.46,0,0,1-2.06.65A5.25,5.25,0,0,1,410.17,392.24Z" transform="translate(-13.48 -56.23)"/><path class="cls-5" d="M276,210.29H328a6.28,6.28,0,0,1,6.3,6.25v17.81a6.28,6.28,0,0,1-6.3,6.25H276a6.27,6.27,0,0,1-6.29-6.25V216.54A6.27,6.27,0,0,1,276,210.29Z" transform="translate(-13.48 -56.23)"/><path class="cls-7" d="M287.36,224.83v5.58h-.58v-5.07h-1.32v-.51Z" transform="translate(-13.48 -56.23)"/><path class="cls-7" d="M292.52,228.77c0,.94-.66,1.69-2,1.69a2.92,2.92,0,0,1-2-.72l.28-.46a2.47,2.47,0,0,0,1.73.66c1,0,1.46-.47,1.46-1.14s-.45-1.17-1.88-1.17h-1.2l.29-2.8h3.11v.51h-2.57l-.2,1.78h.73C291.87,227.11,292.52,227.78,292.52,228.77Z" transform="translate(-13.48 -56.23)"/><path class="cls-7" d="M293.25,227.62c0-1.78.94-2.84,2.24-2.84s2.25,1.06,2.25,2.84-.95,2.84-2.25,2.84S293.25,229.39,293.25,227.62Zm3.89,0c0-1.49-.65-2.32-1.65-2.32s-1.66.83-1.66,2.32.66,2.31,1.66,2.31S297.14,229.11,297.14,227.62Z" transform="translate(-13.48 -56.23)"/><path class="cls-7" d="M298.57,227.62c0-1.78.94-2.84,2.24-2.84s2.25,1.06,2.25,2.84-.95,2.84-2.25,2.84S298.57,229.39,298.57,227.62Zm3.89,0c0-1.49-.66-2.32-1.65-2.32s-1.66.83-1.66,2.32.66,2.31,1.66,2.31,1.65-.82,1.65-2.31Z" transform="translate(-13.48 -56.23)"/><path class="cls-7" d="M308.7,228.94h-1.12v1.47H307v-1.47h-3.18v-.42l3-3.69h.65l-2.87,3.6H307v-1.3h.55v1.3h1.11Z" transform="translate(-13.48 -56.23)"/><path class="cls-7" d="M313,229.9v.51h-3.94V230l2.33-2.27c.66-.66.76-1,.76-1.38,0-.65-.46-1-1.32-1a1.94,1.94,0,0,0-1.53.66l-.42-.35a2.53,2.53,0,0,1,2-.79c1.14,0,1.86.56,1.86,1.5a2.27,2.27,0,0,1-.92,1.75l-1.92,1.86Z" transform="translate(-13.48 -56.23)"/><path class="cls-7" d="M313.7,227.62c0-1.78.94-2.84,2.24-2.84s2.25,1.06,2.25,2.84-.95,2.84-2.25,2.84S313.7,229.39,313.7,227.62Zm3.9,0c0-1.49-.66-2.32-1.66-2.32s-1.65.83-1.65,2.32.66,2.31,1.65,2.31S317.6,229.11,317.6,227.62Z" transform="translate(-13.48 -56.23)"/><path class="cls-7" d="M307.61,219.09c0,.09-6.25.17-14,.17s-14-.08-14-.17,6.25-.17,14-.17S307.61,219,307.61,219.09Z" transform="translate(-13.48 -56.23)"/><path class="cls-5" d="M205.43,210.45h52.08a6.28,6.28,0,0,1,6.3,6.25v17.81a6.27,6.27,0,0,1-6.3,6.25H205.43a6.27,6.27,0,0,1-6.3-6.25V216.7A6.28,6.28,0,0,1,205.43,210.45Z" transform="translate(-13.48 -56.23)"/><path class="cls-7" d="M214.29,232v.91h-.4V232a3.08,3.08,0,0,1-1.92-.72l.23-.45a2.75,2.75,0,0,0,1.69.65v-2.1c-.88-.21-1.78-.48-1.78-1.53,0-.77.55-1.43,1.78-1.53v-.91h.4v.9a3.29,3.29,0,0,1,1.62.51l-.2.47a3,3,0,0,0-1.43-.46V229c.91.2,1.86.47,1.86,1.53C216.16,231.29,215.57,232,214.29,232Zm-.4-3.16v-2c-.83.07-1.2.49-1.2,1s.54.85,1.2,1Zm1.68,1.67c0-.65-.59-.84-1.28-1v2C215.18,231.46,215.57,231.05,215.57,230.54Z" transform="translate(-13.48 -56.23)"/><path class="cls-7" d="M222.89,231.48V232H219v-.41l2.33-2.27c.66-.62.76-1,.76-1.38,0-.65-.46-1-1.32-1a1.88,1.88,0,0,0-1.52.62l-.41-.36a2.52,2.52,0,0,1,2-.79c1.15,0,1.86.57,1.86,1.51a2.25,2.25,0,0,1-.92,1.74l-1.91,1.87Z" transform="translate(-13.48 -56.23)"/><path class="cls-7" d="M227.34,230.39c0,.92-.66,1.64-2,1.64a2.87,2.87,0,0,1-2-.72l.28-.45a2.49,2.49,0,0,0,1.74.66c.93,0,1.44-.43,1.44-1.13s-.47-1.11-1.51-1.11h-.4v-.42l1.55-2h-2.87v-.52h3.59v.41l-1.59,2C226.74,228.86,227.34,229.47,227.34,230.39Z" transform="translate(-13.48 -56.23)"/><path class="cls-7" d="M231.89,230.35c0,.94-.66,1.68-2,1.68a2.89,2.89,0,0,1-2-.72l.28-.45a2.47,2.47,0,0,0,1.73.66c1,0,1.46-.47,1.46-1.15s-.45-1.16-1.88-1.16h-1.2l.29-2.8h3.08v.51H229l-.19,1.78h.72C231.25,228.69,231.89,229.35,231.89,230.35Z" transform="translate(-13.48 -56.23)"/><path class="cls-7" d="M232.62,229.2c0-1.78.94-2.84,2.24-2.84s2.25,1.06,2.25,2.84-1,2.83-2.25,2.83S232.62,231,232.62,229.2Zm3.9,0c0-1.49-.66-2.31-1.66-2.31s-1.65.82-1.65,2.31.65,2.31,1.65,2.31,1.66-.82,1.66-2.31Z" transform="translate(-13.48 -56.23)"/><path class="cls-7" d="M238.72,231.59a1.21,1.21,0,0,1-.12.46l-.33,1.1h-.38l.27-1.16a.4.4,0,0,1-.29-.4.42.42,0,0,1,.42-.43.42.42,0,0,1,.43.42Z" transform="translate(-13.48 -56.23)"/><path class="cls-7" d="M239.46,229.2c0-1.78.95-2.84,2.25-2.84s2.25,1.06,2.25,2.84-1,2.83-2.25,2.83S239.46,231,239.46,229.2Zm3.9,0c0-1.49-.66-2.31-1.65-2.31s-1.66.82-1.66,2.31.66,2.31,1.66,2.31,1.65-.82,1.65-2.31Z" transform="translate(-13.48 -56.23)"/><path class="cls-7" d="M244.78,229.2c0-1.78.94-2.84,2.25-2.84s2.25,1.06,2.25,2.84S248.33,232,247,232,244.78,231,244.78,229.2Zm3.9,0c0-1.49-.66-2.31-1.65-2.31s-1.66.82-1.66,2.31.66,2.31,1.66,2.31S248.68,230.69,248.68,229.2Z" transform="translate(-13.48 -56.23)"/><path class="cls-7" d="M236.35,219.89c0,.09-5.66.17-12.65.17S211,220,211,219.89s5.66-.17,12.66-.17S236.35,219.79,236.35,219.89Z" transform="translate(-13.48 -56.23)"/><path class="cls-9" d="M134.27,210.45h48.94a6.09,6.09,0,0,1,5.92,6.25v17.81a6.09,6.09,0,0,1-5.92,6.25H134.27a6.08,6.08,0,0,1-5.91-6.25V216.7A6.09,6.09,0,0,1,134.27,210.45Z" transform="translate(-13.48 -56.23)"/><path class="cls-17" d="M143,232V233h-.4V232a3,3,0,0,1-1.91-.72l.23-.45a2.72,2.72,0,0,0,1.68.65v-2.1c-.88-.21-1.78-.48-1.78-1.53,0-.77.56-1.43,1.78-1.53v-.91h.4v.9a3.28,3.28,0,0,1,1.64.5l-.2.47a3.06,3.06,0,0,0-1.44-.46V229c.91.22,1.87.47,1.87,1.54C144.84,231.29,144.26,232,143,232Zm-.4-3.16v-2c-.82.07-1.19.49-1.19,1s.54.85,1.19,1Zm1.68,1.67c0-.65-.58-.84-1.28-1v2C143.87,231.46,144.26,231.05,144.26,230.54Z" transform="translate(-13.48 -56.23)"/><path class="cls-17" d="M151.59,231.48V232h-4v-.41l2.34-2.27c.66-.62.76-1,.76-1.38,0-.65-.46-1-1.32-1a1.89,1.89,0,0,0-1.53.62l-.41-.36a2.52,2.52,0,0,1,2-.79c1.14,0,1.87.57,1.87,1.51a2.31,2.31,0,0,1-.93,1.74l-1.91,1.87Z" transform="translate(-13.48 -56.23)"/><path class="cls-17" d="M153.88,226.41V232h-.58v-5.07H152v-.51Z" transform="translate(-13.48 -56.23)"/><path class="cls-17" d="M155.22,229.2c0-1.78.94-2.84,2.24-2.84s2.25,1.06,2.25,2.84-1,2.83-2.25,2.83S155.22,231,155.22,229.2Zm3.89,0c0-1.49-.65-2.31-1.65-2.31s-1.66.82-1.66,2.31.66,2.31,1.66,2.31S159.11,230.69,159.11,229.2Z" transform="translate(-13.48 -56.23)"/><path class="cls-17" d="M160.54,229.2c0-1.78.94-2.84,2.24-2.84s2.24,1.06,2.24,2.84-.94,2.83-2.24,2.83S160.54,231,160.54,229.2Zm3.89,0c0-1.49-.66-2.31-1.65-2.31s-1.66.82-1.66,2.31.66,2.31,1.66,2.31,1.65-.82,1.65-2.31Z" transform="translate(-13.48 -56.23)"/><path class="cls-17" d="M166.64,231.59a1.21,1.21,0,0,1-.12.46l-.34,1.1h-.38l.27-1.16a.4.4,0,0,1-.29-.4.43.43,0,0,1,.43-.43.44.44,0,0,1,.43.42Z" transform="translate(-13.48 -56.23)"/><path class="cls-17" d="M171.53,229.15c0,1.9-1.05,2.88-2.57,2.88a2.54,2.54,0,0,1-1.32-.3l.23-.46a2,2,0,0,0,1.1.26c1.21,0,2-.77,2-2.29a3.38,3.38,0,0,0,0-.45,1.8,1.8,0,0,1-1.72,1,1.71,1.71,0,0,1-1.88-1.5,1.09,1.09,0,0,1,0-.18,1.74,1.74,0,0,1,1.77-1.72h.15C170.72,226.36,171.53,227.39,171.53,229.15Zm-.8-1.11c0-.61-.51-1.19-1.48-1.19a1.23,1.23,0,0,0-1.37,1.07s0,.09,0,.13c0,.74.55,1.21,1.42,1.21a1.31,1.31,0,0,0,1.44-1.17V228Z" transform="translate(-13.48 -56.23)"/><path class="cls-17" d="M172.36,229.2c0-1.78.94-2.84,2.25-2.84s2.25,1.06,2.25,2.84-1,2.83-2.25,2.83S172.36,231,172.36,229.2Zm3.9,0c0-1.49-.66-2.31-1.65-2.31s-1.66.82-1.66,2.31.65,2.31,1.66,2.31,1.65-.82,1.65-2.31Z" transform="translate(-13.48 -56.23)"/><path class="cls-17" d="M163,219.89c0,.09-5.2.17-11.62.17s-11.63-.08-11.63-.17,5.2-.17,11.63-.17S163,219.79,163,219.89Z" transform="translate(-13.48 -56.23)"/><path class="cls-17" d="M98.89,185.63h0A5.62,5.62,0,0,1,93.25,180h0a5.61,5.61,0,0,1,5.63-5.58h0a5.6,5.6,0,0,1,5.62,5.58h0a5.59,5.59,0,0,1-5.62,5.59Z" transform="translate(-13.48 -56.23)"/></g><g id="freepik--Character--inject-18"><path class="cls-10" d="M395.72,324.22s6.3,2.07,9,17.64c2.56,14.77,8.1,22.11,8.1,22.11l21.24,3.68-10,17.54-28.89-10.07-1.51-29.33Z" transform="translate(-13.48 -56.23)"/><path class="cls-10" d="M357.4,323.84s-9.52,1.24-12.19,10.81-5.58,32.11-5.58,32.11L322.21,396l11.55,7.12L351,380a19.15,19.15,0,0,0,4-12.79l-.42-7.19Z" transform="translate(-13.48 -56.23)"/><path class="cls-10" d="M355.07,324.35,351.63,348a23.91,23.91,0,0,0,.73,10.23l4.23,14.41s-3.63,8.1,1.12,10.93c.94.56,24.26.93,24.26.93h10.26L396,348.62l-.23-24.4s-8.56-3.09-11.92-3.46a126.87,126.87,0,0,0-18.7.15Z" transform="translate(-13.48 -56.23)"/><path class="cls-7" d="M345.61,371.07a19.52,19.52,0,0,0-2.69-2.61,10.12,10.12,0,0,0-2.3-1.27,3.75,3.75,0,0,1-1-.48,3.41,3.41,0,0,1,1.09.26,7.85,7.85,0,0,1,2.42,1.21A7,7,0,0,1,345.61,371.07Z" transform="translate(-13.48 -56.23)"/><path class="cls-7" d="M353.82,336.69a6.76,6.76,0,0,1-.3,1.09c-.11.36-.24.78-.37,1.31s-.3,1.06-.42,1.7a38.16,38.16,0,0,0-.73,4.51,43.48,43.48,0,0,0-.12,5.59A58,58,0,0,0,353.3,361c.28,1.3.52,2.3.71,3a6.83,6.83,0,0,1,.23,1.11,6.84,6.84,0,0,1-.36-1.08c-.22-.7-.5-1.72-.82-3a52.33,52.33,0,0,1-1.53-10.11,40.73,40.73,0,0,1,.16-5.63,34.93,34.93,0,0,1,.8-4.53c.14-.65.33-1.21.48-1.7s.26-.86.42-1.27A7.15,7.15,0,0,1,353.82,336.69Z" transform="translate(-13.48 -56.23)"/><path class="cls-7" d="M395.62,338.06a8,8,0,0,1,.07,1.1c0,.71.05,1.74.05,3,0,2.55,0,6.06-.2,9.94s-.46,7.39-.71,9.92c-.13,1.27-.24,2.3-.34,3a8,8,0,0,1-.17,1.09,5.76,5.76,0,0,1,0-1.1c.05-.77.13-1.78.23-3,.19-2.53.42-6,.61-9.91s.26-7.39.31-9.93c0-1.23,0-2.24.05-3A6.7,6.7,0,0,1,395.62,338.06Z" transform="translate(-13.48 -56.23)"/><g class="cls-18"><path class="cls-19" d="M386.29,366.18c.48.79-.27,2.28-2.15,3.87a17.87,17.87,0,0,1-3.61,2.28,23.58,23.58,0,0,1-10.12,2.28,17.82,17.82,0,0,1-4.24-.51c-2.39-.62-3.72-1.64-3.63-2.56s1.52-1.63,3.62-2.25,4.87-1.21,7.89-1.89,5.81-1.35,8-1.7S385.79,365.36,386.29,366.18Z" transform="translate(-13.48 -56.23)"/></g><path class="cls-7" d="M387.25,367.1a7,7,0,0,1-.73.81,8.67,8.67,0,0,1-.94.88,13.66,13.66,0,0,1-1.31,1.08l-.81.58c-.28.2-.59.37-.91.56a21.15,21.15,0,0,1-2.09,1.14,26.06,26.06,0,0,1-5.15,1.75,25.23,25.23,0,0,1-5.41.56,23.37,23.37,0,0,1-2.37-.15c-.37-.06-.74-.08-1.07-.15l-1-.19a15.51,15.51,0,0,1-1.66-.42,8.79,8.79,0,0,1-1.22-.42,5.29,5.29,0,0,1-1-.43c0-.07,1.46.56,3.95,1l1,.17c.33,0,.69.07,1.06.12.73.09,1.52.09,2.35.12a24.53,24.53,0,0,0,10.39-2.3,21.59,21.59,0,0,0,2.08-1.09,9.52,9.52,0,0,0,.91-.55l.81-.55C386.16,368.21,387.2,367,387.25,367.1Z" transform="translate(-13.48 -56.23)"/><path class="cls-7" d="M397,325a34.58,34.58,0,0,0-1.58,3.17c-.68,1.86-.82,3.42-.92,3.41A9.3,9.3,0,0,1,397,325Z" transform="translate(-13.48 -56.23)"/><g class="cls-20"><path class="cls-17" d="M399.31,348.78c-1.38.5-.81.33-1.4,1.48a4.05,4.05,0,0,0-.15,3.74,4.68,4.68,0,0,0,2.63,2,4.21,4.21,0,0,0,3.87-.22,3.4,3.4,0,0,0,1-3.69,4.86,4.86,0,0,0-6-3.24l-.15,0" transform="translate(-13.48 -56.23)"/><path class="cls-17" d="M382.4,362.58a3.16,3.16,0,0,0-3.54-.81,2.42,2.42,0,0,0,0,2.83,2.23,2.23,0,0,0,2.74.6A2,2,0,0,0,382.4,362.58Z" transform="translate(-13.48 -56.23)"/><path class="cls-17" d="M351.48,364.93a3.19,3.19,0,0,0-3.55-.81,2.42,2.42,0,0,0,0,2.83,2.23,2.23,0,0,0,2.74.6A2,2,0,0,0,351.48,364.93Z" transform="translate(-13.48 -56.23)"/><path class="cls-17" d="M359.67,326.29a8,8,0,0,0-6,4.24,4.48,4.48,0,0,0-.56,2.32,2.41,2.41,0,0,0,1.23,2c1.08.54,2.37,0,3.41-.65a11.18,11.18,0,0,0,2.52-1.86,4.73,4.73,0,0,0,1.41-2.73,3.08,3.08,0,0,0-1.12-2.78,2.29,2.29,0,0,0-2.89.12" transform="translate(-13.48 -56.23)"/><path class="cls-17" d="M341.47,375.91a8.05,8.05,0,0,0-6,4.24,4.47,4.47,0,0,0-.55,2.32,2.41,2.41,0,0,0,1.23,2c1.07.54,2.36,0,3.4-.65a11.5,11.5,0,0,0,2.53-1.85,4.77,4.77,0,0,0,1.4-2.74,3,3,0,0,0-1.12-2.78,2.28,2.28,0,0,0-2.88.12" transform="translate(-13.48 -56.23)"/><path class="cls-17" d="M387.2,326.61c-1.38.49-.81.33-1.41,1.49a4.06,4.06,0,0,0-.15,3.73,4.76,4.76,0,0,0,2.63,2,4.24,4.24,0,0,0,3.87-.22,3.42,3.42,0,0,0,1-3.7,4.85,4.85,0,0,0-6-3.24l-.16.05" transform="translate(-13.48 -56.23)"/><path class="cls-17" d="M381.69,343.43c.1,1,.09.6.77,1.2a2.9,2.9,0,0,0,2.54.74,3.28,3.28,0,0,0,1.8-1.45,2.9,2.9,0,0,0,.51-2.66,2.43,2.43,0,0,0-2.37-1.3,3.38,3.38,0,0,0-3.25,3.51v.13" transform="translate(-13.48 -56.23)"/><path class="cls-17" d="M343.24,354c.1,1,.09.6.78,1.2a2.9,2.9,0,0,0,2.53.74,3.28,3.28,0,0,0,1.8-1.45,2.88,2.88,0,0,0,.51-2.65,2.42,2.42,0,0,0-2.37-1.31,3.4,3.4,0,0,0-3.25,3.54v.11" transform="translate(-13.48 -56.23)"/><path class="cls-17" d="M372.48,341.27a1.18,1.18,0,0,0-1.14-.56,3.59,3.59,0,0,0-1.27.42l-.48.93a1.74,1.74,0,0,0,2.35.65l.1-.07A1.16,1.16,0,0,0,372.48,341.27Z" transform="translate(-13.48 -56.23)"/><path class="cls-17" d="M350.85,340.85a1.19,1.19,0,0,0-1.15-.55,3.66,3.66,0,0,0-1.27.42l-.48.93a1.74,1.74,0,0,0,2.36.64l.09-.06A1.17,1.17,0,0,0,350.85,340.85Z" transform="translate(-13.48 -56.23)"/><path class="cls-17" d="M392.71,358.62a1.15,1.15,0,0,0-1.14-.56,3.64,3.64,0,0,0-1.28.42l-.48.93a1.74,1.74,0,0,0,2.36.64l.1-.06A1.16,1.16,0,0,0,392.71,358.62Z" transform="translate(-13.48 -56.23)"/><path class="cls-17" d="M360.5,378.68a1.18,1.18,0,0,0-1.15-.55,3.4,3.4,0,0,0-1.27.42l-.48.92a1.71,1.71,0,0,0,2.33.65l.12-.07A1.16,1.16,0,0,0,360.5,378.68Z" transform="translate(-13.48 -56.23)"/><path class="cls-17" d="M377.19,351.34A7.06,7.06,0,0,0,373,349c-1.92.07-3.29,1.31-4.61,2.69a2.61,2.61,0,0,0,.55,4.47,7.74,7.74,0,0,0,6.32,1,4.33,4.33,0,0,0,2.23-1.34A3.75,3.75,0,0,0,377.19,351.34Z" transform="translate(-13.48 -56.23)"/><path class="cls-17" d="M387.34,350.68a2.43,2.43,0,0,0-2.68-.62,1.83,1.83,0,0,0,0,2.14,1.68,1.68,0,0,0,2.07.45A1.5,1.5,0,0,0,387.34,350.68Z" transform="translate(-13.48 -56.23)"/><path class="cls-17" d="M375.71,379.46a2.46,2.46,0,0,0-2.69-.61,1.83,1.83,0,0,0,0,2.14,1.68,1.68,0,0,0,2.07.45A1.53,1.53,0,0,0,375.71,379.46Z" transform="translate(-13.48 -56.23)"/><path class="cls-17" d="M402.08,338a2.45,2.45,0,0,0-2.68-.61,1.8,1.8,0,0,0,0,2.14,1.68,1.68,0,0,0,2.07.45A1.52,1.52,0,0,0,402.08,338Z" transform="translate(-13.48 -56.23)"/><path class="cls-17" d="M362.55,361.84a2.39,2.39,0,0,0-1.76-.53h0c-1.23,0-2.24.48-2.35,1.61a3.69,3.69,0,0,0,1.23,3.08,2.38,2.38,0,0,0,2.45.55,2.41,2.41,0,0,0,1.23-1.6A3.13,3.13,0,0,0,362.55,361.84Z" transform="translate(-13.48 -56.23)"/><path class="cls-17" d="M391.52,373.73a3.1,3.1,0,0,0-1.62-2,2.76,2.76,0,0,0-2.59.38,5.37,5.37,0,0,0-1.64,2.13,6.35,6.35,0,0,0-.65,3,2.5,2.5,0,0,0,2.85,1.87h0a3.45,3.45,0,0,0,2.43-.74A4.39,4.39,0,0,0,391.52,373.73Z" transform="translate(-13.48 -56.23)"/><path class="cls-17" d="M358,342.17c-1.38.5-.8.33-1.4,1.49a4,4,0,0,0-.15,3.73,4.68,4.68,0,0,0,2.63,2,4.21,4.21,0,0,0,3.87-.22,3.4,3.4,0,0,0,1-3.69,4.86,4.86,0,0,0-6-3.25l-.16.05" transform="translate(-13.48 -56.23)"/></g><path class="cls-10" d="M381.09,405.51s25.2,6.92,26.21,7.27c1.51.53,1.26,6.06-1.1,6-1.12,0-19.36.65-21.66.53s-9.26-2.86-9.26-2.86Z" transform="translate(-13.48 -56.23)"/><path class="cls-7" d="M391.55,415.05a22.8,22.8,0,0,1,1.11-2.68,26.4,26.4,0,0,1,1.79-2.3,4.19,4.19,0,0,0-2.15,2.09A4.7,4.7,0,0,0,391.55,415.05Z" transform="translate(-13.48 -56.23)"/><path class="cls-7" d="M388.93,413.87c.12,0,.37-1.16,1-2.47s1.47-2.22,1.38-2.31a4.53,4.53,0,0,0-1.75,2.13A4.59,4.59,0,0,0,388.93,413.87Z" transform="translate(-13.48 -56.23)"/><path class="cls-7" d="M386.46,413.21a16.83,16.83,0,0,1,.59-2.61,25.67,25.67,0,0,1,1.37-2.34,3.56,3.56,0,0,0-1.76,2.18A3.71,3.71,0,0,0,386.46,413.21Z" transform="translate(-13.48 -56.23)"/><path class="cls-7" d="M386.91,410a4.55,4.55,0,0,0,.27-1.86,8.76,8.76,0,0,0-.66-3.2,1.44,1.44,0,0,0-.41-.62.67.67,0,0,0-.86,0,1.09,1.09,0,0,0-.34.71,3.65,3.65,0,0,0,0,.66,5,5,0,0,0,.15,1.22,7.38,7.38,0,0,0,.78,1.91,4.75,4.75,0,0,0,1.13,1.5c.06,0-.36-.62-.87-1.64a8.57,8.57,0,0,1-.66-1.86,5.45,5.45,0,0,1-.12-1.14c0-.39,0-.86.23-1a.26.26,0,0,1,.33,0,1,1,0,0,1,.28.44,8.94,8.94,0,0,1,.38,1.1,10.06,10.06,0,0,1,.34,2C387,409.27,386.84,410,386.91,410Z" transform="translate(-13.48 -56.23)"/><path class="cls-7" d="M386.88,409.73a3.61,3.61,0,0,0-1.63-.26,7.25,7.25,0,0,0-1.79.22,3.45,3.45,0,0,0-1,.38,1,1,0,0,0-.57,1.14,1.26,1.26,0,0,0,.91.89,2.4,2.4,0,0,0,1.13,0,5.44,5.44,0,0,0,2.81-2,11.81,11.81,0,0,0-1.32.9,4.47,4.47,0,0,1-1.54.65,1.83,1.83,0,0,1-.93,0,.84.84,0,0,1-.62-.59.64.64,0,0,1,.37-.7,3.8,3.8,0,0,1,.92-.35,8.07,8.07,0,0,1,1.7-.3A10.9,10.9,0,0,0,386.88,409.73Z" transform="translate(-13.48 -56.23)"/><path class="cls-7" d="M395.42,415.32a14.14,14.14,0,0,1,.5-2.26,21.84,21.84,0,0,1,1.23-2c-.08-.09-1.09.49-1.62,1.81A3,3,0,0,0,395.42,415.32Z" transform="translate(-13.48 -56.23)"/><path class="cls-7" d="M377.84,416.47a5.15,5.15,0,0,0,1,.46,21.05,21.05,0,0,0,2.8.86,39.88,39.88,0,0,0,9.62.9c3.77,0,7.18-.2,9.65-.3l2.91-.16a4.31,4.31,0,0,0,1.08-.11,5.59,5.59,0,0,0-1.08-.05h-2.92l-9.64.19a45.56,45.56,0,0,1-9.55-.77C379.28,417,377.87,416.39,377.84,416.47Z" transform="translate(-13.48 -56.23)"/><path class="cls-7" d="M377.09,417a17.85,17.85,0,0,0,1.89-.85,8.81,8.81,0,0,1,4.77-.78,7.53,7.53,0,0,1,4.12,2.43,13.51,13.51,0,0,0,1.46,1.47,7.79,7.79,0,0,0-1.24-1.67,9.75,9.75,0,0,0-1.66-1.55,6,6,0,0,0-2.64-1.09,8.45,8.45,0,0,0-5,.92A7.09,7.09,0,0,0,377.09,417Z" transform="translate(-13.48 -56.23)"/><g class="cls-18"><path class="cls-19" d="M381.09,405.51s25.2,6.92,26.21,7.27c1.51.53,1.26,6.06-1.1,6-1.12,0-19.36.65-21.66.53s-9.26-2.86-9.26-2.86Z" transform="translate(-13.48 -56.23)"/></g><path class="cls-7" d="M358.71,383.74l-8.2,9.48s-27.31-8.24-34.22-7.84-12.51,3.12-13.82,8.66S301,407.24,309,412.55s47.92,8.25,47.92,8.25h15.79L398.49,387l-2.27-1.88Z" transform="translate(-13.48 -56.23)"/><path class="cls-13" d="M364.18,405.66h-.52a8.21,8.21,0,0,1-1.48-.11,31.36,31.36,0,0,1-5.35-1.1,51.51,51.51,0,0,1-7.55-2.93c-2.76-1.31-5.71-2.88-8.8-4.54a91,91,0,0,0-8.92-4.24,39.74,39.74,0,0,0-7.71-2.29,28,28,0,0,0-5.41-.47c-.66,0-1.14.06-1.47.06a2.26,2.26,0,0,1-.52,0A2.16,2.16,0,0,1,317,390c.33,0,.83-.12,1.48-.13a25.55,25.55,0,0,1,5.45.37,39,39,0,0,1,7.79,2.23,88.16,88.16,0,0,1,9,4.23c3.1,1.65,6,3.27,8.78,4.57a53.75,53.75,0,0,0,7.48,3,35.1,35.1,0,0,0,5.26,1.19c.66.11,1.14.13,1.48.18A2.48,2.48,0,0,1,364.18,405.66Z" transform="translate(-13.48 -56.23)"/><path class="cls-7" d="M382.84,418c5.07-2,33-10.79,42.85-22.11,8.21-9.44-4.86-17.87-4.86-17.87s-9.17-.3-12.23,0-46.84,29.65-46.84,29.65,7.65,14.79,7.48,15.37Z" transform="translate(-13.48 -56.23)"/><path class="cls-13" d="M396.58,385.18l-.12.1-.37.25-1.43.92-5.3,3.35-17.54,10.95-9.54,5.87.06-.19,5,11.93,1.4,3.43.36.91a2.19,2.19,0,0,1,.12.33,1.3,1.3,0,0,1-.16-.31l-.41-.89-1.49-3.39c-1.26-2.95-3-7.06-5.11-11.89l-.05-.08.12-.07,9.52-5.93,17.6-10.86,5.36-3.27,1.47-.86.38-.23Z" transform="translate(-13.48 -56.23)"/><path class="cls-13" d="M358.06,398.24a4.35,4.35,0,0,1-1.32-.48,18.27,18.27,0,0,1-2.86-1.7,18.75,18.75,0,0,1-2.51-2.2,4.5,4.5,0,0,1-.86-1.08c.08-.07,1.48,1.5,3.56,3S358.06,398.15,358.06,398.24Z" transform="translate(-13.48 -56.23)"/><path class="cls-13" d="M370,384.26A11.08,11.08,0,0,1,370,386c0,1.07.06,2.54.2,4.16s.38,3.08.55,4.14A11,11,0,0,1,371,396a6.81,6.81,0,0,1-.48-1.67,32.29,32.29,0,0,1-.66-4.15,32.64,32.64,0,0,1-.11-4.2A7.13,7.13,0,0,1,370,384.26Z" transform="translate(-13.48 -56.23)"/><path class="cls-13" d="M373.85,385.72a.57.57,0,0,1,.34,0,1.62,1.62,0,0,1,.73.61,1.67,1.67,0,0,1,.21,1.39,1.52,1.52,0,0,1-1.42,1,1.49,1.49,0,0,1-1.49-.86,1.52,1.52,0,0,1,.19-1.4,1.26,1.26,0,0,1,.76-.56.53.53,0,0,1,.35,0,1.63,1.63,0,0,0-.9.69,1.27,1.27,0,0,0-.11,1.15,1.19,1.19,0,0,0,1.18.65,1.24,1.24,0,0,0,1.14-.75,1.45,1.45,0,0,0-.12-1.17A2,2,0,0,0,373.85,385.72Z" transform="translate(-13.48 -56.23)"/><path class="cls-13" d="M363,384.52a1.34,1.34,0,0,1,.23.5,4.77,4.77,0,0,1,.24,1.54,5.64,5.64,0,0,1-.51,2.25,5.1,5.1,0,0,1-4.54,3,5.44,5.44,0,0,1-2.29-.38,4.46,4.46,0,0,1-1.31-.78,1.71,1.71,0,0,1-.4-.42,8.65,8.65,0,0,0,1.82,1,5.61,5.61,0,0,0,2.19.29,5,5,0,0,0,4.27-2.84,5.64,5.64,0,0,0,.55-2.13A8.68,8.68,0,0,0,363,384.52Z" transform="translate(-13.48 -56.23)"/><path class="cls-13" d="M389,389.67a1.82,1.82,0,0,1-1-.15,3.9,3.9,0,0,1-2-1.54,4,4,0,0,1-.66-2.43,1.76,1.76,0,0,1,.28-1c.05,0-.05.39,0,1a4.09,4.09,0,0,0,2.46,3.75C388.64,389.56,389,389.62,389,389.67Z" transform="translate(-13.48 -56.23)"/><path class="cls-21" d="M418,370.86s4.26-6.11,5.19-6.63,8.82-2.1,9.43-1.8,9.43,3.19,8.22,4.1-7.33-1.21-7.33-1.21l-.92.29s5.33,1.69,6.37,2.52.41,2-.57,1.74-5.59-1.88-5.92-1.73,5,2.05,5.49,2.48c.72.58.58,2-.4,1.77-.58-.13-5.51-2.22-5.51-2.22a42.19,42.19,0,0,1,4.15,2.58c.52.65-.09,1.47-1,1.14-.58-.22-3.24-2-4-2.31,0,0-.79.09-1.71,1.51s-6.45,4.51-6.45,4.51Z" transform="translate(-13.48 -56.23)"/><path class="cls-21" d="M420.08,371.26a1.82,1.82,0,0,0,2.1.32c.71-.29,1.32-.81,2-1.14,2-1,4.61-.31,6.63-1.41.28-.16.57-.43.48-.73s-.44-.37-.73-.4l-7.49-.95" transform="translate(-13.48 -56.23)"/><path class="cls-22" d="M423.05,367a2.82,2.82,0,0,1,.82,0c.53,0,1.32.11,2.22.21l3.29.37.94.11a1.5,1.5,0,0,1,1.06.4.64.64,0,0,1,0,.7,1.29,1.29,0,0,1-.44.43,5.47,5.47,0,0,1-1,.43,29,29,0,0,1-4,.51,5.9,5.9,0,0,0-1.64.46c-.48.23-.89.53-1.31.76a2.64,2.64,0,0,1-2.21.43,1,1,0,0,1-.66-.52,2.33,2.33,0,0,0,.7.36,2.6,2.6,0,0,0,2-.52,15.46,15.46,0,0,1,1.32-.83,6.19,6.19,0,0,1,1.73-.53,31.33,31.33,0,0,0,3.95-.53,5.39,5.39,0,0,0,.93-.39c.27-.16.43-.4.31-.52a1.71,1.71,0,0,0-.77-.23l-.94-.13-3.3-.46-2.19-.34A3.14,3.14,0,0,1,423.05,367Z" transform="translate(-13.48 -56.23)"/><path class="cls-22" d="M440.85,366.55a4.5,4.5,0,0,1-1.71.21,9.93,9.93,0,0,1-1.88-.21c-.66-.18-1.42-.4-2.2-.65l-1.66-.5h.11a30.92,30.92,0,0,1-4.09.66,25.38,25.38,0,0,1,4-1h.11l1.64.48,2.17.65a12.06,12.06,0,0,0,1.8.29C440.2,366.54,440.85,366.49,440.85,366.55Z" transform="translate(-13.48 -56.23)"/><path class="cls-7" d="M402.15,303.41c-1.76-2.09-3.91-4.23-3.95-7,0-1.45.49-3.07-.38-4.23s-2.27-1.17-3.13-2.1c-1.14-1.24-.66-3.2-1-4.84a5.67,5.67,0,0,0-3.69-3.78,12.15,12.15,0,0,0-5.46-.41l-1.71,37.47a4.55,4.55,0,0,1,4.17-.86,13,13,0,0,0,3.49,1.25c2.77.23,4.73-2.53,7.1-4s5.38-1.82,6.63-4.15S403.91,305.5,402.15,303.41Z" transform="translate(-13.48 -56.23)"/><path class="cls-13" d="M397,315.27a2.9,2.9,0,0,0,.93-.38,2,2,0,0,0,.76-2.33,2.72,2.72,0,0,0-1.26-1.31,3.09,3.09,0,0,1-.84-.73,1.73,1.73,0,0,1-.36-1.16A8.61,8.61,0,0,1,397,307a3.25,3.25,0,0,0,.25-1.19,2,2,0,0,0-.36-1.16A6.79,6.79,0,0,0,395,303a11.06,11.06,0,0,1-1.89-1.59,7.92,7.92,0,0,1-1.8-3.74,6.9,6.9,0,0,1,0-2.79,3.83,3.83,0,0,1,.19-.74,1.13,1.13,0,0,1,.1-.24s-.08.35-.16,1a7.89,7.89,0,0,0,1.92,6.3,10.11,10.11,0,0,0,1.85,1.53,7.23,7.23,0,0,1,2,1.81,2.41,2.41,0,0,1,.41,1.3,3.71,3.71,0,0,1-.28,1.31,8.47,8.47,0,0,0-.76,2.24,1.41,1.41,0,0,0,.28,1,3,3,0,0,0,.76.65,6.48,6.48,0,0,1,.81.66,2.06,2.06,0,0,1,.51.82,2.16,2.16,0,0,1-.07,1.62,2,2,0,0,1-.84.9,1.9,1.9,0,0,1-.73.27A.86.86,0,0,1,397,315.27Z" transform="translate(-13.48 -56.23)"/><path class="cls-21" d="M383.2,323.6l-.11-6.29s6.29-.92,7.73-9c.72-4,.66-10.65.39-16.08-.22-4.88-5.42-9.84-10.33-9.41L365,285.51v2.61l.44,35.73a8.87,8.87,0,0,0,8.9,8.73h0a8.87,8.87,0,0,0,8.9-8.83Z" transform="translate(-13.48 -56.23)"/><path class="cls-7" d="M388.68,297.83a1,1,0,0,1-1,1,1,1,0,0,1-1.06-.95h0a1,1,0,0,1,1-1,1,1,0,0,1,1.06.91Z" transform="translate(-13.48 -56.23)"/><path class="cls-7" d="M389.7,295.62c-.13.14-.92-.46-2-.48s-2,.53-2.1.39.08-.31.45-.55a2.92,2.92,0,0,1,1.67-.49,2.75,2.75,0,0,1,1.63.56C389.64,295.32,389.77,295.56,389.7,295.62Z" transform="translate(-13.48 -56.23)"/><path class="cls-7" d="M378.31,297.54a1,1,0,0,1-1,1,1,1,0,0,1-1.07-.93v0a1.06,1.06,0,0,1,1-1,1,1,0,0,1,1.06.94Z" transform="translate(-13.48 -56.23)"/><path class="cls-7" d="M378.59,295.64c-.13.13-.92-.47-2-.48s-2,.53-2.1.38.08-.3.45-.55a2.85,2.85,0,0,1,1.67-.48,2.8,2.8,0,0,1,1.63.55C378.54,295.33,378.66,295.58,378.59,295.64Z" transform="translate(-13.48 -56.23)"/><path class="cls-7" d="M382.54,304a7.68,7.68,0,0,1,1.85-.29c.28,0,.55-.08.61-.27a1.43,1.43,0,0,0-.18-.86l-.81-2.19a35.1,35.1,0,0,1-1.82-5.73,33.17,33.17,0,0,1,2.28,5.57l.78,2.21a1.68,1.68,0,0,1,.13,1.12.74.74,0,0,1-.49.42,2,2,0,0,1-.49.05A7.25,7.25,0,0,1,382.54,304Z" transform="translate(-13.48 -56.23)"/><path class="cls-22" d="M383.06,317.31a21,21,0,0,1-10.91-3.1s2.74,5.68,11,5.06Z" transform="translate(-13.48 -56.23)"/><path class="cls-22" d="M382,306.72a2,2,0,0,0-1.81-.78,1.83,1.83,0,0,0-1.32.65,1.18,1.18,0,0,0-.11,1.34,1.4,1.4,0,0,0,1.47.4,4.5,4.5,0,0,0,1.46-.83,1.29,1.29,0,0,0,.33-.33.4.4,0,0,0,0-.42" transform="translate(-13.48 -56.23)"/><path class="cls-7" d="M379.21,304.74c.18,0,.16,1.21,1.19,2.1s2.35.77,2.35.94-.29.23-.85.23a3,3,0,0,1-2-.72,2.6,2.6,0,0,1-.93-1.75C379,305,379.11,304.73,379.21,304.74Z" transform="translate(-13.48 -56.23)"/><path class="cls-7" d="M379,291.25c-.12.3-1.24.13-2.57.27s-2.4.48-2.57.2.11-.42.55-.7a4.54,4.54,0,0,1,3.95-.36C378.77,290.86,379,291.1,379,291.25Z" transform="translate(-13.48 -56.23)"/><path class="cls-7" d="M389.34,292.37c-.2.25-1,0-1.91-.05s-1.73.13-1.91-.13.06-.39.4-.62a2.8,2.8,0,0,1,3.08.15C389.33,292,389.43,292.25,389.34,292.37Z" transform="translate(-13.48 -56.23)"/><path class="cls-13" d="M369.13,295.08c2.69-3.27,10.35-9.14,14.08-10.79.6-.26,1.16-.81,1.52-.81a11.89,11.89,0,0,1,2.2,1.47c2,1.72,3.56,5.79,4.33,8.29,1.1-3.12.74-7.6-1.45-10.11a10.44,10.44,0,0,0-7.84-4,14.1,14.1,0,0,0-8.68,2.31c-1.13.66-5.18,4-6.32,6Z" transform="translate(-13.48 -56.23)"/><path class="cls-7" d="M383.46,279.25c.55.07-3.16-2.95-5.48-3.37a9.37,9.37,0,0,0-6.76,1.4c-1.32.88-2.43,2.11-3.9,2.73a34.38,34.38,0,0,1-3.53.89,8.16,8.16,0,0,0-5.68,7c-.09,1.35.15,2.7.17,4.05a5.35,5.35,0,0,1-1.15,3.79,13.59,13.59,0,0,1-3,1.88,7.29,7.29,0,0,0-3.29,7.19c.24,1.47.95,3,.43,4.4a12.77,12.77,0,0,1-1.69,2.41,4.9,4.9,0,0,0,.17,5.53c1.39.15,2.48,1.18,3.56,2.06s2.46,1.7,3.79,1.31c1.74-.51,2.56-2.81,4.35-3.06s3,1.6,4.7,2.22c1.89.71,4.1-.36,5.27-2a10.26,10.26,0,0,0,1.46-5.76c0-2.52-.27-5.18-1.78-7.18-1.08-1.46-2.79-2.71-2.82-4.52s1.57-3.11,1.84-4.82c.24-1.5-.58-2.94-1.21-4.32s-1.79-3.44-.91-4.68C368.06,286.37,374.09,278.22,383.46,279.25Z" transform="translate(-13.48 -56.23)"/><path class="cls-7" d="M384.2,280.62a1.29,1.29,0,0,1,.51.55,2.09,2.09,0,0,1-.93,2.81,2.26,2.26,0,0,1-.43.17,1.39,1.39,0,0,1-.76,0,3.78,3.78,0,0,0,.66-.22,2.19,2.19,0,0,0,1.17-1.07,2.16,2.16,0,0,0,0-1.58C384.34,280.87,384.15,280.65,384.2,280.62Z" transform="translate(-13.48 -56.23)"/><path class="cls-7" d="M386.49,284.09c0,.08-.56,0-1.09-.43s-.75-.9-.66-1,.42.32.89.65S386.52,284,386.49,284.09Z" transform="translate(-13.48 -56.23)"/><path class="cls-7" d="M381.09,282c0-.1.5-.08,1.05-.23s1-.4,1-.32-.3.48-.94.65S381.09,282,381.09,282Z" transform="translate(-13.48 -56.23)"/><path class="cls-7" d="M381.15,280.47c0-.09.48-.1,1.06,0s1,.23,1,.33-.49.09-1.07,0S381.13,280.56,381.15,280.47Z" transform="translate(-13.48 -56.23)"/><path class="cls-7" d="M386.68,281c0,.09-.18.19-.43.2s-.44,0-.45-.13.18-.19.43-.2S386.68,280.88,386.68,281Z" transform="translate(-13.48 -56.23)"/><path class="cls-7" d="M386.74,281.9c0,.1-.28.17-.66.17s-.66-.07-.66-.17.29-.17.66-.17S386.74,281.81,386.74,281.9Z" transform="translate(-13.48 -56.23)"/><path class="cls-7" d="M372.32,287.37c.08.07-.79.94-1.65,2.16a27.12,27.12,0,0,1-1.51,2.27A8.93,8.93,0,0,1,372.32,287.37Z" transform="translate(-13.48 -56.23)"/><path class="cls-7" d="M372.63,285c.07.07-.93,1.31-1.95,2.94s-1.68,3.08-1.77,3A14.08,14.08,0,0,1,372.63,285Z" transform="translate(-13.48 -56.23)"/><path class="cls-7" d="M350.55,296.53a1,1,0,0,1-.2-.21,2.49,2.49,0,0,1-.38-.72,3.29,3.29,0,0,1,.46-2.9,3.79,3.79,0,0,1,4.11-1.28,7.71,7.71,0,0,1,2.3,1.31,4,4,0,0,0,1.18.56,1.46,1.46,0,0,0,1.21-.25,2,2,0,0,0,.66-1.08,3.84,3.84,0,0,0,.07-1.31,25.88,25.88,0,0,1-.34-2.57,6.17,6.17,0,0,1,1.16-4.23,4.12,4.12,0,0,1,2.55-1.51,2.89,2.89,0,0,1,.83,0,.9.9,0,0,1,.27.07,4.77,4.77,0,0,0-1.07.06A4,4,0,0,0,361,284a6,6,0,0,0-1,4.07,21.24,21.24,0,0,0,.35,2.55,2.87,2.87,0,0,1-.87,2.68,1.84,1.84,0,0,1-1.49.32,4.31,4.31,0,0,1-1.32-.62,7.58,7.58,0,0,0-2.19-1.26,3.56,3.56,0,0,0-3.83,1.12,3.22,3.22,0,0,0-.53,2.72A4.07,4.07,0,0,0,350.55,296.53Z" transform="translate(-13.48 -56.23)"/><path class="cls-7" d="M400.83,297.14h-.28a.87.87,0,0,0-.65.38.83.83,0,0,0,0,1.09,1.31,1.31,0,0,0,1.44.3,1.89,1.89,0,0,0,1-1.54,5.12,5.12,0,0,0-.42-2.25,3.9,3.9,0,0,0-1.43-2,2,2,0,0,0-1.24-.25,7.77,7.77,0,0,0-1.37.3,4,4,0,0,1-1.49.2,1.93,1.93,0,0,1-1.31-.69,3.47,3.47,0,0,1-.62-2.61c.1-.85.29-1.62.3-2.35a4.73,4.73,0,0,0-.39-2,5.45,5.45,0,0,0-1.84-2.25c-.59-.39-1-.51-1-.54s.1,0,.28.07a4.35,4.35,0,0,1,.75.37,5.14,5.14,0,0,1,2,2.26,5,5,0,0,1,.46,2.06c0,.76-.19,1.55-.27,2.37a3.15,3.15,0,0,0,.56,2.36,1.55,1.55,0,0,0,1.09.57,3.93,3.93,0,0,0,1.36-.19,8.67,8.67,0,0,1,1.43-.31,2.45,2.45,0,0,1,1.45.31,4.25,4.25,0,0,1,1.55,2.2,5.14,5.14,0,0,1,.4,2.39,2.16,2.16,0,0,1-1.2,1.74,1.49,1.49,0,0,1-1.69-.42.93.93,0,0,1-.21-.71,1.11,1.11,0,0,1,.26-.57,1,1,0,0,1,.75-.37A.46.46,0,0,1,400.83,297.14Z" transform="translate(-13.48 -56.23)"/><path class="cls-7" d="M347.07,307.84a.57.57,0,0,0,.26.05.7.7,0,0,0,.58-.38.63.63,0,0,0,.1-.48.74.74,0,0,0-.36-.45,1.14,1.14,0,0,0-1.38.2,2.53,2.53,0,0,0-.66,1.71,1.75,1.75,0,0,0,.26,1,1.48,1.48,0,0,0,.84.59,2,2,0,0,0,2.1-.65,3.76,3.76,0,0,0,.81-2.39,19.49,19.49,0,0,0-.25-2.64,6.83,6.83,0,0,1,.06-2.55,4.29,4.29,0,0,1,1.17-2,6.15,6.15,0,0,1,1.65-1.16,11.46,11.46,0,0,1,2.75-.88,5.25,5.25,0,0,1,1-.17,7.25,7.25,0,0,1-1,.29,13.1,13.1,0,0,0-2.67,1,6.37,6.37,0,0,0-1.54,1.13,4.06,4.06,0,0,0-1.07,1.89,6.84,6.84,0,0,0,0,2.43A17.14,17.14,0,0,1,350,307a4.07,4.07,0,0,1-.89,2.61,2.41,2.41,0,0,1-1.14.74,2.25,2.25,0,0,1-1.31,0,1.78,1.78,0,0,1-1-.74,2,2,0,0,1-.28-1.13,2.72,2.72,0,0,1,.77-1.88,1.33,1.33,0,0,1,1.64-.19,1,1,0,0,1,.42.58.84.84,0,0,1-.72.95h-.12A.39.39,0,0,1,347.07,307.84Z" transform="translate(-13.48 -56.23)"/><path class="cls-7" d="M369.9,276.84l-.11-.26a1.16,1.16,0,0,0-.55-.52A1.83,1.83,0,0,0,368,276a1.31,1.31,0,0,0-1,1.08,2.32,2.32,0,0,0,2.75,2.33,4.5,4.5,0,0,0,2.24-1.07,12.31,12.31,0,0,0,1.83-2.05,12.62,12.62,0,0,1,1.89-2.11,4.7,4.7,0,0,1,2.43-1.1,3.69,3.69,0,0,1,2.35.61,5,5,0,0,1,1.46,1.5,7.87,7.87,0,0,1,1,2.81c.06.35.09.62.11.8a1.41,1.41,0,0,1,0,.29s-.09-.38-.24-1.06a8.18,8.18,0,0,0-1.07-2.72,4.67,4.67,0,0,0-1.41-1.39,3.41,3.41,0,0,0-2.15-.53,4.38,4.38,0,0,0-2.25,1.05,11.94,11.94,0,0,0-1.84,2.05,13,13,0,0,1-1.88,2.11,4.93,4.93,0,0,1-2.42,1.13,2.72,2.72,0,0,1-2.29-.74,2.24,2.24,0,0,1-.74-2,1.45,1.45,0,0,1,.45-.84,1.78,1.78,0,0,1,.75-.38,1.89,1.89,0,0,1,1.32.14,1.11,1.11,0,0,1,.55.6A.78.78,0,0,1,369.9,276.84Z" transform="translate(-13.48 -56.23)"/><path class="cls-13" d="M380,279.1a.31.31,0,0,1-.06-.13,1,1,0,0,0-.17-.36,2.46,2.46,0,0,0-1.22-.88,6.66,6.66,0,0,0-2.43-.34,5.93,5.93,0,0,0-1.5.23,4.8,4.8,0,0,0-1.46.83,11.37,11.37,0,0,0-2.6,2.93,6.5,6.5,0,0,0-.48.95,2.88,2.88,0,0,1-.6,1,4.69,4.69,0,0,1-2.08,1.23,8.1,8.1,0,0,1-1.21.24,6,6,0,0,0-1.15.39,4.84,4.84,0,0,0-1.89,1.58,4,4,0,0,0-.69,2.42,16.07,16.07,0,0,0,.32,2.69,8.44,8.44,0,0,1,.12,2.79,3.91,3.91,0,0,1-1.31,2.38c-1.36,1.22-3.06,1.71-4.25,2.76a4.24,4.24,0,0,0-1.31,1.79,2.75,2.75,0,0,0,.17,2.05c.29.65.7,1.2,1,1.82a3.09,3.09,0,0,1,.29,2,2.58,2.58,0,0,1-1.09,1.4,14,14,0,0,0-1.22.93,2.58,2.58,0,0,0-.75,2.19,7.28,7.28,0,0,0,.29,1.52,3.18,3.18,0,0,1,.14.53.29.29,0,0,0-.06-.13,1.72,1.72,0,0,1-.14-.38,6.81,6.81,0,0,1-.36-1.53,3.36,3.36,0,0,1,.05-1.14,2.54,2.54,0,0,1,.66-1.2,14.46,14.46,0,0,1,1.23-1,2.27,2.27,0,0,0,1-1.3,2.78,2.78,0,0,0-.29-1.77c-.27-.59-.66-1.15-1-1.81a3,3,0,0,1-.2-2.26,4.64,4.64,0,0,1,1.4-2c1.26-1.09,3-1.6,4.23-2.75a3.66,3.66,0,0,0,1.2-2.2,8,8,0,0,0-.12-2.67,15.77,15.77,0,0,1-.33-2.75,4.34,4.34,0,0,1,.76-2.61,5,5,0,0,1,2-1.68,5.84,5.84,0,0,1,1.22-.41,9.77,9.77,0,0,0,1.2-.23,4.51,4.51,0,0,0,2-1.14,2.7,2.7,0,0,0,.55-.9,7.18,7.18,0,0,1,.5-1,11.89,11.89,0,0,1,2.69-3,5,5,0,0,1,1.56-.86,5.87,5.87,0,0,1,1.56-.21,6.32,6.32,0,0,1,2.47.41,2.34,2.34,0,0,1,1.24,1,1.26,1.26,0,0,1,.15.38A.38.38,0,0,1,380,279.1Z" transform="translate(-13.48 -56.23)"/><g class="cls-18"><path class="cls-19" d="M353.34,376c-3.65-9.51-3.77-20.38-1.54-30.31-.54,5.3.29,10.56,1.41,15.77,1,4.89,2.29,4.94,1.4,10.37A13.59,13.59,0,0,1,354,374Z" transform="translate(-13.48 -56.23)"/></g><path class="cls-10" d="M363.32,409.68s-25.2,6.92-26.21,7.27c-1.52.54-1.26,6.05,1.1,6,1.12-.05,19.35.65,21.66.53s8.5-2.57,8.5-2.57Z" transform="translate(-13.48 -56.23)"/><path class="cls-7" d="M352.79,419.22a23.61,23.61,0,0,0-1.11-2.68c-.81-1.38-1.86-2.21-1.78-2.31a4.33,4.33,0,0,1,2.14,2.1A4.71,4.71,0,0,1,352.79,419.22Z" transform="translate(-13.48 -56.23)"/><path class="cls-7" d="M355.42,418c-.12,0-.38-1.16-1.05-2.47s-1.46-2.22-1.37-2.3a4.54,4.54,0,0,1,1.75,2.11A4.73,4.73,0,0,1,355.42,418Z" transform="translate(-13.48 -56.23)"/><path class="cls-7" d="M357.88,417.38a13,13,0,0,0-.58-2.61c-.59-1.36-1.46-2.25-1.38-2.34a3.55,3.55,0,0,1,1.77,2.18A3.74,3.74,0,0,1,357.88,417.38Z" transform="translate(-13.48 -56.23)"/><path class="cls-7" d="M357.44,414.15a4.5,4.5,0,0,1-.27-1.86,8.68,8.68,0,0,1,.25-2,9.4,9.4,0,0,1,.38-1.17,1.3,1.3,0,0,1,.4-.61.66.66,0,0,1,.87,0,1.12,1.12,0,0,1,.33.71,4.73,4.73,0,0,1,0,.65,5.59,5.59,0,0,1-.16,1.22,7.31,7.31,0,0,1-.78,1.92,5.07,5.07,0,0,1-1.13,1.51c-.05,0,.37-.66.87-1.65a8.76,8.76,0,0,0,.66-1.86,6.21,6.21,0,0,0,.12-1.14c0-.38,0-.87-.23-1.05a.27.27,0,0,0-.34,0,1.07,1.07,0,0,0-.28.44,10.19,10.19,0,0,0-.38,1.1,10.7,10.7,0,0,0-.33,2C357.4,413.44,357.51,414.14,357.44,414.15Z" transform="translate(-13.48 -56.23)"/><path class="cls-7" d="M357.47,413.9a3.61,3.61,0,0,1,1.63-.26,7.75,7.75,0,0,1,1.79.21,4.18,4.18,0,0,1,1,.38,1,1,0,0,1,.57,1.15,1.3,1.3,0,0,1-.9.89,2.44,2.44,0,0,1-1.14,0,4.36,4.36,0,0,1-1.63-.8,4.61,4.61,0,0,1-1.18-1.15,13.43,13.43,0,0,1,1.32.91,4.54,4.54,0,0,0,1.55.66,2.09,2.09,0,0,0,.93,0,.84.84,0,0,0,.61-.6.64.64,0,0,0-.37-.7,4.18,4.18,0,0,0-.91-.35,8.76,8.76,0,0,0-1.7-.29C358.1,413.87,357.48,414,357.47,413.9Z" transform="translate(-13.48 -56.23)"/><path class="cls-7" d="M348.92,419.49a13.46,13.46,0,0,0-.49-2.26,18.53,18.53,0,0,0-1.24-2c.08-.1,1.1.49,1.63,1.8A3,3,0,0,1,348.92,419.49Z" transform="translate(-13.48 -56.23)"/><path class="cls-7" d="M366.51,420.64a5.15,5.15,0,0,1-1,.46,21.05,21.05,0,0,1-2.8.86,40.4,40.4,0,0,1-9.62.91c-3.78-.05-7.18-.22-9.65-.32l-2.92-.15a4.8,4.8,0,0,1-1.07-.11,4.83,4.83,0,0,1,1.07-.05h2.93l9.64.19a45,45,0,0,0,9.55-.76C365.07,421.18,366.48,420.57,366.51,420.64Z" transform="translate(-13.48 -56.23)"/><path class="cls-7" d="M367.27,421.22s-.73-.35-1.89-.85a8.77,8.77,0,0,0-4.76-.79A7.43,7.43,0,0,0,356.5,422a13.51,13.51,0,0,1-1.46,1.47,7.74,7.74,0,0,1,1.23-1.67,10.2,10.2,0,0,1,1.67-1.55,6.05,6.05,0,0,1,2.64-1.1,8.41,8.41,0,0,1,4.95.94A6,6,0,0,1,367.27,421.22Z" transform="translate(-13.48 -56.23)"/><path class="cls-7" d="M342,422.29s.17-.36.37-.94a4.54,4.54,0,0,0-.83-4.48c-.4-.48-.72-.71-.66-.76s.4.13.87.6a4.24,4.24,0,0,1,.87,4.73C342.29,422,342,422.32,342,422.29Z" transform="translate(-13.48 -56.23)"/><path class="cls-13" d="M368.27,383.84h0a.82.82,0,0,1,.8-.81l23.4-.29,9.22-28.43a2.28,2.28,0,0,1,2.23-1.57l35.54,1a2.28,2.28,0,0,1,2.21,2.34,2.62,2.62,0,0,1-.14.73l-11.19,29.39L369,384.67A.82.82,0,0,1,368.27,383.84Z" transform="translate(-13.48 -56.23)"/><path class="cls-17" d="M420.76,368.66a2.47,2.47,0,0,0-4.13,1,2,2,0,0,0,1.22,2.33,2.43,2.43,0,0,0,2.51-.93A2.29,2.29,0,0,0,420.76,368.66Z" transform="translate(-13.48 -56.23)"/></g><g id="freepik--Plant--inject-18"><path class="cls-7" d="M33.76,233.67a1.4,1.4,0,0,1,.05-.3l.19-.88c.17-.79.43-2,.75-3.39.66-2.95,1.65-7.18,2.84-12.46l9.53-41.18.17-.73.16.73.21.92c3.7,16.33,7.05,31.11,9.49,41.84,1.2,5.37,2.14,9.67,2.84,12.68.32,1.49.58,2.65.76,3.46l.18.9c0,.2,0,.31,0,.31a.92.92,0,0,0-.08-.3l-.22-.9c-.19-.8-.47-2-.82-3.44-.7-3-1.71-7.32-2.94-12.66-2.46-10.72-5.85-25.47-9.59-41.8l-.21-.92h.33L37.83,216.7c-1.25,5.23-2.26,9.49-2.95,12.41-.36,1.45-.63,2.62-.82,3.37-.1.38-.17.66-.22.88S33.76,233.67,33.76,233.67Z" transform="translate(-13.48 -56.23)"/><path class="cls-13" d="M33.75,245.91V235.57H61.54v10.34a12.07,12.07,0,0,1-12.12,12H45.88a12.08,12.08,0,0,1-12.13-12Z" transform="translate(-13.48 -56.23)"/><path class="cls-7" d="M33.75,235.57a3.43,3.43,0,0,1,.32.43l.85,1.3L38,242.05l10,15.69.08.11h-.3l9.7-15.8c1.24-2,2.24-3.61,3-4.76l.82-1.31a3.3,3.3,0,0,1,.3-.43,2.37,2.37,0,0,1-.25.47c-.19.32-.44.77-.76,1.3-.7,1.17-1.67,2.81-2.88,4.82L48.05,258l-.15.24-.14-.24-.08-.11-9.91-15.73-3-4.8L34,236A3.1,3.1,0,0,1,33.75,235.57Z" transform="translate(-13.48 -56.23)"/><ellipse class="cls-7" cx="33.9" cy="119.13" rx="3.03" ry="3.01"/><path class="cls-7" d="M47.37,124.1c.1,0,.17,11.61.17,25.92s-.09,25.89-.17,25.89-.17-11.6-.17-25.92S47.28,124.1,47.37,124.1Z" transform="translate(-13.48 -56.23)"/><path class="cls-7" d="M49,259.07a1.32,1.32,0,1,1-1.32-1.31A1.31,1.31,0,0,1,49,259.07Z" transform="translate(-13.48 -56.23)"/><path class="cls-7" d="M47.07,259.54l.21-.1A2.86,2.86,0,0,0,46,261.57a7.18,7.18,0,0,0,.22,2.57c.06.28.2.61.48.59s.36-.31.41-.55a5.74,5.74,0,0,0,0-1.55,2.67,2.67,0,0,0,.6,1.82c.08.1.19.21.32.17s.17-.16.2-.28a6.29,6.29,0,0,0,.2-1.3,2,2,0,0,0,.41,1.07.73.73,0,0,0,1,.08h0a1,1,0,0,0,.11-.75,8.86,8.86,0,0,0-1.82-4.24" transform="translate(-13.48 -56.23)"/><path class="cls-10" d="M35.5,235.57S23,221.28,24.4,220.77s12.52,7.39,12.52,7.39S27.35,207,29.26,205.44s12,18.8,12,18.8-1.56-29.61,0-30,7.29,29.6,7.29,29.6S57,196.53,59.43,196.53s-2.6,26.33-2.6,26.33S66.89,206,68.45,208.23s-7.11,20.48-7.11,20.48S74,218.21,74.5,219.57s-13.7,16-13.7,16Z" transform="translate(-13.48 -56.23)"/><path class="cls-7" d="M33.76,214.05c.08,0,2.3,4.68,5,10.52s4.72,10.63,4.6,10.67-2.3-4.67-5-10.52S33.67,214.09,33.76,214.05Z" transform="translate(-13.48 -56.23)"/><path class="cls-7" d="M43.85,216.68c.09,0,.46,4.15.82,9.28s.57,9.29.48,9.3-.47-4.15-.82-9.28S43.75,216.69,43.85,216.68Z" transform="translate(-13.48 -56.23)"/><path class="cls-7" d="M57.76,203.42a1.21,1.21,0,0,1-.07.34l-.28.94c-.26.87-.61,2-1,3.45-.87,2.92-2.06,6.95-3.29,11.43s-2.18,8.58-2.87,11.52c-.35,1.44-.62,2.61-.83,3.51l-.23.95a1.42,1.42,0,0,1-.11.33,1.93,1.93,0,0,1,0-.34l.18-1c.15-.84.39-2,.72-3.53.66-3,1.6-7.07,2.8-11.56s2.43-8.5,3.37-11.41c.47-1.45.86-2.61,1.15-3.42l.34-.92A1.41,1.41,0,0,1,57.76,203.42Z" transform="translate(-13.48 -56.23)"/><path class="cls-7" d="M63.77,218.69c.08.05-2.35,3.66-5.44,8.05s-5.65,7.92-5.72,7.84,2.36-3.66,5.44-8.05S63.69,218.63,63.77,218.69Z" transform="translate(-13.48 -56.23)"/><path class="cls-7" d="M39.71,235.27a5.17,5.17,0,0,1-1.09-.78c-.82-.69-1.61-1.41-2.36-2.18a27,27,0,0,1-2.13-2.41,4.58,4.58,0,0,1-.77-1.09c.08-.06,1.38,1.5,3.13,3.27S39.78,235.19,39.71,235.27Z" transform="translate(-13.48 -56.23)"/><path class="cls-7" d="M47.29,229.59a12.25,12.25,0,0,1,.45,2.95,13.41,13.41,0,0,1,.1,3,26.83,26.83,0,0,1-.55-5.92Z" transform="translate(-13.48 -56.23)"/><path class="cls-17" d="M61.54,242a6.56,6.56,0,0,1-1.07.22c-.7.12-1.71.28-3,.45-2.5.34-6,.73-9.81.87a63.78,63.78,0,0,1-9.87-.41c-1.26-.16-2.27-.33-2.95-.47a7.73,7.73,0,0,1-1.08-.26,7.1,7.1,0,0,1,1.14.12c.7.1,1.71.23,3,.36a74.84,74.84,0,0,0,9.82.31c3.83-.14,7.29-.49,9.8-.77l3-.34A7.56,7.56,0,0,1,61.54,242Z" transform="translate(-13.48 -56.23)"/><path class="cls-17" d="M61.54,245.09a6.53,6.53,0,0,1-1.07.21c-.7.13-1.71.28-3,.45a94.79,94.79,0,0,1-9.81.87,61.38,61.38,0,0,1-9.87-.41c-1.26-.15-2.27-.32-2.95-.47a6.76,6.76,0,0,1-1.08-.25,6.73,6.73,0,0,1,1.1.12c.69.11,1.7.24,3,.37a74.83,74.83,0,0,0,9.82.3c3.84-.13,7.3-.48,9.81-.76l3-.35A5.76,5.76,0,0,1,61.54,245.09Z" transform="translate(-13.48 -56.23)"/></g></svg>