<svg id="Layer_1" data-name="Layer 1" xmlns="http://www.w3.org/2000/svg" xmlns:xlink="http://www.w3.org/1999/xlink" viewBox="0 0 470.64 427.12"><defs><style>.cls-1{fill:url(#linear-gradient);}.cls-2{fill:url(#linear-gradient-2);}.cls-3{fill:#f1f0f0;}.cls-4{fill:#e0e1e0;}.cls-5{fill:#465b65;}.cls-6{fill:#f6eb16;}.cls-22,.cls-24,.cls-26,.cls-31,.cls-33,.cls-7,.cls-9{fill:#010101;}.cls-21,.cls-7{opacity:0.25;}.cls-15,.cls-16,.cls-17,.cls-22,.cls-24,.cls-26,.cls-29,.cls-31,.cls-33,.cls-7{isolation:isolate;}.cls-26,.cls-8{opacity:0.1;}.cls-10{fill:#273339;}.cls-11{fill:#384850;}.cls-12,.cls-22{opacity:0.2;}.cls-13{fill:#ebebeb;}.cls-14{fill:#fafbfc;}.cls-15,.cls-16,.cls-17,.cls-19,.cls-29{fill:#fff;}.cls-15,.cls-20{opacity:0.5;}.cls-16,.cls-32{opacity:0.8;}.cls-17{opacity:0.65;}.cls-18{opacity:0.85;}.cls-23{fill:#f7a7a8;}.cls-24{opacity:0.15;}.cls-25{fill:#f4908f;}.cls-27{fill:#e6e6e5;}.cls-28{fill:#b16769;}.cls-29{opacity:0.4;}.cls-30{fill:#9b4b4e;}.cls-31{opacity:0.35;}.cls-33{opacity:0.3;}.cls-34{fill:url(#linear-gradient-3);}</style><linearGradient id="linear-gradient" x1="-44.52" y1="873.84" x2="-44.52" y2="873.84" gradientTransform="matrix(1, 0, 0, -1, 0, 502)" gradientUnits="userSpaceOnUse"><stop offset="0" stop-color="#f1e913" stop-opacity="0.1"/><stop offset="0.46" stop-color="#f5eb17" stop-opacity="0.67"/><stop offset="0.77" stop-color="#f1e913"/></linearGradient><linearGradient id="linear-gradient-2" x1="14.68" y1="253.2" x2="485.32" y2="253.2" xlink:href="#linear-gradient"/><linearGradient id="linear-gradient-3" x1="701.64" y1="490.67" x2="701.64" y2="490.67" gradientTransform="matrix(1, 0, 0, 1, 0, 0)" xlink:href="#linear-gradient"/></defs><path class="cls-1" d="M-44.52-371.84" transform="translate(-14.68 -42.17)"/><path class="cls-2" d="M391.53,83.24c-40-5.7-47.79,19.69-91.91,21.45-74.67,3-96.2-69.77-157.9-61.93C93.34,48.91,45.92,96.19,39.19,143c-7.81,54.37,41.75,78.57,29.11,131.74C57.48,320.25,15,327.37,14.68,357.46c-.27,24.78,28.15,57.82,142.82,97.83l221.78.14c91.94-62.81,105.13-97.87,99.81-118.34-5.75-22.14-31.71-22.69-39.42-48.63C426.79,245.1,490.49,216.89,485,166,480.54,124.94,433.34,89.21,391.53,83.24Z" transform="translate(-14.68 -42.17)"/><g id="freepik--Floor--inject-2"><ellipse id="freepik--floor--inject-2-2" data-name="freepik--floor--inject-2" class="cls-3" cx="247.17" cy="313.34" rx="217" ry="113.78"/></g><g id="freepik--Shadows--inject-2"><ellipse id="freepik--Shadow--inject-2" class="cls-4" cx="116.09" cy="302.38" rx="68.03" ry="34.21"/><path id="freepik--shadow--inject-2-2" data-name="freepik--shadow--inject-2" class="cls-4" d="M89.17,401l106.62,55.88a4.22,4.22,0,0,0,3.51,0L387.83,358a1,1,0,0,0,.67-1.24,1,1,0,0,0-.67-.61L281.22,300.29a4.22,4.22,0,0,0-3.51,0L89.17,399.15a1,1,0,0,0-.66,1.24A1,1,0,0,0,89.17,401Z" transform="translate(-14.68 -42.17)"/><ellipse id="freepik--shadow--inject-2-3" data-name="freepik--shadow--inject-2" class="cls-4" cx="369.93" cy="356.26" rx="58.16" ry="30.5"/></g><g id="freepik--Chair--inject-2"><g id="freepik--chair--inject-2-2" data-name="freepik--chair--inject-2"><path class="cls-5" d="M137.28,372.56a1.45,1.45,0,0,1-1.52-1.37h0V282.82a1.52,1.52,0,0,1,3,0h0v88.36A1.45,1.45,0,0,1,137.28,372.56Z" transform="translate(-14.68 -42.17)"/><path class="cls-5" d="M197.47,340.39a1.53,1.53,0,0,1-1.41-.83L166.23,271a1.33,1.33,0,0,1,.85-1.78,1.57,1.57,0,0,1,2,.77h0l29.83,68.54a1.34,1.34,0,0,1-.85,1.79A1.67,1.67,0,0,1,197.47,340.39Z" transform="translate(-14.68 -42.17)"/><path class="cls-5" d="M193.88,332.16a1.59,1.59,0,0,1-1.09-.43l-55.52-53.36L81.86,331.5a1.63,1.63,0,0,1-2.14.12,1.29,1.29,0,0,1-.14-1.94l.08-.07,56.5-54.18a1.55,1.55,0,0,1,1.1-.43h0a1.54,1.54,0,0,1,1.09.43L195,329.84a1.28,1.28,0,0,1-.06,1.93h0A1.6,1.6,0,0,1,193.88,332.16Z" transform="translate(-14.68 -42.17)"/><path class="cls-5" d="M77.08,340.39a1.45,1.45,0,0,1-.55-.1,1.33,1.33,0,0,1-.87-1.76v0l29.83-68.58a1.58,1.58,0,0,1,2-.77,1.34,1.34,0,0,1,.85,1.78L78.49,339.52A1.52,1.52,0,0,1,77.08,340.39Z" transform="translate(-14.68 -42.17)"/><path class="cls-6" d="M195.41,330l4,9.45a1,1,0,0,1,0,.24v.17a1.27,1.27,0,0,1-.59.6,2.9,2.9,0,0,1-2.41,0,.92.92,0,0,1-.46-.45h0v-.12l-3.65-8.87Z" transform="translate(-14.68 -42.17)"/><path class="cls-6" d="M79.13,330l-3.94,9.45a1,1,0,0,0,0,.24.48.48,0,0,0,0,.17,1.12,1.12,0,0,0,.59.6,2.87,2.87,0,0,0,2.4,0,.85.85,0,0,0,.46-.45h0v-.12l3.7-8.87Z" transform="translate(-14.68 -42.17)"/><path class="cls-6" d="M139,364.34v7.82a.84.84,0,0,1-.51.65,3,3,0,0,1-2.47,0,.84.84,0,0,1-.51-.65v-7.82A4,4,0,0,1,139,364.34Z" transform="translate(-14.68 -42.17)"/><path class="cls-6" d="M194.24,274.16c0-2.08-2-4.28-6.24-6.77-7.8-4.6-25.25-13.84-36.17-19.34a.1.1,0,0,0-.09-.07c-8.41-4.64-16.26-26.71-22.07-43.48-2-5.72-4.41-8.95-7.29-10.47-.68-.36-3.21-1.62-3.77-1.92-5.71-3.12-13.21.62-22.54,5.26-8.6,4.27-15.31,9.74-16.66,24.26-.83,8.84,0,25.73,1.93,38.54h0c2.86,21.39,6.38,21.42,11.47,25,8.78,6.17,28.56,14.81,36.91,17.76,15.11,5.39,27.47-2.93,36.67-7.06a220.76,220.76,0,0,0,24.38-13.09c2.31-1.52,3.5-3.06,3.48-4.68C194.22,277.46,194.24,274.83,194.24,274.16Z" transform="translate(-14.68 -42.17)"/><path class="cls-7" d="M194.24,274.16c0-2.08-2-4.28-6.24-6.77-7.8-4.6-25.25-13.84-36.17-19.34a.1.1,0,0,0-.09-.07c-8.41-4.64-16.26-26.71-22.07-43.48-2-5.72-4.41-8.95-7.29-10.47-.68-.36-3.21-1.62-3.77-1.92-5.71-3.12-13.21.62-22.54,5.26-8.6,4.27-15.31,9.74-16.66,24.26-.83,8.84,0,25.73,1.93,38.54h0c2.86,21.39,6.38,21.42,11.47,25,8.78,6.17,28.56,14.81,36.91,17.76,15.11,5.39,27.47-2.93,36.67-7.06a220.76,220.76,0,0,0,24.38-13.09c2.31-1.52,3.5-3.06,3.48-4.68C194.22,277.46,194.24,274.83,194.24,274.16Z" transform="translate(-14.68 -42.17)"/><path class="cls-6" d="M122,193.85c-5.66-2.7-13,1-22.1,5.5-5.83,2.9-10.79,6.34-13.81,12.77l-3.79-2c3-6.41,8-9.84,13.78-12.73,9.34-4.64,16.83-8.38,22.54-5.26Z" transform="translate(-14.68 -42.17)"/><path class="cls-6" d="M188,267.39c-5.07-3-5.17-3.75-36.45-19.48l.15.06c-8.4-4.65-16.24-26.71-22.05-43.47-5.92-17-15.77-12.1-29.74-5.14-8.62,4.26-15.33,9.74-16.7,24.26s1.6,50.48,7,54.87c6,6,29.84,17.08,39.38,20.49,15.11,5.4,27.46-2.93,36.66-7.06a219.12,219.12,0,0,0,24.43-13.12C196,275.34,195.51,271.81,188,267.39Z" transform="translate(-14.68 -42.17)"/><path class="cls-6" d="M151.72,248" transform="translate(-14.68 -42.17)"/><g class="cls-8"><path class="cls-9" d="M99.94,199.36c14-7,23.81-11.89,29.73,5.14,5.81,16.77,13.67,38.84,22.07,43.48,0,0-14.43,0-35.32,10.23-21.72,10.65-25,21.07-26,20.33-5.47-4.14-8.48-40.4-7.12-54.92S91.33,203.62,99.94,199.36Z" transform="translate(-14.68 -42.17)"/></g></g></g><g id="freepik--Desk--inject-2"><g id="freepik--desk--inject-2-2" data-name="freepik--desk--inject-2"><polygon class="cls-5" points="182.96 302.22 87.27 252.04 247.1 168.28 342.79 218.45 182.96 302.22"/><polygon class="cls-10" points="87.27 252.04 87.27 352.4 92.31 355.04 92.31 286.37 177.93 331.27 177.93 399.93 182.96 402.57 182.96 302.22 87.27 252.04"/><polygon class="cls-9" points="92.31 355.04 97.35 352.4 97.35 289.01 92.31 286.37 92.31 355.04"/><polygon class="cls-11" points="182.96 402.57 188 399.93 188 331.27 337.76 252.79 337.76 321.45 342.79 318.81 342.79 218.45 182.96 302.22 182.96 402.57"/><polygon class="cls-10" points="337.76 321.45 332.72 318.81 332.72 255.43 337.76 252.79 337.76 321.45"/><g class="cls-12"><path class="cls-9" d="M189,324.59c-4.89,2.56-4.89,6.71,0,9.28s12.76,2.56,17.69,0,4.88-6.72,0-9.28S193.85,322,189,324.59Z" transform="translate(-14.68 -42.17)"/></g><g class="cls-12"><path class="cls-9" d="M118.3,294.15l35.11,18.44a2.36,2.36,0,0,0,2,0L181.26,299a.54.54,0,0,0,.38-.69.57.57,0,0,0-.38-.34l-35.13-18.44a2.44,2.44,0,0,0-2,0l-25.87,13.57C117.75,293.4,117.75,293.87,118.3,294.15Z" transform="translate(-14.68 -42.17)"/></g><g class="cls-12"><path class="cls-9" d="M118.3,297.45l35.11,18.43a2.36,2.36,0,0,0,2,0l25.87-13.57c.55-.28.55-.75,0-1l-35.13-18.44a2.44,2.44,0,0,0-2,0L118.3,296.41a.54.54,0,0,0-.37.71A.61.61,0,0,0,118.3,297.45Z" transform="translate(-14.68 -42.17)"/></g><path class="cls-13" d="M118.3,296.37l35.11,18.43a2.36,2.36,0,0,0,2,0l25.91-13.53c.54-.29.54-.75,0-1l-35.17-18.47a2.44,2.44,0,0,0-2,0L118.3,295.33a.54.54,0,0,0-.37.71A.58.58,0,0,0,118.3,296.37Z" transform="translate(-14.68 -42.17)"/><path class="cls-4" d="M144.17,281.77,119.6,294.65l33.81,17.75a2.44,2.44,0,0,0,2,0L180,299.52l-33.86-17.75A2.39,2.39,0,0,0,144.17,281.77Z" transform="translate(-14.68 -42.17)"/><path class="cls-14" d="M118.3,293.13l35.11,18.43a2.36,2.36,0,0,0,2,0L181.3,298a.54.54,0,0,0,.36-.71.59.59,0,0,0-.36-.33l-35.17-18.4a2.36,2.36,0,0,0-2,0L118.3,292.09a.54.54,0,0,0-.37.71A.61.61,0,0,0,118.3,293.13Z" transform="translate(-14.68 -42.17)"/><g class="cls-12"><path class="cls-9" d="M158,277.77l19,10a2.79,2.79,0,0,0,2.33,0l61.32-32.17a.64.64,0,0,0,.45-.82.71.71,0,0,0-.45-.41l-19-10a2.81,2.81,0,0,0-2.34,0L158,276.54a.64.64,0,0,0-.45.82A.71.71,0,0,0,158,277.77Z" transform="translate(-14.68 -42.17)"/></g><path class="cls-4" d="M158.63,275.43V275a2.13,2.13,0,0,1,1.07-1.66L216,243.84a2.53,2.53,0,0,1,2.15,0L235.59,253a2.13,2.13,0,0,1,1.07,1.65v.39a2.13,2.13,0,0,1-1.07,1.66l-56.3,29.54a2.53,2.53,0,0,1-2.15,0l-17.44-9.13A2.15,2.15,0,0,1,158.63,275.43Z" transform="translate(-14.68 -42.17)"/><path class="cls-14" d="M159.7,274.48l17.41,9.16a2.6,2.6,0,0,0,2.15,0l56.33-29.54a.58.58,0,0,0,.4-.76.62.62,0,0,0-.4-.37l-17.48-9.16a2.53,2.53,0,0,0-2.15,0l-56.29,29.54a.58.58,0,0,0-.38.77A.64.64,0,0,0,159.7,274.48Z" transform="translate(-14.68 -42.17)"/><path class="cls-13" d="M205.88,329.89c4.31-4,6.85-14,2.64-17.16H187.13c-4.21,3.17-1.68,13.15,2.63,17.15l.12.12.15.13.39.31.1.08.33.22a5.21,5.21,0,0,0,.55.32,15.44,15.44,0,0,0,12.86,0h0a4.56,4.56,0,0,0,.56-.33l.31-.2.12-.09c.13-.1.26-.2.38-.31l.17-.15Z" transform="translate(-14.68 -42.17)"/><path class="cls-14" d="M189,311.46c-4.89,2.56-4.89,6.71,0,9.28s12.76,2.55,17.69,0,4.88-6.72,0-9.28S193.85,308.89,189,311.46Z" transform="translate(-14.68 -42.17)"/><path class="cls-13" d="M192.43,313.27c-3,1.57-3,4.09,0,5.65a13,13,0,0,0,10.76,0c3-1.56,3-4.08,0-5.65A13,13,0,0,0,192.43,313.27Z" transform="translate(-14.68 -42.17)"/><path class="cls-4" d="M203.19,316a13,13,0,0,0-10.76,0,4.9,4.9,0,0,0-1.82,1.48,4.83,4.83,0,0,0,1.82,1.49,13,13,0,0,0,10.76,0,4.79,4.79,0,0,0,1.83-1.49A4.85,4.85,0,0,0,203.19,316Z" transform="translate(-14.68 -42.17)"/><path class="cls-6" d="M193.09,317.43a22.32,22.32,0,0,1-3.89-4.7c-1.82-2.88-2.13-6.75-1.2-7.23s4.71,3.39,4.71,3.39a18.91,18.91,0,0,1-.4-5c.16-2.57.84-4.91,1.65-5.38s2.64,2.77,3.41,5.12,1.24,4.29,1.24,4.29a35.21,35.21,0,0,1,1.39-5.41c.92-2.44,1.83-3,2.47-2.75s1.11,1.37,1.3,4.63a28.93,28.93,0,0,1-.17,4.65s1.34-1.33,2.82-2.63c1.63-1.41,2.32-1.65,2.79-1.34s.59,2.49-1.92,6.62a23.68,23.68,0,0,1-4.76,5.69S199,319.48,193.09,317.43Z" transform="translate(-14.68 -42.17)"/><path class="cls-6" d="M286.45,270.16,291,220.3a4.61,4.61,0,0,0-2.27-4.14,6.29,6.29,0,0,0-5.2.09L223.4,247.77a6,6,0,0,0-2.93,4.21l-4.56,49.85a4.59,4.59,0,0,0,2.26,4.13,6.28,6.28,0,0,0,5.21-.09l60.14-31.51A6,6,0,0,0,286.45,270.16Z" transform="translate(-14.68 -42.17)"/><path class="cls-15" d="M286.45,270.16,291,220.3a4.61,4.61,0,0,0-2.27-4.14,6.29,6.29,0,0,0-5.2.09L223.4,247.77a6,6,0,0,0-2.93,4.21l-4.56,49.85a4.59,4.59,0,0,0,2.26,4.13,6.28,6.28,0,0,0,5.21-.09l60.14-31.51A6,6,0,0,0,286.45,270.16Z" transform="translate(-14.68 -42.17)"/><path class="cls-6" d="M286.45,270.16,291,220.3a4.61,4.61,0,0,0-2.27-4.14,6.29,6.29,0,0,0-5.2.09L223.4,247.77a5.78,5.78,0,0,0-2,1.79l9.34,4.9V302l52.73-27.64A6,6,0,0,0,286.45,270.16Z" transform="translate(-14.68 -42.17)"/><path class="cls-16" d="M286.45,270.16,291,220.3a4.61,4.61,0,0,0-2.27-4.14,6.29,6.29,0,0,0-5.2.09L223.4,247.77a5.78,5.78,0,0,0-2,1.79l9.34,4.9V302l52.73-27.64A6,6,0,0,0,286.45,270.16Z" transform="translate(-14.68 -42.17)"/><path class="cls-6" d="M221,304.48l4.56-49.84a6,6,0,0,1,2.93-4.21l60.14-31.53c1.49-.77,2.57-.15,2.44,1.4l-4.56,49.86a6,6,0,0,1-2.93,4.21l-60.14,31.51C221.9,306.66,220.84,306,221,304.48Z" transform="translate(-14.68 -42.17)"/><path class="cls-17" d="M221,304.48l4.56-49.84a6,6,0,0,1,2.93-4.21l60.14-31.53c1.49-.77,2.57-.15,2.44,1.4l-4.56,49.86a6,6,0,0,1-2.93,4.21l-60.14,31.51C221.9,306.66,220.84,306,221,304.48Z" transform="translate(-14.68 -42.17)"/><path class="cls-6" d="M252,264.49a9.44,9.44,0,0,1,4.4-6.72c2.2-1.15,3.79,0,3.56,2.53a9.46,9.46,0,0,1-4.4,6.72C253.34,268.18,251.74,267,252,264.49Z" transform="translate(-14.68 -42.17)"/><polygon class="cls-6" points="238.7 237.39 253.48 229.59 250.97 228.28 236.2 236.07 238.7 237.39"/><g class="cls-18"><polygon class="cls-19" points="238.7 237.39 253.48 229.59 250.97 228.28 236.2 236.07 238.7 237.39"/></g><path class="cls-6" d="M275,294.65l-18,9.44a2.57,2.57,0,0,1-1.16.24,2.47,2.47,0,0,1-1-.23h0L247,300h0a2.1,2.1,0,0,1-1-1.65v-.38c0-.62.47-.88,1.07-.56l4.78,2.48,1.07.56-.24-1.1-1.68-21.07,2.51,1.32,14.78-7.79L275.86,293A1.63,1.63,0,0,1,275,294.65Z" transform="translate(-14.68 -42.17)"/><g class="cls-20"><path class="cls-19" d="M275,294.65l-18,9.44a2.57,2.57,0,0,1-1.16.24,2.47,2.47,0,0,1-1-.23h0L247,300h0a2.1,2.1,0,0,1-1-1.65v-.38c0-.62.47-.88,1.07-.56l4.78,2.48,1.07.56-.24-1.1-1.68-21.07,2.51,1.32,14.78-7.79L275.86,293A1.63,1.63,0,0,1,275,294.65Z" transform="translate(-14.68 -42.17)"/></g><polygon class="cls-6" points="231.53 255.04 237.66 251.82 238.91 259.33 231.53 255.04"/><g class="cls-21"><polygon class="cls-9" points="231.53 255.04 237.66 251.82 238.91 259.33 231.53 255.04"/></g><path class="cls-6" d="M253.38,279.56l-2.5-1.32,1.68,21c.14.61-.24.83-.83.54L247,297.31c-.6-.32-1.07-.06-1.07.56v.38a2.13,2.13,0,0,0,1,1.66h0l7.92,4.13h0a2.47,2.47,0,0,0,1,.23Z" transform="translate(-14.68 -42.17)"/><g class="cls-21"><path class="cls-19" d="M253.38,279.56l-2.5-1.32,1.68,21c.14.61-.24.83-.83.54L247,297.31c-.6-.32-1.07-.06-1.07.56v.38a2.13,2.13,0,0,0,1,1.66h0l7.92,4.13h0a2.47,2.47,0,0,0,1,.23Z" transform="translate(-14.68 -42.17)"/></g><g id="freepik--Pencil--inject-2"><polygon id="freepik--shadow--inject-2-4" data-name="freepik--shadow--inject-2" class="cls-22" points="171.4 251.18 174.17 252.62 196.02 241 198.44 238.42 193.41 239.63 171.4 251.18"/><path class="cls-23" d="M208.29,280l4.65-.83a.14.14,0,0,1,.17.11.1.1,0,0,1,0,.1l-3.17,3.25Z" transform="translate(-14.68 -42.17)"/><path class="cls-10" d="M213.08,279.42a.12.12,0,0,0,0-.18.12.12,0,0,0-.12,0l-.91.16h0a.7.7,0,0,1,.38.67v.08Z" transform="translate(-14.68 -42.17)"/><path class="cls-6" d="M192.6,291.71l.38-.2.46-.24,16.47-8.6a1.75,1.75,0,0,0-.13-1.4,2.12,2.12,0,0,0-1.5-1.23l-16.5,8.59-.91.46C191.49,288.86,193.14,291.43,192.6,291.71Z" transform="translate(-14.68 -42.17)"/><path class="cls-13" d="M194,291l.85-.45c.24-.12.1-.68-.2-1.25-.38-.77-1.14-1.52-1.48-1.36l-.62.33-.23.12c.34-.16,1.1.58,1.49,1.35.28.56.43,1.09.21,1.24h0Z" transform="translate(-14.68 -42.17)"/><path class="cls-6" d="M194.23,290.84c.58-.28-1.09-2.89-1.68-2.61l-.85.45c.59-.29,2.25,2.33,1.67,2.61Z" transform="translate(-14.68 -42.17)"/><path class="cls-13" d="M192.6,291.71l.84-.44c.58-.27-1-2.8-1.62-2.64h0l-.85.45C191.49,288.86,193.14,291.43,192.6,291.71Z" transform="translate(-14.68 -42.17)"/><path class="cls-24" d="M213.1,279.28l-.16-.07-3.38,1.65L192.1,290c0-.05-.06-.05-.08,0,.49.7.87,1.59.54,1.74l.38-.2.47-.24,16.5-8.6h0l3.16-3.25A.12.12,0,0,0,213.1,279.28Z" transform="translate(-14.68 -42.17)"/><path class="cls-25" d="M189,293.57l3.56-1.86c.26-.12.12-.68-.17-1.25-.39-.77-1.15-1.52-1.49-1.37h0L187.32,291c-.71.37,0,1.78.74,2.4A.9.9,0,0,0,189,293.57Z" transform="translate(-14.68 -42.17)"/><path class="cls-26" d="M189.21,292.56a2.4,2.4,0,0,0-1.46-1.6.58.58,0,0,0-.53.07c-.54.44.08,1.73.84,2.32a.92.92,0,0,0,.91.22C189.24,293.43,189.34,293.05,189.21,292.56Z" transform="translate(-14.68 -42.17)"/></g></g></g><g id="freepik--speech-bubble--inject-2"><g id="freepik--speach-bubble--inject-2"><path class="cls-5" d="M315.66,138.9a1.22,1.22,0,0,0-.57-.13H304.68L300.37,141v13.51l4.31-2.22,3.7-3.89v9.52l4.3-2.26,11.27-11a1,1,0,0,0-.14-1.47l-.15-.1Z" transform="translate(-14.68 -42.17)"/><path class="cls-11" d="M308.4,157.94l4.3-2.26,11.27-11a1,1,0,0,0-.12-1.46,1.18,1.18,0,0,0-.75-.26H312.7l-4.3,2.26Z" transform="translate(-14.68 -42.17)"/><path class="cls-11" d="M312.73,131.81a8.13,8.13,0,0,0-4.12-6.49h0a9.9,9.9,0,0,0-8.25,0L269,141.62a8.19,8.19,0,0,0-4.13,6.5v30.74a8.16,8.16,0,0,0,4.13,6.49h0a9.93,9.93,0,0,0,8.26,0L309,168.8c3.71-1.92,3.75-3.85,3.75-6.24Z" transform="translate(-14.68 -42.17)"/><path class="cls-10" d="M264.87,178.86a8.16,8.16,0,0,0,4.13,6.49h0a10.14,10.14,0,0,0,7.56.32c-1.95.66-3.43-.35-3.43-2.49V152.44a7.2,7.2,0,0,1,1.21-3.69l-8.25-4.32a7.1,7.1,0,0,0-1.21,3.69Z" transform="translate(-14.68 -42.17)"/><path class="cls-5" d="M312.6,130.79c-.48-1.6-2.08-2.1-4-1.1L277.25,146a7.83,7.83,0,0,0-2.91,2.8l-8.2-4.31a7.86,7.86,0,0,1,2.91-2.81l31.34-16.3a10,10,0,0,1,8.27,0h0A8.26,8.26,0,0,1,312.6,130.79Z" transform="translate(-14.68 -42.17)"/><polygon class="cls-6" points="282.36 126.74 274.96 130.62 274.96 103.73 282.36 99.84 282.36 126.74"/><polygon class="cls-6" points="289.77 104.93 289.77 113.89 267.56 125.53 267.56 116.57 289.77 104.93"/></g></g><g id="freepik--Character--inject-2"><g id="freepik--character--inject-2-2" data-name="freepik--character--inject-2"><path class="cls-27" d="M379.71,169.43c7.29.18,9.36,2.83,13.75,8.53s19.34,27.31,19.34,27.31L434,212.65l-2.79,11.22s-28.29-4.35-30.14-5.34-15.63-21.6-15.63-21.6Z" transform="translate(-14.68 -42.17)"/><path class="cls-3" d="M374.14,169.61c6.89-1.56,9.93,1.93,12.23,5.8C396.8,192.78,401,297.06,401,297.06s-23.28,8.43-40.54-1.47Z" transform="translate(-14.68 -42.17)"/><path class="cls-28" d="M396.32,348.84,392,363.9s-5,2.68-9.35,0c-3.44-2.11-3.23-4.6-3.23-4.6l.2-2.26.5-17.51Z" transform="translate(-14.68 -42.17)"/><path class="cls-10" d="M375.37,367.48c-1.2,2.41-1.88,9.44-1.88,9.44s.73,2.59,4.69,4.88l3.86-9.3Z" transform="translate(-14.68 -42.17)"/><polygon class="cls-9" points="363.5 339.67 373.52 338.42 377.32 331.18 365.73 334.31 363.5 339.67"/><path class="cls-10" d="M392.73,361.29l.53-1.84c1.52.08,1.39,2.81,1.5,3.6.33,2.28.59,4.55,1,6.82a39,39,0,0,0,1.93,7.39c.91,2.29,1.43,4.73,3,6.76s4.25,3.23,6.44,4.59a3.53,3.53,0,0,1,1.38,1.27c.5,1-.2,2.18-1.06,2.95a10.85,10.85,0,0,1-5.55,2.43,23.28,23.28,0,0,1-6.24,0,23.78,23.78,0,0,1-10.25-3.44c-2.93-1.91-3.57-5.67-4-8.72-.38-2.48-.15-5.37-1.28-7.69s-4.35-5.38-4.66-7.9a11,11,0,0,1,1.44-6.16c1.17-2,2-4.65,2.78-4.27l-.13,1.49c0-.11.75,2.86,5.47,3.92C387.14,363,391.32,363,392.73,361.29Z" transform="translate(-14.68 -42.17)"/><path class="cls-28" d="M385.59,377.59c.13,2.78,0,3.93,0,5.19a29,29,0,0,0,1.38,6.13,12.63,12.63,0,0,0,1,2.67c.47,1,1.35,2.33.83,3.31a3.71,3.71,0,0,1-1,1.16,10.37,10.37,0,0,1-6.83,2.12,8,8,0,0,1-3.72-1c-2.19-1.31-3.06-3.69-4.23-5.71-1.29-2.17-.54-3.31-.75-5.7a76.88,76.88,0,0,0-1.36-9.42C375.66,371.43,379.65,376.22,385.59,377.59Z" transform="translate(-14.68 -42.17)"/><path class="cls-6" d="M392.86,240c7.12,22.53,19.14,60.81,15.77,72.73C406.07,321.69,395,354.3,395,354.3c-4.29.54-13.07,1.41-16.49-5.42-.86-11.08-3.87-86.32-3.87-86.32Z" transform="translate(-14.68 -42.17)"/><path class="cls-29" d="M392.86,240c7.12,22.53,19.14,60.81,15.77,72.73C406.07,321.69,395,354.3,395,354.3c-4.29.54-13.07,1.41-16.49-5.42-.86-11.08-3.87-86.32-3.87-86.32Z" transform="translate(-14.68 -42.17)"/><path class="cls-7" d="M374.64,262.52A121.34,121.34,0,0,0,387.2,250s-.91,5.33-9,12.69c0,0,13.58,47.5,13.5,55.08s-4.56,34.76-4.56,34.76Z" transform="translate(-14.68 -42.17)"/><path class="cls-6" d="M392.86,240c-5.8,10.93-8.08,15.3-18.22,22.53,0,0,12.4,46.81,12.95,55.89.91,15.11-1.23,48.91-2,59.18-1.92,2.29-11.29,2.68-14.24.73a308.82,308.82,0,0,1-8-36.46c-1.57-11.08.44-21,.69-23.9-6.57-15.22-21.32-37.43-26.72-53.35a37.08,37.08,0,0,1-1.66-8.45c-1.21-10.09,3.34-17.79,6-23.17l51.19,7" transform="translate(-14.68 -42.17)"/><g class="cls-20"><path class="cls-19" d="M392.86,240c-5.8,10.93-8.08,15.3-18.22,22.53,0,0,12.4,46.81,12.95,55.89.91,15.11-1.23,48.91-2,59.18-1.92,2.29-11.29,2.68-14.24.73a308.82,308.82,0,0,1-8-36.46c-1.57-11.08.44-21,.69-23.9-6.57-15.22-21.32-37.43-26.72-53.35a37.08,37.08,0,0,1-1.66-8.45c-1.21-10.09,3.34-17.79,6-23.17l51.19,7" transform="translate(-14.68 -42.17)"/></g><path class="cls-10" d="M369.91,393.42c-.72,2.55-.07,9.58-.07,9.58s1.2,2.43,5.53,4.08l2.05-9.75Z" transform="translate(-14.68 -42.17)"/><polygon class="cls-9" points="360.69 364.91 370.31 362.12 372.69 354.42 361.87 359.28 360.69 364.91"/><path class="cls-11" d="M385.55,384.61l.08-1.83c1.29.59,4.07,10.13,7.88,16.7,3.48,6,10.46,9.37,12.71,12,3,3.5-3,7.93-12.44,6-4.7-1-11.84-3.75-13.72-6.66s-2.52-8.22-4.07-10.35-5.31-4.61-6.08-7a12,12,0,0,1,.08-6.68c.77-2.19.73-4.44,1.94-4.62l.18,1.72c.63,1.18,3.09,2.54,7.89,2.82C382.28,386.79,384.5,386.51,385.55,384.61Z" transform="translate(-14.68 -42.17)"/><path class="cls-10" d="M368.77,150.77,364,165.46c-13.31,0-21.53-11.77-21.53-23.85h0c0-12.14,8.51-22.27,21.87-22.27h4.34c13.36,0,24.19,8,24.19,20.19h0C392.86,147.43,382.07,150.77,368.77,150.77Z" transform="translate(-14.68 -42.17)"/><path class="cls-10" d="M395.36,128.31a8.21,8.21,0,0,0,1.41-5,5.77,5.77,0,0,0-2.8-4.46c-2.48-1.44-5.93-.76-8.2.9-.38-3.28-3.57-5.7-7.2-5.45-2.21.15-4.18,1.27-6.09,2.28a34.69,34.69,0,0,1-10.4,2.91l4.07,1.42a5.61,5.61,0,0,0-.71,5.29,6,6,0,0,0,.64,1c5.51,7.48,15,11.66,24.91,10.94a8.49,8.49,0,0,0,3.87-1,6,6,0,0,0,1.7-1.65,5.89,5.89,0,0,0,1.2-3.85A4.05,4.05,0,0,0,395.36,128.31Z" transform="translate(-14.68 -42.17)"/><path class="cls-5" d="M358.38,171.34l-8.72.83c-5.78,1.28-8.4,3.6-9,8.28a33.17,33.17,0,0,0,.3,15.18c1.82,6.56,6.72,22.6,6.72,22.6s-6.33,14.43-9.3,21.8c20.58,12.19,46,7.37,54.5,0-.72-7-3.44-13.46-4.05-19.68,0,0,.44-9.71,1.29-13.93,6.51-6.44,5.68-12.62,2.73-17.59-5.39-9.2-13.53-17.26-16.15-17.26Z" transform="translate(-14.68 -42.17)"/><path class="cls-4" d="M374,166.12c2.6.58,4.64,1.54,5.69,3.31S389,183,389,183s-6.66-8-11.67-10.36a9.34,9.34,0,0,0-3.33-1Z" transform="translate(-14.68 -42.17)"/><path class="cls-14" d="M358.38,171.34s9.11,17.26,10.74,28.9-1.83,51.37-1.83,64c0,15.2.06,40.27.06,40.27s-10.4,0-17.54-1.85c-5.22-1.35-11.41-3.77-15.16-7.84,0,0-1-31.1,1.13-45.91,2-14.07,10.28-31.4,10.28-31.4l-10.57-36.6a9.47,9.47,0,0,1,7-8C348.67,171.14,358.38,171.34,358.38,171.34Z" transform="translate(-14.68 -42.17)"/><path class="cls-13" d="M349.81,178.87,339,193.22l7,24.24s-6.51,12.47-8.91,24.55c6.5-16.69,12.37-21.7,12.37-21.7l-3.81-14.12s1.34-4.44,3.21-12S350.45,182.19,349.81,178.87Z" transform="translate(-14.68 -42.17)"/><path class="cls-6" d="M355.7,192.4c0-.72-.07-2.28-.21-4.25-.67-9.61-1-18.3,2.59-19l.32,1.32c-2.61.51-1.75,12.92-1.42,17.59.14,2,.25,3.59.22,4.38Z" transform="translate(-14.68 -42.17)"/><path class="cls-13" d="M358.38,166.12a3.71,3.71,0,0,0-3.21,1.79c-.86,1.32-2.67,3.55-2.67,3.55s-.06,8.82.92,11.11c.83,2,11.13,9.35,11.13,9.35s-1,7.78-1.08,10.51,5.2,12.59,5.85,17.88c0,0,1.09-12.84.23-18.81-1.5-10.39-8.63-25.92-11.17-30.17Z" transform="translate(-14.68 -42.17)"/><path class="cls-5" d="M353.54,224.53h-.12v-.94a7.31,7.31,0,0,0,3.42-1.16,12.66,12.66,0,0,1-2.84-2.34c-1.69-2-5.37-16.09-4.23-19.38.91-2.75,3.93-8.84,6.59-8.93h.06c2.65,0,6.14,5.74,7.34,8.39,1.44,3.19-.91,17.53-2.41,19.63a11.93,11.93,0,0,1-2.61,2.55,7,7,0,0,0,3.51.9l.13.93a8.57,8.57,0,0,1-4.55-1.2A8.77,8.77,0,0,1,353.54,224.53Zm2.93-31.82h0c-1.56.06-4.36,4.57-5.63,8.28-1,3,2.49,16.67,4.05,18.51a12,12,0,0,0,2.91,2.32,11.45,11.45,0,0,0,2.73-2.55c1.39-2,3.65-15.83,2.31-18.76C361.22,197,358,192.71,356.47,192.71Z" transform="translate(-14.68 -42.17)"/><path class="cls-10" d="M363.9,223.65a1.44,1.44,0,0,1-1.46,1.44,1.48,1.48,0,0,1-1.6-1.33,1.47,1.47,0,0,1,1.47-1.45A1.49,1.49,0,0,1,363.9,223.65Z" transform="translate(-14.68 -42.17)"/><path class="cls-10" d="M355,224a1.45,1.45,0,0,1-1.46,1.45,1.48,1.48,0,0,1-1.59-1.33,1.45,1.45,0,0,1,1.46-1.45A1.47,1.47,0,0,1,355,224Z" transform="translate(-14.68 -42.17)"/><path class="cls-6" d="M364.05,206.38l-.91-.06a.3.3,0,0,1-.31-.31v0c.17-2.65.08-4.6-.27-5.38-1.55-3.42-4.74-7.71-6.14-7.66s-4.18,4.58-5.4,8.11a14.73,14.73,0,0,0,.24,5.38.33.33,0,0,1-.29.36l-.91.12a.35.35,0,0,1-.39-.27h0c-.48-3-.54-5-.18-6,.65-1.89,3.73-9,6.82-9.1s6.83,6.71,7.66,8.55c.45,1,.59,3,.38,6A.32.32,0,0,1,364.05,206.38Z" transform="translate(-14.68 -42.17)"/><path class="cls-28" d="M328.13,278.51c1.59,1.35,2.45,3.17,4.08,5.85s9.68,2.93,10.32-4.6c.48-5.68-1.71-7.6-6.09-12-4.6-4.65-6.38-5.41-6.17-9.73.12-2.12,3.65-32.91,3.65-32.91l11.6-29s4.19-13.57,2.08-23c0,0-7.52-.55-12.83,4.27-6.2,5.62-13.23,33.45-14.78,39.07a64.2,64.2,0,0,0-2.89,21.91c.37,9,.41,27.9,1.73,32.06S323.86,274.88,328.13,278.51Z" transform="translate(-14.68 -42.17)"/><path class="cls-3" d="M348.12,171.81s-8-.45-12.66,3-7.59,13.2-11,22.9-6.5,19.17-7.63,26c-.91,5.7.91,35.75.91,35.75s5.33,1.76,12.55-1.44l4.48-32.88,13.39-33A28.73,28.73,0,0,0,348.12,171.81Z" transform="translate(-14.68 -42.17)"/><path class="cls-28" d="M379.26,130.43c6.08.57,11.17,6.44,10.83,19.78-.29,11.3-4.33,14.06-6.38,14.89s-5.93.94-9.72.36v6.16s4.37,8.76,2.52,11.89c-10.38-3.89-18.13-12.17-18.13-12.17v-14s-2.56,2.76-6.75.23-4.36-8.78-1.91-11,7.69-1.53,8.66,1.58c0,0,3.65-.09,10.36-4.43A24.26,24.26,0,0,0,379.26,130.43Z" transform="translate(-14.68 -42.17)"/><path class="cls-10" d="M373.19,145.87a1.57,1.57,0,0,1-1.52,1.65h-.05a1.68,1.68,0,0,1-1.87-1.42,1.61,1.61,0,0,1,1.57-1.69,1.68,1.68,0,0,1,1.87,1.42Z" transform="translate(-14.68 -42.17)"/><path class="cls-30" d="M374.94,156.45l4.94,1.43a2.59,2.59,0,0,1-3.12,1.63l-.09,0A2.43,2.43,0,0,1,374.94,156.45Z" transform="translate(-14.68 -42.17)"/><path class="cls-10" d="M387.87,142.38l-3.35-2.11a2.06,2.06,0,0,1,2.69-.57l.09.05A1.82,1.82,0,0,1,387.87,142.38Z" transform="translate(-14.68 -42.17)"/><path class="cls-10" d="M386.68,145.58a1.66,1.66,0,1,1-1.74-1.49,1.62,1.62,0,0,1,1.74,1.48Z" transform="translate(-14.68 -42.17)"/><polygon class="cls-30" points="363.59 102.55 363.86 111.6 369.11 110.13 363.59 102.55"/><path class="cls-30" d="M374,165.46c-4-.47-12.24-3.24-13.52-6.2a7.66,7.66,0,0,0,2.88,3.77C365.84,165,374,167.1,374,167.1Z" transform="translate(-14.68 -42.17)"/><polygon class="cls-6" points="426.27 159.36 386.65 176.49 375.75 219.31 376.63 220.16 414.29 202.95 427.15 160.22 426.27 159.36"/><polygon class="cls-31" points="387.54 177.35 376.63 220.16 375.75 219.31 386.65 176.49 387.54 177.35"/><polygon class="cls-7" points="427.15 160.22 387.54 177.35 376.63 220.16 414.29 202.95 427.15 160.22"/><g class="cls-12"><path class="cls-9" d="M423.13,236.41c.37.83,3.4,2.7,7.8,2.37l.74-2.48Z" transform="translate(-14.68 -42.17)"/></g><g class="cls-8"><path class="cls-9" d="M429.89,211.16l.33-1.43c.18-.83-2.14-.39-5.19.92l-5.83,2.48c-3.06,1.31-5.67,3-5.85,3.81l-.33,1.43Z" transform="translate(-14.68 -42.17)"/></g><path class="cls-11" d="M432.3,204.45c.12-.5-.83-.44-2.11.13l-2.3,1s.68-3.1-4.45-1.07-6.24,5.61-6.24,5.61l-2.47,1.12c-1.37.61-2.6,1.52-2.73,2l-.29.91,20.4-8.82S432.19,204.94,432.3,204.45Z" transform="translate(-14.68 -42.17)"/><path class="cls-11" d="M430.13,207.42c-1.87.77-2.65,1.15-2.92,2.37-.32,1.39-.45,2.4-.45,2.4l-9,3.91s.44-1.77.57-2.49-.16-1-1.6-.39l-.56-1.44,14.57-6.18Z" transform="translate(-14.68 -42.17)"/><path class="cls-11" d="M430.42,211.18l.33-1.43c.18-.79-2.14-.38-5.19.93l-5.84,2.48c-3.05,1.31-5.66,3-5.85,3.81l-.32,1.43Z" transform="translate(-14.68 -42.17)"/><path class="cls-28" d="M437.42,217s-1.4,4.7-1.77,5.89-6.85,3.9-10.1,4.28c-6.22.7-6.92,1.92-5.42,5.93,1.37,3.69,5.42,5.09,11,4.48a10,10,0,0,0,7.69-6.09c1.82-4.72.84-9.77,1.56-12.53S439,215.39,437.42,217Z" transform="translate(-14.68 -42.17)"/></g></g><g id="freepik--Certificates--inject-2"><g id="freepik--Diploma--inject-2"><g id="freepik--Window--inject-2"><polygon class="cls-5" points="65.8 126.44 67.65 127.4 113.89 103.16 112.05 102.19 65.8 126.44"/><polygon class="cls-6" points="112.05 102.19 67.65 125.47 67.65 90.52 112.05 67.24 112.05 102.19"/><g class="cls-32"><polygon class="cls-19" points="112.05 102.19 67.65 125.47 67.65 90.52 112.05 67.24 112.05 102.19"/></g><path class="cls-11" d="M130.42,105.52l-49.9,26.19v40.77l49.94-26.19Zm-1.82,39.8L82.34,169.57V132.69l46.24-24.24Z" transform="translate(-14.68 -42.17)"/><polygon class="cls-10" points="113.89 103.16 112.05 102.19 112.05 67.24 113.89 66.26 113.89 103.16"/><polygon class="cls-5" points="115.74 63.36 113.89 62.39 63.95 88.57 65.8 89.54 115.74 63.36"/><polygon class="cls-10" points="63.95 88.57 65.8 89.54 65.8 130.32 63.95 129.35 63.95 88.57"/></g><path class="cls-6" d="M118,138.48c1.74-.91,3.13-.17,3.13,1.65A6.16,6.16,0,0,1,118,145c-1.72.9-3.11.18-3.11-1.65A6.17,6.17,0,0,1,118,138.48Z" transform="translate(-14.68 -42.17)"/><path class="cls-22" d="M92.78,131.09l23.51-12.33c.66-.35,1.19-.07,1.19.61v.07a2.36,2.36,0,0,1-1.19,1.86L92.78,133.65c-.64.34-1.18.06-1.18-.62V133A2.39,2.39,0,0,1,92.78,131.09Z" transform="translate(-14.68 -42.17)"/><g class="cls-12"><path class="cls-9" d="M89.07,140.8l31-16.22c.65-.34,1.18-.19,1.18.35a2.12,2.12,0,0,1-1.18,1.59l-31,16.24c-.65.35-1.18.19-1.17-.36A2.17,2.17,0,0,1,89.07,140.8Z" transform="translate(-14.68 -42.17)"/><path class="cls-9" d="M89.07,144.69l31-16.23c.65-.34,1.18-.19,1.18.34a2.15,2.15,0,0,1-1.18,1.6l-31,16.24c-.65.34-1.18.18-1.17-.36A2.11,2.11,0,0,1,89.07,144.69Z" transform="translate(-14.68 -42.17)"/><path class="cls-9" d="M89.07,148.56l31-16.23c.65-.34,1.18-.18,1.18.36a2.09,2.09,0,0,1-1.18,1.58l-31,16.24c-.65.35-1.18.18-1.17-.35A2.17,2.17,0,0,1,89.07,148.56Z" transform="translate(-14.68 -42.17)"/></g><path class="cls-33" d="M112.47,146.77a1.91,1.91,0,0,1-.78.19c-.66,0-.6-.61-.58-1,0-.19-.29-.49-.43-.23-.4.65-.91,1.26-1.35,1.9-.26.39-.76,1.27-1.4,1.15-.26-.05-.35-.31-.35-.63a2.88,2.88,0,0,0,.41-1.75c0-.19-.36-.41-.46-.16a4.81,4.81,0,0,0-.4,1.65,10.32,10.32,0,0,1-1,1.35c-.22.26-.4.55-.63.83-.07.06-.18.21-.27.22A.26.26,0,0,1,105,150a1.4,1.4,0,0,1,.1-.57h0v-.05h0c0-.19-.27-.47-.38-.23a8.56,8.56,0,0,1-1.82,2.75l-.12.09v-.34a2.44,2.44,0,0,0-.15-.76c0-.13-.29-.32-.42-.15a12.63,12.63,0,0,1-2.06,2.58,3,3,0,0,1-.42.27c-.15-.06.07-.75.11-.83.08-.3.19-.6.3-.9a3.36,3.36,0,0,0,.24-.74c0-.23-.39-.59-.47-.28a8.75,8.75,0,0,1-.28.83,20.26,20.26,0,0,1-1.8,2.55,6.57,6.57,0,0,1-2.41,2.11c-.28.13-.8.33-1.1.13s-.27-.53-.28-.82a6.15,6.15,0,0,1,.29-2A12.89,12.89,0,0,0,97,152a8.93,8.93,0,0,0,2-2c.28-.45.44-1.19-.22-1.44a1.92,1.92,0,0,0-1.45.31,6.19,6.19,0,0,0-1.45,1.07A7.43,7.43,0,0,0,94.1,153c-.06.17-.14.4-.21.66a6.22,6.22,0,0,1-3.41.52c-.07,0-.09.13,0,.13a6,6,0,0,0,3.33-.29c-.3,1.18-.46,2.74.74,3s2.66-1.07,3.31-1.86a11.56,11.56,0,0,0,1.29-1.9,1.71,1.71,0,0,0,.11-.14c0,.55.12,1,.71.83s1.13-.83,1.46-1.26.59-.83.91-1.22c.06.5.15,1,.67,1s.91-.91,1.18-1.24a5.52,5.52,0,0,0,.58-.88l.12.16c.43.41.91,0,1.22-.37s.83-1,1.21-1.49a.93.93,0,0,0,.51.52c.66.29,1.28-.21,1.66-.65a13,13,0,0,0,1.24-1.82.91.91,0,0,0,.46.58,1.69,1.69,0,0,0,1.56-.09C112.88,147.08,112.68,146.67,112.47,146.77ZM98,149.12c.3-.14.91-.38,1,.09a1.44,1.44,0,0,1-.42.83,10.35,10.35,0,0,1-1.82,1.74,16.09,16.09,0,0,1-2.25,1.56A6.71,6.71,0,0,1,98,149.12Z" transform="translate(-14.68 -42.17)"/></g><g id="freepik--diploma--inject-2-2" data-name="freepik--diploma--inject-2"><g id="freepik--window--inject-2-2" data-name="freepik--window--inject-2"><polygon class="cls-5" points="138.7 126.44 140.55 127.4 186.79 103.16 184.94 102.19 138.7 126.44"/><polygon class="cls-6" points="184.94 102.19 140.55 125.47 140.55 90.52 184.94 67.24 184.94 102.19"/><g class="cls-32"><polygon class="cls-19" points="184.94 102.19 140.55 125.47 140.55 90.52 184.94 67.24 184.94 102.19"/></g><path class="cls-11" d="M203.32,105.52l-49.91,26.19v40.77l50-26.19Zm-1.82,39.8-46.26,24.25V132.69l46.23-24.24Z" transform="translate(-14.68 -42.17)"/><polygon class="cls-10" points="186.79 103.16 184.94 102.19 184.94 67.24 186.79 66.26 186.79 103.16"/><polygon class="cls-5" points="188.64 63.36 186.79 62.39 136.85 88.57 138.7 89.54 188.64 63.36"/><polygon class="cls-10" points="136.85 88.57 138.7 89.54 138.7 130.32 136.85 129.35 136.85 88.57"/></g><path class="cls-6" d="M190.92,138.48c1.72-.91,3.12-.17,3.12,1.65a6.18,6.18,0,0,1-3.12,4.91c-1.73.9-3.13.18-3.13-1.65A6.16,6.16,0,0,1,190.92,138.48Z" transform="translate(-14.68 -42.17)"/><path class="cls-22" d="M165.68,131.09l23.52-12.33c.64-.35,1.17-.07,1.17.61v.07a2.35,2.35,0,0,1-1.17,1.86l-23.52,12.35c-.65.34-1.18.06-1.18-.62V133A2.39,2.39,0,0,1,165.68,131.09Z" transform="translate(-14.68 -42.17)"/><g class="cls-12"><path class="cls-9" d="M162,140.8l31-16.22c.66-.34,1.19-.19,1.19.35a2.16,2.16,0,0,1-1.19,1.59l-31,16.24c-.65.35-1.17.19-1.16-.36A2.16,2.16,0,0,1,162,140.8Z" transform="translate(-14.68 -42.17)"/><path class="cls-9" d="M162,144.69l31-16.23c.66-.34,1.19-.19,1.19.34a2.16,2.16,0,0,1-1.19,1.6l-31,16.24c-.65.34-1.17.18-1.16-.36A2.12,2.12,0,0,1,162,144.69Z" transform="translate(-14.68 -42.17)"/><path class="cls-9" d="M162,148.56l31-16.23c.66-.34,1.19-.18,1.19.36a2.13,2.13,0,0,1-1.19,1.58l-31,16.24c-.65.35-1.17.18-1.16-.35A2.16,2.16,0,0,1,162,148.56Z" transform="translate(-14.68 -42.17)"/></g><path class="cls-33" d="M185.36,146.77a1.86,1.86,0,0,1-.77.19c-.66,0-.6-.61-.59-1,0-.19-.28-.49-.42-.23-.41.65-.92,1.26-1.35,1.9-.26.39-.77,1.27-1.4,1.15-.26-.05-.35-.31-.35-.63a3,3,0,0,0,.41-1.75c0-.19-.36-.41-.47-.16a5,5,0,0,0-.4,1.65,9.43,9.43,0,0,1-1,1.35c-.21.26-.4.55-.64.83,0,.06-.17.21-.26.22a.26.26,0,0,1-.22-.22,1.25,1.25,0,0,1,.1-.57h0v-.05h0c0-.19-.27-.47-.38-.23a8.43,8.43,0,0,1-1.83,2.75l-.11.09v-.34a2.77,2.77,0,0,0-.15-.76c-.05-.13-.29-.32-.42-.15a12.63,12.63,0,0,1-2.06,2.58,3.12,3.12,0,0,1-.43.27c-.13-.06.09-.75.11-.83.08-.3.19-.6.3-.9a2.94,2.94,0,0,0,.25-.74c0-.23-.39-.59-.47-.28a7.17,7.17,0,0,1-.29.83,19.21,19.21,0,0,1-1.79,2.55,6.52,6.52,0,0,1-2.42,2.11c-.27.13-.79.33-1.09.13s-.26-.53-.28-.82a6.15,6.15,0,0,1,.29-2,12.89,12.89,0,0,0,2.68-1.72,8.73,8.73,0,0,0,2-2c.27-.45.44-1.19-.23-1.44a1.92,1.92,0,0,0-1.45.31,6.68,6.68,0,0,0-1.47,1A7.66,7.66,0,0,0,167,153c-.05.17-.13.4-.21.66a6.18,6.18,0,0,1-3.4.52.07.07,0,0,0,0,.13,6,6,0,0,0,3.33-.29c-.3,1.18-.46,2.73.74,3s2.66-1.07,3.31-1.86a12,12,0,0,0,1.29-1.9l.11-.14c0,.55.12.94.71.83s1.13-.83,1.47-1.27.58-.83.91-1.21c.05.49.15,1,.67,1s.91-.91,1.18-1.25a6,6,0,0,0,.58-.87l.12.15c.43.42.91,0,1.22-.36s.83-1,1.21-1.49a.93.93,0,0,0,.51.52,1.52,1.52,0,0,0,1.66-.65,13.6,13.6,0,0,0,1.24-1.82.91.91,0,0,0,.46.58,1.69,1.69,0,0,0,1.56-.09C185.78,147.08,185.58,146.67,185.36,146.77Zm-14.48,2.35c.31-.14.91-.38,1,.09a1.49,1.49,0,0,1-.41.83,10.73,10.73,0,0,1-1.82,1.74,15.62,15.62,0,0,1-2.26,1.56A6.76,6.76,0,0,1,170.88,149.12Z" transform="translate(-14.68 -42.17)"/></g></g><path class="cls-34" d="M701.64,490.67" transform="translate(-14.68 -42.17)"/></svg>