<svg id="Layer_1" data-name="Layer 1" xmlns="http://www.w3.org/2000/svg" xmlns:xlink="http://www.w3.org/1999/xlink" viewBox="0 0 482.14 425"><defs><style>.cls-1{fill:url(#linear-gradient);}.cls-2{fill:#c8c7c6;}.cls-3{fill:#ebebeb;}.cls-4{fill:#dcdbdb;}.cls-5{fill:#a7a6a6;}.cls-6{fill:#f1e913;}.cls-7,.cls-9{fill:#fff;}.cls-8{fill:#f7f8f8;}.cls-13,.cls-15,.cls-9{isolation:isolate;}.cls-9{font-size:37.22px;}.cls-15,.cls-9{font-family:ArialMT, Arial;}.cls-10{fill:#273339;}.cls-11,.cls-13,.cls-15{fill:#010101;}.cls-12,.cls-13{opacity:0.1;}.cls-14{fill:#465b65;}.cls-15{font-size:10.7px;}.cls-16{fill:#f8a9a0;}.cls-17{fill:#384850;}.cls-18{fill:url(#linear-gradient-2);}.cls-19{fill:url(#linear-gradient-3);}</style><linearGradient id="linear-gradient" x1="9.43" y1="264.98" x2="491.57" y2="264.98" gradientTransform="matrix(1, 0, 0, -1, 0, 502)" gradientUnits="userSpaceOnUse"><stop offset="0" stop-color="#f1e913" stop-opacity="0.1"/><stop offset="0.46" stop-color="#f5eb17" stop-opacity="0.67"/><stop offset="0.77" stop-color="#f1e913"/></linearGradient><linearGradient id="linear-gradient-2" x1="-44.52" y1="873.84" x2="-44.52" y2="873.84" xlink:href="#linear-gradient"/><linearGradient id="linear-gradient-3" x1="701.64" y1="490.67" x2="701.64" y2="490.67" gradientTransform="matrix(1, 0, 0, 1, 0, 0)" xlink:href="#linear-gradient"/></defs><path class="cls-1" d="M468,109.34c-13.8-40.3-72.8-69.5-116.9-60.5-56.7,11.6-68.4,82.4-112.6,78.9-26.9-2.1-27.6-28.8-73.3-41.6-12.8-3.6-43.2-11.7-73.3,2.8-6.6,3.2-25.8,13.5-37.6,34.7-26,46.7,18.8,82.6-1,139.9-12.3,35.6-34.5,35.7-41.9,69.4-7.9,36.2,10,70.9,25.7,93.9q221.55-2.1,443.2-4.1c9.1-23.9,18.1-59.5,3.9-92.9-14.4-33.7-38.6-32.7-50.6-60.6C409.86,213.64,487.16,165.14,468,109.34Z" transform="translate(-9.43 -22.74)"/><g id="freepik--background-complete--inject-12"><rect class="cls-2" x="82.53" width="0.9" height="82.6"/><polygon class="cls-3" points="113.13 110.2 110.73 115.3 55.33 115.3 52.93 110.2 76.53 94.7 89.53 94.7 113.13 110.2"/><polygon class="cls-4" points="91.23 79.7 89.53 94.7 76.53 94.7 74.83 79.7 91.23 79.7"/><polygon class="cls-4" points="113.13 110.2 110.73 115.3 55.33 115.3 52.93 110.2 113.13 110.2"/><rect class="cls-2" x="147.23" width="0.9" height="66.2"/><polygon class="cls-3" points="177.83 93.8 175.33 98.9 119.93 98.9 117.53 93.8 141.13 78.3 154.23 78.3 177.83 93.8"/><polygon class="cls-4" points="155.83 63.3 154.23 78.3 141.13 78.3 139.53 63.3 155.83 63.3"/><polygon class="cls-4" points="177.83 93.8 175.33 98.9 119.93 98.9 117.53 93.8 177.83 93.8"/><path class="cls-4" d="M255.86,169.24l.2,69.9a7.26,7.26,0,0,1-7.4,7.1h0l-116.4.3a7.2,7.2,0,0,1-7.4-7.1h0l-.2-69.9a6.79,6.79,0,0,1,6.9-6.6h0l117.5-.3a6.9,6.9,0,0,1,6.8,6.6Z" transform="translate(-9.43 -22.74)"/><path class="cls-5" d="M237.06,229.34a6.62,6.62,0,0,1-6.8,6.5,6.77,6.77,0,0,1-6.9-6.5,6.62,6.62,0,0,1,6.8-6.5h0a6.71,6.71,0,0,1,6.9,6.5Z" transform="translate(-9.43 -22.74)"/><path class="cls-6" d="M245.46,229.34a6.62,6.62,0,0,1-6.8,6.5,6.77,6.77,0,0,1-6.9-6.5,6.62,6.62,0,0,1,6.8-6.5,6.71,6.71,0,0,1,6.9,6.5Z" transform="translate(-9.43 -22.74)"/><path class="cls-6" d="M139.56,174.94h16.7a3.91,3.91,0,0,1,4,3.8v8.6a3.91,3.91,0,0,1-4,3.8h-16.7a3.91,3.91,0,0,1-4-3.8v-8.6A3.91,3.91,0,0,1,139.56,174.94Z" transform="translate(-9.43 -22.74)"/><path class="cls-7" d="M240.66,183.64h-11.2a4.51,4.51,0,0,1-4.7-4.4h0a4.5,4.5,0,0,1,4.6-4.5h11.1a4.51,4.51,0,0,1,4.7,4.4h0a4.42,4.42,0,0,1-4.5,4.5Z" transform="translate(-9.43 -22.74)"/><path class="cls-8" d="M134.76,205.94l-1,.6h-.1c-.1,0-.2,0-.2-.1s0-.2.1-.3h0l1.4-.8a.19.19,0,0,1,.3.1v6.5a.2.2,0,0,1-.4,0Z" transform="translate(-9.43 -22.74)"/><path class="cls-8" d="M137,211.64l3.3-2.9a1.61,1.61,0,0,0,.6-1.3,1.85,1.85,0,0,0-.5-1.2,2,2,0,0,0-2.6-.1l-.4.3a.3.3,0,0,1-.4,0,.19.19,0,0,1,0-.3l.4-.3a2.27,2.27,0,0,1,1.6-.6,2.24,2.24,0,0,1,2.3,2.2,2.09,2.09,0,0,1-.8,1.6l-2.8,2.5h3.4c.1,0,.2.2.2.3a.22.22,0,0,1-.2.2h-4c-.1,0-.1,0-.2-.1C137,211.94,136.86,211.74,137,211.64Z" transform="translate(-9.43 -22.74)"/><path class="cls-8" d="M147.36,205.64l-1.8,1.8a2.28,2.28,0,0,1,1.2.6,2.35,2.35,0,0,1,0,3.3,2.84,2.84,0,0,1-1.7.7,2.19,2.19,0,0,1-1.7-.7.19.19,0,0,1,0-.3h0a.3.3,0,0,1,.4,0,2.11,2.11,0,0,0,1.3.5,2.39,2.39,0,0,0,1.4-.5,1.61,1.61,0,0,0,.6-1.3,1.76,1.76,0,0,0-.6-1.3,2.17,2.17,0,0,0-1.4-.5c-.1,0-.1,0-.2-.1h0a.19.19,0,0,1,0-.3h0l1.8-1.7H144c-.1,0-.3-.1-.3-.2h0a.22.22,0,0,1,.2-.2h3.3c.1,0,.3.1.3.2h0c0-.1,0-.1-.1,0Z" transform="translate(-9.43 -22.74)"/><path class="cls-8" d="M153.36,210.64h-3.9c-.1,0-.1,0-.2-.1a.19.19,0,0,1,0-.3h0l4.1-4.9h0a.3.3,0,0,1,.4,0l.1.1h0v4.7h.5c.1,0,.3.1.3.2a.22.22,0,0,1-.2.2H154v1.2c0,.1-.2.2-.3.2a.22.22,0,0,1-.2-.2Zm0-.5v-4l-3.4,4Z" transform="translate(-9.43 -22.74)"/><path class="cls-8" d="M162.36,211.34a.19.19,0,0,1,0-.3h0a.3.3,0,0,1,.4,0h0a2,2,0,0,0,2.7,0h0a1.61,1.61,0,0,0,.6-1.3,1.82,1.82,0,0,0-1.9-1.8,2.39,2.39,0,0,0-1.4.5.19.19,0,0,1-.3,0h0l-.1-.1h0v-.2l.3-2.7c0-.1,0-.1.1-.2a.35.35,0,0,1,.2-.1h3.3c.1,0,.3.1.3.2h0a.22.22,0,0,1-.2.2h-3.1l-.2,2a2.44,2.44,0,0,1,2.9.4,2.35,2.35,0,0,1,0,3.3,2.84,2.84,0,0,1-1.7.7A1.76,1.76,0,0,1,162.36,211.34Z" transform="translate(-9.43 -22.74)"/><path class="cls-8" d="M169.16,206.64a2.82,2.82,0,0,1,2.5-1.5c.1,0,.3.1.3.2h0c0,.1-.1.2-.2.3a2.44,2.44,0,0,0-2.1,1.2,5.78,5.78,0,0,0-.5,1.4,2.46,2.46,0,0,1,3.3-.2,2.15,2.15,0,0,1,.2,3.2,2.46,2.46,0,0,1-3.3.2,2.09,2.09,0,0,1-.8-1.6v-.5A4.46,4.46,0,0,1,169.16,206.64Zm-.2,3.2v.2a1.91,1.91,0,1,0,1.8-1.9,1.77,1.77,0,0,0-1.8,1.7Z" transform="translate(-9.43 -22.74)"/><path class="cls-8" d="M175.76,211.64l2.6-6h-3.5a.2.2,0,0,1,0-.4h4a.1.1,0,0,1,.1.1v.2l-2.8,6.3c0,.1-.1.1-.2.2h-.1c-.1-.1-.1-.2-.1-.4Z" transform="translate(-9.43 -22.74)"/><path class="cls-8" d="M182.86,205.14a1.45,1.45,0,0,1,1.5,1.4,1.43,1.43,0,0,1-.6,1.2,2.26,2.26,0,0,1,1.3,2.9,2.32,2.32,0,0,1-3,1.2,2.26,2.26,0,0,1-1.3-2.9,2.21,2.21,0,0,1,1.3-1.2,1.38,1.38,0,0,1-.6-1.1,1.34,1.34,0,0,1,1.4-1.5Zm0,6.3a1.77,1.77,0,0,0,1.8-1.7,1.71,1.71,0,0,0-1.8-1.7,1.77,1.77,0,0,0-1.8,1.7,1.61,1.61,0,0,0,1.8,1.7c-.1.1,0,.1,0,0Zm0-3.9a.94.94,0,0,0,1-1,.9.9,0,0,0-.9-.9h-.1a.9.9,0,0,0-.9.9h0a.83.83,0,0,0,.9,1Z" transform="translate(-9.43 -22.74)"/><path class="cls-8" d="M195.56,205.14a2.38,2.38,0,0,1,2.4,2v.7a5.19,5.19,0,0,1-.7,2.7,3,3,0,0,1-2.5,1.5h0c-.1,0-.3-.1-.3-.2h0c0-.1.1-.2.2-.3a2.44,2.44,0,0,0,2.1-1.2,5.78,5.78,0,0,0,.5-1.4,2,2,0,0,1-1.8.7,2.35,2.35,0,0,1-2.4-2.3,2.29,2.29,0,0,1,2.5-2.2Zm1.9,2.2a1.9,1.9,0,1,0-1.9,1.8,2,2,0,0,0,1.9-1.8Z" transform="translate(-9.43 -22.74)"/><path class="cls-8" d="M199.76,208.54a4.2,4.2,0,0,1,.7-2.4,2.09,2.09,0,0,1,2.7-.8,2,2,0,0,1,.8.8,4,4,0,0,1,.7,2.4,4.2,4.2,0,0,1-.7,2.4,2.06,2.06,0,0,1-2.7.8,2.36,2.36,0,0,1-.9-.8A4.1,4.1,0,0,1,199.76,208.54Zm.5,0a3.94,3.94,0,0,0,.6,2.1,1.6,1.6,0,0,0,1.4.8,1.84,1.84,0,0,0,1.4-.8,4,4,0,0,0,0-4.2,1.62,1.62,0,0,0-2.8,0A3.7,3.7,0,0,0,200.26,208.54Z" transform="translate(-9.43 -22.74)"/><path class="cls-8" d="M208,205.84l-1,.6c-.1.1-.2,0-.3-.1h0c-.1-.1,0-.2.1-.3h0l1.4-.8a.19.19,0,0,1,.3.1v6.5a.2.2,0,0,1-.4,0Z" transform="translate(-9.43 -22.74)"/><path class="cls-8" d="M210.26,211.44l3.3-2.9a1.61,1.61,0,0,0,.6-1.3,2.08,2.08,0,0,0-.5-1.2,2,2,0,0,0-2.6-.1l-.3.3a.3.3,0,0,1-.4,0,.19.19,0,0,1,0-.3h0l.4-.3a2.27,2.27,0,0,1,1.6-.6,2.41,2.41,0,0,1,1.7.7,2,2,0,0,1,.6,1.5,2.09,2.09,0,0,1-.8,1.6l-2.8,2.5h3.4c.1,0,.2.2.2.3a.22.22,0,0,1-.2.2h-4c-.1,0-.1,0-.2-.1s-.1-.1,0-.3Z" transform="translate(-9.43 -22.74)"/><path class="cls-8" d="M226.66,205.44l-1.9,1.8a2.28,2.28,0,0,1,1.9,2.7,2.13,2.13,0,0,1-.7,1.2,2.84,2.84,0,0,1-1.7.7,2.19,2.19,0,0,1-1.7-.7.19.19,0,0,1,0-.3h0a.3.3,0,0,1,.4,0,2.11,2.11,0,0,0,1.3.5,2.39,2.39,0,0,0,1.4-.5,1.61,1.61,0,0,0,.6-1.3,1.76,1.76,0,0,0-.6-1.3,2.17,2.17,0,0,0-1.4-.5c-.1,0-.2,0-.2-.1h0a.19.19,0,0,1,0-.3h0l1.8-1.7h-2.7c-.1,0-.3-.1-.3-.2h0a.22.22,0,0,1,.2-.2h3.3c.1,0,.3.1.3.2Z" transform="translate(-9.43 -22.74)"/><path class="cls-8" d="M232.76,210.44h-3.9c-.1,0-.1,0-.2-.1a.19.19,0,0,1,0-.3h0l4.1-4.9h0a.19.19,0,0,1,.3,0h0l.1.1h0v4.7h.5c.1,0,.3.1.3.2s-.1.3-.2.3h-.6v1.2c0,.1-.2.2-.3.2a.22.22,0,0,1-.2-.2Zm0-.5v-4l-3.4,4Z" transform="translate(-9.43 -22.74)"/><path class="cls-8" d="M235.56,211.14a.19.19,0,0,1,0-.3.3.3,0,0,1,.4,0h0a2.17,2.17,0,0,0,1.4.5,1.88,1.88,0,0,0,1.9-1.8,1.82,1.82,0,0,0-1.9-1.8,2.39,2.39,0,0,0-1.4.5.19.19,0,0,1-.3,0h0a.1.1,0,0,1-.1-.1h0V208h0l.3-2.7c0-.1,0-.1.1-.2a.35.35,0,0,1,.2-.1h3.3c.1,0,.3.1.3.2s-.1.2-.3.2h-3.1l-.3,2a2.44,2.44,0,0,1,2.9.4,2.18,2.18,0,0,1,0,3.2,2.84,2.84,0,0,1-1.7.7A1.63,1.63,0,0,1,235.56,211.14Z" transform="translate(-9.43 -22.74)"/><path class="cls-8" d="M242.36,206.54a2.82,2.82,0,0,1,2.5-1.5c.1,0,.3.1.3.2h0c0,.1-.1.2-.2.3a2.44,2.44,0,0,0-2.1,1.2,5.78,5.78,0,0,0-.5,1.4,2.46,2.46,0,0,1,3.3-.2,2.23,2.23,0,0,1,.2,3.2,2.46,2.46,0,0,1-3.3.2,2.09,2.09,0,0,1-.8-1.6v-.5A4.17,4.17,0,0,1,242.36,206.54Zm-.2,3.1v.2a1.78,1.78,0,0,0,1.9,1.5,1.88,1.88,0,0,0,1.9-1.8,1.82,1.82,0,0,0-1.9-1.8,1.84,1.84,0,0,0-1.9,1.9Z" transform="translate(-9.43 -22.74)"/><rect class="cls-5" x="135.76" y="223.64" width="62.4" height="2.9" transform="matrix(1, 0, 0, 1, -9.99, -22.32)"/><rect class="cls-5" x="135.76" y="230.24" width="44.1" height="2.9" transform="matrix(1, 0, 0, 1, -10.01, -22.35)"/><rect class="cls-5" x="189.46" y="174.84" width="31.1" height="2.9" transform="matrix(1, 0, 0, 1, -9.87, -22.23)"/><rect class="cls-3" x="390.13" y="31.3" width="53.6" height="51.1"/><text class="cls-9" transform="translate(403.43 68.11) scale(1.42 1)">₹</text></g><g id="freepik--Floor--inject-12"><polygon class="cls-10" points="47.03 380 96.43 379.8 145.73 379.7 244.33 379.5 343.03 379.7 392.33 379.8 441.73 380 392.33 380.2 343.03 380.3 244.33 380.4 145.73 380.3 96.43 380.2 47.03 380"/></g><g id="freepik--Shadow--inject-12"><ellipse class="cls-3" cx="244.33" cy="400.2" rx="207.9" ry="24.8"/></g><path class="cls-10" d="M428.06,102.94V393c.1,8.5-7,15.4-15.9,15.5H254.56c-8.9-.1-16-7-15.9-15.4h0V102.94c-.1-8.5,7-15.4,15.9-15.5h157.6c8.8.1,15.9,7,15.9,15.5Z" transform="translate(-9.43 -22.74)"/><path class="cls-7" d="M418.06,117.44v266a14.51,14.51,0,0,1-14.3,14.7h-141a14.51,14.51,0,0,1-14.3-14.7v-266c0-16.6,6.4-20.2,14.3-20.2H291c1.6,0,3,1.8,3,4v.9c0,5.2,3,5.2,6.6,5.2h65.3c3.7,0,6.6,0,6.6-5.2v-.9c0-2.2,1.3-4,3-4h28.3C411.66,97.24,418.06,102.24,418.06,117.44Z" transform="translate(-9.43 -22.74)"/><path class="cls-7" d="M342.16,100.84h-17.8a1.1,1.1,0,0,1-1.1-1h0a1,1,0,0,1,1.1-1h17.8a1.1,1.1,0,0,1,1.1,1h0A1,1,0,0,1,342.16,100.84Z" transform="translate(-9.43 -22.74)"/><path class="cls-6" d="M394.46,282.14c-1.5,2.7-5.2,5-5.2,5s-3.7-2.4-5.2-5c-1.7-3-.8-6.1,1.7-6.1,2.8,0,3.5,3.3,3.5,3.3s.7-3.3,3.5-3.3C395.16,276,396.16,279.14,394.46,282.14Z" transform="translate(-9.43 -22.74)"/><rect class="cls-4" x="261.83" y="97.2" width="14.2" height="2.2"/><rect class="cls-4" x="261.83" y="101.6" width="14.2" height="2.2"/><rect class="cls-4" x="261.83" y="106.1" width="14.2" height="2.2"/><polygon class="cls-4" points="343.03 102.3 344.63 101.2 349.33 107.2 347.83 108.3 343.03 102.3"/><path class="cls-4" d="M355.76,121.44a4,4,0,0,1-.8,5.7,4.39,4.39,0,0,1-6-.8,4,4,0,0,1,.8-5.7,4.39,4.39,0,0,1,6,.8Z" transform="translate(-9.43 -22.74)"/><path class="cls-7" d="M354.36,122.34a2.25,2.25,0,0,1-.5,3.4,2.75,2.75,0,0,1-3.6-.4,2.25,2.25,0,0,1,.5-3.4h0A2.73,2.73,0,0,1,354.36,122.34Z" transform="translate(-9.43 -22.74)"/><path class="cls-4" d="M377.26,126c-1.5,2.7-5.2,5-5.2,5s-3.7-2.3-5.2-5c-1.7-3-.8-6.1,1.7-6.1,2.8,0,3.5,3.3,3.5,3.3s.7-3.3,3.5-3.3C378,119.94,379,123,377.26,126Z" transform="translate(-9.43 -22.74)"/><path class="cls-4" d="M393.66,128.84h-8.6l-2.2-8.3H382v-.7h1.4l.4,1.6h11.8Zm-8-.7h7.4l1.7-5.9h-10.7Z" transform="translate(-9.43 -22.74)"/><polygon class="cls-4" points="382.83 107.4 382.23 106.1 377.43 106.1 376.93 107.4 376.23 107.2 376.83 105.4 382.73 105.4 383.53 107.1 382.83 107.4"/><rect class="cls-4" x="374.63" y="100.4" width="10.7" height="0.7"/><rect class="cls-4" x="389.1" y="120.4" width="0.7" height="9.7" transform="translate(253 491.38) rotate(-89.74)"/><rect class="cls-4" x="375.63" y="103.9" width="8.8" height="0.7"/><rect class="cls-4" x="379.53" y="99.1" width="0.7" height="6.6"/><polygon class="cls-4" points="381.43 104.7 382.03 98 382.73 98.1 382.23 104.7 381.43 104.7"/><polygon class="cls-4" points="382.23 105.7 383.53 99.1 384.23 99.2 382.93 105.8 382.23 105.7"/><polygon class="cls-4" points="377.63 99.2 378.43 99.1 378.93 105.7 378.23 105.8 377.63 99.2"/><polygon class="cls-4" points="375.53 99.2 376.33 99.1 377.53 105.7 376.83 105.8 375.53 99.2"/><path class="cls-4" d="M392.56,131.14a1.2,1.2,0,0,1-1.2-1.1,1.2,1.2,0,0,1,2.4,0h0a1.13,1.13,0,0,1-1.2,1.1Zm0-1.5a.4.4,0,1,0,.4.4h0C393.06,129.74,392.86,129.64,392.56,129.64Z" transform="translate(-9.43 -22.74)"/><path class="cls-4" d="M386.06,131.14a1.2,1.2,0,0,1-1.2-1.1,1.2,1.2,0,0,1,2.4,0h0A1.28,1.28,0,0,1,386.06,131.14Zm0-1.5a.66.66,0,0,0-.5.4.43.43,0,0,0,.4.4.66.66,0,0,0,.5-.4h0A.37.37,0,0,0,386.06,129.64Z" transform="translate(-9.43 -22.74)"/><ellipse class="cls-6" cx="385.83" cy="97" rx="3.1" ry="3"/><path class="cls-7" d="M395.76,117.94v3.3a.32.32,0,0,1-.3.3.27.27,0,0,1-.3-.3v-2.7l-.2.1h-.2c-.1,0-.2-.1-.3-.2a.25.25,0,0,1,.1-.4h0l.7-.4h.2Z" transform="translate(-9.43 -22.74)"/><rect class="cls-4" x="261.83" y="255.5" width="78" height="2.1"/><rect class="cls-4" x="261.83" y="259.4" width="67.1" height="2.1"/><polygon class="cls-2" points="254.03 192 250.83 189.2 254.03 186.4 254.53 186.9 251.93 189.2 254.53 191.5 254.03 192"/><path class="cls-2" d="M262.76,216.94a5,5,0,1,1,5.2-5h0A5,5,0,0,1,262.76,216.94Zm0-9a4.1,4.1,0,1,0,4.3,4.1h0a4.17,4.17,0,0,0-4.3-4.1c.1-.1,0-.1,0,0Z" transform="translate(-9.43 -22.74)"/><polygon class="cls-2" points="393.73 192 393.23 191.5 395.83 189.2 393.23 186.9 393.73 186.4 396.83 189.2 393.73 192"/><path class="cls-2" d="M403.76,216.94a5,5,0,1,1,5.2-5h0A5.06,5.06,0,0,1,403.76,216.94Zm0-9a4.1,4.1,0,1,0,4.3,4.1h0a4.17,4.17,0,0,0-4.3-4.1Z" transform="translate(-9.43 -22.74)"/><path class="cls-11" d="M280.46,340.14l3.9-3.3a2.13,2.13,0,0,0,.7-1.5,2,2,0,0,0-2.1-2,2.39,2.39,0,0,0-1.4.5l-.4.4a.3.3,0,0,1-.4,0h0a.19.19,0,0,1,0-.3h0l.4-.4a3.12,3.12,0,0,1,1.8-.7,2.59,2.59,0,0,1,2.7,2.5,2.46,2.46,0,0,1-.9,1.9l-3.3,2.8h3.9a.27.27,0,0,1,.3.3h0a.32.32,0,0,1-.3.3h-4.6c-.1,0-.2,0-.2-.1-.2-.1-.3-.3-.1-.4Z" transform="translate(-9.43 -22.74)"/><path class="cls-11" d="M287.56,336.64a5,5,0,0,1,.8-2.7,2.38,2.38,0,0,1,3.2-.9,2.84,2.84,0,0,1,1,.9,5.3,5.3,0,0,1,.8,2.7,5,5,0,0,1-.8,2.7,2.29,2.29,0,0,1-3.1.9,2.19,2.19,0,0,1-1-.9A3.44,3.44,0,0,1,287.56,336.64Zm.5,0a4,4,0,0,0,.7,2.4,1.8,1.8,0,0,0,2.3.8,1.56,1.56,0,0,0,.8-.8,4.78,4.78,0,0,0,0-4.9,1.8,1.8,0,0,0-2.3-.8,1.56,1.56,0,0,0-.8.8A5.9,5.9,0,0,0,288.06,336.64Z" transform="translate(-9.43 -22.74)"/><path class="cls-11" d="M296.36,339.44a.6.6,0,1,1-.6.6h0A.65.65,0,0,1,296.36,339.44Z" transform="translate(-9.43 -22.74)"/><path class="cls-11" d="M298.06,336.64a4.3,4.3,0,0,1,.8-2.7,2.68,2.68,0,0,1,2.1-1.2,2.72,2.72,0,0,1,2.1,1.2,5.3,5.3,0,0,1,.8,2.7,5,5,0,0,1-.8,2.7,2.68,2.68,0,0,1-2.1,1.2,2.57,2.57,0,0,1-2.1-1.2A5,5,0,0,1,298.06,336.64Zm.6,0a4,4,0,0,0,.7,2.4,1.89,1.89,0,0,0,1.6.9,2.2,2.2,0,0,0,1.6-.9,4.78,4.78,0,0,0,0-4.9,1.89,1.89,0,0,0-1.6-.9,2,2,0,0,0-1.6.9A4.75,4.75,0,0,0,298.66,336.64Z" transform="translate(-9.43 -22.74)"/><path class="cls-11" d="M306.46,336.64a5,5,0,0,1,.8-2.7,2.29,2.29,0,0,1,3.1-.9,2.84,2.84,0,0,1,1,.9,5.3,5.3,0,0,1,.8,2.7,5,5,0,0,1-.8,2.7,2.29,2.29,0,0,1-3.1.9,2.19,2.19,0,0,1-1-.9A4.3,4.3,0,0,1,306.46,336.64Zm.6,0a4,4,0,0,0,.7,2.4,1.89,1.89,0,0,0,1.6.9,2.2,2.2,0,0,0,1.6-.9,4.78,4.78,0,0,0,0-4.9,1.89,1.89,0,0,0-1.6-.9,2,2,0,0,0-1.6.9A4,4,0,0,0,307.06,336.64Z" transform="translate(-9.43 -22.74)"/><path class="cls-11" d="M276.26,144.24l-1.8,2.3c0,.1-.1.1-.2.1h0c-.1,0-.1,0-.2-.1l-1.8-2.3v4.3a.2.2,0,0,1-.4,0h0v-4.8c0-.1,0-.1.1-.1h.3l2,2.6,1.9-2.6a.19.19,0,0,1,.3,0l.1.1v4.9a.2.2,0,1,1-.4,0h0Z" transform="translate(-9.43 -22.74)"/><path class="cls-11" d="M280.26,145a2,2,0,0,1,2,1.7,1.88,1.88,0,0,1-1.8,1.9,2,2,0,0,1-2-1.7v-.1A1.93,1.93,0,0,1,280.26,145Zm0,3.4A1.57,1.57,0,0,0,282,147a1.54,1.54,0,0,0-1.4-1.6,1.63,1.63,0,0,0-1.7,1.4v.1A1.38,1.38,0,0,0,280.26,148.44Z" transform="translate(-9.43 -22.74)"/><path class="cls-11" d="M286.56,148a2,2,0,0,1-1.5.7,1.82,1.82,0,0,1-1.9-1.8,1.88,1.88,0,0,1,1.9-1.8,2.13,2.13,0,0,1,1.5.7v-2.1a.22.22,0,0,1,.2-.2h0a.22.22,0,0,1,.2.2v4.9a.2.2,0,1,1-.4,0h0Zm0-1.1v-.1a1.55,1.55,0,1,0-1.5,1.5A1.45,1.45,0,0,0,286.56,146.94Z" transform="translate(-9.43 -22.74)"/><path class="cls-11" d="M288.26,146.94a1.82,1.82,0,0,1,1.9-1.8,1.86,1.86,0,0,1,1.9,1.7h0a.22.22,0,0,1-.2.2h-3.2a1.45,1.45,0,0,0,1.5,1.4,1.39,1.39,0,0,0,1.2-.7c0-.1.2-.1.2-.1h0a.37.37,0,0,1,.1.3,1.82,1.82,0,0,1-1.6.8,1.86,1.86,0,0,1-1.8-1.8Zm.4-.3h2.9a1.47,1.47,0,0,0-2.9,0Z" transform="translate(-9.43 -22.74)"/><path class="cls-11" d="M293.16,145.24a.22.22,0,0,1,.2-.2h0a.22.22,0,0,1,.2.2v.8a.1.1,0,0,1,.1-.1,1.86,1.86,0,0,1,1.5-.9.2.2,0,0,1,0,.4,1.25,1.25,0,0,0-1.1.6,4.05,4.05,0,0,0-.5.9v1.7a.22.22,0,0,1-.2.2h0a.22.22,0,0,1-.2-.2h0Z" transform="translate(-9.43 -22.74)"/><path class="cls-11" d="M299.36,146.54a1.2,1.2,0,0,0-2.4,0v2.1l-.1.1h0c-.1,0-.1,0-.1-.1h0v-3.4a.22.22,0,0,1,.2-.2h0a.22.22,0,0,1,.2.2v.4a1.66,1.66,0,0,1,1.2-.5,1.56,1.56,0,0,1,1.6,1.5v2a.2.2,0,1,1-.4,0h0Z" transform="translate(-9.43 -22.74)"/><path class="cls-11" d="M307.06,146.34h-2.8v2.3a.2.2,0,0,1-.4,0v-4.9a.2.2,0,1,1,.4,0V146h2.8v-2.3a.2.2,0,1,1,.4,0v4.9a.2.2,0,0,1-.4,0Z" transform="translate(-9.43 -22.74)"/><path class="cls-11" d="M312.56,145.24v3.3a.2.2,0,1,1-.4,0V148a1.91,1.91,0,0,1-1.4.7,1.82,1.82,0,0,1-1.9-1.8,1.88,1.88,0,0,1,1.9-1.8,1.75,1.75,0,0,1,1.4.7v-.5c0-.1,0-.2.1-.2s.2-.1.3.1Zm-.4,1.7a1.5,1.5,0,0,0-1.5-1.3,1.37,1.37,0,0,0-1.3,1.5,1.49,1.49,0,0,0,1.4,1.3,1.52,1.52,0,0,0,1.4-1.5Z" transform="translate(-9.43 -22.74)"/><path class="cls-11" d="M316.76,146.54a1.13,1.13,0,0,0-1.2-1.1h0a1.13,1.13,0,0,0-1.2,1.1v2.1l-.1.1h0c-.1,0-.1,0-.1-.1h0v-3.4a.22.22,0,0,1,.2-.2h0a.22.22,0,0,1,.2.2h0v.4a1.66,1.66,0,0,1,1.2-.5,1.56,1.56,0,0,1,1.6,1.5v2a.2.2,0,1,1-.4,0Z" transform="translate(-9.43 -22.74)"/><path class="cls-11" d="M321.76,148a2,2,0,0,1-1.5.7,1.82,1.82,0,0,1-1.9-1.8,1.88,1.88,0,0,1,1.9-1.8,2.13,2.13,0,0,1,1.5.7v-2.1a.22.22,0,0,1,.2-.2h0a.22.22,0,0,1,.2.2v4.9a.2.2,0,1,1-.4,0h0Zm0-1.1v-.1a1.48,1.48,0,0,0-1.6-1.4,1.54,1.54,0,0,0-1.5,1.5,1.48,1.48,0,0,0,1.6,1.4A1.39,1.39,0,0,0,321.76,146.94Z" transform="translate(-9.43 -22.74)"/><path class="cls-11" d="M323.86,147v-3.3a.2.2,0,1,1,.4,0h0v2.1a2,2,0,0,1,1.5-.7,1.82,1.82,0,0,1,1.9,1.8,1.88,1.88,0,0,1-1.9,1.8,2.13,2.13,0,0,1-1.5-.7v.5a.22.22,0,0,1-.2.2h0a.22.22,0,0,1-.2-.2Zm.4-.1a1.45,1.45,0,0,0,1.5,1.4,1.54,1.54,0,0,0,1.5-1.5,1.45,1.45,0,0,0-1.5-1.4,1.61,1.61,0,0,0-1.5,1.5Z" transform="translate(-9.43 -22.74)"/><path class="cls-11" d="M332.26,145.24v3.3a.2.2,0,0,1-.4,0V148a1.91,1.91,0,0,1-1.4.7,1.82,1.82,0,0,1-1.9-1.8,1.88,1.88,0,0,1,1.9-1.8,1.75,1.75,0,0,1,1.4.7v-.5c0-.1,0-.2.1-.2s.3-.1.3.1Zm-.4,1.7a1.5,1.5,0,0,0-1.5-1.3,1.37,1.37,0,0,0-1.3,1.5,1.49,1.49,0,0,0,1.4,1.3,1.45,1.45,0,0,0,1.4-1.5Z" transform="translate(-9.43 -22.74)"/><path class="cls-11" d="M337.56,148.44a1.71,1.71,0,0,1-1.8,1.7h0a1.88,1.88,0,0,1-.8-.2.31.31,0,0,1-.1-.2c0-.1.1-.1.2-.1h0a1.53,1.53,0,0,0,1.9-.6,1.27,1.27,0,0,0,.1-.6v-.5a1.62,1.62,0,0,1-1.4.7,1.88,1.88,0,0,1-1.9-1.8,1.82,1.82,0,0,1,1.9-1.8,1.75,1.75,0,0,1,1.4.7v-.6a.2.2,0,0,1,.4,0v3.3Zm-.4-1.5a1.42,1.42,0,0,0-1.5-1.2,1.43,1.43,0,0,0-1.3,1.5,1.59,1.59,0,0,0,1.4,1.3,1.79,1.79,0,0,0,1.4-1.6Z" transform="translate(-9.43 -22.74)"/><path class="cls-11" d="M274.66,290.44a3,3,0,0,1,1.8.6.21.21,0,0,1-.3.3h0a2.69,2.69,0,0,0-1.5-.5,2.26,2.26,0,1,0-.3,4.5h.3a2.46,2.46,0,0,0,1.5-.5.21.21,0,0,1,.3.3h0a2.79,2.79,0,0,1-1.8.6,2.76,2.76,0,0,1-2.8-2.6,2.65,2.65,0,0,1,2.8-2.7Z" transform="translate(-9.43 -22.74)"/><path class="cls-11" d="M279.56,292.14a1.81,1.81,0,1,1-1.8,1.9v-.1A1.79,1.79,0,0,1,279.56,292.14Zm0,3.2a1.57,1.57,0,0,0,1.7-1.4,1.54,1.54,0,0,0-1.4-1.6,1.57,1.57,0,0,0-1.7,1.4v.1a1.39,1.39,0,0,0,1.4,1.5Z" transform="translate(-9.43 -22.74)"/><path class="cls-11" d="M282.86,290.74a.2.2,0,1,1,.4,0h0v4.9a.22.22,0,0,1-.2.2h0a.22.22,0,0,1-.2-.2Z" transform="translate(-9.43 -22.74)"/><path class="cls-11" d="M286.46,292.14a1.81,1.81,0,1,1-1.8,1.9v-.1A1.79,1.79,0,0,1,286.46,292.14Zm0,3.2a1.5,1.5,0,0,0,1.7-1.3,1.47,1.47,0,0,0-1.4-1.6,1.5,1.5,0,0,0-1.7,1.3v.1a1.34,1.34,0,0,0,1.4,1.5Z" transform="translate(-9.43 -22.74)"/><path class="cls-11" d="M289.56,292.24a.22.22,0,0,1,.2-.2h0a.22.22,0,0,1,.2.2h0v.7a1.86,1.86,0,0,1,1.5-.9.22.22,0,0,1,.2.2h0a.22.22,0,0,1-.2.2h0a1.15,1.15,0,0,0-1.1.6,4.05,4.05,0,0,0-.5.9v1.7a.22.22,0,0,1-.2.2h0a.22.22,0,0,1-.2-.2h0Z" transform="translate(-9.43 -22.74)"/><rect class="cls-6" x="271.83" y="329.6" width="104.1" height="20.9"/><path class="cls-7" d="M299.06,365.24h-2.8l-.6,1.5a.68.68,0,0,1-.6.4h-.2a.68.68,0,0,1-.4-.8l2.6-6.6a.82.82,0,0,1,.6-.4.55.55,0,0,1,.6.4l2.6,6.6a.68.68,0,0,1-.4.8h-.2a.68.68,0,0,1-.6-.4Zm-.5-1.3-.9-2.4-.9,2.4Z" transform="translate(-9.43 -22.74)"/><path class="cls-7" d="M302.46,366.44v-6.6a.65.65,0,0,1,.6-.6h1.4a4,4,0,0,1,3.9,4.1,4,4,0,0,1-3.9,3.7h-1.4a.58.58,0,0,1-.6-.6Zm1.3-.6h.7a2.72,2.72,0,0,0,2.4-3.1,2.87,2.87,0,0,0-2.4-2.3h-.7Z" transform="translate(-9.43 -22.74)"/><path class="cls-7" d="M310.56,366.44v-6.6a.65.65,0,0,1,.6-.6h1.4a4,4,0,0,1,3.9,4.1,4,4,0,0,1-3.9,3.7h-1.4a.58.58,0,0,1-.6-.6Zm1.3-.6h.7a2.72,2.72,0,0,0,2.4-3.1,2.87,2.87,0,0,0-2.4-2.3h-.7Z" transform="translate(-9.43 -22.74)"/><path class="cls-7" d="M327.56,360.44h-1.9v6a.59.59,0,0,1-.7.5c-.3,0-.5-.3-.6-.5v-6h-1.9a.67.67,0,0,1-.7-.6h0a.65.65,0,0,1,.6-.6h5a.58.58,0,0,1,.6.6h0A.44.44,0,0,1,327.56,360.44Z" transform="translate(-9.43 -22.74)"/><path class="cls-7" d="M336,360.24a4,4,0,0,1,0,5.7,3.78,3.78,0,0,1-2.8,1.2,4.05,4.05,0,0,1-2.9-6.9,3.85,3.85,0,0,1,2.9-1.2A3.78,3.78,0,0,1,336,360.24Zm-.2,2.8a3.18,3.18,0,0,0-.8-2,2.66,2.66,0,0,0-3.8,0,2.79,2.79,0,0,0-.8,2,2.7,2.7,0,0,0,5.4,0Z" transform="translate(-9.43 -22.74)"/><path class="cls-7" d="M342.66,363a4.21,4.21,0,0,1,4.3-4,4.39,4.39,0,0,1,2.7.9.56.56,0,0,1,.1.9.63.63,0,0,1-.9.1,3.08,3.08,0,0,0-1.9-.6,3.23,3.23,0,0,0-2.1.8,2.6,2.6,0,0,0-.1,3.8l.1.1a3.23,3.23,0,0,0,2.1.8,3.08,3.08,0,0,0,1.9-.6.74.74,0,0,1,.9.1.63.63,0,0,1-.1.9,4.39,4.39,0,0,1-2.7.9,4.17,4.17,0,0,1-4.3-4.1Z" transform="translate(-9.43 -22.74)"/><path class="cls-7" d="M356.06,365.24h-2.8l-.6,1.5a.68.68,0,0,1-.6.4h-.2a.68.68,0,0,1-.4-.8h0l2.6-6.6a.82.82,0,0,1,.6-.4.55.55,0,0,1,.6.4l2.6,6.6a.6.6,0,0,1-.4.8h-.2a.55.55,0,0,1-.6-.4Zm-.5-1.3-.9-2.4-.9,2.4Z" transform="translate(-9.43 -22.74)"/><path class="cls-7" d="M364.86,366.14a.68.68,0,0,1-.4.8h-.3a.9.9,0,0,1-.5-.1.78.78,0,0,1-.4-.4,2,2,0,0,1-.2-1.3.9.9,0,0,0-.1-.5,1.38,1.38,0,0,0-.4-.3,4.88,4.88,0,0,0-.7-.3h-1.4v2.4a.67.67,0,0,1-.7.6h0a.58.58,0,0,1-.6-.6v-6.6a.65.65,0,0,1,.6-.6h2.1a2.46,2.46,0,0,1,2.5,2.4h0a2.43,2.43,0,0,1-.9,1.8c.2.1.3.3.4.4a1.92,1.92,0,0,1,.4,1.2v.7C364.66,365.74,364.86,365.94,364.86,366.14Zm-1.6-4.5a1.22,1.22,0,0,0-1.2-1.2h-1.4v2.3h1.4a1.2,1.2,0,0,0,1.2-1.1Z" transform="translate(-9.43 -22.74)"/><path class="cls-7" d="M371.56,360.44h-1.9v6a.65.65,0,0,1-.6.6h0a.75.75,0,0,1-.7-.6h0v-6h-1.9a.58.58,0,0,1-.6-.6.65.65,0,0,1,.6-.6h5a.75.75,0,0,1,.7.6h0A.58.58,0,0,1,371.56,360.44Z" transform="translate(-9.43 -22.74)"/><rect class="cls-3" x="261.83" y="130.2" width="124" height="118.1"/><ellipse class="cls-4" cx="323.83" cy="235" rx="51" ry="6.7"/><path class="cls-6" d="M364.26,257.34h-61.9c-16.7,0-14.1-12.7-10-26.1s10-33.7,24.9-33.7h32.2c15,0,20.9,20.3,24.9,33.7S381,257.34,364.26,257.34Z" transform="translate(-9.43 -22.74)"/><g class="cls-12"><path class="cls-11" d="M315.46,198.24a.65.65,0,0,1-.6.6.58.58,0,0,1-.6-.6.65.65,0,0,1,.6-.6h0A.58.58,0,0,1,315.46,198.24Z" transform="translate(-9.43 -22.74)"/><path class="cls-11" d="M326,198.24a.65.65,0,0,1-.6.6.58.58,0,0,1-.6-.6.65.65,0,0,1,.6-.6h0A.53.53,0,0,1,326,198.24Z" transform="translate(-9.43 -22.74)"/><path class="cls-11" d="M336.56,198.24a.6.6,0,1,1-.6-.6h0A.58.58,0,0,1,336.56,198.24Z" transform="translate(-9.43 -22.74)"/><path class="cls-11" d="M347.16,198.24a.65.65,0,0,1-.6.6.58.58,0,0,1-.6-.6.65.65,0,0,1,.6-.6Q347,197.64,347.16,198.24Z" transform="translate(-9.43 -22.74)"/><path class="cls-11" d="M304.86,211.14a.65.65,0,0,1-.6.6.86.86,0,0,1-.7-.6.65.65,0,0,1,.6-.6h0A.67.67,0,0,1,304.86,211.14Z" transform="translate(-9.43 -22.74)"/><circle class="cls-11" cx="305.33" cy="188.4" r="0.6"/><path class="cls-11" d="M326,211.14a.65.65,0,0,1-.6.6.75.75,0,0,1-.7-.6.65.65,0,0,1,.6-.6h0c.5,0,.7.3.7.6Z" transform="translate(-9.43 -22.74)"/><path class="cls-11" d="M336.56,211.14a.65.65,0,0,1-.6.6.86.86,0,0,1-.7-.6.65.65,0,0,1,.6-.6h0a.67.67,0,0,1,.7.6Z" transform="translate(-9.43 -22.74)"/><path class="cls-11" d="M347.16,211.14a.65.65,0,0,1-.6.6.58.58,0,0,1-.6-.6.6.6,0,0,1,1.2,0Z" transform="translate(-9.43 -22.74)"/><path class="cls-11" d="M357.66,211.14a.65.65,0,0,1-.6.6.75.75,0,0,1-.7-.6.65.65,0,0,1,.6-.6h0A.67.67,0,0,1,357.66,211.14Z" transform="translate(-9.43 -22.74)"/><path class="cls-11" d="M310.16,204.54a.6.6,0,1,1-.6-.6h0A.58.58,0,0,1,310.16,204.54Z" transform="translate(-9.43 -22.74)"/><path class="cls-11" d="M320.76,204.54a.65.65,0,0,1-.6.6.58.58,0,0,1-.6-.6.65.65,0,0,1,.6-.6h0a.58.58,0,0,1,.6.6Z" transform="translate(-9.43 -22.74)"/><path class="cls-11" d="M331.26,204.54a.6.6,0,1,1-.6-.6h0a.58.58,0,0,1,.6.6Z" transform="translate(-9.43 -22.74)"/><path class="cls-11" d="M341.76,204.54a.6.6,0,1,1-.6-.6h0a.58.58,0,0,1,.6.6Z" transform="translate(-9.43 -22.74)"/><path class="cls-11" d="M352.36,204.54a.65.65,0,0,1-.6.6.58.58,0,0,1-.6-.6.65.65,0,0,1,.6-.6h0A.58.58,0,0,1,352.36,204.54Z" transform="translate(-9.43 -22.74)"/><path class="cls-11" d="M362.86,204.84a.55.55,0,0,1-.5.3.58.58,0,0,1-.6-.6h0a.68.68,0,0,1,.4-.6C362.36,204.24,362.66,204.54,362.86,204.84Z" transform="translate(-9.43 -22.74)"/><path class="cls-11" d="M304.86,224a.65.65,0,0,1-.6.6.86.86,0,0,1-.7-.6.65.65,0,0,1,.6-.6h0A.67.67,0,0,1,304.86,224Z" transform="translate(-9.43 -22.74)"/><circle class="cls-11" cx="305.33" cy="201.3" r="0.6"/><path class="cls-11" d="M326,224a.65.65,0,0,1-.6.6.86.86,0,0,1-.7-.6.65.65,0,0,1,.6-.6h0c.5,0,.7.3.7.6Z" transform="translate(-9.43 -22.74)"/><path class="cls-11" d="M336.56,224a.65.65,0,0,1-.6.6.86.86,0,0,1-.7-.6.65.65,0,0,1,.6-.6h0a.67.67,0,0,1,.7.6Z" transform="translate(-9.43 -22.74)"/><path class="cls-11" d="M347.16,224a.65.65,0,0,1-.6.6.58.58,0,0,1-.6-.6.6.6,0,0,1,1.2,0Z" transform="translate(-9.43 -22.74)"/><path class="cls-11" d="M357.66,224a.65.65,0,0,1-.6.6.75.75,0,0,1-.7-.6.65.65,0,0,1,.6-.6h0A.67.67,0,0,1,357.66,224Z" transform="translate(-9.43 -22.74)"/><circle class="cls-11" cx="358.13" cy="201.3" r="0.6"/><path class="cls-11" d="M299.56,217.44a.6.6,0,1,1-.6-.6h0A.58.58,0,0,1,299.56,217.44Z" transform="translate(-9.43 -22.74)"/><path class="cls-11" d="M310.16,217.44a.6.6,0,1,1-.6-.6h0A.65.65,0,0,1,310.16,217.44Z" transform="translate(-9.43 -22.74)"/><path class="cls-11" d="M320.76,217.44a.6.6,0,1,1-.6-.6h0A.65.65,0,0,1,320.76,217.44Z" transform="translate(-9.43 -22.74)"/><path class="cls-11" d="M331.26,217.44a.6.6,0,1,1-.6-.6h0A.65.65,0,0,1,331.26,217.44Z" transform="translate(-9.43 -22.74)"/><path class="cls-11" d="M341.76,217.44a.6.6,0,1,1-.6-.6h0A.65.65,0,0,1,341.76,217.44Z" transform="translate(-9.43 -22.74)"/><path class="cls-11" d="M352.36,217.44a.65.65,0,0,1-.6.6.58.58,0,0,1-.6-.6.65.65,0,0,1,.6-.6h0A.65.65,0,0,1,352.36,217.44Z" transform="translate(-9.43 -22.74)"/><path class="cls-11" d="M363,217.44a.65.65,0,0,1-.6.6.58.58,0,0,1-.6-.6.65.65,0,0,1,.6-.6h0A.65.65,0,0,1,363,217.44Z" transform="translate(-9.43 -22.74)"/><path class="cls-11" d="M294.36,236.94a.65.65,0,0,1-.6.6.75.75,0,0,1-.7-.6c-.1-.3.3-.6.6-.6h0a.67.67,0,0,1,.7.6Z" transform="translate(-9.43 -22.74)"/><path class="cls-11" d="M304.86,236.94a.65.65,0,0,1-.6.6.75.75,0,0,1-.7-.6.65.65,0,0,1,.6-.6h0A.67.67,0,0,1,304.86,236.94Z" transform="translate(-9.43 -22.74)"/><circle class="cls-11" cx="305.33" cy="214.2" r="0.6"/><path class="cls-11" d="M326,236.94a.65.65,0,0,1-.6.6.75.75,0,0,1-.7-.6.65.65,0,0,1,.6-.6h0c.5,0,.7.3.7.6Z" transform="translate(-9.43 -22.74)"/><path class="cls-11" d="M336,236.94c0,.3-.2.6-.3.6s-.4-.3-.4-.6.2-.6.3-.6h0c.2,0,.4.3.4.6Z" transform="translate(-9.43 -22.74)"/><path class="cls-11" d="M347.16,236.94a.65.65,0,0,1-.6.6.58.58,0,0,1-.6-.6.6.6,0,0,1,1.2,0Z" transform="translate(-9.43 -22.74)"/><path class="cls-11" d="M357.66,236.94a.65.65,0,0,1-.6.6.75.75,0,0,1-.7-.6.65.65,0,0,1,.6-.6h0A.67.67,0,0,1,357.66,236.94Z" transform="translate(-9.43 -22.74)"/><circle class="cls-11" cx="358.13" cy="214.2" r="0.6"/><path class="cls-11" d="M299.56,230.34a.6.6,0,1,1-.6-.6h0A.58.58,0,0,1,299.56,230.34Z" transform="translate(-9.43 -22.74)"/><path class="cls-11" d="M310.16,230.34a.6.6,0,1,1-.6-.6h0A.65.65,0,0,1,310.16,230.34Z" transform="translate(-9.43 -22.74)"/><path class="cls-11" d="M320.76,230.34a.65.65,0,0,1-.6.6.58.58,0,0,1-.6-.6.65.65,0,0,1,.6-.6h0A.65.65,0,0,1,320.76,230.34Z" transform="translate(-9.43 -22.74)"/><path class="cls-11" d="M331.26,230.34a.6.6,0,1,1-.6-.6h0A.65.65,0,0,1,331.26,230.34Z" transform="translate(-9.43 -22.74)"/><path class="cls-11" d="M341.76,230.34a.6.6,0,1,1-.6-.6h0A.65.65,0,0,1,341.76,230.34Z" transform="translate(-9.43 -22.74)"/><path class="cls-11" d="M352.36,230.34a.65.65,0,0,1-.6.6.58.58,0,0,1-.6-.6.65.65,0,0,1,.6-.6h0A.65.65,0,0,1,352.36,230.34Z" transform="translate(-9.43 -22.74)"/><path class="cls-11" d="M363,230.34a.65.65,0,0,1-.6.6.58.58,0,0,1-.6-.6.65.65,0,0,1,.6-.6h0A.65.65,0,0,1,363,230.34Z" transform="translate(-9.43 -22.74)"/><path class="cls-11" d="M373.46,230.34a.65.65,0,0,1-.6.6.58.58,0,0,1-.6-.6.65.65,0,0,1,.6-.6h0A.58.58,0,0,1,373.46,230.34Z" transform="translate(-9.43 -22.74)"/><path class="cls-11" d="M294.36,249.94a.65.65,0,0,1-.6.6.58.58,0,0,1-.6-.6.65.65,0,0,1,.6-.6h0c.3-.1.6.2.6.6Z" transform="translate(-9.43 -22.74)"/><path class="cls-11" d="M304.86,249.94a.6.6,0,1,1-.6-.6h0A.58.58,0,0,1,304.86,249.94Z" transform="translate(-9.43 -22.74)"/><circle class="cls-11" cx="305.33" cy="227.2" r="0.6"/><path class="cls-11" d="M326,249.94a.65.65,0,0,1-.6.6.58.58,0,0,1-.6-.6.65.65,0,0,1,.6-.6h0a.53.53,0,0,1,.6.6Z" transform="translate(-9.43 -22.74)"/><path class="cls-11" d="M336.56,249.94a.6.6,0,1,1-.6-.6h0c.3-.1.6.2.6.6Z" transform="translate(-9.43 -22.74)"/><path class="cls-11" d="M347.16,249.94a.65.65,0,0,1-.6.6c-.4,0-.6-.3-.6-.7a.56.56,0,0,1,.6-.5.58.58,0,0,1,.6.6Z" transform="translate(-9.43 -22.74)"/><path class="cls-11" d="M357.66,249.94a.65.65,0,0,1-.6.6.58.58,0,0,1-.6-.6.65.65,0,0,1,.6-.6h0A.58.58,0,0,1,357.66,249.94Z" transform="translate(-9.43 -22.74)"/><circle class="cls-11" cx="358.13" cy="227.2" r="0.6"/><path class="cls-11" d="M299.56,243.24a.65.65,0,0,1-.6.6.75.75,0,0,1-.7-.6.65.65,0,0,1,.6-.6h0c.5,0,.7.3.7.6Z" transform="translate(-9.43 -22.74)"/><path class="cls-11" d="M310.16,243.24a.65.65,0,0,1-.6.6.75.75,0,0,1-.7-.6.65.65,0,0,1,.6-.6h0A.67.67,0,0,1,310.16,243.24Z" transform="translate(-9.43 -22.74)"/><path class="cls-11" d="M320.76,243.24a.65.65,0,0,1-.6.6.75.75,0,0,1-.7-.6.65.65,0,0,1,.6-.6h0a.67.67,0,0,1,.7.6Z" transform="translate(-9.43 -22.74)"/><path class="cls-11" d="M331.26,243.24a.65.65,0,0,1-.6.6.75.75,0,0,1-.7-.6.65.65,0,0,1,.6-.6h0a.67.67,0,0,1,.7.6Z" transform="translate(-9.43 -22.74)"/><path class="cls-11" d="M341.76,243.24a.65.65,0,0,1-.6.6.75.75,0,0,1-.7-.6.65.65,0,0,1,.6-.6h0a.67.67,0,0,1,.7.6Z" transform="translate(-9.43 -22.74)"/><path class="cls-11" d="M352.36,243.24a.65.65,0,0,1-.6.6.75.75,0,0,1-.7-.6.65.65,0,0,1,.6-.6h0A.67.67,0,0,1,352.36,243.24Z" transform="translate(-9.43 -22.74)"/><path class="cls-11" d="M363,243.24a.65.65,0,0,1-.6.6.75.75,0,0,1-.7-.6.65.65,0,0,1,.6-.6h0a.67.67,0,0,1,.7.6Z" transform="translate(-9.43 -22.74)"/><path class="cls-11" d="M373.46,243.24a.65.65,0,0,1-.6.6.75.75,0,0,1-.7-.6.65.65,0,0,1,.6-.6h0c.5,0,.7.3.7.6Z" transform="translate(-9.43 -22.74)"/><circle class="cls-11" cx="289.53" cy="233.5" r="0.6"/><path class="cls-11" d="M310.16,256.24a.65.65,0,0,1-.6.6.75.75,0,0,1-.7-.6.65.65,0,0,1,.6-.6h0A.56.56,0,0,1,310.16,256.24Z" transform="translate(-9.43 -22.74)"/><path class="cls-11" d="M320.76,256.24a.65.65,0,0,1-.6.6.75.75,0,0,1-.7-.6.65.65,0,0,1,.6-.6h0a.56.56,0,0,1,.7.6Z" transform="translate(-9.43 -22.74)"/><path class="cls-11" d="M331.26,256.24a.65.65,0,0,1-.6.6.75.75,0,0,1-.7-.6.65.65,0,0,1,.6-.6h0a.56.56,0,0,1,.7.6Z" transform="translate(-9.43 -22.74)"/><circle class="cls-11" cx="331.73" cy="233.5" r="0.6"/><circle class="cls-11" cx="342.33" cy="233.5" r="0.6"/><path class="cls-11" d="M363,256.24a.65.65,0,0,1-.6.6.75.75,0,0,1-.7-.6.65.65,0,0,1,.6-.6h0a.56.56,0,0,1,.7.6Z" transform="translate(-9.43 -22.74)"/><path class="cls-11" d="M372.76,255.64c-.1.1-.2.1-.3.2C372.46,255.64,372.56,255.64,372.76,255.64Z" transform="translate(-9.43 -22.74)"/></g><ellipse class="cls-13" cx="306.73" cy="181.9" rx="5.1" ry="4.9"/><ellipse class="cls-13" cx="340.93" cy="181.9" rx="5.1" ry="4.9"/><ellipse class="cls-10" cx="306.73" cy="181.9" rx="3.5" ry="3.3"/><ellipse class="cls-10" cx="340.93" cy="181.9" rx="3.5" ry="3.3"/><path class="cls-6" d="M350.36,205.34a1.92,1.92,0,0,1-2-1.9h0a96.48,96.48,0,0,0-2.9-17.6c-2-7-5.6-15.3-11.8-15.3-11.4,0-15.6,27.3-15.6,32.9a2,2,0,0,1-2,1.9,1.92,1.92,0,0,1-2-1.9c0-.4,2.4-36.6,19.5-36.6,16.6,0,18.6,36.3,18.6,36.6a1.7,1.7,0,0,1-1.8,1.9Z" transform="translate(-9.43 -22.74)"/><rect class="cls-3" x="261.83" y="278.2" width="22.1" height="21"/><path class="cls-14" d="M287.86,319.54h-11.1c-3,0-2.5-2.3-1.8-4.7s1.8-6,4.4-6h5.7c2.7,0,3.7,3.6,4.4,6S290.76,319.54,287.86,319.54Z" transform="translate(-9.43 -22.74)"/><g class="cls-12"><path class="cls-11" d="M279.16,308.94a.1.1,0,1,1-.1-.1Z" transform="translate(-9.43 -22.74)"/><path class="cls-11" d="M281,308.94a.1.1,0,0,1-.1.1c-.1,0-.1,0-.1-.1a.1.1,0,0,1,.2,0Z" transform="translate(-9.43 -22.74)"/><path class="cls-11" d="M282.86,308.94a.1.1,0,0,1-.1.1c-.1,0-.1,0-.1-.1a.1.1,0,0,1,.2,0Z" transform="translate(-9.43 -22.74)"/><path class="cls-11" d="M284.76,308.94a.1.1,0,0,1-.1.1c-.1,0-.1,0-.1-.1a.1.1,0,0,1,.2,0Z" transform="translate(-9.43 -22.74)"/><path class="cls-11" d="M277.26,311.24a.1.1,0,0,1-.1.1c-.1,0-.1,0-.1-.1a.1.1,0,0,1,.1-.1Z" transform="translate(-9.43 -22.74)"/><path class="cls-11" d="M279.16,311.24a.1.1,0,0,1-.1.1c-.1,0-.1,0-.1-.1a.1.1,0,0,1,.1-.1Z" transform="translate(-9.43 -22.74)"/><path class="cls-11" d="M281,311.24c0,.1,0,.1-.1.1s-.1,0-.1-.1h0a.1.1,0,1,1,.2,0Z" transform="translate(-9.43 -22.74)"/><path class="cls-11" d="M282.86,311.24c0,.1,0,.1-.1.1s-.1,0-.1-.1h0a.1.1,0,1,1,.2,0Z" transform="translate(-9.43 -22.74)"/><path class="cls-11" d="M284.76,311.24a.1.1,0,0,1-.1.1c-.1,0-.1,0-.1-.1a.1.1,0,0,1,.2,0Z" transform="translate(-9.43 -22.74)"/><path class="cls-11" d="M286.66,311.24a.1.1,0,0,1-.1.1c-.1,0-.1,0-.1-.1a.1.1,0,0,1,.1-.1Z" transform="translate(-9.43 -22.74)"/><circle class="cls-11" cx="268.63" cy="287.4" r="0.1"/><circle class="cls-11" cx="270.53" cy="287.4" r="0.1"/><circle class="cls-11" cx="272.43" cy="287.4" r="0.1"/><path class="cls-11" d="M283.86,310.14a.1.1,0,0,1-.1.1c-.1,0-.1,0-.1-.1a.1.1,0,0,1,.2,0Z" transform="translate(-9.43 -22.74)"/><path class="cls-11" d="M285.66,310.14a.1.1,0,0,1-.1.1c-.1,0-.1,0-.1-.1a.1.1,0,0,1,.1-.1C285.66,310,285.66,310,285.66,310.14Z" transform="translate(-9.43 -22.74)"/><path class="cls-11" d="M287.56,310.14h0c-.2.1-.2,0-.2-.1a.1.1,0,0,1,.1-.1A.35.35,0,0,0,287.56,310.14Z" transform="translate(-9.43 -22.74)"/><path class="cls-11" d="M277.26,313.54a.1.1,0,0,1-.1.1c-.1,0-.1,0-.1-.1a.1.1,0,0,1,.1-.1Z" transform="translate(-9.43 -22.74)"/><path class="cls-11" d="M279.16,313.54a.1.1,0,0,1-.1.1c-.1,0-.1,0-.1-.1a.1.1,0,0,1,.1-.1Z" transform="translate(-9.43 -22.74)"/><path class="cls-11" d="M281,313.54a.1.1,0,0,1-.1.1c-.1,0-.1,0-.1-.1a.1.1,0,0,1,.1-.1h0A.1.1,0,0,1,281,313.54Z" transform="translate(-9.43 -22.74)"/><path class="cls-11" d="M282.86,313.54a.1.1,0,0,1-.1.1c-.1,0-.1,0-.1-.1a.1.1,0,0,1,.1-.1h0A.1.1,0,0,1,282.86,313.54Z" transform="translate(-9.43 -22.74)"/><path class="cls-11" d="M284.76,313.54a.1.1,0,0,1-.1.1c-.1,0-.1,0-.1-.1a.1.1,0,0,1,.2,0Z" transform="translate(-9.43 -22.74)"/><path class="cls-11" d="M286.66,313.54a.1.1,0,0,1-.1.1c-.1,0-.1,0-.1-.1a.1.1,0,0,1,.1-.1Z" transform="translate(-9.43 -22.74)"/><path class="cls-11" d="M288.56,313.54a.1.1,0,0,1-.1.1c-.1,0-.1,0-.1-.1s0-.1.1-.1h0Z" transform="translate(-9.43 -22.74)"/><circle class="cls-11" cx="266.73" cy="289.7" r="0.1"/><circle class="cls-11" cx="268.63" cy="289.7" r="0.1"/><circle class="cls-11" cx="270.53" cy="289.7" r="0.1"/><circle class="cls-11" cx="272.43" cy="289.7" r="0.1"/><path class="cls-11" d="M283.86,312.44a.1.1,0,0,1-.1.1c-.1,0-.1,0-.1-.1a.1.1,0,1,1,.2,0Z" transform="translate(-9.43 -22.74)"/><path class="cls-11" d="M285.66,312.44a.1.1,0,0,1-.1.1c-.1,0-.1,0-.1-.1a.1.1,0,0,1,.1-.1C285.66,312.34,285.66,312.34,285.66,312.44Z" transform="translate(-9.43 -22.74)"/><path class="cls-11" d="M287.56,312.44a.1.1,0,0,1-.1.1c-.1,0-.1,0-.1-.1a.1.1,0,0,1,.1-.1h0C287.56,312.34,287.56,312.34,287.56,312.44Z" transform="translate(-9.43 -22.74)"/><path class="cls-11" d="M275.36,315.94a.1.1,0,0,1-.1.1c-.1,0-.1,0-.1-.1s0-.1.1-.1h0C275.36,315.74,275.36,315.84,275.36,315.94Z" transform="translate(-9.43 -22.74)"/><path class="cls-11" d="M277.26,315.94a.1.1,0,0,1-.2,0c0-.1,0-.1.1-.1s.1,0,.1.1Z" transform="translate(-9.43 -22.74)"/><path class="cls-11" d="M279.16,315.94a.1.1,0,0,1-.2,0c0-.1,0-.1.1-.1s.1,0,.1.1Z" transform="translate(-9.43 -22.74)"/><path class="cls-11" d="M281,315.94a.1.1,0,0,1-.1.1c-.1,0-.1,0-.1-.1s0-.1.1-.1.1,0,.1.1Z" transform="translate(-9.43 -22.74)"/><path class="cls-11" d="M282.86,315.94a.1.1,0,0,1-.1.1c-.1,0-.1,0-.1-.1s0-.1.1-.1.1,0,.1.1Z" transform="translate(-9.43 -22.74)"/><path class="cls-11" d="M284.76,315.94a.1.1,0,0,1-.1.1c-.1,0-.1,0-.1-.1s0-.1.1-.1h0C284.76,315.74,284.76,315.84,284.76,315.94Z" transform="translate(-9.43 -22.74)"/><path class="cls-11" d="M286.66,315.94a.1.1,0,0,1-.1.1c-.1,0-.1,0-.1-.1s0-.1.1-.1h0C286.56,315.74,286.66,315.84,286.66,315.94Z" transform="translate(-9.43 -22.74)"/><path class="cls-11" d="M288.56,315.94a.1.1,0,0,1-.1.1c-.1,0-.1,0-.1-.1a.1.1,0,0,1,.1-.1h0C288.46,315.74,288.56,315.84,288.56,315.94Z" transform="translate(-9.43 -22.74)"/><circle class="cls-11" cx="266.73" cy="292" r="0.1"/><circle class="cls-11" cx="268.63" cy="292" r="0.1"/><circle class="cls-11" cx="270.53" cy="292" r="0.1"/><circle class="cls-11" cx="272.43" cy="292" r="0.1"/><path class="cls-11" d="M283.86,314.74c0,.1,0,.1-.1.1h0a.1.1,0,1,1,.1-.1Z" transform="translate(-9.43 -22.74)"/><path class="cls-11" d="M285.66,314.74c0,.1,0,.1-.1.1h0a.1.1,0,1,1,0-.2C285.66,314.64,285.66,314.64,285.66,314.74Z" transform="translate(-9.43 -22.74)"/><path class="cls-11" d="M287.56,314.74c0,.1,0,.1-.1.1s-.1,0-.1-.1h0c0-.1,0-.1.1-.1s.1,0,.1.1Z" transform="translate(-9.43 -22.74)"/><path class="cls-11" d="M289.46,314.74c0,.1,0,.1-.1.1s-.1,0-.1-.1h0a.1.1,0,0,1,.1-.1C289.46,314.64,289.46,314.64,289.46,314.74Z" transform="translate(-9.43 -22.74)"/><circle class="cls-11" cx="265.83" cy="295.5" r="0.1"/><circle class="cls-11" cx="267.73" cy="295.5" r="0.1"/><path class="cls-11" d="M279.16,318.24a.1.1,0,0,1-.1.1c-.1,0-.1,0-.1-.1a.1.1,0,0,1,.2,0Z" transform="translate(-9.43 -22.74)"/><path class="cls-11" d="M281,318.24a.1.1,0,0,1-.1.1c-.1,0-.1,0-.1-.1a.1.1,0,0,1,.1-.1h0C281,318.14,281,318.14,281,318.24Z" transform="translate(-9.43 -22.74)"/><circle class="cls-11" cx="273.33" cy="295.5" r="0.1"/><circle class="cls-11" cx="275.23" cy="295.5" r="0.1"/><circle class="cls-11" cx="277.13" cy="295.5" r="0.1"/><circle class="cls-11" cx="279.03" cy="295.5" r="0.1"/><circle class="cls-11" cx="266.73" cy="294.3" r="0.1"/><circle class="cls-11" cx="268.63" cy="294.3" r="0.1"/><circle class="cls-11" cx="270.53" cy="294.3" r="0.1"/><circle class="cls-11" cx="272.43" cy="294.3" r="0.1"/><path class="cls-11" d="M283.86,317a.1.1,0,0,1-.1.1c-.1,0-.1,0-.1-.1a.1.1,0,1,1,.2,0Z" transform="translate(-9.43 -22.74)"/><path class="cls-11" d="M285.66,317a.1.1,0,0,1-.1.1c-.1,0-.1,0-.1-.1a.1.1,0,0,1,.1-.1C285.66,316.94,285.66,316.94,285.66,317Z" transform="translate(-9.43 -22.74)"/><path class="cls-11" d="M287.56,317a.1.1,0,0,1-.1.1c-.1,0-.1,0-.1-.1a.1.1,0,0,1,.1-.1h0C287.56,316.94,287.56,316.94,287.56,317Z" transform="translate(-9.43 -22.74)"/><path class="cls-11" d="M289.46,317a.1.1,0,0,1-.1.1c-.1,0-.1,0-.1-.1a.1.1,0,0,1,.1-.1h0C289.46,316.94,289.46,316.94,289.46,317Z" transform="translate(-9.43 -22.74)"/><circle class="cls-11" cx="266.73" cy="296.6" r="0.1"/><circle class="cls-11" cx="268.63" cy="296.6" r="0.1"/><circle class="cls-11" cx="270.53" cy="296.6" r="0.1"/><circle class="cls-11" cx="272.43" cy="296.6" r="0.1"/><path class="cls-11" d="M283.86,319.34a.1.1,0,1,1-.1-.1A.1.1,0,0,1,283.86,319.34Z" transform="translate(-9.43 -22.74)"/><path class="cls-11" d="M285.66,319.34a.1.1,0,1,1-.1-.1C285.66,319.24,285.66,319.24,285.66,319.34Z" transform="translate(-9.43 -22.74)"/><path class="cls-11" d="M287.56,319.34c0,.1,0,.1-.1.1s-.1,0-.1-.1h0c0-.1,0-.1.1-.1s.1,0,.1.1Z" transform="translate(-9.43 -22.74)"/><path class="cls-11" d="M289.36,319.24Z" transform="translate(-9.43 -22.74)"/></g><path class="cls-13" d="M280.16,310.14a.9.9,0,1,1-.9-.9A.9.9,0,0,1,280.16,310.14Z" transform="translate(-9.43 -22.74)"/><path class="cls-13" d="M286.26,310.14a.9.9,0,1,1-.9-.9A.9.9,0,0,1,286.26,310.14Z" transform="translate(-9.43 -22.74)"/><path class="cls-10" d="M279.86,310.14a.6.6,0,1,1-.6-.6A.58.58,0,0,1,279.86,310.14Z" transform="translate(-9.43 -22.74)"/><circle class="cls-10" cx="275.93" cy="287.4" r="0.6"/><path class="cls-14" d="M285.36,310.24a.27.27,0,0,1-.3-.3h0a15.44,15.44,0,0,0-.5-3.1c-.4-1.2-1-2.7-2.1-2.7-2,0-2.8,4.9-2.8,5.9,0,.2-.2.3-.4.3a.27.27,0,0,1-.3-.3h0c0-.1.4-6.5,3.5-6.5s3.3,6.5,3.3,6.5A.52.52,0,0,1,285.36,310.24Z" transform="translate(-9.43 -22.74)"/><rect class="cls-3" x="289.13" y="278.2" width="22.1" height="21"/><path class="cls-10" d="M321.16,322.44h-23v-22h23Zm-22.1-.9h21.2v-20.2h-21.2Z" transform="translate(-9.43 -22.74)"/><path class="cls-6" d="M315.16,319.54h-11c-3,0-2.5-2.3-1.8-4.7s1.8-6,4.4-6h5.7c2.7,0,3.7,3.6,4.4,6S318.16,319.54,315.16,319.54Z" transform="translate(-9.43 -22.74)"/><g class="cls-12"><path class="cls-11" d="M306.46,308.94a.1.1,0,0,1-.1.1c-.1,0-.1,0-.1-.1a.1.1,0,0,1,.1-.1Z" transform="translate(-9.43 -22.74)"/><path class="cls-11" d="M308.36,308.94a.1.1,0,0,1-.1.1c-.1,0-.1,0-.1-.1a.1.1,0,0,1,.1-.1Z" transform="translate(-9.43 -22.74)"/><path class="cls-11" d="M310.16,308.94a.1.1,0,0,1-.1.1c-.1,0-.1,0-.1-.1a.1.1,0,0,1,.2,0Z" transform="translate(-9.43 -22.74)"/><path class="cls-11" d="M312.06,308.94a.1.1,0,0,1-.1.1c-.1,0-.1,0-.1-.1a.1.1,0,0,1,.1-.1h0A.1.1,0,0,1,312.06,308.94Z" transform="translate(-9.43 -22.74)"/><path class="cls-11" d="M304.56,311.24a.1.1,0,0,1-.1.1c-.1,0-.1,0-.1-.1s0-.1.1-.1l.1.1Z" transform="translate(-9.43 -22.74)"/><path class="cls-11" d="M306.46,311.24a.1.1,0,0,1-.1.1c-.1,0-.1,0-.1-.1s0-.1.1-.1l.1.1Z" transform="translate(-9.43 -22.74)"/><path class="cls-11" d="M308.36,311.24a.1.1,0,0,1-.1.1c-.1,0-.1,0-.1-.1s0-.1.1-.1l.1.1Z" transform="translate(-9.43 -22.74)"/><path class="cls-11" d="M310.16,311.24a.1.1,0,0,1-.1.1c-.1,0-.1,0-.1-.1a.1.1,0,0,1,.2,0Z" transform="translate(-9.43 -22.74)"/><path class="cls-11" d="M312.06,311.24a.1.1,0,0,1-.1.1c-.1,0-.1,0-.1-.1h0a.1.1,0,0,1,.2,0Z" transform="translate(-9.43 -22.74)"/><path class="cls-11" d="M314,311.24a.1.1,0,0,1-.1.1c-.1,0-.1,0-.1-.1a.1.1,0,1,1,.2,0Z" transform="translate(-9.43 -22.74)"/><path class="cls-11" d="M305.46,310.14a.1.1,0,0,1-.1.1c-.1,0-.1,0-.1-.1a.1.1,0,0,1,.1-.1C305.46,310,305.46,310,305.46,310.14Z" transform="translate(-9.43 -22.74)"/><circle class="cls-11" cx="297.83" cy="287.4" r="0.1"/><circle class="cls-11" cx="299.73" cy="287.4" r="0.1"/><circle class="cls-11" cx="301.63" cy="287.4" r="0.1"/><circle class="cls-11" cx="303.53" cy="287.4" r="0.1"/><path class="cls-11" d="M314.86,310.14h0c-.2.1-.2,0-.2-.1a.1.1,0,0,1,.1-.1A.35.35,0,0,0,314.86,310.14Z" transform="translate(-9.43 -22.74)"/><path class="cls-11" d="M304.56,313.54a.1.1,0,0,1-.1.1c-.1,0-.1,0-.1-.1a.1.1,0,0,1,.1-.1h0Z" transform="translate(-9.43 -22.74)"/><path class="cls-11" d="M306.46,313.54a.1.1,0,0,1-.1.1c-.1,0-.1,0-.1-.1a.1.1,0,0,1,.1-.1h0Z" transform="translate(-9.43 -22.74)"/><path class="cls-11" d="M308.36,313.54a.1.1,0,1,1-.1-.1h0Z" transform="translate(-9.43 -22.74)"/><path class="cls-11" d="M310.16,313.54a.1.1,0,0,1-.1.1c-.1,0-.1,0-.1-.1a.1.1,0,0,1,.2,0Z" transform="translate(-9.43 -22.74)"/><path class="cls-11" d="M312.06,313.54a.1.1,0,0,1-.1.1c-.1,0-.1,0-.1-.1s0-.1.1-.1h0A.1.1,0,0,1,312.06,313.54Z" transform="translate(-9.43 -22.74)"/><path class="cls-11" d="M314,313.54a.1.1,0,0,1-.1.1c-.1,0-.1,0-.1-.1s0-.1.1-.1h0A.1.1,0,0,1,314,313.54Z" transform="translate(-9.43 -22.74)"/><path class="cls-11" d="M315.86,313.54a.1.1,0,0,1-.1.1c-.1,0-.1,0-.1-.1s0-.1.1-.1h0Z" transform="translate(-9.43 -22.74)"/><path class="cls-11" d="M303.66,312.44a.1.1,0,0,1-.1.1c-.1,0-.1,0-.1-.1s0-.1.1-.1h0A.1.1,0,0,1,303.66,312.44Z" transform="translate(-9.43 -22.74)"/><path class="cls-11" d="M305.46,312.44a.1.1,0,0,1-.1.1c-.1,0-.1,0-.1-.1a.1.1,0,0,1,.1-.1C305.46,312.34,305.46,312.34,305.46,312.44Z" transform="translate(-9.43 -22.74)"/><circle class="cls-11" cx="297.83" cy="289.7" r="0.1"/><circle class="cls-11" cx="299.73" cy="289.7" r="0.1"/><circle class="cls-11" cx="301.63" cy="289.7" r="0.1"/><circle class="cls-11" cx="303.53" cy="289.7" r="0.1"/><path class="cls-11" d="M314.86,312.44a.1.1,0,0,1-.1.1c-.1,0-.1,0-.1-.1a.1.1,0,0,1,.1-.1C314.86,312.34,314.86,312.34,314.86,312.44Z" transform="translate(-9.43 -22.74)"/><path class="cls-11" d="M302.66,315.94a.1.1,0,0,1-.2,0c0-.1,0-.1.1-.1s.1,0,.1.1Z" transform="translate(-9.43 -22.74)"/><path class="cls-11" d="M304.56,315.94c0,.1,0,.1-.1.1s-.1,0-.1-.1h0c0-.1,0-.1.1-.1s.1,0,.1.1Z" transform="translate(-9.43 -22.74)"/><path class="cls-11" d="M306.46,315.94c0,.1,0,.1-.1.1s-.1,0-.1-.1h0c0-.1,0-.1.1-.1s.1,0,.1.1Z" transform="translate(-9.43 -22.74)"/><path class="cls-11" d="M308.36,315.94c0,.1,0,.1-.1.1s-.1,0-.1-.1h0c0-.1,0-.1.1-.1s.1,0,.1.1Z" transform="translate(-9.43 -22.74)"/><path class="cls-11" d="M310.16,315.94a.1.1,0,0,1-.1.1c-.1,0-.1,0-.1-.1s0-.1.1-.1h0C310.16,315.74,310.16,315.84,310.16,315.94Z" transform="translate(-9.43 -22.74)"/><path class="cls-11" d="M312.06,315.94a.1.1,0,0,1-.1.1c-.1,0-.1,0-.1-.1a.1.1,0,0,1,.1-.1h0C312.06,315.74,312.06,315.84,312.06,315.94Z" transform="translate(-9.43 -22.74)"/><path class="cls-11" d="M314,315.94a.1.1,0,1,1-.2,0c0-.1,0-.1.1-.1s.1,0,.1.1Z" transform="translate(-9.43 -22.74)"/><path class="cls-11" d="M315.86,315.94a.1.1,0,1,1-.2,0c0-.1,0-.1.1-.1s.1,0,.1.1Z" transform="translate(-9.43 -22.74)"/><path class="cls-11" d="M303.66,314.74c0,.1,0,.1-.1.1s-.1,0-.1-.1h0a.1.1,0,0,1,.2,0Z" transform="translate(-9.43 -22.74)"/><path class="cls-11" d="M305.46,314.74c0,.1,0,.1-.1.1s-.1,0-.1-.1h0a.1.1,0,0,1,.1-.1C305.46,314.64,305.46,314.64,305.46,314.74Z" transform="translate(-9.43 -22.74)"/><circle class="cls-11" cx="297.83" cy="292" r="0.1"/><circle class="cls-11" cx="299.73" cy="292" r="0.1"/><circle class="cls-11" cx="301.63" cy="292" r="0.1"/><circle class="cls-11" cx="303.53" cy="292" r="0.1"/><path class="cls-11" d="M314.86,314.74c0,.1,0,.1-.1.1s-.1,0-.1-.1h0a.1.1,0,0,1,.1-.1C314.86,314.64,314.86,314.64,314.86,314.74Z" transform="translate(-9.43 -22.74)"/><circle class="cls-11" cx="307.23" cy="292" r="0.1"/><circle class="cls-11" cx="293.13" cy="295.5" r="0.1"/><circle class="cls-11" cx="295.03" cy="295.5" r="0.1"/><circle class="cls-11" cx="296.93" cy="295.5" r="0.1"/><path class="cls-11" d="M308.36,318.24a.1.1,0,1,1-.1-.1h0A.1.1,0,0,1,308.36,318.24Z" transform="translate(-9.43 -22.74)"/><path class="cls-11" d="M310.16,318.24a.1.1,0,0,1-.1.1c-.1,0-.1,0-.1-.1a.1.1,0,0,1,.1-.1C310.16,318.14,310.16,318.14,310.16,318.24Z" transform="translate(-9.43 -22.74)"/><path class="cls-11" d="M312.06,318.24a.1.1,0,0,1-.1.1c-.1,0-.1,0-.1-.1s0-.1.1-.1h0C312.06,318.14,312.06,318.14,312.06,318.24Z" transform="translate(-9.43 -22.74)"/><path class="cls-11" d="M314,318.24a.1.1,0,0,1-.1.1c-.1,0-.1,0-.1-.1a.1.1,0,0,1,.1-.1C314,318.14,314,318.14,314,318.24Z" transform="translate(-9.43 -22.74)"/><path class="cls-11" d="M315.86,318.24a.1.1,0,0,1-.1.1c-.1,0-.1,0-.1-.1a.1.1,0,1,1,.2,0Z" transform="translate(-9.43 -22.74)"/><path class="cls-11" d="M303.66,317a.1.1,0,0,1-.1.1c-.1,0-.1,0-.1-.1s0-.1.1-.1h0A.1.1,0,0,1,303.66,317Z" transform="translate(-9.43 -22.74)"/><path class="cls-11" d="M305.46,317a.1.1,0,0,1-.1.1c-.1,0-.1,0-.1-.1a.1.1,0,0,1,.1-.1C305.46,316.94,305.46,316.94,305.46,317Z" transform="translate(-9.43 -22.74)"/><circle class="cls-11" cx="297.83" cy="294.3" r="0.1"/><circle class="cls-11" cx="299.73" cy="294.3" r="0.1"/><circle class="cls-11" cx="301.63" cy="294.3" r="0.1"/><circle class="cls-11" cx="303.53" cy="294.3" r="0.1"/><path class="cls-11" d="M314.86,317a.1.1,0,0,1-.1.1c-.1,0-.1,0-.1-.1a.1.1,0,0,1,.1-.1C314.86,316.94,314.86,316.94,314.86,317Z" transform="translate(-9.43 -22.74)"/><circle class="cls-11" cx="307.23" cy="294.3" r="0.1"/><path class="cls-11" d="M303.66,319.34a.1.1,0,0,1-.1.1c-.1,0-.1,0-.1-.1a.1.1,0,0,1,.2,0Z" transform="translate(-9.43 -22.74)"/><path class="cls-11" d="M305.46,319.34a.1.1,0,0,1-.1.1c-.1,0-.1,0-.1-.1a.1.1,0,0,1,.1-.1C305.46,319.24,305.46,319.24,305.46,319.34Z" transform="translate(-9.43 -22.74)"/><circle class="cls-11" cx="297.83" cy="296.6" r="0.1"/><circle class="cls-11" cx="299.73" cy="296.6" r="0.1"/><circle class="cls-11" cx="301.63" cy="296.6" r="0.1"/><circle class="cls-11" cx="303.53" cy="296.6" r="0.1"/><path class="cls-11" d="M314.86,319.34a.1.1,0,0,1-.1.1c-.1,0-.1,0-.1-.1a.1.1,0,0,1,.1-.1C314.86,319.24,314.86,319.24,314.86,319.34Z" transform="translate(-9.43 -22.74)"/><path class="cls-11" d="M316.66,319.24Z" transform="translate(-9.43 -22.74)"/></g><path class="cls-13" d="M307.46,310.14a.9.9,0,1,1-.9-.9A.9.9,0,0,1,307.46,310.14Z" transform="translate(-9.43 -22.74)"/><path class="cls-13" d="M313.56,310.14a.9.9,0,1,1-.9-.9A.9.9,0,0,1,313.56,310.14Z" transform="translate(-9.43 -22.74)"/><circle class="cls-10" cx="297.13" cy="287.4" r="0.6"/><circle class="cls-10" cx="303.23" cy="287.4" r="0.6"/><path class="cls-6" d="M312.66,310.24c-.2,0-.3-.1-.4-.3a15.44,15.44,0,0,0-.5-3.1c-.4-1.2-1-2.7-2.1-2.7-2,0-2.8,4.9-2.8,5.9,0,.2-.2.3-.4.3a.32.32,0,0,1-.3-.3c0-.1.4-6.5,3.5-6.5S313,310,313,310,312.86,310.24,312.66,310.24Z" transform="translate(-9.43 -22.74)"/><rect class="cls-3" x="316.43" y="278.2" width="22.1" height="21"/><path class="cls-5" d="M342.46,319.54h-11.1c-3,0-2.5-2.3-1.8-4.7s1.8-6,4.4-6h5.7c2.7,0,3.7,3.6,4.4,6C345,317.24,345.46,319.54,342.46,319.54Z" transform="translate(-9.43 -22.74)"/><g class="cls-12"><path class="cls-11" d="M333.76,308.94a.1.1,0,0,1-.1.1c-.1,0-.1,0-.1-.1a.1.1,0,0,1,.1-.1Z" transform="translate(-9.43 -22.74)"/><path class="cls-11" d="M335.66,308.94a.1.1,0,0,1-.1.1c-.1,0-.1,0-.1-.1a.1.1,0,0,1,.1-.1Z" transform="translate(-9.43 -22.74)"/><path class="cls-11" d="M337.56,308.94a.1.1,0,1,1-.1-.1Z" transform="translate(-9.43 -22.74)"/><path class="cls-11" d="M339.36,308.94a.1.1,0,1,1-.1-.1A.1.1,0,0,1,339.36,308.94Z" transform="translate(-9.43 -22.74)"/><path class="cls-11" d="M331.86,311.24c0,.1,0,.1-.1.1s-.1,0-.1-.1h0a.1.1,0,1,1,.2,0Z" transform="translate(-9.43 -22.74)"/><path class="cls-11" d="M333.76,311.24a.1.1,0,0,1-.1.1c-.1,0-.1,0-.1-.1a.1.1,0,0,1,.1-.1Z" transform="translate(-9.43 -22.74)"/><path class="cls-11" d="M335.66,311.24a.1.1,0,0,1-.1.1c-.1,0-.1,0-.1-.1a.1.1,0,0,1,.1-.1Z" transform="translate(-9.43 -22.74)"/><path class="cls-11" d="M337.56,311.24a.1.1,0,0,1-.1.1c-.1,0-.1,0-.1-.1a.1.1,0,0,1,.1-.1Z" transform="translate(-9.43 -22.74)"/><path class="cls-11" d="M339.36,311.24a.1.1,0,0,1-.1.1c-.1,0-.1,0-.1-.1a.1.1,0,0,1,.2,0Z" transform="translate(-9.43 -22.74)"/><path class="cls-11" d="M341.26,311.24a.1.1,0,0,1-.1.1c-.1,0-.1,0-.1-.1a.1.1,0,0,1,.2,0Z" transform="translate(-9.43 -22.74)"/><path class="cls-11" d="M332.76,310.14a.1.1,0,0,1-.1.1c-.1,0-.1,0-.1-.1a.1.1,0,0,1,.1-.1C332.76,310,332.76,310,332.76,310.14Z" transform="translate(-9.43 -22.74)"/><path class="cls-11" d="M334.66,310.14a.1.1,0,0,1-.1.1c-.1,0-.1,0-.1-.1a.1.1,0,0,1,.1-.1C334.66,310,334.66,310,334.66,310.14Z" transform="translate(-9.43 -22.74)"/><path class="cls-11" d="M336.56,310.14a.1.1,0,0,1-.1.1c-.1,0-.1,0-.1-.1a.1.1,0,0,1,.1-.1C336.56,310,336.56,310,336.56,310.14Z" transform="translate(-9.43 -22.74)"/><path class="cls-11" d="M338.46,310.14a.1.1,0,0,1-.1.1c-.1,0-.1,0-.1-.1a.1.1,0,0,1,.2,0Z" transform="translate(-9.43 -22.74)"/><path class="cls-11" d="M340.36,310.14a.1.1,0,0,1-.1.1c-.1,0-.1,0-.1-.1a.1.1,0,0,1,.2,0Z" transform="translate(-9.43 -22.74)"/><path class="cls-11" d="M342.16,310.14h0c-.2.1-.2,0-.2-.1a.1.1,0,0,1,.1-.1A.31.31,0,0,1,342.16,310.14Z" transform="translate(-9.43 -22.74)"/><path class="cls-11" d="M331.86,313.54a.1.1,0,0,1-.1.1c-.1,0-.1,0-.1-.1a.1.1,0,0,1,.1-.1h0A.1.1,0,0,1,331.86,313.54Z" transform="translate(-9.43 -22.74)"/><path class="cls-11" d="M333.76,313.54a.1.1,0,0,1-.1.1c-.1,0-.1,0-.1-.1a.1.1,0,0,1,.1-.1Z" transform="translate(-9.43 -22.74)"/><path class="cls-11" d="M335.66,313.54a.1.1,0,0,1-.1.1c-.1,0-.1,0-.1-.1a.1.1,0,0,1,.1-.1Z" transform="translate(-9.43 -22.74)"/><path class="cls-11" d="M337.56,313.54a.1.1,0,0,1-.1.1c-.1,0-.1,0-.1-.1a.1.1,0,0,1,.1-.1Z" transform="translate(-9.43 -22.74)"/><path class="cls-11" d="M339.36,313.54a.1.1,0,0,1-.1.1c-.1,0-.1,0-.1-.1s0-.1.1-.1h0A.1.1,0,0,1,339.36,313.54Z" transform="translate(-9.43 -22.74)"/><path class="cls-11" d="M341.26,313.54a.1.1,0,0,1-.1.1c-.1,0-.1,0-.1-.1a.1.1,0,0,1,.1-.1h0A.1.1,0,0,1,341.26,313.54Z" transform="translate(-9.43 -22.74)"/><path class="cls-11" d="M343.16,313.54a.1.1,0,0,1-.1.1c-.1,0-.1,0-.1-.1a.1.1,0,0,1,.1-.1h0Z" transform="translate(-9.43 -22.74)"/><circle class="cls-11" cx="321.43" cy="289.7" r="0.1"/><path class="cls-11" d="M332.76,312.44a.1.1,0,0,1-.1.1c-.1,0-.1,0-.1-.1a.1.1,0,0,1,.1-.1C332.76,312.34,332.76,312.34,332.76,312.44Z" transform="translate(-9.43 -22.74)"/><path class="cls-11" d="M334.66,312.44a.1.1,0,0,1-.1.1c-.1,0-.1,0-.1-.1a.1.1,0,0,1,.1-.1C334.66,312.34,334.66,312.34,334.66,312.44Z" transform="translate(-9.43 -22.74)"/><path class="cls-11" d="M336.56,312.44a.1.1,0,0,1-.1.1c-.1,0-.1,0-.1-.1a.1.1,0,0,1,.1-.1h0C336.56,312.34,336.56,312.34,336.56,312.44Z" transform="translate(-9.43 -22.74)"/><path class="cls-11" d="M338.46,312.44a.1.1,0,0,1-.1.1c-.1,0-.1,0-.1-.1a.1.1,0,0,1,.1-.1h0A.1.1,0,0,1,338.46,312.44Z" transform="translate(-9.43 -22.74)"/><path class="cls-11" d="M340.36,312.44a.1.1,0,0,1-.1.1c-.1,0-.1,0-.1-.1s0-.1.1-.1h0A.1.1,0,0,1,340.36,312.44Z" transform="translate(-9.43 -22.74)"/><path class="cls-11" d="M342.26,312.44a.1.1,0,0,1-.1.1c-.1,0-.1,0-.1-.1s0-.1.1-.1h0A.1.1,0,0,1,342.26,312.44Z" transform="translate(-9.43 -22.74)"/><path class="cls-11" d="M330,315.94a.1.1,0,0,1-.1.1c-.1,0-.1,0-.1-.1s0-.1.1-.1.1,0,.1.1Z" transform="translate(-9.43 -22.74)"/><path class="cls-11" d="M331.86,315.94a.1.1,0,0,1-.1.1c-.1,0-.1,0-.1-.1s0-.1.1-.1.1,0,.1.1Z" transform="translate(-9.43 -22.74)"/><path class="cls-11" d="M333.76,315.94a.1.1,0,0,1-.1.1c-.1,0-.1,0-.1-.1s0-.1.1-.1h0C333.66,315.74,333.76,315.84,333.76,315.94Z" transform="translate(-9.43 -22.74)"/><path class="cls-11" d="M335.66,315.94a.1.1,0,0,1-.1.1c-.1,0-.1,0-.1-.1s0-.1.1-.1h0C335.56,315.74,335.66,315.84,335.66,315.94Z" transform="translate(-9.43 -22.74)"/><path class="cls-11" d="M337.56,315.94a.1.1,0,1,1-.2,0c0-.1,0-.1.1-.1s.1,0,.1.1Z" transform="translate(-9.43 -22.74)"/><path class="cls-11" d="M339.36,315.94a.1.1,0,1,1-.2,0c0-.1,0-.1.1-.1s.1,0,.1.1Z" transform="translate(-9.43 -22.74)"/><path class="cls-11" d="M341.26,315.94a.1.1,0,0,1-.1.1c-.1,0-.1,0-.1-.1s0-.1.1-.1.1,0,.1.1Z" transform="translate(-9.43 -22.74)"/><path class="cls-11" d="M343.16,315.94a.1.1,0,0,1-.1.1c-.1,0-.1,0-.1-.1s0-.1.1-.1.1,0,.1.1Z" transform="translate(-9.43 -22.74)"/><circle class="cls-11" cx="321.43" cy="292" r="0.1"/><path class="cls-11" d="M332.76,314.74c0,.1,0,.1-.1.1h0a.1.1,0,0,1,0-.2C332.76,314.64,332.76,314.64,332.76,314.74Z" transform="translate(-9.43 -22.74)"/><path class="cls-11" d="M334.66,314.74c0,.1,0,.1-.1.1h0a.1.1,0,1,1,0-.2C334.66,314.64,334.66,314.64,334.66,314.74Z" transform="translate(-9.43 -22.74)"/><path class="cls-11" d="M336.56,314.74c0,.1,0,.1-.1.1s-.1,0-.1-.1h0a.1.1,0,0,1,.1-.1C336.56,314.64,336.56,314.64,336.56,314.74Z" transform="translate(-9.43 -22.74)"/><path class="cls-11" d="M338.46,314.74c0,.1,0,.1-.1.1s-.1,0-.1-.1h0a.1.1,0,1,1,.2,0Z" transform="translate(-9.43 -22.74)"/><path class="cls-11" d="M340.36,314.74c0,.1,0,.1-.1.1s-.1,0-.1-.1h0a.1.1,0,0,1,.2,0Z" transform="translate(-9.43 -22.74)"/><path class="cls-11" d="M342.26,314.74c0,.1,0,.1-.1.1a.1.1,0,0,1-.1-.1h0a.1.1,0,0,1,.2,0Z" transform="translate(-9.43 -22.74)"/><path class="cls-11" d="M344.06,314.74c0,.1,0,.1-.1.1h0a.1.1,0,0,1,0-.2C344.06,314.64,344.06,314.64,344.06,314.74Z" transform="translate(-9.43 -22.74)"/><path class="cls-11" d="M330,318.24a.1.1,0,0,1-.1.1c-.1,0-.1,0-.1-.1a.1.1,0,0,1,.1-.1h0C330,318.14,330,318.14,330,318.24Z" transform="translate(-9.43 -22.74)"/><circle class="cls-11" cx="322.33" cy="295.5" r="0.1"/><circle class="cls-11" cx="324.23" cy="295.5" r="0.1"/><circle class="cls-11" cx="326.13" cy="295.5" r="0.1"/><circle class="cls-11" cx="327.93" cy="295.5" r="0.1"/><path class="cls-11" d="M339.36,318.24a.1.1,0,0,1-.1.1c-.1,0-.1,0-.1-.1a.1.1,0,0,1,.1-.1C339.36,318.14,339.36,318.14,339.36,318.24Z" transform="translate(-9.43 -22.74)"/><circle class="cls-11" cx="331.73" cy="295.5" r="0.1"/><circle class="cls-11" cx="333.63" cy="295.5" r="0.1"/><circle class="cls-11" cx="321.43" cy="294.3" r="0.1"/><path class="cls-11" d="M332.76,317a.1.1,0,0,1-.1.1c-.1,0-.1,0-.1-.1a.1.1,0,0,1,.1-.1C332.76,316.94,332.76,316.94,332.76,317Z" transform="translate(-9.43 -22.74)"/><path class="cls-11" d="M334.66,317a.1.1,0,0,1-.1.1c-.1,0-.1,0-.1-.1a.1.1,0,0,1,.1-.1C334.66,316.94,334.66,316.94,334.66,317Z" transform="translate(-9.43 -22.74)"/><path class="cls-11" d="M336.56,317a.1.1,0,0,1-.1.1c-.1,0-.1,0-.1-.1a.1.1,0,0,1,.1-.1h0C336.56,316.94,336.56,316.94,336.56,317Z" transform="translate(-9.43 -22.74)"/><path class="cls-11" d="M338.46,317a.1.1,0,0,1-.1.1c-.1,0-.1,0-.1-.1a.1.1,0,0,1,.1-.1h0A.1.1,0,0,1,338.46,317Z" transform="translate(-9.43 -22.74)"/><path class="cls-11" d="M340.36,317a.1.1,0,0,1-.1.1c-.1,0-.1,0-.1-.1a.1.1,0,1,1,.2,0Z" transform="translate(-9.43 -22.74)"/><path class="cls-11" d="M342.26,317a.1.1,0,0,1-.1.1c-.1,0-.1,0-.1-.1s0-.1.1-.1h0A.1.1,0,0,1,342.26,317Z" transform="translate(-9.43 -22.74)"/><path class="cls-11" d="M344.06,317a.1.1,0,0,1-.1.1c-.1,0-.1,0-.1-.1a.1.1,0,0,1,.1-.1C344.06,316.94,344.06,316.94,344.06,317Z" transform="translate(-9.43 -22.74)"/><circle class="cls-11" cx="321.43" cy="296.6" r="0.1"/><path class="cls-11" d="M332.76,319.34a.1.1,0,1,1-.1-.1C332.76,319.24,332.76,319.24,332.76,319.34Z" transform="translate(-9.43 -22.74)"/><path class="cls-11" d="M334.66,319.34a.1.1,0,1,1-.1-.1C334.66,319.24,334.66,319.24,334.66,319.34Z" transform="translate(-9.43 -22.74)"/><path class="cls-11" d="M336.56,319.34c0,.1,0,.1-.1.1s-.1,0-.1-.1h0a.1.1,0,0,1,.1-.1C336.56,319.24,336.56,319.24,336.56,319.34Z" transform="translate(-9.43 -22.74)"/><path class="cls-11" d="M338.46,319.34c0,.1,0,.1-.1.1s-.1,0-.1-.1h0a.1.1,0,1,1,.2,0Z" transform="translate(-9.43 -22.74)"/><path class="cls-11" d="M340.36,319.34a.1.1,0,0,1-.1.1c-.1,0-.1,0-.1-.1a.1.1,0,1,1,.2,0Z" transform="translate(-9.43 -22.74)"/><path class="cls-11" d="M342.26,319.34a.1.1,0,0,1-.1.1c-.1,0-.1,0-.1-.1a.1.1,0,0,1,.1-.1h0A.1.1,0,0,1,342.26,319.34Z" transform="translate(-9.43 -22.74)"/><path class="cls-11" d="M344,319.24Z" transform="translate(-9.43 -22.74)"/></g><path class="cls-13" d="M334.76,310.14a.9.9,0,1,1-.9-.9A.9.9,0,0,1,334.76,310.14Z" transform="translate(-9.43 -22.74)"/><path class="cls-13" d="M340.86,310.14a.9.9,0,1,1-.9-.9A.9.9,0,0,1,340.86,310.14Z" transform="translate(-9.43 -22.74)"/><circle class="cls-10" cx="324.43" cy="287.4" r="0.6"/><circle class="cls-10" cx="330.53" cy="287.4" r="0.6"/><path class="cls-5" d="M340,310.24c-.2,0-.3-.1-.4-.3a15.44,15.44,0,0,0-.5-3.1c-.4-1.2-1-2.7-2.1-2.7-2,0-2.8,4.9-2.8,5.9a.32.32,0,0,1-.3.3h0c-.2,0-.3-.1-.4-.3s.4-6.5,3.5-6.5,3.3,6.5,3.3,6.5S340.16,310.24,340,310.24Z" transform="translate(-9.43 -22.74)"/><text class="cls-15" transform="translate(262.2 317.93) scale(1.35 1)">₹</text><g id="freepik--Puff--inject-12"><path class="cls-2" d="M83.76,428.54l138.9.6c33.8-25.2,37.2-62.6,13.2-85.3-14.6-13.7-33.1-10.9-50.7-13.1h0a53.13,53.13,0,0,1-17.9-5c-18.1-9.1-28.4-30.6-43.6-48.7q-2.85-3.45-6-6.6c-12.6-12.8-37.5-13.2-50.6,4.8C33.76,320.84,49,388.64,83.76,428.54Z" transform="translate(-9.43 -22.74)"/><path class="cls-4" d="M80.66,324.24c3.6,54.3,69.4,74.5,110.5,58.3,35.7-14.1,24-46.4-6.1-51.8h0a53.13,53.13,0,0,1-17.9-5c-18.1-9.1-28.4-30.6-43.6-48.7C100.76,265.84,78.06,284.54,80.66,324.24Z" transform="translate(-9.43 -22.74)"/></g><g id="freepik--Character--inject-12"><path class="cls-16" d="M211.06,436.84c-2.1-.7-50.7-37.7-51.6-40.2-.4-1,4.9-8,11.5-16.3,1.4-1.8,2.9-3.7,4.4-5.5,9.8-12.2,20.5-24.9,20.5-24.9l32.5,24.6L207,398.74l-4.7,5.3s11.9,22.1,12.6,24.9S213.26,437.54,211.06,436.84Z" transform="translate(-9.43 -22.74)"/><path class="cls-7" d="M211.06,436.84c-2.1-.7-50.7-37.7-51.6-40.2-.4-1.2,7.4-11.3,15.9-21.9l31.6,23.9-4.7,5.3s11.9,22.1,12.6,24.9S213.26,437.54,211.06,436.84Z" transform="translate(-9.43 -22.74)"/><path class="cls-6" d="M211.06,436.84c-2.1-.7-50.7-37.7-51.6-40.2-.4-1,4.9-8,11.5-16.3l31.4,23.7s11.9,22.1,12.6,24.9S213.26,437.54,211.06,436.84Z" transform="translate(-9.43 -22.74)"/><path class="cls-10" d="M212,434.44c-8-6.4-40.8-31.4-49.2-37.1-.1,0-.1,0,0,.1,7.8,6.5,40.8,31.3,49.1,37.2C212.06,434.64,212.16,434.54,212,434.44Z" transform="translate(-9.43 -22.74)"/><path class="cls-10" d="M213.26,424.84a8.77,8.77,0,0,0-6.5-1.8,7.73,7.73,0,0,0-5.3,2.8.1.1,0,0,0,.1.1,10.09,10.09,0,0,1,11.6-.9h.1Z" transform="translate(-9.43 -22.74)"/><path class="cls-10" d="M204.86,407.14c-3.2-2.5-7.9-4.3-12.1-3.3-.2,0-.1.3,0,.3a59.17,59.17,0,0,1,11.8,3.4c.1,0,.3,0,.3-.2C205,407.34,204.86,407.24,204.86,407.14Z" transform="translate(-9.43 -22.74)"/><path class="cls-10" d="M206.56,410c-3.2-2.5-7.9-4.3-12.1-3.3-.2,0-.1.3,0,.3a61.15,61.15,0,0,1,11.8,3.4c.1.1.3,0,.4-.1A.19.19,0,0,0,206.56,410Z" transform="translate(-9.43 -22.74)"/><path class="cls-10" d="M208.26,412.84c-3.2-2.5-7.9-4.3-12.1-3.3-.2,0-.1.3,0,.3a61.15,61.15,0,0,1,11.8,3.4c.1.1.3,0,.4-.1S208.46,412.94,208.26,412.84Z" transform="translate(-9.43 -22.74)"/><path class="cls-10" d="M210.06,415.74c-3.2-2.5-7.9-4.3-12.1-3.3-.2,0-.1.3,0,.3a61.45,61.45,0,0,1,11.8,3.5c.1.1.3,0,.4-.1S210.16,415.74,210.06,415.74Z" transform="translate(-9.43 -22.74)"/><path class="cls-7" d="M171.06,391.54c-3.7-2.8-8.2,2.6-4.5,5.4S174.66,394.24,171.06,391.54Z" transform="translate(-9.43 -22.74)"/><path class="cls-10" d="M215.26,401.54c-.5-2.6-3.7-2.9-5.8-2.3a21.81,21.81,0,0,0-9.6,5.7.14.14,0,0,0,0,.2h0a.48.48,0,0,0,.2.6h.2c3.6.2,7.4.9,11,.1C213.26,405.44,215.86,403.94,215.26,401.54Zm-9.5,3.6c-1.8-.1-3.5-.2-5.3-.2a52.35,52.35,0,0,1,5.7-3.2,17.8,17.8,0,0,1,2.9-1.2c1.6-.5,6.9-.6,4.4,3C212.16,405.44,207.86,405.24,205.76,405.14Z" transform="translate(-9.43 -22.74)"/><path class="cls-10" d="M190.76,399.94c2.5,2.6,6.1,4,9.2,5.7a.66.66,0,0,0,.7-.2v-.2c.1,0,.1,0,.1-.1a20.37,20.37,0,0,0-4.7-9.8c-1.4-1.6-4.2-3-6.2-1.2S189.36,398.44,190.76,399.94Zm-.5-3.3c0-4.3,4.4-1.4,5.4-.1.6.8,1.2,1.7,1.8,2.5a50.26,50.26,0,0,1,2.8,5.7c-1.5-.9-3-1.7-4.6-2.6S190.26,399,190.26,396.64Z" transform="translate(-9.43 -22.74)"/><path class="cls-17" d="M261.26,327.14c-2.2,16.1-43.9,62.6-48.7,67.9l-1.1,1.2L177,371l.4-.5,30.3-37.8-90.5-.5,34.4-25.4s2.8,1.5,8.6.7c20-2.8,65-9,75.7-8.5C249.56,299.44,263.36,312.34,261.26,327.14Z" transform="translate(-9.43 -22.74)"/><path class="cls-10" d="M218.66,318.64a36.78,36.78,0,0,0-3.1,3.8c-1.1,1.3-2.2,2.7-3.2,4h0l.6-1.2c.7-1.3,1.2-2.7,2-4,0-.1-.1-.2-.1-.1-.8,1.3-1.8,2.5-2.5,3.8-.3.6-.6,1.3-.9,1.9-.2.4-.3.7-.5,1.1-.1.2-.1.3-.2.5-.5.6-.9,1.2-1.4,1.9-1,1.4-1.9,2.9-3,4.3-.1.1.1.1.1.1,1-1.3,2.2-2.5,3.3-3.8s2.1-2.7,3.1-4.1,2-2.7,3-4a31.88,31.88,0,0,0,3-4.2c-.1.1-.1,0-.2,0Z" transform="translate(-9.43 -22.74)"/><path class="cls-10" d="M122.26,237.84c-7.2,5.4-14.3,40.5-17,44.4-2,2.7-4.4,5.5-4.3,7s7,9.2,20,11.6,25.9-3.5,27.2-5.1-2.1-6.9-2-11.7,4.6-31.2,1.9-39C144.86,236.14,130.56,231.64,122.26,237.84Z" transform="translate(-9.43 -22.74)"/><path class="cls-10" d="M149.06,294.24a22.66,22.66,0,0,1-2-10c.1-3.8.6-7.7,1-11.5.5-4,.9-8.1,1.4-12.1.4-3.6.9-7.2.2-10.7a18.6,18.6,0,0,0-4.6-9.3H145a20.37,20.37,0,0,1,4.3,9.3c.7,3.8,0,7.7-.4,11.5-.5,4-.9,7.9-1.4,11.9a99.88,99.88,0,0,0-.9,11c0,3.4.3,7.1,2.2,10C149,294.44,149.16,294.44,149.06,294.24Z" transform="translate(-9.43 -22.74)"/><path class="cls-10" d="M123.46,237.54c-3.3,1.7-5,5.1-6.3,8.4-1.8,4.4-3.5,8.9-5,13.5s-2.9,9.4-4.5,14.1a49.25,49.25,0,0,1-6.8,12.8c-.1.1,0,.2.1.1,6.2-6.9,8.1-16.2,10.9-24.7,1.6-4.7,3.2-9.3,5-14,1.4-3.7,2.8-8,6.6-10.1C123.56,237.64,123.46,237.54,123.46,237.54Z" transform="translate(-9.43 -22.74)"/><path class="cls-10" d="M126.46,236.24c-7,2.6-9.7,10-12,16.4-2.7,7.5-4.6,15.3-6.9,22.9-1.3,4.3-2.5,9-5.4,12.5-.1.1.1.2.2.1,2.3-2.6,3.4-5.7,4.5-8.9,1.3-3.8,2.4-7.6,3.5-11.4,2.2-7.6,4.2-15.4,7.6-22.5,1.7-3.7,4.4-7.4,8.5-9.1C126.56,236.34,126.56,236.24,126.46,236.24Z" transform="translate(-9.43 -22.74)"/><path class="cls-16" d="M128.56,283.94c6.1,8.4,27.2,30.2,41.7,33.3,8,1.7,46.8,6.9,52,2.3,6.2-5.4,3.3-25.7-1.6-25.9-15.1-.6-43,2.2-50,.8-3.2-.7-19.9-10.9-37.7-19.2C126.26,272.14,124.66,278.44,128.56,283.94Z" transform="translate(-9.43 -22.74)"/><path class="cls-6" d="M212.56,292.54l-2.6,30.4s-35.1-.5-45.7-6.2-27.9-20.2-34.5-30.2-4.4-15.6,8.5-9.4,30.3,16.1,32.6,16.6S212.56,292.54,212.56,292.54Z" transform="translate(-9.43 -22.74)"/><path class="cls-10" d="M206.86,294.64c0-.1-.1-.1-.2,0-.4,2.1-.6,4.2-.9,6.3s-.5,4.4-.7,6.6c-.4,4.4-.9,8.8-1,13.1a.15.15,0,1,0,.3,0c.7-4.3,1.1-8.7,1.5-13,.2-2.2.4-4.3.6-6.5S206.86,296.84,206.86,294.64Z" transform="translate(-9.43 -22.74)"/><path class="cls-6" d="M97.06,339.44c1.9.6,56.7-14.5,56.7-14.5l-6.5-18.1s3.2-5.8,1.7-11.4c-2-7.5-16.5-19.8-17.7-20.5-4.6-2.9-8.9-2.8-12.7-.9C102.86,281.94,97.06,339.44,97.06,339.44Z" transform="translate(-9.43 -22.74)"/><path class="cls-10" d="M139,281.44c1.4,1.6,2.9,3,4.4,4.6-.7-1.1-1.4-2.3-2.1-3.4h0a23.62,23.62,0,0,1,2.8,4.2,34.68,34.68,0,0,1,3,3.7,15.65,15.65,0,0,1,2.5,5,11.76,11.76,0,0,1,.2,5.6,33.8,33.8,0,0,1-1.8,6.2c-.1.3-.5.1-.4-.2,1-3.5,2.2-7.3,1.4-11s-3.2-6.7-5.5-9.6a54.68,54.68,0,0,0-4.5-5.1C138.76,281.44,138.86,281.34,139,281.44Z" transform="translate(-9.43 -22.74)"/><path class="cls-16" d="M122.16,274.94c.2.9,4.9,7.1,9.4,7,1.5,0,1.6-7.7,1.6-7.7l.1-.6,2-7.9-11.1-6.9C124.06,258.84,122.06,274.54,122.16,274.94Z" transform="translate(-9.43 -22.74)"/><path class="cls-10" d="M135.16,265.74l-2,7.9a17,17,0,0,1-9.8-9.5c.3-2.7.6-5,.7-5.3h0l1.4.8Z" transform="translate(-9.43 -22.74)"/><path class="cls-16" d="M148.16,256c-.9,14.3-10,15.3-13.2,15.1-2.9-.2-12.9-1.1-13.5-15.4s6.6-18.4,13.4-18.3S149.06,241.74,148.16,256Z" transform="translate(-9.43 -22.74)"/><path class="cls-10" d="M146,254.64l-.9-.3a1.35,1.35,0,0,1-.9-.5c-.1-.2-.1-.5.1-.6a1.23,1.23,0,0,1,1.3-.1,1.55,1.55,0,0,1,1.1.8.48.48,0,0,1-.2.7Z" transform="translate(-9.43 -22.74)"/><path class="cls-10" d="M136.16,253.44a3.4,3.4,0,0,0,1-.1,1.69,1.69,0,0,0,1-.3.47.47,0,0,0,.1-.6,1.46,1.46,0,0,0-1.2-.5,2.11,2.11,0,0,0-1.3.5.61.61,0,0,0,0,.8A.52.52,0,0,0,136.16,253.44Z" transform="translate(-9.43 -22.74)"/><path class="cls-10" d="M138,255.84h0c-.2,1.1-.4,2.2-1.4,2.4v.1C137.66,258.24,138.06,256.74,138,255.84Z" transform="translate(-9.43 -22.74)"/><path class="cls-10" d="M137.16,254.74c-1.6-.3-2.1,2.8-.6,3.1S138.56,254.94,137.16,254.74Z" transform="translate(-9.43 -22.74)"/><path class="cls-10" d="M136.46,254.84c-.3.1-.6.4-1,.4s-.7-.4-.9-.7h-.1c-.1.6,0,1.2.7,1.4s1.1-.3,1.4-.9C136.66,254.94,136.66,254.74,136.46,254.84Z" transform="translate(-9.43 -22.74)"/><path class="cls-10" d="M143.56,256.34h0c-.1,1.1-.2,2.2.7,2.6v.1C143.06,258.74,143.16,257.24,143.56,256.34Z" transform="translate(-9.43 -22.74)"/><path class="cls-10" d="M144.56,255.54c1.6.1,1.3,3.2-.3,3.1S143.26,255.44,144.56,255.54Z" transform="translate(-9.43 -22.74)"/><path class="cls-10" d="M145.26,255.84a2.41,2.41,0,0,0,.8.6c.3.1.7-.2.9-.5h0c-.1.6-.3,1.2-.9,1.2s-.9-.5-.9-1.1C145.06,255.84,145.16,255.74,145.26,255.84Z" transform="translate(-9.43 -22.74)"/><path class="cls-10" d="M136.56,264.14a1.58,1.58,0,0,0,.7.7,2,2,0,0,0,1.1,0s.1,0,0,.1a1.74,1.74,0,0,1-1.4.3,1.1,1.1,0,0,1-.6-1v-.1Z" transform="translate(-9.43 -22.74)"/><path class="cls-10" d="M141.26,261.24a19.71,19.71,0,0,1-.1,2.1c0,.1-.2.1-.4.1h0a3.37,3.37,0,0,1-3.1-1.6.1.1,0,0,1,.1-.1h.1a5.33,5.33,0,0,0,3,1.2c.1-.2-.1-2.5,0-2.5a5.23,5.23,0,0,1,1.6.6c.1-3.1-.3-6.1-.2-9.1a.1.1,0,0,1,.2,0,40.39,40.39,0,0,1,.6,9.8C143,262,141.56,261.34,141.26,261.24Z" transform="translate(-9.43 -22.74)"/><path class="cls-10" d="M121.36,256.54a6.28,6.28,0,0,0,4.5-4,16.73,16.73,0,0,0,7.6-3.6c-.2.3-1.3,2.2-2,3.2,9.7.2,14.1-6,14.1-6a15.17,15.17,0,0,1,2.8,6.5s1.3-5.4-.8-9.7a9.61,9.61,0,0,0-7.7-5.4,14,14,0,0,0-13.7,1.2C118.46,243.74,121.36,256.54,121.36,256.54Z" transform="translate(-9.43 -22.74)"/><path class="cls-10" d="M138.76,252a18.13,18.13,0,0,1-5.2.7h0a14.68,14.68,0,0,0,7.7-2.5,14.28,14.28,0,0,0,2.6-2.3,8.68,8.68,0,0,0,2-3.1v-.1h.1v.1a11.4,11.4,0,0,1-1.5,3.4,10.73,10.73,0,0,1-2.7,2.5,13.59,13.59,0,0,1-3,1.3" transform="translate(-9.43 -22.74)"/><path class="cls-16" d="M123.76,256.94s-2.5-4.9-4.8-4.1-.9,7.5,1.5,8.8a2.65,2.65,0,0,0,3.5-.7.1.1,0,0,1,.1-.1Z" transform="translate(-9.43 -22.74)"/><path class="cls-10" d="M119.36,254.84h0a6.45,6.45,0,0,1,2.7,4.3,1.5,1.5,0,0,0-1.8-.8c-.1,0-.1.1-.2.1v.1h0a1.48,1.48,0,0,1,1.6.8,4.24,4.24,0,0,1,.6,1.4c.1.2.4.1.3-.1h0C123,258.54,121.66,255.34,119.36,254.84Z" transform="translate(-9.43 -22.74)"/><path class="cls-16" d="M110.46,286.64c-4.4,23.8-.1,41.6,4.1,43.8,11.4,5.9,38.9-6.1,46.6-8.5,3.1-1-11.1-23.7-14.3-22.3-7.5,3.3-18.1,8.9-18.5,8.9-.9-.1-1.8-6.2-6.2-23.9C118.56,270.44,112.26,276.94,110.46,286.64Z" transform="translate(-9.43 -22.74)"/><path class="cls-16" d="M186.06,288.44c.8,3-7.1,4.2-7.1,4.2a5.48,5.48,0,0,1,3.1,2.5c1.1,2.1-1.8,4.7-1.8,4.7a7,7,0,0,1,2.8,3.1c.9,2.1-1.6,5.1-1.6,5.1a5.69,5.69,0,0,1,.7,4.2c-.9,3.8-7.1,5.3-10.8,7-3.9,1.8-10.3,2.4-13.2,3.7l-12.7-22.1s12.3-12.4,19.3-14.2C168.66,285.54,184.86,283.84,186.06,288.44Z" transform="translate(-9.43 -22.74)"/><path class="cls-10" d="M178.86,292.54a52.69,52.69,0,0,0-13.1,1.5c-.1,0-.1.2,0,.1,4.2-.9,8.8-.7,13.1-1.4.1,0,.1,0,.1-.1A.1.1,0,0,0,178.86,292.54Z" transform="translate(-9.43 -22.74)"/><path class="cls-10" d="M180.16,299.44a15.67,15.67,0,0,0-3,.5c-1,.3-2.1.5-3.1.8-2,.6-4.1,1.2-6.1,1.9-.1,0-.1.2,0,.1,2-.6,4.1-1.1,6.1-1.6,1-.2,2.1-.5,3.1-.7a13.79,13.79,0,0,0,2.9-.8c.1,0,.1-.1.1-.2C180.26,299.54,180.16,299.54,180.16,299.44Z" transform="translate(-9.43 -22.74)"/><path class="cls-10" d="M181.46,308a11,11,0,0,0-2.6.6l-2.8.8c-1.9.5-3.7,1.1-5.6,1.5-.1,0-.1.2,0,.1,1.9-.5,3.8-.9,5.7-1.4l2.8-.7a5,5,0,0,0,2.5-.9Z" transform="translate(-9.43 -22.74)"/><path class="cls-6" d="M146,299.44l13.2,26.8s-40.8,11.3-46.3,4.5-5.1-28.3-2.6-43.1,9.6-15.1,12.7-1.7,4.9,21.9,5.4,21.8S146,299.44,146,299.44Z" transform="translate(-9.43 -22.74)"/><path class="cls-10" d="M140.66,303c0-.1-.2,0-.1.1.7,2,1.7,3.9,2.6,5.9s1.9,4,2.9,6c2,4,3.9,8,6.1,11.8,0,.1.1.1.2.1s.1-.1.1-.2h0c-1.7-4.1-3.7-8-5.6-11.9-.9-2-1.9-3.9-2.9-5.8S141.86,304.94,140.66,303Z" transform="translate(-9.43 -22.74)"/><path class="cls-10" d="M137.56,331.14a18.57,18.57,0,0,0-3.4.5c-1.2.2-2.4.4-3.5.5q-3.45.45-6.9.6c-2.3.1-7.9-.3-9.7-1.8a10.38,10.38,0,0,1-2.9-4.8,67.53,67.53,0,0,1-1.4-7.6,88.88,88.88,0,0,1-.5-16.3l.3-4.5c.1-1.5.3-3.1.4-4.6,0-.1-.1-.1-.1,0a64.58,64.58,0,0,0-1.1,7.5c-.1-1.6-.3-3.1-.3-4.7a.1.1,0,0,0-.2,0h0c0,1.6-.1,3.3,0,4.9,0,.9.1,1.8.2,2.8-.1,2.1-.2,4.2-.2,6.3a60.41,60.41,0,0,0,2,16.4c.7,2.3,1.7,4.6,3.9,5.8a14.27,14.27,0,0,0,5.4,1.3,46.85,46.85,0,0,0,11.8-.7c1.1-.2,2.2-.4,3.2-.6a9.64,9.64,0,0,0,3-1C137.66,331.24,137.66,331.14,137.56,331.14Z" transform="translate(-9.43 -22.74)"/><path class="cls-10" d="M146.56,299.74Z" transform="translate(-9.43 -22.74)"/><path class="cls-10" d="M146,298.94c-3,1.4-6,2.9-9,4.3l-4.4,2.2c-1.4.7-4.1,2.1-4.1,2.1a28.26,28.26,0,0,0-.8-3.7c-.3-1.2-.6-2.6-.9-3.9-.1-.3-.2-.7-.3-1-.1-.6-.1-1.3-.2-1.9-.1-1-.2-2-.4-3h-.1a14.05,14.05,0,0,0,0,2.9c-.5-1.6-.9-3.2-1.4-4.7m-.1-.1c.5,2.6,1.1,5.3,1.7,7.9.3,1.3.7,2.5,1,3.8a31.73,31.73,0,0,0,1.2,4.1c1.5-.6,3-1.2,4.5-1.9s3.1-1.4,4.6-2.1c2.9-1.4,5.9-2.8,8.8-4.4l.2.4s.2-.1.1-.2-.3-.7-.4-.7Z" transform="translate(-9.43 -22.74)"/><path class="cls-10" d="M146.56,299.74Z" transform="translate(-9.43 -22.74)"/><polygon class="cls-10" points="162.43 302.6 200.83 302.6 217.63 250.9 179.23 250.9 162.43 302.6"/><polygon class="cls-14" points="164.23 302.6 202.73 302.6 219.53 250.9 181.13 250.9 164.23 302.6"/><path class="cls-7" d="M205.36,297.84a5.17,5.17,0,0,1-4.7,3.6,2.7,2.7,0,0,1-2.9-2.5,1.64,1.64,0,0,1,.2-1,5.17,5.17,0,0,1,4.7-3.6,2.7,2.7,0,0,1,2.9,2.5A1.8,1.8,0,0,1,205.36,297.84Z" transform="translate(-9.43 -22.74)"/><path class="cls-16" d="M223.06,291.74c1.9,3.3,6.9,7.3,7.4,10.1a3.22,3.22,0,0,1-1.7,3.5s3,1.2,3,3.8c0,1.3-2.2,2.5-2.2,2.5a3.72,3.72,0,0,1,2.2,3.3c-.1,1.8-2.3,2.7-2.3,2.7s1.7,2,1,3.8c-1.5,3.7-17.8,4.6-20.7-1-1.3-2.6,2.7-2.6,2.7-2.6s-5.8-1.3-6-4.5,4.9-2.9,4.9-2.9-5.6-1.3-5.5-4.7,5.2-2.3,5.2-2.3-3.8-2.2-3.1-4.7c1.1-4.2,9.3.8,12.8-.2Z" transform="translate(-9.43 -22.74)"/><path class="cls-10" d="M229.16,317.94a29.47,29.47,0,0,1-16.9-.1c-.2-.1-.2-.3.1-.3a63.05,63.05,0,0,0,16.8.4Z" transform="translate(-9.43 -22.74)"/><path class="cls-10" d="M229.66,311.54c.1,0,.1.1,0,.1a27.71,27.71,0,0,1-18.4-1.2c-.2-.1-.3-.4,0-.3C215.26,311.74,224.46,312.24,229.66,311.54Z" transform="translate(-9.43 -22.74)"/><path class="cls-10" d="M210.86,303c5.7,2.4,11.6,2.7,17.7,2.3.1,0,.1.1,0,.1-2.9,1-6.9.9-9.9.5a17.08,17.08,0,0,1-7.9-2.8C210.66,303.14,210.66,303,210.86,303Z" transform="translate(-9.43 -22.74)"/><path class="cls-16" d="M337,394.94c-.8,2-39.7,48.1-42.4,49-1,.3-8.4-4.7-17.1-11-1.9-1.4-3.8-2.8-5.8-4.2-12.7-9.4-26-19.6-26-19.6l26-30.9,25.3,20.5,5.6,4.5s23.2-11.3,26.2-11.9S337.76,392.94,337,394.94Z" transform="translate(-9.43 -22.74)"/><path class="cls-7" d="M337,394.94c-.8,2-39.7,48.1-42.4,49-1.2.4-11.9-7.1-22.9-15.2l25.2-30.1,5.6,4.5s23.2-11.3,26.2-11.9S337.76,392.94,337,394.94Z" transform="translate(-9.43 -22.74)"/><path class="cls-6" d="M337,394.94c-.8,2-39.7,48.1-42.4,49-1,.3-8.4-4.7-17.1-11l25-29.8s23.2-11.3,26.2-11.9S337.76,392.94,337,394.94Z" transform="translate(-9.43 -22.74)"/><path class="cls-10" d="M334.46,394.14c-6.7,7.6-33.1,38.7-39.2,46.7h0c6.8-7.4,33-38.7,39.2-46.6C334.66,394,334.56,393.94,334.46,394.14Z" transform="translate(-9.43 -22.74)"/><path class="cls-10" d="M324.36,392.84a7.64,7.64,0,0,0-1.9,6.1,7.09,7.09,0,0,0,2.8,5,.1.1,0,0,0,.1-.1,9,9,0,0,1-1-11c.1.1.1,0,0,0Z" transform="translate(-9.43 -22.74)"/><path class="cls-10" d="M305.76,400.84c-2.7,3.1-4.5,7.5-3.5,11.5,0,.2.3.1.3,0a50.73,50.73,0,0,1,3.7-11.2.25.25,0,0,0-.1-.4c-.2-.1-.3,0-.4.1Z" transform="translate(-9.43 -22.74)"/><path class="cls-10" d="M308.76,399.14c-2.7,3.1-4.5,7.5-3.5,11.5,0,.2.3.1.3,0a50.73,50.73,0,0,1,3.7-11.2.25.25,0,0,0-.1-.4C309,398.94,308.86,399,308.76,399.14Z" transform="translate(-9.43 -22.74)"/><path class="cls-10" d="M311.76,397.54c-2.7,3.1-4.5,7.5-3.5,11.5,0,.2.3.1.3,0a50.73,50.73,0,0,1,3.7-11.2.25.25,0,0,0-.1-.4c-.2-.1-.3-.1-.4.1Z" transform="translate(-9.43 -22.74)"/><path class="cls-10" d="M314.76,395.94c-2.7,3.1-4.5,7.5-3.5,11.5,0,.2.3.1.3,0a50.73,50.73,0,0,1,3.7-11.2c.1-.1,0-.3-.1-.4s-.3-.1-.4.1Z" transform="translate(-9.43 -22.74)"/><path class="cls-7" d="M289.26,432.94c-2.9,3.5,2.8,7.8,5.7,4.3S292.16,429.44,289.26,432.94Z" transform="translate(-9.43 -22.74)"/><path class="cls-10" d="M300,390.84c-2.7.5-3,3.5-2.4,5.6a20.57,20.57,0,0,0,5.9,9.2s.1.1.1,0h0a.57.57,0,0,0,.7-.2.1.1,0,0,1,.1-.1c.3-3.4.9-7.1.1-10.5C304,392.74,302.46,390.34,300,390.84Zm3.7,9.1c-.1,1.7-.3,3.4-.3,5.1a60,60,0,0,1-3.3-5.4,13.9,13.9,0,0,1-1.2-2.8c-.5-1.5-.7-6.6,3.1-4.2,2,1.2,1.8,5.3,1.7,7.3Z" transform="translate(-9.43 -22.74)"/><path class="cls-10" d="M298.16,414.14c2.7-2.4,4.2-5.8,6.1-8.7a.45.45,0,0,0-.3-.6h-.1c0-.1,0-.1-.1-.1h0a22.62,22.62,0,0,0-10.3,4.4c-1.7,1.4-3.2,4-1.3,5.9S296.56,415.54,298.16,414.14Zm-3.4.5c-4.6,0-1.4-4.2-.1-5.2.9-.6,1.8-1.2,2.7-1.7a64.63,64.63,0,0,1,6-2.7c-.9,1.4-1.8,2.9-2.8,4.3-1.2,1.8-3.3,5.3-5.8,5.3Z" transform="translate(-9.43 -22.74)"/><path class="cls-17" d="M295.46,394l-27,34.7-91.2-60.2-8.8-5.8s-2.5,1.6-6.2,3.6c-5.2,2.7-12.8,6.2-19.6,7.2-11.4,1.6-30.2,1.4-39.7-10.7-8-10.2-3.7-23.6-3.7-23.6l12.4-5.1s29.4-23.3,48.5-24c8.1-.3,19.9,5.5,30.8,11.6S295.46,394,295.46,394Z" transform="translate(-9.43 -22.74)"/><path class="cls-10" d="M168.56,362.74s-2.5,1.6-6.2,3.6c-6.6-7.5-20.6-21.3-21.1-21.7Z" transform="translate(-9.43 -22.74)"/><path class="cls-10" d="M122.56,326.24c-1.8,1.2-3.5,2.4-5.2,3.6s-3.5,2.3-5.1,3.6-3.2,2.7-4.7,4.1c-.7.7-1.5,1.4-2.2,2.1a14.46,14.46,0,0,0-2.1,2.2c-.1.1.1.2.1.1a20.28,20.28,0,0,0,2.3-1.8l2.4-2.1c1.6-1.3,3.2-2.5,4.7-3.8s3-2.7,4.6-4,3.4-2.7,5.2-4Z" transform="translate(-9.43 -22.74)"/><path class="cls-10" d="M289.16,392.84c-1.8,1.8-3.4,3.7-5,5.6s-3.3,3.8-4.9,5.8c-3.2,3.8-6.5,7.7-9.7,11.6-1.8,2.1-3.5,4.3-5.1,6.5-.1.1.1.2.2.1,3.5-3.6,6.7-7.5,9.9-11.4s6.5-7.7,9.6-11.6c1.7-2.1,3.5-4.3,5.1-6.5C289.36,392.84,289.26,392.74,289.16,392.84Z" transform="translate(-9.43 -22.74)"/><path class="cls-10" d="M214.36,393.14c-4.5-3.4-9.2-6.6-13.9-9.8s-9.4-6.4-14.1-9.4c-1.4-.9-2.7-1.8-4.1-2.6s-2.8-1.7-4.1-2.6c-.1,0-.2.1-.1.1,1.2.8,2.4,1.8,3.6,2.7s2.3,1.7,3.5,2.5l6.9,4.8c4.7,3.2,9.3,6.4,14.1,9.5,2.7,1.8,5.4,3.5,8.1,5.2C214.36,393.54,214.46,393.24,214.36,393.14Z" transform="translate(-9.43 -22.74)"/><path class="cls-10" d="M243.46,357.34c-4.2-3.3-8.7-6.3-13.1-9.3s-8.9-6.2-13.3-9.3l-13.2-9.2c-4.3-3-8.6-6-13.1-8.6a77.88,77.88,0,0,0-7.6-3.9,54,54,0,0,0-7.9-3.1.1.1,0,0,0-.1.1c2.2,1.2,4.6,2.2,6.8,3.3s4.4,2.3,6.6,3.6c4.5,2.6,8.7,5.5,13,8.5,8.9,6.1,17.7,12.2,26.6,18.1,5,3.4,9.9,6.9,15.1,9.9C243.46,357.74,243.66,357.44,243.46,357.34Z" transform="translate(-9.43 -22.74)"/></g><g id="freepik--Plant--inject-12"><path class="cls-6" d="M449.16,343.44c-11.6,14.9-23.7,32.2-26.6,50.9a.26.26,0,0,0,.5.1,102,102,0,0,1,5.1-15c7.6-2,15.1-3.6,19.1-10.8,4.1-7.4,3.5-17,2.8-25.1C450,343.14,449.36,343.14,449.16,343.44Z" transform="translate(-9.43 -22.74)"/><path class="cls-10" d="M428.36,379.34c5.2-11.1,11.9-22.2,20.4-31.4.1-.1.1,0,.1.1-5.5,6.5-9.8,13.6-13.9,20.8,3.8-3.7,8-7,11.6-10.9h.1v.1c-3.6,4.1-7.6,8.6-12.2,11.6-1.3,2.2-2.5,4.4-3.8,6.6.3-.2.6-.3.9-.5.1,0,.1.1,0,.1a5.36,5.36,0,0,1-1.1.5c-.6,1-1.2,2.1-1.8,3.1C428.56,379.74,428.26,379.54,428.36,379.34Z" transform="translate(-9.43 -22.74)"/><path class="cls-10" d="M432.16,375.44a74.05,74.05,0,0,0,8.9-5.6c.1-.1.2,0,.1.1a43.5,43.5,0,0,1-8.9,5.7h-.2A.35.35,0,0,1,432.16,375.44Z" transform="translate(-9.43 -22.74)"/><path class="cls-6" d="M421.26,391.54c0,.2.4.2.4,0,.1-6.2,0-12.4.1-18.5,1.7-3.2,5.2-4.9,7.7-7.5a33.66,33.66,0,0,0,4.6-6.1,42.9,42.9,0,0,0,5.4-17c.7-6.6-1.9-28.3-4.9-27.6-1.5.4-6.4,11.2-7.7,14.7a103.37,103.37,0,0,0-4.6,18C419.86,362,420.06,376.94,421.26,391.54Z" transform="translate(-9.43 -22.74)"/><path class="cls-10" d="M421.16,364.94h0c.4-7.8,2.2-15.7,3.9-23.2,1.9-8.1,4-15.8,8.4-23.1.1-.1.3,0,.2.1a86.3,86.3,0,0,0-6.8,17.7,10.14,10.14,0,0,0,.9-1.3c.1-.2.4,0,.3.2a8.62,8.62,0,0,1-1.4,1.8h-.1a178.59,178.59,0,0,0-3.5,17.7c.1-.1.1-.2.2-.2a.1.1,0,0,1,.1.1,2.09,2.09,0,0,1-.4.6c-.5,3-.9,6-1.3,9,5.7-4.6,10.4-10,13.2-16.7h.1c-2.7,6.9-6.9,13-13.3,17.2a20,20,0,0,1-.4,2.4c0,.2-.3.1-.3,0a14.77,14.77,0,0,1,.1-2.1.35.35,0,0,0,.1-.2Z" transform="translate(-9.43 -22.74)"/><path class="cls-10" d="M423.86,353.64a129.6,129.6,0,0,0,11.5-18.8s.1-.1.1,0,.1.1,0,.1h0c-2.7,6.7-6.4,13.5-11.4,18.9C424,353.94,423.76,353.84,423.86,353.64Z" transform="translate(-9.43 -22.74)"/><path class="cls-10" d="M429.56,333.34c1.8-3,3.7-5.9,5.3-9,0-.1.2,0,.1.1a45.57,45.57,0,0,1-5.2,9.1C429.76,333.64,429.46,333.54,429.56,333.34Z" transform="translate(-9.43 -22.74)"/><path class="cls-10" d="M428.86,334.64" transform="translate(-9.43 -22.74)"/><path class="cls-6" d="M416.86,373.74a61.61,61.61,0,0,1-1.5,12.1l.2,1.3a56.13,56.13,0,0,0,2.3-13.5.3.3,0,0,0,0-.4h0a86.36,86.36,0,0,0-1.4-18.3c-2-11.3-6.4-22.2-14.7-30.6a.61.61,0,0,0-.8,0,.35.35,0,0,0-.1.2c-3.3,8.1-2.2,17.8.7,25.8a45.71,45.71,0,0,0,6.6,12.3C411,366.34,414.56,369.54,416.86,373.74Z" transform="translate(-9.43 -22.74)"/><path class="cls-10" d="M402.76,328c7.9,12.1,13.3,26.5,14,40.9,0,.3-.4.3-.5.1-.2-1.3-.4-2.6-.6-3.8h0c-3.3-3-6.6-6.1-8.9-9.8a.1.1,0,0,1,.1-.1,92.45,92.45,0,0,0,8.7,9c-.6-3.2-1.2-6.3-2-9.4l-.6-.7c-.1-.2.1-.4.2-.2l.2.2a105.88,105.88,0,0,0-4.1-12.4c-2-2.3-4.2-4.2-5.7-7a.1.1,0,0,1,.1-.1c1.2,1.6,2.3,3.1,3.6,4.6.5.6,1.1,1.1,1.7,1.7a101.89,101.89,0,0,0-6.4-12.8c0-.1,0-.2.1-.2S402.66,328,402.76,328Z" transform="translate(-9.43 -22.74)"/><path class="cls-10" d="M404.36,343c2.5,3.3,5.4,6.4,7.8,9.7.1.1-.1.2-.2.1a51.86,51.86,0,0,1-7.8-9.7C404.06,343,404.26,342.94,404.36,343Z" transform="translate(-9.43 -22.74)"/><path class="cls-10" d="M412.46,353.44l.1.1c.1.1,0,.2-.1.1l-.1-.1C412.26,353.54,412.36,353.44,412.46,353.44Z" transform="translate(-9.43 -22.74)"/><path class="cls-6" d="M390.46,351.34a35.88,35.88,0,0,0,8.3,18.5,20.65,20.65,0,0,0,6.7,5c2.9,1.4,6,2.9,9,4.1a59.58,59.58,0,0,1,3.2,10.7c.1-.3.2-.6.3-1-1.9-15.8-12.7-29.3-26.4-38a.65.65,0,0,0-.9.2C390.46,351,390.36,351.24,390.46,351.34Z" transform="translate(-9.43 -22.74)"/><path class="cls-10" d="M395.16,356c-.1-.1,0-.2.1-.2a52.72,52.72,0,0,1,17.5,20.6c.1.2-.2.4-.3.2-.6-1.1-1.3-2.1-1.9-3.1h0c-3.1-.6-6.1-2.7-8.4-4.7-.1-.1,0-.1.1-.1a15.64,15.64,0,0,0,4,2.7c1.3.6,2.7,1,4,1.5-1.2-1.8-2.4-3.4-3.6-5.1a37.52,37.52,0,0,1-9.5-5s-.1-.1,0-.1.1-.1.1,0h0c2.8,1.6,5.8,3.1,8.8,4.5a80.45,80.45,0,0,0-6.2-6.9c-1.1-.5-2.1-1.1-3.2-1.6-.1,0,0-.2.1-.2a13.35,13.35,0,0,1,2.4,1.1C397.86,358.34,396.56,357.24,395.16,356Z" transform="translate(-9.43 -22.74)"/><path class="cls-10" d="M395.46,361.54a1,1,0,0,1,.5.4.1.1,0,0,1-.1.1,2.19,2.19,0,0,1-.5-.3C395.26,361.64,395.36,361.44,395.46,361.54Z" transform="translate(-9.43 -22.74)"/><polygon class="cls-14" points="429.93 401.2 392.23 401.2 395.23 368.6 395.93 361.4 426.23 361.4 426.83 368.6 429.93 401.2"/><polygon class="cls-10" points="426.83 368.6 395.23 368.6 395.93 361.4 426.23 361.4 426.83 368.6"/><rect class="cls-14" x="394.13" y="356.3" width="33.9" height="7.1"/></g><path class="cls-18" d="M-44.52-371.84" transform="translate(-9.43 -22.74)"/><path class="cls-19" d="M701.64,490.67" transform="translate(-9.43 -22.74)"/></svg>