<svg id="Layer_1" data-name="Layer 1" xmlns="http://www.w3.org/2000/svg" xmlns:xlink="http://www.w3.org/1999/xlink" viewBox="0 0 468.68 458.91"><defs><style>.cls-1,.cls-10,.cls-11,.cls-12,.cls-13,.cls-14,.cls-15,.cls-23,.cls-27,.cls-5,.cls-8,.cls-9{fill:none;}.cls-2{fill:url(#linear-gradient);}.cls-18,.cls-3{fill:#f1e913;}.cls-19,.cls-25,.cls-4{fill:#fff;}.cls-4{opacity:0.7;isolation:isolate;}.cls-10,.cls-11,.cls-12,.cls-13,.cls-14,.cls-15,.cls-16,.cls-17,.cls-18,.cls-19,.cls-23,.cls-26,.cls-27,.cls-28,.cls-5,.cls-6,.cls-8,.cls-9{stroke:#273339;}.cls-5,.cls-6,.cls-7{stroke-miterlimit:10;}.cls-16,.cls-17,.cls-18,.cls-19,.cls-23,.cls-26,.cls-28,.cls-5,.cls-6,.cls-7{stroke-width:0.81px;}.cls-17,.cls-20,.cls-6,.cls-7{fill:#273339;}.cls-7{stroke:#fff;}.cls-8{stroke-miterlimit:10;stroke-width:0.81px;}.cls-9{stroke-miterlimit:10;stroke-width:0.81px;}.cls-10{stroke-miterlimit:10;stroke-width:0.81px;}.cls-11{stroke-miterlimit:10;stroke-width:0.81px;}.cls-12{stroke-miterlimit:10.01;stroke-width:0.81px;}.cls-13{stroke-miterlimit:10;stroke-width:0.81px;}.cls-14{stroke-miterlimit:10;stroke-width:0.81px;}.cls-15{stroke-miterlimit:10;stroke-width:0.81px;}.cls-16{fill:#717171;}.cls-16,.cls-17,.cls-18,.cls-19,.cls-23,.cls-26,.cls-27,.cls-28{stroke-linecap:round;stroke-linejoin:round;}.cls-21{clip-path:url(#clip-path);}.cls-22{fill:#acacac;}.cls-24{fill:#5e5f5f;}.cls-26{fill:#b3b3b3;}.cls-27{stroke-width:1.61px;}.cls-28{fill:#858585;}</style><linearGradient id="linear-gradient" x1="14.47" y1="246.43" x2="483.15" y2="246.43" gradientUnits="userSpaceOnUse"><stop offset="0" stop-color="#f0e90d" stop-opacity="0.1"/><stop offset="0.47" stop-color="#f0e90d" stop-opacity="0.7"/><stop offset="0.88" stop-color="#f0e90d"/></linearGradient><clipPath id="clip-path" transform="translate(-14.47 -16.97)"><ellipse class="cls-1" cx="310.44" cy="407.53" rx="41.87" ry="8.54"/></clipPath></defs><path class="cls-2" d="M61,403c47.66,21.86,99.48-49.17,150-24,33.4,16.64,22.43,52.83,57,78,54.24,39.49,169.11,14,202-48,22.42-42.23-12.77-64.6-13-160-.26-108.38,45-146.29,17-189-24.94-38-88-49.37-134.78-39.82-80.48,16.42-75.89,89-187.44,153.55C83.56,213.21,49.45,206.12,28,246-.31,298.61,18.24,383.39,61,403Z" transform="translate(-14.47 -16.97)"/><g id="freepik--background-simple--inject-1"><path class="cls-3" d="M332.27,115.19s-60.92-16.94-121.09,17.32S120.37,230.64,94.05,281.9,82.31,383.37,127.91,404.45,204.85,389.89,269,385.24s81.4,2.91,134.89-32.58S467.59,238.76,426,183,332.27,115.19,332.27,115.19Z" transform="translate(-14.47 -16.97)"/><path class="cls-4" d="M332.27,115.19s-60.92-16.94-121.09,17.32S120.37,230.64,94.05,281.9,82.31,383.37,127.91,404.45,204.85,389.89,269,385.24s81.4,2.91,134.89-32.58S467.59,238.76,426,183,332.27,115.19,332.27,115.19Z" transform="translate(-14.47 -16.97)"/></g><g id="freepik--Speakers--inject-1"><path class="cls-5" d="M366.31,288.88c-15.3-15.81-14.22-40.32,2.42-54.89" transform="translate(-14.47 -16.97)"/><path class="cls-5" d="M427.38,288.73c-13.85,14.45-36.87,17-53.91,6" transform="translate(-14.47 -16.97)"/><path class="cls-5" d="M437.51,256.32a37.14,37.14,0,0,1-2.09,20" transform="translate(-14.47 -16.97)"/><path class="cls-5" d="M374.62,229.7c19.25-11.56,44.77-6.19,57,12a38.33,38.33,0,0,1,4.33,8.6" transform="translate(-14.47 -16.97)"/><ellipse class="cls-5" cx="382.31" cy="245.61" rx="35.66" ry="33.67"/><path class="cls-6" d="M421.28,251.44c-6.56-12.75-22.83-18.07-36.34-11.88s-19.14,21.55-12.58,34.31a26,26,0,0,0,3.37,5C379.11,274,394.83,253.81,421.28,251.44Z" transform="translate(-14.47 -16.97)"/><path class="cls-7" d="M396.78,235c-16.13,0-29.2,12.34-29.2,27.56s13.07,27.57,29.2,27.57S426,277.81,426,262.58,412.9,235,396.78,235Zm0,51.68c-14.13,0-25.58-10.81-25.58-24.15s11.45-24.15,25.58-24.15,25.57,10.82,25.57,24.15v0c0,13.34-11.45,24.15-25.57,24.15Z" transform="translate(-14.47 -16.97)"/><ellipse class="cls-5" cx="382.31" cy="245.61" rx="19.3" ry="18.22"/><ellipse class="cls-5" cx="382.31" cy="245.61" rx="13.9" ry="13.12"/><ellipse class="cls-7" cx="382.31" cy="245.61" rx="7.46" ry="7.05"/><path class="cls-5" d="M376,203.61a25.58,25.58,0,0,1,1.66-37.49" transform="translate(-14.47 -16.97)"/><path class="cls-5" d="M417.68,203.51a29.41,29.41,0,0,1-36.82,4.12" transform="translate(-14.47 -16.97)"/><path class="cls-5" d="M424.61,181.34a24.91,24.91,0,0,1,.36,4.31,25.23,25.23,0,0,1-1.79,9.39" transform="translate(-14.47 -16.97)"/><path class="cls-5" d="M381.64,163.18c13.14-7.89,30.57-4.23,38.93,8.18a26.26,26.26,0,0,1,3,5.92" transform="translate(-14.47 -16.97)"/><ellipse class="cls-8" cx="382.31" cy="168.67" rx="24.37" ry="23.01"/><path class="cls-6" d="M413.51,178c-4.44-8.73-15.53-12.41-24.78-8.22s-13.16,14.67-8.72,23.4a17.78,17.78,0,0,0,2.38,3.53C384.71,193.45,395.45,179.65,413.51,178Z" transform="translate(-14.47 -16.97)"/><path class="cls-7" d="M396.78,166.81c-11,0-19.89,8.46-19.87,18.84s9,18.77,19.95,18.75,19.86-8.43,19.86-18.79-8.91-18.8-19.9-18.8Zm0,35.34c-9.66,0-17.48-7.39-17.48-16.5s7.82-16.5,17.48-16.5,17.47,7.39,17.47,16.5-7.82,16.5-17.47,16.5Z" transform="translate(-14.47 -16.97)"/><ellipse class="cls-9" cx="382.31" cy="168.65" rx="13.19" ry="12.45"/><ellipse class="cls-5" cx="382.31" cy="168.68" rx="9.5" ry="8.97"/><path class="cls-7" d="M401.88,185.65a5.11,5.11,0,1,1-5.1-4.82h0A5,5,0,0,1,401.88,185.65Z" transform="translate(-14.47 -16.97)"/><path class="cls-5" d="M127.15,203.61a25.59,25.59,0,0,1,1.66-37.49" transform="translate(-14.47 -16.97)"/><path class="cls-5" d="M168.87,203.51A29.42,29.42,0,0,1,132,207.63" transform="translate(-14.47 -16.97)"/><path class="cls-5" d="M175.79,181.34a25.36,25.36,0,0,1-1.43,13.7" transform="translate(-14.47 -16.97)"/><path class="cls-5" d="M132.82,163.18c13.15-7.89,30.57-4.23,38.93,8.18a25.46,25.46,0,0,1,3,5.92" transform="translate(-14.47 -16.97)"/><ellipse class="cls-10" cx="133.49" cy="168.68" rx="24.37" ry="23.01"/><path class="cls-6" d="M164.7,178c-4.44-8.73-15.54-12.41-24.79-8.22s-13.15,14.67-8.71,23.4a17.36,17.36,0,0,0,2.38,3.53C135.89,193.45,146.63,179.65,164.7,178Z" transform="translate(-14.47 -16.97)"/><path class="cls-7" d="M148,166.81c-11,0-19.89,8.46-19.86,18.84s9,18.77,19.94,18.75,19.87-8.43,19.87-18.79S159,166.81,148,166.81Zm0,35.34c-9.65,0-17.47-7.39-17.47-16.5s7.82-16.5,17.47-16.5,17.48,7.39,17.48,16.5-7.83,16.5-17.48,16.5Z" transform="translate(-14.47 -16.97)"/><ellipse class="cls-11" cx="133.49" cy="168.68" rx="13.19" ry="12.45"/><ellipse class="cls-5" cx="133.49" cy="168.68" rx="9.5" ry="8.97"/><path class="cls-7" d="M153.06,185.65a5.11,5.11,0,1,1-5.1-4.82,5,5,0,0,1,5.1,4.82Z" transform="translate(-14.47 -16.97)"/><path class="cls-5" d="M376,356.86a25.59,25.59,0,0,1,1.66-37.5" transform="translate(-14.47 -16.97)"/><path class="cls-5" d="M417.68,356.76a29.41,29.41,0,0,1-36.82,4.11" transform="translate(-14.47 -16.97)"/><path class="cls-5" d="M424.61,334.58a24.83,24.83,0,0,1,.36,4.31,25.23,25.23,0,0,1-1.79,9.39" transform="translate(-14.47 -16.97)"/><path class="cls-5" d="M381.64,316.42c13.14-7.89,30.57-4.23,38.93,8.18a26.26,26.26,0,0,1,3,5.92" transform="translate(-14.47 -16.97)"/><ellipse class="cls-12" cx="382.1" cy="320.91" rx="24.4" ry="23.04"/><path class="cls-6" d="M413.51,331.28c-4.44-8.74-15.53-12.42-24.78-8.23s-13.16,14.67-8.72,23.4a17.49,17.49,0,0,0,2.38,3.53C384.71,346.69,395.45,332.9,413.51,331.28Z" transform="translate(-14.47 -16.97)"/><path class="cls-7" d="M396.78,320.05c-11,0-20,8.43-20,18.84s8.93,18.84,19.95,18.85,20-8.43,20-18.84h0C416.72,328.49,407.79,320.05,396.78,320.05Zm0,35.34c-9.66,0-17.48-7.39-17.48-16.5s7.82-16.5,17.48-16.5,17.47,7.38,17.47,16.5-7.82,16.5-17.47,16.5Z" transform="translate(-14.47 -16.97)"/><ellipse class="cls-13" cx="382.28" cy="321.9" rx="13.19" ry="12.45"/><ellipse class="cls-5" cx="382.31" cy="321.92" rx="9.5" ry="8.97"/><path class="cls-7" d="M401.88,338.89a5.11,5.11,0,1,1-5.1-4.82h0A5,5,0,0,1,401.88,338.89Z" transform="translate(-14.47 -16.97)"/><path class="cls-5" d="M127.15,356.86a25.59,25.59,0,0,1,1.66-37.5" transform="translate(-14.47 -16.97)"/><path class="cls-5" d="M168.87,356.76A29.42,29.42,0,0,1,132,360.87" transform="translate(-14.47 -16.97)"/><path class="cls-5" d="M175.79,334.58a25.36,25.36,0,0,1-1.43,13.7" transform="translate(-14.47 -16.97)"/><path class="cls-5" d="M132.82,316.42c13.15-7.89,30.57-4.23,38.93,8.18a25.46,25.46,0,0,1,3,5.92" transform="translate(-14.47 -16.97)"/><ellipse class="cls-14" cx="133.49" cy="321.93" rx="24.37" ry="23.01"/><path class="cls-6" d="M164.7,331.28c-4.44-8.74-15.54-12.42-24.79-8.23s-13.15,14.67-8.71,23.4a17.09,17.09,0,0,0,2.38,3.53C135.89,346.69,146.63,332.9,164.7,331.28Z" transform="translate(-14.47 -16.97)"/><path class="cls-7" d="M148,320.05c-11,0-20,8.43-20,18.84s8.92,18.84,19.94,18.85,20-8.43,20-18.84h0C167.91,328.49,159,320.05,148,320.05Zm0,35.34c-9.65,0-17.47-7.39-17.47-16.5s7.82-16.5,17.47-16.5,17.48,7.38,17.48,16.5-7.83,16.5-17.48,16.5Z" transform="translate(-14.47 -16.97)"/><ellipse class="cls-15" cx="133.49" cy="321.93" rx="13.19" ry="12.45"/><ellipse class="cls-5" cx="133.49" cy="321.92" rx="9.5" ry="8.97"/><path class="cls-7" d="M153.06,338.89a5.11,5.11,0,1,1-5.1-4.82h0A5,5,0,0,1,153.06,338.89Z" transform="translate(-14.47 -16.97)"/><path class="cls-5" d="M117.5,288.88c-15.31-15.81-14.23-40.32,2.41-54.89" transform="translate(-14.47 -16.97)"/><path class="cls-5" d="M178.56,288.73c-13.85,14.45-36.87,17-53.91,6" transform="translate(-14.47 -16.97)"/><path class="cls-5" d="M188.69,256.32a37.14,37.14,0,0,1-2.09,20" transform="translate(-14.47 -16.97)"/><path class="cls-5" d="M125.81,229.7c19.23-11.57,44.76-6.23,57,11.93a37.76,37.76,0,0,1,4.36,8.65" transform="translate(-14.47 -16.97)"/><ellipse class="cls-5" cx="133.49" cy="245.61" rx="35.66" ry="33.67"/><path class="cls-6" d="M172.46,251.44c-6.56-12.75-22.82-18.07-36.33-11.88S117,261.11,123.55,273.87a25.46,25.46,0,0,0,3.36,5C130.29,274,146,253.81,172.46,251.44Z" transform="translate(-14.47 -16.97)"/><path class="cls-7" d="M148,235c-16.12,0-29.19,12.34-29.19,27.56s13.07,27.57,29.19,27.57,29.19-12.34,29.19-27.57h0C177.15,247.36,164.08,235,148,235Zm0,51.68c-14.13,0-25.58-10.81-25.58-24.15S133.83,238.4,148,238.4s25.58,10.82,25.58,24.15v0c0,13.34-11.45,24.15-25.58,24.15Z" transform="translate(-14.47 -16.97)"/><ellipse class="cls-5" cx="133.49" cy="245.61" rx="19.3" ry="18.22"/><ellipse class="cls-5" cx="133.49" cy="245.61" rx="13.9" ry="13.12"/><ellipse class="cls-7" cx="133.49" cy="245.61" rx="7.46" ry="7.05"/></g><g id="freepik--Device--inject-1"><polygon class="cls-16" points="397.88 409.19 106.75 409.19 146.07 381.48 358.56 381.48 397.88 409.19"/><rect class="cls-17" x="106.75" y="409.19" width="291.24" height="7.3"/><polygon class="cls-16" points="397.88 409.19 106.75 409.19 146.07 381.48 358.56 381.48 397.88 409.19"/><polygon class="cls-17" points="138.93 403.29 134.1 403.29 156.03 385.36 159.97 385.36 138.93 403.29"/><polygon class="cls-18" points="150.95 393.05 146.63 393.05 149.02 391.09 153.24 391.09 150.95 393.05"/><polygon class="cls-17" points="148.11 403.29 143.28 403.29 163.51 385.36 167.44 385.36 148.11 403.29"/><polygon class="cls-18" points="152.55 399.17 147.92 399.17 150.44 396.93 154.96 396.93 152.55 399.17"/><polygon class="cls-17" points="157.29 403.29 152.45 403.29 170.98 385.36 174.91 385.36 157.29 403.29"/><polygon class="cls-18" points="163.39 397.08 158.87 397.08 161.08 394.94 165.5 394.94 163.39 397.08"/><polygon class="cls-17" points="166.46 403.29 161.63 403.29 178.45 385.36 182.39 385.36 166.46 403.29"/><polygon class="cls-18" points="175.56 393.05 171.24 393.05 173.08 391.09 177.3 391.09 175.56 393.05"/><polygon class="cls-17" points="175.64 403.29 170.81 403.29 185.93 385.36 189.87 385.36 175.64 403.29"/><polygon class="cls-19" points="183.77 393.05 179.45 393.05 181.1 391.09 185.32 391.09 183.77 393.05"/><polygon class="cls-17" points="198.45 403.29 193.62 403.29 204.51 385.36 208.44 385.36 198.45 403.29"/><polygon class="cls-18" points="200.47 399.66 195.83 399.66 197.2 397.4 201.73 397.4 200.47 399.66"/><polygon class="cls-17" points="207.63 403.29 202.79 403.29 211.99 385.36 215.92 385.36 207.63 403.29"/><polygon class="cls-18" points="213.64 390.29 209.46 390.29 210.4 388.45 214.49 388.45 213.64 390.29"/><polygon class="cls-17" points="216.8 403.29 211.98 403.29 219.46 385.36 223.4 385.36 216.8 403.29"/><polygon class="cls-18" points="220.12 394.27 215.74 394.27 216.58 392.26 220.86 392.26 220.12 394.27"/><polygon class="cls-17" points="225.99 403.29 221.15 403.29 226.93 385.36 230.87 385.36 225.99 403.29"/><polygon class="cls-18" points="227.54 397.58 222.99 397.58 223.69 395.42 228.13 395.42 227.54 397.58"/><polygon class="cls-17" points="235.17 403.29 230.33 403.29 234.41 385.36 238.34 385.36 235.17 403.29"/><polygon class="cls-18" points="235.63 400.65 230.93 400.65 231.46 398.34 236.04 398.34 235.63 400.65"/><path class="cls-18" d="M259.45,418.13c-.07.79-1.26,1.44-2.69,1.44s-2.49-.65-2.38-1.44,1.3-1.4,2.68-1.4S259.5,417.35,259.45,418.13Z" transform="translate(-14.47 -16.97)"/><path class="cls-18" d="M395.65,418.13c1.08.79.83,1.44-.61,1.44a8.58,8.58,0,0,1-4.46-1.44c-1-.78-.71-1.4.66-1.4A8.68,8.68,0,0,1,395.65,418.13Z" transform="translate(-14.47 -16.97)"/><path class="cls-18" d="M203.53,418.13a4.68,4.68,0,0,1-3.53,1.44c-1.43,0-2.1-.65-1.53-1.44a4.76,4.76,0,0,1,3.51-1.4C203.32,416.73,204,417.35,203.53,418.13Z" transform="translate(-14.47 -16.97)"/><path class="cls-18" d="M207,412.89a4.38,4.38,0,0,1-3.31,1.29c-1.37,0-2-.58-1.5-1.29a4.49,4.49,0,0,1,3.26-1.26C206.79,411.63,207.47,412.19,207,412.89Z" transform="translate(-14.47 -16.97)"/><path class="cls-18" d="M209.68,408.89a4.14,4.14,0,0,1-3.1,1.17c-1.28,0-1.93-.52-1.47-1.17a4.31,4.31,0,0,1,3.09-1.15C209.44,407.74,210.11,408.24,209.68,408.89Z" transform="translate(-14.47 -16.97)"/><path class="cls-18" d="M259.84,413.15c-.06.71-1.2,1.29-2.54,1.29s-2.36-.58-2.27-1.29,1.23-1.27,2.53-1.27S259.93,412.44,259.84,413.15Z" transform="translate(-14.47 -16.97)"/><path class="cls-17" d="M376.26,406.62a.87.87,0,0,0-.41-.32l-10.52-3.55v-3.13h-2.81v2.19l-1.34-.46v-1.73h-2.8v.78l-8.16-2.75v-1h-7.55v3.77h7.55v-1l8.16,2.77v3.79h2.8v-2.85l1.34.46v2.39h2.81v-1.45l6.28,2.13h-2v3.79h7.55v-3.79Z" transform="translate(-14.47 -16.97)"/><path class="cls-19" d="M352.3,407.53H339.14a124.85,124.85,0,0,0-28.7-3.53,131.06,131.06,0,0,0-29.68,3.53H268.57l-2.9,5c0,4.7,20,8.55,44.78,8.55s44.79-3.83,44.79-8.55Z" transform="translate(-14.47 -16.97)"/><ellipse class="cls-20" cx="295.97" cy="390.56" rx="41.87" ry="8.54"/><g class="cls-21"><path class="cls-22" d="M290.91,415.09l21.48-8,38.82-1.49c-2.78-2.44-10.68-4.48-21.28-5.62l-18.63,5.32-42.59,2.95C269.88,411.2,278.56,413.76,290.91,415.09Z" transform="translate(-14.47 -16.97)"/></g><ellipse class="cls-23" cx="295.97" cy="390.56" rx="41.87" ry="8.54"/><ellipse class="cls-19" cx="295.97" cy="389.2" rx="16.19" ry="3.3"/><path class="cls-17" d="M314.34,405.34c0,.44-1.75.78-3.9.78s-3.91-.35-3.91-.78,1.75-.78,3.91-.78S314.34,404.9,314.34,405.34Z" transform="translate(-14.47 -16.97)"/></g><g id="freepik--Character--inject-1"><path class="cls-18" d="M217.57,319.18l4.46-17.4s4.1,36,4.59,41.93c.39,4.87-3.45,37.13-4.83,48.46H314l-9.17-49.61,1.45-47.84,5.55,23.49s11.83.46,22-3.41,12.31-7.05,12.31-7.05-22.68-49.67-26.54-56.51-4.1-8.43-4.1-8.43S285.51,231,268.16,222.76l-12.31,1.57s-48.75,19.58-49.71,21.19-13.4,52.72-20.15,63.65c0,0,14.23,7.75,22.93,8.88Z" transform="translate(-14.47 -16.97)"/><ellipse class="cls-24" cx="248.32" cy="274.95" rx="33.56" ry="31.68"/><path class="cls-22" d="M262.23,290.76l-12.55,30.33a35.48,35.48,0,0,0,27.15-.4l-13.9-29.14L275,262.39a35.36,35.36,0,0,0-26,.63Z" transform="translate(-14.47 -16.97)"/><ellipse class="cls-25" cx="248.32" cy="274.94" rx="16.58" ry="15.65"/><path class="cls-24" d="M266,291.91a3.24,3.24,0,1,1-3.24-3.06h0A3.15,3.15,0,0,1,266,291.91Z" transform="translate(-14.47 -16.97)"/><path class="cls-23" d="M255.82,224.31s-6.23,2.51-14.28,5.8v.15c0,12.8,8.2,23.18,18.3,23.18s18.31-10.38,18.31-23.18c0-1-.06-2.06-.16-3.07-3.52-1.56-6.88-3.06-9.86-4.47Z" transform="translate(-14.47 -16.97)"/><line class="cls-23" x1="207.56" y1="284.81" x2="200.02" y2="254.38"/><line class="cls-23" x1="202.25" y1="264.08" x2="192.42" y2="252.27"/><path class="cls-23" d="M306.25,294.72S303,276,303.9,264.59" transform="translate(-14.47 -16.97)"/><path class="cls-23" d="M305.68,291.61s-.89-17.73,2.24-26.62" transform="translate(-14.47 -16.97)"/><path class="cls-26" d="M244.23,211.1s1.21,18.23,1.66,23.5,5.55,14.09,14.72,13.67,12.31-10.26,12.79-13.9,0-22.11,0-22.11-8,6.38-16.89,4.79A30.7,30.7,0,0,1,244.23,211.1Z" transform="translate(-14.47 -16.97)"/><path class="cls-17" d="M273.43,212.24s-8,6.38-16.89,4.78a30.7,30.7,0,0,1-12.31-5.92s.32,4.7.68,10.05c3.82,4.24,8.7,8.11,10.91,8.94,3.61,1.37,9.4.91,12.31-1.56a73.77,73.77,0,0,0,5.5-5.1C273.57,217.79,273.43,212.24,273.43,212.24Z" transform="translate(-14.47 -16.97)"/><path class="cls-26" d="M242.05,157.33s-5.55,3.65-5.55,10,1.93,34.18,3.38,40.1,12.31,15.5,15.93,16.86,9.41.92,12.31-1.56,13.27-11,13.75-21,1.45-23.49,0-31.9-6.76-14.09-13.75-16.4S246.89,152.77,242.05,157.33Z" transform="translate(-14.47 -16.97)"/><path class="cls-17" d="M268.13,153.45c-7-2.28-21.24-.68-26.07,3.88,0,0-5.55,3.65-5.55,10,0,2,.19,6.06.49,10.9l.47.27s1-7.75,8-10.48,17.13,1.14,22.2.68,9.17-9.57,9.41-7-5.55,7-5.31,7.74,3.87,4.33,7,9.57c1.5,2.5,2.78,4,3.89,4.45a79.11,79.11,0,0,0-.77-13.58C280.43,161.43,275.12,155.73,268.13,153.45Z" transform="translate(-14.47 -16.97)"/><path class="cls-27" d="M243.51,192.19s3.14,2.73,8.2,0" transform="translate(-14.47 -16.97)"/><path class="cls-27" d="M266,192.19s3.14,2.73,8.21,0" transform="translate(-14.47 -16.97)"/><path class="cls-27" d="M242.54,184.67s3.38-4.1,10.13-1.82" transform="translate(-14.47 -16.97)"/><path class="cls-27" d="M265,183.3s4.15-4.78,11.11,0" transform="translate(-14.47 -16.97)"/><path class="cls-23" d="M252.67,200.16a3.49,3.49,0,0,0,1.22,3.43c1.69,1.14,5.3,3.41,7.46,2.5s5.55-2.05,5.81-3.42l.24-1.36" transform="translate(-14.47 -16.97)"/><path class="cls-23" d="M251.47,207.23s8.2,6.83,18.82,0" transform="translate(-14.47 -16.97)"/><path class="cls-28" d="M231.2,183.4a1.27,1.27,0,0,1-1.3-1.15c0-.56-1-13.68,3.55-21a1.36,1.36,0,0,1,1.82-.35,1.2,1.2,0,0,1,.44,1.59c-4.09,6.65-3.21,19.44-3.21,19.57a1.25,1.25,0,0,1-1.2,1.32h-.1Z" transform="translate(-14.47 -16.97)"/><path class="cls-28" d="M286.61,183.4h-.09a1.25,1.25,0,0,1-1.21-1.31h0c0-.12.88-12.92-3.21-19.57a1.2,1.2,0,0,1,.59-1.66,1.35,1.35,0,0,1,1.68.42c4.49,7.3,3.59,20.42,3.55,21A1.29,1.29,0,0,1,286.61,183.4Z" transform="translate(-14.47 -16.97)"/><path class="cls-28" d="M288.65,166.84a22.84,22.84,0,0,0-5.59-10.18c-3.58-3.85-10-8.28-21.05-9.13a3.35,3.35,0,0,0-.83-.14h-4.61a3.35,3.35,0,0,0-.83.14c-23,1.77-26.6,19.13-26.64,19.32a2.87,2.87,0,0,0,2.34,3.42,3,3,0,0,0,3.62-2.21,1.29,1.29,0,0,0,0-.19c0-.15,3-14.36,23.76-14.72,20.55.35,23.59,14.09,23.72,14.74a3.06,3.06,0,0,0,3.59,2.27,2.9,2.9,0,0,0,2.42-3.31Z" transform="translate(-14.47 -16.97)"/><path class="cls-23" d="M234,198.78s1.16,38.95,5.81,76.81c4.42,36,2.8,87.33-.11,116.11" transform="translate(-14.47 -16.97)"/><path class="cls-23" d="M284.57,198.5s-6.38,62.27-14.81,84.5-19.47,28.8-27.89,15.66" transform="translate(-14.47 -16.97)"/><path class="cls-19" d="M233.38,180.59h-.25c-4.66,0-8.45,4.64-8.45,10.36s3.79,10.37,8.45,10.37h.25Z" transform="translate(-14.47 -16.97)"/><path class="cls-28" d="M234,179.43h1.25A2.67,2.67,0,0,1,238,182v17.81a2.67,2.67,0,0,1-2.75,2.6H234a2.68,2.68,0,0,1-2.76-2.6V182A2.68,2.68,0,0,1,234,179.43Z" transform="translate(-14.47 -16.97)"/><path class="cls-19" d="M286.94,180.59h.25c4.66,0,8.45,4.64,8.45,10.36s-3.79,10.37-8.45,10.37h-.25Z" transform="translate(-14.47 -16.97)"/><path class="cls-28" d="M286.36,202.45h-1.25a2.67,2.67,0,0,1-2.75-2.6V182a2.67,2.67,0,0,1,2.75-2.6h1.25a2.68,2.68,0,0,1,2.76,2.6v17.81A2.68,2.68,0,0,1,286.36,202.45Z" transform="translate(-14.47 -16.97)"/><path class="cls-26" d="M213.08,318.59l-4.2-.55c-4.83-.64-11.38-3.31-16.24-5.57A77.64,77.64,0,0,0,186.2,336c-1.11,9.06-11.61,38.28-13.52,43.29s2.65,7.52,2.9,12.08,8.21,8,8.93,9.11,3.62,1.37,3.13-.91-2.16-4.33-1.92-6.38,1.66-10,1.66-10,2.89,1.36,3.86,2.73-1,5.48-1.93,8.89,1.21,6.61,2.17,6.14,2.9-8,5.07-12.07,1.66-5.69-.24-8-8.69-13-8.69-13S206.2,337.87,209.1,331A107.71,107.71,0,0,0,213.08,318.59Z" transform="translate(-14.47 -16.97)"/><path class="cls-17" d="M192.64,312.47c-.35.75-.73,1.57-1.12,2.56a30.18,30.18,0,0,0,20.9,5.92c.23-.78.45-1.6.66-2.35l-4.2-.55C204.05,317.39,197.5,314.73,192.64,312.47Z" transform="translate(-14.47 -16.97)"/><path class="cls-26" d="M180.16,383.43s.49,9.12,0,11.62,4.35,4.56,5.07,6.61,4.35,3.42,4.59-.69-4.1-7.74-4.1-7.74l2.42-11.17" transform="translate(-14.47 -16.97)"/><line class="cls-23" x1="160.63" y1="367.14" x2="161.12" y2="372.38"/><path class="cls-26" d="M333.76,314.77c-3.76,1.44-11,2.78-14.54,3.27-3.31,4.13-10,15.43-21.14,29.83-6.63,8.62-13.65,13.4-14.38,15.23s-10.47,18.08-12.89,21.72-4.34,5.93-2.65,6.15,2.41.46,5.31-3,7.46-12.52,7.46-12.52-3.86,13.89-4.83,15.94-1.93,3.19-.24,3.87,4.59.23,6.52-3.18S292,374.34,292,374.34s-6,17.32-7,19.14,2.89,2.73,4.09.68,4.51-12.68,5.24-13.37,3-4.44,4.14-9.67c.44-2.06.88-7.61.88-7.61s29.78-24.13,38-32.33S349,318.87,349,315c0-2.22-2-4.7-3.66-6.48C344,309.72,340.82,312.07,333.76,314.77Z" transform="translate(-14.47 -16.97)"/><path class="cls-17" d="M346,309.25l-.68-.73c-1.29,1.2-4.48,3.55-11.54,6.27-3.76,1.44-11,2.78-14.54,3.26-.63.79-1.39,1.86-2.28,3.14C324,321.18,337.29,319.63,346,309.25Z" transform="translate(-14.47 -16.97)"/><path class="cls-23" d="M275.88,395.3s7-11,9.66-21.19" transform="translate(-14.47 -16.97)"/></g><g id="freepik--musical-notes--inject-1"><path class="cls-20" d="M335.13,192.6a46.51,46.51,0,0,1-4.75-2.61c-2.32-1.46-3.58-.78-3.28.22s-1.66,7.83-4.6,11.44-2.69-.51-4.92-1.23-3.44,1.38-1.73,3.79,5.58,1.67,6.09.2a86.24,86.24,0,0,1,5.21-9.52c1.07-1.57,1.87-1.49,3.82.34a7.57,7.57,0,0,0,6.58,2s-4,7.22-5.21,9.52-2.23,5.25-4,5.19-3.81-3.43-5.25-1.35,2.84,5.53,5.13,4.54,3.7-5.52,5.4-8.66,6.64-11.39,6.34-12.53S337.33,194,335.13,192.6Z" transform="translate(-14.47 -16.97)"/><path class="cls-20" d="M319.46,176.15a35.41,35.41,0,0,1-3.37-1.84c-1.66-1-2.53-.54-2.31.15s-1.17,5.53-3.26,8.09-1.9-.36-3.48-.86-2.43,1-1.21,2.67,3.94,1.18,4.3.14a60.14,60.14,0,0,1,3.68-6.73c.77-1.1,1.33-1.06,2.71.24a5.33,5.33,0,0,0,4.65,1.44s-2.83,5.1-3.68,6.73-1.58,3.71-2.86,3.66-2.7-2.41-3.71-.94,2,3.91,3.63,3.2,2.62-3.92,3.82-6.12,4.69-8,4.48-8.88S321,177.1,319.46,176.15Z" transform="translate(-14.47 -16.97)"/><path class="cls-20" d="M220.53,203.92c-1.15-.56-2.27-1.17-3.36-1.84-1.66-1-2.49-.54-2.31.15s-1.17,5.52-3.26,8.09-1.9-.37-3.48-.87-2.43,1-1.22,2.67,3.95,1.19,4.31.14a60.9,60.9,0,0,1,3.68-6.72c.76-1.11,1.33-1.06,2.71.24a5.33,5.33,0,0,0,4.65,1.43s-2.83,5.11-3.68,6.74-1.58,3.71-2.86,3.66-2.7-2.42-3.71-1,2,3.91,3.63,3.21,2.62-3.92,3.82-6.13,4.69-8.05,4.48-8.88S222.09,204.87,220.53,203.92Z" transform="translate(-14.47 -16.97)"/></g></svg>