<svg id="Layer_1" data-name="Layer 1" xmlns="http://www.w3.org/2000/svg" xmlns:xlink="http://www.w3.org/1999/xlink" viewBox="0 0 456.44 386.62"><defs><style>.cls-1{fill:url(#linear-gradient);}.cls-11,.cls-2,.cls-5{fill:#f1e913;}.cls-3,.cls-6,.cls-9{fill:#fff;}.cls-3{opacity:0.8;isolation:isolate;}.cls-4,.cls-8{fill:#273339;}.cls-11,.cls-14,.cls-4,.cls-5,.cls-6,.cls-7{stroke:#273339;}.cls-10,.cls-14,.cls-15,.cls-4,.cls-5,.cls-6,.cls-7{stroke-miterlimit:10;stroke-width:0.78px;}.cls-10,.cls-15,.cls-7{fill:none;}.cls-10{stroke:#fff;}.cls-11{stroke-miterlimit:10;stroke-width:0.78px;}.cls-12{fill:#d9d9d8;}.cls-13{fill:#ededee;}.cls-14{fill:#7e7e7e;}.cls-15{stroke:#858585;}</style><linearGradient id="linear-gradient" x1="27.56" y1="257.69" x2="484" y2="257.69" gradientUnits="userSpaceOnUse"><stop offset="0" stop-color="#f0e90d" stop-opacity="0.1"/><stop offset="0.47" stop-color="#f0e90d" stop-opacity="0.7"/><stop offset="0.88" stop-color="#f0e90d"/></linearGradient></defs><path class="cls-1" d="M43,423.67c21.14,28.32,78.39,27.91,192.89,27.08,139.5-1,209.24-1.51,233.92-37.49C527,329.85,402.66,63.55,254.34,64.38,102.79,65.23-16,344.62,43,423.67Z" transform="translate(-27.56 -64.38)"/><g id="freepik--background-simple--inject-1"><path class="cls-2" d="M432.8,343.67c23.36-41.85,25-97.62,8.81-142.32-13.88-38.49-44.79-67.87-80.48-85.34-41.41-20.28-90.76-26.32-135.23-13.52-11.68,3.37-23.07,6.46-34.09,12-45.18,22.67-36.44,78.55-52.31,98-13.34,16.35-38.84,11.53-54.92,24.07-43.34,33.83-18.25,121,28.27,152.26C167,425.22,375,447.31,432.8,343.67Z" transform="translate(-27.56 -64.38)"/><path class="cls-3" d="M432.8,343.67c23.36-41.85,25-97.62,8.81-142.32-13.88-38.49-44.79-67.87-80.48-85.34-41.41-20.28-90.76-26.32-135.23-13.52-11.68,3.37-23.07,6.46-34.09,12-45.18,22.67-36.44,78.55-52.31,98-13.34,16.35-38.84,11.53-54.92,24.07-43.34,33.83-18.25,121,28.27,152.26C167,425.22,375,447.31,432.8,343.67Z" transform="translate(-27.56 -64.38)"/></g><g id="freepik--Plants--inject-1"><path class="cls-2" d="M74,179.85c2.43-.08,7.27-2.26,7.28-2.26s-2.6-2.38-2.79-2.51c-2.16-1.52-7.35-3.34-9.94-1.84a3,3,0,0,0-.89,4.49,3.33,3.33,0,0,0,.25.28C69.3,179.5,72,179.92,74,179.85Z" transform="translate(-27.56 -64.38)"/><path class="cls-2" d="M124.12,159.76c.06,0-.68-3.24-.75-3.44-.83-2.32-4-6.36-7.14-6.36a3.44,3.44,0,0,0-3.57,3.32l0,.32c.23,1.92,2.17,3.56,4,4.5C118.71,159.22,124.11,159.76,124.12,159.76Z" transform="translate(-27.56 -64.38)"/><path class="cls-2" d="M130.18,137.93c-2.92.92-4.39,5.67-4.3,8.1,0,.21.55,3.49.6,3.47h0c-.23.73-.48,1.56-.73,2.44-.44,1.63-.93,3.48-1.29,5.53a51.41,51.41,0,0,0-.83,6.65,37.34,37.34,0,0,0,.27,7.47v.09c-.38-.73-1.52-2.72-1.66-2.87-1.51-2-5.8-5.19-8.79-4.48a3.19,3.19,0,0,0-2.45,4,2.33,2.33,0,0,0,.14.33c.82,1.79,3.15,2.92,5.15,3.43,2.23.56,7.23-.09,7.63-.15a51.47,51.47,0,0,0,1.87,7.38c.45,1.45,1,2.84,1.49,4.27-.35-.62-.67-1.17-.72-1.25-1.52-2-5.8-5.19-8.8-4.47a3.18,3.18,0,0,0-2.45,4c0,.11.09.23.14.34.79,1.79,3.16,2.91,5.15,3.42s6.29,0,7.45-.12c.22.55.42,1.09.63,1.63,1,2.61,2.05,5.21,3,7.79.32.9.6,1.8.89,2.7-.31-.54-.59-1-.64-1.07-1.5-2-5.79-5.19-8.78-4.47a3.18,3.18,0,0,0-2.47,4,2.17,2.17,0,0,0,.15.35c.83,1.8,3.16,2.92,5.15,3.42s5.88.07,7.22-.09c.27.93.53,1.87.73,2.78.12.63.3,1.23.38,1.87s.2,1.24.29,1.86c.14,1.19.29,2.42.39,3.58.07.82.13,1.59.19,2.37-.31-.91-1-2.67-1-2.81a13.1,13.1,0,0,0-4.74-4.76,3.58,3.58,0,0,0-.41-.63,4,4,0,0,0-5.08-.93l-.32.2c-2.35,1.78-1.78,6.67-.7,8.92.07.13.94,1.5,1.5,2.36l-1.26-1.38c-.83-.93-1.75-1.84-2.7-2.81L119,209.09c-.47-.48-1-.92-1.56-1.39-1.24-1-2.55-2.07-3.9-3.08.92-.66,4.14-3.06,5.1-4.69s1.6-3.91.64-5.64a3.88,3.88,0,0,0-4.84-1.62l-.37.16c-2.63,1.46-2.9,6.36-2.22,8.74,0,.15.73,1.79,1.14,2.69l-2.48-1.77c-2.49-1.67-5-3.29-7.51-4.92l-2.3-1.51c.33-.23,4.26-3,5.31-4.84.93-1.62,1.6-3.92.64-5.65a3.92,3.92,0,0,0-4.88-1.6,1.66,1.66,0,0,0-.33.15c-2.63,1.45-2.91,6.35-2.23,8.74,0,.18,1.06,2.54,1.35,3.13-1.66-1.1-3.31-2.22-5-3.39a63.57,63.57,0,0,1-6.13-5c.16-.11,4.27-3,5.35-4.86.92-1.62,1.59-3.92.63-5.65a3.89,3.89,0,0,0-4.85-1.61,2.72,2.72,0,0,0-.35.16c-2.63,1.45-2.9,6.35-2.23,8.73,0,.16.83,2,1.2,2.82l-.15.08a42.76,42.76,0,0,1-5-6c-.83-1.16-1.54-2.3-2.21-3.43.83-.46,4.59-2.64,5.8-4.23s2.08-3.74,1.34-5.55A3.8,3.8,0,0,0,84.35,166a2.3,2.3,0,0,0-.34.12c-2.8,1.18-3.69,6-3.31,8.44,0,.13.39,1.46.68,2.4-.29-.51-.6-1-.82-1.53-1-1.86-1.83-3.64-2.49-5.18-.39-.89-.72-1.7-1-2.46.54-.83,2.68-4.21,2.89-6.06s-.12-4.17-1.73-5.47a4,4,0,0,0-5.2,0,3.07,3.07,0,0,0-.25.26c-1.86,2.18-.1,6.84,1.49,8.83.14.18,2.65,2.64,2.68,2.6v-.05c.27.73.57,1.53.92,2.39.65,1.57,1.41,3.35,2.38,5.23a58.47,58.47,0,0,0,3.47,6,42.46,42.46,0,0,0,4.91,6.1l.08.07c-.77-.43-3-1.53-3.16-1.61-2.54-1-8.1-1.51-10.14.54a3,3,0,0,0,.51,4.54,2.2,2.2,0,0,0,.32.21c1.78,1.11,4.46.9,6.43.36,2.23-.62,6-3.59,6.29-3.83a61.65,61.65,0,0,0,6.12,5.22c1.27,1,2.6,1.91,3.93,2.84-.69-.35-1.29-.65-1.38-.68-2.55-1-8.1-1.52-10.15.53a3,3,0,0,0,.51,4.54,3.53,3.53,0,0,0,.32.21c1.78,1.11,4.46.9,6.43.36s5.28-3,6.13-3.7l1.5,1.07c2.49,1.68,5,3.35,7.35,5,.83.6,1.66,1.22,2.49,1.84-.61-.31-1.12-.56-1.2-.59-2.54-1-8.1-1.52-10.15.53a3,3,0,0,0,.51,4.54l.32.21c1.78,1.11,4.47.9,6.44.35s5-2.79,6-3.57c.82.65,1.6,1.3,2.35,2,.5.46,1,.88,1.48,1.37l1.36,1.42c.83.93,1.75,1.88,2.57,2.81.58.63,1.11,1.25,1.66,1.88-.83-.61-2.48-1.77-2.62-1.85-2.36-1.29-7.75-2.58-10.12-.83a3,3,0,0,0-.28,4.57l.28.24c1.56,1.34,4.25,1.45,6.3,1.21,2.25-.31,6.32-2.63,6.84-2.92.88,1,1.73,2,2.48,3,1.34,1.64,2.54,3.16,3.58,4.53l1.8-.76c-1.13-1.42-2.43-3-3.9-4.72-.89-1.05-1.88-2.18-2.89-3.28a37,37,0,0,0,3-3.2c2.18.73,6.72.79,7.3.79.09,1.29.17,2.55.22,3.73.08,1.84.13,3.52.13,5.06l1.94-.82c0-1.33-.13-2.78-.24-4.32-.08-1.31-.21-2.71-.36-4.14.58-.12,5.3-1.18,7.09-2.43s3.32-3,3.32-4.9a3.47,3.47,0,0,0-3.66-3.25h-.38c-3.07.35-5.66,4.71-6.17,7.1,0,.13-.17,1.7-.24,2.69-.05-.59-.1-1.16-.18-1.75-.13-1.2-.3-2.39-.49-3.65-.1-.61-.22-1.23-.34-1.86s-.29-1.27-.43-1.91c-.37-1.45-.83-3-1.32-4.45,1.18-.11,5.39-.53,7.19-1.46s3.8-2.49,4.08-4.37a3.29,3.29,0,0,0-3-3.7l-.39,0c-3.11-.07-6.41,3.89-7.33,6.19-.06.14-.51,1.85-.74,2.79-.3-.88-.6-1.78-.95-2.68-1-2.57-2.09-5.16-3.16-7.74-.33-.79-.66-1.58-1-2.38.42,0,5.44-.44,7.45-1.45,1.79-.91,3.8-2.5,4.08-4.41a3.31,3.31,0,0,0-3.05-3.7l-.38,0c-3.1-.07-6.41,3.9-7.33,6.19-.07.17-.71,2.63-.83,3.27-.71-1.74-1.4-3.48-2-5.23a50.26,50.26,0,0,1-1.95-7.16c.2,0,5.43-.43,7.5-1.46,1.79-.9,3.8-2.49,4.08-4.37a3.31,3.31,0,0,0-3-3.7,2.56,2.56,0,0,0-.39,0c-3.1-.08-6.41,3.88-7.33,6.18-.06.15-.54,2-.75,2.91h-.23a36.36,36.36,0,0,1-.45-7.51,32.93,32.93,0,0,1,.31-3.93c1,0,5.48,0,7.45-.73s4.08-2.11,4.59-4a3.2,3.2,0,0,0-2.55-4l-.38-.07c-3.07-.37-6.85,3.25-8,5.45-.07.11-.58,1.4-.94,2.33.08-.57.15-1.16.23-1.71.32-2,.76-3.89,1.16-5.53.23-.92.47-1.76.7-2.55,1-.43,4.87-2.18,6.2-3.64s2.48-3.53,2-5.39a3.68,3.68,0,0,0-4.34-2.49Z" transform="translate(-27.56 -64.38)"/><path class="cls-2" d="M449.62,286.09c-2.42.15-7.51-1.54-7.52-1.54s2.3-2.62,2.49-2.76c2-1.72,6.89-4,9.64-2.79a3,3,0,0,1,1.45,4.38,3,3,0,0,1-.2.29C454.27,285.29,451.68,286,449.62,286.09Z" transform="translate(-27.56 -64.38)"/><path class="cls-2" d="M397.31,270.94c-.06,0,.27-3.28.32-3.5.56-2.38,3.23-6.7,6.31-7a3.55,3.55,0,0,1,3.95,2.95,2,2,0,0,1,0,.35c0,1.92-1.71,3.73-3.35,4.85C402.64,269.89,397.31,270.94,397.31,270.94Z" transform="translate(-27.56 -64.38)"/><path class="cls-2" d="M388.59,249.83c3,.63,5.06,5.21,5.28,7.63,0,.21-.11,3.52-.17,3.5h-.06c.33.73.67,1.5,1,2.36.64,1.58,1.35,3.37,2,5.37a51.5,51.5,0,0,1,1.66,6.55,37.43,37.43,0,0,1,.66,7.46v.09c.29-.73,1.18-2.85,1.27-3,1.25-2.19,5.11-5.72,8.18-5.29a3.28,3.28,0,0,1,2.93,3.77c0,.11-.06.22-.09.33-.57,1.86-2.78,3.21-4.7,3.9-2.15.78-7.21.6-7.61.59a51,51,0,0,1-.88,7.58c-.28,1.46-.61,2.92-1,4.37.28-.65.53-1.23.57-1.3,1.25-2.18,5.12-5.72,8.19-5.29a3.26,3.26,0,0,1,2.92,3.76,1.89,1.89,0,0,1-.09.34c-.56,1.86-2.78,3.2-4.69,3.89s-6.25.63-7.39.61l-.42,1.68c-.69,2.68-1.39,5.36-2,8-.21.93-.38,1.85-.55,2.78.24-.58.45-1.06.49-1.13,1.26-2.18,5.12-5.72,8.19-5.29a3.27,3.27,0,0,1,2.93,3.76,2.46,2.46,0,0,1-.09.34c-.57,1.86-2.78,3.21-4.7,3.89s-5.84.64-7.18.61c-.15.95-.29,1.9-.39,2.83,0,.64-.14,1.25-.14,1.89s0,1.26-.06,1.88c0,1.2,0,2.43.06,3.64,0,.81.07,1.59.1,2.37.2-.94.63-2.75.68-2.92a12.76,12.76,0,0,1,4.14-5.18,3.39,3.39,0,0,1,.33-.66,3.92,3.92,0,0,1,4.92-1.44,3.65,3.65,0,0,1,.34.18c2.56,1.54,2.59,6.46,1.81,8.79,0,.14-.74,1.58-1.2,2.49.36-.5.7-1,1.08-1.46.74-1,1.51-2,2.34-3.06l1.26-1.51c.42-.52.92-1,1.39-1.53,1.09-1.17,2.27-2.3,3.49-3.43-1-.57-4.52-2.64-5.66-4.17s-2.07-3.75-1.33-5.55a3.78,3.78,0,0,1,4.61-2.07l.36.12c2.8,1.18,3.68,6,3.31,8.44,0,.16-.51,1.86-.83,2.78.74-.67,1.47-1.34,2.24-2,2.23-1.9,4.55-3.76,6.85-5.62l2.09-1.72c-.35-.2-4.6-2.58-5.87-4.3-1.12-1.52-2.08-3.74-1.33-5.54a3.79,3.79,0,0,1,4.62-2.07l.35.11c2.79,1.18,3.67,6,3.31,8.45,0,.18-.74,2.63-.95,3.25,1.54-1.27,3-2.54,4.49-3.85a57.56,57.56,0,0,0,5.46-5.59c-.16-.09-4.6-2.56-5.9-4.32-1.13-1.53-2.08-3.74-1.34-5.55a3.8,3.8,0,0,1,4.63-2.07,2.3,2.3,0,0,1,.34.12c2.8,1.18,3.68,6,3.31,8.45,0,.15-.56,2-.82,2.91l.15.07a40.39,40.39,0,0,0,4.25-6.4c.68-1.23,1.24-2.43,1.77-3.64-.88-.39-4.88-2.19-6.26-3.64s-2.53-3.52-2-5.39a3.7,3.7,0,0,1,4.35-2.51l.37.08c2.93.91,4.41,5.65,4.34,8.09,0,.13-.21,1.45-.39,2.44.23-.53.47-1.08.68-1.6.78-1.94,1.36-3.77,1.86-5.39.27-.92.49-1.76.69-2.55-.64-.77-3.17-3.92-3.61-5.74s-.4-4.15,1-5.61a4,4,0,0,1,5.16-.47l.3.24c2.12,2,.95,6.79-.39,8.93-.11.18-2.31,2.87-2.34,2.84v-.05c-.18.76-.38,1.57-.62,2.46-.46,1.63-1,3.46-1.72,5.44a54.47,54.47,0,0,1-2.71,6.24,40.37,40.37,0,0,1-4.14,6.56l-.06.07c.71-.49,2.77-1.81,2.94-1.89,2.4-1.21,7.86-2.29,10.15-.45a3,3,0,0,1,.08,4.56,2.17,2.17,0,0,1-.29.24c-1.66,1.27-4.33,1.32-6.36,1-2.29-.4-6.39-3-6.73-3.2a56.34,56.34,0,0,1-5.49,5.89c-1.15,1.09-2.34,2.19-3.55,3.21.64-.41,1.21-.77,1.29-.81,2.41-1.21,7.86-2.3,10.15-.45a3,3,0,0,1,.09,4.55,2.43,2.43,0,0,1-.3.24c-1.66,1.29-4.32,1.34-6.35,1s-5.61-2.5-6.55-3.09c-.46.4-.93.81-1.4,1.2-2.26,1.91-4.53,3.81-6.68,5.73-.76.67-1.48,1.37-2.21,2.06.57-.37,1.05-.66,1.12-.73,2.41-1.2,7.86-2.29,10.15-.44a3,3,0,0,1,.09,4.55,2.43,2.43,0,0,1-.3.24c-1.66,1.29-4.32,1.33-6.35,1s-5.27-2.3-6.38-3c-.72.73-1.44,1.46-2.09,2.19-.44.51-.9,1-1.3,1.5l-1.24,1.54c-.74,1-1.51,2-2.21,3-.49.73-.93,1.36-1.4,2,.76-.68,2.25-2,2.39-2.09,2.17-1.5,7.38-3.3,9.93-1.79a3,3,0,0,1,.87,4.5l-.24.27c-1.4,1.46-4.05,1.89-6.12,1.81-2.27-.08-6.62-2-7.16-2.25-.75,1.11-1.47,2.19-2.13,3.23-1.13,1.75-2.12,3.39-3,4.84l-1.88-.58c.94-1.52,2-3.22,3.31-5.1.75-1.13,1.59-2.32,2.48-3.54a38.26,38.26,0,0,1-3.31-2.91,27,27,0,0,1-7.15,1.46c.06,1.29.14,2.55.24,3.73.14,1.83.32,3.51.49,5l-2-.62c-.11-1.34-.22-2.78-.3-4.32-.08-1.31-.13-2.71-.16-4.15-.6-.07-5.42-.66-7.35-1.73-1.74-1-3.67-2.63-3.86-4.55a3.34,3.34,0,0,1,3.17-3.62l.44,0c3.09,0,6.22,4.12,7,6.45.05.14.37,1.68.56,2.65v-5.43c0-.62.07-1.26.1-1.89s.13-1.29.2-1.94c.18-1.5.45-3,.76-4.56-1.19,0-5.43,0-7.33-.72s-4.09-2.12-4.6-4a3.2,3.2,0,0,1,2.55-4,2.66,2.66,0,0,1,.39-.07c3.07-.38,6.86,3.24,8.05,5.43.07.14.73,1.8,1.07,2.72.2-.92.39-1.83.62-2.75.67-2.66,1.44-5.34,2.18-8,.23-.82.46-1.64.68-2.46-.43,0-5.46.08-7.59-.72-1.9-.73-4.08-2.11-4.6-4a3.19,3.19,0,0,1,2.54-4l.39-.08c3.08-.37,6.86,3.25,8.06,5.44.09.17,1,2.56,1.24,3.18.49-1.8,1-3.6,1.34-5.39a51.49,51.49,0,0,0,1.05-7.28c-.2,0-5.46.09-7.64-.73-1.9-.73-4.09-2.11-4.6-4a3.21,3.21,0,0,1,2.55-4l.39-.07c3.07-.37,6.86,3.25,8.05,5.44.08.14.83,2,1.12,2.84h.18a37.42,37.42,0,0,0-.47-7.4,34.31,34.31,0,0,0-.83-3.87c-1,.1-5.44.54-7.5,0s-4.33-1.71-5.07-3.51a3.12,3.12,0,0,1,2-4.21l.36-.1c3-.67,7.22,2.57,8.68,4.63.09.11.75,1.34,1.22,2.23-.15-.56-.29-1.14-.44-1.67-.57-2-1.23-3.8-1.84-5.39-.34-.9-.68-1.71-1-2.46-1-.34-5.11-1.74-6.62-3.05s-2.94-3.26-2.65-5.17a3.56,3.56,0,0,1,4-2.93Z" transform="translate(-27.56 -64.38)"/><path class="cls-2" d="M429.49,385a17.76,17.76,0,0,1-4.65.67s.6-2,.66-2.07c.65-1.36,2.83-3.68,4.71-3.54a2,2,0,0,1,2,2.16c0,.07,0,.15,0,.22C431.91,383.59,430.62,384.5,429.49,385Z" transform="translate(-27.56 -64.38)"/><path class="cls-2" d="M396,387.13s-.71-1.91-.74-2c-.32-1.45.05-4.44,1.7-5.25a2.39,2.39,0,0,1,3,.86,1.28,1.28,0,0,1,.11.2,3.74,3.74,0,0,1-.62,3.42A15.23,15.23,0,0,1,396,387.13Z" transform="translate(-27.56 -64.38)"/><path class="cls-2" d="M406.62,418.61c.4.81.83,1.59,1.19,2.31s.65,1.19.95,1.74h1.32c-.4-.67-.83-1.39-1.26-2.19-.36-.64-.74-1.34-1.12-2.05a16.29,16.29,0,0,0,3.64-2.31,23.87,23.87,0,0,0,2.65,1c-.17.86-.32,1.71-.46,2.5-.18,1.12-.33,2.14-.45,3.07h1.2c.1-.89.21-1.87.36-2.91.1-.73.23-1.45.36-2.26a18.51,18.51,0,0,0,4.64-.19,4.37,4.37,0,0,0,3-2.27,1.93,1.93,0,0,0-1.38-2.51l-.24-.06c-1.85-.32-4.32,1.75-5.14,3.05-.06.08-.55,1.13-.83,1.66.08-.47.16-.94.25-1.45.13-.73.3-1.46.45-2.19.09-.37.19-.72.29-1.12s.22-.73.33-1.11c.18-.55.4-1.11.61-1.66a16.58,16.58,0,0,0,4.39.38c1.24-.21,2.75-.8,3.31-1.85a1.86,1.86,0,0,0-.93-2.67l-.22-.09c-1.78-.56-4.57,1.16-5.61,2.33a7.19,7.19,0,0,1-.45.63c.23-.54.46-1.08.71-1.62.71-1.52,1.48-3.05,2.26-4.59l.47-1a16.57,16.57,0,0,0,4.51.41c1.26-.22,2.75-.79,3.31-1.86a1.86,1.86,0,0,0-.93-2.66,1.45,1.45,0,0,0-.22-.09c-1.78-.57-4.57,1.16-5.61,2.33,0,0-.27.36-.52.73.41-.84.83-1.68,1.16-2.54a29.92,29.92,0,0,0,1.54-4.44,17.85,17.85,0,0,0,4.65.43c1.24-.22,2.75-.8,3.31-1.85a1.86,1.86,0,0,0-.94-2.67l-.22-.09c-1.77-.57-4.57,1.16-5.6,2.33-.08.08-.89,1.25-1.16,1.67a0,0,0,0,1,0-.05,23.92,23.92,0,0,0,.59-4.54,30.9,30.9,0,0,0-.12-4.08c-.11-1.26-.29-2.41-.46-3.42-.1-.55-.21-1-.31-1.52h0s.55-1.95.57-2.08c.19-1.46-.42-4.43-2.14-5.1a2.36,2.36,0,0,0-2.93,1.05,1.89,1.89,0,0,0-.09.21,3.71,3.71,0,0,0,.9,3.37,16.06,16.06,0,0,0,3.56,2.51c.1.48.19,1,.28,1.58.15,1,.3,2.18.38,3.42a9.13,9.13,0,0,0,0,1c-.16-.58-.4-1.38-.43-1.45-.6-1.39-2.7-3.77-4.59-3.68a2.05,2.05,0,0,0-2.05,2.11l0,.22c.2,1.16,1.45,2.1,2.57,2.63a17.55,17.55,0,0,0,4.5.78c0,.78,0,1.58,0,2.41a22.71,22.71,0,0,1-.7,4.48h-.11c-.07-.55-.26-1.72-.3-1.81-.42-1.46-2.21-4-4.09-4.1a2.14,2.14,0,0,0-2.31,1.93v.2c.06,1.17,1.19,2.22,2.23,2.86a17.41,17.41,0,0,0,4.48,1.23,31.93,31.93,0,0,1-1.61,4.27c-.46,1-1,2.06-1.52,3.09,0-.39-.29-1.92-.31-2-.43-1.45-2.21-4-4.14-4.09a2.13,2.13,0,0,0-2.3,1.92,1.34,1.34,0,0,0,0,.2c.06,1.17,1.19,2.23,2.22,2.86a16.44,16.44,0,0,0,4.46,1.23c-.25.46-.49.93-.74,1.4-.83,1.52-1.66,3.05-2.38,4.57-.26.53-.49,1.06-.73,1.59-.09-.59-.26-1.65-.29-1.74-.42-1.45-2.21-4-4.09-4.1a2.14,2.14,0,0,0-2.31,1.93v.2c.06,1.17,1.19,2.23,2.23,2.86a16.38,16.38,0,0,0,4.3,1.2c-.4.88-.76,1.76-1.07,2.65-.12.39-.28.77-.38,1.14s-.21.73-.32,1.12c-.18.77-.35,1.45-.5,2.18-.08.37-.14.73-.22,1.07v-1.66c-.17-1.45-1.49-4.24-3.31-4.59a2.23,2.23,0,0,0-2.61,1.58l0,.21a3.23,3.23,0,0,0,0,.44,6.82,6.82,0,0,0-.95,3.77c0,.09.25,1.21.39,1.77-.23-.43-.46-.86-.69-1.31-.34-.66-.66-1.35-1-2l-.47-1.07c-.16-.36-.27-.73-.41-1.1-.19-.54-.37-1.1-.54-1.67a15.26,15.26,0,0,0,3.9-1.81,4.07,4.07,0,0,0,1.66-3.16,2.19,2.19,0,0,0-2.45-1.78l-.24,0c-1.84.38-3.09,3.18-3.23,4.66v.73c-.14-.55-.29-1.11-.43-1.68-.36-1.62-.68-3.27-1-4.93-.06-.35-.14-.69-.21-1a15.44,15.44,0,0,0,4-1.85c.91-.8,1.8-2,1.62-3.16a2.19,2.19,0,0,0-2.45-1.77l-.24,0c-1.84.38-3.09,3.18-3.22,4.66v.85q-.28-1.35-.63-2.67a31.34,31.34,0,0,0-1.51-4.47A16.18,16.18,0,0,0,404,391.7a3.77,3.77,0,0,0,1.61-3.16,2.21,2.21,0,0,0-2.53-1.67h0c-1.84.39-3.08,3.18-3.22,4.66,0,.11.05,1.46.09,2v-.05a24.48,24.48,0,0,0-2.35-4.08A35.08,35.08,0,0,0,395,386c-.89-1-1.76-1.87-2.54-2.63-.43-.41-.83-.78-1.21-1.12h0s-.77-1.9-.83-2c-.77-1.33-3.13-3.5-5-3.23a2,2,0,0,0-1.79,2.29l.06.21c.34,1.14,1.7,2,2.86,2.38a17.84,17.84,0,0,0,4.55.37,13.31,13.31,0,0,1,1.22,1.18c.76.78,1.61,1.66,2.48,2.67.23.27.46.57.69.85-.5-.41-1.2-1-1.28-1-1.37-.87-4.6-1.83-6.12-.84a1.81,1.81,0,0,0-.38,2.76l.15.15a5.16,5.16,0,0,0,3.8.95,16.8,16.8,0,0,0,4.23-1.53,24.66,24.66,0,0,1,1.48,2,23.77,23.77,0,0,1,2.22,4.08l-.09,0c-.42-.42-1.3-1.3-1.39-1.37-1.25-1-4.34-2.26-6-1.45a1.83,1.83,0,0,0-.76,2.7l.17.21a5.09,5.09,0,0,0,3.65,1.31,18.76,18.76,0,0,0,4.51-1.15,32.37,32.37,0,0,1,1.34,4.37c.26,1.08.47,2.18.67,3.32-.28-.31-1.44-1.46-1.54-1.54-1.26-1-4.35-2.27-6-1.46a1.84,1.84,0,0,0-.75,2.71l.16.2a5,5,0,0,0,3.65,1.31,18.16,18.16,0,0,0,4.48-1.14l.28,1.52c.28,1.67.55,3.34.88,5,.11.56.25,1.12.38,1.68-.43-.45-1.25-1.26-1.32-1.32-1.26-1-4.36-2.27-6-1.46a1.85,1.85,0,0,0-.74,2.72l.16.2a5.06,5.06,0,0,0,3.65,1.3,16.44,16.44,0,0,0,4.34-1.08c.22.93.48,1.84.77,2.72.14.39.25.78.4,1.15s.3.73.44,1.08c.33.72.63,1.41,1,2.08.16.34.33.66.48,1-.36-.52-.95-1.32-1-1.4-1.06-1.14-3.9-2.81-5.67-2.18a1.88,1.88,0,0,0-1.18,2.58l.11.19a4.79,4.79,0,0,0,3.37,1.79A19.18,19.18,0,0,0,406.62,418.61Z" transform="translate(-27.56 -64.38)"/></g><g id="freepik--web-page--inject-1"><rect class="cls-4" x="107.38" y="44.31" width="268.57" height="279.69"/><path class="cls-5" d="M377.48,111.92a2.18,2.18,0,1,1-2.16-1.9h0A2,2,0,0,1,377.48,111.92Z" transform="translate(-27.56 -64.38)"/><path class="cls-5" d="M385.59,111.92a2.18,2.18,0,1,1-2.17-1.9h0A2,2,0,0,1,385.59,111.92Z" transform="translate(-27.56 -64.38)"/><path class="cls-5" d="M393.69,111.92a2.18,2.18,0,1,1-2.18-1.9,2,2,0,0,1,2.18,1.9Z" transform="translate(-27.56 -64.38)"/><rect class="cls-5" x="107.38" y="50.49" width="268.57" height="279.69"/><path class="cls-4" d="M209.92,130.94v-5.1c0-2.7-2.48-4.88-5.55-4.89H147.55c-3.07,0-5.56,2.19-5.56,4.89v5.1h-7.05V394.55H403.51V130.94Z" transform="translate(-27.56 -64.38)"/><path class="cls-4" d="M282.21,130.94v-5.1c0-2.7-2.49-4.89-5.56-4.89H219.83c-3.05,0-5.52,2.2-5.52,4.89v5.1H134.94V394.55H403.51V130.94Z" transform="translate(-27.56 -64.38)"/><path class="cls-6" d="M359.77,130.94v-5.1c0-2.69-2.47-4.87-5.52-4.89H297.4c-3.07,0-5.56,2.19-5.57,4.89v5.1H134.94V394.55H403.51V130.94Z" transform="translate(-27.56 -64.38)"/><rect class="cls-7" x="188.56" y="204.88" width="81.47" height="48.96"/><rect class="cls-2" x="113.69" y="115.04" width="256.24" height="72.73"/><rect class="cls-2" x="113.69" y="194.18" width="65.68" height="122.64"/><polygon class="cls-6" points="365.37 187.77 281.48 187.77 281.48 105.95 365.37 129.52 365.37 187.77"/><polygon class="cls-6" points="365.37 187.77 281.48 187.77 281.48 172.99 365.37 177.25 365.37 187.77"/><polygon class="cls-4" points="299.86 122.87 286.95 119.8 286.95 114.69 299.86 117.98 299.86 122.87"/><polygon class="cls-6" points="302.07 126.9 284.48 122.94 284.48 117.78 302.07 122.05 302.07 126.9"/><polygon class="cls-4" points="318.87 127.39 307.74 124.75 307.74 120 318.87 122.85 318.87 127.39"/><polygon class="cls-6" points="320.79 131.11 305.61 127.7 305.61 122.91 320.79 126.6 320.79 131.11"/><polygon class="cls-4" points="335.4 131.32 325.71 129.02 325.71 124.59 335.4 127.07 335.4 131.32"/><polygon class="cls-6" points="337.09 134.77 323.85 131.8 323.85 127.34 337.09 130.55 337.09 134.77"/><polygon class="cls-4" points="349.91 134.77 341.39 132.75 341.39 128.61 349.91 130.78 349.91 134.77"/><polygon class="cls-6" points="351.39 137.99 339.77 135.38 339.77 131.21 351.39 134.02 351.39 137.99"/><polygon class="cls-4" points="362.76 137.83 355.2 136.03 355.2 132.14 362.76 134.07 362.76 137.83"/><polygon class="cls-6" points="364.07 140.84 353.76 138.52 353.76 134.6 364.07 137.1 364.07 140.84"/><polygon class="cls-4" points="299.86 137 286.95 134.59 286.95 129.47 299.86 132.11 299.86 137"/><polygon class="cls-6" points="302.07 140.91 284.48 137.86 284.48 132.7 302.07 136.06 302.07 140.91"/><polygon class="cls-4" points="318.87 140.53 307.74 138.46 307.74 133.71 318.87 135.98 318.87 140.53"/><polygon class="cls-6" points="320.79 144.15 305.61 141.52 305.61 136.73 320.79 139.64 320.79 144.15"/><polygon class="cls-4" points="335.4 143.61 325.71 141.8 325.71 137.38 335.4 139.35 335.4 143.61"/><polygon class="cls-6" points="337.09 146.97 323.85 144.68 323.85 140.22 337.09 142.75 337.09 146.97"/><polygon class="cls-4" points="349.91 146.31 341.39 144.72 341.39 140.58 349.91 142.32 349.91 146.31"/><polygon class="cls-6" points="351.39 149.45 339.77 147.44 339.77 143.26 351.39 145.49 351.39 149.45"/><polygon class="cls-4" points="362.76 148.7 355.2 147.29 355.2 143.4 362.76 144.93 362.76 148.7"/><polygon class="cls-6" points="364.07 151.64 353.76 149.85 353.76 145.94 364.07 147.9 364.07 151.64"/><polygon class="cls-4" points="299.86 151.11 286.95 149.38 286.95 144.26 299.86 146.23 299.86 151.11"/><polygon class="cls-6" points="302.07 154.91 284.48 152.78 284.48 147.62 302.07 150.06 302.07 154.91"/><polygon class="cls-4" points="318.87 153.67 307.74 152.18 307.74 147.43 318.87 149.12 318.87 153.67"/><polygon class="cls-6" points="320.79 157.19 305.61 155.34 305.61 150.56 320.79 152.67 320.79 157.19"/><polygon class="cls-4" points="335.4 155.89 325.71 154.59 325.71 150.16 335.4 151.64 335.4 155.89"/><polygon class="cls-6" points="337.09 159.17 323.85 157.56 323.85 153.1 337.09 154.94 337.09 159.17"/><polygon class="cls-4" points="349.91 157.84 341.39 156.69 341.39 152.55 349.91 153.84 349.91 157.84"/><polygon class="cls-6" points="351.39 160.9 339.77 159.49 339.77 155.31 351.39 156.94 351.39 160.9"/><polygon class="cls-4" points="362.76 159.57 355.2 158.55 355.2 154.65 362.76 155.8 362.76 159.57"/><polygon class="cls-6" points="364.07 162.44 353.76 161.19 353.76 157.27 364.07 158.7 364.07 162.44"/><polygon class="cls-4" points="299.86 165.24 286.95 164.17 286.95 159.05 299.86 160.35 299.86 165.24"/><polygon class="cls-6" points="302.07 168.92 284.48 167.7 284.48 162.53 302.07 164.07 302.07 168.92"/><polygon class="cls-4" points="318.87 166.8 307.74 165.89 307.74 161.14 318.87 162.26 318.87 166.8"/><polygon class="cls-6" points="320.79 170.23 305.61 169.17 305.61 164.38 320.79 165.71 320.79 170.23"/><polygon class="cls-4" points="335.4 168.17 325.71 167.37 325.71 162.94 335.4 163.92 335.4 168.17"/><polygon class="cls-6" points="337.09 171.36 323.85 170.44 323.85 165.98 337.09 167.14 337.09 171.36"/><polygon class="cls-4" points="349.91 169.37 341.39 168.67 341.39 164.52 349.91 165.38 349.91 169.37"/><polygon class="cls-6" points="351.39 172.35 339.77 171.54 339.77 167.37 351.39 168.39 351.39 172.35"/><polygon class="cls-4" points="362.76 170.43 355.2 169.8 355.2 165.91 362.76 166.67 362.76 170.43"/><polygon class="cls-6" points="364.07 173.24 353.76 172.52 353.76 168.59 364.07 169.5 364.07 173.24"/><rect class="cls-4" x="241.62" y="111.19" width="21.38" height="76.55"/><rect class="cls-4" x="260.77" y="106.34" width="21.38" height="81.4"/><polygon class="cls-6" points="241.62 187.66 155.41 187.77 155.41 126.41 241.62 111.19 241.62 187.66"/><polygon class="cls-6" points="241.62 187.66 155.41 187.77 155.41 176.69 241.62 173.85 241.62 187.66"/><polygon class="cls-4" points="167.31 134.04 158.72 135.32 158.72 131.37 167.31 129.99 167.31 134.04"/><polygon class="cls-6" points="168.92 136.73 157.19 138.39 157.19 134.46 168.92 132.67 168.92 136.73"/><polygon class="cls-4" points="182.54 131.76 173.22 133.16 173.22 129.04 182.54 127.54 182.54 131.76"/><polygon class="cls-6" points="184.29 134.56 171.57 136.36 171.57 132.26 184.29 130.32 184.29 134.56"/><polygon class="cls-4" points="199.1 129.28 188.95 130.8 188.95 126.51 199.1 124.88 199.1 129.28"/><polygon class="cls-6" points="201.01 132.19 187.16 134.15 187.16 129.88 201.01 127.77 201.01 132.19"/><polygon class="cls-4" points="217.19 126.58 206.09 128.24 206.09 123.76 217.19 121.97 217.19 126.58"/><polygon class="cls-6" points="219.28 129.6 204.14 131.75 204.14 127.29 219.28 124.97 219.28 129.6"/><polygon class="cls-4" points="237.01 123.61 224.84 125.42 224.84 120.74 237.01 118.78 237.01 123.61"/><polygon class="cls-6" points="239.31 126.77 222.7 129.12 222.7 124.45 239.31 121.92 239.31 126.77"/><polygon class="cls-4" points="167.31 145.72 158.72 146.74 158.72 142.78 167.31 141.68 167.31 145.72"/><polygon class="cls-6" points="168.92 148.47 157.19 149.75 157.19 145.82 168.92 144.41 168.92 148.47"/><polygon class="cls-4" points="182.54 143.94 173.22 145.03 173.22 140.92 182.54 139.72 182.54 143.94"/><polygon class="cls-6" points="184.29 146.79 171.57 148.19 171.57 144.09 184.29 142.56 184.29 146.79"/><polygon class="cls-4" points="199.1 142 188.95 143.18 188.95 138.9 199.1 137.59 199.1 142"/><polygon class="cls-6" points="201.01 144.97 187.16 146.48 187.16 142.21 201.01 140.54 201.01 144.97"/><polygon class="cls-4" points="217.19 139.87 206.09 141.17 206.09 136.7 217.19 135.27 217.19 139.87"/><polygon class="cls-6" points="219.28 142.97 204.14 144.63 204.14 140.16 219.28 138.34 219.28 142.97"/><polygon class="cls-4" points="237.01 137.55 224.84 138.97 224.84 134.29 237.01 132.72 237.01 137.55"/><polygon class="cls-6" points="239.31 140.78 222.7 142.59 222.7 137.93 239.31 135.93 239.31 140.78"/><polygon class="cls-4" points="167.31 157.41 158.72 158.15 158.72 154.19 167.31 153.37 167.31 157.41"/><polygon class="cls-6" points="168.92 160.22 157.19 161.12 157.19 157.19 168.92 156.15 168.92 160.22"/><polygon class="cls-4" points="182.54 156.12 173.22 156.91 173.22 152.8 182.54 151.91 182.54 156.12"/><polygon class="cls-6" points="184.29 159.03 171.57 160.01 171.57 155.92 184.29 154.8 184.29 159.03"/><polygon class="cls-4" points="199.1 154.71 188.95 155.58 188.95 151.29 199.1 150.31 199.1 154.71"/><polygon class="cls-6" points="201.01 157.74 187.16 158.81 187.16 154.54 201.01 153.32 201.01 157.74"/><polygon class="cls-4" points="217.19 153.17 206.09 154.11 206.09 149.63 217.19 148.56 217.19 153.17"/><polygon class="cls-6" points="219.28 156.33 204.14 157.5 204.14 153.04 219.28 151.71 219.28 156.33"/><polygon class="cls-4" points="237.01 151.49 224.84 152.52 224.84 147.83 237.01 146.66 237.01 151.49"/><polygon class="cls-6" points="239.31 154.8 222.7 156.07 222.7 151.4 239.31 149.94 239.31 154.8"/><polygon class="cls-4" points="167.31 169.1 158.72 169.56 158.72 165.61 167.31 165.06 167.31 169.1"/><polygon class="cls-6" points="168.92 171.95 157.19 172.48 157.19 168.54 168.92 167.89 168.92 171.95"/><polygon class="cls-4" points="182.54 168.3 173.22 168.79 173.22 164.68 182.54 164.08 182.54 168.3"/><polygon class="cls-6" points="184.29 171.27 171.57 171.84 171.57 167.74 184.29 167.03 184.29 171.27"/><polygon class="cls-4" points="199.1 167.42 188.95 167.96 188.95 163.67 199.1 163.03 199.1 167.42"/><polygon class="cls-6" points="201.01 170.52 187.16 171.14 187.16 166.87 201.01 166.1 201.01 170.52"/><polygon class="cls-4" points="217.19 166.47 206.09 167.06 206.09 162.57 217.19 161.87 217.19 166.47"/><polygon class="cls-6" points="219.28 169.7 204.14 170.38 204.14 165.92 219.28 165.08 219.28 169.7"/><polygon class="cls-4" points="237.01 165.42 224.84 166.07 224.84 161.38 237.01 160.6 237.01 165.42"/><polygon class="cls-6" points="239.31 168.81 222.7 169.55 222.7 164.88 239.31 163.96 239.31 168.81"/><polygon class="cls-6" points="279.34 187.77 250.6 187.77 273.59 99.66 279.34 105.03 279.34 187.77"/><polygon class="cls-6" points="273.59 187.77 244.86 187.77 244.86 105.08 273.59 99.66 273.59 187.77"/><path class="cls-8" d="M313.92,265.6c-4,0-7.24,2.85-7.24,6.37h0c0,3.53,7.24,10.72,7.24,10.72s7.26-7.19,7.26-10.72S317.93,265.6,313.92,265.6Zm0,8.68a2.2,2.2,0,1,1,2.49-2.18A2.35,2.35,0,0,1,313.92,274.28Z" transform="translate(-27.56 -64.38)"/><path class="cls-8" d="M342.8,273.42c-.5-.3-7.83-4.24-8.28-4.53l.16-.15,1.65-1.5a.47.47,0,0,1,.49-.12l2.57.73,3.87,1.12,2.88.86.43.1c.1-.09.2-.16.28-.24l3.72-3.4a2.25,2.25,0,0,1,1.08-.59,2.09,2.09,0,0,1,2.05.73,1.49,1.49,0,0,1-.12,1.94q-.43.44-.93.84l-3.22,2.71-.09.08a.3.3,0,0,0-.12.43c.29.73.55,1.46.82,2.19s.67,1.74,1,2.6c.43,1.11.84,2.22,1.26,3.33v.07c.1.32.2.32-.17.63l-1.49,1.3-.26.21c-.08.07-.17-.08-.21-.15-.7-1-1.4-2-2.09-3-.83-1.2-1.66-2.4-2.53-3.6-.07-.1-.14-.22-.22-.32a1.62,1.62,0,0,0-.19-.18c-.25.21-.49.4-.72.61l-3.23,2.71c-.42.35-.42.36-.32.88l.25,1.34a4.17,4.17,0,0,0,.08.49,10.64,10.64,0,0,1-.92.85,8.93,8.93,0,0,1-.94.79,7.17,7.17,0,0,1-.5-1.14c-.15-.37-.3-.73-.45-1.14s-.31-.73-.47-1.15c-1.3-.42-2.6-.81-3.94-1.24a.69.69,0,0,1,.11-.13l1.54-1.37a.53.53,0,0,1,.5-.13l1.35.19.83.12a.45.45,0,0,0,.43-.11,1.29,1.29,0,0,1,.21-.19l3.56-3.27C342.66,273.61,342.66,273.53,342.8,273.42Z" transform="translate(-27.56 -64.38)"/><path class="cls-8" d="M377.55,267.23h-9.94a.84.84,0,0,0-.83.58l-1.24,4.58h14.08l-1.25-4.58A.83.83,0,0,0,377.55,267.23Z" transform="translate(-27.56 -64.38)"/><polygon class="cls-9" points="349.32 203.71 340.75 203.71 339.68 207.63 350.38 207.63 349.32 203.71"/><path class="cls-8" d="M364.6,277.35h3.31v3.71a.45.45,0,0,1-.48.42H365.1a.45.45,0,0,1-.48-.42v-3.71Z" transform="translate(-27.56 -64.38)"/><path class="cls-8" d="M377.6,277.35h3.32v3.71a.46.46,0,0,1-.48.42H378.1a.45.45,0,0,1-.48-.42v-3.71Z" transform="translate(-27.56 -64.38)"/><rect class="cls-8" x="343.54" y="203.42" width="3.16" height="1.03"/><path class="cls-8" d="M364.74,271.56H380.9a1.25,1.25,0,0,1,1.32,1.16v4.7a1.25,1.25,0,0,1-1.32,1.16H364.74a1.24,1.24,0,0,1-1.31-1.16v-4.7A1.24,1.24,0,0,1,364.74,271.56Z" transform="translate(-27.56 -64.38)"/><path class="cls-9" d="M369.54,274.66a2.14,2.14,0,1,1-2.13-1.86h0A2,2,0,0,1,369.54,274.66Z" transform="translate(-27.56 -64.38)"/><path class="cls-9" d="M380.49,274.66a2.13,2.13,0,1,1-2.11-1.86h0A2,2,0,0,1,380.49,274.66Z" transform="translate(-27.56 -64.38)"/><rect class="cls-9" x="342.95" y="209.15" width="4.7" height="0.71"/><rect class="cls-9" x="342.95" y="210.4" width="4.7" height="0.71"/><rect class="cls-6" x="200.87" y="216.03" width="56.88" height="18.44"/><path class="cls-6" d="M231.7,296H282a3.13,3.13,0,0,1,3.31,2.91V312H228.38V298.91A3.13,3.13,0,0,1,231.7,296Z" transform="translate(-27.56 -64.38)"/><polygon class="cls-5" points="219.32 231.16 216.87 230.67 206.09 230.67 203.07 231.16 203.83 229.18 203.83 223.69 203.07 221.7 206.19 222.28 217.34 222.28 219.32 221.7 218.56 224.02 218.56 228.67 219.32 231.16"/><polygon class="cls-5" points="236.7 231.16 234.25 230.67 223.47 230.67 220.45 231.16 221.21 229.18 221.21 223.69 220.45 221.7 223.57 222.28 234.72 222.28 236.7 221.7 235.94 224.02 235.94 228.67 236.7 231.16"/><polygon class="cls-5" points="254.08 231.16 251.63 230.67 240.85 230.67 237.83 231.16 238.59 229.18 238.59 223.69 237.83 221.7 240.96 222.28 252.1 222.28 254.08 221.7 253.33 224.02 253.33 228.67 254.08 231.16"/><line class="cls-7" x1="188.33" y1="247.6" x2="269.93" y2="247.6"/><rect class="cls-7" x="195.05" y="227.18" width="1.27" height="4.83"/><rect class="cls-8" x="191.46" y="218.45" width="8.45" height="9.28"/><rect class="cls-7" x="191.04" y="232.38" width="9.29" height="15.23"/><rect class="cls-4" x="191.04" y="232.38" width="9.29" height="2.23"/><rect class="cls-7" x="192.31" y="236.09" width="6.33" height="3.52"/><rect class="cls-7" x="192.31" y="241.29" width="6.33" height="3.52"/><rect class="cls-7" x="262.62" y="227.18" width="1.27" height="4.83"/><rect class="cls-8" x="259.02" y="218.45" width="8.45" height="9.28"/><rect class="cls-7" x="258.6" y="232.38" width="9.29" height="15.23"/><rect class="cls-4" x="258.6" y="232.38" width="9.29" height="2.23"/><rect class="cls-7" x="259.87" y="236.09" width="6.33" height="3.52"/><rect class="cls-7" x="259.87" y="241.29" width="6.33" height="3.52"/><rect class="cls-7" x="191.04" y="295.14" width="9.29" height="15.23"/><rect class="cls-4" x="191.04" y="295.14" width="9.29" height="2.23"/><rect class="cls-7" x="192.31" y="298.85" width="6.33" height="3.52"/><rect class="cls-7" x="192.31" y="304.05" width="6.33" height="3.52"/><rect class="cls-7" x="258.6" y="295.14" width="9.29" height="15.23"/><rect class="cls-4" x="258.6" y="295.14" width="9.29" height="2.23"/><rect class="cls-7" x="259.87" y="298.85" width="6.33" height="3.52"/><rect class="cls-7" x="259.87" y="304.05" width="6.33" height="3.52"/><rect class="cls-7" x="188.56" y="267.64" width="81.47" height="48.96"/><rect class="cls-4" x="200.87" y="278.79" width="56.88" height="18.44"/><path class="cls-6" d="M231.7,358.78H282a3.13,3.13,0,0,1,3.31,2.91v13.07H228.38V361.68A3.14,3.14,0,0,1,231.7,358.78Z" transform="translate(-27.56 -64.38)"/><line class="cls-7" x1="188.33" y1="310.36" x2="269.93" y2="310.36"/><path class="cls-8" d="M148.23,146.76v5h-1.4v-11h1.4v5h3.08v-5h1.4v11h-1.4v-5Z" transform="translate(-27.56 -64.38)"/><path class="cls-8" d="M154,143.36a2.88,2.88,0,0,1,5.75,0v5.71a2.88,2.88,0,0,1-5.75,0Zm1.37,5.77c0,1,.49,1.59,1.49,1.59s1.5-.58,1.5-1.59v-5.82c0-1-.47-1.6-1.5-1.6s-1.49.6-1.49,1.6Z" transform="translate(-27.56 -64.38)"/><path class="cls-8" d="M163,151.73v-9.92h-2.31v-1.12h6v1.12h-2.31v9.92Z" transform="translate(-27.56 -64.38)"/><path class="cls-8" d="M172.08,145.58v1.1H169v3.93h3.77v1.12H167.6v-11h5.17v1.12H169v3.77Z" transform="translate(-27.56 -64.38)"/><path class="cls-8" d="M174.09,151.73v-11h1.4v9.92h3.58v1.12Z" transform="translate(-27.56 -64.38)"/><path class="cls-8" d="M185.73,140.69c2,0,2.72.82,2.72,2.44v.55c0,1.16-.37,1.89-1.46,2.18a2.11,2.11,0,0,1,1.65,2.37v.93c0,1.65-.91,2.59-2.86,2.59h-2.89V140.69Zm-.34,4.68c1.11,0,1.66-.31,1.66-1.45v-.64c0-1-.38-1.46-1.38-1.46h-1.38v3.57Zm.41,5.24c1,0,1.49-.47,1.49-1.5v-1c0-1.23-.56-1.63-1.76-1.63h-1.22v4.11Z" transform="translate(-27.56 -64.38)"/><path class="cls-8" d="M189.84,143.36a2.88,2.88,0,0,1,5.75,0v5.71a2.88,2.88,0,0,1-5.75,0Zm1.38,5.77c0,1,.48,1.59,1.48,1.59s1.49-.58,1.49-1.59v-5.82c0-1-.46-1.6-1.49-1.6s-1.48.6-1.48,1.6Z" transform="translate(-27.56 -64.38)"/><path class="cls-8" d="M196.81,143.36a2.88,2.88,0,0,1,5.76,0v5.71a2.88,2.88,0,0,1-5.76,0Zm1.38,5.77c0,1,.49,1.59,1.49,1.59s1.49-.58,1.49-1.59v-5.82c0-1-.47-1.6-1.49-1.6s-1.49.6-1.49,1.6Z" transform="translate(-27.56 -64.38)"/><path class="cls-8" d="M206,146.93l-.74,1.09v3.71h-1.4v-11h1.4V146l3.31-5.33H210l-3.17,5,3.32,6h-1.44Z" transform="translate(-27.56 -64.38)"/><path class="cls-8" d="M212.65,140.69v11h-1.4v-11Z" transform="translate(-27.56 -64.38)"/><path class="cls-8" d="M215.31,151.73h-1.26v-11h1.77l2.91,8v-8H220v11h-1.46l-3.2-8.93Z" transform="translate(-27.56 -64.38)"/><path class="cls-8" d="M226.94,143.36v.94h-1.32v-1c0-1-.45-1.59-1.48-1.59s-1.46.59-1.46,1.59v5.83c0,1,.46,1.58,1.46,1.58s1.48-.59,1.48-1.58v-2.19h-1.29v-1.11h2.61v3.25a2.82,2.82,0,0,1-5.64,0v-5.71a2.82,2.82,0,0,1,5.64,0Z" transform="translate(-27.56 -64.38)"/><rect class="cls-7" x="119.27" y="94.83" width="47.86" height="7.09"/><rect class="cls-7" x="175.74" y="94.83" width="47.86" height="7.09"/><line class="cls-7" x1="274.68" y1="61.73" x2="321.47" y2="61.73"/><rect class="cls-7" x="344.56" y="248.97" width="13.44" height="7.09"/><rect class="cls-7" x="328.43" y="248.97" width="13.44" height="7.09"/><line class="cls-7" x1="282.18" y1="229.12" x2="359.08" y2="229.12"/><line class="cls-7" x1="282.18" y1="234.32" x2="359.08" y2="234.32"/><line class="cls-7" x1="282.18" y1="239.51" x2="359.08" y2="239.51"/><line class="cls-7" x1="282.18" y1="244.72" x2="359.08" y2="244.72"/><path class="cls-8" d="M313.92,328.12c-4,0-7.24,2.85-7.24,6.37s7.24,10.72,7.24,10.72,7.26-7.2,7.26-10.72S317.93,328.12,313.92,328.12Zm0,8.68a2.2,2.2,0,1,1,2.49-2.19A2.35,2.35,0,0,1,313.92,336.8Z" transform="translate(-27.56 -64.38)"/><path class="cls-8" d="M342.8,335.94c-.5-.3-7.83-4.24-8.28-4.53a1.14,1.14,0,0,1,.16-.15l1.65-1.5a.47.47,0,0,1,.49-.12l2.57.73,3.87,1.12,2.88.85.43.1a3.48,3.48,0,0,0,.28-.24l3.72-3.4a2.32,2.32,0,0,1,1.08-.58,2,2,0,0,1,2.05.73,1.49,1.49,0,0,1-.12,1.94,10.58,10.58,0,0,1-.93.83l-3.22,2.72-.09.08a.3.3,0,0,0-.12.43c.29.73.55,1.45.82,2.18s.67,1.74,1,2.61c.43,1.12.84,2.23,1.26,3.33v.07c.1.32.2.31-.17.63l-1.49,1.3-.26.21c-.08.07-.17-.09-.21-.15-.7-1-1.4-2-2.09-3-.83-1.19-1.66-2.39-2.53-3.59a3.62,3.62,0,0,0-.22-.32,1.07,1.07,0,0,0-.19-.18l-.72.6-3.23,2.72c-.42.35-.42.35-.32.88l.25,1.34a4.53,4.53,0,0,0,.08.49,9.17,9.17,0,0,1-.92.84,9,9,0,0,1-.94.8,6.9,6.9,0,0,1-.5-1.15c-.15-.37-.3-.72-.45-1.13s-.31-.73-.47-1.16c-1.3-.41-2.6-.8-3.94-1.23a.76.76,0,0,1,.11-.14l1.54-1.36a.53.53,0,0,1,.5-.14l1.35.2.83.12a.44.44,0,0,0,.43-.12.91.91,0,0,1,.21-.18l3.56-3.27C342.66,336.13,342.66,336.05,342.8,335.94Z" transform="translate(-27.56 -64.38)"/><path class="cls-8" d="M377.55,329.74h-9.94a.86.86,0,0,0-.83.59l-1.24,4.57h14.08l-1.25-4.57A.85.85,0,0,0,377.55,329.74Z" transform="translate(-27.56 -64.38)"/><polygon class="cls-9" points="349.32 266.22 340.75 266.22 339.68 270.15 350.38 270.15 349.32 266.22"/><path class="cls-8" d="M364.6,339.86h3.31v3.72a.45.45,0,0,1-.48.42H365.1a.45.45,0,0,1-.48-.42v-3.72Z" transform="translate(-27.56 -64.38)"/><path class="cls-8" d="M377.6,339.86h3.32v3.72a.46.46,0,0,1-.48.42H378.1a.45.45,0,0,1-.48-.42v-3.72Z" transform="translate(-27.56 -64.38)"/><rect class="cls-8" x="343.54" y="265.94" width="3.16" height="1.03"/><path class="cls-8" d="M364.74,334.07H380.9a1.25,1.25,0,0,1,1.32,1.16v4.71a1.24,1.24,0,0,1-1.32,1.15H364.74a1.24,1.24,0,0,1-1.31-1.15v-4.71A1.24,1.24,0,0,1,364.74,334.07Z" transform="translate(-27.56 -64.38)"/><path class="cls-9" d="M369.54,337.18a2.14,2.14,0,1,1-2.13-1.86h0A2,2,0,0,1,369.54,337.18Z" transform="translate(-27.56 -64.38)"/><path class="cls-9" d="M380.49,337.18a2.13,2.13,0,1,1-2.11-1.86h0A2,2,0,0,1,380.49,337.18Z" transform="translate(-27.56 -64.38)"/><rect class="cls-9" x="342.95" y="271.67" width="4.7" height="0.71"/><rect class="cls-9" x="342.95" y="272.92" width="4.7" height="0.71"/><rect class="cls-7" x="344.56" y="311.49" width="13.44" height="7.09"/><rect class="cls-7" x="328.43" y="311.49" width="13.44" height="7.09"/><line class="cls-7" x1="282.18" y1="291.63" x2="359.08" y2="291.63"/><line class="cls-7" x1="282.18" y1="296.83" x2="359.08" y2="296.83"/><line class="cls-7" x1="282.18" y1="302.03" x2="359.08" y2="302.03"/><line class="cls-7" x1="282.18" y1="307.24" x2="359.08" y2="307.24"/><line class="cls-10" x1="197.79" y1="61.73" x2="244.57" y2="61.73"/><line class="cls-10" x1="125.73" y1="61.73" x2="172.51" y2="61.73"/><polygon class="cls-11" points="204.65 286.64 212 280.18 219.34 286.64 212 293.1 204.65 286.64"/><polygon class="cls-11" points="221.84 286.64 229.19 280.18 236.53 286.64 229.19 293.1 221.84 286.64"/><polygon class="cls-11" points="239.03 286.64 246.37 280.18 253.71 286.64 246.37 293.09 239.03 286.64"/><rect class="cls-7" x="202.06" y="269.25" width="54.49" height="5.47"/><rect class="cls-7" x="207.64" y="273.35" width="43.32" height="1.37"/><rect class="cls-12" x="363.44" y="193.95" width="6.48" height="125.48"/><rect class="cls-13" x="363.44" y="230.91" width="6.48" height="29.81"/></g><g id="freepik--Character--inject-1"><path class="cls-6" d="M177.16,204.18s.89,4.56-.23,6.93-2.7,3-3.15,3.95.45,3.37.68,4.37.67,2-1.13,2.19c-.82.1-1.65.17-2.48.19,0,0-4.27,4.75-7.2,4.75s-5.39-4-9-9.34-1.13-8.51,3.14-11.08S177.16,204.18,177.16,204.18Z" transform="translate(-27.56 -64.38)"/><path class="cls-8" d="M171,215.08c-.36.82-.94,1.38-1.29,1.26s-.33-.88,0-1.69.94-1.37,1.29-1.25S171.4,214.31,171,215.08Z" transform="translate(-27.56 -64.38)"/><path class="cls-7" d="M170.42,211.5s2.24-1.58,3.37.8" transform="translate(-27.56 -64.38)"/><path class="cls-4" d="M165.68,205.57,165,253.84s-4.28.19-9.68,0-13-2.19-21.82-7.13S128.34,226,128.34,226l13.49-14.44Z" transform="translate(-27.56 -64.38)"/><path class="cls-14" d="M147.23,190.54s-4.72,5.14-6.75,9.69.46,9.3.46,9.3l36-10.68s0-2.58-4.72-6.14-18.68-4.94-21.82-4.54S147.23,190.54,147.23,190.54Z" transform="translate(-27.56 -64.38)"/><path class="cls-6" d="M149.49,178.27s-9.68,2.58-11.47,6.55,3.14,7.91,6.51,8.9,13.5-2.18,15.08-5.14.87-6.31-2-8.92S150.61,177.9,149.49,178.27Z" transform="translate(-27.56 -64.38)"/><path class="cls-14" d="M147,205s-5.85,2-7.45,2.77-.91,2.37-.23,3.56.45,2.37,1.58,2.37,22.49-6.13,29.91-7.71,8.1,0,8.55-2,.9-6.13-.67-7.12S158.93,200.43,147,205Z" transform="translate(-27.56 -64.38)"/><path class="cls-4" d="M112.37,308.73l5.17,39.15s-7,9.69-8.77,16.81-11,23.94-11,23.94l8.32,3.95s15.29-20,20.25-26.9,7.45-9.89,7.45-12.46,6.3-40.14,6.3-40.14Z" transform="translate(-27.56 -64.38)"/><path class="cls-14" d="M111,392.37s3.17,1.19,2.42,3.06-9.52,4.78-9.82,5.17S111,392.37,111,392.37Z" transform="translate(-27.56 -64.38)"/><path class="cls-14" d="M94,384.26c.45.4,18,7.58,18,7.58s-7.1,9.59-8.59,11.69,2.27,6.91,3.32,8.64,7.25,4.78,8.46,5.31.3,1.2,0,3-.91,2.26-2.42,2.26-11.33-.93-14.51-2.52-3.92-4.37-5.28-5.45-1.81-1.06-1.81-1.06l-1.37,1.73s-1.8.13-4.83-1.6a10.11,10.11,0,0,1-4.08-4.25s3.17-5.05,5.29-6.38a12.87,12.87,0,0,0,4.53-5.82C91.25,395.73,94,384.26,94,384.26Z" transform="translate(-27.56 -64.38)"/><path class="cls-7" d="M106.11,400.1s3.74-3.84,5.36-2.18S106.11,400.1,106.11,400.1Z" transform="translate(-27.56 -64.38)"/><path class="cls-7" d="M106.11,400.1s8,1.87,6.11,2.41S106.11,400.1,106.11,400.1Z" transform="translate(-27.56 -64.38)"/><path class="cls-7" d="M106.23,405.47a9,9,0,0,1-.12-5.37,37.92,37.92,0,0,1,1.87,8.45" transform="translate(-27.56 -64.38)"/><path class="cls-6" d="M109.81,420.53c-3.77-.26-11.78-2.25-14.65-6.38-2.42-3.46-4.08-1.85-8.29-4.11a7.76,7.76,0,0,1-3.7-3.74c-1.29,1.67-2.34,3.34-2.34,3.34a10,10,0,0,0,4.08,4.25c3,1.73,4.83,1.6,4.83,1.6l1.37-1.73s.44,0,1.81,1.06,2.11,3.86,5.28,5.45,13,2.52,14.51,2.52,2.09-.39,2.39-2.18C113.63,420.66,111.7,420.66,109.81,420.53Z" transform="translate(-27.56 -64.38)"/><path class="cls-4" d="M119.34,310.91l22,41.12s-1.8,9.1.44,15.82S155.08,393,155.08,393l1.13,3,9.45-4.15s-5.85-16.42-7.2-23-.22-15.43-2.48-21.56-9.45-36.77-9.45-36.77Z" transform="translate(-27.56 -64.38)"/><line class="cls-15" x1="92.64" y1="251.24" x2="105.61" y2="276.18"/><path class="cls-14" d="M169.59,394.31s1.25-6.7,2.24-6.7,5,.66,3.38,2.86-5,7.78-5,7.78Z" transform="translate(-27.56 -64.38)"/><path class="cls-14" d="M168.83,388.43l-18,7.32,11,16a23.12,23.12,0,0,0,2,6.13c1.35,2.37,2,3.36,2,3.36l9.67-2.77s0-1.38,1.12-1.58a6.33,6.33,0,0,1,1.74,0,5.24,5.24,0,0,0,2.83-.37c3.61-1.58,12.77-5.59,14.39-6.38a3.45,3.45,0,0,0,1.51-4.58,7.05,7.05,0,0,0-5.17-2.18c-2.25,0-10.77,1-13.95.2s-3.82-.4-5.17-1.78S168.83,388.43,168.83,388.43Z" transform="translate(-27.56 -64.38)"/><path class="cls-7" d="M170.21,398.25s3.74-3.84,5.37-2.18S170.21,398.25,170.21,398.25Z" transform="translate(-27.56 -64.38)"/><path class="cls-7" d="M170.21,398.25s8,1.87,6.11,2.42S170.21,398.25,170.21,398.25Z" transform="translate(-27.56 -64.38)"/><path class="cls-7" d="M170.34,403.62a9,9,0,0,1-.13-5.38,37.61,37.61,0,0,1,1.87,8.45" transform="translate(-27.56 -64.38)"/><path class="cls-6" d="M195.66,410.21c1.82-1.41,2.2-3.83,1.41-4.7h0a80.14,80.14,0,0,1-15.73,8.35c-10.76,4.29-15,4.29-17.16,4.52,1.15,2,.82,2.78,1.74,2.92,7.46.81,9.67-2.77,9.67-2.77s0-1.38,1.13-1.58a5.77,5.77,0,0,1,1.66,0c1.08.15,3.31.44,4.27,0C186.38,415.31,192,413.08,195.66,410.21Z" transform="translate(-27.56 -64.38)"/><path class="cls-14" d="M148.81,243.15s9.94,47.19,13.5,56.68a70.92,70.92,0,0,1,4.27,16.59l-16.65,1.38Z" transform="translate(-27.56 -64.38)"/><path class="cls-14" d="M129.46,223.37s-7.45,6.73-13,20.18-9.22,49.55-10.57,56.06-2,15.88-.68,16.27,22,5.74,33.74,5.74,18.45.19,18.45-1.19-2.48-62.07-4.73-72.35-5.62-11.28-9.21-17.41S129.46,223.37,129.46,223.37Z" transform="translate(-27.56 -64.38)"/><path class="cls-6" d="M148.36,235.42a48.69,48.69,0,0,0-7.45-10.28c-4.73-4.94-8.1-9.9-11-8.31s-5.85,4.95-5.17,7.12,14.24,7.73,17.12,9.29S147.69,237.81,148.36,235.42Z" transform="translate(-27.56 -64.38)"/><path class="cls-4" d="M148.89,239.46s-8-4.17-14-2.19a27.62,27.62,0,0,0-10.08,6.34l-2.06-7.25s8.23-5.61,14.2-5.61S147.42,233.84,148.89,239.46Z" transform="translate(-27.56 -64.38)"/><path class="cls-4" d="M182.71,250.3l-1.09-.72L192,233.9a.74.74,0,0,1,.93-.22l.07,0h0a.55.55,0,0,1,.17.78Z" transform="translate(-27.56 -64.38)"/><path class="cls-6" d="M171.4,255a7.62,7.62,0,0,0,3-4.11c.58-2.52,1.22-6.24,2.32-7s5.79-2.19,6.54-2.46,2.24,0,1.36,1.88-4,2.49-4,2.49l3.76,1.68s2.26-3.83,2.92-3.71.92,1,1.36,3.07-.46,2.91-1.7,4.37-1,2.43-2.05,3.87-8.72,5.85-9.69,6.11S171.4,255,171.4,255Z" transform="translate(-27.56 -64.38)"/><path class="cls-14" d="M133.29,240.58s-3.6,4.75,0,13.06,11.48,30.26,14.17,29.85,29.92-18.4,30.37-20.17-5.4-8.12-6.07-8.74-5.63,3-9,4.15-8.55,3.63-8.55,3.63-2.7-20.39-6.75-23.93-8.33-1.38-9-1.19" transform="translate(-27.56 -64.38)"/><polygon class="cls-6" points="142.85 204.49 139.7 200.14 142.62 198.16 145.55 202.71 142.85 204.49"/><path class="cls-5" d="M123.71,235.26c.24.79.22,14.8-.45,28.82s-4,29.59-5.61,35.74-5.62,6.9-12.57,6.51-16.85-2-21.34-5.14-4-10.06-1.57-15.79,6.27-23.88,6.27-31.58A45.1,45.1,0,0,1,91.27,237c3.63-8.86,11.81-8.82,21.18-8.56C117.83,228.56,122.22,230.43,123.71,235.26Z" transform="translate(-27.56 -64.38)"/><path class="cls-5" d="M123.13,233.83c-1.87-3.77-5.87-5.29-10.66-5.43-9.39-.27-17.57-.3-21.18,8.56a45.1,45.1,0,0,0-2.83,16.86c0,7.7-3.82,25.86-6.29,31.58-2.33,5.4-2.86,11.83.83,15.2-.78-2.91.78-9.05,5.45-18.75,5.61-11.65,5.16-31.39,5.16-31.39s0-13.23,1.8-16.39,8.75-2.76,19.3-1.77A45.07,45.07,0,0,1,123.13,233.83Z" transform="translate(-27.56 -64.38)"/><path class="cls-4" d="M123.48,238.62l.35-.27a26.6,26.6,0,0,0-.12-3.09c-1.49-4.83-5.88-6.7-11.24-6.86-9.39-.27-17.57-.3-21.18,8.56a45.1,45.1,0,0,0-2.83,16.86,58.06,58.06,0,0,1-.65,7.44c1.42.83,3.52,1.71,4.24.06,1.13-2.57,2.48-18.93,3.15-23.69s7.62-4.54,15.94-3.56S123.48,238.62,123.48,238.62Z" transform="translate(-27.56 -64.38)"/><polygon class="cls-6" points="76.39 218.26 74.82 196.34 87.39 197.34 85.82 219.24 76.39 218.26"/><polygon class="cls-6" points="68.31 215.89 68.53 203.06 80.66 204.83 79.08 219.05 68.31 215.89"/><path class="cls-4" d="M118.76,279.11c-17.05,1.58-26.26-2.37-26.26-2.37s-5.16,12.44-6.74,17.17,1.58,5.72,8.76,7.9,18,4.14,20,.79S118.76,279.11,118.76,279.11Z" transform="translate(-27.56 -64.38)"/></g><g id="freepik--Floor--inject-1"><line class="cls-7" x1="403.7" y1="358.41" x2="409.77" y2="358.41"/><line class="cls-7" x1="45.98" y1="358.41" x2="395.42" y2="358.41"/></g></svg>