<svg id="Layer_1" data-name="Layer 1" xmlns="http://www.w3.org/2000/svg" xmlns:xlink="http://www.w3.org/1999/xlink" viewBox="0 0 487.46 463.56"><defs><style>.cls-1{fill:none;}.cls-2{fill:url(#linear-gradient);}.cls-3{fill:#f5f6f6;}.cls-4{fill:#e6e6e5;}.cls-5{fill:#ebebeb;}.cls-6{fill:#f1e913;}.cls-15,.cls-22,.cls-23,.cls-24,.cls-28,.cls-29,.cls-7{fill:#010101;}.cls-7{opacity:0.15;}.cls-14,.cls-15,.cls-22,.cls-23,.cls-24,.cls-25,.cls-29,.cls-7{isolation:isolate;}.cls-14,.cls-25,.cls-8{fill:#fff;}.cls-9{fill:#fafbfc;}.cls-10{fill:#e0e1e0;}.cls-11{fill:#384850;}.cls-12{fill:#273339;}.cls-13{fill:#465b65;}.cls-14,.cls-24,.cls-31{opacity:0.4;}.cls-15{opacity:0.1;}.cls-16{clip-path:url(#clip-path);}.cls-17{fill:#b16769;}.cls-18{fill:#9b4b4e;}.cls-19{clip-path:url(#clip-path-2);}.cls-20{fill:#f7a7a8;}.cls-21{fill:#f4908f;}.cls-22{opacity:0.3;}.cls-23{opacity:0.2;}.cls-25,.cls-27,.cls-29{opacity:0.5;}.cls-26{clip-path:url(#clip-path-3);}.cls-30{fill:#f1f0f0;}</style><linearGradient id="linear-gradient" x1="9.93" y1="235.53" x2="483.34" y2="235.53" gradientTransform="translate(159.84 -94.27) rotate(31.57)" gradientUnits="userSpaceOnUse"><stop offset="0" stop-color="#f0e90d" stop-opacity="0.1"/><stop offset="0.47" stop-color="#f0e90d" stop-opacity="0.7"/><stop offset="0.88" stop-color="#f0e90d"/></linearGradient><clipPath id="clip-path" transform="translate(1.99 -13.44)"><path class="cls-1" d="M147.4,110.89,185.4,89c.68-.39,1.23-.07,1.23.71V138a2.73,2.73,0,0,1-1.23,2.13L147.4,162c-.68.39-1.24.07-1.24-.71V113A2.75,2.75,0,0,1,147.4,110.89Z"/></clipPath><clipPath id="clip-path-2" transform="translate(1.99 -13.44)"><path class="cls-1" d="M147.4,203l38-21.92c.68-.4,1.23-.08,1.23.71V230.1a2.73,2.73,0,0,1-1.23,2.13l-38,21.88c-.68.39-1.24.07-1.24-.71V205.11A2.66,2.66,0,0,1,147.4,203Z"/></clipPath><clipPath id="clip-path-3" transform="translate(1.99 -13.44)"><path class="cls-1" d="M147.4,295.12l38-21.92c.68-.39,1.23-.07,1.23.71v48.32a2.73,2.73,0,0,1-1.23,2.13l-38,21.88c-.68.39-1.24.07-1.24-.71v-48.3A2.69,2.69,0,0,1,147.4,295.12Z"/></clipPath></defs><path class="cls-2" d="M.6,274.07c24.77,140.21,234,232.85,363.64,164.9,87.19-45.7,143.85-161.15,112.51-265.47C438.74,47,285.12-15.75,163.25,26.61,59.68,62.61-17.27,173,.6,274.07Z" transform="translate(1.99 -13.44)"/><g id="freepik--Floor--inject-74"><ellipse id="freepik--floor--inject-74-2" data-name="freepik--floor--inject-74" class="cls-3" cx="251.63" cy="364.5" rx="198.43" ry="99.06"/></g><g id="freepik--Shadow--inject-74"><path id="freepik--shadow--inject-74-2" data-name="freepik--shadow--inject-74" class="cls-4" d="M416.24,404c-16.27,8.77-42.64,8.77-58.9,0s-16.27-23,0-31.78,42.63-8.78,58.9,0S432.5,395.23,416.24,404Z" transform="translate(1.99 -13.44)"/></g><g id="freepik--Clouds--inject-74"><g id="freepik--clouds--inject-74-2" data-name="freepik--clouds--inject-74"><path class="cls-5" d="M365.17,70.38l8.93,5.16c0-.4-.07-.8-.07-1.18V71.77c0-4.61,3.23-6.47,7.22-4.17a14,14,0,0,1,4.3,4.14c.66-5.79,5.2-8,10.72-4.76,6,3.44,10.8,11.82,10.8,18.71v3.87a10.42,10.42,0,0,1-.91,4.48l7.41,4.29a8.85,8.85,0,0,1,4,6.93c0,2.56-1.79,3.59-4,2.32l-48.4-27.95a8.83,8.83,0,0,1-4-6.94C361.17,70.14,363,69.1,365.17,70.38Z" transform="translate(1.99 -13.44)"/><path class="cls-5" d="M327,96.41l6.74,3.89c0-.3-.06-.6-.06-.9v-2c0-3.47,2.44-4.88,5.45-3.14a10.63,10.63,0,0,1,3.25,3.12c.49-4.37,3.92-6,8.09-3.59,4.5,2.6,8.15,8.92,8.15,14.12v2.92a7.85,7.85,0,0,1-.69,3.38l5.6,3.24a6.69,6.69,0,0,1,3,5.23c0,1.93-1.35,2.71-3,1.75L327,103.34a6.67,6.67,0,0,1-3-5.24C323.93,96.23,325.28,95.44,327,96.41Z" transform="translate(1.99 -13.44)"/></g></g><g id="freepik--Plants--inject-74"><g id="freepik--plants--inject-74-2" data-name="freepik--plants--inject-74"><path class="cls-6" d="M74,382.32S75.45,367.65,68.7,358s-16.08-8.83-19.51-7.47-6,5.92-.75,9.85,16.62,11.86,18,18.13Z" transform="translate(1.99 -13.44)"/><path class="cls-7" d="M74,382.32S75.45,367.65,68.7,358s-16.08-8.83-19.51-7.47-6,5.92-.75,9.85,16.62,11.86,18,18.13Z" transform="translate(1.99 -13.44)"/><path class="cls-8" d="M70.77,378.87a.44.44,0,0,1-.44-.43c-.23-15.35-14.26-24-18-25.54a.44.44,0,0,1-.25-.57h0a.44.44,0,0,1,.57-.24c3.86,1.53,18.32,10.5,18.56,26.34a.44.44,0,0,1-.43.44Z" transform="translate(1.99 -13.44)"/><path class="cls-6" d="M68.14,374.3c-.14-3.75-3.46-6.65-9.74-6.19s-5.35.39-12.76-2.25-13,0-13.78,2.85c-.9,3.12,5.17,5.09,9.59,7.58s7.36,5.41,5.87,9.47c-1.27,3.48-1,6.55,4.42,8.36,4.77,1.6,10.24-.74,11.82,4.12.9,2.77,5.19,6.1,9.62,4C85.24,392,68.14,374.3,68.14,374.3Z" transform="translate(1.99 -13.44)"/><path class="cls-8" d="M72.5,394.52a.42.42,0,0,1-.41-.3c-4.63-13.28-26.55-24.84-34.57-26.16a.44.44,0,0,1,.14-.87c8.17,1.35,30.52,13.16,35.26,26.74a.45.45,0,0,1-.27.56Z" transform="translate(1.99 -13.44)"/><path class="cls-8" d="M52.77,387.23a.38.38,0,0,1-.34-.18.41.41,0,0,1,0-.59l0,0a22.14,22.14,0,0,1,12.17-3.91h0a.45.45,0,0,1,.44.43.43.43,0,0,1-.42.44h0A21.73,21.73,0,0,0,53,387.13.39.39,0,0,1,52.77,387.23Z" transform="translate(1.99 -13.44)"/></g></g><g id="freepik--Resumes--inject-74"><path class="cls-9" d="M77.61,220.54,73.9,218.4h0a2.17,2.17,0,0,1-1-2V143.53A6.92,6.92,0,0,1,76,138.1L240.77,43.29a2.25,2.25,0,0,1,2.17-.24h0l3.7,2.13-2.78,72.73a7,7,0,0,1-3.14,5.42Z" transform="translate(1.99 -13.44)"/><path class="cls-5" d="M76.67,145.67V218.5c0,2,1.4,2.81,3.13,1.81L244.48,125.5a7,7,0,0,0,3.13-5.43V47.23c0-2-1.41-2.81-3.14-1.81L79.77,140.23A7,7,0,0,0,76.67,145.67Z" transform="translate(1.99 -13.44)"/><path class="cls-10" d="M73.89,218.39l3.59,2.07a2.26,2.26,0,0,1-.81-2v-72.8a6.22,6.22,0,0,1,.82-2.91l-3.72-2.14a6.26,6.26,0,0,0-.82,2.92v72.83a2.14,2.14,0,0,0,.94,2Z" transform="translate(1.99 -13.44)"/><path class="cls-11" d="M90,201.6l-4.61-2.66a2.8,2.8,0,0,1-1.27-2.2V158.38a2.77,2.77,0,0,1,1.27-2.2l45.15-26.07a2.84,2.84,0,0,1,2.54,0l4.61,2.66A2.91,2.91,0,0,1,139,135v38.36a2.86,2.86,0,0,1-1.27,2.2L92.55,201.6A2.8,2.8,0,0,1,90,201.6Z" transform="translate(1.99 -13.44)"/><path class="cls-12" d="M92.33,201.7a2.77,2.77,0,0,1-2.32-.1l-4.62-2.66a2.8,2.8,0,0,1-1.27-2.2V158.37a2.53,2.53,0,0,1,.37-1.25l7.16,4.13a2.48,2.48,0,0,0-.38,1.26v38.36C91.27,201.6,91.77,201.93,92.33,201.7Z" transform="translate(1.99 -13.44)"/><path class="cls-13" d="M91.28,162.51v38.36c0,.81.56,1.14,1.27.73l45.14-26.06a2.86,2.86,0,0,0,1.27-2.2V135c0-.81-.57-1.14-1.27-.74L92.55,160.31A2.77,2.77,0,0,0,91.28,162.51Z" transform="translate(1.99 -13.44)"/><polygon class="cls-12" points="93.26 161.36 140.94 133.83 140.94 135.21 93.25 162.74 93.26 161.36"/><polygon class="cls-6" points="113.52 148.29 120.67 144.16 120.67 149.66 113.52 153.79 113.52 148.29"/><polygon class="cls-6" points="120.67 144.16 119.48 143.47 112.33 147.6 113.52 148.29 120.67 144.16"/><polygon class="cls-14" points="120.67 144.16 119.48 143.47 112.33 147.6 113.52 148.29 120.67 144.16"/><polygon class="cls-6" points="112.33 147.6 112.33 153.1 113.52 153.79 113.52 148.29 112.33 147.6"/><polygon class="cls-15" points="112.33 147.6 112.33 153.1 113.52 153.79 113.52 148.29 112.33 147.6"/><path class="cls-6" d="M102.08,150.73c-.81,0-1.47-.07-1.47-.88v-6.62a7,7,0,0,1,3.27-5.68l12.89-7.49a3,3,0,0,1,4.18.68,3,3,0,0,1,.56,2.06v6.7c0,.81-.65.88-1.46.88s-1.47-.07-1.47-.88v-6.7a1.82,1.82,0,0,0,0-.33,2.08,2.08,0,0,0-.3.13l-12.93,7.46a4.21,4.21,0,0,0-1.81,3.14v6.65C103.54,150.66,102.89,150.73,102.08,150.73Z" transform="translate(1.99 -13.44)"/><path class="cls-10" d="M145.36,110l38-21.92a.92.92,0,0,1,.87-.08l2,.9-1.65,48.22a2.73,2.73,0,0,1-1.23,2.13l-36.78,22.9s-1.82-.8-2-.92a.86.86,0,0,1-.37-.81V112.11A2.73,2.73,0,0,1,145.36,110Z" transform="translate(1.99 -13.44)"/><path class="cls-8" d="M147.4,110.89,185.4,89c.68-.39,1.23-.07,1.23.71V138a2.73,2.73,0,0,1-1.23,2.13L147.4,162c-.68.39-1.24.07-1.24-.71V113A2.75,2.75,0,0,1,147.4,110.89Z" transform="translate(1.99 -13.44)"/><g class="cls-16"><g id="freepik--Character--inject-74"><path class="cls-17" d="M176.77,160.72c-4.26-18.68-9.13-22-4.58-25.87,4.68-1.79,7.1.76,7.91,6.24.4,2.67,1.27,13.88,2.36,18.06.95,3.68,2.24,8.24,3.67,10.87a1.51,1.51,0,0,0,1.17.82c1.33.19,1.73.94,2.81,1.49.85.43,1.48.32,1.44.62a1.66,1.66,0,0,1-1.34,1.33,4.47,4.47,0,0,1-1.59-.11,8.42,8.42,0,0,0,2.32,2.13c2.08,1.35,2.42,2.67-.88,4.43-2.08,1.1-4,.57-6.59-3.64a33.4,33.4,0,0,1-2.59-4.87A93.65,93.65,0,0,1,176.77,160.72Z" transform="translate(1.99 -13.44)"/><path class="cls-13" d="M164.66,137.1h0c-4.63,1.61-4.95,4.28-6.11,7.41a10.69,10.69,0,0,0-.22,7l3.23,9.92a63.72,63.72,0,0,0-3.27,9.07c8.1,3.05,18.21-2.4,20.65-6.86.1-.84-.53-7-.91-11,1.42-4.51,1.8-7.23,1.2-9.8-1.12-4.77-5.45-8.54-7.37-7.85Z" transform="translate(1.99 -13.44)"/><path class="cls-12" d="M170.17,130.72l-3.42.93c-4.75,1.3-8.63-2.1-8.65-7.59h0c0-6.57,4.58-13.17,10.28-14.72h0c5.7-1.56,10.34,2.51,10.37,9.09h0C178.77,123.92,174.93,129.42,170.17,130.72Z" transform="translate(1.99 -13.44)"/><path class="cls-12" d="M165.71,107.23c1.47,2.12-.09,4.25-2.26,6.53s-4.13,3.85-5.6,1.74-.67-5.12,1.5-7.4S164.23,105.14,165.71,107.23Z" transform="translate(1.99 -13.44)"/><path class="cls-12" d="M160.39,116.43l-2.18,2.45a1.8,1.8,0,0,1,.23-2.25,1.27,1.27,0,0,1,1.76-.35Z" transform="translate(1.99 -13.44)"/><path class="cls-17" d="M174.77,112.94c1.09.44,2.45,3.24,2.34,9.9-.09,5.66-1.66,7.47-2.45,8.09s-2.33.79-3.81.91l.08,3.4s2.51,1.69,2.38,3.27-3.47,3.2-5.4,2.21a15.72,15.72,0,0,1-3.47-2.52.24.24,0,0,1-.08-.21v-8.52a1.58,1.58,0,0,1-2.22.26.86.86,0,0,1-.14-.13,3.18,3.18,0,0,1-.7-4.25c.95-1.38,2.71-1.56,3.4-.15a13.85,13.85,0,0,0,5.52-3.41A14.34,14.34,0,0,0,174.77,112.94Z" transform="translate(1.99 -13.44)"/><path class="cls-12" d="M171.66,122.92a1,1,0,0,1-.58.92c-.34.11-.63-.12-.64-.52a1,1,0,0,1,.57-.93C171.35,122.28,171.64,122.52,171.66,122.92Z" transform="translate(1.99 -13.44)"/><path class="cls-18" d="M171.84,127.64l1.42.13a1,1,0,0,1-.92.84C172,128.58,171.77,128.14,171.84,127.64Z" transform="translate(1.99 -13.44)"/><path class="cls-12" d="M176.67,119.38l-1.24-.66c.23-.47.69-.7,1-.52A.9.9,0,0,1,176.67,119.38Z" transform="translate(1.99 -13.44)"/><path class="cls-12" d="M176.39,121.11a1,1,0,0,1-.57.93c-.34.11-.63-.13-.65-.53a.93.93,0,0,1,.58-.92C176.09,120.48,176.38,120.71,176.39,121.11Z" transform="translate(1.99 -13.44)"/><polygon class="cls-18" points="175.62 107.67 175.6 112.29 177.53 111.06 175.62 107.67"/><path class="cls-18" d="M170.84,131.84c-1.57.19-4.8,0-5.31-1.33a2.78,2.78,0,0,0,1.14,1.57c1,.69,4.19.89,4.19.89Z" transform="translate(1.99 -13.44)"/><path class="cls-11" d="M166.77,169.23c-2.66,0-4.34-2.67-3.64-5.9a.94.94,0,0,1,.08-.32c.52-1.59,1.64-1.7,1.64-1.7h0a4,4,0,0,1-1.79-3.12l-1.29-6.34a9.17,9.17,0,0,1,.25-3.34L158.77,145l-.6.65a10.33,10.33,0,0,0,.13,5.78l3.23,9.92a59.84,59.84,0,0,0-3.27,9.07c6,2.25,13-.12,17.3-3.31A21.81,21.81,0,0,1,166.77,169.23Z" transform="translate(1.99 -13.44)"/></g><path class="cls-17" d="M150,167.86c3.6-18,5.87-25.7,9.82-28.43a13,13,0,0,1,2.67-1.33c.55.21.6,1.39.71,2.16a19.06,19.06,0,0,1-2,10.28s-5.26,14.2-6.1,19a80.22,80.22,0,0,0-1.51,12.83,2.06,2.06,0,0,0,.58,1.51c1,.94,1,1.91,1.58,3.07.49.91,1,1.16.87,1.43a1.22,1.22,0,0,1-1.57.56,4.14,4.14,0,0,1-1.2-1,12.41,12.41,0,0,0,.95,3.43c1.08,2.51.81,4-2.47,3.9-2.06-.08-3.35-1.71-3.66-7.34a50.93,50.93,0,0,1,0-6.3A127.07,127.07,0,0,1,150,167.86Z" transform="translate(1.99 -13.44)"/></g><path class="cls-13" d="M148.33,166.75l36.19-20.9c1.2-.69,2.17-.2,2.17,1.1a4.65,4.65,0,0,1-2.17,3.6l-36.19,20.89c-1.2.69-2.17.2-2.17-1.09A4.63,4.63,0,0,1,148.33,166.75Z" transform="translate(1.99 -13.44)"/><path class="cls-13" d="M193,84.7l36.2-20.9c1.19-.69,2.16-.2,2.16,1.09a4.66,4.66,0,0,1-2.16,3.6L193,89.39c-1.19.69-2.16.2-2.16-1.1A4.63,4.63,0,0,1,193,84.7Z" transform="translate(1.99 -13.44)"/><path class="cls-8" d="M191.83,94.73l46.58-26.89c.6-.35,1.09-.1,1.09.54a2.33,2.33,0,0,1-1.09,1.8L191.88,97.07c-.6.35-1.09.11-1.11-.54A2.28,2.28,0,0,1,191.83,94.73Z" transform="translate(1.99 -13.44)"/><path class="cls-8" d="M191.83,99.41l46.58-26.89c.6-.35,1.09-.1,1.09.55a2.36,2.36,0,0,1-1.09,1.8l-46.53,26.89c-.6.34-1.09.1-1.11-.55A2.28,2.28,0,0,1,191.83,99.41Z" transform="translate(1.99 -13.44)"/><path class="cls-8" d="M191.83,104.1l46.58-26.87c.6-.34,1.09-.1,1.09.55a2.36,2.36,0,0,1-1.09,1.8l-46.53,26.89c-.6.35-1.09.1-1.11-.55A2.27,2.27,0,0,1,191.83,104.1Z" transform="translate(1.99 -13.44)"/><path class="cls-8" d="M191.83,108.78l46.58-26.89c.6-.35,1.09-.1,1.09.54a2.33,2.33,0,0,1-1.09,1.8l-46.53,26.89c-.6.35-1.09.1-1.11-.54A2.28,2.28,0,0,1,191.83,108.78Z" transform="translate(1.99 -13.44)"/><path class="cls-8" d="M191.83,113.46l46.58-26.89c.6-.35,1.09-.1,1.09.55a2.34,2.34,0,0,1-1.09,1.79l-46.53,26.9c-.6.34-1.09.1-1.11-.55A2.28,2.28,0,0,1,191.83,113.46Z" transform="translate(1.99 -13.44)"/><path class="cls-6" d="M193,122.06l3.75-2.16c1.2-.7,2.17-.14,2.17,1.25v4.38a4.79,4.79,0,0,1-2.17,3.75l-3.79,2.19c-1.2.69-2.16.13-2.16-1.25v-4.41A4.8,4.8,0,0,1,193,122.06Z" transform="translate(1.99 -13.44)"/><path class="cls-13" d="M200.29,119c0,.65.48.89,1.08.55l10-5.79a2.37,2.37,0,0,0,1.09-1.79c0-.65-.48-.89-1.08-.55l-10,5.78A2.28,2.28,0,0,0,200.29,119Z" transform="translate(1.99 -13.44)"/><path class="cls-13" d="M200.29,122.52c0,.65.48.89,1.08.55l10-5.79a2.37,2.37,0,0,0,1.09-1.79c0-.65-.48-.89-1.08-.55l-10,5.78A2.28,2.28,0,0,0,200.29,122.52Z" transform="translate(1.99 -13.44)"/><path class="cls-13" d="M200.29,126c0,.65.48.9,1.08.55l10-5.78a2.39,2.39,0,0,0,1.09-1.8c0-.64-.48-.89-1.08-.54l-10,5.78A2.3,2.3,0,0,0,200.29,126Z" transform="translate(1.99 -13.44)"/><path class="cls-6" d="M193,136.13l3.75-2.16c1.2-.69,2.17-.13,2.17,1.25v4.38a4.79,4.79,0,0,1-2.17,3.75l-3.79,2.19c-1.2.69-2.16.13-2.16-1.25v-4.41A4.8,4.8,0,0,1,193,136.13Z" transform="translate(1.99 -13.44)"/><path class="cls-13" d="M200.29,133.07c0,.65.48.89,1.08.55l10-5.79a2.37,2.37,0,0,0,1.09-1.79c0-.65-.48-.89-1.08-.55l-10,5.78A2.28,2.28,0,0,0,200.29,133.07Z" transform="translate(1.99 -13.44)"/><path class="cls-13" d="M200.29,136.59c0,.65.48.9,1.08.55l10-5.79a2.34,2.34,0,0,0,1.09-1.79c0-.65-.48-.89-1.08-.54l-10,5.78A2.3,2.3,0,0,0,200.29,136.59Z" transform="translate(1.99 -13.44)"/><path class="cls-13" d="M200.29,140.12c0,.64.48.89,1.08.54l10-5.78a2.39,2.39,0,0,0,1.09-1.8c0-.64-.48-.89-1.08-.54l-10,5.78A2.28,2.28,0,0,0,200.29,140.12Z" transform="translate(1.99 -13.44)"/><path class="cls-6" d="M220,106.76l3.75-2.17c1.2-.69,2.16-.13,2.16,1.25v4.39a4.75,4.75,0,0,1-2.16,3.75l-3.79,2.2c-1.2.69-2.16.13-2.16-1.25v-4.41A4.83,4.83,0,0,1,220,106.76Z" transform="translate(1.99 -13.44)"/><path class="cls-13" d="M227.3,103.7c0,.64.49.89,1.09.54l10-5.78a2.39,2.39,0,0,0,1.09-1.8c0-.64-.48-.89-1.08-.54l-10,5.78A2.29,2.29,0,0,0,227.3,103.7Z" transform="translate(1.99 -13.44)"/><path class="cls-13" d="M227.3,107.23c0,.65.49.89,1.09.55l10-5.79a2.36,2.36,0,0,0,1.11-1.76c0-.65-.48-.89-1.08-.55l-10,5.78A2.31,2.31,0,0,0,227.3,107.23Z" transform="translate(1.99 -13.44)"/><path class="cls-13" d="M227.3,110.74c0,.65.49.9,1.09.55l10-5.79a2.34,2.34,0,0,0,1.09-1.79c0-.65-.48-.89-1.08-.55l-10,5.79A2.27,2.27,0,0,0,227.3,110.74Z" transform="translate(1.99 -13.44)"/><path class="cls-6" d="M220,120.83l3.75-2.16c1.2-.7,2.16-.14,2.16,1.25v4.38a4.78,4.78,0,0,1-2.16,3.75l-3.79,2.18c-1.2.69-2.16.13-2.16-1.25v-4.41A4.82,4.82,0,0,1,220,120.83Z" transform="translate(1.99 -13.44)"/><path class="cls-13" d="M227.3,117.77c0,.65.49.89,1.09.55l10-5.79a2.37,2.37,0,0,0,1.09-1.79c0-.65-.48-.89-1.08-.55l-10,5.78A2.29,2.29,0,0,0,227.3,117.77Z" transform="translate(1.99 -13.44)"/><path class="cls-13" d="M227.3,121.29c0,.65.49.89,1.09.55l10-5.79a2.37,2.37,0,0,0,1.09-1.79c0-.65-.48-.89-1.08-.55l-10,5.78A2.29,2.29,0,0,0,227.3,121.29Z" transform="translate(1.99 -13.44)"/><path class="cls-13" d="M227.3,124.81c0,.65.49.9,1.09.55l10-5.78a2.39,2.39,0,0,0,1.09-1.8c0-.64-.48-.89-1.08-.54l-10,5.78A2.27,2.27,0,0,0,227.3,124.81Z" transform="translate(1.99 -13.44)"/><path class="cls-9" d="M77.61,312.63l-3.71-2.14h0a2.17,2.17,0,0,1-1-2V235.61a6.91,6.91,0,0,1,3.19-5.38l164.68-94.86a2.25,2.25,0,0,1,2.17-.24h0l3.7,2.13L243.86,210a7,7,0,0,1-3.14,5.43Z" transform="translate(1.99 -13.44)"/><path class="cls-5" d="M76.67,237.76v72.83c0,2,1.4,2.81,3.13,1.81l164.68-94.82a7,7,0,0,0,3.13-5.43V139.32c0-2-1.41-2.81-3.14-1.81L79.77,232.33A6.93,6.93,0,0,0,76.67,237.76Z" transform="translate(1.99 -13.44)"/><path class="cls-10" d="M73.89,310.48l3.59,2.06a2.26,2.26,0,0,1-.81-2V237.75a6.22,6.22,0,0,1,.82-2.91l-3.72-2.14a6.22,6.22,0,0,0-.82,2.91v72.84a2.14,2.14,0,0,0,.94,2Z" transform="translate(1.99 -13.44)"/><path class="cls-10" d="M145.36,202.06l38-21.92a.9.9,0,0,1,.87-.09c.36.18,2,.91,2,.91l-1.67,48.27a2.73,2.73,0,0,1-1.23,2.13l-36.78,22.87s-1.82-.8-2.05-.92a.83.83,0,0,1-.37-.8V204.23A2.7,2.7,0,0,1,145.36,202.06Z" transform="translate(1.99 -13.44)"/><path class="cls-8" d="M147.4,203l38-21.92c.68-.39,1.23-.08,1.23.71V230.1a2.73,2.73,0,0,1-1.23,2.13l-38,21.88c-.68.39-1.24.07-1.24-.71V205.11A2.66,2.66,0,0,1,147.4,203Z" transform="translate(1.99 -13.44)"/><g class="cls-19"><g id="freepik--character-boy--inject-74"><path class="cls-20" d="M173.92,223.4s3-.93,5.47,3c1.69,2.66,7.6,12.78,7.6,12.78s11.48-6.09,12.13-6.88.61-2.42.7-3.29a10.12,10.12,0,0,0-.44-3.23c-.14-.91,1.18-1,1.83.31.47.92.51,2,.92,2a11.56,11.56,0,0,0,1.61-1.37c.71-.78,2-2.08,3-1.9a.85.85,0,0,1,.65.7,4.35,4.35,0,0,0,.37,1.55,3,3,0,0,1,.38.62,8.34,8.34,0,0,1,0,1c0,.48.51.68.57,1.15a9.82,9.82,0,0,1-.12,1.09c0,.23.08.44.08.67a2.33,2.33,0,0,1-.59,1.28,13.91,13.91,0,0,1-3.41,2.85c-1,.68-2.43,1.29-3.62,1.94s-14.72,11-16.52,9.8-10.84-14.39-10.84-14.39C171.58,227.23,173.92,223.4,173.92,223.4Z" transform="translate(1.99 -13.44)"/><path class="cls-13" d="M168.68,223.49a16,16,0,0,1,5.43-1.2,5.89,5.89,0,0,1,5.27,3.26c2.09,3.36,5.55,9.16,5.55,9.16a16.65,16.65,0,0,1-6.72,7.18l-6.37-9.61Z" transform="translate(1.99 -13.44)"/><g id="freepik--character-boy--inject-74-2" data-name="freepik--character-boy--inject-74"><path class="cls-6" d="M158.25,229.3a7,7,0,0,0-2.33,3.42,16.61,16.61,0,0,0-.71,5v10.93l-.13,20.67c6.93,2.36,15.74.28,23.13-7.94,0,0-.41-26.44-.41-30.78V230c-.27-6.13-5.56-9-10.77-6l-4.38,2.48-4.39,2.85Z" transform="translate(1.99 -13.44)"/><path class="cls-12" d="M163,206.82c0,4.66,3.27,7.56,7.31,6.48s7.31-5.74,7.31-10.4-3.49-4.66-7.52-3.58S163,202.16,163,206.82Z" transform="translate(1.99 -13.44)"/><path class="cls-12" d="M159.18,214.23a60.7,60.7,0,0,0,1.51,6.4,1.64,1.64,0,0,0,1.32.88l-.07-4.09Z" transform="translate(1.99 -13.44)"/><path class="cls-12" d="M160.53,205.46a3,3,0,0,0-2.06,1.39c-.89,1.29-.39,4.43.71,7.34l2-.27Z" transform="translate(1.99 -13.44)"/><path class="cls-20" d="M161.77,213.76c-.4.39-1-.36-1.48-.83s-2.14-.86-3,1.34.72,4.51,2,4.63a2.14,2.14,0,0,0,2.56-1.52l.07,9.48c3.73,4,10.26-.71,7.32-2.46v-2.81a12.93,12.93,0,0,0,3-.63c1.63-.73,2.66-2.49,3.16-4.66.79-3.5,1.09-6.23.42-12.49-.74-6.87-7.86-5-11.71-1.21S161.77,213.76,161.77,213.76Z" transform="translate(1.99 -13.44)"/><path class="cls-12" d="M161.77,214.55c-.2.06-1-1.23-1.48-1.62-.71-.55.2-7.47.2-7.47-.81-1.78.68-4.47,2.25-5.57a9.05,9.05,0,0,1,3.7-1.36c1.13-.21,2.24-.36,3.36-.46a31,31,0,0,0,4.06-.49,9.15,9.15,0,0,0,3.21-1.38c.33-.23.66,0,.55.43a5.67,5.67,0,0,1-.38,1.07,10.47,10.47,0,0,1-1.08,1.9,15.32,15.32,0,0,1-1.57,1.74c-3,2.84-6.81,3.62-10.15,4-.76.08-.92,1-1.32,3.38C162.77,210.84,162.5,214.35,161.77,214.55Z" transform="translate(1.99 -13.44)"/><path class="cls-12" d="M160.53,206l-2.45-.86a1.62,1.62,0,0,1,1.86-1.21C160.62,204.14,160.88,205.07,160.53,206Z" transform="translate(1.99 -13.44)"/><path class="cls-21" d="M169.32,221.59a21.33,21.33,0,0,1-4.92-.31,3.09,3.09,0,0,1-1.76-1.55,5.21,5.21,0,0,0,1,2.11c.94,1.13,5.68.87,5.68.87Z" transform="translate(1.99 -13.44)"/><path class="cls-12" d="M168.45,210.93a1.14,1.14,0,0,1-.73,1.07c-.41.1-.73-.2-.73-.69a1.12,1.12,0,0,1,.78-1.08C168.12,210.14,168.45,210.44,168.45,210.93Z" transform="translate(1.99 -13.44)"/><path class="cls-12" d="M167.28,207.75l-1.57,1.41a1.35,1.35,0,0,1,.37-1.53.72.72,0,0,1,1-.11A.83.83,0,0,1,167.28,207.75Z" transform="translate(1.99 -13.44)"/><path class="cls-21" d="M169,216.61l1.67.27a1.16,1.16,0,0,1-1.13,1C169.07,217.75,168.83,217.23,169,216.61Z" transform="translate(1.99 -13.44)"/><path class="cls-12" d="M175.15,206.38l-1.42-.89c.29-.55.84-.79,1.23-.55A1.12,1.12,0,0,1,175.15,206.38Z" transform="translate(1.99 -13.44)"/><path class="cls-12" d="M174.53,209.06a1.14,1.14,0,0,1-.74,1.07c-.4.1-.73-.2-.73-.69a1.12,1.12,0,0,1,.73-1.07C174.2,208.23,174.53,208.57,174.53,209.06Z" transform="translate(1.99 -13.44)"/><polygon class="cls-21" points="172.89 195.91 172.98 201 175.6 199.63 172.89 195.91"/></g></g><path class="cls-20" d="M147.94,260.55c1.53-21.06,4.65-28.61,9.78-30.82,1.77,1.32,2.2,7.51.35,12.21,0,0-4,14-4.21,18.81a75.53,75.53,0,0,0,.81,13.27,1.83,1.83,0,0,0,.81,1.32c1.12.73,1,1.79,1.85,2.79.63.79,1.22.93,1.1,1.22a1.41,1.41,0,0,1-1.57.84,4,4,0,0,1-1.37-.75,11.32,11.32,0,0,0,1.44,3.14c1.46,2.22,1.39,3.73-2,4.23-2.15.32-3.71-1-4.79-6.39-.31-1.55-1-4.33-1.34-6.34A60.71,60.71,0,0,1,147.94,260.55Z" transform="translate(1.99 -13.44)"/><path class="cls-13" d="M159.18,228.69a12,12,0,0,0-5.63,4.37c-1.88,3.06-3.68,8-4.94,16.72,0,0,2.36,3.24,8.53.55,0,0,2.68-11.15,2.92-15.56C160.32,230,159.18,228.69,159.18,228.69Z" transform="translate(1.99 -13.44)"/></g><path class="cls-13" d="M148.33,258.84l36.19-20.9c1.2-.69,2.17-.2,2.17,1.1a4.66,4.66,0,0,1-2.17,3.59l-36.19,20.9c-1.2.69-2.17.2-2.17-1.1A4.64,4.64,0,0,1,148.33,258.84Z" transform="translate(1.99 -13.44)"/><path class="cls-13" d="M193,176.78l36.2-20.89c1.19-.69,2.16-.2,2.16,1.09a4.66,4.66,0,0,1-2.16,3.6L193,181.47c-1.19.69-2.16.2-2.16-1.09A4.62,4.62,0,0,1,193,176.78Z" transform="translate(1.99 -13.44)"/><path class="cls-8" d="M191.83,186.82l46.58-26.9c.6-.34,1.09-.1,1.09.55a2.36,2.36,0,0,1-1.09,1.8l-46.53,26.89c-.6.35-1.09.1-1.11-.55A2.25,2.25,0,0,1,191.83,186.82Z" transform="translate(1.99 -13.44)"/><path class="cls-8" d="M191.83,191.5l46.58-26.89c.6-.35,1.09-.1,1.09.54a2.33,2.33,0,0,1-1.09,1.8l-46.53,26.89c-.6.35-1.09.11-1.11-.54A2.28,2.28,0,0,1,191.83,191.5Z" transform="translate(1.99 -13.44)"/><path class="cls-8" d="M191.83,196.23l46.58-26.89c.6-.35,1.09-.1,1.09.55a2.36,2.36,0,0,1-1.09,1.8l-46.53,26.84c-.6.34-1.09.1-1.11-.55A2.31,2.31,0,0,1,191.83,196.23Z" transform="translate(1.99 -13.44)"/><path class="cls-8" d="M191.83,200.87,238.41,174c.6-.34,1.09-.1,1.09.55a2.36,2.36,0,0,1-1.09,1.8l-46.53,26.91c-.6.35-1.09.1-1.11-.55A2.26,2.26,0,0,1,191.83,200.87Z" transform="translate(1.99 -13.44)"/><path class="cls-8" d="M191.83,205.55l46.58-26.89c.6-.35,1.09-.1,1.09.54a2.33,2.33,0,0,1-1.09,1.8l-46.53,26.89c-.6.35-1.09.1-1.11-.54A2.28,2.28,0,0,1,191.83,205.55Z" transform="translate(1.99 -13.44)"/><path class="cls-6" d="M193,214.15l3.75-2.17c1.2-.69,2.17-.13,2.17,1.25v4.38a4.79,4.79,0,0,1-2.17,3.75l-3.79,2.19c-1.2.69-2.16.13-2.16-1.25v-4.4A4.77,4.77,0,0,1,193,214.15Z" transform="translate(1.99 -13.44)"/><path class="cls-13" d="M200.29,211.08c0,.65.48.9,1.08.55l10-5.78a2.39,2.39,0,0,0,1.09-1.8c0-.64-.48-.89-1.08-.54l-10,5.78A2.3,2.3,0,0,0,200.29,211.08Z" transform="translate(1.99 -13.44)"/><path class="cls-13" d="M200.29,214.61c0,.65.48.89,1.08.55l10-5.79a2.37,2.37,0,0,0,1.09-1.79c0-.65-.48-.89-1.08-.55l-10,5.78A2.28,2.28,0,0,0,200.29,214.61Z" transform="translate(1.99 -13.44)"/><path class="cls-13" d="M200.29,218.13c0,.65.48.89,1.08.55l10-5.79a2.37,2.37,0,0,0,1.09-1.79c0-.65-.48-.89-1.08-.55l-10,5.78A2.28,2.28,0,0,0,200.29,218.13Z" transform="translate(1.99 -13.44)"/><path class="cls-6" d="M193,228.23l3.75-2.17c1.2-.69,2.17-.13,2.17,1.25v4.38a4.76,4.76,0,0,1-2.17,3.75l-3.79,2.2c-1.2.69-2.16.13-2.16-1.25V232A4.8,4.8,0,0,1,193,228.23Z" transform="translate(1.99 -13.44)"/><path class="cls-13" d="M200.29,225.16c0,.64.48.89,1.08.54l10-5.78a2.39,2.39,0,0,0,1.09-1.8c0-.64-.48-.89-1.08-.54l-10,5.78A2.28,2.28,0,0,0,200.29,225.16Z" transform="translate(1.99 -13.44)"/><path class="cls-13" d="M200.29,228.68c0,.65.48.89,1.08.55l10-5.79a2.37,2.37,0,0,0,1.09-1.79c0-.65-.48-.89-1.08-.55l-10,5.78A2.28,2.28,0,0,0,200.29,228.68Z" transform="translate(1.99 -13.44)"/><path class="cls-13" d="M200.29,232.23c0,.65.48.9,1.08.55l10-5.79a2.34,2.34,0,0,0,1.09-1.79c0-.65-.48-.89-1.08-.54l-10,5.78A2.3,2.3,0,0,0,200.29,232.23Z" transform="translate(1.99 -13.44)"/><path class="cls-6" d="M220,198.84l3.75-2.16c1.2-.69,2.16-.13,2.16,1.25v4.38a4.78,4.78,0,0,1-2.16,3.75l-3.79,2.17c-1.2.69-2.16.13-2.16-1.25v-4.41A4.83,4.83,0,0,1,220,198.84Z" transform="translate(1.99 -13.44)"/><path class="cls-13" d="M227.3,195.78c0,.65.49.9,1.09.55l10-5.78a2.39,2.39,0,0,0,1.09-1.8c0-.65-.48-.89-1.08-.54l-10,5.78A2.27,2.27,0,0,0,227.3,195.78Z" transform="translate(1.99 -13.44)"/><path class="cls-13" d="M227.3,199.31c0,.64.49.89,1.09.54l10-5.78a2.39,2.39,0,0,0,1.09-1.8c0-.64-.48-.89-1.08-.54l-10,5.78A2.29,2.29,0,0,0,227.3,199.31Z" transform="translate(1.99 -13.44)"/><path class="cls-13" d="M227.3,202.83c0,.65.49.89,1.09.55l10-5.79a2.37,2.37,0,0,0,1.09-1.79c0-.65-.48-.89-1.08-.55l-10,5.78A2.29,2.29,0,0,0,227.3,202.83Z" transform="translate(1.99 -13.44)"/><path class="cls-6" d="M220,212.92l3.75-2.17c1.2-.69,2.16-.13,2.16,1.25v4.38a4.77,4.77,0,0,1-2.12,3.75L220,222.32c-1.2.69-2.16.13-2.16-1.25v-4.4A4.84,4.84,0,0,1,220,212.92Z" transform="translate(1.99 -13.44)"/><path class="cls-13" d="M227.3,209.86c0,.64.49.89,1.09.54l10-5.78a2.39,2.39,0,0,0,1.09-1.8c0-.64-.48-.89-1.08-.54l-10,5.78A2.29,2.29,0,0,0,227.3,209.86Z" transform="translate(1.99 -13.44)"/><path class="cls-13" d="M227.3,213.38c0,.65.49.89,1.09.55l10-5.79a2.37,2.37,0,0,0,1.09-1.79c0-.65-.48-.89-1.08-.55l-10,5.78A2.29,2.29,0,0,0,227.3,213.38Z" transform="translate(1.99 -13.44)"/><path class="cls-13" d="M227.3,216.9c0,.65.49.89,1.09.55l10-5.79a2.37,2.37,0,0,0,1.09-1.79c0-.65-.48-.89-1.08-.55l-10,5.78A2.29,2.29,0,0,0,227.3,216.9Z" transform="translate(1.99 -13.44)"/><path class="cls-22" d="M113.32,235.48l.08.05-.1-.06-.19-.1Z" transform="translate(1.99 -13.44)"/><path class="cls-6" d="M111.91,234.41a.14.14,0,0,0,0,.15.14.14,0,0,1,0-.15l.28-1Z" transform="translate(1.99 -13.44)"/><path class="cls-14" d="M111.91,234.41a.14.14,0,0,0,0,.15.14.14,0,0,1,0-.15l.28-1Z" transform="translate(1.99 -13.44)"/><path class="cls-6" d="M140.31,220.64,135,217.55h-.16l-.41-.24c-.19-.1-.38-.22-.57-.33l-2.3-1.33-.36-.21-.72-.42a.52.52,0,0,0-.27-.05l-2.68.27a.82.82,0,0,0-.45.21.62.62,0,0,0-.14.19l-1.45,3.91h0v.15l-.1.11a1.93,1.93,0,0,1-.28.22l-.1.06c-.28.13-.57.28-.86.44l-2.81-1.63a.24.24,0,0,0-.12,0,.47.47,0,0,0-.32.16h0l-1.76,1.87-1.19,1.24a.84.84,0,0,0-.2.37.45.45,0,0,0,0,.28l.83,2.78v.1a.54.54,0,0,1,0,.18V226h0v.14l-.06.12a20.58,20.58,0,0,0-1.36,2.36.35.35,0,0,1-.06.09l-.08.09a1.1,1.1,0,0,1-.5.29l-2.52.61a.9.9,0,0,0-.48.3.7.7,0,0,0-.09.17l-.16.53-.83,2.79-.28,1a.14.14,0,0,0,0,.15.14.14,0,0,0,0,.09l.07.07h0l.43.24.11.07h0l.34.2.18.11.21.11.08,0,.22.13,1.23.7h0a7.36,7.36,0,0,0,0,1.15.81.81,0,0,1,0,.31,1.46,1.46,0,0,1-.2.37l-2.57,3.11a.58.58,0,0,0-.16.32v.09a.3.3,0,0,0,0,.23l1.23,2.7v0h0a20.48,20.48,0,0,1,1.83,1.06l.48.27,1.78,1,.21.12,1.1.64a.08.08,0,0,1-.06-.08l-1.22-2.7a.47.47,0,0,1,0-.33.77.77,0,0,1,.16-.31l2.57-3.11a1.25,1.25,0,0,0,.2-.38.94.94,0,0,0,0-.3,11.76,11.76,0,0,1,0-2.22A.38.38,0,0,0,120,238h0l-2.31-.13a.28.28,0,0,1-.18,0h0a.25.25,0,0,1-.12-.32l1.12-3.75.15-.53a.58.58,0,0,1,.11-.18.85.85,0,0,1,.46-.29l2.52-.61a1.07,1.07,0,0,0,.51-.3.83.83,0,0,0,.13-.18,25.11,25.11,0,0,1,1.36-2.35,1.06,1.06,0,0,0,.16-.58h0v-.09l-.82-2.78a.51.51,0,0,1,0-.3.88.88,0,0,1,.21-.34h0l2.9-3.08a.39.39,0,0,1,.41-.14h0a.16.16,0,0,1,.07.07l1.37,2.09c.1.15.36.14.58,0a12.6,12.6,0,0,1,1.66-1,1.4,1.4,0,0,0,.58-.55h0l1.46-3.9a.41.41,0,0,1,.14-.21.78.78,0,0,1,.44-.2l2.69-.27a.45.45,0,0,1,.23,0h0a.28.28,0,0,1,.12.28l-.85,3.84a.43.43,0,0,0,.28.48,4.9,4.9,0,0,1,1.17.68.48.48,0,0,0,.6-.1l2.74-2.51A.4.4,0,0,1,140.31,220.64Z" transform="translate(1.99 -13.44)"/><path class="cls-6" d="M138.71,229a7.74,7.74,0,0,1-.05,1.07.38.38,0,0,0,.38.38h0l2.3.13h.17Z" transform="translate(1.99 -13.44)"/><path class="cls-6" d="M130.93,244.35c-.1-.15-.35-.14-.58,0l-.8.52,2.82,1.64h0a.11.11,0,0,1-.07-.06Z" transform="translate(1.99 -13.44)"/><path class="cls-6" d="M123.58,245.84a4.11,4.11,0,0,1-1.18-.69.49.49,0,0,0-.6.1l-2.74,2.51a.52.52,0,0,1-.3.14l4.36,2.52a.21.21,0,0,1-.11-.26l.84-3.85A.43.43,0,0,0,123.58,245.84Z" transform="translate(1.99 -13.44)"/><path class="cls-6" d="M131.56,238.83a7.78,7.78,0,0,1-3.49,2.26h-1a2.67,2.67,0,0,1-2.53-1.69,4.31,4.31,0,0,1-.36-1.41l.63-.33a12,12,0,0,0,5.4-9.34v-.74a4.27,4.27,0,0,1,1.9-.4h.32a2.74,2.74,0,0,1,2.11,1.67C135.62,231.53,134.31,235.93,131.56,238.83Z" transform="translate(1.99 -13.44)"/><path class="cls-22" d="M131.56,238.83a7.78,7.78,0,0,1-3.49,2.26h-1a2.67,2.67,0,0,1-2.53-1.69,4.31,4.31,0,0,1-.36-1.41l.63-.33a12,12,0,0,0,5.4-9.34v-.74a4.27,4.27,0,0,1,1.9-.4h.32a2.74,2.74,0,0,1,2.11,1.67C135.62,231.53,134.31,235.93,131.56,238.83Z" transform="translate(1.99 -13.44)"/><path class="cls-6" d="M141.53,230.65h0a.48.48,0,0,0-.17,0l-2.3-.13a.36.36,0,0,1-.39-.35v0c0-.37.05-.73.05-1.08s0-.76-.05-1.14a1.08,1.08,0,0,1,.25-.68l2.57-3.12a.73.73,0,0,0,.16-.64l-1.22-2.7-.07-.08h0a.37.37,0,0,0-.39.12l-2.75,2.51a.48.48,0,0,1-.6.1,4.9,4.9,0,0,0-1.17-.68.43.43,0,0,1-.28-.48l.85-3.84a.28.28,0,0,0-.12-.28.53.53,0,0,0-.25,0l-2.69.27a.74.74,0,0,0-.59.41l-1.45,3.9a1.3,1.3,0,0,1-.59.57,12.6,12.6,0,0,0-1.66,1c-.23.15-.48.16-.58,0l-1.37-2.1c-.1-.14-.32-.11-.5.07l-3,2.95a.75.75,0,0,0-.23.64l.82,2.78a1,1,0,0,1-.15.67,22,22,0,0,0-1.36,2.35,1.09,1.09,0,0,1-.64.48l-2.52.61a.82.82,0,0,0-.57.47l-1.27,4.28a.29.29,0,0,0,.2.37.21.21,0,0,0,.11,0L120,238a.4.4,0,0,1,.39.38,11.76,11.76,0,0,0,0,2.22,1.18,1.18,0,0,1-.25.68l-2.57,3.11a.66.66,0,0,0-.15.64l1.22,2.7a.1.1,0,0,0,.07.08h.1a.52.52,0,0,0,.3-.14l2.71-2.46a.49.49,0,0,1,.6-.1,4.08,4.08,0,0,0,1.18.68.45.45,0,0,1,.27.48l-.84,3.85a.21.21,0,0,0,.11.26h0a.36.36,0,0,0,.25,0l2.68-.26a.77.77,0,0,0,.59-.41l1.46-3.9a1.19,1.19,0,0,1,.58-.57l.86-.45.81-.51c.22-.16.47-.17.57,0l1.37,2.1a.11.11,0,0,0,.07.06.35.35,0,0,0,.43-.13l3-3.1a.81.81,0,0,0,.22-.65l-.82-2.78a1,1,0,0,1,.16-.67,24.69,24.69,0,0,0,1.35-2.35,1.07,1.07,0,0,1,.64-.48l2.52-.6a.85.85,0,0,0,.57-.48l1.27-4.27A.32.32,0,0,0,141.53,230.65Zm-13.46,10.44h-1a2.69,2.69,0,0,1-2.53-1.71,4.21,4.21,0,0,1-.37-1.4,3.39,3.39,0,0,1,0-.78,12,12,0,0,1,3.32-7.63,8.84,8.84,0,0,1,2-1.65,4.83,4.83,0,0,1,.68-.35,4.41,4.41,0,0,1,1.9-.4h.32a2.71,2.71,0,0,1,2.11,1.67c1.14,2.52-.17,6.91-2.92,9.82A7.83,7.83,0,0,1,128.07,241.09Z" transform="translate(1.99 -13.44)"/><line class="cls-1" x1="136.9" y1="204.08" x2="142.32" y2="207.22"/><path class="cls-23" d="M122.2,231.89a1.07,1.07,0,0,1-.51.3l-2.52.61a.85.85,0,0,0-.46.29L113.27,230a.9.9,0,0,1,.48-.3l2.52-.61a1.1,1.1,0,0,0,.5-.29h0Z" transform="translate(1.99 -13.44)"/><path class="cls-22" d="M123.85,228.78l-5.42-3.13v-.1l-.83-2.78a.45.45,0,0,1,0-.28l4.14,2.38,1.28.74a.51.51,0,0,0,0,.3l.82,2.78S123.85,228.75,123.85,228.78Z" transform="translate(1.99 -13.44)"/><path class="cls-22" d="M132.49,218.53a.41.41,0,0,0-.14.21l-1.46,3.9h0l-5.43-3.13h0l1.45-3.91a.62.62,0,0,1,.14-.19Z" transform="translate(1.99 -13.44)"/><path class="cls-22" d="M140.31,220.64a.38.38,0,0,0-.38.13l-2.74,2.51a.48.48,0,0,1-.6.1,4.9,4.9,0,0,0-1.17-.68.43.43,0,0,1-.28-.48l.85-3.84a.28.28,0,0,0-.12-.28h0l-1-.59H135Z" transform="translate(1.99 -13.44)"/><path class="cls-22" d="M141.52,230.64h-.17l-2.3-.13a.37.37,0,0,1-.39-.37h0c0-.36.05-.72.05-1.07Z" transform="translate(1.99 -13.44)"/><path class="cls-24" d="M132.37,246.51h0l-2.82-1.64c.26-.16.54-.33.8-.52s.48-.16.58,0l1.37,2.1A.11.11,0,0,0,132.37,246.51Z" transform="translate(1.99 -13.44)"/><path class="cls-24" d="M123.85,246.31l-.84,3.85a.21.21,0,0,0,.11.26l-4.35-2.52a.52.52,0,0,0,.3-.14l2.7-2.53a.49.49,0,0,1,.6-.1,4.11,4.11,0,0,0,1.18.69A.43.43,0,0,1,123.85,246.31Z" transform="translate(1.99 -13.44)"/><path class="cls-23" d="M120.28,241a1.25,1.25,0,0,1-.2.38l-2.57,3.11a.77.77,0,0,0-.16.31l-5.42-3.13a.58.58,0,0,1,.16-.32l2.57-3.11a1.46,1.46,0,0,0,.2-.37Z" transform="translate(1.99 -13.44)"/><path class="cls-15" d="M130.88,222.66a1.4,1.4,0,0,1-.58.55,12.6,12.6,0,0,0-1.66,1c-.22.15-.48.16-.58,0l-1.37-2.09a.16.16,0,0,0-.07-.07h0l-2.58-1.5c.29-.16.58-.31.86-.44l.1-.06a1.93,1.93,0,0,0,.28-.22l.1-.11v-.15Z" transform="translate(1.99 -13.44)"/><path class="cls-24" d="M120.33,240.66a.94.94,0,0,1,0,.3l-5.42-3.13a.81.81,0,0,0,0-.31,7.36,7.36,0,0,1,0-1.15l2.59,1.5h0a.28.28,0,0,0,.18,0l2.31.13a.39.39,0,0,1,.39.37h0A12.4,12.4,0,0,0,120.33,240.66Z" transform="translate(1.99 -13.44)"/><path class="cls-15" d="M123.85,228.78h0a1.06,1.06,0,0,1-.16.58,25.11,25.11,0,0,0-1.36,2.35.83.83,0,0,1-.13.18l-5.43-3.13.08-.09a.35.35,0,0,0,.06-.09,20.46,20.46,0,0,1,1.36-2.35l.06-.12V226h0v-.11a.54.54,0,0,0,0-.18Z" transform="translate(1.99 -13.44)"/><path class="cls-22" d="M116.85,228.67l-.08.09h0Z" transform="translate(1.99 -13.44)"/><path class="cls-24" d="M118.64,247.87l-1.1-.64-.21-.12-1.78-1c-.16-.09-.32-.19-.48-.27-.94-.56-1.73-1-1.83-1.06h0v-.05L112,242a.3.3,0,0,1,0-.23v-.09l5.42,3.13a.47.47,0,0,0,0,.33l1.22,2.7Z" transform="translate(1.99 -13.44)"/><path class="cls-22" d="M113.27,230a.7.7,0,0,0-.09.17l-.16.53-.83,2.79-.28,1a.14.14,0,0,0,0,.15.14.14,0,0,0,0,.09l.07.07h0l.43.24.11.07h0l.34.2.18.11.21.11.08,0,.22.13,1.23.7h0l2.59,1.5a.25.25,0,0,1-.12-.32l1.12-3.75.15-.53a.58.58,0,0,1,.11-.18Z" transform="translate(1.99 -13.44)"/><path class="cls-25" d="M124,220.51l-2.81-1.63h-.12a.47.47,0,0,0-.32.16h0L119,220.91l-1.19,1.24a.84.84,0,0,0-.2.37l4.14,2.38,1.28.74a.88.88,0,0,1,.21-.34h0l2.9-3.08a.39.39,0,0,1,.41-.14Z" transform="translate(1.99 -13.44)"/><path class="cls-25" d="M135.85,218.09a.45.45,0,0,0-.23,0l-2.69.27a.78.78,0,0,0-.44.2l-5.43-3.13a.82.82,0,0,1,.45-.21l2.68-.27a.52.52,0,0,1,.27.05l.72.42.36.21,2.3,1.33.57.33.41.24Z" transform="translate(1.99 -13.44)"/><line class="cls-1" x1="136.96" y1="204.11" x2="136.89" y2="204.08"/><path class="cls-22" d="M85.07,274.63l.11.07-.14-.08-.25-.15Z" transform="translate(1.99 -13.44)"/><path class="cls-6" d="M83.13,273.15a.41.41,0,0,0,0,.22.28.28,0,0,1,0-.22l.39-1.31Z" transform="translate(1.99 -13.44)"/><path class="cls-14" d="M83.13,273.15a.41.41,0,0,0,0,.22.28.28,0,0,1,0-.22l.39-1.31Z" transform="translate(1.99 -13.44)"/><path class="cls-6" d="M120.49,253.23,113.16,249l-.08-.05h-.14l-.57-.32-.78-.45-1.49-.87-.49-.29-1-.57a.62.62,0,0,0-.37-.07l-3.69.36a1.14,1.14,0,0,0-.61.3.53.53,0,0,0-.19.26l-2,5.37h0l-.06.1a.36.36,0,0,1-.07.1l-.14.16a2.08,2.08,0,0,1-.38.3l-.14.08c-.39.18-.78.39-1.17.61l-3.87-2.24a.48.48,0,0,0-.17,0,.59.59,0,0,0-.43.22h0l-2.42,2.56-1.63,1.72a1.16,1.16,0,0,0-.29.5.62.62,0,0,0,0,.38L92.12,261v.14a1,1,0,0,1,0,.24v.16h0v.19l-.09.16a29.8,29.8,0,0,0-1.86,3.24l-.09.13-.12.12a1.4,1.4,0,0,1-.68.4l-3.46.83a1.2,1.2,0,0,0-.66.43.59.59,0,0,0-.13.23l-.21.73-1.14,3.83-.39,1.31a.41.41,0,0,0,0,.22.2.2,0,0,0,0,.11.14.14,0,0,0,.08.09l.06.05.59.34.16.09h0l.46.27.26.15.28.16.11.07.3.17,1.69,1h0a13.74,13.74,0,0,0,.06,1.58,1.16,1.16,0,0,1-.07.42,1.56,1.56,0,0,1-.27.51l-3.53,4.28a.88.88,0,0,0-.22.44v.12a.55.55,0,0,0,0,.31l1.59,3.74,0,.07H85c.14.07-.45-.27.85.49l.66.38,2.44,1.41.29.17,1.52.88a.23.23,0,0,1-.1-.12l-1.67-3.71a.56.56,0,0,1,0-.44,1.1,1.1,0,0,1,.22-.43l3.53-4.28a1.8,1.8,0,0,0,.28-.51,1.21,1.21,0,0,0,.07-.43,16.7,16.7,0,0,1,0-3,.52.52,0,0,0-.5-.52h0L89.34,277a.52.52,0,0,1-.25-.07h0a.38.38,0,0,1-.16-.45l1.53-5.15.22-.72a.57.57,0,0,1,.14-.25,1.3,1.3,0,0,1,.64-.4l3.47-.84a1.48,1.48,0,0,0,.69-.41,1.55,1.55,0,0,0,.19-.24,29.67,29.67,0,0,1,1.86-3.23,1.38,1.38,0,0,0,.22-.8h0a.24.24,0,0,0,0-.12l-1.12-3.81a.75.75,0,0,1,0-.42,1.34,1.34,0,0,1,.28-.47l.06-.06,4-4.22a.57.57,0,0,1,.56-.2h0a.43.43,0,0,1,.1.09l1.88,2.88c.14.21.48.19.79,0a16.21,16.21,0,0,1,2.29-1.32,1.84,1.84,0,0,0,.79-.75h0l2-5.36a.76.76,0,0,1,.2-.28,1,1,0,0,1,.61-.28l3.69-.37a.86.86,0,0,1,.32,0h0a.33.33,0,0,1,.16.37l-1.16,5.28a.59.59,0,0,0,.38.66,6.35,6.35,0,0,1,1.61.94.67.67,0,0,0,.83-.14l3.77-3.45A.56.56,0,0,1,120.49,253.23Z" transform="translate(1.99 -13.44)"/><path class="cls-6" d="M118.29,264.78a10.41,10.41,0,0,1-.07,1.48.5.5,0,0,0,.49.52h0l3.16.18h.23Z" transform="translate(1.99 -13.44)"/><path class="cls-6" d="M107.59,285.85c-.13-.21-.47-.19-.78,0s-.75.49-1.11.7l3.88,2.26h0a.27.27,0,0,1-.1-.08Z" transform="translate(1.99 -13.44)"/><path class="cls-6" d="M97.5,287.89a5.82,5.82,0,0,1-1.62-.94.67.67,0,0,0-.82.14l-3.77,3.45a.68.68,0,0,1-.41.19l6,3.46a.31.31,0,0,1-.15-.36l1.16-5.28A.6.6,0,0,0,97.5,287.89Z" transform="translate(1.99 -13.44)"/><path class="cls-6" d="M108.46,278.23a10.62,10.62,0,0,1-4.79,3.11l-.21.05h-1.2a3.69,3.69,0,0,1-3.49-2.16,5.91,5.91,0,0,1-.5-1.94c.28-.13.58-.28.87-.45A16.37,16.37,0,0,0,106.55,264v-1a5.88,5.88,0,0,1,2.62-.55h.43a3.75,3.75,0,0,1,2.91,2.29C114,268.23,112.24,274.23,108.46,278.23Z" transform="translate(1.99 -13.44)"/><path class="cls-22" d="M108.46,278.23a10.62,10.62,0,0,1-4.79,3.11l-.21.05h-1.2a3.69,3.69,0,0,1-3.49-2.16,5.91,5.91,0,0,1-.5-1.94c.28-.13.58-.28.87-.45A16.37,16.37,0,0,0,106.55,264v-1a5.88,5.88,0,0,1,2.62-.55h.43a3.75,3.75,0,0,1,2.91,2.29C114,268.23,112.24,274.23,108.46,278.23Z" transform="translate(1.99 -13.44)"/><path class="cls-6" d="M122.16,267h0a.46.46,0,0,0-.23-.06l-3.16-.18a.51.51,0,0,1-.53-.49s0,0,0,0c0-.5.07-1,.07-1.47a12.32,12.32,0,0,0-.07-1.58,1.53,1.53,0,0,1,.35-.93l3.53-4.28a.94.94,0,0,0,.21-.87l-1.67-3.71a.25.25,0,0,0-.11-.12h0a.52.52,0,0,0-.54.17l-3.77,3.44a.67.67,0,0,1-.83.14,6.06,6.06,0,0,0-1.61-.94.59.59,0,0,1-.38-.66l1.17-5.28a.37.37,0,0,0-.16-.37.7.7,0,0,0-.35-.06l-3.69.37a1,1,0,0,0-.81.56l-2,5.36a1.77,1.77,0,0,1-.8.78,16.21,16.21,0,0,0-2.29,1.32c-.31.21-.66.22-.79,0l-1.93-2.91c-.13-.21-.43-.16-.68.09l-4,4.28a1,1,0,0,0-.31.88l1.13,3.82a1.42,1.42,0,0,1-.21.92,29.8,29.8,0,0,0-1.86,3.24,1.51,1.51,0,0,1-.88.65l-3.47.84a1.11,1.11,0,0,0-.78.65L89,276.47a.41.41,0,0,0,.29.52.32.32,0,0,0,.14,0l3.17.18a.5.5,0,0,1,.52.49v0a17.26,17.26,0,0,0,0,3.05,1.57,1.57,0,0,1-.35.94L89.21,286a1,1,0,0,0-.21.88l1.67,3.7a.22.22,0,0,0,.11.12h.13a.68.68,0,0,0,.41-.19L95.09,287a.67.67,0,0,1,.82-.14,5.77,5.77,0,0,0,1.61.94.6.6,0,0,1,.38.66l-1.16,5.28a.31.31,0,0,0,.15.36h0a.53.53,0,0,0,.35.06l3.69-.36a1.07,1.07,0,0,0,.81-.57l2-5.36a1.73,1.73,0,0,1,.8-.78c.39-.18.79-.39,1.18-.62s.74-.45,1.11-.7.65-.23.79,0l1.89,2.88a.16.16,0,0,0,.09.09.49.49,0,0,0,.58-.18l4.06-4.28a1.08,1.08,0,0,0,.31-.89l-1.13-3.81a1.26,1.26,0,0,1,.21-.92,32.36,32.36,0,0,0,1.86-3.24,1.46,1.46,0,0,1,.88-.65l3.46-.84a1.1,1.1,0,0,0,.79-.65l1.75-5.87A.43.43,0,0,0,122.16,267Zm-18.49,14.34-.21.05h-1.2a3.69,3.69,0,0,1-3.49-2.19,5.87,5.87,0,0,1-.51-1.93,6.52,6.52,0,0,1-.06-1.08,16.46,16.46,0,0,1,4.57-10.49,12.5,12.5,0,0,1,2.79-2.27,9,9,0,0,1,.93-.47,6,6,0,0,1,2.62-.56h.43a3.72,3.72,0,0,1,2.9,2.29c1.57,3.46-.23,9.5-4,13.49A10.47,10.47,0,0,1,103.67,281.37Z" transform="translate(1.99 -13.44)"/><line class="cls-1" x1="115.05" y1="235.54" x2="122.51" y2="239.86"/><path class="cls-23" d="M95.6,268.73a1.48,1.48,0,0,1-.69.41l-3.47.84a1.3,1.3,0,0,0-.64.4L85,267.05a1.2,1.2,0,0,1,.66-.43l3.46-.83a1.4,1.4,0,0,0,.68-.4h0Z" transform="translate(1.99 -13.44)"/><path class="cls-22" d="M97.87,264.45l-5.78-3.33V261L91,257.16a.62.62,0,0,1,0-.38l4,2.31,1.76,1a.75.75,0,0,0,0,.42l1.12,3.81A.33.33,0,0,1,97.87,264.45Z" transform="translate(1.99 -13.44)"/><path class="cls-22" d="M109.77,250.38a.76.76,0,0,0-.2.28l-2,5.36h0l-5.8-3.31h0l2-5.37a.53.53,0,0,1,.19-.26Z" transform="translate(1.99 -13.44)"/><path class="cls-22" d="M120.49,253.23a.55.55,0,0,0-.52.18l-3.77,3.45a.67.67,0,0,1-.83.14,6.35,6.35,0,0,0-1.61-.94.59.59,0,0,1-.38-.66l1.16-5.28a.33.33,0,0,0-.16-.37h0l-1.42-.82a.33.33,0,0,1,.14,0l.08,0Z" transform="translate(1.99 -13.44)"/><path class="cls-22" d="M122.14,267h-.23l-3.16-.18a.51.51,0,0,1-.53-.49s0,0,0,0c0-.5.07-1,.07-1.48Z" transform="translate(1.99 -13.44)"/><path class="cls-24" d="M109.58,288.82h0l-3.88-2.26c.36-.21.74-.45,1.11-.7s.65-.23.78,0l1.89,2.89A.26.26,0,0,0,109.58,288.82Z" transform="translate(1.99 -13.44)"/><path class="cls-24" d="M97.87,288.55l-1.16,5.28a.31.31,0,0,0,.15.36l-6-3.46a.68.68,0,0,0,.41-.19L95,287.09a.67.67,0,0,1,.82-.14,5.82,5.82,0,0,0,1.62.94A.6.6,0,0,1,97.87,288.55Z" transform="translate(1.99 -13.44)"/><path class="cls-23" d="M93,281.23a1.8,1.8,0,0,1-.28.51L89.16,286a1.1,1.1,0,0,0-.22.43l-5.78-3.34a.88.88,0,0,1,.22-.44l3.53-4.28a1.56,1.56,0,0,0,.27-.51Z" transform="translate(1.99 -13.44)"/><path class="cls-15" d="M107.53,256.05a1.84,1.84,0,0,1-.79.75,16.21,16.21,0,0,0-2.29,1.32c-.31.21-.65.23-.79,0l-1.89-2.89a.43.43,0,0,0-.1-.09h0l-1.9-1.08c.39-.22.78-.43,1.17-.61l.14-.08a2.08,2.08,0,0,0,.38-.3l.14-.16a.36.36,0,0,0,.07-.1l.06-.1Z" transform="translate(1.99 -13.44)"/><path class="cls-24" d="M93,280.77a1.21,1.21,0,0,1-.07.43l-5.79-3.35a1.16,1.16,0,0,0,.07-.42c0-.52-.07-1-.06-1.58l1.88,1.1h0a.52.52,0,0,0,.25.07l3.17.18a.5.5,0,0,1,.52.49,0,0,0,0,1,0,0A16.35,16.35,0,0,0,93,280.77Z" transform="translate(1.99 -13.44)"/><path class="cls-15" d="M97.87,264.45h0a1.38,1.38,0,0,1-.22.8,29.67,29.67,0,0,0-1.86,3.23,1.55,1.55,0,0,1-.19.24l-5.83-3.33.11-.12.09-.13a29.8,29.8,0,0,1,1.86-3.24l.09-.16v-.19h0v-.16a1,1,0,0,0,0-.24Z" transform="translate(1.99 -13.44)"/><path class="cls-22" d="M89.92,265.23l-.11.12h0Z" transform="translate(1.99 -13.44)"/><path class="cls-24" d="M90.77,290.69l-1.52-.88-.29-.17-2.49-1.41-.66-.38c-1.3-.76-.71-.42-.85-.49H84.9l-.05-.07-1.68-3.72a.55.55,0,0,1,0-.31v-.12L89,286.48a.56.56,0,0,0,0,.44l1.67,3.71A.2.2,0,0,0,90.77,290.69Z" transform="translate(1.99 -13.44)"/><path class="cls-22" d="M85,267.05a.59.59,0,0,0-.13.23l-.21.73-1.14,3.83-.39,1.31a.41.41,0,0,0,0,.22.2.2,0,0,0,0,.11.14.14,0,0,0,.08.09l.06.05.59.34.16.09h0l.46.27.26.15.28.16.11.07.3.17,1.69,1h0L89,277a.38.38,0,0,1-.16-.45l1.53-5.15.22-.72a.57.57,0,0,1,.14-.25Z" transform="translate(1.99 -13.44)"/><path class="cls-25" d="M99.77,254.06l-3.87-2.24h-.17a.59.59,0,0,0-.43.22h0l-2.42,2.56-1.63,1.72a1.16,1.16,0,0,0-.29.5l4,2.31,1.76,1a1.34,1.34,0,0,1,.28-.47l.06-.06,4-4.22a.57.57,0,0,1,.56-.2Z" transform="translate(1.99 -13.44)"/><path class="cls-25" d="M114.36,249.77a.86.86,0,0,0-.32,0l-3.69.37a1,1,0,0,0-.61.28L104,247.08a1.14,1.14,0,0,1,.61-.3l3.69-.36a.62.62,0,0,1,.37.07l1,.57.49.29,1.49.87.78.45.57.32Z" transform="translate(1.99 -13.44)"/><line class="cls-1" x1="115.14" y1="235.59" x2="115.05" y2="235.54"/><path class="cls-9" d="M77.61,404.77l-3.71-2.14h0a2.17,2.17,0,0,1-1-2V327.76A6.92,6.92,0,0,1,76,322.33l164.74-94.81a2.25,2.25,0,0,1,2.17-.24h0l3.7,2.13-2.78,72.73a6.9,6.9,0,0,1-3.14,5.42Z" transform="translate(1.99 -13.44)"/><path class="cls-5" d="M76.67,329.9v72.84c0,2,1.4,2.8,3.13,1.81l164.69-94.82a7,7,0,0,0,3.13-5.43V231.47c0-2-1.41-2.81-3.14-1.81L79.77,324.48A6.91,6.91,0,0,0,76.67,329.9Z" transform="translate(1.99 -13.44)"/><path class="cls-10" d="M73.89,402.62l3.59,2.07a2.26,2.26,0,0,1-.81-2v-72.8a6.22,6.22,0,0,1,.82-2.91l-3.72-2.14a6.26,6.26,0,0,0-.82,2.92v72.83a2.14,2.14,0,0,0,.94,2Z" transform="translate(1.99 -13.44)"/><path class="cls-11" d="M90,385.83l-4.61-2.66a2.8,2.8,0,0,1-1.27-2.2V342.61a2.77,2.77,0,0,1,1.27-2.2l45.15-26.07a2.84,2.84,0,0,1,2.54,0l4.61,2.67a2.82,2.82,0,0,1,1.27,2.2v38.36a2.86,2.86,0,0,1-1.27,2.2L92.55,385.83A2.8,2.8,0,0,1,90,385.83Z" transform="translate(1.99 -13.44)"/><path class="cls-12" d="M92.33,385.93a2.77,2.77,0,0,1-2.32-.1l-4.62-2.66a2.8,2.8,0,0,1-1.27-2.2V342.61a2.53,2.53,0,0,1,.37-1.25l7.16,4.12a2.48,2.48,0,0,0-.38,1.26V385.1C91.27,385.83,91.77,386.16,92.33,385.93Z" transform="translate(1.99 -13.44)"/><path class="cls-13" d="M91.28,346.74V385.1c0,.81.56,1.14,1.27.73l45.14-26.06a2.86,2.86,0,0,0,1.27-2.2V319.23c0-.81-.57-1.14-1.27-.74L92.55,344.56A2.77,2.77,0,0,0,91.28,346.74Z" transform="translate(1.99 -13.44)"/><polygon class="cls-12" points="93.26 345.6 140.94 318.06 140.94 319.44 93.25 346.97 93.26 345.6"/><polygon class="cls-6" points="113.52 332.52 120.67 328.39 120.67 333.9 113.52 338.02 113.52 332.52"/><polygon class="cls-6" points="120.67 328.39 119.48 327.7 112.33 331.83 113.52 332.52 120.67 328.39"/><polygon class="cls-14" points="120.67 328.39 119.48 327.7 112.33 331.83 113.52 332.52 120.67 328.39"/><polygon class="cls-6" points="112.33 331.83 112.33 337.34 113.52 338.02 113.52 332.52 112.33 331.83"/><polygon class="cls-15" points="112.33 331.83 112.33 337.34 113.52 338.02 113.52 332.52 112.33 331.83"/><path class="cls-6" d="M102.08,335c-.81,0-1.47-.07-1.47-.88v-6.65a7,7,0,0,1,3.27-5.68l12.89-7.46A3,3,0,0,1,121,315a3,3,0,0,1,.56,2.06v6.7c0,.81-.65.88-1.46.88s-1.47-.07-1.47-.88V317a1.82,1.82,0,0,0,0-.33,2.08,2.08,0,0,0-.3.13l-12.93,7.47a4.16,4.16,0,0,0-1.81,3.13v6.65C103.54,334.89,102.89,335,102.08,335Z" transform="translate(1.99 -13.44)"/><path class="cls-10" d="M145.36,294.23l38-21.91a.9.9,0,0,1,.87-.09l2,.9-1.65,48.22a2.73,2.73,0,0,1-1.23,2.13l-36.78,22.9s-1.82-.8-2-.92a.86.86,0,0,1-.37-.81V296.34A2.72,2.72,0,0,1,145.36,294.23Z" transform="translate(1.99 -13.44)"/><path class="cls-8" d="M147.4,295.12l38-21.92c.68-.39,1.23-.07,1.23.71v48.32a2.73,2.73,0,0,1-1.23,2.13l-38,21.88c-.68.39-1.24.07-1.24-.71v-48.3A2.69,2.69,0,0,1,147.4,295.12Z" transform="translate(1.99 -13.44)"/><g class="cls-26"><g id="freepik--character--inject-74-2" data-name="freepik--character--inject-74"><path class="cls-20" d="M177.61,343.57c-4.58-20.07-10.09-23.71-5.2-27.89,5.7-.87,7.9.92,8.77,6.8.43,2.88,1.36,14.91,2.53,19.41,1,3.95,2.41,8.85,3.95,11.67a1.62,1.62,0,0,0,1.26.88c1.43.21,1.85,1,3,1.61.91.46,1.58.34,1.54.67a1.8,1.8,0,0,1-1.44,1.42,5.15,5.15,0,0,1-1.71-.11,9.34,9.34,0,0,0,2.49,2.28c2.24,1.45,2.61,2.87-.94,4.76-2.23,1.19-4.32.61-7.08-3.9a36,36,0,0,1-2.78-5.24C180.1,351,178.34,346.81,177.61,343.57Z" transform="translate(1.99 -13.44)"/></g><path class="cls-6" d="M180.47,311.28l-15,4c-3.56,1-6.44-1.6-6.44-5.71v-5.78c0-6.58,4.62-13.15,10.32-14.68l.77-.2c5.69-1.53,10.31,2.56,10.31,9.14v13.22Z" transform="translate(1.99 -13.44)"/><g class="cls-27"><path class="cls-28" d="M180.47,311.28l-15,4c-3.56,1-6.44-1.6-6.44-5.71v-5.78c0-6.58,4.62-13.15,10.32-14.68l.77-.2c5.69-1.53,10.31,2.56,10.31,9.14v13.22Z" transform="translate(1.99 -13.44)"/></g><path class="cls-6" d="M162.62,291.85c-.56-.56-1.51-.35-2.12.46l1.13,1.12a1.31,1.31,0,0,0-.78.15A2.3,2.3,0,0,0,159.7,296l2.93-1.51-.06-.2A2,2,0,0,0,162.62,291.85Z" transform="translate(1.99 -13.44)"/><path class="cls-29" d="M162.62,291.85c-.56-.56-1.51-.35-2.12.46l1.13,1.12a1.31,1.31,0,0,0-.78.15A2.3,2.3,0,0,0,159.7,296l2.93-1.51-.06-.2A2,2,0,0,0,162.62,291.85Z" transform="translate(1.99 -13.44)"/><path class="cls-11" d="M165.56,317.74s-6.24,1.47-7,2.07c4.52,4.85.83,15.08.83,15.08l2.51,8.74a50.41,50.41,0,0,0-5.13,11.79c-1.51,5-2.46,8.7-3.61,23.66,5.93,4.72,25.7-.45,30.73-9.4,0,0-1.54-9.81-3.55-18.91-1.46-6.65-2.9-10.24-2.54-12.64,2.65-10.13,2.85-12.65,2.39-14.63-1.33-5.55-6.55-8.15-7.84-7.81Z" transform="translate(1.99 -13.44)"/><path class="cls-20" d="M176.44,292.58c1.13.47,2.53,3.37,2.39,10.29-.11,5.87-1.75,7.74-2.57,8.38s-2.41.81-4,.92v3.5s2.13,2.29,2,3.93-3.07,2.81-5.07,1.78a12.25,12.25,0,0,1-3.67-3.64v-8.06a1.64,1.64,0,0,1-2.31.25.86.86,0,0,1-.14-.13,3.3,3.3,0,0,1-.71-4.42c1-1.42,2.82-1.59,3.52-.13a10.5,10.5,0,0,1,4.41-5.27C173.58,297.91,175.32,296.05,176.44,292.58Z" transform="translate(1.99 -13.44)"/><path class="cls-12" d="M173.19,302.92a1,1,0,0,1-.6.95c-.35.12-.65-.13-.67-.54a1,1,0,0,1,.61-1C172.88,302.23,173.18,302.5,173.19,302.92Z" transform="translate(1.99 -13.44)"/><path class="cls-21" d="M173.36,307.82l1.48.14a1,1,0,0,1-1,.87C173.47,308.79,173.24,308.34,173.36,307.82Z" transform="translate(1.99 -13.44)"/><path class="cls-12" d="M178.4,299.23l-1.28-.68c.23-.49.71-.73,1.06-.54A.92.92,0,0,1,178.4,299.23Z" transform="translate(1.99 -13.44)"/><path class="cls-12" d="M171.35,301.7l1.28-1.37c-.23-.36-.71-.34-1.07,0A1.14,1.14,0,0,0,171.35,301.7Z" transform="translate(1.99 -13.44)"/><path class="cls-12" d="M178.11,301.07a1,1,0,0,1-.61,1c-.35.11-.65-.13-.66-.55a1,1,0,0,1,.6-1A.53.53,0,0,1,178.11,301.07Z" transform="translate(1.99 -13.44)"/><polygon class="cls-21" points="177.09 288.01 177.19 292.4 179.2 291.14 177.09 288.01"/><path class="cls-21" d="M172.31,312.17c-1.63.19-5,0-5.49-1.41A2.86,2.86,0,0,0,168,312.4c1,.72,4.32.94,4.32.94Z" transform="translate(1.99 -13.44)"/><polygon class="cls-12" points="162.66 325.97 167.23 331.78 163.88 330.19 162.66 325.97"/><path class="cls-20" d="M147.77,351.16c3.87-19.29,6.54-28.4,10.77-31.35,2.13.21,2.77,3,3,4.64a18.48,18.48,0,0,1-2.16,10.44s-5.27,12.92-6.17,18a87.55,87.55,0,0,0-1.64,13.78,2.25,2.25,0,0,0,.63,1.63c1,1,1,2.05,1.71,3.3.52,1,1.09,1.25.93,1.54a1.33,1.33,0,0,1-1.7.6,4.44,4.44,0,0,1-1.28-1.08,13,13,0,0,0,1,3.68c1.16,2.71.87,4.32-2.65,4.19-2.21-.08-3.6-1.83-3.93-7.87a51.12,51.12,0,0,1-.06-6.78A142.61,142.61,0,0,1,147.77,351.16Z" transform="translate(1.99 -13.44)"/></g><path class="cls-13" d="M148.33,351l36.19-20.89c1.2-.69,2.17-.2,2.17,1.09a4.65,4.65,0,0,1-2.17,3.6l-36.19,20.89c-1.2.69-2.17.2-2.17-1.09A4.63,4.63,0,0,1,148.33,351Z" transform="translate(1.99 -13.44)"/><path class="cls-13" d="M193,268.93l36.2-20.9c1.19-.69,2.16-.2,2.16,1.1a4.67,4.67,0,0,1-2.16,3.59L193,273.62c-1.19.69-2.16.2-2.16-1.1A4.63,4.63,0,0,1,193,268.93Z" transform="translate(1.99 -13.44)"/><path class="cls-8" d="M191.83,279l46.58-26.89c.6-.35,1.09-.1,1.09.55a2.34,2.34,0,0,1-1.09,1.79l-46.53,26.9c-.6.34-1.09.1-1.11-.55A2.28,2.28,0,0,1,191.83,279Z" transform="translate(1.99 -13.44)"/><path class="cls-8" d="M191.83,283.64l46.58-26.89c.6-.34,1.09-.1,1.09.55a2.36,2.36,0,0,1-1.09,1.8L191.88,286c-.6.34-1.09.1-1.11-.55A2.28,2.28,0,0,1,191.83,283.64Z" transform="translate(1.99 -13.44)"/><path class="cls-8" d="M191.83,288.33l46.58-26.9c.6-.34,1.09-.1,1.09.55a2.36,2.36,0,0,1-1.09,1.8l-46.53,26.89c-.6.35-1.09.1-1.11-.55A2.25,2.25,0,0,1,191.83,288.33Z" transform="translate(1.99 -13.44)"/><path class="cls-8" d="M191.83,293l46.58-26.89c.6-.35,1.09-.1,1.09.54a2.33,2.33,0,0,1-1.09,1.8l-46.53,26.89c-.6.35-1.09.1-1.11-.54A2.28,2.28,0,0,1,191.83,293Z" transform="translate(1.99 -13.44)"/><path class="cls-8" d="M191.83,297.69l46.58-26.89c.6-.35,1.09-.1,1.09.55a2.36,2.36,0,0,1-1.09,1.8L191.88,300c-.6.34-1.09.1-1.11-.55A2.28,2.28,0,0,1,191.83,297.69Z" transform="translate(1.99 -13.44)"/><path class="cls-6" d="M193,306.29l3.75-2.16c1.2-.69,2.17-.13,2.17,1.25v4.38a4.79,4.79,0,0,1-2.17,3.75l-3.79,2.19c-1.2.69-2.16.13-2.16-1.25V310A4.8,4.8,0,0,1,193,306.29Z" transform="translate(1.99 -13.44)"/><path class="cls-13" d="M200.29,303.23c0,.65.48.89,1.08.55l10-5.79a2.37,2.37,0,0,0,1.09-1.79c0-.65-.48-.89-1.08-.55l-10,5.78A2.28,2.28,0,0,0,200.29,303.23Z" transform="translate(1.99 -13.44)"/><path class="cls-13" d="M200.29,306.75c0,.65.48.89,1.08.55l10-5.79a2.34,2.34,0,0,0,1.09-1.79c0-.65-.48-.89-1.08-.55l-10,5.79A2.28,2.28,0,0,0,200.29,306.75Z" transform="translate(1.99 -13.44)"/><path class="cls-13" d="M200.29,310.28c0,.64.48.89,1.08.54l10-5.78a2.39,2.39,0,0,0,1.09-1.8c0-.64-.48-.89-1.08-.54l-10,5.78A2.28,2.28,0,0,0,200.29,310.28Z" transform="translate(1.99 -13.44)"/><path class="cls-6" d="M193,320.36l3.75-2.16c1.2-.69,2.17-.13,2.17,1.25v4.38a4.79,4.79,0,0,1-2.17,3.75l-3.79,2.19c-1.2.69-2.16.13-2.16-1.25v-4.41A4.8,4.8,0,0,1,193,320.36Z" transform="translate(1.99 -13.44)"/><path class="cls-13" d="M200.29,317.3c0,.65.48.89,1.08.55l10-5.79a2.37,2.37,0,0,0,1.09-1.79c0-.65-.48-.89-1.08-.55l-10,5.78A2.28,2.28,0,0,0,200.29,317.3Z" transform="translate(1.99 -13.44)"/><path class="cls-13" d="M200.29,320.82c0,.65.48.9,1.08.55l10-5.78a2.39,2.39,0,0,0,1.09-1.8c0-.64-.48-.89-1.08-.54l-10,5.78A2.3,2.3,0,0,0,200.29,320.82Z" transform="translate(1.99 -13.44)"/><path class="cls-13" d="M200.29,324.35c0,.64.48.89,1.08.54l10-5.78a2.39,2.39,0,0,0,1.09-1.8c0-.64-.48-.89-1.08-.54l-10,5.78A2.28,2.28,0,0,0,200.29,324.35Z" transform="translate(1.99 -13.44)"/><path class="cls-6" d="M220,291l3.75-2.17c1.2-.69,2.16-.13,2.16,1.25v4.39a4.79,4.79,0,0,1-2.12,3.77L220,300.42c-1.2.69-2.16.13-2.16-1.25v-4.41A4.84,4.84,0,0,1,220,291Z" transform="translate(1.99 -13.44)"/><path class="cls-13" d="M227.3,287.93c0,.64.49.89,1.09.54l10-5.78a2.39,2.39,0,0,0,1.09-1.8c0-.64-.48-.89-1.08-.54l-10,5.78A2.29,2.29,0,0,0,227.3,287.93Z" transform="translate(1.99 -13.44)"/><path class="cls-13" d="M227.3,291.45c0,.65.49.89,1.09.55l10-5.79a2.37,2.37,0,0,0,1.09-1.79c0-.65-.48-.89-1.08-.55l-10,5.78A2.29,2.29,0,0,0,227.3,291.45Z" transform="translate(1.99 -13.44)"/><path class="cls-13" d="M227.3,295c0,.65.49.9,1.09.55l10-5.78a2.39,2.39,0,0,0,1.09-1.8c0-.64-.48-.89-1.08-.54l-10,5.78A2.27,2.27,0,0,0,227.3,295Z" transform="translate(1.99 -13.44)"/><path class="cls-6" d="M220,305.06l3.75-2.16c1.2-.69,2.16-.13,2.16,1.25v4.38a4.78,4.78,0,0,1-2.16,3.75l-3.79,2.19c-1.2.69-2.16.13-2.16-1.25v-4.41A4.81,4.81,0,0,1,220,305.06Z" transform="translate(1.99 -13.44)"/><path class="cls-13" d="M227.3,302c0,.65.49.89,1.09.55l10-5.79a2.37,2.37,0,0,0,1.09-1.79c0-.65-.48-.89-1.08-.55l-10,5.78A2.29,2.29,0,0,0,227.3,302Z" transform="translate(1.99 -13.44)"/><path class="cls-13" d="M227.3,305.52c0,.65.49.9,1.09.55l10-5.79a2.34,2.34,0,0,0,1.09-1.79c0-.65-.48-.89-1.08-.55l-10,5.79A2.27,2.27,0,0,0,227.3,305.52Z" transform="translate(1.99 -13.44)"/><path class="cls-13" d="M227.3,309.05c0,.64.49.89,1.09.54l10-5.78a2.39,2.39,0,0,0,1.09-1.8c0-.64-.48-.89-1.08-.54l-10,5.78A2.29,2.29,0,0,0,227.3,309.05Z" transform="translate(1.99 -13.44)"/></g><g id="freepik--Icons--inject-74"><path class="cls-6" d="M292.38,166.71a6,6,0,0,0-2.69-4.66l-2.19-1.26a5.93,5.93,0,0,0-5.38,0l-17.32,10a5.52,5.52,0,0,0-1.9,2,5.42,5.42,0,0,0-.79,2.65v20a5.91,5.91,0,0,0,2.69,4.65l2.19,1.27a5,5,0,0,0,.57.27l.23.07a2.16,2.16,0,0,1,.39.12,1.65,1.65,0,0,0,.32.06c.11,0,.22.05.33.06h1.32a1.38,1.38,0,0,0,.49-.06h.14l.52-.12h.07a4.27,4.27,0,0,0,1-.4l17.32-10a6,6,0,0,0,2.69-4.66Z" transform="translate(1.99 -13.44)"/><path class="cls-6" d="M292.38,166.69v20a5.92,5.92,0,0,1-2.69,4.66l-17.32,10a3.36,3.36,0,0,1-.65.28h-.35c-1,.11-1.68-.6-1.68-1.9v-20a5.42,5.42,0,0,1,.79-2.65,5.52,5.52,0,0,1,1.9-2l17.32-10c1.35-.78,2.46-.28,2.65,1.1a.89.89,0,0,0-.07-.42A5.88,5.88,0,0,1,292.38,166.69Z" transform="translate(1.99 -13.44)"/><path class="cls-9" d="M272.77,195.57c0,.27.19.37.42.24l14.58-8.46a.94.94,0,0,0,.41-.72V178l-15.41,8.94Z" transform="translate(1.99 -13.44)"/><path class="cls-9" d="M287.77,172.93l-3.89,2.3v-1.49a1,1,0,0,0-.48-1,1,1,0,0,0-1.06.06l-4.2,2.42a2.24,2.24,0,0,0-1.06,1.84v2l-3.93,2.27a.88.88,0,0,0-.42.71v3l15.49-8.91v-3C288.22,172.91,288,172.8,287.77,172.93ZM278,177.08a1.34,1.34,0,0,1,.59-1l4.2-2.43h.09v2.11l-4.9,2.83Z" transform="translate(1.99 -13.44)"/><path class="cls-14" d="M292.34,166.23c-.19-1.37-1.31-1.87-2.65-1.09l-17.33,10a5.26,5.26,0,0,0-1.89,2l-7.57-4.37a5.52,5.52,0,0,1,1.9-2l17.32-10a5.93,5.93,0,0,1,5.38,0l2.19,1.26A6.05,6.05,0,0,1,292.34,166.23Z" transform="translate(1.99 -13.44)"/><path class="cls-15" d="M271.88,201.59l-.16.06-.4.13a6.51,6.51,0,0,1-1.05.21h-.59a5.45,5.45,0,0,1-2.69-.64l-2.22-1.24a6,6,0,0,1-2.69-4.66v-20a4.81,4.81,0,0,1,.32-1.67c.09-.23.19-.45.29-.66l.18-.32,7.57,4.37a5.42,5.42,0,0,0-.79,2.65v20c0,1.3.69,2,1.68,1.9h.16Z" transform="translate(1.99 -13.44)"/><path class="cls-11" d="M292.38,208.94a6,6,0,0,0-2.69-4.66L287.5,203a5.93,5.93,0,0,0-5.38,0L264.8,213a6,6,0,0,0-2.69,4.65v20a5.92,5.92,0,0,0,2.66,4.66L267,243.6a2.94,2.94,0,0,0,.57.26l.23.08.39.12.32.06.33.06h1.95a1.87,1.87,0,0,0,.52-.12h.07a4.27,4.27,0,0,0,1-.4l17.32-10a6,6,0,0,0,2.69-4.66Z" transform="translate(1.99 -13.44)"/><path class="cls-30" d="M283.54,224.78a2.62,2.62,0,0,0-.5,1,1.32,1.32,0,0,0,.58-.59c0-.07.13-.3,0-.41Z" transform="translate(1.99 -13.44)"/><path class="cls-30" d="M281.35,224.28a.23.23,0,0,0-.14.21,1,1,0,0,0,.14.71,2,2,0,0,0,.13-.87C281.47,224.23,281.44,224.23,281.35,224.28Z" transform="translate(1.99 -13.44)"/><path class="cls-30" d="M279.16,227.31h0a.38.38,0,0,0-.05.5c.11.1.32.1.57-.07C279.46,227.39,279.28,227.23,279.16,227.31Z" transform="translate(1.99 -13.44)"/><path class="cls-30" d="M281.35,219.23c-2.43,1.39-4.39,5.15-4.39,8.38,0,4.64,2.87,3.75,2.87,5.62a.52.52,0,0,0,.45.57,2.7,2.7,0,0,0,2.14-1.24,2,2,0,0,0,.44-1.08h0c0-1.87,2.87-4.3,2.87-8.94C285.77,219.23,283.77,217.79,281.35,219.23Zm2.53,6.19a2,2,0,0,1-1,1c-.09.36-.19.78-.27,1.28a24.06,24.06,0,0,0-.36,4.15.47.47,0,0,1-.18.35h0c-.1.05-.18,0-.18-.13a23.72,23.72,0,0,1,.37-4.28q.12-.69.27-1.29a1.24,1.24,0,0,1-.47,0,1.43,1.43,0,0,1-.7-.39,10.23,10.23,0,0,1-.71,1.2,6.36,6.36,0,0,1-.46.57,9.48,9.48,0,0,1,.26,1,19.93,19.93,0,0,1,.37,3.85.48.48,0,0,1-.18.34c-.1.06-.18,0-.18-.14a19.48,19.48,0,0,0-.36-3.73,8.68,8.68,0,0,0-.27-1c-.44.34-.8.37-1,.19a.84.84,0,0,1-.08-1,.92.92,0,0,1,.5-.56c.28-.08.56.15.8.64a5.17,5.17,0,0,0,.42-.51,7.79,7.79,0,0,0,.67-1.16,1.6,1.6,0,0,1-.26-1.2,1.08,1.08,0,0,1,.49-.77c.24-.13.42-.06.48.2a2.9,2.9,0,0,1-.26,1.51,1.34,1.34,0,0,0,.67.39,1,1,0,0,0,.42,0,3.49,3.49,0,0,1,.81-1.56c.19-.16.37-.17.49,0a1.1,1.1,0,0,1-.1,1Z" transform="translate(1.99 -13.44)"/><path class="cls-30" d="M281.35,218.09c-.17.1-.3,0-.3-.22v-2.29a.68.68,0,0,1,.3-.56c.16-.1.29,0,.29.22v2.29A.71.71,0,0,1,281.35,218.09Z" transform="translate(1.99 -13.44)"/><path class="cls-30" d="M278.64,220.62c-.14.2-.32.24-.41.09l-.85-1.48a.59.59,0,0,1,.11-.61c.14-.19.32-.23.4-.09l.86,1.49A.68.68,0,0,1,278.64,220.62Z" transform="translate(1.99 -13.44)"/><path class="cls-30" d="M276.66,224.41c-.08.23-.26.41-.41.38l-1.48-.29c-.14,0-.19-.24-.11-.48s.26-.4.41-.38l1.48.29C276.69,224,276.77,224.17,276.66,224.41Z" transform="translate(1.99 -13.44)"/><path class="cls-30" d="M275.93,228.43a.73.73,0,0,1-.29.57l-1.72,1c-.16.1-.3,0-.3-.22a.7.7,0,0,1,.3-.57l1.72-1C275.77,228.11,275.93,228.23,275.93,228.43Z" transform="translate(1.99 -13.44)"/><path class="cls-30" d="M276.66,231.62a.7.7,0,0,1-.11.61l-1.48,2c-.15.19-.33.23-.41.09a.64.64,0,0,1,.11-.61l1.48-2C276.4,231.52,276.58,231.48,276.66,231.62Z" transform="translate(1.99 -13.44)"/><path class="cls-30" d="M286,226.23c.08-.24.27-.41.41-.38l1.48.29c.15,0,.19.24.11.48s-.26.4-.4.38l-1.49-.29C286,226.66,286,226.45,286,226.23Z" transform="translate(1.99 -13.44)"/><path class="cls-30" d="M286.77,222.23a.7.7,0,0,1,.29-.57l1.72-1c.16-.1.3,0,.3.22a.74.74,0,0,1-.3.57l-1.72,1A.21.21,0,0,1,286.77,222.23Z" transform="translate(1.99 -13.44)"/><path class="cls-30" d="M286,219a.64.64,0,0,1,.11-.61l1.49-2c.14-.19.32-.23.4-.09a.64.64,0,0,1-.11.61l-1.48,2C286.3,219.1,286.11,219.14,286,219Z" transform="translate(1.99 -13.44)"/><path class="cls-30" d="M284.05,217.5c-.14,0-.19-.24-.11-.48l.86-2.47c.08-.24.26-.41.41-.38s.19.24.1.47l-.85,2.48C284.38,217.36,284.19,217.53,284.05,217.5Z" transform="translate(1.99 -13.44)"/><path class="cls-30" d="M282.91,232v1.49a2,2,0,0,1-.46,1.11,2.82,2.82,0,0,1-2.21,1.28.55.55,0,0,1-.45-.63v-1.34a.54.54,0,0,0,.45.48,2.78,2.78,0,0,0,2.21-1.28A2,2,0,0,0,282.91,232Z" transform="translate(1.99 -13.44)"/><path class="cls-13" d="M292.34,208.48c-.19-1.38-1.31-1.88-2.65-1.1l-17.33,10a5.41,5.41,0,0,0-1.89,2L262.9,215a5.52,5.52,0,0,1,1.9-2l17.32-10a5.93,5.93,0,0,1,5.38,0l2.19,1.26A6.05,6.05,0,0,1,292.34,208.48Z" transform="translate(1.99 -13.44)"/><path class="cls-12" d="M271.88,243.82l-.16.06-.4.12a4.89,4.89,0,0,1-1.05.21h-.59a5.45,5.45,0,0,1-2.69-.64l-2.22-1.23a6,6,0,0,1-2.69-4.66v-20a4.81,4.81,0,0,1,.32-1.67c.09-.23.19-.45.29-.66l.18-.32,7.57,4.36a5.42,5.42,0,0,0-.79,2.65v20c0,1.29.69,2,1.68,1.9h.16A1.46,1.46,0,0,0,271.88,243.82Z" transform="translate(1.99 -13.44)"/><path class="cls-6" d="M292.38,251.16a6.05,6.05,0,0,0-2.69-4.65l-2.19-1.28a6,6,0,0,0-5.38,0l-17.35,10a6,6,0,0,0-2.69,4.66v20a6,6,0,0,0,2.69,4.66l2.19,1.26a3,3,0,0,0,.57.27l.23.08.39.12.32.06.33.06h1.95a3.46,3.46,0,0,0,.52-.11h.07a4.3,4.3,0,0,0,1-.41l17.32-10a6,6,0,0,0,2.69-4.65Z" transform="translate(1.99 -13.44)"/><path class="cls-14" d="M292.34,250.71c-.19-1.38-1.31-1.88-2.65-1.1l-17.33,10a5.41,5.41,0,0,0-1.89,2l-7.57-4.38a5.52,5.52,0,0,1,1.9-2l17.32-10a5.93,5.93,0,0,1,5.38,0l2.19,1.26A6,6,0,0,1,292.34,250.71Z" transform="translate(1.99 -13.44)"/><path class="cls-6" d="M292.38,251.15v20a5.92,5.92,0,0,1-2.69,4.66l-17.32,10a3.36,3.36,0,0,1-.65.28h0l-.18.05h-.17c-1,.11-1.68-.6-1.68-1.9v-20a5.42,5.42,0,0,1,.79-2.65,5.52,5.52,0,0,1,1.9-2l17.32-10c1.35-.78,2.46-.28,2.65,1.1a.89.89,0,0,0-.07-.42A5.39,5.39,0,0,1,292.38,251.15Z" transform="translate(1.99 -13.44)"/><path class="cls-9" d="M289,265.79h0a.2.2,0,0,0-.11,0l-1.48-.08a.24.24,0,0,1-.25-.24v-.7c0-.24,0-.48,0-.73a.66.66,0,0,1,.17-.44l1.65-2a.46.46,0,0,0,.1-.41l-.78-1.74,0-.05h0a.37.37,0,0,0-.26.08l-1.76,1.62a.32.32,0,0,1-.39.06,3.2,3.2,0,0,0-.76-.44.27.27,0,0,1-.17-.31l.54-2.47a.18.18,0,0,0-.07-.18h-.17l-1.73.18a.48.48,0,0,0-.38.26l-.93,2.51a.9.9,0,0,1-.38.37,8.06,8.06,0,0,0-1.07.62c-.15.1-.31.1-.37,0l-.89-1.35c-.06-.1-.2-.08-.32,0l-1.89,2a.46.46,0,0,0-.15.41l.53,1.79a.71.71,0,0,1-.1.43,15.28,15.28,0,0,0-.87,1.52.68.68,0,0,1-.42.31l-1.62.39a.54.54,0,0,0-.37.3l-.82,2.76a.19.19,0,0,0,.15.24h.06l1.48.09a.23.23,0,0,1,.24.23h0a6.83,6.83,0,0,0,0,1.43.84.84,0,0,1-.16.44l-1.66,2a.44.44,0,0,0-.1.41l.79,1.74a.06.06,0,0,0,0,.06h.06a.28.28,0,0,0,.2-.09l1.76-1.62a.35.35,0,0,1,.39-.07,2.4,2.4,0,0,0,.76.44.31.31,0,0,1,.18.31l-.55,2.48a.14.14,0,0,0,.07.17h0a.22.22,0,0,0,.16,0l1.73-.17a.49.49,0,0,0,.38-.26l.94-2.52a.69.69,0,0,1,.37-.36l.55-.29c.17-.1.35-.21.52-.33s.31-.11.37,0L283,276h0a.25.25,0,0,0,.28-.08l1.9-2a.5.5,0,0,0,.14-.42l-.53-1.78a.63.63,0,0,1,.1-.44,13.17,13.17,0,0,0,.87-1.51.7.7,0,0,1,.42-.31l1.62-.39a.55.55,0,0,0,.37-.31L289,266A.25.25,0,0,0,289,265.79Zm-8.67,6.73h-.66a1.72,1.72,0,0,1-1.63-1.1,2.6,2.6,0,0,1-.23-.91,2.09,2.09,0,0,1,0-.5,7.68,7.68,0,0,1,2.14-4.91,5.9,5.9,0,0,1,1.31-1.07l.44-.22a2.68,2.68,0,0,1,1.22-.26h.21a1.76,1.76,0,0,1,1.36,1.08c.73,1.62-.11,4.45-1.88,6.32A5,5,0,0,1,280.3,272.52Z" transform="translate(1.99 -13.44)"/><path class="cls-15" d="M271.88,286.05l-.16.06-.4.12a4.89,4.89,0,0,1-1.05.21h-.59a5.45,5.45,0,0,1-2.69-.64l-2.22-1.24a6,6,0,0,1-2.69-4.65v-20a5,5,0,0,1,.32-1.66c.09-.23.19-.45.29-.66l.18-.33,7.57,4.37a5.42,5.42,0,0,0-.79,2.65v20c0,1.3.69,2,1.68,1.91h.16A2,2,0,0,0,271.88,286.05Z" transform="translate(1.99 -13.44)"/><path class="cls-13" d="M292.38,40a6,6,0,0,0-2.69-4.65L287.5,34.1a5.93,5.93,0,0,0-5.38,0l-17.35,10a6,6,0,0,0-2.69,4.66v20a6,6,0,0,0,2.69,4.66L267,74.68a3,3,0,0,0,.57.27l.23.08.39.11.32.07h2.28l.52-.11h.07a4.3,4.3,0,0,0,1-.41l17.32-10A6,6,0,0,0,292.35,60Z" transform="translate(1.99 -13.44)"/><path class="cls-11" d="M292.38,40V60a5.92,5.92,0,0,1-2.69,4.66l-17.32,10a3.36,3.36,0,0,1-.65.28h-.35c-1,.11-1.68-.6-1.68-1.9v-20a5.42,5.42,0,0,1,.79-2.65,5.52,5.52,0,0,1,1.9-2l17.32-10c1.35-.78,2.46-.28,2.65,1.1a.93.93,0,0,0-.07-.43A6,6,0,0,1,292.38,40Z" transform="translate(1.99 -13.44)"/><path class="cls-30" d="M280.59,47.81c2.16-1.25,3.91-.24,3.91,2.25a8.69,8.69,0,0,1-3.91,6.77c-2.16,1.24-3.91.23-3.91-2.26A8.59,8.59,0,0,1,280.59,47.81Z" transform="translate(1.99 -13.44)"/><path class="cls-30" d="M288.29,61.13c0-4.09-2.87-5.91-6.42-3.86l-2.22,1.28a14.16,14.16,0,0,0-6.41,11.11v1.11l15-8.69Z" transform="translate(1.99 -13.44)"/><path class="cls-12" d="M271.88,74.91l-.16.06-.4.12a6.51,6.51,0,0,1-1.05.21h0a4.86,4.86,0,0,1-.54,0,5.45,5.45,0,0,1-2.69-.64l-2.22-1.24a6,6,0,0,1-2.69-4.66v-20a5,5,0,0,1,.32-1.67c.09-.22.19-.44.29-.65l.18-.33,7.57,4.37a5.42,5.42,0,0,0-.79,2.65v20c0,1.3.69,2,1.68,1.91h.16Z" transform="translate(1.99 -13.44)"/><path class="cls-6" d="M292.38,82.23a6,6,0,0,0-2.69-4.66l-2.19-1.26a5.93,5.93,0,0,0-5.38,0l-17.35,10a5.52,5.52,0,0,0-1.9,2,5.42,5.42,0,0,0-.79,2.65v20a6,6,0,0,0,2.69,4.66L267,116.9a5,5,0,0,0,.57.27l.23.07a2.22,2.22,0,0,0,.39.12l.32.07.33,0h1.32l.49-.06h.14l.52-.12h.07a4.27,4.27,0,0,0,1-.4l17.32-10a6,6,0,0,0,2.69-4.66Z" transform="translate(1.99 -13.44)"/><polygon class="cls-9" points="291.8 73.9 274.82 83.7 283.31 85.15 291.8 73.9"/><polygon class="cls-9" points="283.31 87.63 274.82 83.7 274.82 96.95 291.8 87.15 291.8 73.9 283.31 87.63"/><path class="cls-14" d="M292.34,81.8c-.19-1.38-1.31-1.88-2.65-1.1l-17.33,10a5.49,5.49,0,0,0-1.89,2l-7.57-4.37a5.52,5.52,0,0,1,1.9-2l17.32-10a5.93,5.93,0,0,1,5.38,0l2.19,1.26A6,6,0,0,1,292.34,81.8Z" transform="translate(1.99 -13.44)"/><path class="cls-15" d="M271.88,117.13a.52.52,0,0,1-.16.06l-.4.13a6.51,6.51,0,0,1-1.05.21h0a4.86,4.86,0,0,1-.54,0,5.45,5.45,0,0,1-2.69-.64l-2.22-1.24a6,6,0,0,1-2.69-4.66V91a4.81,4.81,0,0,1,.32-1.67c.09-.23.19-.44.29-.65a3.52,3.52,0,0,1,.18-.33l7.57,4.37a5.42,5.42,0,0,0-.79,2.65v20c0,1.3.69,2,1.68,1.9h.16A2,2,0,0,0,271.88,117.13Z" transform="translate(1.99 -13.44)"/><path class="cls-6" d="M292.38,124.48a6,6,0,0,0-2.69-4.66l-2.19-1.26a5.93,5.93,0,0,0-5.38,0l-17.32,10a5.52,5.52,0,0,0-1.9,2,5.42,5.42,0,0,0-.79,2.65v20a5.91,5.91,0,0,0,2.69,4.65l2.19,1.27a5,5,0,0,0,.57.27l.23.07a2.16,2.16,0,0,1,.39.12,1.65,1.65,0,0,0,.32.06l.33.06h1.32a1.38,1.38,0,0,0,.49-.06h.14l.52-.12h.07a4.27,4.27,0,0,0,1-.4l17.32-10a6,6,0,0,0,2.69-4.66Z" transform="translate(1.99 -13.44)"/><path class="cls-13" d="M292.34,124c-.19-1.38-1.31-1.88-2.65-1.1l-17.33,10a5.49,5.49,0,0,0-1.89,2l-7.57-4.37a5.52,5.52,0,0,1,1.9-2l17.32-10a5.93,5.93,0,0,1,5.38,0l2.19,1.26A6,6,0,0,1,292.34,124Z" transform="translate(1.99 -13.44)"/><path class="cls-11" d="M292.38,124.47v20a5.92,5.92,0,0,1-2.69,4.66l-17.32,10a3.36,3.36,0,0,1-.65.28h-.35c-1,.11-1.68-.6-1.68-1.9v-20a5.42,5.42,0,0,1,.79-2.65,5.52,5.52,0,0,1,1.9-2l17.32-10c1.35-.78,2.46-.28,2.65,1.1a1,1,0,0,0-.07-.43A6,6,0,0,1,292.38,124.47Z" transform="translate(1.99 -13.44)"/><polygon class="cls-30" points="282.58 118.58 274.23 129.25 282.33 130.23 290.69 119.57 282.58 118.58"/><path class="cls-30" d="M275.32,148.84c0,1.77,2.36,1.85,5.28.16s5.28-4.49,5.28-6.26v-3.83l-5.28,6.75-5.28-.65Z" transform="translate(1.99 -13.44)"/><path class="cls-12" d="M271.88,159.36a.52.52,0,0,1-.16.06l-.4.13a6.51,6.51,0,0,1-1.05.21h-.59a5.45,5.45,0,0,1-2.69-.64l-2.22-1.24a6,6,0,0,1-2.69-4.66v-20a4.81,4.81,0,0,1,.32-1.67c.09-.23.19-.45.29-.66l.18-.32,7.57,4.37a5.42,5.42,0,0,0-.79,2.65v20c0,1.3.69,2,1.68,1.9h.16A2,2,0,0,0,271.88,159.36Z" transform="translate(1.99 -13.44)"/></g><g id="freepik--character--inject-74-3" data-name="freepik--character--inject-74"><path class="cls-11" d="M382.15,212.48l-47.67-12.94c-4.31-.74-6.12,9.79-1.8,10.53l49,5Z" transform="translate(1.99 -13.44)"/><path class="cls-6" d="M334.48,199.54c-4.31-.74-6.12,9.79-1.8,10.53l6.83.69c-2.8-.29-.85-10.08,1.28-9.5h0Z" transform="translate(1.99 -13.44)"/><path class="cls-20" d="M402.26,232.6c5.74,0,8.8,1.73,11.2,7.06,2.3,5.1,9.42,19.91,9.07,23.5s-15,18.82-15,18.82l-4.18-5.08,9.07-15.23-8.9-12.84Z" transform="translate(1.99 -13.44)"/><g id="freepik--character--inject-74-4" data-name="freepik--character--inject-74"><path class="cls-12" d="M388.24,389.68c.39,1.22.72,2.45,1,3.7s.68,3.66.2,4.69-2.35,1.7-5.26,1.68c-1.88,0-4.81,1.26-6.82,2.38s-6.39,1.62-8.58,1.36c-2.58-.3-5.26-1.8-5.68-2.87s-.77-2.54,6.23-4.78c.06,0,8.47-2.76,11.41-6Z" transform="translate(1.99 -13.44)"/><path class="cls-20" d="M388.24,389.87l-1.33-.16-6.17.12c-2.94,3.25-11.35,6-11.41,6l-1.12.38c-1.22,1-.19,2.65,2.7,2.9s11.86-2.76,13.86-3.72A6,6,0,0,0,388.24,389.87Z" transform="translate(1.99 -13.44)"/><path class="cls-20" d="M388.24,387.23v2.65c0,1-1.13,2.4-4.07,2.29-2.06-.07-3.51-.63-3.43-2.33v-2.45Z" transform="translate(1.99 -13.44)"/><path class="cls-12" d="M408,378.61c.53.22.64,1.24.66,3.27,0,1.53.28,4.22-1.53,4.71s-4.43.14-5.55-1.34c-1.38-1.84-2.31-3.45-4.3-5.71-1.73-2-3.6-3.79-4.25-6.49-.58-2.43,0-3.47,1.66-4.13s3.17-.12,5.48,1.81a9.9,9.9,0,0,0,2.06,1.09C403.77,372.29,407.47,378.4,408,378.61Z" transform="translate(1.99 -13.44)"/><path class="cls-20" d="M408.05,376.74l-.07,2.48s-1.66,3.26-6.29,0c-.1-.24-.51-5.05-.51-5.05Z" transform="translate(1.99 -13.44)"/><path class="cls-20" d="M402.23,371.82a9.9,9.9,0,0,1-2.06-1.09h0c-1.86-.6-5.79.1-4,2.81a20.66,20.66,0,0,0,5.54,5.68c2.1,1,2.83-.24,2.83-.24l-.74-5.84A4.76,4.76,0,0,0,402.23,371.82Z" transform="translate(1.99 -13.44)"/><path class="cls-20" d="M411.43,342.32a59.57,59.57,0,0,0-2.66-12.88s1.56-11,2.8-21.52c2.89-24.73-.67-25.18-4.16-33.78,0,0-30.08-4-31.41,9.16-1.65,16.42-.91,48.27-.63,54.09s.75,8.46,2.48,20.66c1.32,9.29,2.92,30.07,2.92,30.07a7.09,7.09,0,0,0,7.5,0s4.28-25.87,4.19-32.58a57.67,57.67,0,0,0-2.15-14.71s2.69-26.76,3.38-31c0,0,.77,8.53,1.05,14.35s1.85,11.43,3.24,22.27c1.21,9.41,4.2,29.56,4.2,29.56,4.16,2.39,5.9.74,5.9.74S412.35,350.48,411.43,342.32Z" transform="translate(1.99 -13.44)"/><path class="cls-11" d="M404.17,266.12s5.5,8.23,7.86,16.77,1.25,17.72.37,26.84S409.67,328,409.67,328s-5.08,5.23-15.75,8c-13.09,3.42-19-.66-19-.66s-1.2-34.79,0-48.11,2.6-19.36,2.6-19.36Z" transform="translate(1.99 -13.44)"/><polygon class="cls-20" points="390.82 213.82 391.98 226.14 402.81 225.46 401.94 211.79 390.82 213.82"/><path class="cls-6" d="M410.56,237.83c-1.1-3.27-3.35-5.18-8.3-5.23l-1.83.06c-.35,1.81-5.68,3.29-11,1.43-.74.19-3.73.56-4.88.71l-1.57.38c-3.84,1.25-7.17,3.86-7.29,14.43-.05,5,1.79,18.28,1.79,18.28s17.31,3.5,26.64-1.77C410.31,251.05,412.19,242.67,410.56,237.83Z" transform="translate(1.99 -13.44)"/><g class="cls-31"><path class="cls-8" d="M410.56,237.83c-1.1-3.27-3.35-5.18-8.3-5.23l-1.83.06c-.35,1.81-5.68,3.29-11,1.43-.74.19-3.73.56-4.88.71l-1.57.38c-3.84,1.25-7.17,3.86-7.29,14.43-.05,5,1.79,18.28,1.79,18.28s17.31,3.5,26.64-1.77C410.31,251.05,412.19,242.67,410.56,237.83Z" transform="translate(1.99 -13.44)"/></g><path class="cls-20" d="M384.6,234.8l-25.9-.18s1.47-14.49,2.37-16.39,3.09-2.29,5.23-2.91,2.16-1.64,2.16-1.64l-1.94-.19c-1.7-.18-2.38-2.3-1.64-3.73.35-.67.92-1.72,1.95-1.44l2.58.7s0-2.29-.82-3.23-1.44-.66-3.15-1.25c-1.28-.45-3.88-1.24-6-.38s-3.7,4.81-4.23,7.59a47.24,47.24,0,0,1-2.64,9.42c-1.88,5.17-4.63,15.77-4.88,20-.12,2,.06,3.12,2.24,3.65s27.56,3,27.56,3C382.93,247.12,386.05,241.83,384.6,234.8Z" transform="translate(1.99 -13.44)"/><path class="cls-12" d="M383.18,212s-4.09-4.88-.89-9.63c3.78-5.59,10.44-7.49,18.67-5,4.07,1.21,10.05,6.84,10.35,14.73.24,6.08-16.82,10.11-16.55,14.28Z" transform="translate(1.99 -13.44)"/><path class="cls-21" d="M380.77,213.73s-2.4,3.62-2.09,4a5.58,5.58,0,0,0,1.84.79Z" transform="translate(1.99 -13.44)"/><path class="cls-20" d="M388.13,202.23c-2.33,1.21-6.36,3.43-7.39,12-1.07,8.81.9,11.88,2.1,13,.81.78,5,1.06,7.18.39,2.73-.85,8.65-3.78,11.42-8.33,3.26-5.35,3.94-12.48.17-15.28A14.27,14.27,0,0,0,388.13,202.23Z" transform="translate(1.99 -13.44)"/><path class="cls-12" d="M387.44,202.61s-2,8,.41,13.12c0,0,1.42-3.13,4.12-2.23s2.47,4.52.33,6.37a4,4,0,0,1-4.21.9s.07,4.45,3.88,6.21c0,0,7.95,3.8,15.13-3.88,6.52-7,5.68-19.45-3.93-22.65S387.44,202.61,387.44,202.61Z" transform="translate(1.99 -13.44)"/><path class="cls-12" d="M419.77,236.52h0a11.5,11.5,0,0,1-11.5-11.5V210.23h0a11.5,11.5,0,0,1,11.5,11.5Z" transform="translate(1.99 -13.44)"/><path class="cls-12" d="M381.26,199c-3.58,3.64-3.78,14.15,6.59,16.73l6.78-18.61C390.68,194.55,384.45,195.75,381.26,199Z" transform="translate(1.99 -13.44)"/><path class="cls-12" d="M386.77,218.62a2,2,0,0,1-1.23-2.63,2,2,0,0,1,2.53-1.26l.09,0Z" transform="translate(1.99 -13.44)"/></g></g></svg>