<svg id="Layer_1" data-name="Layer 1" xmlns="http://www.w3.org/2000/svg" xmlns:xlink="http://www.w3.org/1999/xlink" viewBox="0 0 500 392.28"><defs><style>.cls-1{fill:url(#linear-gradient);}.cls-2{fill:#ebebeb;}.cls-3{fill:#b3b3b2;}.cls-4{fill:#f5f6f6;}.cls-5{fill:#e0e1e0;}.cls-6{fill:#e6e6e5;}.cls-7{fill:#e4897b;}.cls-17,.cls-23,.cls-8{fill:#010101;}.cls-20,.cls-8{opacity:0.2;}.cls-16,.cls-18,.cls-19,.cls-20,.cls-21,.cls-23,.cls-8{isolation:isolate;}.cls-9{fill:#273339;}.cls-10{fill:#f1e913;}.cls-11,.cls-19{opacity:0.6;}.cls-12,.cls-16,.cls-18,.cls-19,.cls-20,.cls-21{fill:#fff;}.cls-13{fill:#edc1bb;}.cls-14{fill:#d5827e;}.cls-15,.cls-22{fill:none;stroke-linecap:round;stroke-linejoin:round;}.cls-15{stroke:#273339;stroke-width:0.69px;}.cls-16{opacity:0.7;}.cls-18{opacity:0.4;}.cls-21,.cls-25{opacity:0.3;}.cls-22{stroke:#f1e913;}.cls-23{opacity:0.5;}.cls-24{fill:#ebb376;}</style><linearGradient id="linear-gradient" x1="9" y1="217.94" x2="493" y2="217.94" gradientUnits="userSpaceOnUse"><stop offset="0" stop-color="#f0e90d" stop-opacity="0.1"/><stop offset="0.47" stop-color="#f0e90d" stop-opacity="0.7"/><stop offset="0.88" stop-color="#f0e90d"/></linearGradient></defs><path class="cls-1" d="M51.43,404.17l383.3.75c7.91-29.48,18.53-71.66,28.93-122.8,27.86-137,42.92-207.78,12.76-233C428.48,9,337.5,42.46,235,80.12,128,119.4,43.5,151.34,16.89,229.68-8.55,304.56,34.17,377.86,51.43,404.17Z" transform="translate(0.5 -30.95)"/><g id="freepik--background-complete--inject-2"><rect class="cls-2" y="373.22" width="500" height="0.25"/><rect class="cls-2" x="416.78" y="389.31" width="33.12" height="0.25"/><rect class="cls-2" x="322.53" y="392.03" width="8.69" height="0.25"/><rect class="cls-2" x="396.59" y="380.03" width="19.19" height="0.25"/><rect class="cls-2" x="52.46" y="381.71" width="43.19" height="0.25"/><rect class="cls-2" x="104.56" y="381.71" width="6.33" height="0.25"/><rect class="cls-2" x="131.47" y="385.93" width="93.68" height="0.25"/><path class="cls-3" d="M236.5,359.57H43.41a5.71,5.71,0,0,1-5.7-5.71V82.43a5.71,5.71,0,0,1,5.7-5.66H236.5a5.71,5.71,0,0,1,5.71,5.71h0V353.86A5.71,5.71,0,0,1,236.5,359.57ZM43.41,77A5.46,5.46,0,0,0,38,82.43V353.86a5.46,5.46,0,0,0,5.45,5.46H236.5a5.48,5.48,0,0,0,5.46-5.46V82.43A5.48,5.48,0,0,0,236.5,77Z" transform="translate(0.5 -30.95)"/><path class="cls-3" d="M452.81,359.57H259.71a5.73,5.73,0,0,1-5.71-5.71V82.43a5.72,5.72,0,0,1,5.71-5.66h193.1a5.71,5.71,0,0,1,5.69,5.66V353.86A5.7,5.7,0,0,1,452.81,359.57ZM259.71,77a5.48,5.48,0,0,0-5.46,5.46V353.86a5.48,5.48,0,0,0,5.46,5.46h193.1a5.48,5.48,0,0,0,5.46-5.46V82.43A5.48,5.48,0,0,0,452.81,77Z" transform="translate(0.5 -30.95)"/><rect class="cls-4" x="252.69" y="131.8" width="164.14" height="242.17"/><rect class="cls-2" x="399.42" y="131.8" width="17.41" height="242.17"/><rect class="cls-2" x="258.73" y="137.4" width="136.79" height="24.6"/><rect class="cls-2" x="258.73" y="167.39" width="136.79" height="24.6"/><rect class="cls-2" x="258.73" y="197.38" width="136.79" height="24.6"/><rect class="cls-2" x="258.73" y="227.37" width="136.79" height="24.6"/><rect class="cls-2" x="258.73" y="257.37" width="136.79" height="24.6"/><rect class="cls-2" x="258.73" y="287.36" width="136.79" height="24.6"/><rect class="cls-2" x="258.73" y="317.35" width="136.79" height="24.6"/><rect class="cls-2" x="258.73" y="347.34" width="136.79" height="24.6"/><rect class="cls-5" x="79.43" y="95.25" width="106.83" height="141.02"/><rect class="cls-4" x="81.43" y="97.25" width="102.83" height="137.02"/><polygon class="cls-6" points="126.22 121.46 131.13 104.78 141.93 116.91 154.56 109.79 152.5 124.08 170.47 132.44 157.55 139.06 166.48 159.48 146.83 157.63 143.53 175.25 131.13 160.88 117.83 169.02 119.04 152.31 106.56 148.8 121.39 135.86 110.78 118.49 126.22 121.46"/><polygon class="cls-5" points="102.05 196 105.15 185.47 111.96 193.13 119.94 188.63 118.63 197.66 129.98 202.93 121.82 207.11 127.46 220.01 115.05 218.84 112.97 229.96 105.15 220.89 96.74 226.03 97.51 215.48 89.63 213.26 98.99 205.09 92.29 194.13 102.05 196"/><polygon class="cls-5" points="167.05 194.36 173.44 195.8 169.15 200.15 172.13 204.72 166.71 204.29 164.01 211.25 161.21 206.55 153.76 210.41 153.98 202.98 147.28 202.17 152.37 197.17 148.99 192.37 155.3 192.42 156.31 187.65 161.53 192.9 167.79 188.49 167.05 194.36"/><path class="cls-4" d="M122.73,167.49c-.85-3.81.87-6.73,3.75-7.37s5.48,1.22,6.29,4.86c.84,3.81-.67,6.72-3.75,7.4S123.5,171.13,122.73,167.49Zm2.65-.59c.56,2.55,1.81,3.32,3.13,3s2.25-1.61,1.64-4.36c-.55-2.51-2-3.32-3.17-3S124.78,164.18,125.38,166.9Zm8.4,16.48-3.44.76,8.76-26.67,3.44-.76Zm7-8c-.85-3.81.87-6.72,3.75-7.36s5.48,1.22,6.29,4.86c.84,3.81-.67,6.72-3.75,7.4s-5.45-1.2-6.25-4.85Zm2.64-.58c.57,2.55,1.82,3.31,3.14,3s2.25-1.61,1.64-4.36c-.56-2.52-2-3.32-3.18-3.05s-2.16,1.74-1.52,4.46Z" transform="translate(0.5 -30.95)"/><path class="cls-4" d="M101,232.4c.8-2.41,2.74-3.46,4.56-2.85s2.65,2.52,1.88,4.82-2.62,3.53-4.57,2.87S100.19,234.7,101,232.4Zm1.67.56c-.54,1.61-.1,2.46.74,2.74s1.79-.14,2.38-1.88,0-2.51-.76-2.77S103.22,231.25,102.64,233Zm-.83,12-2.18-.73L113.5,232.3l2.18.73Zm6.59-2.08c.8-2.41,2.74-3.46,4.56-2.85s2.65,2.52,1.88,4.82-2.63,3.52-4.57,2.87-2.65-2.52-1.87-4.82Zm1.67.56c-.54,1.61-.1,2.46.74,2.74s1.79-.14,2.37-1.88,0-2.51-.75-2.77-1.78.24-2.36,1.93Z" transform="translate(0.5 -30.95)"/><path class="cls-4" d="M155.73,228a1.68,1.68,0,0,1,1.46-1.87h.11c.87,0,1.49.71,1.49,1.81s-.63,1.89-1.56,1.89S155.73,229.11,155.73,228Zm.81,0c0,.77.3,1.07.7,1.07s.75-.31.76-1.14-.35-1.08-.72-1.09-.78.34-.78,1.16Zm1.34,5.29h-1l4.27-7.09h1Zm2.54-1.83a1.66,1.66,0,0,1,1.43-1.86H162a1.59,1.59,0,0,1,1.5,1.67.66.66,0,0,1,0,.14c0,1.15-.63,1.89-1.56,1.88s-1.5-.71-1.49-1.82Zm.8,0c0,.77.3,1.07.7,1.07s.75-.31.76-1.14-.34-1.08-.72-1.09-.74.35-.74,1.17Z" transform="translate(0.5 -30.95)"/></g><g id="freepik--Shadow--inject-2"><ellipse id="freepik--path--inject-2" class="cls-4" cx="250" cy="219.05" rx="193.89" ry="11.32"/></g><g id="freepik--character-2--inject-2"><polygon class="cls-7" points="295.99 340.17 302.29 341.27 304.88 332.68 307.24 324.79 299.97 322.25 297.86 331.74 295.99 340.17"/><polygon class="cls-8" points="297.82 331.93 304.85 332.86 307.23 324.88 299.96 322.29 297.82 331.93"/><polygon class="cls-7" points="338.1 343.07 344.5 343.07 345.55 334.05 346.51 325.81 338.9 324.56 338.47 334.36 338.1 343.07"/><polygon class="cls-8" points="338.47 334.44 345.55 334.13 346.51 325.86 338.9 324.57 338.47 334.44"/><path class="cls-9" d="M328.92,386.7a11,11,0,0,1,3.42-1.86h0s3.72-3.69,5.51-14.8l4.87-1.27a4.17,4.17,0,0,1,4.43,1.73,2.7,2.7,0,0,1,.31.64,29.61,29.61,0,0,1,.52,3.61c.49,3.76.07,12.2.07,12.2h-.88l-.35-7.66c-.13-2.6-2.12.45-2.69,3.25s-1.78,5.78-7.48,5.92C330,388.59,327.24,388.33,328.92,386.7Z" transform="translate(0.5 -30.95)"/><path class="cls-9" d="M286.42,386a11,11,0,0,1,3.42-1.86h0s3.72-3.69,5.51-14.8l4.87-1.27a4.17,4.17,0,0,1,4.43,1.73,2.7,2.7,0,0,1,.31.64,29.61,29.61,0,0,1,.52,3.61c.49,3.76.07,12.2.07,12.2h-.88l-.35-7.66c-.13-2.6-2.12.45-2.69,3.25s-1.78,5.78-7.48,5.92C287.5,387.84,284.74,387.58,286.42,386Z" transform="translate(0.5 -30.95)"/><path class="cls-10" d="M296.73,357.87l10.37,1.82c10.46-26.07,17.9-47.83,23.16-65.89,2.83-9.74,5.19-18.4,6.89-26.09l-.32,28.4V360h10.22c25.62-122,7.45-149.83,7.45-149.83l-30.63-5.1a137.56,137.56,0,0,0-2.57,17.22l-1.38,10.16-12,61.87Z" transform="translate(0.5 -30.95)"/><g class="cls-11"><path class="cls-12" d="M296.73,357.87l10.37,1.82c10.46-26.07,17.9-47.83,23.16-65.89,2.83-9.74,5.19-18.4,6.89-26.09l-.32,28.4V360h10.22c25.62-122,7.45-149.83,7.45-149.83l-30.63-5.1a137.56,137.56,0,0,0-2.57,17.22l-1.38,10.16-12,61.87Z" transform="translate(0.5 -30.95)"/></g><path class="cls-8" d="M330.26,293.8c2.83-9.74,5-18.4,6.73-26.09a240.72,240.72,0,0,0-2-27.22S330.5,275.59,330.26,293.8Z" transform="translate(0.5 -30.95)"/><path class="cls-9" d="M353.93,119.23s7.11-6.74,13.24,1.77-2.67,18.59-2.47,25.71,3.39,6.33,3.39,6.33-5,5.59-9.62,0S358,135.63,357,131.27,353.93,119.23,353.93,119.23Z" transform="translate(0.5 -30.95)"/><path class="cls-13" d="M288.28,187.71,276.92,192s-2.21-.69-3.13-.2-5.37,5-5.24,5.83,4.06,3.78,5.28,3.23,4.5-5,4.64-5.52l13.74-4.76Z" transform="translate(0.5 -30.95)"/><path class="cls-9" d="M324.86,156.36c-3.61,1.92-20.08,21.21-21.79,22.39-3,2.09-20.56,10.91-20.56,10.91l2,4.59s12.72-4.65,20.28-7.12c6.4-2.09,21-15.79,21-15.79Z" transform="translate(0.5 -30.95)"/><path class="cls-8" d="M320.69,176.57c3-2.86,5.14-5.22,5.14-5.22l-.23-3.56-1.1-3.45A14.19,14.19,0,0,0,320.69,176.57Z" transform="translate(0.5 -30.95)"/><path class="cls-10" d="M360.6,172.76c-1.2,3.87-2.14,7.21-2.89,10.2a111,111,0,0,0-3.32,23l-31.26-2.7c-1.25-22-.69-34.12-.12-40.17.62-6.45,1.62-6.69,1.62-6.69s7-.68,13.06-.63a99.66,99.66,0,0,1,14,1.48,95,95,0,0,1,13,3.13c-.71,2-1.35,4-1.95,5.76C362,168.48,361.24,170.7,360.6,172.76Z" transform="translate(0.5 -30.95)"/><path class="cls-13" d="M338.05,157.11a10.07,10.07,0,0,1,.95-.41c.72-.57,1.6-1.94,1.55-5.27a25.72,25.72,0,0,0-.36-3.91l9.27-1.73s-3.16,6.24-.52,10.88c.91.4,1.54,1,1.35,1.72-.83,3.29-10.66,7.26-10.66,7.26S332.5,160.11,338.05,157.11Z" transform="translate(0.5 -30.95)"/><path class="cls-8" d="M340.19,147.48a25.72,25.72,0,0,1,.36,3.91c6.27,0,8.91-5.64,8.91-5.64Z" transform="translate(0.5 -30.95)"/><path class="cls-9" d="M344.33,116.89s-10.83-1.37-12.83,7.38a13.45,13.45,0,0,0,4.75,13.62Z" transform="translate(0.5 -30.95)"/><path class="cls-13" d="M345.32,121.56c-8.06-.44-10.89,3.73-11.94,12-1.3,10.34.59,17.84,10.79,16.18C358,147.48,358.7,122.29,345.32,121.56Z" transform="translate(0.5 -30.95)"/><path class="cls-14" d="M338.62,133.4a16.72,16.72,0,0,1-2.53,3.21,2.2,2.2,0,0,0,2.07,1Z" transform="translate(0.5 -30.95)"/><path class="cls-9" d="M343.59,133c-.06.66.26,1.22.7,1.26s.84-.47.89-1.14-.26-1.22-.7-1.26S343.64,132.35,343.59,133Z" transform="translate(0.5 -30.95)"/><path class="cls-9" d="M344.66,131.92l-1.39-.68S343.89,132.51,344.66,131.92Z" transform="translate(0.5 -30.95)"/><path class="cls-9" d="M335.38,132.23c-.05.66.26,1.22.7,1.26s.84-.48.89-1.14-.26-1.22-.7-1.26S335.43,131.57,335.38,132.23Z" transform="translate(0.5 -30.95)"/><path class="cls-9" d="M336.5,131.11l-1.39-.68S335.68,131.73,336.5,131.11Z" transform="translate(0.5 -30.95)"/><path class="cls-15" d="M344,127.45a4.24,4.24,0,0,1,3.43,1.41" transform="translate(0.5 -30.95)"/><path class="cls-15" d="M338.13,126.79a3.78,3.78,0,0,0-3.25.48" transform="translate(0.5 -30.95)"/><path class="cls-9" d="M353.38,135.62s-3.4-6.82-2.55-11.91c0,0-15.62-7.4-17.29,8.77,0,0-.78-14.48,13.1-14s12.7,20.71,5.22,26.35C351.86,144.79,355.5,139.89,353.38,135.62Z" transform="translate(0.5 -30.95)"/><path class="cls-9" d="M343,116.27s-4.58-.37-6.45,1.38S346,130.52,353,131.77c0,0,2.37,7.75.5,11.37,0,0,7.87-2.75,8.25-14.75S349.5,111.89,343,116.27Z" transform="translate(0.5 -30.95)"/><path class="cls-13" d="M352,137.25a3.57,3.57,0,0,1,4-3c2.48.41,3.39,5.6-2.89,6.5C352.17,140.85,351.71,140,352,137.25Z" transform="translate(0.5 -30.95)"/><path class="cls-15" d="M336.18,118.26s2.4,10,11.78,13.38" transform="translate(0.5 -30.95)"/><path class="cls-15" d="M343.5,139.52a6.47,6.47,0,0,1-4.63,1.87" transform="translate(0.5 -30.95)"/><path class="cls-10" d="M355.86,124.33s5.85,4.06,5.19,8.74a12.7,12.7,0,0,0-7.12-6.9Z" transform="translate(0.5 -30.95)"/><path class="cls-10" d="M333.44,120.29l6.1-7.68a3,3,0,0,1,2.52-1.1,63.89,63.89,0,0,1,11,1.71,4.22,4.22,0,0,1,3,3.65L357,127l-5.2-1.86Z" transform="translate(0.5 -30.95)"/><path class="cls-16" d="M333.44,120.29l6.1-7.68a3,3,0,0,1,2.52-1.1,63.89,63.89,0,0,1,11,1.71,4.22,4.22,0,0,1,3,3.65L357,127l-5.2-1.86Z" transform="translate(0.5 -30.95)"/><path class="cls-10" d="M324.39,121.48S346,126.62,357,127A21.4,21.4,0,0,0,346,119.66C340.78,118.11,330.84,116.77,324.39,121.48Z" transform="translate(0.5 -30.95)"/><polygon class="cls-17" points="354.89 174.97 323.63 172.28 323.63 177.63 355.63 180.46 354.89 174.97"/><path class="cls-12" d="M331.85,205.58v2.53a1.93,1.93,0,0,0,1.77,1.93l3.9.35h.17a1.94,1.94,0,0,0,1.94-1.94V206a1.94,1.94,0,0,0-1.77-1.93l-3.91-.34a2,2,0,0,0-1.47.5A2,2,0,0,0,331.85,205.58Zm1,2.49v-.82h0l1.09.08a.66.66,0,0,0,.71-.61A.67.67,0,0,0,334,206l-1.09-.09h-.15v-.38a.94.94,0,0,1,.93-.94h.09l3.9.33a1,1,0,0,1,.86.94v2.49a.93.93,0,0,1-1,.94l-3.91-.35a.92.92,0,0,1-.8-.84Z" transform="translate(0.5 -30.95)"/><path class="cls-13" d="M367.24,196.59l-10.8-6.81s-.82-2.28-1.83-2.75-7.57-1.33-8.21-.67-.58,5.8.66,6.47,7,.6,7.57.38l12.11,9.27Z" transform="translate(0.5 -30.95)"/><path class="cls-9" d="M364.61,160.35s-7.06,10.25-6,19L368,194.87l-6.29-3.22-2.89,5.46s7.25,11.15,16.47,8.52S364.61,160.35,364.61,160.35Z" transform="translate(0.5 -30.95)"/><polygon class="cls-10" points="362.81 160.44 359.22 167.09 358.42 165.19 361.27 159.78 362.81 160.44"/><polygon class="cls-10" points="286.25 163.94 283.01 157.74 281.88 159.06 284.06 163.94 286.25 163.94"/><path class="cls-9" d="M348.17,154.66s-3.49,7.36-9,9.68c0,0-.1-7.3,1.06-9.68L337,155.73s-6.35,3-8.24,8.61c0,0,7.55-2.17,7.71-1.77s2.17,8.57,2.17,8.57l6.21-7.65,7.07,7s2.71-7.76,1.87-12.88Z" transform="translate(0.5 -30.95)"/><rect class="cls-9" x="328" y="143.43" width="5.52" height="9.02" rx="0.79"/><rect class="cls-16" x="328.33" y="144.87" width="4.48" height="5.29"/><rect class="cls-10" x="330.17" y="141.26" width="0.99" height="2.89"/></g><g id="freepik--Table--inject-2"><path class="cls-9" d="M298.72,192.5v14.68H270V192.5a2.1,2.1,0,0,1,2.11-2.11h24.49A2.13,2.13,0,0,1,298.72,192.5Z" transform="translate(0.5 -30.95)"/><path class="cls-18" d="M298.72,192.5v14.68H270V192.5a2.1,2.1,0,0,1,2.11-2.11h24.49A2.13,2.13,0,0,1,298.72,192.5Z" transform="translate(0.5 -30.95)"/><path class="cls-18" d="M291.72,192.5v14.68H270V192.5a2.1,2.1,0,0,1,2.11-2.11h17.49A2.13,2.13,0,0,1,291.72,192.5Z" transform="translate(0.5 -30.95)"/><rect class="cls-9" x="202.91" y="117.01" width="2.62" height="13.49"/><polygon class="cls-19" points="205.53 130.5 202.91 130.5 202.91 122.01 205.53 123.01 205.53 130.5"/><rect class="cls-9" x="181.16" y="108.54" width="45.28" height="11.45"/><rect class="cls-19" x="181.16" y="108.54" width="45.28" height="11.45"/><polygon class="cls-9" points="239.75 160.75 230.78 128.26 187.21 128.26 179.06 128.26 179.06 176.76 261.47 176.76 261.47 167.4 239.75 160.75"/><polygon class="cls-18" points="239.75 160.75 230.78 128.26 187.21 128.26 179.06 128.26 179.06 176.76 261.47 176.76 261.47 167.4 239.75 160.75"/><polygon class="cls-20" points="239.75 160.75 196.18 160.75 187.21 128.26 230.78 128.26 239.75 160.75"/><polygon class="cls-10" points="234.36 156.11 199.01 156.11 192.6 132.9 227.95 132.9 234.36 156.11"/><polygon class="cls-18" points="196.18 160.75 222.7 167.4 222.7 177.77 179.06 177.77 179.06 128.26 187.21 128.26 196.18 160.75"/><rect class="cls-20" x="222.7" y="167.4" width="38.77" height="9.36"/><rect class="cls-10" x="185.34" y="109.53" width="40.28" height="9.47"/><rect class="cls-8" x="201.16" y="108.54" width="2.9" height="11.45"/><rect class="cls-9" x="104.32" y="177.77" width="295.26" height="151.79"/><rect class="cls-18" x="104.32" y="177.77" width="242.11" height="151.79"/><rect class="cls-18" x="104.32" y="177.77" width="295.26" height="151.79"/><path class="cls-10" d="M401.12,211.13H99.76a2.58,2.58,0,0,1-2.58-2.57h0A2.59,2.59,0,0,1,99.76,206H401.12a2.59,2.59,0,0,1,2.58,2.58h0A2.58,2.58,0,0,1,401.12,211.13Z" transform="translate(0.5 -30.95)"/></g><g id="freepik--trash-bin--inject-2"><path class="cls-9" d="M417.5,252.57a2.56,2.56,0,0,0-1.16-3.42,2.46,2.46,0,0,0-.84-.24,5.48,5.48,0,0,0-1.73-6,1.18,1.18,0,0,0-.75-.34,1.39,1.39,0,0,0-.81.36l-4.78,3.42a3,3,0,0,0-.95.94c-1,1.9,2.55,4.33,1.1,5.89-.42.45-1.09.54-1.61.86-1.13.71-1.27,2.27-1.8,3.52s-2.38,2.18-3.09,1c.52-1.18-1.06-2.21-2.34-2.35s-2.62-.22-3.33-1.43c-1.82,1.59-5.9-2.85-5.81-4.64a3.48,3.48,0,0,0-2.84,2.92,21.49,21.49,0,0,0-.16,4.46c0,2.9-1,5.74-.93,8.64,0,2.27.91,4.77,3,5.68a7.71,7.71,0,0,0,3.2.42l23.53-.14a3.74,3.74,0,0,0,1.65-.28c1.06-.55,1.29-1.94,1.39-3.15l1.21-15.24Z" transform="translate(0.5 -30.95)"/><path class="cls-21" d="M417.5,252.57a2.56,2.56,0,0,0-1.16-3.42,2.46,2.46,0,0,0-.84-.24,5.48,5.48,0,0,0-1.73-6,1.18,1.18,0,0,0-.75-.34,1.39,1.39,0,0,0-.81.36l-4.78,3.42a3,3,0,0,0-.95.94c-1,1.9,2.55,4.33,1.1,5.89-.42.45-1.09.54-1.61.86-1.13.71-1.27,2.27-1.8,3.52s-2.38,2.18-3.09,1c.52-1.18-1.06-2.21-2.34-2.35s-2.62-.22-3.33-1.43c-1.82,1.59-5.9-2.85-5.81-4.64a3.48,3.48,0,0,0-2.84,2.92,21.49,21.49,0,0,0-.16,4.46c0,2.9-1,5.74-.93,8.64,0,2.27.91,4.77,3,5.68a7.71,7.71,0,0,0,3.2.42l23.53-.14a3.74,3.74,0,0,0,1.65-.28c1.06-.55,1.29-1.94,1.39-3.15l1.21-15.24Z" transform="translate(0.5 -30.95)"/><path class="cls-9" d="M418.89,227.71h-36.5l.3,3.68.22,2.64.55,6.85.32,3.94.42,5.24.18,2.24.06.67.22,2.64.29,3.62.18,2.25.19,2.28.18,2.69.16,2,.18,2.25.08,1H419.5l.08-1,.18-2.24.16-2,.22-2.64.18-2.27.18-2.25.3-3.62L421,253l.05-.67.18-2.24.43-5.24L422,241l.55-6.86.21-2.64.3-3.68Zm2.2,2.42h0l-.7-.71h.76Zm-.18,2.23-.07.9-3.27,3.26-3.75-3.74,3.36-3.36H418ZM420,244l-2.4,2.4-3.75-3.75,3.75-3.74,2.59,2.59Zm-34.74-2.5h0l2.59-2.59,3.75,3.74-3.75,3.76-2.38-2.4Zm31.13-3.81-3.74,3.72-3.75-3.75,3.75-3.75Zm-5.86-8.28h4.29l-2.14,2.15Zm.93,13.27-3.77,3.73-3.75-3.75,3.75-3.74Zm-12.45,5,3.75-3.74,3.74,3.74-3.74,3.74Zm2.53,4.95-3.74,3.75L394,252.68l3.74-3.75Zm6.18-3.74,3.74,3.75-3.74,3.74-3.75-3.75Zm-5-7.38-3.75-3.75,3.75-3.75,3.74,3.75Zm-1.19,1.14-3.76,3.76L394,242.7l3.74-3.74Zm-8.7-1.21-3.74-3.75L392.8,234l3.75,3.75Zm0,2.43,3.7,3.74-3.75,3.74L389,247.65Zm3.7,13.66-3.75,3.74L389,257.57l3.74-3.75Zm1.21,1.21,3.74,3.75-3.74,3.73L394,262.53Zm1.21-1.21,3.75-3.75,3.74,3.75-3.74,3.74Zm8.71,1.21,3.74,3.75-3.74,3.73-3.75-3.73Zm5,5,3.74,3.73L414,269.94H411.3l-2.43-2.49Zm-3.75-6.18,3.75-3.75,3.74,3.75-3.74,3.74Zm0-9.92,3.75-3.74,3.74,3.74-3.74,3.74Zm2.53-14.87-3.74,3.74-3.75-3.74,3.35-3.35h.79Zm-8.7-1.21-2.15-2.15h4.28Zm-1.21,1.18-3.74,3.73L394,232.78l3.35-3.36h.79Zm-6.58-3.33-2.14,2.15-2.14-2.15Zm-6.7,0,3.35,3.36-3.75,3.73-3.26-3.26-.07-.9,2.94-2.94Zm-3.21,0-.7.7h0l-.06-.7Zm-.23,6.48,1.83,1.83-1.56,1.56Zm1,12.56-.15-1.77h0l1,1-.81.81Zm.18,2.26,1.84-1.86,3.75,3.75-3.75,3.74-1.51-1.51Zm.55,6.93v-.23l.08.09-.08.08Zm.66,8-.48-5.74,1.11-1.11,3.75,3.75-3.75,3.74-.63-.64Zm.34,4.28-.07-.86.36-.36L389,270Zm1.51-2.43,3.74-3.74,3.74,3.66-2.43,2.43H391.5Zm7.49,2.43,1.21-1.22,1.22,1.22Zm4.85,0L399,267.45l3.75-3.74,3.74,3.74L404,269.88Zm5.06,0,1.22-1.22,1.22,1.22Zm11.42,0h-1.51l1.22-1.22.36.36Zm.36-4.28-.65.64-3.75-3.74,3.75-3.75,1.11,1.11Zm.66-8.15v.17l-.08-.08.1-.09Zm.21-2.64-1.52,1.51-3.75-3.74,3.75-3.75,1.85,1.86Zm.51-6.37-.82-.82,1-1Zm1-12.58-.28,3.41-1.57-1.57Z" transform="translate(0.5 -30.95)"/><g class="cls-11"><path class="cls-12" d="M418.89,227.71h-36.5l.3,3.68.22,2.64.55,6.85.32,3.94.42,5.24.18,2.24.06.67.22,2.64.29,3.62.18,2.25.19,2.28.18,2.69.16,2,.18,2.25.08,1H419.5l.08-1,.18-2.24.16-2,.22-2.64.18-2.27.18-2.25.3-3.62L421,253l.05-.67.18-2.24.43-5.24L422,241l.55-6.86.21-2.64.3-3.68Zm2.2,2.42h0l-.7-.71h.76Zm-.18,2.23-.07.9-3.27,3.26-3.75-3.74,3.36-3.36H418ZM420,244l-2.4,2.4-3.75-3.75,3.75-3.74,2.59,2.59Zm-34.74-2.5h0l2.59-2.59,3.75,3.74-3.75,3.76-2.38-2.4Zm31.13-3.81-3.74,3.72-3.75-3.75,3.75-3.75Zm-5.86-8.28h4.29l-2.14,2.15Zm.93,13.27-3.77,3.73-3.75-3.75,3.75-3.74Zm-12.45,5,3.75-3.74,3.74,3.74-3.74,3.74Zm2.53,4.95-3.74,3.75L394,252.68l3.74-3.75Zm6.18-3.74,3.74,3.75-3.74,3.74-3.75-3.75Zm-5-7.38-3.75-3.75,3.75-3.75,3.74,3.75Zm-1.19,1.14-3.76,3.76L394,242.7l3.74-3.74Zm-8.7-1.21-3.74-3.75L392.8,234l3.75,3.75Zm0,2.43,3.7,3.74-3.75,3.74L389,247.65Zm3.7,13.66-3.75,3.74L389,257.57l3.74-3.75Zm1.21,1.21,3.74,3.75-3.74,3.73L394,262.53Zm1.21-1.21,3.75-3.75,3.74,3.75-3.74,3.74Zm8.71,1.21,3.74,3.75-3.74,3.73-3.75-3.73Zm5,5,3.74,3.73L414,269.94H411.3l-2.43-2.49Zm-3.75-6.18,3.75-3.75,3.74,3.75-3.74,3.74Zm0-9.92,3.75-3.74,3.74,3.74-3.74,3.74Zm2.53-14.87-3.74,3.74-3.75-3.74,3.35-3.35h.79Zm-8.7-1.21-2.15-2.15h4.28Zm-1.21,1.18-3.74,3.73L394,232.78l3.35-3.36h.79Zm-6.58-3.33-2.14,2.15-2.14-2.15Zm-6.7,0,3.35,3.36-3.75,3.73-3.26-3.26-.07-.9,2.94-2.94Zm-3.21,0-.7.7h0l-.06-.7Zm-.23,6.48,1.83,1.83-1.56,1.56Zm1,12.56-.15-1.77h0l1,1-.81.81Zm.18,2.26,1.84-1.86,3.75,3.75-3.75,3.74-1.51-1.51Zm.55,6.93v-.23l.08.09-.08.08Zm.66,8-.48-5.74,1.11-1.11,3.75,3.75-3.75,3.74-.63-.64Zm.34,4.28-.07-.86.36-.36L389,270Zm1.51-2.43,3.74-3.74,3.74,3.66-2.43,2.43H391.5Zm7.49,2.43,1.21-1.22,1.22,1.22Zm4.85,0L399,267.45l3.75-3.74,3.74,3.74L404,269.88Zm5.06,0,1.22-1.22,1.22,1.22Zm11.42,0h-1.51l1.22-1.22.36.36Zm.36-4.28-.65.64-3.75-3.74,3.75-3.75,1.11,1.11Zm.66-8.15v.17l-.08-.08.1-.09Zm.21-2.64-1.52,1.51-3.75-3.74,3.75-3.75,1.85,1.86Zm.51-6.37-.82-.82,1-1Zm1-12.58-.28,3.41-1.57-1.57Z" transform="translate(0.5 -30.95)"/></g><rect class="cls-9" x="380.56" y="195.22" width="45.28" height="4.77" rx="1.64"/><rect class="cls-9" x="383.82" y="238.1" width="38.75" height="4.77" rx="1.64"/></g><g id="freepik--character-1--inject-2"><path class="cls-10" d="M75.7,162.92c-1.6,9.49,13.43,15.82,24.71,18.19S86.14,164.3,86.14,164.3Z" transform="translate(0.5 -30.95)"/><path class="cls-8" d="M75.7,162.92c-1.6,9.49,13.43,15.82,24.71,18.19S86.14,164.3,86.14,164.3Z" transform="translate(0.5 -30.95)"/><path class="cls-10" d="M172.62,161.87a.82.82,0,0,0-.58-.34l-4.62-.51a.81.81,0,0,0-.89.65l-.94,4.72a.86.86,0,0,0,.14.64L171,174.2a.82.82,0,0,0,1.09.21l5.7-3.6a.81.81,0,0,0,.26-1.12l0,0Zm-4.63.93a.55.55,0,1,1-.54-1,.55.55,0,0,1,.55.95Z" transform="translate(0.5 -30.95)"/><path class="cls-19" d="M172.62,161.87a.82.82,0,0,0-.58-.34l-4.62-.51a.81.81,0,0,0-.89.65l-.94,4.72a.86.86,0,0,0,.14.64L171,174.2a.82.82,0,0,0,1.09.21l5.7-3.6a.81.81,0,0,0,.26-1.12l0,0Zm-4.63.93a.55.55,0,1,1-.54-1,.55.55,0,0,1,.55.95Z" transform="translate(0.5 -30.95)"/><path class="cls-9" d="M168.76,168.78a1.32,1.32,0,0,1,.23-1.84l.09-.06a1.24,1.24,0,0,1,1.69.52,1.17,1.17,0,0,1,0,.11,1.31,1.31,0,0,1-.18,1.83l-.13.09a1.25,1.25,0,0,1-1.69-.52Zm.55-.32c.31.53.64.61.92.46s.38-.52.05-1.09-.67-.6-.92-.46S169,167.9,169.31,168.46Zm3.05,3.08-.72.41.06-6.56.71-.42Zm1-2.27a1.33,1.33,0,0,1,.23-1.86l.08,0a1.24,1.24,0,0,1,1.69.51l.06.13a1.29,1.29,0,0,1-.18,1.81l-.13.1a1.25,1.25,0,0,1-1.69-.52Zm.55-.32c.3.53.64.61.91.45s.39-.52.06-1.09-.67-.6-.93-.45-.37.53,0,1.09Z" transform="translate(0.5 -30.95)"/><path class="cls-22" d="M167.73,162.26s-3.1-5.94-8.55-2.71" transform="translate(0.5 -30.95)"/><polygon class="cls-9" points="113.37 131.97 143.31 122.7 165.58 127.33 165.58 147.39 124.16 157.09 111.68 153.33 113.37 131.97"/><polygon class="cls-23" points="165.58 147.39 144.07 142.18 111.68 153.33 124.16 157.09 165.58 147.39"/><polygon class="cls-20" points="143.31 122.7 144.07 142.18 165.58 147.39 165.58 127.33 143.31 122.7"/><path class="cls-24" d="M149.37,173.13c.72-.59,1.41-1.21,2.07-1.87.85-.9,10.05-.81,10.46.18s-1.33,5.51-2.86,6-8-.22-9.09-.87S149.37,173.13,149.37,173.13Z" transform="translate(0.5 -30.95)"/><polygon class="cls-24" points="149.87 142.18 143.31 147.46 145.68 150.16 151.94 144.36 149.87 142.18"/><path class="cls-24" d="M106,369.51l5.34.09c5.42-25.49,9.26-57,11.65-80.82.37-3.73.71-7.26,1-10.55.14-1.57.28-3.07.4-4.52.64-7.15,1.08-12.82,1.35-16.33.19-2.56.28-4,.28-4H106.71l.18,4.91.61,16.3.06,1.86.41,10.71.67,18.24C102,331,106,369.51,106,369.51Z" transform="translate(0.5 -30.95)"/><path class="cls-24" d="M62.69,368.15l5.26,1c10.52-26.3,20.4-60,26.82-83.49,1-3.65,1.91-7.06,2.73-10.15a1.83,1.83,0,0,1,.12-.46c1.62-6.14,2.87-11,3.65-14.13.59-2.43.92-3.76.92-3.76l-19-3.29-1.08,8L80.5,273.59l-.31,2.31-1.07,8-2.89,21.47C65.35,329.59,62.69,368.15,62.69,368.15Z" transform="translate(0.5 -30.95)"/><path class="cls-8" d="M80.5,273.59l17,1.9a1.83,1.83,0,0,1,.12-.46c1.62-6.14,2.87-11,3.65-14.13l-19.17,1Z" transform="translate(0.5 -30.95)"/><path class="cls-8" d="M106.89,258.33l.61,16.26.06,1.86L124,278.27c.14-1.57.28-3.07.4-4.52.64-7.15,1.08-12.82,1.35-16.33Z" transform="translate(0.5 -30.95)"/><path class="cls-9" d="M121.73,387.23a10.16,10.16,0,0,0-3.34-1.82h0S114.76,381.8,113,371l-4.76-1.24a4,4,0,0,0-4.33,1.69,2.37,2.37,0,0,0-.3.62,26.1,26.1,0,0,0-.51,3.53c-.48,3.67-.07,11.92-.07,11.92h.86l.34-7.48c.13-2.54,2.07.44,2.63,3.17s1.74,5.65,7.31,5.78C120.68,389.07,123.37,388.82,121.73,387.23Z" transform="translate(0.5 -30.95)"/><path class="cls-9" d="M103.75,371.49c-.31-2.55-.41-7-.41-7l10.57,1.17s-1.27,5-.22,8.79C108.37,373.1,103.75,371.49,103.75,371.49Z" transform="translate(0.5 -30.95)"/><path class="cls-9" d="M78.71,387.23a10.16,10.16,0,0,0-3.34-1.82h0S71.74,381.8,70,371l-4.76-1.24a4.06,4.06,0,0,0-4.33,1.69,2.37,2.37,0,0,0-.3.62,26.1,26.1,0,0,0-.51,3.53c-.48,3.67-.07,11.92-.07,11.92h.86l.35-7.48c.12-2.54,2.07.44,2.62,3.17s1.74,5.65,7.31,5.78C77.66,389.07,80.36,388.82,78.71,387.23Z" transform="translate(0.5 -30.95)"/><path class="cls-9" d="M60.74,371.49c-.32-2.55-.41-7-.41-7l10.57,1.17s-1.28,5-.23,8.79C65.35,373.1,60.74,371.49,60.74,371.49Z" transform="translate(0.5 -30.95)"/><path class="cls-24" d="M91.93,144.59l.25.19a12,12,0,0,0,4.09,2c4.32,1,7.27.4,9.19-1.55h0c2.7-2.93,3.37-8.13,3-14.39a23.14,23.14,0,0,0-1.37-7.32v-.11a1.58,1.58,0,0,0-.1-.26,8.54,8.54,0,0,0-6.29-5.22,17.71,17.71,0,0,0-3.7-.42C84.77,117.34,82.57,137.59,91.93,144.59Z" transform="translate(0.5 -30.95)"/><path class="cls-8" d="M92.18,144.73a11.5,11.5,0,0,0,4.09,1.86c4.32,1,7.27.27,9.19-1.72a12.2,12.2,0,0,1-7.75-.63C96,143.4,94,143.81,92.18,144.73Z" transform="translate(0.5 -30.95)"/><path class="cls-24" d="M90.94,155.76c-.75,3.48,3.75,4.89,3.75,4.89,7.37-3.14,8.74-7.06,8.74-7.06-6.15-3.21-4.37-12.27-4.37-12.27l-1.25.61L89,143.65s2.43,4.67,2.75,5.74h0C93.5,155,90.94,155.76,90.94,155.76Z" transform="translate(0.5 -30.95)"/><path class="cls-9" d="M107.1,123.39s.67,8.57-7.44,12.25c0,0-3.49,8.89-8.62,9-7,.17-13.16-9.78-10.74-19.92C83.5,111.59,103.36,110.53,107.1,123.39Z" transform="translate(0.5 -30.95)"/><path class="cls-24" d="M103.77,133.18c0-1.34-1.08-3.58-3.16-3.28s-3.34,5.62,1.94,6.8C103.31,136.87,103.77,136,103.77,133.18Z" transform="translate(0.5 -30.95)"/><path class="cls-9" d="M92.18,114.29s8.17-2.07,12.69,1.22c5.28,3.84,7.28,7.81,1,14,0,0-13.72-4.45-18.28-3.51a49.59,49.59,0,0,0-7.82,2.27C78.84,119.18,87.62,112.44,92.18,114.29Z" transform="translate(0.5 -30.95)"/><path class="cls-9" d="M103.43,114.68c-.51-1.21-1.56-3.87-4.64-2.4s-5.37-1.69-7.29-1.19-4,2.74-5.31,2.56a4.63,4.63,0,0,0-5.32,3.82,3.6,3.6,0,0,0-.06.66c-.23,4.28-4,4.43-4.35,6.94s1.32,3.56,0,5.93-3.29,2.34-1.71,5.72,3.43,4.26,1.45,7.05-.53,5.43,2.37,6.62c0,0,3.83-3.83,5.67-2.24s5.84,3.67,7.6,1.24,4.87-1.51,5.56-.19,4-1,6.08-1,3.18,2.35,3.18,2.35,2.82-.77,2-5.11-2.79-16.5-1.45-19.92S103.43,114.68,103.43,114.68Z" transform="translate(0.5 -30.95)"/><path class="cls-9" d="M115.4,154.92s-9.75-3.28-24.46.72-13.21,9.12-13.21,9.12,11.1,19.9,12.57,42.45l31.55-3.07S125.34,168.45,115.4,154.92Z" transform="translate(0.5 -30.95)"/><path class="cls-10" d="M123.08,206.19h0l-.64-6.22L89,203.33l.69,4.87h0c-12.58,22.27-9.53,47.68-9.53,47.68l-1.53,12.49s3.16,2,24.32,3.34c18.62,1.21,23.35-.72,23.35-.72C132.93,232.33,127.28,213.93,123.08,206.19Z" transform="translate(0.5 -30.95)"/><path class="cls-18" d="M123.08,206.19h0l-.64-6.22L89,203.33l.69,4.87h0c-12.58,22.27-9.53,47.68-9.53,47.68l-1.53,12.49s3.16,2,24.32,3.34c18.62,1.21,23.35-.72,23.35-.72C132.93,232.33,127.28,213.93,123.08,206.19Z" transform="translate(0.5 -30.95)"/><polygon class="cls-9" points="109.13 175.67 124.16 174.48 123.96 169.92 108.79 171.51 109.13 175.67"/><polygon class="cls-9" points="94.08 176.86 108.04 175.75 107.71 171.63 93.77 173.09 94.08 176.86"/><polygon class="cls-9" points="92.69 173.2 89.14 173.57 89.6 177.21 92.99 176.94 92.69 173.2"/><path class="cls-10" d="M120.57,183.5a66,66,0,0,1-1.12,9.5s-22.1,6.39-37.83,3.34c0,0-3.2-25.25-5.92-33.42,0,0,5.63-6.27,10.44-6.71v-4.34S97.73,148,104,151l-.59,2.6,14.46.06a124.7,124.7,0,0,1,2.48,17.1A102.35,102.35,0,0,1,120.57,183.5Z" transform="translate(0.5 -30.95)"/><path class="cls-8" d="M120.57,183.5c-4.47-2.18-4.26-14.14-4.26-14.14l4.06,1.39A102.35,102.35,0,0,1,120.57,183.5Z" transform="translate(0.5 -30.95)"/><path class="cls-10" d="M117.89,153.65c6.26,4.52,12.3,23.28,15.5,26.65s13-5.36,13-5.36l2.89,3.68s-12.42,15-19.4,10.41c-5.1-3.39-13.56-19.67-13.56-19.67Z" transform="translate(0.5 -30.95)"/><path class="cls-8" d="M86.14,156.21a58.52,58.52,0,0,1,14.27-2.32S89,151.32,86.14,156.21Z" transform="translate(0.5 -30.95)"/></g><g id="freepik--Trolley--inject-2"><path class="cls-10" d="M192.79,222.25a2.32,2.32,0,0,1-1.27-.39l-23.8-15.73a2.59,2.59,0,0,0-1.5-.45H122.1l15.66,12.45a2.31,2.31,0,1,1-2.78,3.69l-.1-.08-20.83-16.56a2.31,2.31,0,0,1,1.44-4.12h50.73a7.3,7.3,0,0,1,4.05,1.22L194.06,218a2.31,2.31,0,0,1-1.27,4.24Z" transform="translate(0.5 -30.95)"/><g class="cls-25"><path class="cls-17" d="M192.79,222.25a2.32,2.32,0,0,1-1.27-.39l-23.8-15.73a2.59,2.59,0,0,0-1.5-.45H122.1l15.66,12.45a2.31,2.31,0,1,1-2.78,3.69l-.1-.08-20.83-16.56a2.31,2.31,0,0,1,1.44-4.12h50.73a7.3,7.3,0,0,1,4.05,1.22L194.06,218a2.31,2.31,0,0,1-1.27,4.24Z" transform="translate(0.5 -30.95)"/></g><path class="cls-10" d="M270.82,216.85a1.08,1.08,0,0,0-.74-.54l-6.21-1.23a1.12,1.12,0,0,0-1.28.78l-1.83,6.31a1.09,1.09,0,0,0,.12.88l6.27,10.35a1.11,1.11,0,0,0,1.46.41l8.16-4.22a1.13,1.13,0,0,0,.48-1.51l0,0Zm-6.38.72a.77.77,0,0,1-1-.36.75.75,0,1,1,1,.36Z" transform="translate(0.5 -30.95)"/><path class="cls-19" d="M270.82,216.85a1.08,1.08,0,0,0-.74-.54l-6.21-1.23a1.12,1.12,0,0,0-1.28.78l-1.83,6.31a1.09,1.09,0,0,0,.12.88l6.27,10.35a1.11,1.11,0,0,0,1.46.41l8.16-4.22a1.13,1.13,0,0,0,.48-1.51l0,0Zm-6.38.72a.77.77,0,0,1-1-.36.75.75,0,1,1,1,.36Z" transform="translate(0.5 -30.95)"/><path class="cls-9" d="M264.79,225.78a1.81,1.81,0,0,1,.54-2.49l.11-.06a1.7,1.7,0,0,1,2.23.9l.06.17a1.77,1.77,0,0,1-.45,2.45l-.19.11a1.7,1.7,0,0,1-2.23-.89C264.83,225.9,264.81,225.84,264.79,225.78Zm.78-.37c.36.76.8.91,1.19.72s.59-.66.2-1.47-.84-.89-1.2-.72-.57.7-.19,1.47Zm3.78,4.53-1,.48.84-8.91,1-.48Zm1.62-3a1.81,1.81,0,0,1,.55-2.5l.1-.06a1.71,1.71,0,0,1,2.24.91l.06.16a1.77,1.77,0,0,1-.47,2.46l-.17.1a1.71,1.71,0,0,1-2.25-.88L271,227Zm.79-.37c.35.75.79.9,1.18.71s.59-.66.21-1.47-.85-.89-1.21-.72-.56.71-.18,1.55Z" transform="translate(0.5 -30.95)"/><path class="cls-22" d="M264.12,217.08s-4.22-8.1-11.65-3.69" transform="translate(0.5 -30.95)"/><polygon class="cls-9" points="135.69 177.82 152.08 144.55 176.36 142.56 191.26 159.42 171.43 197.25 149.05 199.71 135.69 177.82"/><polygon class="cls-23" points="149.05 199.71 167.99 161.77 191.26 159.42 171.43 197.25 149.05 199.71"/><polygon class="cls-20" points="152.08 144.55 167.99 161.77 191.26 159.42 176.36 142.56 152.08 144.55"/><path class="cls-10" d="M171.72,177.22a1.11,1.11,0,0,0,.86.34l6.32-.32a1.12,1.12,0,0,0,1-1.06l.24-6.57a1.09,1.09,0,0,0-.33-.82l-8.61-8.51a1.1,1.1,0,0,0-1.51,0l-6.89,6.08a1.11,1.11,0,0,0-.09,1.57l0,0Zm6-2.25a.75.75,0,1,1,.95,1.17h0a.75.75,0,0,1-.95-1.17Z" transform="translate(0.5 -30.95)"/><path class="cls-19" d="M171.72,177.22a1.11,1.11,0,0,0,.86.34l6.32-.32a1.12,1.12,0,0,0,1-1.06l.24-6.57a1.09,1.09,0,0,0-.33-.82l-8.61-8.51a1.1,1.1,0,0,0-1.51,0l-6.89,6.08a1.11,1.11,0,0,0-.09,1.57l0,0Zm6-2.25a.75.75,0,1,1,.95,1.17h0a.75.75,0,0,1-.95-1.17Z" transform="translate(0.5 -30.95)"/><path class="cls-9" d="M175.4,167.09a1.79,1.79,0,0,1,.1,2.53l-.1.1a1.7,1.7,0,0,1-2.38-.34.71.71,0,0,1-.1-.14,1.77,1.77,0,0,1-.14-2.5.93.93,0,0,1,.14-.14,1.71,1.71,0,0,1,2.39.36Zm-.67.54c-.53-.64-1-.68-1.33-.4s-.4.78.17,1.47,1,.67,1.34.41.38-.79-.18-1.47ZM170,164.16l.87-.71,1.36,8.84-.87.72Zm-.85,3.27a1.81,1.81,0,0,1,.08,2.56l-.08.08a1.71,1.71,0,0,1-2.39-.34l-.1-.14a1.77,1.77,0,0,1-.14-2.5l.14-.14a1.69,1.69,0,0,1,2.38.32.91.91,0,0,1,.11.16Zm-.67.55c-.52-.64-1-.68-1.32-.4s-.41.78.16,1.47,1,.66,1.34.41.39-.82-.18-1.48Z" transform="translate(0.5 -30.95)"/><path class="cls-22" d="M178.22,175.64s5.45,7.33,12.08,1.79" transform="translate(0.5 -30.95)"/><polygon class="cls-9" points="186.45 146.67 212.09 132.56 230.21 141.07 229.4 158.45 200.95 166.61 184.4 161.11 186.45 146.67"/><polygon class="cls-23" points="184.4 161.11 211.44 148.61 229.4 158.45 200.95 166.61 184.4 161.11"/><polygon class="cls-20" points="212.09 132.56 211.44 148.61 229.4 158.45 230.21 141.07 212.09 132.56"/><rect class="cls-9" x="152.08" y="212.04" width="70.1" height="36.46"/><rect class="cls-23" x="191.25" y="212.04" width="30.93" height="36.46"/><rect class="cls-9" x="168.89" y="187.44" width="58.07" height="25.35"/><rect class="cls-8" x="168.89" y="187.44" width="58.07" height="25.35"/><rect class="cls-23" x="201.33" y="187.44" width="25.62" height="25.35"/><rect class="cls-9" x="181.2" y="163.24" width="48.74" height="25.35"/><rect class="cls-23" x="208.43" y="163.24" width="21.51" height="25.35"/><polygon class="cls-9" points="197.92 215.27 214.31 182 238.59 180 253.48 196.87 233.65 234.7 211.27 237.16 197.92 215.27"/><polygon class="cls-23" points="211.27 237.16 230.22 199.22 253.48 196.87 233.65 234.7 211.27 237.16"/><polygon class="cls-20" points="214.31 182 230.22 199.22 253.48 196.87 238.59 180 214.31 182"/><path class="cls-10" d="M212.5,198.64a1.06,1.06,0,0,0,.52-.76l1.08-6.23a1.1,1.1,0,0,0-.81-1.26L207,188.71a1.09,1.09,0,0,0-.88.14l-10.2,6.52a1.1,1.1,0,0,0-.37,1.46l4.41,8.06a1.11,1.11,0,0,0,1.49.45l0,0Zm-.87-6.36a.77.77,0,0,1,.34-1,.75.75,0,0,1,1,.33.76.76,0,0,1-.33,1,.77.77,0,0,1-1-.34Z" transform="translate(0.5 -30.95)"/><path class="cls-19" d="M212.5,198.64a1.06,1.06,0,0,0,.52-.76l1.08-6.23a1.1,1.1,0,0,0-.81-1.26L207,188.71a1.09,1.09,0,0,0-.88.14l-10.2,6.52a1.1,1.1,0,0,0-.37,1.46l4.41,8.06a1.11,1.11,0,0,0,1.49.45l0,0Zm-.87-6.36a.77.77,0,0,1,.34-1,.75.75,0,0,1,1,.33.76.76,0,0,1-.33,1,.77.77,0,0,1-1-.34Z" transform="translate(0.5 -30.95)"/><path class="cls-9" d="M203.5,192.81a1.79,1.79,0,0,1,2.49.47l.07.12a1.69,1.69,0,0,1-.84,2.25l-.16.07a1.77,1.77,0,0,1-2.47-.41,1,1,0,0,1-.11-.17,1.72,1.72,0,0,1,.85-2.27Zm.38.78c-.74.37-.88.81-.69,1.2s.68.57,1.48.17.87-.86.69-1.22-.72-.55-1.52-.1Zm-4.43,3.88-.51-1,8.93.62.5,1Zm3,1.55a1.81,1.81,0,0,1,2.51.49l.06.1a1.71,1.71,0,0,1-.85,2.26l-.15.06a1.77,1.77,0,0,1-2.47-.41,1,1,0,0,1-.11-.17,1.7,1.7,0,0,1,.83-2.27l.14-.06Zm.39.78c-.74.37-.88.82-.69,1.2s.67.57,1.48.17.87-.86.69-1.22-.73-.55-1.52-.15Z" transform="translate(0.5 -30.95)"/><path class="cls-22" d="M224,195.54s-4.21-8.1-11.64-3.69" transform="translate(0.5 -30.95)"/><polygon class="cls-9" points="229.94 186.06 220.29 154.21 235.93 142.56 253.49 149.03 261.14 182.44 248.99 191.14 229.94 186.06"/><polygon class="cls-23" points="229.94 186.06 242.99 175.91 261.14 182.44 248.99 191.14 229.94 186.06"/><polygon class="cls-20" points="235.93 142.56 242.99 175.91 261.14 182.44 253.49 149.03 235.93 142.56"/><circle class="cls-9" cx="260.97" cy="302.45" r="6.62"/><circle class="cls-9" cx="181.52" cy="302.45" r="6.62"/><path class="cls-10" d="M254.69,329.8H179.38a2.31,2.31,0,1,1,0-4.62h75.31a1.42,1.42,0,0,0,1.41-1.4v-6A1.41,1.41,0,0,0,255,316.4l-62.27-13.46a12.24,12.24,0,0,1-9.6-11.91v-11.7a2.31,2.31,0,0,1,4.62,0V291a7.59,7.59,0,0,0,5.95,7.39L256,311.9a6.05,6.05,0,0,1,4.75,5.89v6a6,6,0,0,1-6,6Z" transform="translate(0.5 -30.95)"/><g class="cls-25"><path class="cls-17" d="M254.69,329.8H179.38a2.31,2.31,0,1,1,0-4.62h75.31a1.42,1.42,0,0,0,1.41-1.4v-6A1.41,1.41,0,0,0,255,316.4l-62.27-13.46a12.24,12.24,0,0,1-9.6-11.91v-11.7a2.31,2.31,0,0,1,4.62,0V291a7.59,7.59,0,0,0,5.95,7.39L256,311.9a6.05,6.05,0,0,1,4.75,5.89v6a6,6,0,0,1-6,6Z" transform="translate(0.5 -30.95)"/></g><path class="cls-10" d="M254.63,250.19V250l2.69-14.9h0l2.76-15.3a2.32,2.32,0,0,0-1.86-2.69,2.83,2.83,0,0,0-.41,0H228.5a2.31,2.31,0,1,0,0,4.62h8.41l-1.48,10.64H172.15a2.31,2.31,0,0,0,0,4.62h62.63l-1.45,10.39H176a2.31,2.31,0,0,0,0,4.62h56.69l-1.5,10.73h-51.5a2.31,2.31,0,0,0,0,4.62H230.5l-1.35,9.7h-6a2.31,2.31,0,1,0,0,4.62H247a2.32,2.32,0,0,0,2.28-1.9l2.57-14.25h0Zm-4.13-2.84h-3.22L249.1,237h3.28Zm-.84,4.62-1.94,10.73H244.5L246.38,252Zm3.55-19.63h-3.3l1.87-10.64h3.36ZM241.62,221.7h5.47l-1.87,10.64h-5.09ZM239.49,237h4.92l-1.91,10.39H238Zm-2.1,15h4.39l-1.89,10.73h-4Zm-2.14,15.35h3.83l-1.7,9.7H233.9Zm6.82,9.7,1.7-9.7h3.12l-1.76,9.7Z" transform="translate(0.5 -30.95)"/><g class="cls-25"><path class="cls-17" d="M254.63,250.19V250l2.69-14.9h0l2.76-15.3a2.32,2.32,0,0,0-1.86-2.69,2.83,2.83,0,0,0-.41,0H228.5a2.31,2.31,0,1,0,0,4.62h8.41l-1.48,10.64H172.15a2.31,2.31,0,0,0,0,4.62h62.63l-1.45,10.39H176a2.31,2.31,0,0,0,0,4.62h56.69l-1.5,10.73h-51.5a2.31,2.31,0,0,0,0,4.62H230.5l-1.35,9.7h-6a2.31,2.31,0,1,0,0,4.62H247a2.32,2.32,0,0,0,2.28-1.9l2.57-14.25h0Zm-4.13-2.84h-3.22L249.1,237h3.28Zm-.84,4.62-1.94,10.73H244.5L246.38,252Zm3.55-19.63h-3.3l1.87-10.64h3.36ZM241.62,221.7h5.47l-1.87,10.64h-5.09ZM239.49,237h4.92l-1.91,10.39H238Zm-2.1,15h4.39l-1.89,10.73h-4Zm-2.14,15.35h3.83l-1.7,9.7H233.9Zm6.82,9.7,1.7-9.7h3.12l-1.76,9.7Z" transform="translate(0.5 -30.95)"/></g><path class="cls-10" d="M230.19,217.83a2.28,2.28,0,0,0-1.7-.75h-94a2.31,2.31,0,0,0-2.31,2.31,2.22,2.22,0,0,0,.06.51l3.46,15.22h0l10.18,44.72a2.31,2.31,0,0,0,2.25,1.8h75.08a2.32,2.32,0,0,0,2.3-2.11l5.27-59.89A2.32,2.32,0,0,0,230.19,217.83Zm-7.84,44.87H211.63L212.1,252h11.2ZM162.87,277l-1.26-9.7h11.54l.7,9.7Zm13.47-29.66-.76-10.4H190.8v10.4ZM190.8,252V262.7H177.5L176.72,252Zm4.62-15h12.72l-.46,10.4H195.42Zm0-4.62V221.7h13.4l-.47,10.64Zm-4.62,0H175.25l-.75-10.66h16.3Zm-20.18,0H157.09l-1.37-10.64h14.13ZM171,237l.76,10.4H159L157.69,237Zm-16.57,10.4H143.23L140.86,237H153ZM144.28,252H155l1.39,10.72h-9.64Zm15.35,0H172l.78,10.72H161Zm18.15,15.34h13V277H178.5Zm17.64,0H206.8l-.42,9.7h-11Zm0-4.62V252H207.5L207,262.7Zm16.89-15.34.46-10.4h11.85l-.91,10.4Zm12.72-15H213l.47-10.64H226Zm-74-10.64,1.38,10.64h-12.6l-2.42-10.64Zm-3.29,45.62h9.19l1.25,9.7h-8.24Zm63.23,9.7.43-9.7h10.52l-.86,9.7Z" transform="translate(0.5 -30.95)"/><path class="cls-10" d="M217.74,329.8H142.43a2.31,2.31,0,0,1,0-4.62h75.32a1.4,1.4,0,0,0,1.4-1.4v-6A1.4,1.4,0,0,0,218,316.4l-62.27-13.46a12.25,12.25,0,0,1-9.6-11.91v-11.7a2.31,2.31,0,1,1,4.62,0h0V291a7.6,7.6,0,0,0,6,7.39l62.27,13.47a6.05,6.05,0,0,1,4.75,5.89v6a6,6,0,0,1-6,6Z" transform="translate(0.5 -30.95)"/><circle class="cls-9" cx="219.4" cy="302.45" r="6.62"/><path class="cls-10" d="M219.71,333.4a3,3,0,1,1-3-3A3,3,0,0,1,219.71,333.4Z" transform="translate(0.5 -30.95)"/><circle class="cls-9" cx="139.94" cy="302.45" r="6.62"/><path class="cls-10" d="M140.25,333.4a3,3,0,1,1-3-3A3,3,0,0,1,140.25,333.4Z" transform="translate(0.5 -30.95)"/><path class="cls-10" d="M136.58,224.34a1.06,1.06,0,0,0,.31-.86l-.59-6.31a1.09,1.09,0,0,0-1.1-1h-6.57a1.09,1.09,0,0,0-.81.36l-8.15,9a1.1,1.1,0,0,0,0,1.51l6.36,6.63a1.11,1.11,0,0,0,1.58,0h0Zm-2.49-5.91a.75.75,0,1,1,1.12-1h0a.75.75,0,0,1-.06,1.06A.76.76,0,0,1,134.09,218.43Z" transform="translate(0.5 -30.95)"/><path class="cls-19" d="M136.58,224.34a1.06,1.06,0,0,0,.31-.86l-.59-6.31a1.09,1.09,0,0,0-1.1-1h-6.57a1.09,1.09,0,0,0-.81.36l-8.15,9a1.1,1.1,0,0,0,0,1.51l6.36,6.63a1.11,1.11,0,0,0,1.58,0h0Zm-2.49-5.91a.75.75,0,1,1,1.12-1h0a.75.75,0,0,1-.06,1.06A.76.76,0,0,1,134.09,218.43Z" transform="translate(0.5 -30.95)"/><path class="cls-9" d="M126.3,221.09a1.8,1.8,0,0,1,2.55-.18l.09.08a1.71,1.71,0,0,1-.25,2.4l-.13.1a1.78,1.78,0,0,1-2.49.25l-.15-.14a1.71,1.71,0,0,1,.24-2.41A.71.71,0,0,1,126.3,221.09Zm.58.65c-.62.55-.64,1-.35,1.34s.8.37,1.47-.22.61-1.06.35-1.36S127.5,221.15,126.88,221.74Zm-3.27,4.9-.75-.84,8.78-1.72.75.84Zm3.3.72a1.81,1.81,0,0,1,2.55-.19l.09.08a1.72,1.72,0,0,1-.26,2.42l-.12.09a1.78,1.78,0,0,1-2.49.25l-.15-.14a1.71,1.71,0,0,1,.24-2.41A.71.71,0,0,1,126.91,227.36Zm.58.64c-.62.56-.64,1-.35,1.35s.8.37,1.47-.23.61-1.06.35-1.35-.81-.36-1.46.23Z" transform="translate(0.5 -30.95)"/><path class="cls-22" d="M146.83,218.38s-6.18-6.73-12.2-.53" transform="translate(0.5 -30.95)"/></g></svg>