<svg id="Layer_1" data-name="Layer 1" xmlns="http://www.w3.org/2000/svg" xmlns:xlink="http://www.w3.org/1999/xlink" viewBox="0 0 468.65 458.13"><defs><style>.cls-1{fill:url(#linear-gradient);}.cls-2{fill:#f1e913;}.cls-16,.cls-19,.cls-20,.cls-3,.cls-4{fill:#010101;}.cls-3{opacity:0.15;}.cls-19,.cls-20,.cls-3,.cls-4,.cls-8{isolation:isolate;}.cls-18,.cls-4{opacity:0.1;}.cls-5{fill:#ebebeb;}.cls-6,.cls-8{fill:#384850;}.cls-7{fill:#465b65;}.cls-8{opacity:0.5;}.cls-9{fill:#273339;}.cls-10{fill:#e0e1e0;}.cls-11{fill:#fafbfc;}.cls-12{fill:#f1f0f0;}.cls-13{fill:#e6e6e5;}.cls-14{fill:#f5f6f6;}.cls-15,.cls-19{opacity:0.2;}.cls-17{fill:#fff;}.cls-20{opacity:0.4;}</style><linearGradient id="linear-gradient" x1="17.03" y1="246.47" x2="485.68" y2="246.47" gradientUnits="userSpaceOnUse"><stop offset="0" stop-color="#f0e90d" stop-opacity="0.1"/><stop offset="0.47" stop-color="#f0e90d" stop-opacity="0.7"/><stop offset="0.88" stop-color="#f0e90d"/></linearGradient></defs><path class="cls-1" d="M64,406c92.82,108.07,301.85,86.44,384-39,56.37-86.08,52.23-219.88-31-296C319.07-18.56,154.25,10.7,73,110,4.54,193.66-4.21,326.58,64,406Z" transform="translate(-17.03 -17.4)"/><g id="freepik--house-4--inject-75"><g id="freepik--Yard--inject-75"><polygon class="cls-2" points="258.22 362.65 258.22 358.79 365.04 300.88 432.69 337.55 432.69 341.41 325.88 399.32 258.22 362.65"/><polygon class="cls-2" points="258.22 358.79 325.88 395.46 432.69 337.55 365.04 300.88 258.22 358.79"/><polygon class="cls-3" points="258.22 358.79 325.88 395.46 325.88 399.32 258.22 362.65 258.22 358.79"/><polygon class="cls-4" points="325.88 395.46 432.69 337.55 432.69 341.41 325.88 399.32 325.88 395.46"/></g><g id="freepik--House--inject-75"><polygon class="cls-5" points="345.45 344.31 357.91 351.07 357.91 305.3 315.18 282.14 315.19 327.91 345.45 344.31"/><polygon class="cls-6" points="354.36 304.87 400.64 315.4 400.64 313.47 354.36 302.94 354.36 304.87"/><polygon class="cls-7" points="311.63 279.76 354.36 302.94 400.64 313.47 357.92 290.3 311.63 279.76"/><polygon class="cls-8" points="311.63 279.76 354.36 302.94 400.64 313.47 357.92 290.3 311.63 279.76"/><polygon class="cls-9" points="311.63 279.76 354.36 302.94 354.36 304.87 311.63 281.69 311.63 279.76"/><polygon class="cls-5" points="357.91 351.07 397.09 329.83 397.09 314.59 357.91 305.68 357.91 351.07"/><polygon class="cls-10" points="357.91 307.94 397.09 316.85 397.09 314.59 357.91 305.68 357.91 307.94"/><polygon class="cls-7" points="365.03 347.21 365.03 329.83 389.97 316.32 389.97 333.69 365.03 347.21"/><polygon class="cls-8" points="365.03 347.21 365.03 329.83 389.97 316.32 389.97 333.69 365.03 347.21"/><polygon class="cls-9" points="389.97 316.32 389.63 316.5 389.63 333.51 389.97 333.69 389.97 316.32"/><polygon class="cls-6" points="389.62 333.52 365.03 346.85 365.03 347.21 389.97 333.69 389.62 333.52"/><polygon class="cls-5" points="325.88 383.89 325.88 314.39 279.58 289.29 279.58 358.79 325.88 383.89"/><polygon class="cls-10" points="279.58 289.29 279.58 298.95 325.88 324.05 325.88 314.39 279.58 289.29"/><polygon class="cls-7" points="290.27 308.53 283.14 304.68 283.14 354.87 290.27 358.73 290.27 308.53"/><polygon class="cls-11" points="283.71 354.56 283.71 304.98 290.27 308.53 290.27 358.11 283.71 354.56"/><polygon class="cls-10" points="283.71 304.98 290.27 308.53 290.27 310.36 283.71 306.83 283.71 304.98"/><polygon class="cls-6" points="283.14 354.87 283.71 354.56 290.27 358.11 290.27 358.73 283.14 354.87"/><polygon class="cls-7" points="315.19 324.05 300.95 316.32 300.95 331.77 315.19 339.49 315.19 324.05"/><polygon class="cls-11" points="301.52 331.46 301.52 316.63 315.19 324.05 315.19 338.87 301.52 331.46"/><polygon class="cls-10" points="301.52 316.63 301.52 318.99 315.19 326.41 315.19 324.05 301.52 316.63"/><polygon class="cls-6" points="300.95 331.77 301.52 331.46 315.19 338.87 315.19 339.49 300.95 331.77"/><polygon class="cls-7" points="307.5 319.87 308.06 320.18 308.06 335.63 307.5 335.32 307.5 319.87"/><polygon class="cls-6" points="308.06 320.18 308.06 335.63 308.64 335.31 308.64 320.49 308.06 320.18"/><polygon class="cls-7" points="315.19 351.07 300.95 343.35 300.95 358.79 315.19 366.51 315.19 351.07"/><polygon class="cls-11" points="301.52 358.49 301.52 343.65 315.19 351.07 315.19 365.9 301.52 358.49"/><polygon class="cls-10" points="301.52 343.65 301.52 346.02 315.19 353.43 315.19 351.07 301.52 343.65"/><polygon class="cls-6" points="300.95 358.79 301.52 358.49 315.19 365.9 315.19 366.51 300.95 358.79"/><polygon class="cls-7" points="307.5 346.9 308.06 347.21 308.06 362.65 307.5 362.35 307.5 346.9"/><polygon class="cls-6" points="308.06 347.21 308.06 362.65 308.64 362.35 308.64 347.51 308.06 347.21"/><polygon class="cls-11" points="325.88 314.39 361.48 279.64 361.48 364.59 325.88 383.89 325.88 314.39"/><polygon class="cls-10" points="361.48 337.55 325.88 356.86 325.88 347.21 361.48 327.75 361.48 337.55"/><polygon class="cls-12" points="325.88 319.36 361.48 284.74 361.48 279.64 325.88 314.39 325.88 319.36"/><polygon class="cls-7" points="336.55 318.16 350.8 310.44 350.8 331.77 336.55 339.49 336.55 318.16"/><polygon class="cls-13" points="350.23 331.46 350.23 310.75 336.55 318.16 336.55 338.87 350.23 331.46"/><polygon class="cls-10" points="350.23 310.75 350.23 313.11 336.55 320.52 336.55 318.16 350.23 310.75"/><polygon class="cls-6" points="350.8 331.77 350.23 331.46 336.55 338.87 336.55 339.49 350.8 331.77"/><polygon class="cls-7" points="344.25 313.99 343.68 314.3 343.68 335.63 344.25 335.32 344.25 313.99"/><polygon class="cls-6" points="343.68 314.3 343.68 335.63 343.1 335.31 343.1 314.61 343.68 314.3"/><polygon class="cls-6" points="338.33 377.14 338.33 355.85 349.02 350.06 349.02 371.35 338.33 377.14"/><polygon class="cls-7" points="348.68 371.11 348.68 350.24 338.33 355.85 338.33 376.71 348.68 371.11"/><polygon class="cls-9" points="349.02 350.06 348.68 350.24 348.68 371.11 349.02 371.35 349.02 350.06"/><polygon class="cls-10" points="325.88 345.27 361.48 325.97 368.6 329.83 332.99 349.14 325.88 345.27"/><polygon class="cls-5" points="325.88 345.27 325.88 347.21 332.99 351.07 332.99 349.14 325.88 345.27"/><polygon class="cls-14" points="332.99 349.14 368.6 329.83 368.6 331.77 332.99 351.07 332.99 349.14"/><path class="cls-6" d="M350.28,354v11.47a.1.1,0,0,1-.07.1.4.4,0,0,1-.37,0,.1.1,0,0,1-.07-.1V354Z" transform="translate(-17.03 -17.4)"/><path class="cls-6" d="M353.36,352.32v11.47a.1.1,0,0,1-.07.1.4.4,0,0,1-.37,0,.09.09,0,0,1-.07-.1V352.32Z" transform="translate(-17.03 -17.4)"/><path class="cls-6" d="M356.44,350.66v11.47a.11.11,0,0,1-.08.1.45.45,0,0,1-.36,0,.12.12,0,0,1-.07-.1V350.66Z" transform="translate(-17.03 -17.4)"/><path class="cls-6" d="M359.52,349v11.48a.16.16,0,0,1-.08.1.4.4,0,0,1-.37,0,.14.14,0,0,1-.07-.1V349Z" transform="translate(-17.03 -17.4)"/><path class="cls-6" d="M362.6,347.31v11.48a.16.16,0,0,1-.08.1.45.45,0,0,1-.36,0,.11.11,0,0,1-.08-.1V347.31Z" transform="translate(-17.03 -17.4)"/><path class="cls-6" d="M365.67,345.64v11.48a.11.11,0,0,1-.08.1.45.45,0,0,1-.36,0,.12.12,0,0,1-.07-.1V345.64Z" transform="translate(-17.03 -17.4)"/><path class="cls-6" d="M368.75,344v11.47a.11.11,0,0,1-.08.1.45.45,0,0,1-.36,0c-.05,0-.08-.06-.08-.1V344Z" transform="translate(-17.03 -17.4)"/><path class="cls-6" d="M371.83,342.31v11.47a.13.13,0,0,1-.07.1.4.4,0,0,1-.37,0,.11.11,0,0,1-.08-.1V342.31Z" transform="translate(-17.03 -17.4)"/><path class="cls-6" d="M374.9,340.64v11.47a.12.12,0,0,1-.07.1.4.4,0,0,1-.37,0,.1.1,0,0,1-.07-.1V340.64Z" transform="translate(-17.03 -17.4)"/><path class="cls-6" d="M378,339v11.48a.12.12,0,0,1-.07.1.48.48,0,0,1-.37,0,.14.14,0,0,1-.08-.1V339Z" transform="translate(-17.03 -17.4)"/><path class="cls-6" d="M381.06,337.3v11.48a.12.12,0,0,1-.07.1.47.47,0,0,1-.37,0,.1.1,0,0,1-.07-.1V337.3Z" transform="translate(-17.03 -17.4)"/><path class="cls-6" d="M384.14,335.63v11.48a.11.11,0,0,1-.08.1.47.47,0,0,1-.37,0,.14.14,0,0,1-.07-.1V335.63Z" transform="translate(-17.03 -17.4)"/><path class="cls-7" d="M350,354.4a.4.4,0,0,1-.22-.06l-5.73-3a.4.4,0,0,1-.13-.57.45.45,0,0,1,.56-.15l5.52,2.93,34.72-18.82-8.11-4.33a.4.4,0,0,1-.16-.57.46.46,0,0,1,.6-.15l8.76,4.68a.42.42,0,0,1,.22.37.39.39,0,0,1-.22.35l-35.6,19.3A.42.42,0,0,1,350,354.4Z" transform="translate(-17.03 -17.4)"/><polygon class="cls-6" points="322.96 317.1 362.75 278.4 362.75 276.47 322.96 315.16 322.96 317.1"/><polygon class="cls-9" points="322.96 317.1 275.39 291.31 275.39 289.37 322.96 315.16 322.96 317.1"/><polygon class="cls-7" points="315.19 250.68 362.75 276.47 322.96 315.16 275.39 289.37 315.19 250.68"/><polygon class="cls-12" points="389.97 333.69 414.89 347.21 389.97 360.73 365.03 347.21 389.97 333.69"/><polygon class="cls-12" points="349.02 371.35 338.33 377.14 349.01 382.93 359.69 377.13 349.02 371.35"/></g><g id="freepik--Plants--inject-75"><g id="freepik--plants--inject-75-2" data-name="freepik--plants--inject-75"><path class="cls-2" d="M377.65,384l1.51-.83a22.83,22.83,0,0,0,.18-7c-.77-4.55-4.06-6.12-5.26-5.66s-1.48,1.79.68,4.42A14.54,14.54,0,0,1,377.65,384Z" transform="translate(-17.03 -17.4)"/><g class="cls-15"><path class="cls-16" d="M377.65,384l1.51-.83a22.83,22.83,0,0,0,.18-7c-.77-4.55-4.06-6.12-5.26-5.66s-1.48,1.79.68,4.42A14.54,14.54,0,0,1,377.65,384Z" transform="translate(-17.03 -17.4)"/></g><path class="cls-17" d="M378.2,382.17h0a.11.11,0,0,1-.1-.11h0c.63-4.25-1.2-8.92-3.24-10.81a.1.1,0,0,1,0-.14h0a.15.15,0,0,1,.16,0c2.08,1.92,3.94,6.66,3.3,11a.1.1,0,0,1-.11.08Z" transform="translate(-17.03 -17.4)"/><path class="cls-2" d="M373.43,386.26c-.24.13-.73-.16-.92-.27a2.16,2.16,0,0,1-.76-.83,1.85,1.85,0,0,1-.19-1.2,4.74,4.74,0,0,1,.16-.65c.06-.2.13-.41.19-.62a1.52,1.52,0,0,0,.1-.63,1.66,1.66,0,0,0-.82-1,1.6,1.6,0,0,1-.84-1.18,1.88,1.88,0,0,1,.49-1.08c.26-.31.57-.58.81-.91a1.2,1.2,0,0,0,.27-.82,1.31,1.31,0,0,0-.18-.5,6.67,6.67,0,0,1-.58-1,.93.93,0,0,1,.18-1.06,1.3,1.3,0,0,1,.94-.22,2.27,2.27,0,0,1,.88.28c.87.46,1.37,1.43,2.29,1.77a10,10,0,0,0,1.11.26,1.41,1.41,0,0,1,.92.59c.34.63-.29,1.42-.05,2.09s.82.83,1.17,1.36a1.19,1.19,0,0,1,.16.78,3.54,3.54,0,0,1-.35,1.32,10,10,0,0,1-.76,1.19Z" transform="translate(-17.03 -17.4)"/><g class="cls-18"><path class="cls-16" d="M373.43,386.26c-.24.13-.73-.16-.92-.27a2.16,2.16,0,0,1-.76-.83,1.85,1.85,0,0,1-.19-1.2,4.74,4.74,0,0,1,.16-.65c.06-.2.13-.41.19-.62a1.52,1.52,0,0,0,.1-.63,1.66,1.66,0,0,0-.82-1,1.6,1.6,0,0,1-.84-1.18,1.88,1.88,0,0,1,.49-1.08c.26-.31.57-.58.81-.91a1.2,1.2,0,0,0,.27-.82,1.31,1.31,0,0,0-.18-.5,6.67,6.67,0,0,1-.58-1,.93.93,0,0,1,.18-1.06,1.3,1.3,0,0,1,.94-.22,2.27,2.27,0,0,1,.88.28c.87.46,1.37,1.43,2.29,1.77a10,10,0,0,0,1.11.26,1.41,1.41,0,0,1,.92.59c.34.63-.29,1.42-.05,2.09s.82.83,1.17,1.36a1.19,1.19,0,0,1,.16.78,3.54,3.54,0,0,1-.35,1.32,10,10,0,0,1-.76,1.19Z" transform="translate(-17.03 -17.4)"/></g><path class="cls-17" d="M375.89,385h0a.09.09,0,0,1-.1-.1c.17-4-1.84-8.48-3.32-9.78a.1.1,0,0,1,0-.14.11.11,0,0,1,.15,0c1.5,1.31,3.56,5.84,3.39,9.93A.11.11,0,0,1,375.89,385Z" transform="translate(-17.03 -17.4)"/><path class="cls-17" d="M375.25,380.27h0a14.8,14.8,0,0,0-3.11-.47.1.1,0,0,1-.1-.1h0a.09.09,0,0,1,.1-.1h0a15.39,15.39,0,0,1,3.17.49.09.09,0,0,1,.07.12h0A.13.13,0,0,1,375.25,380.27Z" transform="translate(-17.03 -17.4)"/></g><polygon class="cls-7" points="425 331.11 427.7 326.11 428.14 326.31 425.44 331.31 425 331.11"/><polygon class="cls-7" points="422.28 325.96 422.7 325.72 425.34 329.71 424.92 329.95 422.28 325.96"/><path class="cls-7" d="M442.67,342.67v12.05a.22.22,0,0,1-.12.16.73.73,0,0,1-.58,0,.2.2,0,0,1-.12-.16V342.67Z" transform="translate(-17.03 -17.4)"/><path class="cls-2" d="M452.36,338.92a6,6,0,1,1-6-5.6h0a5.77,5.77,0,0,1,5.95,5.59Z" transform="translate(-17.03 -17.4)"/><path class="cls-19" d="M448.32,337.48c.76-2.27,1.59-3.16,1.07-3.44a6.17,6.17,0,0,0-8.12,2.12,5.42,5.42,0,0,0,2.25,7.63,6.24,6.24,0,0,0,7.53-1.31C449.24,343,447.28,340.43,448.32,337.48Z" transform="translate(-17.03 -17.4)"/><path class="cls-2" d="M441.2,340.51a4.2,4.2,0,1,1-4.19-3.94h0a4.06,4.06,0,0,1,4.18,3.93Z" transform="translate(-17.03 -17.4)"/><path class="cls-19" d="M437,336.57a4.39,4.39,0,0,0-2.45.74c-.11,2.41,2.06,4.74,1.45,5.53s-2.1.31-2.63-.36a4.34,4.34,0,0,0,5.72,1.41,3.8,3.8,0,0,0,1.5-5.38,4.24,4.24,0,0,0-3.6-1.94Z" transform="translate(-17.03 -17.4)"/><ellipse class="cls-2" cx="425.22" cy="318.86" rx="7.69" ry="7.22"/><path class="cls-4" d="M449.73,337.91a7.7,7.7,0,0,1-9.24,5.36,7.07,7.07,0,0,1-2-13.29,7.87,7.87,0,0,0-1.76,1.32,7.22,7.22,0,0,0,5.76,8.65,8,8,0,0,0,7.3-2.06Z" transform="translate(-17.03 -17.4)"/><polygon class="cls-7" points="266.54 352.68 269.24 347.68 269.68 347.89 266.98 352.89 266.54 352.68"/><polygon class="cls-7" points="265.02 346.61 265.44 346.36 268.09 350.36 267.68 350.6 265.02 346.61"/><path class="cls-7" d="M284.21,364.23V376.3a.18.18,0,0,1-.13.15.64.64,0,0,1-.57,0,.17.17,0,0,1-.12-.15V364.23Z" transform="translate(-17.03 -17.4)"/><path class="cls-2" d="M293.91,360.48a6,6,0,1,1-6-5.59,5.78,5.78,0,0,1,6,5.59Z" transform="translate(-17.03 -17.4)"/><path class="cls-19" d="M289.82,359.05c.77-2.27,1.58-3.16,1.07-3.44a6.17,6.17,0,0,0-8.13,2.11,5.42,5.42,0,0,0,2.24,7.63,6.23,6.23,0,0,0,7.54-1.31C290.78,364.53,288.79,362,289.82,359.05Z" transform="translate(-17.03 -17.4)"/><path class="cls-2" d="M282.75,362.06a4.2,4.2,0,1,1-4.19-3.93h0A4.06,4.06,0,0,1,282.75,362.06Z" transform="translate(-17.03 -17.4)"/><path class="cls-19" d="M278.56,358.13a4.36,4.36,0,0,0-2.44.74c-.12,2.4,2.06,4.75,1.44,5.53s-2.1.31-2.63-.36a4.35,4.35,0,0,0,5.73,1.43,3.81,3.81,0,0,0,1.52-5.38,4.26,4.26,0,0,0-3.63-2Z" transform="translate(-17.03 -17.4)"/><ellipse class="cls-2" cx="266.77" cy="340.43" rx="7.69" ry="7.22"/><path class="cls-4" d="M291.28,359.47a7.71,7.71,0,0,1-9.23,5.4,7.22,7.22,0,0,1-5.75-8.67,7.32,7.32,0,0,1,3.72-4.66,7.82,7.82,0,0,0-1.79,1.32,6.54,6.54,0,0,0-.2,1.65,7.46,7.46,0,0,0,7.69,7.2,8,8,0,0,0,5.57-2.26Z" transform="translate(-17.03 -17.4)"/></g></g><g id="freepik--house-3--inject-75"><g id="freepik--yard--inject-75-2" data-name="freepik--yard--inject-75"><polygon class="cls-2" points="44.04 334.81 44.04 330.95 182.9 255.63 261.24 298.13 261.24 301.99 122.37 377.33 44.04 334.81"/><polygon class="cls-2" points="44.04 330.95 122.37 373.46 261.24 298.13 182.9 255.63 44.04 330.95"/><polygon class="cls-12" points="211.38 290.41 179.34 307.79 211.42 325.17 243.43 307.67 211.38 290.41"/><polygon class="cls-3" points="44.04 330.95 122.37 373.46 122.37 377.33 44.04 334.81 44.04 330.95"/><polygon class="cls-4" points="122.37 373.46 261.24 298.13 261.24 301.99 122.37 377.33 122.37 373.46"/></g><g id="freepik--house--inject-75-2" data-name="freepik--house--inject-75"><polygon class="cls-7" points="152.78 239.18 202.63 212.15 225.63 253.73 175.78 280.76 152.78 239.18"/><polygon class="cls-8" points="152.78 239.18 202.63 212.15 225.63 253.73 175.78 280.76 152.78 239.18"/><polygon class="cls-12" points="175.78 309.71 218.51 286.55 218.51 259.52 175.78 282.69 175.78 309.71"/><polygon class="cls-7" points="179.34 307.79 179.34 284.62 211.38 267.25 211.38 290.41 179.34 307.79"/><polygon class="cls-8" points="179.34 307.79 179.34 284.62 211.38 267.25 211.38 290.41 179.34 307.79"/><polygon class="cls-9" points="211.38 267.25 211.05 267.43 211.05 290.23 211.38 290.4 211.38 267.25"/><polygon class="cls-6" points="211.04 290.23 179.34 307.43 179.34 307.79 211.38 290.41 211.04 290.23"/><polygon class="cls-12" points="206.2 252.6 206.2 240.09 198.53 235.93 190.89 248.36 190.89 260.92 206.2 252.6"/><polygon class="cls-9" points="198.53 235.93 208 241.06 209.21 240.41 198.53 234.62 198.53 235.93"/><polygon class="cls-10" points="190.89 260.92 183.24 248.45 179.34 242.08 190.89 248.36 190.89 260.92"/><polygon class="cls-20" points="208 241.06 206.2 241.06 206.2 240.09 208 241.06"/><polygon class="cls-2" points="189.06 251.33 198.53 235.93 198.53 234.62 187.88 251.97 189.06 251.33"/><polygon class="cls-6" points="189.06 251.33 198.53 235.93 198.53 234.62 187.88 251.97 189.06 251.33"/><polygon class="cls-2" points="187.88 251.97 198.53 234.62 187.52 228.64 176.87 245.99 187.88 251.97"/><polygon class="cls-9" points="187.88 251.97 198.53 234.62 187.52 228.64 176.87 245.99 187.88 251.97"/><polygon class="cls-7" points="194.72 246.35 202.37 242.2 202.37 250.49 194.72 254.65 194.72 246.35"/><polygon class="cls-10" points="201.59 250.07 201.59 242.63 194.72 246.35 194.72 253.79 201.59 250.07"/><polygon class="cls-6" points="202.37 250.49 201.59 250.07 194.72 253.79 194.72 254.65 202.37 250.49"/><polygon class="cls-6" points="225.63 253.73 175.78 280.76 175.78 282.69 225.63 255.66 225.63 253.73"/><polygon class="cls-12" points="108.12 300.07 86.76 261.45 65.4 276.9 65.4 330.95 108.12 354.12 108.12 300.07"/><polygon class="cls-7" points="79.64 292.35 72.52 288.48 72.52 300.06 79.64 303.93 79.64 292.35"/><polygon class="cls-11" points="73.09 299.75 73.09 288.79 79.64 292.35 79.64 303.31 73.09 299.75"/><polygon class="cls-10" points="73.09 288.79 79.64 292.37 79.64 293.51 73.09 289.96 73.09 288.79"/><polygon class="cls-6" points="72.52 300.06 73.09 299.75 79.64 303.31 79.64 303.93 72.52 300.06"/><polygon class="cls-7" points="79.64 298.44 72.52 294.58 72.52 293.96 79.64 297.83 79.64 298.44"/><polygon class="cls-7" points="101.01 303.93 93.88 300.07 93.88 311.65 101.01 315.51 101.01 303.93"/><polygon class="cls-11" points="94.45 311.33 94.45 300.37 101.01 303.93 101.01 314.89 94.45 311.33"/><polygon class="cls-10" points="94.45 300.37 101.01 303.93 101.01 305.07 94.45 301.54 94.45 300.37"/><polygon class="cls-6" points="93.88 311.65 94.45 311.33 101.01 314.89 101.01 315.51 93.88 311.65"/><polygon class="cls-7" points="101.01 309.86 93.88 306.03 93.88 305.4 101.01 309.24 101.01 309.86"/><polygon class="cls-7" points="79.64 315.51 72.52 311.65 72.52 323.23 79.64 327.09 79.64 315.51"/><polygon class="cls-11" points="73.09 322.92 73.09 311.96 79.64 315.51 79.64 326.47 73.09 322.92"/><polygon class="cls-10" points="73.09 311.96 79.64 315.53 79.64 316.69 73.09 313.13 73.09 311.96"/><polygon class="cls-6" points="72.52 323.23 73.09 322.92 79.64 326.47 79.64 327.09 72.52 323.23"/><polygon class="cls-7" points="79.64 321.62 72.52 317.75 72.52 317.13 79.64 320.99 79.64 321.62"/><polygon class="cls-7" points="101.01 327.09 93.88 323.23 93.88 334.81 101.01 338.67 101.01 327.09"/><polygon class="cls-11" points="94.45 334.51 94.45 323.54 101.01 327.09 101.01 338.06 94.45 334.51"/><polygon class="cls-10" points="94.45 323.54 101.01 327.09 101.01 328.24 94.45 324.71 94.45 323.54"/><polygon class="cls-6" points="93.88 334.81 94.45 334.51 101.01 338.06 101.01 338.67 93.88 334.81"/><polygon class="cls-7" points="101.01 333.03 93.88 329.19 93.88 328.57 101.01 332.4 101.01 333.03"/><polygon class="cls-11" points="175.78 317.44 108.12 354.12 108.12 300.07 175.78 263.38 175.78 317.44"/><polygon class="cls-6" points="137.79 336.08 137.79 316.77 148.47 310.98 148.47 330.29 137.79 336.08"/><polygon class="cls-7" points="148.14 330.05 148.14 311.16 137.79 316.77 137.79 335.65 148.14 330.05"/><polygon class="cls-9" points="148.47 310.98 148.14 311.16 148.14 330.05 148.47 330.29 148.47 310.98"/><polygon class="cls-9" points="152.63 306.28 168.66 297.6 168.66 313.57 152.63 322.27 152.63 306.28"/><polygon class="cls-13" points="167.67 313.04 167.67 298.13 152.63 306.28 152.63 321.2 167.67 313.04"/><polygon class="cls-10" points="167.67 298.13 167.67 301.61 152.63 309.76 152.63 306.28 167.67 298.13"/><polygon class="cls-6" points="168.66 313.57 167.67 313.04 152.63 321.2 152.63 322.27 168.66 313.57"/><polygon class="cls-6" points="168.66 305.59 167.67 305.05 152.63 313.2 152.63 314.27 168.66 305.59"/><polygon class="cls-6" points="160.98 317.74 159.99 318.27 159.99 302.29 160.98 301.75 160.98 317.74"/><polygon class="cls-9" points="115.25 326.55 131.26 317.86 131.26 333.85 115.25 342.53 115.25 326.55"/><polygon class="cls-13" points="130.28 333.31 130.28 318.4 115.25 326.55 115.25 341.46 130.28 333.31"/><polygon class="cls-10" points="130.28 318.4 130.28 321.87 115.25 330.03 115.25 326.55 130.28 318.4"/><polygon class="cls-6" points="131.26 333.85 130.28 333.31 115.25 341.46 115.25 342.53 131.26 333.85"/><polygon class="cls-6" points="131.26 325.86 130.28 325.32 115.25 333.48 115.25 334.54 131.26 325.86"/><polygon class="cls-6" points="123.59 338.01 122.61 338.55 122.61 322.56 123.59 322.03 123.59 338.01"/><polygon class="cls-9" points="134.79 288.94 150.81 280.26 150.81 296.25 134.79 304.93 134.79 288.94"/><polygon class="cls-13" points="149.83 295.71 149.83 280.8 134.79 288.94 134.79 303.86 149.83 295.71"/><polygon class="cls-10" points="149.83 280.8 149.83 282.33 134.79 290.48 134.79 288.94 149.83 280.8"/><polygon class="cls-6" points="150.81 296.25 149.83 295.71 134.79 303.86 134.79 304.93 150.81 296.25"/><polygon class="cls-6" points="150.81 288.25 149.83 287.72 134.79 295.88 134.79 296.94 150.81 288.25"/><polygon class="cls-6" points="143.13 300.41 142.15 300.95 142.15 284.96 143.13 284.43 143.13 300.41"/><polygon class="cls-7" points="118.81 303.05 125.51 299.44 125.51 308.7 118.81 312.31 118.81 303.05"/><polygon class="cls-10" points="124.94 308.4 124.94 299.75 118.81 303.05 118.81 311.69 124.94 308.4"/><polygon class="cls-6" points="125.51 308.7 124.94 308.4 118.81 311.69 118.81 312.31 125.51 308.7"/><polygon class="cls-7" points="118.81 307.67 125.51 304.07 125.51 303.45 118.81 307.06 118.81 307.67"/><polygon class="cls-7" points="158.4 281.55 165.09 277.95 165.09 287.22 158.4 290.82 158.4 281.55"/><polygon class="cls-10" points="164.52 286.9 164.52 278.26 158.4 281.55 158.4 290.2 164.52 286.9"/><polygon class="cls-6" points="165.09 287.22 164.52 286.9 158.4 290.2 158.4 290.82 165.09 287.22"/><polygon class="cls-7" points="158.4 286.19 165.09 282.58 165.09 281.96 158.4 285.56 158.4 286.19"/><polygon class="cls-7" points="83.2 265.7 106.27 307.24 179.34 267.63 156.33 226.05 83.2 265.7"/><polygon class="cls-7" points="83.2 263.38 106.27 304.93 179.34 265.31 156.33 223.73 83.2 263.38"/><polygon class="cls-9" points="83.2 263.38 83.2 265.7 106.27 307.24 106.27 304.93 83.2 263.38"/><polygon class="cls-6" points="106.27 304.93 179.34 265.31 179.34 267.63 106.27 307.24 106.27 304.93"/><polygon class="cls-9" points="61.84 281.15 83.2 265.7 83.2 263.38 61.84 278.83 61.84 281.15"/><polygon class="cls-16" points="83.2 265.7 61.84 281.15 65.4 279.09 83.2 266.23 83.41 266.08 83.2 265.7"/><polygon class="cls-11" points="124.5 297.36 160.1 278.05 142.3 272.26 124.5 297.36"/><polygon class="cls-9" points="124.5 295.04 113.82 254.5 142.3 269.95 124.5 295.04"/><polygon class="cls-6" points="142.3 272.26 142.3 269.95 124.5 295.04 124.5 297.36 142.3 272.26"/><polygon class="cls-9" points="160.1 278.05 160.1 275.73 142.3 269.95 142.3 272.26 160.1 278.05"/><polygon class="cls-6" points="160.1 275.73 113.82 254.5 142.3 269.95 160.1 275.73"/><polygon class="cls-13" points="108.12 352.19 122.37 359.91 190.02 323.23 175.78 315.51 108.12 352.19"/><polygon class="cls-12" points="108.12 352.19 108.12 354.12 122.37 361.85 122.37 359.91 108.12 352.19"/><polygon class="cls-11" points="190.02 323.23 190.02 325.17 122.37 361.85 122.37 359.91 190.02 323.23"/><path class="cls-6" d="M140.38,345.72V374.6a.44.44,0,0,1-.29.38,1.59,1.59,0,0,1-1.38,0,.48.48,0,0,1-.29-.38V345.72Z" transform="translate(-17.03 -17.4)"/><path class="cls-6" d="M203.49,311.52v28.89a.44.44,0,0,1-.29.37,1.66,1.66,0,0,1-1.38,0,.48.48,0,0,1-.29-.37V311.52Z" transform="translate(-17.03 -17.4)"/><polygon class="cls-7" points="108.12 323.23 122.37 330.95 190.02 294.27 175.78 286.55 108.12 323.23"/><polygon class="cls-6" points="108.12 323.23 108.12 325.17 122.37 332.89 122.37 330.95 108.12 323.23"/><polygon class="cls-9" points="190.02 294.27 190.02 296.2 122.37 332.89 122.37 330.95 190.02 294.27"/></g><g id="freepik--plants--inject-75-3" data-name="freepik--plants--inject-75"><polygon class="cls-7" points="249.98 289.74 252.68 284.74 253.12 284.95 250.42 289.95 249.98 289.74"/><polygon class="cls-7" points="247.28 284.58 247.69 284.34 250.33 288.34 249.91 288.58 247.28 284.58"/><path class="cls-7" d="M267.65,301.29v12a.22.22,0,0,1-.12.16.66.66,0,0,1-.58,0,.2.2,0,0,1-.12-.16v-12Z" transform="translate(-17.03 -17.4)"/><path class="cls-2" d="M277.4,297.54a6,6,0,1,1-6-5.59h0A5.79,5.79,0,0,1,277.4,297.54Z" transform="translate(-17.03 -17.4)"/><path class="cls-19" d="M273.26,296.11c.77-2.27,1.58-3.16,1.07-3.44a6.17,6.17,0,0,0-8.13,2.11,5.43,5.43,0,0,0,2.24,7.63A6.23,6.23,0,0,0,276,301.1C274.22,301.59,272.26,299.06,273.26,296.11Z" transform="translate(-17.03 -17.4)"/><path class="cls-2" d="M266.19,299.12a4.2,4.2,0,1,1-4.19-3.93h0A4.06,4.06,0,0,1,266.19,299.12Z" transform="translate(-17.03 -17.4)"/><path class="cls-19" d="M262,295.19a4.38,4.38,0,0,0-2.44.74c-.12,2.4,2.06,4.75,1.44,5.54s-2.1.3-2.63-.37a4.35,4.35,0,0,0,5.73,1.43,3.81,3.81,0,0,0,1.52-5.38,4.23,4.23,0,0,0-3.63-2Z" transform="translate(-17.03 -17.4)"/><ellipse class="cls-2" cx="250.2" cy="277.49" rx="7.69" ry="7.22"/><path class="cls-4" d="M274.77,296.53a7.72,7.72,0,0,1-9.24,5.39,7.22,7.22,0,0,1-5.74-8.67,7.32,7.32,0,0,1,3.71-4.65,7.58,7.58,0,0,0-1.79,1.33,7.2,7.2,0,0,0,5.73,8.66,8,8,0,0,0,7.33-2.08Z" transform="translate(-17.03 -17.4)"/><polygon class="cls-7" points="56.99 322.03 59.69 317.04 60.13 317.24 57.43 322.24 56.99 322.03"/><polygon class="cls-7" points="55.39 316.7 55.81 316.46 58.46 320.45 58.04 320.7 55.39 316.7"/><path class="cls-7" d="M74.64,333.58v12.05a.2.2,0,0,1-.12.16.66.66,0,0,1-.58,0,.18.18,0,0,1-.12-.16V333.58Z" transform="translate(-17.03 -17.4)"/><path class="cls-2" d="M84.34,329.84a6,6,0,1,1-6-5.6h0A5.79,5.79,0,0,1,84.34,329.84Z" transform="translate(-17.03 -17.4)"/><path class="cls-19" d="M80.25,328.4c.76-2.27,1.59-3.16,1.06-3.44a6.17,6.17,0,0,0-8.12,2.12,5.42,5.42,0,0,0,2.26,7.63,6.21,6.21,0,0,0,3,.72,6.11,6.11,0,0,0,4.6-2C81.21,333.88,79.3,331.35,80.25,328.4Z" transform="translate(-17.03 -17.4)"/><path class="cls-2" d="M73.16,331.42A4.2,4.2,0,1,1,69,327.48h0A4.07,4.07,0,0,1,73.16,331.42Z" transform="translate(-17.03 -17.4)"/><path class="cls-19" d="M69,327.48a4.4,4.4,0,0,0-2.45.75c-.11,2.41,2.06,4.74,1.46,5.53s-2.11.31-2.63-.36a4.34,4.34,0,0,0,5.73,1.42,3.81,3.81,0,0,0,1.5-5.39A4.24,4.24,0,0,0,69,327.48Z" transform="translate(-17.03 -17.4)"/><ellipse class="cls-2" cx="57.2" cy="309.78" rx="7.69" ry="7.22"/><path class="cls-4" d="M81.71,328.82a7.72,7.72,0,0,1-9.23,5.4,7.08,7.08,0,0,1-2-13.32,7.59,7.59,0,0,0-1.8,1.32,7.21,7.21,0,0,0,5.74,8.66,8,8,0,0,0,7.32-2.07Z" transform="translate(-17.03 -17.4)"/><g id="freepik--plants--inject-75-4" data-name="freepik--plants--inject-75"><path class="cls-2" d="M237.6,304.16l1.53-.82a23.14,23.14,0,0,0,.17-7c-.76-4.55-4.06-6.12-5.26-5.67s-1.48,1.8.69,4.43A14.48,14.48,0,0,1,237.6,304.16Z" transform="translate(-17.03 -17.4)"/><g class="cls-15"><path class="cls-16" d="M237.6,304.16l1.53-.82a23.14,23.14,0,0,0,.17-7c-.76-4.55-4.06-6.12-5.26-5.67s-1.48,1.8.69,4.43A14.48,14.48,0,0,1,237.6,304.16Z" transform="translate(-17.03 -17.4)"/></g><path class="cls-17" d="M238.15,302.36h0a.11.11,0,0,1-.09-.11h0c.63-4.26-1.2-8.93-3.25-10.8a.14.14,0,0,1,0-.15.12.12,0,0,1,.16,0c2.09,1.92,3.94,6.66,3.31,11a.12.12,0,0,1-.12.09Z" transform="translate(-17.03 -17.4)"/><path class="cls-2" d="M233.39,306.45c-.23.12-.72-.16-.92-.27a2.21,2.21,0,0,1-.76-.82,1.83,1.83,0,0,1-.18-1.21,3.61,3.61,0,0,1,.15-.65l.2-.62a1.69,1.69,0,0,0,.09-.63,1.73,1.73,0,0,0-.82-1,1.55,1.55,0,0,1-.88-1.17,1.81,1.81,0,0,1,.48-1.07c.27-.32.58-.59.82-.92a1.21,1.21,0,0,0,.27-.82,1.25,1.25,0,0,0-.18-.5,6.67,6.67,0,0,1-.58-1,1,1,0,0,1,.18-1.07,1.35,1.35,0,0,1,.94-.21,2.13,2.13,0,0,1,.88.29c.87.45,1.36,1.41,2.28,1.77a10.66,10.66,0,0,0,1.12.25,1.38,1.38,0,0,1,.87.59c.34.64-.28,1.42,0,2.09s.83.83,1.18,1.36a1.2,1.2,0,0,1,.15.78,3.2,3.2,0,0,1-.35,1.32,8.33,8.33,0,0,1-.77,1.19Z" transform="translate(-17.03 -17.4)"/><g class="cls-18"><path class="cls-16" d="M233.39,306.45c-.23.12-.72-.16-.92-.27a2.21,2.21,0,0,1-.76-.82,1.83,1.83,0,0,1-.18-1.21,3.61,3.61,0,0,1,.15-.65l.2-.62a1.69,1.69,0,0,0,.09-.63,1.73,1.73,0,0,0-.82-1,1.55,1.55,0,0,1-.88-1.17,1.81,1.81,0,0,1,.48-1.07c.27-.32.58-.59.82-.92a1.21,1.21,0,0,0,.27-.82,1.25,1.25,0,0,0-.18-.5,6.67,6.67,0,0,1-.58-1,1,1,0,0,1,.18-1.07,1.35,1.35,0,0,1,.94-.21,2.13,2.13,0,0,1,.88.29c.87.45,1.36,1.41,2.28,1.77a10.66,10.66,0,0,0,1.12.25,1.38,1.38,0,0,1,.87.59c.34.64-.28,1.42,0,2.09s.83.83,1.18,1.36a1.2,1.2,0,0,1,.15.78,3.2,3.2,0,0,1-.35,1.32,8.33,8.33,0,0,1-.77,1.19Z" transform="translate(-17.03 -17.4)"/></g><path class="cls-17" d="M235.86,305.22h0a.11.11,0,0,1-.11-.1h0c.18-4-1.85-8.48-3.31-9.78a.1.1,0,0,1,0-.14h0a.12.12,0,0,1,.16,0c1.49,1.32,3.55,5.84,3.38,9.94A.12.12,0,0,1,235.86,305.22Z" transform="translate(-17.03 -17.4)"/><path class="cls-17" d="M235.22,300.45h0a16.34,16.34,0,0,0-3.12-.48.1.1,0,0,1-.1-.1.09.09,0,0,1,.08-.1h0a17,17,0,0,1,3.17.48.12.12,0,0,1,.08.13A.11.11,0,0,1,235.22,300.45Z" transform="translate(-17.03 -17.4)"/></g></g></g><g id="freepik--house-2--inject-75"><g id="freepik--yard--inject-75-3" data-name="freepik--yard--inject-75"><polygon class="cls-2" points="250.84 199.26 250.84 195.4 343.4 145.21 418.19 185.75 418.19 189.61 325.6 239.8 250.84 199.26"/><polygon class="cls-2" points="250.84 195.4 325.6 235.94 418.19 185.75 343.4 145.21 250.84 195.4"/><polygon class="cls-3" points="250.84 195.4 325.6 235.94 325.6 239.8 250.84 199.26 250.84 195.4"/><polygon class="cls-4" points="325.6 235.94 418.19 185.75 418.19 189.61 325.6 239.8 325.6 235.94"/></g><g id="freepik--house--inject-75-3" data-name="freepik--house--inject-75"><polygon class="cls-5" points="314.92 164.51 293.56 125.91 272.2 141.35 272.19 195.38 314.92 218.55 314.92 164.51"/><polygon class="cls-7" points="286.43 156.79 279.31 152.93 279.31 164.51 286.43 168.37 286.43 156.79"/><polygon class="cls-11" points="279.88 164.2 279.88 153.24 286.43 156.79 286.43 167.76 279.88 164.2"/><polygon class="cls-10" points="279.88 153.24 286.43 156.82 286.43 157.97 279.88 154.41 279.88 153.24"/><polygon class="cls-6" points="279.31 164.51 279.88 164.2 286.43 167.76 286.43 168.37 279.31 164.51"/><polygon class="cls-7" points="286.43 162.9 279.31 159.03 279.31 158.41 286.43 162.27 286.43 162.9"/><polygon class="cls-7" points="307.8 168.37 300.68 164.51 300.68 176.09 307.8 179.96 307.8 168.37"/><polygon class="cls-11" points="301.25 175.79 301.25 164.83 307.8 168.37 307.8 179.34 301.25 175.79"/><polygon class="cls-10" points="301.25 164.83 307.8 168.37 307.8 169.52 301.25 166 301.25 164.83"/><polygon class="cls-6" points="300.68 176.09 301.25 175.79 307.8 179.34 307.8 179.96 300.68 176.09"/><polygon class="cls-7" points="307.8 174.31 300.68 170.47 300.68 169.85 307.8 173.68 307.8 174.31"/><polygon class="cls-7" points="286.43 179.96 279.31 176.09 279.31 187.68 286.43 191.54 286.43 179.96"/><polygon class="cls-11" points="279.88 187.37 279.88 176.41 286.43 179.96 286.43 190.92 279.88 187.37"/><polygon class="cls-10" points="279.88 176.41 286.43 179.99 286.43 181.13 279.88 177.58 279.88 176.41"/><polygon class="cls-6" points="279.31 187.68 279.88 187.37 286.43 190.92 286.43 191.54 279.31 187.68"/><polygon class="cls-7" points="286.43 186.06 279.31 182.19 279.31 181.58 286.43 185.44 286.43 186.06"/><polygon class="cls-7" points="307.8 191.54 300.68 187.68 300.68 199.26 307.8 203.12 307.8 191.54"/><polygon class="cls-11" points="301.25 198.96 301.25 187.99 307.8 191.54 307.8 202.5 301.25 198.96"/><polygon class="cls-10" points="301.25 187.99 307.8 191.54 307.8 192.69 301.25 189.16 301.25 187.99"/><polygon class="cls-6" points="300.68 199.26 301.25 198.96 307.8 202.5 307.8 203.12 300.68 199.26"/><polygon class="cls-7" points="307.8 197.47 300.68 193.64 300.68 193.02 307.8 196.86 307.8 197.47"/><polygon class="cls-11" points="382.57 181.87 314.92 218.55 314.92 164.51 382.57 127.83 382.57 181.87"/><polygon class="cls-12" points="314.92 174.31 382.57 137.49 382.57 127.83 314.92 164.51 314.92 174.31"/><polygon class="cls-9" points="323.82 193.32 339.84 184.62 339.84 197.32 323.82 206 323.82 193.32"/><polygon class="cls-13" points="338.86 196.78 338.86 185.16 323.82 193.32 323.82 204.93 338.86 196.78"/><polygon class="cls-10" points="338.86 185.16 338.86 187.92 323.82 196.07 323.82 193.32 338.86 185.16"/><polygon class="cls-6" points="339.84 197.32 338.86 196.78 323.82 204.93 323.82 206 339.84 197.32"/><polygon class="cls-6" points="339.84 190.97 338.86 190.44 323.82 198.59 323.82 199.66 339.84 190.97"/><polygon class="cls-6" points="332.16 201.48 331.18 202.02 331.18 189.32 332.16 188.79 332.16 201.48"/><polygon class="cls-9" points="323.82 173.97 339.84 165.29 339.84 177.97 323.82 186.66 323.82 173.97"/><polygon class="cls-13" points="338.86 177.44 338.86 165.82 323.82 173.97 323.82 185.59 338.86 177.44"/><polygon class="cls-10" points="338.86 165.82 338.86 168.57 323.82 176.73 323.82 173.97 338.86 165.82"/><polygon class="cls-6" points="339.84 177.97 338.86 177.44 323.82 185.59 323.82 186.66 339.84 177.97"/><polygon class="cls-6" points="339.84 171.63 338.86 171.1 323.82 179.25 323.82 180.32 339.84 171.63"/><polygon class="cls-6" points="332.16 182.14 331.18 182.67 331.18 169.98 332.16 169.45 332.16 182.14"/><polygon class="cls-7" points="290 130.15 313.06 171.7 386.13 132.08 363.13 90.49 290 130.15"/><polygon class="cls-7" points="290 127.83 313.06 169.39 386.13 129.77 363.13 88.18 290 127.83"/><polygon class="cls-9" points="290 127.83 290 130.15 313.06 171.7 313.06 169.39 290 127.83"/><polygon class="cls-6" points="313.06 169.39 386.13 129.77 386.13 132.08 313.06 171.7 313.06 169.39"/><polygon class="cls-9" points="268.63 145.6 290 130.15 290 127.83 268.63 143.28 268.63 145.6"/><polygon class="cls-16" points="290 130.15 268.63 145.6 272.19 143.54 290 130.67 290.2 130.52 290 130.15"/><polygon class="cls-10" points="350.52 199.24 361.21 205.03 361.21 168.77 350.52 162.97 350.52 199.24"/><polygon class="cls-11" points="361.21 205.03 396.81 185.73 396.81 148.31 361.21 167.62 361.21 205.03"/><polygon class="cls-11" points="361.21 168.82 396.81 149.87 379.01 144.08 361.21 168.82"/><polygon class="cls-9" points="379.01 144.08 379.01 141.76 359.82 168.43 359.82 170.74 379.01 144.08"/><polygon class="cls-6" points="379.01 141.76 369.7 136.71 350.52 163.38 359.82 168.43 379.01 141.76"/><polygon class="cls-9" points="359.82 168.43 350.52 163.38 350.52 165.7 359.82 170.74 359.82 168.43"/><polygon class="cls-6" points="400.37 151.03 400.37 148.71 379.01 141.76 379.01 144.08 400.37 151.03"/><polygon class="cls-6" points="400.37 148.71 384.83 141.73 369.7 136.71 379.01 141.76 400.37 148.71"/><polygon class="cls-9" points="400.37 148.71 384.83 141.73 369.7 136.71 379.01 141.76 400.37 148.71"/><polygon class="cls-6" points="367.06 201.86 367.06 180.56 377.74 174.78 377.74 196.07 367.06 201.86"/><polygon class="cls-7" points="377.4 195.83 377.4 174.96 367.06 180.56 367.06 201.44 377.4 195.83"/><polygon class="cls-9" points="377.74 174.78 377.4 174.96 377.4 195.83 377.74 196.07 377.74 174.78"/><polygon class="cls-7" points="385.29 172.68 391.98 169.07 391.98 178.34 385.29 181.95 385.29 172.68"/><polygon class="cls-10" points="391.41 178.03 391.41 169.39 385.29 172.68 385.29 181.33 391.41 178.03"/><polygon class="cls-6" points="391.98 178.34 391.41 178.03 385.29 181.33 385.29 181.95 391.98 178.34"/><polygon class="cls-7" points="385.29 177.31 391.98 173.71 391.98 173.09 385.29 176.7 385.29 177.31"/><polygon class="cls-9" points="371 160.03 387.02 151.34 387.02 164.03 371 172.71 371 160.03"/><polygon class="cls-13" points="386.03 163.49 386.03 151.87 371 160.03 371 171.65 386.03 163.49"/><polygon class="cls-10" points="386.03 151.87 386.03 154.63 371 162.78 371 160.03 386.03 151.87"/><polygon class="cls-6" points="387.02 164.03 386.03 163.49 371 171.65 371 172.71 387.02 164.03"/><polygon class="cls-6" points="387.02 157.68 386.03 157.15 371 165.3 371 166.37 387.02 157.68"/><polygon class="cls-6" points="379.35 168.19 378.36 168.73 378.36 156.03 379.35 155.5 379.35 168.19"/><polygon class="cls-12" points="367.03 201.84 377.71 196.06 388.44 201.84 377.71 207.66 367.03 201.84"/></g><g id="freepik--plants--inject-75-5" data-name="freepik--plants--inject-75"><g id="freepik--plants--inject-75-6" data-name="freepik--plants--inject-75"><path class="cls-2" d="M326.74,235.14l-1.52-.82a22.83,22.83,0,0,1-.18-7c.76-4.55,4-6.13,5.25-5.67s1.49,1.8-.68,4.43A14.48,14.48,0,0,0,326.74,235.14Z" transform="translate(-17.03 -17.4)"/><g class="cls-15"><path class="cls-16" d="M326.74,235.14l-1.52-.82a22.83,22.83,0,0,1-.18-7c.76-4.55,4-6.13,5.25-5.67s1.49,1.8-.68,4.43A14.48,14.48,0,0,0,326.74,235.14Z" transform="translate(-17.03 -17.4)"/></g><path class="cls-17" d="M326.18,233.34h0a.11.11,0,0,0,.09-.12c-.62-4.26,1.2-8.93,3.25-10.81a.11.11,0,1,0-.15-.15c-2.09,1.92-3.95,6.66-3.31,11A.12.12,0,0,0,326.18,233.34Z" transform="translate(-17.03 -17.4)"/><path class="cls-2" d="M330.94,237.43c.24.12.73-.16.92-.28a2.19,2.19,0,0,0,.77-.83,1.94,1.94,0,0,0,.19-1.21,5,5,0,0,0-.17-.64l-.19-.62a1.18,1.18,0,0,1,.63-1.61l.11,0A1.57,1.57,0,0,0,334,231a1.78,1.78,0,0,0-.48-1.07c-.26-.31-.58-.59-.82-.91a1.3,1.3,0,0,1-.27-.82,1.37,1.37,0,0,1,.19-.51,6.61,6.61,0,0,0,.57-1,.93.93,0,0,0-.18-1.06,1.3,1.3,0,0,0-.94-.22,2.36,2.36,0,0,0-.87.29c-.88.45-1.36,1.42-2.29,1.77-.35.13-.75.16-1.12.26a1.34,1.34,0,0,0-.87.59c-.34.63.29,1.41.05,2.08s-.82.82-1.17,1.37a1.19,1.19,0,0,0-.16.78,3.41,3.41,0,0,0,.35,1.32,8.24,8.24,0,0,0,.77,1.18S330.91,237.4,330.94,237.43Z" transform="translate(-17.03 -17.4)"/><g class="cls-18"><path class="cls-16" d="M330.94,237.43c.24.12.73-.16.92-.28a2.19,2.19,0,0,0,.77-.83,1.94,1.94,0,0,0,.19-1.21,5,5,0,0,0-.17-.64l-.19-.62a1.18,1.18,0,0,1,.63-1.61l.11,0A1.57,1.57,0,0,0,334,231a1.78,1.78,0,0,0-.48-1.07c-.26-.31-.58-.59-.82-.91a1.3,1.3,0,0,1-.27-.82,1.37,1.37,0,0,1,.19-.51,6.61,6.61,0,0,0,.57-1,.93.93,0,0,0-.18-1.06,1.3,1.3,0,0,0-.94-.22,2.36,2.36,0,0,0-.87.29c-.88.45-1.36,1.42-2.29,1.77-.35.13-.75.16-1.12.26a1.34,1.34,0,0,0-.87.59c-.34.63.29,1.41.05,2.08s-.82.82-1.17,1.37a1.19,1.19,0,0,0-.16.78,3.41,3.41,0,0,0,.35,1.32,8.24,8.24,0,0,0,.77,1.18S330.91,237.4,330.94,237.43Z" transform="translate(-17.03 -17.4)"/></g><path class="cls-17" d="M328.48,236.19h0a.1.1,0,0,0,.11-.1h0c-.18-4,1.85-8.49,3.31-9.78a.1.1,0,0,0,0-.14h0a.11.11,0,0,0-.15,0h0c-1.51,1.32-3.57,5.84-3.39,9.93A.1.1,0,0,0,328.48,236.19Z" transform="translate(-17.03 -17.4)"/><path class="cls-17" d="M329.11,231.42h0a14.91,14.91,0,0,1,3.11-.48.1.1,0,0,0,.11-.1h0a.09.09,0,0,0-.1-.09h0a15.28,15.28,0,0,0-3.16.48.1.1,0,0,0-.08.12h0A.12.12,0,0,0,329.11,231.42Z" transform="translate(-17.03 -17.4)"/></g><polygon class="cls-7" points="411.48 179.61 414.18 174.61 414.62 174.82 411.92 179.82 411.48 179.61"/><polygon class="cls-7" points="409.25 173.08 409.67 172.84 412.32 176.83 411.9 177.08 409.25 173.08"/><path class="cls-7" d="M429.16,191.16v12.06a.21.21,0,0,1-.11.15.73.73,0,0,1-.58,0,.2.2,0,0,1-.12-.15V191.16Z" transform="translate(-17.03 -17.4)"/><path class="cls-2" d="M438.86,187.41a6,6,0,1,1-6-5.6h0A5.78,5.78,0,0,1,438.86,187.41Z" transform="translate(-17.03 -17.4)"/><path class="cls-19" d="M434.77,186c.77-2.27,1.59-3.16,1.07-3.44a6.17,6.17,0,0,0-8.12,2.12,5.42,5.42,0,0,0,2.26,7.63,6.23,6.23,0,0,0,7.53-1.32C435.73,191.45,433.78,188.93,434.77,186Z" transform="translate(-17.03 -17.4)"/><path class="cls-2" d="M427.71,189a4.2,4.2,0,1,1-4.2-3.93h0A4.08,4.08,0,0,1,427.71,189Z" transform="translate(-17.03 -17.4)"/><path class="cls-19" d="M423.52,185.06a4.32,4.32,0,0,0-2.45.75c-.11,2.4,2.06,4.74,1.45,5.53s-2.1.3-2.62-.37a4.33,4.33,0,0,0,5.72,1.43,3.81,3.81,0,0,0,1.52-5.38A4.25,4.25,0,0,0,423.52,185.06Z" transform="translate(-17.03 -17.4)"/><ellipse class="cls-2" cx="411.72" cy="167.35" rx="7.69" ry="7.22"/><path class="cls-4" d="M436.23,186.41a7.72,7.72,0,0,1-9.24,5.38,7.08,7.08,0,0,1-2-13.32,7.84,7.84,0,0,0-1.8,1.33,7.23,7.23,0,0,0,5.79,8.64,8,8,0,0,0,7.27-2.06Z" transform="translate(-17.03 -17.4)"/><polygon class="cls-7" points="259.09 189.59 261.79 184.59 262.23 184.8 259.53 189.8 259.09 189.59"/><polygon class="cls-7" points="256.38 184.44 256.8 184.2 259.43 188.2 259.01 188.44 256.38 184.44"/><path class="cls-7" d="M276.76,201.14v12.05a.18.18,0,0,1-.12.16.66.66,0,0,1-.58,0,.2.2,0,0,1-.12-.16V201.14Z" transform="translate(-17.03 -17.4)"/><path class="cls-2" d="M286.46,197.4a6,6,0,1,1-6-5.6h0a5.77,5.77,0,0,1,6,5.58Z" transform="translate(-17.03 -17.4)"/><path class="cls-19" d="M282.37,196c.77-2.27,1.59-3.16,1.06-3.44a6.16,6.16,0,0,0-8.1,2.13,5.41,5.41,0,0,0,2.26,7.61A6.21,6.21,0,0,0,285.1,201C283.33,201.44,281.37,198.91,282.37,196Z" transform="translate(-17.03 -17.4)"/><path class="cls-2" d="M275.3,199a4.2,4.2,0,1,1-4.19-3.94h0A4.07,4.07,0,0,1,275.3,199Z" transform="translate(-17.03 -17.4)"/><path class="cls-19" d="M271.11,195a4.41,4.41,0,0,0-2.45.74c-.11,2.41,2.06,4.75,1.46,5.53s-2.1.31-2.63-.36a4.35,4.35,0,0,0,5.73,1.43,3.81,3.81,0,0,0,1.52-5.38A4.27,4.27,0,0,0,271.11,195Z" transform="translate(-17.03 -17.4)"/><ellipse class="cls-2" cx="259.32" cy="177.34" rx="7.69" ry="7.22"/><path class="cls-4" d="M283.83,196.38a7.71,7.71,0,0,1-9.23,5.4,7.08,7.08,0,0,1-2-13.32,7.15,7.15,0,0,0-1.8,1.32,7.21,7.21,0,0,0,5.74,8.66,8,8,0,0,0,7.32-2.07Z" transform="translate(-17.03 -17.4)"/></g></g><g id="freepik--house-1--inject-75"><polygon class="cls-2" points="67.79 169.34 67.79 165.48 160.35 115.3 235.14 155.83 235.14 159.69 142.56 209.89 67.79 169.34"/><polygon class="cls-2" points="67.79 165.48 142.56 206.03 235.14 155.83 160.35 115.3 67.79 165.48"/><polygon class="cls-3" points="67.79 165.48 142.56 206.03 142.56 209.89 67.79 169.34 67.79 165.48"/><polygon class="cls-4" points="142.56 206.03 235.14 155.83 235.14 159.69 142.56 209.89 142.56 206.03"/><polygon class="cls-5" points="144.33 168.37 156.8 175.13 156.8 113.36 114.08 90.19 114.08 151.97 144.33 168.37"/><polygon class="cls-10" points="156.8 119.15 114.08 95.98 114.08 90.19 156.8 113.36 156.8 119.15"/><polygon class="cls-7" points="129.74 110.27 121.19 105.63 121.19 112.59 129.74 117.22 129.74 110.27"/><polygon class="cls-11" points="121.76 112.27 121.76 105.94 129.74 110.27 129.74 116.6 121.76 112.27"/><polygon class="cls-6" points="121.19 112.59 121.76 112.27 129.74 116.6 129.74 117.22 121.19 112.59"/><polygon class="cls-7" points="146.11 119.15 137.58 114.51 137.58 121.46 146.11 126.09 146.11 119.15"/><polygon class="cls-11" points="138.15 121.15 138.15 114.82 146.11 119.15 146.11 125.48 138.15 121.15"/><polygon class="cls-6" points="137.58 121.46 138.15 121.15 146.11 125.48 146.11 126.09 137.58 121.46"/><polygon class="cls-6" points="153.24 112.92 206.65 119.59 206.65 117.67 153.24 110.99 153.24 112.92"/><polygon class="cls-7" points="110.52 87.82 153.24 110.99 206.65 117.67 163.93 94.48 110.52 87.82"/><polygon class="cls-9" points="110.52 87.82 153.24 110.99 153.24 112.92 110.52 89.74 110.52 87.82"/><polygon class="cls-11" points="156.8 175.13 203.09 150.04 203.09 119.15 156.8 113.36 156.8 175.13"/><polygon class="cls-6" points="163.93 171.27 163.93 151.97 174.6 146.17 174.6 165.48 163.93 171.27"/><polygon class="cls-7" points="174.27 165.25 174.27 146.36 163.93 151.97 163.93 170.85 174.27 165.25"/><polygon class="cls-9" points="174.6 146.17 174.27 146.36 174.27 165.25 174.6 165.48 174.6 146.17"/><polygon class="cls-7" points="185.29 140.39 195.96 134.59 195.96 146.17 185.29 151.97 185.29 140.39"/><polygon class="cls-10" points="195.39 145.87 195.39 134.9 185.29 140.39 185.29 151.35 195.39 145.87"/><polygon class="cls-6" points="195.96 146.17 195.39 145.87 185.29 151.35 185.29 151.97 195.96 146.17"/><polygon class="cls-7" points="190.91 137.33 190.34 137.64 190.34 149.23 190.91 148.92 190.91 137.33"/><polygon class="cls-6" points="190.34 137.64 190.34 149.23 189.77 148.92 189.77 137.95 190.34 137.64"/><polygon class="cls-10" points="178.16 136.53 178.16 120.26 163.92 118.48 163.92 144.25 178.16 136.53"/><polygon class="cls-6" points="178.16 136.53 178.16 120.26 163.92 118.48 163.92 144.25 178.16 136.53"/><polygon class="cls-10" points="177.51 120.18 163.92 118.48 163.92 143.54 177.51 136.16 177.51 120.18"/><polygon class="cls-7" points="177.51 120.18 178.16 120.26 178.16 136.53 177.51 136.16 177.51 120.18"/><polygon class="cls-7" points="171.69 140.03 171.69 119.45 171.04 119.37 171.04 140.39 171.69 140.03"/><polygon class="cls-6" points="171.04 119.37 171.04 140.39 170.38 140.03 170.38 119.29 171.04 119.37"/><polygon class="cls-7" points="185.29 132.66 185.29 121.15 195.96 122.48 195.96 126.87 185.29 132.66"/><polygon class="cls-10" points="195.39 126.56 195.39 122.42 185.29 121.15 185.29 132.05 195.39 126.56"/><polygon class="cls-6" points="190.91 129.61 190.34 129.31 190.34 121.78 190.91 121.85 190.91 129.61"/><polygon class="cls-7" points="190.91 121.85 190.91 129.61 191.43 129.31 191.43 121.92 190.91 121.85"/><polygon class="cls-6" points="195.96 126.87 195.39 126.56 185.29 132.05 185.29 132.66 195.96 126.87"/><polygon class="cls-12" points="119.41 181.89 89.15 165.48 89.15 142.31 119.41 158.73 119.41 181.89"/><polygon class="cls-10" points="119.41 158.73 119.41 164.51 89.15 148.11 89.15 142.31 119.41 158.73"/><polygon class="cls-7" points="101.25 157.38 92.71 152.74 92.71 159.7 101.25 164.32 101.25 157.38"/><polygon class="cls-11" points="93.28 159.38 93.28 153.05 101.25 157.38 101.25 163.71 93.28 159.38"/><polygon class="cls-10" points="93.28 153.08 93.28 155.02 101.25 159.34 101.25 157.41 93.28 153.08"/><polygon class="cls-6" points="92.71 159.7 93.28 159.38 101.25 163.71 101.25 164.32 92.71 159.7"/><polygon class="cls-7" points="116.39 165.58 107.84 160.95 107.84 167.9 116.39 172.53 116.39 165.58"/><polygon class="cls-11" points="108.41 167.58 108.41 161.26 116.39 165.58 116.39 171.91 108.41 167.58"/><polygon class="cls-10" points="108.41 161.26 108.41 163.2 116.39 167.52 116.39 165.58 108.41 161.26"/><polygon class="cls-6" points="107.84 167.9 108.41 167.58 116.39 171.91 116.39 172.53 107.84 167.9"/><polygon class="cls-11" points="119.41 181.89 144.33 168.37 144.33 133.63 119.41 158.73 119.41 181.89"/><polygon class="cls-7" points="122.97 179.96 122.97 166.45 140.78 156.79 140.78 170.31 122.97 179.96"/><polygon class="cls-9" points="140.78 156.79 140.44 156.97 140.44 170.13 140.78 170.3 140.78 156.79"/><polygon class="cls-6" points="140.43 170.13 122.97 179.6 122.97 179.96 140.78 170.31 140.43 170.13"/><polygon class="cls-6" points="118.7 162.2 146.11 134.59 146.11 132.66 118.7 160.26 118.7 162.2"/><polygon class="cls-9" points="118.7 162.2 86.66 144.82 86.66 142.9 118.7 160.26 118.7 162.2"/><polygon class="cls-7" points="114.08 115.29 146.11 132.66 118.7 160.26 86.66 142.9 114.08 115.29"/><polygon class="cls-12" points="174.6 165.48 195.96 177.07 185.29 182.85 163.93 171.27 174.6 165.48"/><g id="freepik--plants--inject-75-7" data-name="freepik--plants--inject-75"><polygon class="cls-7" points="221.52 147.52 224.22 142.52 224.66 142.73 221.96 147.73 221.52 147.52"/><polygon class="cls-7" points="218.79 142.36 219.21 142.12 221.84 146.12 221.42 146.36 218.79 142.36"/><path class="cls-7" d="M239.19,159.06v12.05c0,.06,0,.11-.13.16a.71.71,0,0,1-.57,0,.2.2,0,0,1-.12-.16V159.06Z" transform="translate(-17.03 -17.4)"/><path class="cls-2" d="M248.88,155.31a6,6,0,1,1-6-5.6h0a5.77,5.77,0,0,1,5.95,5.59Z" transform="translate(-17.03 -17.4)"/><path class="cls-19" d="M244.8,153.87c.76-2.27,1.58-3.16,1.06-3.43a6.18,6.18,0,0,0-2.93-.73,5.61,5.61,0,1,0,0,11.19,6.11,6.11,0,0,0,4.6-2C245.76,159.36,243.8,156.82,244.8,153.87Z" transform="translate(-17.03 -17.4)"/><path class="cls-2" d="M237.72,156.9a4.2,4.2,0,1,1-4.19-3.94h0A4.07,4.07,0,0,1,237.72,156.9Z" transform="translate(-17.03 -17.4)"/><path class="cls-19" d="M233.57,153a4.44,4.44,0,0,0-2.46.74c-.11,2.4,2.06,4.74,1.46,5.53s-2.1.31-2.63-.36a4.34,4.34,0,0,0,5.72,1.41,3.82,3.82,0,0,0,1.5-5.38,4.24,4.24,0,0,0-3.6-1.94Z" transform="translate(-17.03 -17.4)"/><ellipse class="cls-2" cx="221.74" cy="135.25" rx="7.69" ry="7.22"/><path class="cls-4" d="M246.25,154.3a7.7,7.7,0,0,1-9.24,5.36,7.2,7.2,0,0,1-5.7-8.68,7.27,7.27,0,0,1,3.69-4.61,7.87,7.87,0,0,0-1.76,1.32,7.22,7.22,0,0,0,5.76,8.65,8,8,0,0,0,7.3-2.06Z" transform="translate(-17.03 -17.4)"/><polygon class="cls-7" points="76.71 158.95 79.42 153.95 79.85 154.16 77.15 159.16 76.71 158.95"/><polygon class="cls-7" points="73.99 153.79 74.41 153.55 77.04 157.54 76.62 157.79 73.99 153.79"/><path class="cls-7" d="M94.37,170.5v12.05a.18.18,0,0,1-.12.15.66.66,0,0,1-.58,0,.17.17,0,0,1-.11-.15V170.5Z" transform="translate(-17.03 -17.4)"/><path class="cls-2" d="M104.07,166.73a6,6,0,1,1-6-5.6h0A5.8,5.8,0,0,1,104.07,166.73Z" transform="translate(-17.03 -17.4)"/><path class="cls-19" d="M100,165.3c.77-2.27,1.59-3.16,1.06-3.44A6.17,6.17,0,0,0,92.92,164a5.42,5.42,0,0,0,2.26,7.63,6.24,6.24,0,0,0,7.53-1.31C101,170.77,99,168.25,100,165.3Z" transform="translate(-17.03 -17.4)"/><path class="cls-2" d="M92.91,168.31a4.2,4.2,0,1,1-4.2-3.92h0A4.07,4.07,0,0,1,92.91,168.31Z" transform="translate(-17.03 -17.4)"/><path class="cls-19" d="M88.73,164.39a4.29,4.29,0,0,0-2.46.74c-.11,2.4,2.06,4.74,1.46,5.53s-2.11.3-2.63-.36a4.33,4.33,0,0,0,5.72,1.4,3.8,3.8,0,0,0,1.5-5.37,4.24,4.24,0,0,0-3.6-1.94Z" transform="translate(-17.03 -17.4)"/><ellipse class="cls-2" cx="76.93" cy="146.67" rx="7.69" ry="7.22"/><path class="cls-4" d="M101.44,165.72a7.71,7.71,0,0,1-9.23,5.37,7.21,7.21,0,0,1-5.72-8.67,7.29,7.29,0,0,1,3.69-4.63,7.58,7.58,0,0,0-1.79,1.33,7.19,7.19,0,0,0,5.71,8.66,8,8,0,0,0,7.34-2.08Z" transform="translate(-17.03 -17.4)"/><g id="freepik--plants--inject-75-8" data-name="freepik--plants--inject-75"><path class="cls-2" d="M179.32,191l1.09-.58a16.57,16.57,0,0,0,.13-5c-.55-3.3-2.91-4.39-3.77-4.06s-1.06,1.29.49,3.17A10.42,10.42,0,0,1,179.32,191Z" transform="translate(-17.03 -17.4)"/><g class="cls-15"><path class="cls-16" d="M179.32,191l1.09-.58a16.57,16.57,0,0,0,.13-5c-.55-3.3-2.91-4.39-3.77-4.06s-1.06,1.29.49,3.17A10.42,10.42,0,0,1,179.32,191Z" transform="translate(-17.03 -17.4)"/></g><path class="cls-17" d="M179.71,189.68h0s-.06,0-.06-.07h0a9.76,9.76,0,0,0-2.33-7.75.06.06,0,0,1,0-.09.06.06,0,0,1,.08,0l0,0c1.49,1.36,2.83,4.76,2.37,7.86A.08.08,0,0,1,179.71,189.68Z" transform="translate(-17.03 -17.4)"/><path class="cls-2" d="M176.3,192.61c-.16.1-.52-.1-.65-.19a1.42,1.42,0,0,1-.55-.59A1.37,1.37,0,0,1,175,191a3.45,3.45,0,0,1,.12-.46c0-.15.09-.3.14-.45a1.37,1.37,0,0,0,.07-.45,1.27,1.27,0,0,0-.6-.71,1.13,1.13,0,0,1-.59-.82,1.24,1.24,0,0,1,.35-.78,8.55,8.55,0,0,0,.57-.65.86.86,0,0,0,.21-.57,1.13,1.13,0,0,0-.14-.36,4.57,4.57,0,0,1-.42-.71.73.73,0,0,1,.13-.77,1,1,0,0,1,.68-.15,1.55,1.55,0,0,1,.63.2c.62.33,1,1,1.64,1.27a5.45,5.45,0,0,0,.8.18,1,1,0,0,1,.65.43c.25.45-.21,1,0,1.5s.59.59.88,1a.91.91,0,0,1,.12.56,2.36,2.36,0,0,1-.26.94,6.63,6.63,0,0,1-.55.83Z" transform="translate(-17.03 -17.4)"/><g class="cls-18"><path class="cls-16" d="M176.3,192.61c-.16.1-.52-.1-.65-.19a1.42,1.42,0,0,1-.55-.59A1.37,1.37,0,0,1,175,191a3.45,3.45,0,0,1,.12-.46c0-.15.09-.3.14-.45a1.37,1.37,0,0,0,.07-.45,1.27,1.27,0,0,0-.6-.71,1.13,1.13,0,0,1-.59-.82,1.24,1.24,0,0,1,.35-.78,8.55,8.55,0,0,0,.57-.65.86.86,0,0,0,.21-.57,1.13,1.13,0,0,0-.14-.36,4.57,4.57,0,0,1-.42-.71.73.73,0,0,1,.13-.77,1,1,0,0,1,.68-.15,1.55,1.55,0,0,1,.63.2c.62.33,1,1,1.64,1.27a5.45,5.45,0,0,0,.8.18,1,1,0,0,1,.65.43c.25.45-.21,1,0,1.5s.59.59.88,1a.91.91,0,0,1,.12.56,2.36,2.36,0,0,1-.26.94,6.63,6.63,0,0,1-.55.83Z" transform="translate(-17.03 -17.4)"/></g><path class="cls-17" d="M178.07,191.73h0s-.07,0-.07-.06h0c.13-2.89-1.32-6.09-2.37-7a.07.07,0,0,1,0-.1.09.09,0,0,1,.11,0,0,0,0,0,1,0,0c1.08.94,2.55,4.19,2.42,7.12C178.15,191.7,178.11,191.73,178.07,191.73Z" transform="translate(-17.03 -17.4)"/><path class="cls-17" d="M177.61,188.32h0a10.46,10.46,0,0,0-2.23-.34.08.08,0,0,1-.08-.07.08.08,0,0,1,.08-.08h0a10.93,10.93,0,0,1,2.28.35.06.06,0,0,1,.05.08h0a.08.08,0,0,1-.09,0Z" transform="translate(-17.03 -17.4)"/></g></g></g><g id="freepik--Clouds--inject-75"><path class="cls-5" d="M282.86,86.4l-6.09,3.29a4.77,4.77,0,0,0,.06-.76V87.29c0-3-2.21-4.12-4.93-2.67A9.47,9.47,0,0,0,269,87.27c-.44-3.71-3.5-5.09-7.31-3-4.06,2.21-7.37,7.58-7.37,12v2.47a6.11,6.11,0,0,0,.63,2.87l-5.06,2.74a5.63,5.63,0,0,0-2.74,4.45c0,1.65,1.23,2.3,2.74,1.48l33-17.92a5.6,5.6,0,0,0,2.74-4.44C285.6,86.25,284.41,85.58,282.86,86.4Z" transform="translate(-17.03 -17.4)"/><path class="cls-5" d="M309,103.08l-4.59,2.47v-1.81c0-2.22-1.67-3.13-3.72-2a7,7,0,0,0-2.21,2c-.33-2.79-2.63-3.84-5.51-2.3a11.41,11.41,0,0,0-5.57,9v1.87a4.88,4.88,0,0,0,.48,2.18L284,116.59a4.28,4.28,0,0,0-2.06,3.36c0,1.24.92,1.74,2.06,1.12L309,107.55A4.25,4.25,0,0,0,311,104.2C311,103,310.08,102.46,309,103.08Z" transform="translate(-17.03 -17.4)"/><path class="cls-5" d="M425.15,256.52,420.56,259v-1.81c0-2.24-1.66-3.13-3.72-2a7.07,7.07,0,0,0-2.21,2c-.34-2.8-2.68-3.85-5.52-2.31a11.4,11.4,0,0,0-5.56,9.06v1.87a4.66,4.66,0,0,0,.47,2.16L400.2,270a4.22,4.22,0,0,0-2.06,3.35c0,1.23.88,1.73,2.06,1.12L425.12,261a4.26,4.26,0,0,0,2.07-3.36C427.22,256.4,426.29,255.9,425.15,256.52Z" transform="translate(-17.03 -17.4)"/></g></svg>