<svg id="Layer_1" data-name="Layer 1" xmlns="http://www.w3.org/2000/svg" xmlns:xlink="http://www.w3.org/1999/xlink" viewBox="0 0 477 317.1"><defs><style>.cls-1{fill:url(#linear-gradient);}.cls-2{fill:#6d668f;}.cls-3{fill:#4a4468;}.cls-4{fill:#302d3d;}.cls-5{fill:#808fb8;}.cls-6{fill:#585d90;}.cls-7{fill:#454471;}.cls-8{fill:#a4c0e4;}.cls-9{fill:#f4a262;}.cls-10{fill:#f4d993;}.cls-11{fill:#b4def3;}.cls-12{fill:#90b9e3;}.cls-13{fill:#e0f2f4;}.cls-14{fill:#fff;}.cls-15{fill:#4cbc8d;}.cls-16{fill:#6184a8;}.cls-17{fill:#eec84c;}.cls-18{fill:#6ab8e6;}.cls-19{fill:#4e78bc;}.cls-20,.cls-33{fill:#231f20;}.cls-21{fill:#273339;}.cls-22{fill:#f5f6f6;}.cls-23{fill:#f1e913;}.cls-24{fill:none;stroke:#231f20;stroke-miterlimit:10;stroke-width:0.76px;}.cls-25{fill:#fabaab;}.cls-26{fill:#faa736;}.cls-27{fill:#3f6db5;}.cls-28{fill:#6c9dd3;}.cls-29{fill:#fdc478;}.cls-30{fill:#fcb558;}.cls-31{fill:#f8981e;}.cls-32{fill:#4d7fc1;}.cls-33{font-size:13.63px;font-family:LeagueSpartan-Bold, League Spartan;font-weight:700;}.cls-34{letter-spacing:-0.02em;}.cls-35{letter-spacing:-0.01em;}.cls-36{letter-spacing:0em;}.cls-37{letter-spacing:0em;}.cls-38{letter-spacing:-0.05em;}.cls-39{letter-spacing:-0.08em;}.cls-40{letter-spacing:0em;}</style><linearGradient id="linear-gradient" x1="11.5" y1="252.45" x2="488.5" y2="252.45" gradientUnits="userSpaceOnUse"><stop offset="0" stop-color="#f0e90d" stop-opacity="0.1"/><stop offset="0.47" stop-color="#f0e90d" stop-opacity="0.7"/><stop offset="0.88" stop-color="#f0e90d"/></linearGradient></defs><path class="cls-1" d="M64.55,397.87c44.71,34.73,83.06-9.8,179.55-15.33,117.46-6.74,166.63,53.19,211.23,10.22,31.54-30.39,32.61-85.07,33.13-111.32,1.31-67.11-26.36-152.39-73.94-168.1-32.26-10.66-43,20.8-109,29.53-36.3,4.8-63.6-.68-102.15-8.42-98.68-19.82-113-52.12-142.58-36.35C14.22,123,1.89,229.09,18.57,304.26,24.85,332.53,34.1,374.21,64.55,397.87Z" transform="translate(-11.5 -93.9)"/><g id="Restaurant"><path class="cls-2" d="M291.88,306.22H263.76v-9.84h28.12Z" transform="translate(-11.5 -93.9)"/><path class="cls-3" d="M291.88,300.26H263.76v-3.9h28.12Z" transform="translate(-11.5 -93.9)"/><path class="cls-4" d="M291.87,307.66H263.75c-.58,0-1-.65-1-1.44v-9.84c0-.8.46-1.45,1-1.45h28.12c.58,0,1,.65,1,1.45v9.84C292.91,307,292.45,307.66,291.87,307.66Zm-27.08-2.89h26v-6.95h-26Z" transform="translate(-11.5 -93.9)"/><path class="cls-5" d="M265.47,288.27h19.25c1.84,0,3.36-2,3.47-4.53l1.61-37.6h5.9l-1.83,42.09L296,332.29h-5.87l-1.69-35.91H267.08l-5.28,35.91h-6l5.75-39.64c.38-2.55,2-4.39,3.89-4.38Z" transform="translate(-11.5 -93.9)"/><path class="cls-6" d="M257.56,320.4l-1.73,11.89h6l1.75-11.89Z" transform="translate(-11.5 -93.9)"/><path class="cls-6" d="M289.53,320.4l.56,11.89H296l-.57-11.89Z" transform="translate(-11.5 -93.9)"/><path class="cls-6" d="M265.51,307.1l1.57-10.72h10c1.62,0,2.93-1.82,2.93-4.06s-1.31-4.05-2.93-4.05H265.47c-1.87,0-3.49,1.8-3.88,4.33l-1.86,12.82c-.32,2.21.71,4.37,2.31,4.81s3.15-1,3.47-3.19h0Z" transform="translate(-11.5 -93.9)"/><path class="cls-7" d="M268.73,288.27h-3.26c-1.87,0-3.49,1.8-3.88,4.33l-.56,3.85c-.18,2.25,1,4.27,2.62,4.52,1.4.22,2.71-1,3.14-2.83l.26-1.76h1.65c1.61,0,2.92-1.82,2.93-4.05s-1.31-4.06-2.93-4.06h0Z" transform="translate(-11.5 -93.9)"/><path class="cls-2" d="M202.13,296.38h28.12v9.84H202.13Z" transform="translate(-11.5 -93.9)"/><path class="cls-3" d="M202.13,296.38h28.12v3.89H202.13Z" transform="translate(-11.5 -93.9)"/><path class="cls-4" d="M230.25,307.66H202.13c-.58,0-1-.65-1-1.44v-9.84c0-.8.46-1.45,1-1.45h28.12c.58,0,1,.65,1,1.45v9.84c0,.79-.46,1.44-1,1.44Zm-27.08-2.89h26v-6.95h-26Z" transform="translate(-11.5 -93.9)"/><path class="cls-5" d="M228.53,288.27H209.28c-1.84,0-3.36-2-3.47-4.53l-1.61-37.6h-5.9l1.83,42.09L198,332.29h5.87l1.69-35.91h21.32l5.28,35.91h6l-5.75-39.64c-.38-2.55-2-4.39-3.89-4.38Z" transform="translate(-11.5 -93.9)"/><path class="cls-6" d="M236.44,320.4l1.73,11.89h-6l-1.75-11.89Z" transform="translate(-11.5 -93.9)"/><path class="cls-6" d="M204.47,320.4l-.56,11.89H198l.57-11.89Z" transform="translate(-11.5 -93.9)"/><path class="cls-8" d="M205,264l-.76-17.82h-5.9l.77,17.82Z" transform="translate(-11.5 -93.9)"/><path class="cls-8" d="M289,264l.76-17.82h5.9L294.93,264Z" transform="translate(-11.5 -93.9)"/><path class="cls-6" d="M228.49,307.1l-1.57-10.72h-10c-1.62,0-2.93-1.82-2.93-4.06s1.31-4.05,2.93-4.05h11.63c1.87,0,3.49,1.8,3.88,4.33l1.86,12.82c.32,2.21-.71,4.37-2.31,4.81s-3.15-1-3.47-3.19Z" transform="translate(-11.5 -93.9)"/><path class="cls-7" d="M225.27,288.27h3.26c1.87,0,3.49,1.8,3.88,4.33l.56,3.85c.18,2.25-1,4.27-2.62,4.52-1.4.22-2.71-1-3.14-2.83l-.26-1.76h-1.68c-1.61,0-2.92-1.82-2.92-4.06s1.31-4.05,2.92-4.05Z" transform="translate(-11.5 -93.9)"/><path class="cls-4" d="M296,333.73h-5.87c-.55,0-1-.59-1-1.34l-1.62-34.63H267.94l-5.12,34.81c-.1.69-.54,1.17-1,1.16h-5.95c-.57,0-1.05-.62-1.06-1.42,0-.1,0-.2,0-.3l5.75-39.63c.48-3.22,2.52-5.54,4.9-5.55h19.28c1.29,0,2.35-1.4,2.43-3.18l1.61-37.6c0-.76.49-1.35,1-1.35h5.9c.57,0,1,.64,1,1.44v.07l-1.83,42,2.09,44c0,.79-.4,1.48-1,1.53Zm-4.89-2.89h3.77l-2-42.51c0-.15-.1,2.07,1.73-40.75h-3.81l-1.52,36.25c-.15,3.3-2.12,5.88-4.51,5.88H265.47c-1.38,0-2.57,1.36-2.85,3.23l-5.52,37.9H261l5.11-34.75c.1-.68.54-1.17,1-1.16h21.3c.55,0,1,.59,1.05,1.35Z" transform="translate(-11.5 -93.9)"/><path class="cls-4" d="M238.17,333.73h-6c-.5,0-.94-.47-1-1.16l-5.1-34.75H206.57L205,332.44c0,.76-.49,1.35-1,1.35H198c-.57,0-1-.65-1-1.44v-.09l2.09-44-1.82-42c0-.79.42-1.47,1-1.51h5.94c.55,0,1,.59,1,1.35l1.61,37.6c.08,1.78,1.14,3.17,2.43,3.18h19.25c2.39,0,4.45,2.31,4.93,5.55L239.19,332a1.49,1.49,0,0,1-.83,1.69.63.63,0,0,1-.19,0Zm-5.12-2.89h3.85l-5.52-37.9c-.28-1.88-1.47-3.23-2.86-3.23H209.28c-2.39,0-4.36-2.58-4.51-5.88l-1.52-36.25h-3.83l1.75,40.56c0,.14.11-2.18-2,42.7h3.75l1.62-34.62c0-.76.5-1.35,1-1.34h21.32c.5,0,.94.47,1,1.15Z" transform="translate(-11.5 -93.9)"/><path class="cls-9" d="M244.57,276.71h4.86v50h-4.86Z" transform="translate(-11.5 -93.9)"/><path class="cls-4" d="M249.43,328.12h-4.86c-.57,0-1-.65-1-1.45v-50c0-.79.47-1.44,1-1.44h4.86c.57,0,1,.65,1,1.44v50C250.47,327.47,250,328.12,249.43,328.12Zm-3.82-2.89h2.78V278.16h-2.78Z" transform="translate(-11.5 -93.9)"/><path class="cls-9" d="M259.93,332.29H234.07c-2.19,0-1.37-5.62,1.56-5.62h22.74c2.92,0,3.76,5.62,1.56,5.62Z" transform="translate(-11.5 -93.9)"/><path class="cls-10" d="M252.42,332.29H241.58c-2.19,0-1.37-5.62,1.56-5.62h7.72c2.92,0,3.76,5.62,1.56,5.62Z" transform="translate(-11.5 -93.9)"/><path class="cls-4" d="M259.93,333.73H234.07c-1.26,0-2.28-1.4-2.29-3.15v0c0-2.94,1.72-5.32,3.85-5.32h22.74c2.13,0,3.85,2.38,3.85,5.32h0c0,1.75-1,3.17-2.27,3.18Zm-24.3-5.61c-1.59,0-2.09,2.72-1.56,2.72h25.86c.57,0,0-2.72-1.56-2.72Z" transform="translate(-11.5 -93.9)"/><path class="cls-11" d="M274,291.56l-3.13,1.31c-2.36,1-4.86-.86-5.58-4.14a7.88,7.88,0,0,1-.17-1.1l.18,2.36c.23,2.94-1.08,5.7-3.12,6.57l-2.68,1.23c-2.36,1-4.88-.78-5.62-4.05a8.07,8.07,0,0,1-.2-1.63v1.73c.09,3.41-1.84,6.29-4.3,6.41H244.8c-2.47,0-4.47-2.77-4.47-6.19v-2c-.09,3.42-2.17,6.09-4.64,6a3.28,3.28,0,0,1-1.18-.28l-2.77-1.23c-2-.87-3.35-3.63-3.12-6.57l.19-2.36c-.29,3.41-2.52,5.84-5,5.43a3.2,3.2,0,0,1-.69-.19L220,291.56c-2.24-.91-3.6-4.05-3.12-7.22l3.19-21c.59-3.81,3-6.52,5.83-6.51h42.16c2.8,0,5.22,2.71,5.8,6.51l3.2,21c.48,3.15-.86,6.28-3.08,7.22Z" transform="translate(-11.5 -93.9)"/><path class="cls-12" d="M251.93,283.18h-4.85c-1.94,0-3.52-2.19-3.52-4.88a6.28,6.28,0,0,1,.67-2.86l1.19-2.28c1.28-2.47,3.35-3.94,5.55-3.94h2.73c1.71,0,3.23,1.54,3.72,3.81.89,4.18-.82,8.58-3.84,9.82a4.34,4.34,0,0,1-1.65.33Z" transform="translate(-11.5 -93.9)"/><path class="cls-12" d="M274,291.56l-3.13,1.31c-2.37,1-4.87-.88-5.59-4.17a9.36,9.36,0,0,1-.16-1.08l.18,2.37c.23,2.94-1.08,5.7-3.12,6.57l-2.68,1.22c-2.35,1-4.87-.76-5.61-4a7.71,7.71,0,0,1-.21-1.67v1.75c.08,3.41-1.85,6.28-4.31,6.4H244.8c-2.47,0-4.47-2.76-4.47-6.18v-2c-.08,3.42-2.15,6.09-4.62,6a3.23,3.23,0,0,1-1.2-.28l-2.77-1.23c-2-.87-3.35-3.63-3.12-6.58l.19-2.35c-.29,3.41-2.52,5.84-5,5.44a3.19,3.19,0,0,1-.67-.19L220,291.56c-2.23-.92-3.59-4.05-3.12-7.22l.47-3.11a5.09,5.09,0,0,0,2.61,2.88l3.13,1.32c2.37,1,4.87-.88,5.58-4.17a8,8,0,0,0,.16-1.08l-.19,2.35c-.23,3,1.08,5.71,3.12,6.59l2.77,1.21c2.35,1,4.87-.76,5.62-4a9.19,9.19,0,0,0,.21-1.66v1.74c-.12,3.42,1.79,6.31,4.25,6.47h4.57c2.47,0,4.47-2.77,4.47-6.18v-2c.09,3.42,2.17,6.08,4.63,5.95a3.4,3.4,0,0,0,1.2-.29l2.77-1.22c2.05-.88,3.36-3.64,3.13-6.59l-.2-2.35c.28,3.41,2.5,5.86,5,5.47a3.26,3.26,0,0,0,.78-.22l3.12-1.31a5.19,5.19,0,0,0,2.62-2.89l.47,3.12c.44,3.16-.93,6.27-3.16,7.17Z" transform="translate(-11.5 -93.9)"/><path class="cls-13" d="M221.81,275.89c.27-1.88.59-4,.94-6.33.52-3.41,2.69-5.86,5.21-5.88h38c2.52,0,4.68,2.47,5.21,5.88.35,2.36.66,4.45.93,6.33.17,1.14.89,2,1.73,1.95s1.76-1.1,1.76-2.44a3.4,3.4,0,0,0,0-.45l-1.76-11.54c-.54-3.81-2.94-6.56-5.74-6.61H225.92c-2.81,0-5.23,2.72-5.8,6.52l-1.76,11.55c-.13,1.34.55,2.57,1.52,2.75s1.69-.59,1.93-1.76Z" transform="translate(-11.5 -93.9)"/><path class="cls-14" d="M232.94,260.24c0,1.9,1.11,3.44,2.49,3.44h17.71c1.37,0,2.48-1.54,2.48-3.45s-1.11-3.44-2.48-3.44H235.43C234.05,256.79,232.94,258.33,232.94,260.24Z" transform="translate(-11.5 -93.9)"/><path class="cls-4" d="M235.92,299.52c-1.17,0-1.78-.4-4.45-1.57-2.5-1.12-4.09-4.51-3.8-8.12l.73-9.22c.06-.8.58-1.37,1.15-1.29a1.42,1.42,0,0,1,.93,1.61l-.73,9.21c-.18,2.25.81,4.37,2.37,5.05l2.76,1.22c1.8.79,3.73-.58,4.3-3.08a5.78,5.78,0,0,0,.16-1.25l.23-8.77c0-.8.51-1.42,1.08-1.4s1,.7,1,1.5h0l-.22,8.77c-.12,4.1-2.56,7.35-5.52,7.34Z" transform="translate(-11.5 -93.9)"/><path class="cls-4" d="M249.2,301.7h-4.4c-3,0-5.51-3.41-5.51-7.63v-.28l.27-10.51c0-.8.51-1.42,1.08-1.4s1,.7,1,1.5h0l-.26,10.52c-.08,2.61,1.39,4.81,3.27,4.91h4.55c1.89,0,3.42-2.1,3.43-4.71v-.2l-.27-10.52c0-.8.47-1.44,1-1.44s1,.64,1,1.44l.27,10.52c.07,4.21-2.34,7.7-5.38,7.8Z" transform="translate(-11.5 -93.9)"/><path class="cls-4" d="M258.08,299.52c-3,0-5.39-3.27-5.5-7.37l-.22-8.77c0-.8.43-1.47,1-1.5s1.06.6,1.08,1.4l.23,8.77c.07,2.62,1.67,4.66,3.56,4.55a2.69,2.69,0,0,0,.91-.22l2.76-1.22c1.55-.68,2.54-2.8,2.36-5l-1-13.28a1.42,1.42,0,0,1,.93-1.6c.57-.09,1.09.49,1.15,1.28l1,13.28c.29,3.61-1.3,7-3.8,8.12C259.86,299.12,259.21,299.52,258.08,299.52Z" transform="translate(-11.5 -93.9)"/><path class="cls-4" d="M224.45,294.59c-1.11,0-1.66-.35-4.75-1.65-2.75-1.12-4.41-5-3.8-8.88l3.19-21c.7-4.46,3.54-7.65,6.83-7.66h42.16c3.29,0,6.13,3.2,6.83,7.66l3.19,21c.61,3.88-1.05,7.76-3.8,8.88l-3.12,1.32c-2.92,1.22-6-1.07-6.89-5.11a12,12,0,0,1-.2-1.36l-.86-10.92a1.41,1.41,0,0,1,.93-1.6c.57-.09,1.09.49,1.15,1.28l.87,10.93c.21,2.61,1.91,4.49,3.8,4.19a2.7,2.7,0,0,0,.6-.17l3.13-1.31c1.71-.7,2.74-3.11,2.36-5.53l-3.21-21.05c-.48-3.12-2.47-5.36-4.78-5.36H225.92c-2.31,0-4.3,2.24-4.78,5.36l-3.2,21.05c-.38,2.42.65,4.83,2.36,5.53l3.13,1.31c1.82.76,3.73-.67,4.28-3.19a5.72,5.72,0,0,0,.12-.83l.55-6.87c.06-.8.58-1.37,1.15-1.29a1.42,1.42,0,0,1,.93,1.61h0l-.54,6.86c-.31,3.86-2.67,6.79-5.47,6.8Z" transform="translate(-11.5 -93.9)"/><path class="cls-4" d="M253.25,279.17c-.58,0-1-.65-1-1.45l-.07-2.75c0-.8.43-1.47,1-1.5s1.06.6,1.08,1.4l.07,2.74c.05.79-.38,1.49-.95,1.55Z" transform="translate(-11.5 -93.9)"/><path class="cls-4" d="M240.6,284.76c-.57,0-1-.64-1-1.44l.09-3.43c0-.8.5-1.42,1.07-1.4s1,.7,1,1.5h0l-.09,3.36C241.62,284.13,241.17,284.76,240.6,284.76Z" transform="translate(-11.5 -93.9)"/><path class="cls-4" d="M229.85,276.91c-.57,0-1-.63-1-1.43v-.17l.39-4.93c.06-.8.58-1.37,1.15-1.28a1.4,1.4,0,0,1,.93,1.6h0l-.38,4.93c-.06.73-.51,1.29-1.05,1.28Z" transform="translate(-11.5 -93.9)"/><path class="cls-15" d="M262.72,228.89v-2.1h-3.43a13.15,13.15,0,0,1-.53,5.13c-1.13,3-2.08,5.15-2.08,9v12.6c0,1.82,1.05,3.3,2.36,3.3H263c1.31,0,2.37-1.47,2.37-3.29h0V240.93c0-6.23-2.6-8.21-2.6-12Z" transform="translate(-11.5 -93.9)"/><path class="cls-4" d="M263,258.25h-3.89c-1.89,0-3.41-2.13-3.41-4.75V240.93a20.32,20.32,0,0,1,1.24-7.08c1.46-4,1.36-3.2,1.36-7,0-.79.47-1.44,1-1.44h3.43c.57,0,1,.65,1,1.44a11.81,11.81,0,0,0,.42,4.48c2.62,7.07,2.18,5.58,2.18,22.23,0,2.6-1.53,4.71-3.41,4.72Zm-2.62-30a11.39,11.39,0,0,1-.64,4.33c-2.37,6.34-2,4.4-2,20.91,0,1,.57,1.86,1.31,1.88H263c.73,0,1.33-.83,1.33-1.85h0V240.93a16.72,16.72,0,0,0-1-5.77c-1.15-3.07-1.61-3.82-1.61-6.91Z" transform="translate(-11.5 -93.9)"/><path class="cls-16" d="M259.57,221.72h2.86c.54,0,1,.61,1,1.37v2.33c0,.76-.45,1.37-1,1.37h-2.86c-.54,0-1-.61-1-1.37v-2.33C258.58,222.33,259,221.72,259.57,221.72Z" transform="translate(-11.5 -93.9)"/><path class="cls-4" d="M262.43,228.24h-2.85c-1.15,0-2.08-1.29-2.08-2.89v-2.26c0-1.6.93-2.89,2.08-2.89h2.85c1.15,0,2.08,1.29,2.08,2.89v2.32c0,1.57-.95,2.83-2.08,2.83Zm-2.85-5.08v2.25h2.8v-2.19Z" transform="translate(-11.5 -93.9)"/><path class="cls-17" d="M260.27,241.8h5.06v7.6h-5.06Z" transform="translate(-11.5 -93.9)"/><path class="cls-4" d="M265.32,250.84h-5.05c-.57,0-1-.64-1-1.44v-7.6c0-.8.47-1.44,1-1.44h5.05c.58,0,1,.64,1,1.44v7.6C266.36,250.2,265.9,250.84,265.32,250.84Zm-4-2.88h3v-4.72h-3Z" transform="translate(-11.5 -93.9)"/><path class="cls-18" d="M248.78,239.07h4.47v6.31c0,1.69-1,3.07-2.22,3.07h0c-1.22,0-2.22-1.38-2.22-3.07h0v-6.31Z" transform="translate(-11.5 -93.9)"/><path class="cls-4" d="M251,249.89c-1.8,0-3.26-2-3.26-4.51h0v-6.31c0-.79.47-1.44,1-1.44h4.47c.58,0,1,.65,1,1.44v6.31c0,2.49-1.46,4.51-3.26,4.51Zm-1.18-9.38v4.87c0,.9.53,1.63,1.18,1.63s1.18-.73,1.18-1.63v-4.87Z" transform="translate(-11.5 -93.9)"/><path class="cls-4" d="M251,258.25c-.58,0-1-.65-1-1.45v-8.35c0-.8.46-1.44,1-1.44s1,.64,1,1.44v8.35C252,257.6,251.58,258.25,251,258.25Z" transform="translate(-11.5 -93.9)"/><path class="cls-19" d="M245.48,249.39l-4.64,7.4h-12.6l-4.63-7.4Z" transform="translate(-11.5 -93.9)"/><path class="cls-18" d="M245.48,249.39l-4.64,7.4H235.7l-4.63-7.4Z" transform="translate(-11.5 -93.9)"/><path class="cls-4" d="M240.84,258.25H228.25a1,1,0,0,1-.79-.51l-4.64-7.4a1.84,1.84,0,0,1,.12-2,.88.88,0,0,1,.68-.35h21.87c.57,0,1,.65,1,1.44a1.81,1.81,0,0,1-.25.94l-4.63,7.4A1,1,0,0,1,240.84,258.25Zm-12.13-2.89h11.67l2.82-4.52H225.89Z" transform="translate(-11.5 -93.9)"/><path class="cls-16" d="M244.67,309.77h4.65c1.12,0,2,1.25,2,2.81V316c0,1.55-.91,2.81-2,2.81h-4.65c-1.13,0-2-1.26-2-2.81v-3.46C242.64,311,243.54,309.77,244.67,309.77Z" transform="translate(-11.5 -93.9)"/><path class="cls-4" d="M249.33,320.28h-4.66c-1.71,0-3.08-2-3.08-4.33v-3.46c0-2.36,1.37-4.29,3.08-4.33h4.66c1.71,0,3.08,2,3.08,4.33V316C252.41,318.32,251,320.24,249.33,320.28Zm-4.66-9.09c-.56,0-1,.68-1,1.45v3.46c0,.77.43,1.4,1,1.44h4.66c.56,0,1-.67,1-1.44v-3.46c0-.77-.43-1.41-1-1.45Z" transform="translate(-11.5 -93.9)"/></g><polygon class="cls-20" points="133.76 258.82 131.66 258.13 183.26 58.27 185.36 58.97 133.76 258.82"/><polygon class="cls-20" points="303.86 258.82 301.76 258.13 353.36 58.27 355.46 58.97 303.86 258.82"/><path class="cls-21" d="M118.91,164.49a25.77,25.77,0,0,1-3.17.13,26,26,0,0,1-3.18-.07,29,29,0,0,1,3.18-.12A29.73,29.73,0,0,1,118.91,164.49Z" transform="translate(-11.5 -93.9)"/><path class="cls-21" d="M118.91,166.35a29,29,0,0,1-3.17.12,28.13,28.13,0,0,1-3.18-.06A56.08,56.08,0,0,1,118.91,166.35Z" transform="translate(-11.5 -93.9)"/><path class="cls-21" d="M112.65,334.25l-56.38,0c-6.78,0-12.27-6-12.27-13.51l0-155.53c0-7.46,5.5-13.51,12.28-13.51h0l56.37.06c6.78,0,12.27,6.05,12.27,13.51l0,155.51c0,7.46-5.51,13.51-12.29,13.51Z" transform="translate(-11.5 -93.9)"/><path class="cls-14" d="M112.63,157.21H101.7a2.88,2.88,0,0,0-2.65,3.06v2.18a2.88,2.88,0,0,1-2.66,3.05H75.09a2.88,2.88,0,0,1-2.66-3.05h0v-2.21a2.86,2.86,0,0,0-2.65-3.05H56.37c-4.76,0-8.62,4.24-8.62,9.48h0l0,151.79c0,5.22,3.84,9.46,8.59,9.48l56.27,0c4.75,0,8.61-4.25,8.61-9.48l0-151.79C121.23,161.47,117.38,157.22,112.63,157.21Z" transform="translate(-11.5 -93.9)"/><path class="cls-22" d="M121.23,166.68c0-5.24-3.86-9.48-8.62-9.48H101.68A2.87,2.87,0,0,0,99,160.25v2.18a2.89,2.89,0,0,1-2.65,3.06H75.07a2.88,2.88,0,0,1-2.65-3.06h0v-2.19a2.87,2.87,0,0,0-2.66-3.05H56.35c-4.76,0-8.61,4.24-8.61,9.48h0l0,14.51h73.51Z" transform="translate(-11.5 -93.9)"/><path class="cls-21" d="M115.25,172a23.85,23.85,0,0,1-2.94.11,26.36,26.36,0,0,1-3-.05,52.61,52.61,0,0,1,5.89-.06Z" transform="translate(-11.5 -93.9)"/><path class="cls-23" d="M55.92,213.6V203.17a4.13,4.13,0,0,1,.75-2.66,3.15,3.15,0,0,1,2.59-1.18h10a.33.33,0,0,0,0-.66H59.38a4,4,0,0,0-2.37.66,4.26,4.26,0,0,0-1.68,3.42c0,1.72,0,3.44,0,5.15v5.69a.31.31,0,0,0,.33.29.33.33,0,0,0,.27-.29Z" transform="translate(-11.5 -93.9)"/><path class="cls-23" d="M68.36,264.08H58.88a3.28,3.28,0,0,1-2.41-.82,3.82,3.82,0,0,1-1.08-2.84v-11a.3.3,0,1,0-.59,0v10.84a4.79,4.79,0,0,0,.6,2.61,3.67,3.67,0,0,0,3.11,1.85c1.56,0,3.11,0,4.67,0h5.17a.33.33,0,0,0,0-.66Z" transform="translate(-11.5 -93.9)"/><path class="cls-23" d="M114,249.34v10.43a4.12,4.12,0,0,1-.75,2.65,3.16,3.16,0,0,1-2.59,1.19h-10a.31.31,0,0,0-.3.32.31.31,0,0,0,.3.33h9.85a3.82,3.82,0,0,0,2.37-.66,4.25,4.25,0,0,0,1.68-3.42c0-1.72,0-3.43,0-5.15v-5.69a.3.3,0,1,0-.59,0Z" transform="translate(-11.5 -93.9)"/><path class="cls-23" d="M100.82,199.33h9.48a3.29,3.29,0,0,1,2.41.83,3.77,3.77,0,0,1,1.08,2.85v11a.3.3,0,1,0,.59,0V203.14a4.94,4.94,0,0,0-.6-2.62,3.67,3.67,0,0,0-3.11-1.84c-1.56,0-3.12,0-4.68,0h-5.17a.3.3,0,0,0-.29.32.31.31,0,0,0,.29.33Z" transform="translate(-11.5 -93.9)"/><polygon class="cls-21" points="217.57 93.93 217.57 96.44 219.77 96.44 219.77 93.93 219.77 91.4 217.57 91.4 217.57 93.93"/><rect class="cls-21" x="217.57" y="78.81" width="2.2" height="2.52"/><rect class="cls-21" x="231.16" y="106.55" width="2.2" height="2.52"/><polygon class="cls-21" points="219.77 83.85 219.77 86.36 217.57 86.36 217.57 88.88 219.77 88.88 219.77 91.4 221.97 91.4 224.17 91.4 224.17 93.93 226.37 93.93 226.37 91.4 228.57 91.4 228.57 88.88 228.57 86.36 226.37 86.36 226.37 88.88 224.17 88.88 221.97 88.88 221.97 86.36 221.97 83.85 221.97 81.33 219.77 81.33 219.77 83.85"/><polygon class="cls-21" points="224.17 78.81 221.97 78.81 221.97 81.33 224.17 81.33 226.37 81.33 226.37 78.81 224.17 78.81"/><polygon class="cls-21" points="234.07 99.06 235.25 99.06 235.25 96.54 234.07 96.54 232.89 96.54 232.89 99.06 234.07 99.06"/><rect class="cls-21" x="226.37" y="81.33" width="2.2" height="2.52"/><rect class="cls-21" x="241.77" y="91.4" width="2.2" height="2.52"/><rect class="cls-21" x="243.97" y="63.69" width="2.2" height="2.52"/><polygon class="cls-21" points="232.97 83.85 232.97 81.33 235.17 81.33 235.17 78.81 232.97 78.81 232.97 76.29 230.77 76.29 230.77 78.81 228.57 78.81 228.57 81.33 230.77 81.33 230.77 83.85 230.77 86.36 230.77 88.88 230.77 91.4 232.97 91.4 232.97 88.88 232.97 86.36 235.17 86.36 235.17 83.85 232.97 83.85"/><polygon class="cls-21" points="243.97 109.04 246.17 109.04 246.17 106.52 243.97 106.52 241.77 106.52 241.77 109.04 243.97 109.04"/><rect class="cls-21" x="239.57" y="63.69" width="2.2" height="2.52"/><polygon class="cls-21" points="241.22 83.85 241.22 81.33 239.02 81.33 239.02 78.81 236.82 78.81 236.82 81.33 236.82 83.85 234.62 83.85 234.62 86.36 236.82 86.36 239.02 86.36 239.02 83.85 241.22 83.85"/><rect class="cls-21" x="251.43" y="78.81" width="2.2" height="2.52"/><rect class="cls-21" x="228.63" y="91.4" width="2.2" height="2.52"/><polygon class="cls-21" points="239.57 76.29 239.57 73.77 241.77 73.77 241.77 71.25 243.97 71.25 246.17 71.25 246.17 68.73 243.97 68.73 243.97 66.21 241.77 66.21 241.77 68.73 239.57 68.73 239.57 71.25 237.37 71.25 237.37 73.77 235.17 73.77 235.17 76.29 237.37 76.29 239.57 76.29"/><polygon class="cls-21" points="239.57 93.93 239.57 91.4 241.77 91.4 241.77 88.88 239.57 88.88 237.37 88.88 237.37 91.4 235.17 91.4 235.17 93.93 237.37 93.93 239.57 93.93"/><polygon class="cls-21" points="246.17 104 246.17 101.48 243.97 101.48 241.77 101.48 241.77 98.96 239.57 98.96 239.57 101.48 237.37 101.48 237.37 104 235.17 104 232.97 104 232.97 106.52 235.17 106.52 237.37 106.52 239.57 106.52 239.57 104 241.77 104 241.77 106.52 243.97 106.52 243.97 104 246.17 104"/><polygon class="cls-21" points="237.37 66.21 237.37 63.69 235.17 63.69 232.97 63.69 232.97 66.21 230.77 66.21 230.77 68.73 232.97 68.73 235.17 68.73 235.17 66.21 237.37 66.21"/><rect class="cls-21" x="235.17" y="68.73" width="2.2" height="2.52"/><polygon class="cls-21" points="242.87 78.81 240.67 78.81 240.67 81.33 240.67 83.85 240.67 86.36 242.87 86.36 245.07 86.36 245.07 83.85 242.87 83.85 242.87 81.33 245.07 81.33 245.07 78.81 247.26 78.81 247.26 76.29 245.07 76.29 245.07 73.77 242.87 73.77 242.87 76.29 242.87 78.81"/><rect class="cls-21" x="232.97" y="71.25" width="2.2" height="2.52"/><polygon class="cls-21" points="241.77 96.44 241.77 98.96 243.97 98.96 246.17 98.96 246.17 96.44 248.37 96.44 250.57 96.44 250.57 93.93 248.37 93.93 246.17 93.93 243.97 93.93 243.97 96.44 241.77 96.44"/><rect class="cls-21" x="251.43" y="86.36" width="2.2" height="2.52"/><rect class="cls-21" x="243.97" y="88.88" width="2.2" height="2.52"/><polygon class="cls-21" points="251.67 81.33 249.47 81.33 247.26 81.33 247.26 83.85 249.47 83.85 249.47 86.36 251.67 86.36 251.67 83.85 251.67 81.33"/><rect class="cls-21" x="248.37" y="88.88" width="2.2" height="2.52"/><path class="cls-21" d="M237.87,198h6.6V187.82h-8.84v2.53h-2.16v2.51h2.16v2.52h-2.16v2.52h2.16v0h0v2.47h-2.2v5h2.2v-2.53h2.2Zm4.91-8.19v6.3h-5.5v-6.3Z" transform="translate(-11.5 -93.9)"/><polygon class="cls-21" points="254.96 93.93 257.16 93.93 257.16 91.4 254.96 91.4 252.76 91.4 250.57 91.4 250.57 93.93 252.76 93.93 254.96 93.93"/><polygon class="cls-21" points="254.96 83.85 257.16 83.85 257.16 81.33 257.16 78.81 254.96 78.81 254.96 81.33 254.96 83.85"/><polygon class="cls-21" points="237.45 96.54 235.25 96.54 235.25 99.06 235.25 101.58 237.45 101.58 237.45 99.06 237.45 96.54"/><rect class="cls-21" x="257.16" y="93.93" width="2.2" height="2.52"/><polygon class="cls-21" points="259.37 88.88 259.37 86.36 257.16 86.36 257.16 88.88 257.16 91.4 259.37 91.4 259.37 88.88"/><polygon class="cls-21" points="219.77 106.52 217.57 106.52 217.57 109.04 217.57 111.56 219.77 111.56 219.77 109.04 219.77 106.52"/><path class="cls-21" d="M270.87,170.19V157.57h-11v12.62Zm-9.36-1.89v-8.82h7.7v8.82Z" transform="translate(-11.5 -93.9)"/><rect class="cls-21" x="251.67" y="67.47" width="4.4" height="5.04"/><path class="cls-21" d="M270.87,192.86h-11v12.6h11Zm-9.36,10.71v-8.82h7.7v8.82Z" transform="translate(-11.5 -93.9)"/><rect class="cls-21" x="251.67" y="102.74" width="4.4" height="5.04"/><path class="cls-21" d="M229.05,157.59v12.62h11V157.59Zm9.34,1.89v8.82h-7.7v-8.82Z" transform="translate(-11.5 -93.9)"/><rect class="cls-21" x="220.84" y="67.47" width="4.4" height="5.04"/><rect class="cls-24" x="212.23" y="57.39" width="52.19" height="59.78"/><g id="food_delivery_hand_shipping_shopping" data-name="food delivery hand shipping shopping"><path class="cls-25" d="M414.13,277.27l18,5.25a4.51,4.51,0,0,0,5.54-3.48,5,5,0,0,0-3.19-6h0L412,266.47a8.34,8.34,0,0,0-4.54-.05l-9.79,2.67v19.65l4.12,2.24a8.49,8.49,0,0,0,4.05,1h22.59a8.46,8.46,0,0,0,4.53-1.31l25.35-15.88a5.16,5.16,0,0,0,1.65-6.72,4.33,4.33,0,0,0-6.18-1.8l-16.1,10.09" transform="translate(-11.5 -93.9)"/><path class="cls-26" d="M393.09,241.24a3.29,3.29,0,0,0,0,6.56h63.37a3.29,3.29,0,0,0,0-6.56Z" transform="translate(-11.5 -93.9)"/><path class="cls-27" d="M385.55,264.17h12.07v29.48H385.55Z" transform="translate(-11.5 -93.9)"/><path class="cls-28" d="M373.48,267.45h12.07v22.93H373.48Z" transform="translate(-11.5 -93.9)"/><path class="cls-29" d="M397.62,257.62h54.31l3-9.82H394.6Z" transform="translate(-11.5 -93.9)"/><path class="cls-30" d="M454.44,249.43l.51-1.63H394.6l.5,1.63Z" transform="translate(-11.5 -93.9)"/><path class="cls-29" d="M424.77,208.49c-16.66,0-30.17,14.66-30.17,32.75H455C455,223.15,441.44,208.49,424.77,208.49Z" transform="translate(-11.5 -93.9)"/><ellipse class="cls-31" cx="413.27" cy="109.68" rx="4.53" ry="4.91"/><path class="cls-32" d="M382.53,267.45h3v22.93h-3Z" transform="translate(-11.5 -93.9)"/><path class="cls-30" d="M442.88,215.08V226.5c0,7.24-5.41,13.11-12.07,13.11H394.68c0,.54-.08,1.08-.08,1.63H455A33.71,33.71,0,0,0,442.88,215.08Z" transform="translate(-11.5 -93.9)"/><path class="cls-20" d="M456.46,239.61h-.08c-.73-16.26-11.85-29.73-26.66-32.3a6.91,6.91,0,0,0-1.49-9.12,5.73,5.73,0,0,0-8.4,1.62,7,7,0,0,0,0,7.5c-14.81,2.57-25.93,16-26.66,32.3h-.08a4.93,4.93,0,0,0,0,9.82h.42l2.68,8.72a1.54,1.54,0,0,0,1.43,1.11h54.31a1.54,1.54,0,0,0,1.43-1.11l2.67-8.72h.43a4.93,4.93,0,0,0,0-9.82ZM424.77,200.3a3.29,3.29,0,1,1-3,3.28A3.16,3.16,0,0,1,424.77,200.3Zm0,9.83c15.24,0,27.8,13,28.62,29.48H396.15C397,223.09,409.54,210.15,424.77,210.13ZM450.84,256H398.7l-2-6.55h56.15Zm5.62-9.82H393.09a1.65,1.65,0,0,1,0-3.28h63.37a1.65,1.65,0,0,1,0,3.28Z" transform="translate(-11.5 -93.9)"/><path class="cls-20" d="M461.21,267.28a5.8,5.8,0,0,0-8.24-2.4l-14.71,9.22a6,6,0,0,0-3.41-2.67l-22.51-6.54a9.8,9.8,0,0,0-5.29-.05L399.13,267v-2.82a1.59,1.59,0,0,0-1.51-1.64H385.55a1.59,1.59,0,0,0-1.51,1.64v1.64H373.48a1.58,1.58,0,0,0-1.51,1.64v22.93a1.58,1.58,0,0,0,1.51,1.63H384v1.64a1.58,1.58,0,0,0,1.51,1.64h12.07a1.58,1.58,0,0,0,1.51-1.64v-2.26l1.94,1.05a10,10,0,0,0,4.73,1.21h22.58a9.81,9.81,0,0,0,5.28-1.54L459,276.23a6.89,6.89,0,0,0,2.21-9ZM384,288.74H375V269.09H384ZM396.11,292h-9.05v-26.2h9.05Zm61.39-18.62-25.35,15.89a7.1,7.1,0,0,1-3.77,1.1H405.8a7,7,0,0,1-3.38-.87l-3.29-1.79V270.36l8.64-2.34a7,7,0,0,1,3.79,0l22.51,6.56a3.36,3.36,0,0,1,.72,6,2.75,2.75,0,0,1-2.28.33l-18-5.24a1.5,1.5,0,0,0-1.86,1.16,1.65,1.65,0,0,0,1.07,2l18,5.23a6,6,0,0,0,1.57.23,5.59,5.59,0,0,0,3-.89,6.44,6.44,0,0,0,2.82-4,7.46,7.46,0,0,0,.17-2.21l15.19-9.51a2.92,2.92,0,0,1,4.1,1.19,3.43,3.43,0,0,1-1.08,4.47Z" transform="translate(-11.5 -93.9)"/><path class="cls-20" d="M391.58,290.38a1.58,1.58,0,0,0,1.51-1.64V287.1a1.51,1.51,0,1,0-3,0v1.64A1.58,1.58,0,0,0,391.58,290.38Z" transform="translate(-11.5 -93.9)"/><path class="cls-20" d="M449.61,234.28a27.35,27.35,0,0,0-15.22-18.84,1.45,1.45,0,0,0-2,.86,1.68,1.68,0,0,0,.8,2.15l0,0a24.2,24.2,0,0,1,13.43,16.63,1.53,1.53,0,0,0,1.46,1.23,1.57,1.57,0,0,0,.37-.05,1.66,1.66,0,0,0,1.09-2Z" transform="translate(-11.5 -93.9)"/><path class="cls-20" d="M428,213.62a23,23,0,0,0-3.21-.22,1.65,1.65,0,0,0,0,3.28,20.49,20.49,0,0,1,2.83.19h.19a1.57,1.57,0,0,0,1.52-1.63A1.6,1.6,0,0,0,428,213.62Z" transform="translate(-11.5 -93.9)"/></g><text class="cls-33" transform="translate(4 264.77) scale(0.88 1)">Mobile QR<tspan class="cls-34" x="72.89" y="0"> </tspan><tspan x="76.34" y="0">S</tspan><tspan class="cls-35" x="85.5" y="0">c</tspan><tspan class="cls-36" x="92.13" y="0">ann</tspan><tspan class="cls-37" x="119.45" y="0">e</tspan><tspan x="127.65" y="0">r</tspan></text><text class="cls-33" transform="translate(184.18 264.33) scale(0.88 1)"><tspan class="cls-34"> </tspan><tspan x="3.45" y="0">S</tspan><tspan class="cls-35" x="12.61" y="0">c</tspan><tspan x="19.23" y="0">an</tspan><tspan class="cls-38" x="37.55" y="0"> </tspan><tspan class="cls-39" x="40.62" y="0">T</tspan><tspan class="cls-36" x="47.68" y="0">able QR</tspan></text><text class="cls-33" transform="translate(383.91 264.33) scale(0.88 1)"><tspan xml:space="preserve"> Ord</tspan><tspan class="cls-40" x="31.77" y="0">e</tspan><tspan x="39.96" y="0">r</tspan></text></svg>