<svg id="Layer_1" data-name="Layer 1" xmlns="http://www.w3.org/2000/svg" xmlns:xlink="http://www.w3.org/1999/xlink" viewBox="0 0 484.13 439.98"><defs><style>.cls-1{fill:url(#linear-gradient);}.cls-15,.cls-19,.cls-2,.cls-4,.cls-5,.cls-7{fill:none;}.cls-10,.cls-11,.cls-12,.cls-14,.cls-15,.cls-16,.cls-17,.cls-18,.cls-19,.cls-2,.cls-20,.cls-21,.cls-22,.cls-3,.cls-4,.cls-5,.cls-6{stroke:#273339;}.cls-19,.cls-2,.cls-3,.cls-4,.cls-5,.cls-6,.cls-9{stroke-miterlimit:10;}.cls-10,.cls-11,.cls-12,.cls-14,.cls-15,.cls-16,.cls-17,.cls-18,.cls-2,.cls-3,.cls-6,.cls-7,.cls-8,.cls-9{stroke-width:0.69px;}.cls-17,.cls-3{fill:#f1e913;}.cls-4{stroke-width:0.34px;}.cls-5{stroke-width:1.37px;}.cls-11,.cls-13,.cls-20,.cls-22,.cls-6{fill:#273339;}.cls-7,.cls-8,.cls-9{stroke:#b3b3b3;}.cls-10,.cls-11,.cls-12,.cls-14,.cls-15,.cls-16,.cls-17,.cls-18,.cls-20,.cls-21,.cls-22,.cls-7,.cls-8{stroke-linecap:round;stroke-linejoin:round;}.cls-12,.cls-21,.cls-8{fill:#fff;}.cls-9{fill:#b3b3b3;}.cls-10{fill:#e9e8e8;}.cls-14{fill:#d9d9d8;}.cls-16{fill:#575858;}.cls-18{fill:#434343;}.cls-19{stroke-width:7.56px;}.cls-20{stroke-width:0.69px;}.cls-21{stroke-width:0.69px;}.cls-22{stroke-width:0.69px;}</style><linearGradient id="linear-gradient" x1="0.78" y1="291.29" x2="542.31" y2="291.29" gradientTransform="translate(159.84 -94.27) rotate(31.57)" gradientUnits="userSpaceOnUse"><stop offset="0" stop-color="#f0e90d" stop-opacity="0.1"/><stop offset="0.47" stop-color="#f0e90d" stop-opacity="0.7"/><stop offset="0.88" stop-color="#f0e90d"/></linearGradient></defs><path class="cls-1" d="M43.9,447.91c17.56,16.48,37.61,23,207.28,22,178.24-1,195.23-8.44,209-22,58.6-57.71,30.45-199-36-286-88.12-115.36-269.74-169.5-351-103C34.38,90.65,28,142.07,17.24,229.75,6.08,320.33-4.09,402.86,43.9,447.91Z" transform="translate(-7.94 -30.01)"/><g id="freepik--Plant--inject-8"><line class="cls-2" x1="424.91" y1="327.19" x2="432.07" y2="402.2"/><line class="cls-2" x1="430.92" y1="387.84" x2="427.68" y2="384.1"/><path class="cls-3" d="M436.63,415.23a4.16,4.16,0,0,0-1.32-3c-.83-.81-5.22-2.83-5.64-1.14S433.71,416.52,436.63,415.23Z" transform="translate(-7.94 -30.01)"/><line class="cls-4" x1="428.66" y1="385.22" x2="424.48" y2="382.37"/><line class="cls-2" x1="431.74" y1="396.37" x2="428.49" y2="392.62"/><path class="cls-3" d="M437.41,423.76a4.14,4.14,0,0,0-1.31-3c-.84-.81-5.22-2.83-5.64-1.14S434.52,425.05,437.41,423.76Z" transform="translate(-7.94 -30.01)"/><line class="cls-4" x1="429.48" y1="393.75" x2="425.3" y2="390.91"/><line class="cls-2" x1="428.93" y1="367.03" x2="425.68" y2="363.28"/><path class="cls-3" d="M434.61,394.41a4.18,4.18,0,0,0-1.32-3c-.83-.81-5.26-2.83-5.64-1.14C427.23,392.1,431.72,395.7,434.61,394.41Z" transform="translate(-7.94 -30.01)"/><line class="cls-4" x1="426.67" y1="364.4" x2="422.5" y2="361.56"/><line class="cls-2" x1="429.75" y1="375.56" x2="426.5" y2="371.81"/><path class="cls-3" d="M435.42,403a4.22,4.22,0,0,0-1.31-3c-.84-.81-5.26-2.83-5.64-1.14S432.53,404.23,435.42,403Z" transform="translate(-7.94 -30.01)"/><line class="cls-4" x1="427.49" y1="372.94" x2="423.31" y2="370.09"/><line class="cls-2" x1="427.61" y1="353.17" x2="424.36" y2="349.42"/><path class="cls-3" d="M433.29,380.56a4.15,4.15,0,0,0-1.32-3c-.83-.82-5.22-2.83-5.63-1.14S430.39,381.84,433.29,380.56Z" transform="translate(-7.94 -30.01)"/><line class="cls-4" x1="425.35" y1="350.55" x2="421.18" y2="347.7"/><line class="cls-5" x1="426.28" y1="339.26" x2="423.04" y2="335.51"/><path class="cls-3" d="M432,366.66a4.16,4.16,0,0,0-1.32-3c-.83-.81-5.22-2.83-5.64-1.14S429.07,367.93,432,366.66Z" transform="translate(-7.94 -30.01)"/><line class="cls-4" x1="424.02" y1="336.63" x2="419.84" y2="333.78"/><line class="cls-5" x1="430.38" y1="382.8" x2="432.84" y2="378.4"/><path class="cls-3" d="M440,409.75a4.3,4.3,0,0,1,.7-3.24c.66-1,4.6-3.94,5.3-2.38S443.1,410.34,440,409.75Z" transform="translate(-7.94 -30.01)"/><line class="cls-4" x1="432.09" y1="379.72" x2="435.85" y2="375.79"/><line class="cls-2" x1="428.23" y1="360.35" x2="430.7" y2="355.95"/><path class="cls-3" d="M437.88,387.28a4.3,4.3,0,0,1,.72-3.24c.66-1,4.6-3.94,5.3-2.38S441,387.89,437.88,387.28Z" transform="translate(-7.94 -30.01)"/><line class="cls-4" x1="429.94" y1="357.27" x2="433.71" y2="353.34"/><line class="cls-2" x1="427.29" y1="350.48" x2="429.76" y2="346.09"/><path class="cls-3" d="M436.94,377.43a4.32,4.32,0,0,1,.7-3.23c.66-1,4.6-3.95,5.3-2.39S440,378,436.94,377.43Z" transform="translate(-7.94 -30.01)"/><line class="cls-4" x1="429" y1="347.4" x2="432.76" y2="343.48"/><line class="cls-2" x1="425.91" y1="336.02" x2="428.38" y2="331.62"/><path class="cls-3" d="M435.56,363a4.34,4.34,0,0,1,.7-3.24c.65-1,4.6-3.94,5.3-2.38S438.64,363.56,435.56,363Z" transform="translate(-7.94 -30.01)"/><line class="cls-4" x1="427.62" y1="332.94" x2="431.38" y2="329.01"/><path class="cls-3" d="M432.79,356.78a4.32,4.32,0,0,1,.69-3.23c.66-1,4.61-3.95,5.3-2.39S435.86,357.39,432.79,356.78Z" transform="translate(-7.94 -30.01)"/><line class="cls-4" x1="424.85" y1="326.77" x2="428.61" y2="322.85"/><path class="cls-3" d="M433,357a3.48,3.48,0,0,1-2.87-1.09c-.82-.82-3.11-5.38-1.62-6S433.88,353.68,433,357Z" transform="translate(-7.94 -30.01)"/><line class="cls-4" x1="425.07" y1="326.95" x2="421.89" y2="322.45"/><line class="cls-2" x1="443.81" y1="337.52" x2="436.68" y2="412.53"/><line class="cls-2" x1="438.26" y1="398.23" x2="435.79" y2="393.82"/><path class="cls-3" d="M444.47,425.15a4.28,4.28,0,0,0-.69-3.23c-.66-1-4.6-3.94-5.3-2.38S441.4,425.77,444.47,425.15Z" transform="translate(-7.94 -30.01)"/><line class="cls-4" x1="436.54" y1="395.15" x2="432.99" y2="391.42"/><line class="cls-2" x1="440.23" y1="377.41" x2="437.76" y2="373.01"/><path class="cls-3" d="M446.49,404.34a4.26,4.26,0,0,0-.7-3.23c-.66-1-4.6-3.95-5.3-2.4C439.67,400.42,443.38,405,446.49,404.34Z" transform="translate(-7.94 -30.01)"/><line class="cls-4" x1="438.52" y1="374.33" x2="434.97" y2="370.61"/><line class="cls-2" x1="439.42" y1="385.94" x2="436.95" y2="381.54"/><path class="cls-3" d="M445.64,412.87a4.29,4.29,0,0,0-.69-3.24c-.66-1-4.6-3.94-5.31-2.38S442.54,413.48,445.64,412.87Z" transform="translate(-7.94 -30.01)"/><line class="cls-4" x1="437.71" y1="382.86" x2="434.16" y2="379.14"/><line class="cls-2" x1="441.55" y1="363.55" x2="439.08" y2="359.15"/><path class="cls-3" d="M447.8,390.48a4.25,4.25,0,0,0-.7-3.24c-.65-1-4.6-3.94-5.29-2.38S444.7,391.08,447.8,390.48Z" transform="translate(-7.94 -30.01)"/><line class="cls-4" x1="439.83" y1="360.47" x2="436.28" y2="356.75"/><line class="cls-2" x1="442.88" y1="349.64" x2="440.4" y2="345.23"/><path class="cls-3" d="M449.12,376.56a4.32,4.32,0,0,0-.7-3.23c-.66-1-4.6-3.95-5.3-2.39S446,377.17,449.12,376.56Z" transform="translate(-7.94 -30.01)"/><line class="cls-4" x1="441.15" y1="346.55" x2="437.6" y2="342.83"/><line class="cls-2" x1="438.67" y1="393.16" x2="441.92" y2="389.41"/><path class="cls-3" d="M448.87,420.53a4.16,4.16,0,0,1,1.32-3c.83-.81,5.22-2.83,5.64-1.14C456.25,418.22,451.75,421.84,448.87,420.53Z" transform="translate(-7.94 -30.01)"/><line class="cls-4" x1="440.94" y1="390.53" x2="445.35" y2="387.54"/><line class="cls-2" x1="440.8" y1="370.72" x2="444.05" y2="366.97"/><path class="cls-3" d="M451,398.1a4.15,4.15,0,0,1,1.32-3c.83-.82,5.22-2.84,5.63-1.15S453.89,399.38,451,398.1Z" transform="translate(-7.94 -30.01)"/><line class="cls-4" x1="443.07" y1="368.09" x2="447.49" y2="365.09"/><line class="cls-5" x1="441.74" y1="360.85" x2="444.99" y2="357.1"/><path class="cls-3" d="M451.94,388.21a4.15,4.15,0,0,1,1.32-3c.83-.81,5.22-2.83,5.64-1.15C459.32,385.91,454.83,389.52,451.94,388.21Z" transform="translate(-7.94 -30.01)"/><line class="cls-4" x1="444.01" y1="358.22" x2="448.42" y2="355.22"/><line class="cls-2" x1="443.12" y1="346.39" x2="446.37" y2="342.64"/><path class="cls-3" d="M453.32,373.77a4.12,4.12,0,0,1,1.31-3c.84-.82,5.22-2.84,5.63-1.15S456.21,375.05,453.32,373.77Z" transform="translate(-7.94 -30.01)"/><line class="cls-4" x1="445.38" y1="343.76" x2="449.8" y2="340.77"/><path class="cls-3" d="M451.75,367.11a4.13,4.13,0,0,1,1.31-3c.83-.82,5.22-2.84,5.64-1.15C459.15,364.79,454.66,368.4,451.75,367.11Z" transform="translate(-7.94 -30.01)"/><line class="cls-4" x1="443.83" y1="337.1" x2="448.25" y2="334.11"/><path class="cls-3" d="M451.94,367.33a3.66,3.66,0,0,1-2.63-1.73c-.65-1-2-6-.45-6.24C450.61,359.06,453.42,364.32,451.94,367.33Z" transform="translate(-7.94 -30.01)"/><line class="cls-4" x1="444.01" y1="337.32" x2="441.74" y2="332.2"/><line class="cls-2" x1="435.64" y1="306.98" x2="435.64" y2="401.83"/><line class="cls-2" x1="435.72" y1="387.57" x2="432.84" y2="383.47"/><path class="cls-3" d="M441.65,414.71a4.26,4.26,0,0,0-1-3.14c-.75-.9-4.92-3.4-5.5-1.77S438.65,415.67,441.65,414.71Z" transform="translate(-7.94 -30.01)"/><line class="cls-4" x1="433.71" y1="384.7" x2="429.83" y2="381.4"/><line class="cls-2" x1="435.72" y1="369.75" x2="432.84" y2="365.65"/><path class="cls-3" d="M441.65,396.88a4.26,4.26,0,0,0-1-3.14c-.75-.9-4.92-3.4-5.5-1.77S438.65,397.84,441.65,396.88Z" transform="translate(-7.94 -30.01)"/><line class="cls-2" x1="433.71" y1="366.87" x2="429.83" y2="363.58"/><line class="cls-2" x1="435.72" y1="348.82" x2="432.84" y2="344.72"/><path class="cls-3" d="M441.65,376a4.31,4.31,0,0,0-1-3.15c-.75-.9-4.92-3.4-5.5-1.77S438.65,376.92,441.65,376Z" transform="translate(-7.94 -30.01)"/><line class="cls-4" x1="433.71" y1="345.95" x2="429.83" y2="342.65"/><line class="cls-2" x1="435.72" y1="334.88" x2="432.84" y2="330.79"/><path class="cls-3" d="M441.65,362a4.24,4.24,0,0,0-1-3.14c-.75-.91-4.92-3.42-5.5-1.78S438.65,363,441.65,362Z" transform="translate(-7.94 -30.01)"/><line class="cls-4" x1="433.71" y1="332.02" x2="429.83" y2="328.71"/><line class="cls-2" x1="435.72" y1="320.89" x2="432.84" y2="316.8"/><path class="cls-3" d="M441.65,348a4.26,4.26,0,0,0-1-3.14c-.75-.9-4.92-3.41-5.5-1.77S438.65,349,441.65,348Z" transform="translate(-7.94 -30.01)"/><line class="cls-2" x1="433.71" y1="318.03" x2="429.83" y2="314.72"/><line class="cls-2" x1="435.65" y1="393.01" x2="438.52" y2="388.92"/><path class="cls-3" d="M445.59,420.15a4.23,4.23,0,0,1,1-3.13c.75-.91,4.93-3.42,5.5-1.78S448.58,421.11,445.59,420.15Z" transform="translate(-7.94 -30.01)"/><line class="cls-4" x1="437.65" y1="390.15" x2="441.76" y2="386.66"/><line class="cls-2" x1="435.65" y1="364.66" x2="438.52" y2="360.57"/><path class="cls-3" d="M445.59,391.8a4.24,4.24,0,0,1,1-3.14c.75-.91,4.93-3.41,5.5-1.78C452.71,388.67,448.58,392.76,445.59,391.8Z" transform="translate(-7.94 -30.01)"/><line class="cls-4" x1="437.65" y1="361.8" x2="441.76" y2="358.31"/><line class="cls-2" x1="435.65" y1="350.67" x2="438.52" y2="346.58"/><path class="cls-3" d="M445.59,377.81a4.25,4.25,0,0,1,1-3.14c.75-.9,4.93-3.41,5.5-1.78C452.71,374.67,448.58,378.77,445.59,377.81Z" transform="translate(-7.94 -30.01)"/><line class="cls-4" x1="437.65" y1="347.8" x2="441.76" y2="344.32"/><line class="cls-2" x1="435.65" y1="332.18" x2="438.52" y2="328.08"/><path class="cls-3" d="M445.59,359.32a4.24,4.24,0,0,1,1-3.14c.75-.91,4.93-3.41,5.5-1.78C452.71,356.18,448.58,360.27,445.59,359.32Z" transform="translate(-7.94 -30.01)"/><line class="cls-4" x1="437.65" y1="329.31" x2="441.76" y2="325.83"/><line class="cls-2" x1="435.65" y1="317.64" x2="438.52" y2="313.54"/><path class="cls-3" d="M445.59,344.78a4.27,4.27,0,0,1,1-3.15c.75-.9,4.93-3.4,5.5-1.77S448.58,345.74,445.59,344.78Z" transform="translate(-7.94 -30.01)"/><line class="cls-4" x1="437.65" y1="314.77" x2="441.76" y2="311.29"/><path class="cls-3" d="M443.42,338.33a4.24,4.24,0,0,1,1-3.15c.74-.89,4.92-3.4,5.49-1.77S446.41,339.29,443.42,338.33Z" transform="translate(-7.94 -30.01)"/><line class="cls-4" x1="435.48" y1="308.32" x2="439.59" y2="304.84"/><path class="cls-3" d="M443.61,338.52a3.57,3.57,0,0,1-2.75-1.43c-.74-.91-2.58-5.71-1-6.16S444.8,335.36,443.61,338.52Z" transform="translate(-7.94 -30.01)"/><line class="cls-4" x1="435.68" y1="308.52" x2="432.94" y2="303.67"/><polygon class="cls-6" points="439.21 426.43 430.02 426.43 428.87 401.06 440.36 401.06 439.21 426.43"/></g><g id="freepik--Windows--inject-8"><rect class="cls-7" x="20.46" y="126.92" width="60.87" height="45.01"/><rect class="cls-7" x="84.94" y="126.92" width="60.87" height="45.01"/><rect class="cls-7" x="173.73" y="126.92" width="60.87" height="45.01"/><rect class="cls-7" x="238.22" y="126.92" width="60.87" height="45.01"/><rect class="cls-7" x="327" y="126.92" width="60.87" height="45.01"/><rect class="cls-7" x="391.48" y="126.92" width="60.87" height="45.01"/></g><g id="freepik--Boxes--inject-8"><rect class="cls-8" x="258.48" y="361.72" width="47.24" height="55.23"/><rect class="cls-9" x="262.19" y="361.72" width="4.29" height="20.09"/><rect class="cls-8" x="305.68" y="361.72" width="47.24" height="55.23"/><rect class="cls-9" x="309.39" y="361.72" width="4.29" height="20.09"/><rect class="cls-8" x="258.48" y="306.13" width="47.24" height="55.23"/><rect class="cls-9" x="262.19" y="306.13" width="4.29" height="20.09"/><rect class="cls-8" x="305.68" y="306.13" width="47.24" height="55.23"/><rect class="cls-9" x="309.39" y="306.13" width="4.29" height="20.09"/><rect class="cls-8" x="256.67" y="423.8" width="101.14" height="2.64"/><rect class="cls-8" x="256.67" y="414.23" width="101.14" height="2.64"/><rect class="cls-8" x="258.48" y="416.94" width="7.85" height="6.69"/><rect class="cls-8" x="302.01" y="416.94" width="7.85" height="6.69"/><rect class="cls-8" x="345.55" y="416.94" width="7.85" height="6.69"/><rect class="cls-8" x="155.27" y="361.72" width="47.24" height="55.23"/><rect class="cls-9" x="158.98" y="361.72" width="4.29" height="20.09"/><rect class="cls-8" x="202.47" y="361.72" width="47.24" height="55.23"/><rect class="cls-9" x="206.18" y="361.72" width="4.29" height="20.09"/><rect class="cls-8" x="155.27" y="306.13" width="47.24" height="55.23"/><rect class="cls-9" x="158.98" y="306.13" width="4.29" height="20.09"/><rect class="cls-8" x="202.47" y="306.13" width="47.24" height="55.23"/><rect class="cls-9" x="206.18" y="306.13" width="4.29" height="20.09"/><rect class="cls-8" x="153.46" y="423.8" width="101.14" height="2.64"/><rect class="cls-8" x="153.46" y="414.23" width="101.14" height="2.64"/><rect class="cls-8" x="155.27" y="416.94" width="7.85" height="6.69"/><rect class="cls-8" x="198.81" y="416.94" width="7.85" height="6.69"/><rect class="cls-8" x="242.34" y="416.94" width="7.85" height="6.69"/><rect class="cls-8" x="52.06" y="361.72" width="47.24" height="55.23"/><rect class="cls-9" x="55.78" y="361.72" width="4.29" height="20.09"/><rect class="cls-8" x="99.26" y="361.72" width="47.24" height="55.23"/><rect class="cls-9" x="102.98" y="361.72" width="4.29" height="20.09"/><rect class="cls-8" x="52.06" y="306.13" width="47.24" height="55.23"/><rect class="cls-9" x="55.78" y="306.13" width="4.29" height="20.09"/><rect class="cls-8" x="99.26" y="306.13" width="47.24" height="55.23"/><rect class="cls-9" x="102.98" y="306.13" width="4.29" height="20.09"/><rect class="cls-8" x="52.06" y="251.54" width="47.24" height="55.23"/><rect class="cls-9" x="55.78" y="251.54" width="4.29" height="20.09"/><rect class="cls-8" x="99.26" y="251.54" width="47.24" height="55.23"/><rect class="cls-9" x="102.98" y="251.54" width="4.29" height="20.09"/><rect class="cls-8" x="50.25" y="423.8" width="101.14" height="2.64"/><rect class="cls-8" x="50.25" y="414.23" width="101.14" height="2.64"/><rect class="cls-8" x="52.06" y="416.94" width="7.85" height="6.69"/><rect class="cls-8" x="95.6" y="416.94" width="7.85" height="6.69"/><rect class="cls-8" x="139.14" y="416.94" width="7.85" height="6.69"/></g><g id="freepik--Screen--inject-8"><rect class="cls-10" x="242.88" y="106.91" width="179.51" height="153.47"/><rect class="cls-11" x="242.88" y="106.91" width="179.51" height="6.95"/><path class="cls-12" d="M415.81,140.1a1.64,1.64,0,1,0-1.66,1.74h0A1.7,1.7,0,0,0,415.81,140.1Z" transform="translate(-7.94 -30.01)"/><path class="cls-12" d="M421.51,140.1a1.73,1.73,0,0,0-1.6-1.82,1.79,1.79,0,0,0-.07,3.56h0A1.7,1.7,0,0,0,421.51,140.1Z" transform="translate(-7.94 -30.01)"/><path class="cls-12" d="M427.14,140.1a1.72,1.72,0,0,0-1.6-1.82,1.7,1.7,0,0,0-1.66,1.74,1.72,1.72,0,0,0,1.6,1.82h0A1.7,1.7,0,0,0,427.14,140.1Z" transform="translate(-7.94 -30.01)"/><path class="cls-13" d="M262.18,163.11h-.95V152.67h1.35l2.21,7.54v-7.54h.92v10.44H264.6l-2.45-8.45Z" transform="translate(-7.94 -30.01)"/><path class="cls-13" d="M270.23,157.29v1.07h-2.34v3.72h2.87v1.06h-3.95V152.67h3.95v1.05h-2.87v3.59Z" transform="translate(-7.94 -30.01)"/><path class="cls-13" d="M274.29,163.11h-1.47l-1.31-10.44h1l1.11,8.89,1.07-8.88h1l1.05,8.89,1.08-8.9h.95l-1.32,10.44h-1.4l-.92-7.09Z" transform="translate(-7.94 -30.01)"/><path class="cls-13" d="M285.23,157.29v1.07h-2.34v3.72h2.88v1.06h-3.95V152.67h3.95v1.05h-2.88v3.59Z" transform="translate(-7.94 -30.01)"/><path class="cls-13" d="M287.69,163.11h-.94V152.67h1.31l2.22,7.54v-7.54h.94v10.44h-1.11l-2.44-8.45Z" transform="translate(-7.94 -30.01)"/><path class="cls-13" d="M293.71,163.11v-9.39H292v-1.05h4.6v1.05h-1.78v9.39Z" transform="translate(-7.94 -30.01)"/><path class="cls-13" d="M299.39,152.67c1.5,0,2.13.83,2.13,2.38v.85c0,1.15-.37,1.86-1.19,2.15.87.28,1.2,1.06,1.2,2.16v1.63a2.83,2.83,0,0,0,.19,1.25h-1.08a3,3,0,0,1-.18-1.27V160.2c0-1.18-.5-1.55-1.39-1.55h-.75v4.46h-1.06V152.67Zm-.28,4.92c.85,0,1.35-.3,1.35-1.44v-1c0-.94-.31-1.44-1.1-1.44h-1v3.87Z" transform="translate(-7.94 -30.01)"/><path class="cls-13" d="M303.71,152.67v10.44h-1.08V152.67Z" transform="translate(-7.94 -30.01)"/><path class="cls-13" d="M308.2,157.29v1.07h-2.34v3.72h2.87v1.06h-4V152.67h4v1.05h-2.87v3.59Z" transform="translate(-7.94 -30.01)"/><path class="cls-13" d="M313.86,155.17v.32h-1v-.35c0-.94-.33-1.48-1.09-1.48s-1.1.54-1.1,1.47c0,2.35,3.22,2.57,3.22,5.51,0,1.58-.7,2.61-2.16,2.61s-2.15-1-2.15-2.61V160h1v.66c0,.94.36,1.49,1.12,1.49s1.12-.55,1.12-1.49c0-2.33-3.19-2.55-3.19-5.49,0-1.62.66-2.62,2.12-2.62S313.86,153.58,313.86,155.17Z" transform="translate(-7.94 -30.01)"/><path class="cls-14" d="M262.89,168.63h58.24a2.41,2.41,0,0,1,2.3,2.5v9a2.41,2.41,0,0,1-2.3,2.5H262.89a2.4,2.4,0,0,1-2.29-2.5v-9A2.4,2.4,0,0,1,262.89,168.63Z" transform="translate(-7.94 -30.01)"/><path class="cls-14" d="M262.15,271.11h30.14a1.63,1.63,0,0,1,1.55,1.69v8.77a1.63,1.63,0,0,1-1.55,1.7H262.15a1.63,1.63,0,0,1-1.55-1.7V272.8A1.62,1.62,0,0,1,262.15,271.11Z" transform="translate(-7.94 -30.01)"/><path class="cls-11" d="M303.25,271.11h30.14a1.62,1.62,0,0,1,1.55,1.69v8.77a1.63,1.63,0,0,1-1.55,1.7H303.25a1.63,1.63,0,0,1-1.55-1.7V272.8A1.63,1.63,0,0,1,303.25,271.11Z" transform="translate(-7.94 -30.01)"/><path class="cls-14" d="M262.89,191.8H419.27a2.42,2.42,0,0,1,2.3,2.51v9a2.41,2.41,0,0,1-2.3,2.51H262.89a2.4,2.4,0,0,1-2.29-2.51v-9A2.41,2.41,0,0,1,262.89,191.8Z" transform="translate(-7.94 -30.01)"/><rect class="cls-12" x="368.16" y="182.24" width="45.47" height="49.39"/><rect class="cls-12" x="252.66" y="182.24" width="111.56" height="49.39"/><line class="cls-15" x1="371.27" y1="190.25" x2="408.13" y2="190.25"/><line class="cls-15" x1="256.79" y1="190.25" x2="361.33" y2="190.25"/><line class="cls-15" x1="371.57" y1="200.78" x2="408.13" y2="200.78"/><line class="cls-15" x1="256.79" y1="200.78" x2="361.62" y2="200.78"/><line class="cls-15" x1="371.57" y1="211.3" x2="408.13" y2="211.3"/><line class="cls-15" x1="256.79" y1="211.3" x2="361.62" y2="211.3"/><line class="cls-15" x1="371.57" y1="221.82" x2="408.13" y2="221.82"/><line class="cls-15" x1="256.79" y1="221.82" x2="361.62" y2="221.82"/><path class="cls-13" d="M376.65,171.58c.86,0,1.25.57,1.25,1.51v3c0,.93-.39,1.5-1.25,1.5h-1.32v-6Zm0,5.43c.44,0,.65-.3.65-.86v-3.1c0-.55-.21-.86-.65-.86H376V177Z" transform="translate(-7.94 -30.01)"/><path class="cls-13" d="M379.09,176.4l-.21,1.22h-.57l1.06-6h.89l1.05,6h-.61l-.21-1.22Zm.08-.58h1.23l-.62-3.47Z" transform="translate(-7.94 -30.01)"/><path class="cls-13" d="M382.6,177.62v-5.43h-1v-.61h2.63v.61h-1v5.43Z" transform="translate(-7.94 -30.01)"/><path class="cls-13" d="M386.63,174.26v.62h-1.35V177h1.66v.61h-2.25v-6H387v.61h-1.66v2.07Z" transform="translate(-7.94 -30.01)"/><rect class="cls-12" x="382.22" y="140.57" width="8.68" height="9.48"/><rect class="cls-12" x="393.87" y="140.57" width="8.68" height="9.48"/><rect class="cls-12" x="405.52" y="140.57" width="8.68" height="9.48"/><polyline class="cls-15" points="300.65 265.92 331.15 265.92 360.93 302.65 340.6 265.92 374.48 265.92"/><line class="cls-15" x1="295.33" y1="265.92" x2="297.85" y2="265.92"/></g><g id="freepik--Character--inject-8"><path class="cls-12" d="M380,444.12a64.45,64.45,0,0,1-4,6.32c-.89.85-3.12,2.67-4,3.64s.22,2.19,1.23,2.3,13.14,0,13.14,0,1.32-.23,1.45-1a8.84,8.84,0,0,0-.11-4.85,12.41,12.41,0,0,1-.78-4.14l.22-.6-.22-1.44Z" transform="translate(-7.94 -30.01)"/><path class="cls-12" d="M373.18,456.38c1,.13,13.14,0,13.14,0s1.32-.23,1.45-1a14,14,0,0,0,.29-2.75c-1.83.6-3.7,1.44-3.7,1.44H372C371.06,455.05,372.2,456.27,373.18,456.38Z" transform="translate(-7.94 -30.01)"/><line class="cls-15" x1="376.97" y1="422.83" x2="376.12" y2="426.12"/><path class="cls-12" d="M381.33,451.35a.71.71,0,0,1-.2,0,4.46,4.46,0,0,0-3.87-.33.47.47,0,0,1-.66-.25.57.57,0,0,1,.22-.72,5.37,5.37,0,0,1,4.72.3.56.56,0,0,1,.26.71h0A.49.49,0,0,1,381.33,451.35Z" transform="translate(-7.94 -30.01)"/><path class="cls-12" d="M381.76,450a.46.46,0,0,1-.2-.05,4.4,4.4,0,0,0-3.87-.32.48.48,0,0,1-.65-.3.56.56,0,0,1,.21-.68,5.34,5.34,0,0,1,4.72.31.56.56,0,0,1,.24.72.52.52,0,0,1-.45.32Z" transform="translate(-7.94 -30.01)"/><path class="cls-12" d="M382.19,448.54a.45.45,0,0,1-.2,0,4.45,4.45,0,0,0-3.88-.33.48.48,0,0,1-.65-.3.57.57,0,0,1,.21-.67,5.29,5.29,0,0,1,4.72.3.57.57,0,0,1,.26.72A.51.51,0,0,1,382.19,448.54Z" transform="translate(-7.94 -30.01)"/><path class="cls-12" d="M413.73,444.12s3.11,5.46,4,6.32,3.11,2.67,4,3.64-.23,2.19-1.23,2.3-13.15,0-13.15,0-1.32-.23-1.44-1a8.94,8.94,0,0,1,.11-4.85,12.93,12.93,0,0,0,.78-4.14l-.23-.6.23-1.44Z" transform="translate(-7.94 -30.01)"/><path class="cls-12" d="M420.51,456.38c-1,.13-13.15,0-13.15,0s-1.32-.23-1.44-1a14,14,0,0,1-.3-2.75c1.84.6,3.7,1.44,3.7,1.44h12.39C422.62,455.05,421.51,456.27,420.51,456.38Z" transform="translate(-7.94 -30.01)"/><line class="cls-15" x1="400.84" y1="422.83" x2="401.7" y2="426.12"/><path class="cls-12" d="M412.35,451.35a.65.65,0,0,0,.2,0,4.45,4.45,0,0,1,3.87-.33.49.49,0,0,0,.7-.24.57.57,0,0,0-.22-.76h0a5.28,5.28,0,0,0-4.72.3.57.57,0,0,0-.26.71h0A.52.52,0,0,0,412.35,451.35Z" transform="translate(-7.94 -30.01)"/><path class="cls-12" d="M411.92,450a.54.54,0,0,0,.21-.05,4.4,4.4,0,0,1,3.87-.32.49.49,0,0,0,.65-.3.59.59,0,0,0-.21-.68,5.35,5.35,0,0,0-4.72.31.57.57,0,0,0-.25.72.52.52,0,0,0,.45.32Z" transform="translate(-7.94 -30.01)"/><path class="cls-12" d="M411.49,448.54a.45.45,0,0,0,.2,0,4.45,4.45,0,0,1,3.88-.33.48.48,0,0,0,.65-.3.57.57,0,0,0-.21-.67,5.29,5.29,0,0,0-4.72.3.56.56,0,0,0-.24.72.49.49,0,0,0,.44.32Z" transform="translate(-7.94 -30.01)"/><path class="cls-11" d="M415.45,440.76c-.1-.36-.2-.72-.29-1.08a60.5,60.5,0,0,1-1.38-11.06q-2.31-36.25-4.61-72.5c.06.82-21.81.32-23.77.28-4.45-.07-4.17,1.24-4.28,6s-.21,9.64-.3,14.46q-.51,27.74-.45,55.44a17.37,17.37,0,0,1-.37,4.5c-.3,1.16-.84,2.22-1.17,3.36a10.17,10.17,0,0,0,.1,6,19.06,19.06,0,0,1,8.46,1.68c1.64-3.5,2.08-7.51,2.48-11.42l5.92-56.63,7.6,47.72,1.42,8.9c.6,3.8,1.21,7.61,1.87,11.4a24.33,24.33,0,0,1,8.77-1.77C416.25,444.42,415.89,442.55,415.45,440.76Z" transform="translate(-7.94 -30.01)"/><rect class="cls-16" x="378.12" y="328.12" width="18.01" height="2.13"/><rect class="cls-16" x="397.77" y="328.12" width="3.48" height="2.13"/><rect class="cls-16" x="373.73" y="328.12" width="2.76" height="2.13"/><rect class="cls-12" x="385.08" y="328.34" width="4.5" height="1.79"/><path class="cls-12" d="M375.42,319s-8.3,31.52-8.66,32.32,1.81.4,3.85.79a6.76,6.76,0,0,0,5.26-2c.32-.66,3.36-10.9,3.36-10.9Z" transform="translate(-7.94 -30.01)"/><line class="cls-15" x1="367.86" y1="299.23" x2="367.51" y2="298.32"/><line class="cls-15" x1="370.58" y1="306.42" x2="368.26" y2="300.28"/><path class="cls-12" d="M375.6,346l.65.52" transform="translate(-7.94 -30.01)"/><path class="cls-12" d="M369.47,344.58a17.84,17.84,0,0,1,2.73-.91,12.58,12.58,0,0,1,2.63,1.73" transform="translate(-7.94 -30.01)"/><path class="cls-12" d="M413.88,317.18s9.49,27.71,9.74,28.73a8,8,0,0,1,.36,2.88c-.13,1.18-1.8,2-2.16,2s-3-1.84-4.09-2.37-4.33-2.23-4.33-2.23l-1.68-5.91Z" transform="translate(-7.94 -30.01)"/><line class="cls-15" x1="406.48" y1="296.17" x2="406.63" y2="295.49"/><line class="cls-15" x1="404.21" y1="305.92" x2="406.22" y2="297.27"/><line class="cls-15" x1="410.03" y1="310.86" x2="406.15" y2="313.51"/><polygon class="cls-12" points="381.37 279.47 381.76 272.8 389.54 272.8 391.11 280.22 385.89 285.28 381.37 279.47"/><path class="cls-12" d="M389,311.14,375.42,319l5.91,34.15s-.48,3.15-.12,3.81a3.37,3.37,0,0,0,1,1.05h26.56s1.8-1.84,1.8-2.23v-1.73l3.37-36.91-13.48-5.83Z" transform="translate(-7.94 -30.01)"/><polygon class="cls-11" points="384.11 282.69 385.89 288.19 383.48 321.63 387.25 328.16 390.5 321.06 387.14 288.19 389.24 283.26 386.2 279.6 384.11 282.69"/><polygon class="cls-12" points="380.86 278.23 380.54 281.89 383.37 286.93 385.47 281.43 380.86 278.23"/><polygon class="cls-12" points="387.35 281.55 389.03 287.38 392.49 281.31 390.92 277.77 387.35 281.55"/><polygon class="cls-12" points="395.96 320.27 395.49 316.2 398.73 316.85 395.96 320.27"/><path class="cls-12" d="M395,337.93a19.48,19.48,0,0,1-3-.66c-1.08-.39-1.8.13-1,1.31s3.85,1.71,4.21,1.71c0,0,.6,3.41,2.28,4.07a8.08,8.08,0,0,0,2.63.66,3.27,3.27,0,0,0,1.93,1.43c1.08.14,3.6,2.11,3.6,2.11l1.2-3-2.63-2.36-2.63-5-2.52-.92-2.18-.77Z" transform="translate(-7.94 -30.01)"/><path class="cls-12" d="M401.74,341.52l-1.08,1.18a6,6,0,0,1,.12,1.05c0,.53-.84.53-1.45.53a3,3,0,0,1-1.8-.53c-.48-.39-2.4-2.23-2.4-2.23l2-3.94-1.8,1.31a13.59,13.59,0,0,1-1.57,2.49c-.71.79-1-.13-1-.13a17.37,17.37,0,0,1,1.21-3.15,26.78,26.78,0,0,1,2.16-2.23,4.35,4.35,0,0,1,1.44,0,11.26,11.26,0,0,1,3.25,1.71,4.35,4.35,0,0,1,1.44,2.1,4.73,4.73,0,0,1,.12.92" transform="translate(-7.94 -30.01)"/><path class="cls-15" d="M398.62,344.1a2.71,2.71,0,0,1-.13-1.57,36.21,36.21,0,0,1,1.81-3.15" transform="translate(-7.94 -30.01)"/><path class="cls-15" d="M397.53,343.71s-.19-.24-.41-.57,0-.92,0-1.36c0-.79,1.77-4,1.77-4" transform="translate(-7.94 -30.01)"/><path class="cls-12" d="M421.21,343.06s3,5,2.89,6.3-.85,4.2-1.92,4.2a86.11,86.11,0,0,1-9.26-1.31c-3.34-.65-5.65-.92-5.65-.92l-3.37-1.05,2.29-6,2.18.5a20.42,20.42,0,0,1,3.18-.58c1.56-.13,6.77-1.5,6.77-1.5" transform="translate(-7.94 -30.01)"/><path class="cls-15" d="M408.39,345.33a8.1,8.1,0,0,1-1,4.2" transform="translate(-7.94 -30.01)"/><path class="cls-12" d="M368.32,347.13s-2,5.38-2.16,5.74.36,2.88,2.28,2.37,12.14-1.7,13.47-2l3.36-.65h2.63a31.53,31.53,0,0,0,5.29-.27l2.89-1.05a6.28,6.28,0,0,0,2.4-1.71c.12-.39-.36-.78-1.56-.65s-4.93.26-4.93.26,3.37-1.44,4.45-2,.72-1.05.72-1.05a5.79,5.79,0,0,0-2.05.4c-.84.39-9.13,1.57-9.13,1.57l-.94-.88a8.68,8.68,0,0,0,.48-2.37c0-1-.48-1.84-1.09-1.57s-.84,1.84-1,2.36-.72,2.62-.72,2.62l-.24,1.19a53.77,53.77,0,0,1-6.38-1.71,17.53,17.53,0,0,0-4.92-1.44,5.18,5.18,0,0,0-1.68,2.24" transform="translate(-7.94 -30.01)"/><path class="cls-15" d="M379.06,349s-.8,1.93.16,3.15" transform="translate(-7.94 -30.01)"/><path class="cls-17" d="M380.78,342.09l3.66,8.13a.79.79,0,0,0,.71.49l13.35.15a.85.85,0,0,0,.81-.88.7.7,0,0,0-.05-.32l-2.9-8.28a.81.81,0,0,0-.75-.56h-14.1a.84.84,0,0,0-.81.87A.78.78,0,0,0,380.78,342.09Z" transform="translate(-7.94 -30.01)"/><path class="cls-12" d="M396.93,349c-1.2.13-4.93.26-4.93.26s3.37-1.44,4.45-2,.72-1.05.72-1.05a5.69,5.69,0,0,0-2,.39c-.85.4-9.13,1.58-9.13,1.58l-1-.91a8.68,8.68,0,0,0,.48-2.37c0-1-.48-1.84-1.09-1.57s-.84,1.84-1,2.36-.72,2.62-.72,2.62l-.24,1.19-1.27-.28a4.93,4.93,0,0,0,.07,2.77c.13.46.29.9.46,1.34h.14l3.36-.66h2.63a32.73,32.73,0,0,0,5.29-.26l2.89-1.05a6.5,6.5,0,0,0,2.4-1.71C398.6,349.25,398.14,348.84,396.93,349Z" transform="translate(-7.94 -30.01)"/><path class="cls-15" d="M398,349.83a22.67,22.67,0,0,1-2.85,1.29c-.36,0-4.61.53-4.61.53" transform="translate(-7.94 -30.01)"/><path class="cls-12" d="M378.9,446.11c0-.12.07-.25.11-.37a1.65,1.65,0,0,1-.15.25Z" transform="translate(-7.94 -30.01)"/><path class="cls-12" d="M386.15,292.56s-1.08-.86-1.48.43-.59,2.69.2,3.66,1.87,2.69,1.87,2.69Z" transform="translate(-7.94 -30.01)"/><path class="cls-12" d="M401,292.56s1.08-.86,1.47.43.59,2.69-.19,3.66-1.87,2.69-1.87,2.69Z" transform="translate(-7.94 -30.01)"/><path class="cls-12" d="M387.26,301.84s3.95,5.78,4.78,6.09,2.7.71,3.49.17,5-5.68,5.13-8.05.88-11.68-.35-14-3.82-5.75-10.66-3.31C389.65,282.72,383.13,285,387.26,301.84Z" transform="translate(-7.94 -30.01)"/><path class="cls-15" d="M391.81,301.36a2.15,2.15,0,0,0,2,1.24c.95,0,1.51-1.22,1.51-1.22" transform="translate(-7.94 -30.01)"/><path class="cls-15" d="M392.67,304.1s.66.87,2.39,0" transform="translate(-7.94 -30.01)"/><path class="cls-15" d="M388.37,297.7s2.11,1.14,3.39-.05" transform="translate(-7.94 -30.01)"/><path class="cls-15" d="M395.69,297.7a6.39,6.39,0,0,0,3.65-.05" transform="translate(-7.94 -30.01)"/><path class="cls-15" d="M392,296.33a3.93,3.93,0,0,0-3.95-.87" transform="translate(-7.94 -30.01)"/><path class="cls-15" d="M395.4,296.33a4.14,4.14,0,0,1,4.43-.33" transform="translate(-7.94 -30.01)"/><path class="cls-12" d="M382.75,290.57s3.24,4.71,8.63,4.94,7.6-.82,8.95-2,4-3.65,4-3.65a13.16,13.16,0,0,1-1.52-4.47c-.32-2.48-.65-7.31-5.6-9s-10.57.59-12.29,4.36S383.94,289,382.75,290.57Z" transform="translate(-7.94 -30.01)"/><path class="cls-12" d="M388.36,290.47s-.15-5.45.44-7.37,3.81-3.53,3.81-3.53v-2.08" transform="translate(-7.94 -30.01)"/><path class="cls-12" d="M397.89,290.47s.73-5.61-.73-8.18-2.49-2.56-2.49-2.56v-2.24" transform="translate(-7.94 -30.01)"/></g><g id="freepik--Forklift--inject-8"><rect class="cls-11" x="129.32" y="206.12" width="13.48" height="211.64"/><path class="cls-18" d="M157.28,280.74h-8.45c-4.17,0-7.55,3.69-7.55,8.24v6.27a3.47,3.47,0,0,0,3.25,3.64,3,3,0,0,0,1.58-.42l14.47-8.16v-8.58Z" transform="translate(-7.94 -30.01)"/><path class="cls-18" d="M157.28,397.54h-8.45c-4.17,0-7.55,3.7-7.55,8.25h0v6.26a3.46,3.46,0,0,0,3.25,3.64,3,3,0,0,0,1.58-.42l14.47-8.16V398.5Z" transform="translate(-7.94 -30.01)"/><rect class="cls-18" x="124.29" y="200.59" width="6.03" height="46.84"/><rect class="cls-11" x="190.65" y="336.94" width="46.61" height="23.34"/><path class="cls-19" d="M159.73,407.6,179.84,294c2.35-13.26,12.72-23,25.07-23.62l45.79-2.15c4.65-.22,8.63,3.62,9,8.69L267.6,384.4" transform="translate(-7.94 -30.01)"/><polygon class="cls-6" points="187.76 380.25 139.64 372.55 139.64 397.67 190.83 383.93 187.76 380.25"/><path class="cls-6" d="M192.24,353.23,185.51,349l-3.5,1.86-5.7-4.67-2.25,4,2.25,2.68L174.06,354l1.22,2.88s-5.11,3.79-6.33,14.06l-5.31-.22v20.36l6.75-3.37,2.45-.44s13.08-14.74,16.15-21.88A37.88,37.88,0,0,0,192.24,353.23Z" transform="translate(-7.94 -30.01)"/><path class="cls-12" d="M206.2,334.21l-2,1-14.17-1.44s-3.71-2.38-5.88-1.44a9.8,9.8,0,0,0-3.49,2.62s0,4.53,1.09,4.77a7.58,7.58,0,0,0,3.05-.48l1.09-1.19s14,4.05,15.91,4.52,7.63-2.15,7.63-2.15Z" transform="translate(-7.94 -30.01)"/><path class="cls-17" d="M184.2,332.3a9.68,9.68,0,0,0-3.49,2.62s0,4.52,1.09,4.76a7.46,7.46,0,0,0,3-.47l1.09-1.2L190,339.2a3.59,3.59,0,0,0,.84-2.12,19.72,19.72,0,0,0-.52-3.33h-.27S186.36,331.35,184.2,332.3Z" transform="translate(-7.94 -30.01)"/><path class="cls-2" d="M186,333.69l-1.28.24s-1.93,2.34-1.93,3.15a1.32,1.32,0,0,0,1.61,1.06,9.69,9.69,0,0,0,1.31-1.17,2.81,2.81,0,0,0,1.82.58,4.52,4.52,0,0,0,2.14-.58" transform="translate(-7.94 -30.01)"/><polygon class="cls-12" points="208.73 292.53 196.74 303.01 201.53 310.39 208.73 304.67 208.73 292.53"/><polygon class="cls-12" points="196.74 303.01 200.88 312.53 203.5 309.67 199.79 300.15 196.74 303.01"/><path class="cls-12" d="M216.89,314.94l-3,15.24s1.31,12.62,1.31,15a55.59,55.59,0,0,1-1.09,7.62l-.44,1.67s0,9,3.49,10a40.45,40.45,0,0,0,11.33,1.91,10.49,10.49,0,0,0,9.59-5.48c1.75-3.32,1.75-10.48,1.75-13.1s-3.7-23.11-4.36-28.34-7-9.3-8.28-9.77S216.89,314.94,216.89,314.94Z" transform="translate(-7.94 -30.01)"/><path class="cls-12" d="M211.2,292.89,210,295.81s-3.24,2.59-2.49,3.27a14.16,14.16,0,0,1,1.21,1.24s-1.23,5.84-.78,6.36a3,3,0,0,0,3.62.55,2.26,2.26,0,0,1,2.32.45l3.19,6.61,9.81-6.46-1.32-5.47,2.43-4Z" transform="translate(-7.94 -30.01)"/><path class="cls-11" d="M225.54,302.35l2.43-4-13.46-4.22c-.33.64-.9,1.93-.41,2.27a6,6,0,0,1,1.31,1.44s-.16,1.37.73,1.21,2.25-2.12,3.65-1,1.46,2.42.43,3.44a23.94,23.94,0,0,1-1.93,1.7s5.47,4.52,7.23,4.19l1-.19Z" transform="translate(-7.94 -30.01)"/><path class="cls-12" d="M209.71,291.79l-3.59.59s8.38,3.59,10.8,3.55,11.83,5.32,11.83,5.32,4-6.46,1-12.21-8.22-7.25-12.13-5.74S211.67,286.31,209.71,291.79Z" transform="translate(-7.94 -30.01)"/><polygon class="cls-12" points="218.54 275.38 206.77 283.23 207.21 287.28 220.28 278.95 218.54 275.38"/><path class="cls-11" d="M178.54,393.74s-6.95,4.24-8.18,4.69-9.21,2.68-9,4.24.82,2,4.08,2.88,17,2.45,18.8,2.23-.2-12.28-.2-12.28Z" transform="translate(-7.94 -30.01)"/><path class="cls-12" d="M165.45,405.57c3.29.89,17,2.46,18.8,2.24.66-.08.82-1.68.75-3.68a46.57,46.57,0,0,1-23.37-2.05.76.76,0,0,0-.26.59C161.58,404.23,162.19,404.68,165.45,405.57Z" transform="translate(-7.94 -30.01)"/><path class="cls-17" d="M230.63,358.69s-8.78-4.24-9.62-4.91-26.16,1.56-28.41,3.35-19.41,34.6-19.41,34.6l11,7.82L201.42,371s6.53-.22,8.17-.89,11.24-2.46,11.24-2.46,10.42,1.56,13.28.22-.41-6.92-.41-6.92" transform="translate(-7.94 -30.01)"/><polyline class="cls-2" points="193.07 340.29 187.76 333.37 193.69 338.06"/><path class="cls-11" d="M206.19,373.88h39.38V361.24s-1.68-2.24-5.22-.82-6.16,6.53-6.16,6.53S208.24,362.06,206.19,373.88Z" transform="translate(-7.94 -30.01)"/><polygon class="cls-11" points="237.26 336.13 242.49 336.13 251.45 308.59 247.34 307.37 237.26 336.13"/><path class="cls-11" d="M255.28,337.38,248,359l-6.26-2.8a6,6,0,0,1-2.91-7.56c.06-.15.12-.3.19-.44,2.21-4.72,5.74-11.09,9.72-13.88C255.46,329.63,255.85,334.12,255.28,337.38Z" transform="translate(-7.94 -30.01)"/><path class="cls-17" d="M193.86,384.48l-1.23,28.46-22.5,4.31c8.67,6.28,12,18.46,7.78,28.87h93.54a4.45,4.45,0,0,0,4.24-4.63h0V379.91a4.05,4.05,0,0,0-3.51-4.17C259.74,374.56,217.23,371.69,193.86,384.48Z" transform="translate(-7.94 -30.01)"/><ellipse class="cls-20" cx="150.37" cy="406.71" rx="18.05" ry="19.72"/><ellipse class="cls-21" cx="150.36" cy="406.74" rx="8.41" ry="9.19"/><ellipse class="cls-22" cx="257.64" cy="415.98" rx="9.56" ry="10.45"/><path class="cls-12" d="M270,446a4.47,4.47,0,1,0-4.46,4.87h0A4.67,4.67,0,0,0,270,446Z" transform="translate(-7.94 -30.01)"/><path class="cls-17" d="M146.17,419.05c8.93-7.33,21.6-5.36,28.31,4.4a23.75,23.75,0,0,1,3.08,20h1.32c3.41-12.4-3-25.47-14.37-29.19a20,20,0,0,0-19,3.7Z" transform="translate(-7.94 -30.01)"/><path class="cls-15" d="M192.63,412.94s49.43-8,53.17-8.62,14.77-4.94,18.9-29" transform="translate(-7.94 -30.01)"/><rect class="cls-17" x="24.06" y="185.35" width="47.24" height="55.23"/><rect class="cls-13" x="27.77" y="185.35" width="4.29" height="20.09"/><rect class="cls-17" x="71.26" y="185.35" width="47.24" height="55.23"/><rect class="cls-13" x="74.97" y="185.35" width="4.29" height="20.09"/><rect class="cls-17" x="24.06" y="129.77" width="47.24" height="55.23"/><rect class="cls-13" x="27.77" y="129.77" width="4.29" height="20.09"/><rect class="cls-17" x="71.26" y="129.77" width="47.24" height="55.23"/><rect class="cls-13" x="74.97" y="129.77" width="4.29" height="20.09"/><rect class="cls-12" x="22.24" y="247.43" width="101.14" height="2.64"/><rect class="cls-12" x="22.24" y="237.87" width="101.14" height="2.64"/><rect class="cls-12" x="24.06" y="240.58" width="7.85" height="6.69"/><rect class="cls-12" x="67.6" y="240.58" width="7.85" height="6.69"/><rect class="cls-12" x="111.13" y="240.58" width="7.85" height="6.69"/><path class="cls-12" d="M212.09,341.11s-11.55,4.31-13.29,5a3.69,3.69,0,0,0-2.19,1.9s-1.52,4-.21,4.76,4.6.24,4.6.24,2,.48,2.4-.47a15.07,15.07,0,0,0,.65-3.34s10-.72,12.21-1a7.7,7.7,0,0,0,4-1.91Z" transform="translate(-7.94 -30.01)"/><path class="cls-17" d="M203.37,352.54a14.29,14.29,0,0,0,.66-3.31,5.78,5.78,0,0,1-3.43-1.63,1.76,1.76,0,0,1-.65-1.94l-1.17.46a3.72,3.72,0,0,0-2.19,1.9s-1.52,4.05-.21,4.76,4.6.24,4.6.24S202.94,353.5,203.37,352.54Z" transform="translate(-7.94 -30.01)"/><path class="cls-12" d="M221.67,315.66a19.34,19.34,0,0,0-3,5.75c-.66,2.65-2.4,12.14-2.4,12.14l-1.75,3.59-2.4,4.05a6.5,6.5,0,0,0,4.37,4.76c3.7,1.19,4.6,1.67,5.45.72a51.64,51.64,0,0,0,5.45-11.44c.85-3.33,4.36-12.62,4.36-12.62" transform="translate(-7.94 -30.01)"/><path class="cls-12" d="M214.49,337.07l-5,3.33a16.22,16.22,0,0,0,2.18,4.76,7.62,7.62,0,0,0,4.61,3.1h3.05l3.49-2.16s-4.8-.72-6.32-4.31S214.49,337.07,214.49,337.07Z" transform="translate(-7.94 -30.01)"/><polygon class="cls-6" points="175.91 312.16 178.36 319.3 184.9 322.65 187.15 318.41 175.91 312.16"/><path class="cls-13" d="M202.06,353.64a1.16,1.16,0,0,1-.57-.15l-22.24-12.86a1.41,1.41,0,0,1-.42-1.84,1.16,1.16,0,0,1,1.57-.53l22.23,12.86a1.4,1.4,0,0,1,.53,1.8,1.21,1.21,0,0,1-1.1.72Z" transform="translate(-7.94 -30.01)"/></g></svg>