<?xml version="1.0" encoding="utf-8"?>
<!-- Generator: Adobe Illustrator 24.3.0, SVG Export Plug-In . SVG Version: 6.00 Build 0)  -->
<svg version="1.1" id="Layer_1" xmlns="http://www.w3.org/2000/svg" xmlns:xlink="http://www.w3.org/1999/xlink" x="0px" y="0px"
	 viewBox="0 0 500 500" style="enable-background:new 0 0 500 500;" xml:space="preserve">
<style type="text/css">
	.st0{fill:url(#SVGID_1_);}
	.st1{opacity:0.7;}
	.st2{fill:#FFAB15;stroke:#FF9D00;stroke-width:4;stroke-miterlimit:10;}
	.st3{opacity:0.2;fill:#FFAB15;stroke:#FF9D00;stroke-width:4;stroke-miterlimit:10;enable-background:new    ;}
	.st4{fill:#455A64;stroke:#000000;stroke-width:0.9601;stroke-miterlimit:10;}
	.st5{fill:#455A64;stroke:#000000;stroke-miterlimit:10;}
	.st6{fill:#FFFFFF;stroke:#000000;stroke-width:0.9601;stroke-miterlimit:10;}
	.st7{fill:#455A64;}
	.st8{fill:#263238;stroke:#000000;stroke-width:0.9601;stroke-miterlimit:10;}
	.st9{fill:#263238;}
	.st10{fill:#F9FF00;}
	.st11{fill:#455A64;stroke:#000000;stroke-width:0.24;stroke-miterlimit:10;}
	.st12{fill:#FFC300;}
	.st13{fill:#FFBE9D;}
	.st14{fill:#EB996E;}
	.st15{fill:#B78876;}
	.st16{fill:#FFFFFF;}
	.st17{fill:#A36957;}
	.st18{opacity:0.2;enable-background:new    ;}
	.st19{fill:#FFBE9D;stroke:#000000;stroke-width:0.24;stroke-miterlimit:10;}
	.st20{fill:#FAFAFA;}
</style>
<g>
	<linearGradient id="SVGID_1_" gradientUnits="userSpaceOnUse" x1="27.9165" y1="226.4739" x2="484.1997" y2="226.4739">
		<stop  offset="0" style="stop-color:#F9FF09;stop-opacity:0.1"/>
		<stop  offset="0.5524" style="stop-color:#F9FF00;stop-opacity:0.63"/>
		<stop  offset="1" style="stop-color:#F9FF00"/>
	</linearGradient>
	<path class="st0" d="M379.9,346.8c16.3,0.1,32.4-3.8,46.9-11.6c14.5-7.7,27-19,36.5-32.8l0.4-0.6c20.1-29.5,23.8-68.5,17.9-104.2
		c-4.1-25.1-13.3-50.4-31.6-67.3c-16.4-15.1-38.4-21.8-60.2-23.7c-34.2-3-69.4,5.5-98.6,24.4c-21.5,13.9-40,33.4-63.8,42.5
		c-50.1,19.2-110-12.7-157.8,12.2c-31.9,16.6-49.3,58.8-38.8,94.4c8.3,28.2,28.8,49,58.2,59.1c11.2,3.8,22.8,5.7,34.6,5.7
		L379.9,346.8z"/>
	<g class="st1">
		<g>
			<path class="st2" d="M49.7,229.5c0.4,0,0.7-0.2,1-0.4c0.4-0.3,0.6-0.6,0.7-1.1c0.1-0.3,0.1-0.6,0.1-0.8c0-0.3,0-0.6,0-1
				c0-2.8,0.1-6.7,0.1-11.6c0-1.2,0-2.5,0-3.8c0-0.7,0-1.4,0-2c0-0.3,0-0.7,0-1c-0.1-0.3-0.2-0.6-0.5-0.9c-0.2-0.2-0.5-0.4-0.9-0.5
				c-0.4,0-0.7,0-1.1,0h-2.3h-4.9H20.5c-0.4,0-0.8,0.2-1.2,0.5c-0.3,0.3-0.5,0.7-0.5,1.1l0,2.7c0,1.8-0.1,3.6-0.1,5.4
				c-0.1,3.5-0.1,6.9-0.2,10.2v1.2c0,0.4,0.1,0.7,0.3,1c0.2,0.3,0.5,0.5,0.8,0.7c0.4,0.1,0.7,0.1,1.1,0.1h4.6h8.2l11.9,0.1l3.2,0
				h0.8L49.7,229.5c-0.1-0.1-0.2-0.1-0.3-0.1h-0.8h-3.2l-11.9,0.1h-8.2h-4.6c-0.4,0-0.8,0-1.2-0.1c-0.4-0.2-0.8-0.4-1-0.8
				c-0.2-0.4-0.3-0.8-0.3-1.2c0-0.4,0-0.8,0-1.2c0-3.2,0.1-6.6,0.1-10.2c0-1.8,0.1-3.6,0.1-5.4c0-0.9,0-1.8,0-2.8
				c0.1-0.5,0.3-0.9,0.7-1.2c0.4-0.3,0.9-0.5,1.4-0.5h21.6h7.2c0.4,0,0.8,0,1.2,0c0.4,0.1,0.8,0.3,1,0.6c0.3,0.3,0.5,0.6,0.5,1
				c0,0.4,0,0.7,0,1.1c0,0.7,0,1.4,0,2c0,1.3,0,2.6-0.1,3.8c-0.1,4.9-0.2,8.8-0.2,11.6c0,0.3,0,0.7,0,1c0,0.3,0,0.6-0.1,0.9
				c-0.1,0.4-0.4,0.8-0.8,1.1c-0.2,0.2-0.5,0.3-0.8,0.3C49.9,229.5,49.8,229.5,49.7,229.5z"/>
			<path class="st2" d="M36.3,216l4,2.4l-4.1,2.3l-4.1,2.3l0.1-4.7l0.1-4.7L36.3,216z"/>
		</g>
		<path class="st2" d="M407.6,147.6c1.3-0.6,2.4-1.5,3.2-2.7c0.8-1.2,1.2-2.6,1.2-4c0-4-3.1-7.2-6.9-7.3c-3.8,0-7,3.2-7,7.2
			c0,1.4,0.4,2.8,1.2,4c0.8,1.2,1.9,2.1,3.2,2.7c-10.7,1.6-10.2,12.9-10.2,12.9l25.3,0.1C417.6,160.5,418.2,149.1,407.6,147.6z"/>
		<g>
			<path class="st2" d="M257.8,122.1l-41,3.8l2.6,26.9l41-3.8L257.8,122.1z"/>
			<path class="st2" d="M260.4,149c0,0,0-0.2-0.1-0.5l-0.2-1.4c-0.1-1.3-0.3-3.1-0.6-5.4c-0.5-4.7-1.2-11.4-2-19.6l0.2,0.1l-41,3.9
				l0.2-0.2v0.2v0.2l0,0.4l0.1,0.9l0.2,1.8l0.3,3.5c0.2,2.3,0.4,4.6,0.7,6.9c0.4,4.5,0.9,8.8,1.2,12.9l-0.2-0.2l29.5-2.6l8.4-0.7
				l2.3-0.2l0.6,0L260.4,149l-0.2,0.1l-0.6,0.1l-2.2,0.2l-8.4,0.8l-29.6,2.8h-0.2v-0.2c-0.4-4.1-0.8-8.4-1.3-12.9
				c-0.2-2.3-0.4-4.5-0.7-6.9c-0.1-1.2-0.2-2.3-0.3-3.5l-0.2-1.8l-0.1-0.9l0-0.4v-0.2v-0.2l0.2-0.2l41-3.8h0.2v0.2
				c0.7,8.2,1.4,15,1.8,19.7c0.2,2.3,0.4,4.1,0.5,5.4c0.1,0.6,0.1,1.1,0.1,1.4C260.5,149,260.4,149,260.4,149z"/>
			<path class="st2" d="M257.8,122.1c-0.1,0.2-0.2,0.3-0.3,0.4l-1,1.1c-0.9,1-2.1,2.3-3.6,4l-12.1,13.2l-0.1,0.1l-0.1-0.1l-1.1-0.7
				l-16-10l-4.8-3.1l-1.3-0.9c-0.2-0.1-0.3-0.2-0.4-0.3c0.2,0.1,0.3,0.2,0.5,0.3l1.3,0.8l4.9,3l16.1,9.9l1.1,0.7h-0.3l12.2-13.1
				l3.7-3.9l1-1.1C257.6,122.3,257.7,122.2,257.8,122.1z"/>
		</g>
		<g>
			<path class="st2" d="M166.7,154.2c-0.1-0.9-0.2-1.7-0.4-2.6c-0.3-1-0.7-1.9-1.2-2.8c-0.7-1.2-1.7-2.2-2.8-3
				c-1.4-1.1-3.1-1.8-4.9-2c-1.8-0.3-3.6-0.1-5.3,0.5c-2,0.7-3.7,2-5,3.7c-1.4,1.8-2.1,4-2.1,6.2c0,2.2,0.7,4.4,2.1,6.2
				c1.3,1.7,3,2.9,5,3.7c2.4,0.8,4.9,0.9,7.3,0c2.4-0.8,4.4-2.4,5.7-4.5c0.6-0.9,1-1.8,1.2-2.8C166.5,156,166.6,155.1,166.7,154.2
				c0,0.1,0,0.1,0,0.2v0.5c0,0.3,0,0.6-0.1,0.8c0,0.4-0.1,0.7-0.2,1.1c-0.2,1-0.6,2-1.2,2.9c-1.3,2.2-3.3,3.8-5.8,4.7
				c-2.4,0.9-5.1,0.9-7.5,0c-1-0.3-2-0.8-2.8-1.4c-0.9-0.6-1.7-1.4-2.4-2.3c-1.4-1.9-2.2-4.1-2.2-6.4s0.8-4.6,2.2-6.4
				c0.7-0.9,1.4-1.7,2.4-2.3c0.9-0.6,1.8-1.1,2.8-1.4c1.7-0.6,3.6-0.8,5.5-0.5c1.8,0.3,3.6,1,5,2.1c1.1,0.8,2.1,1.9,2.8,3.1
				c0.5,0.9,0.9,1.9,1.2,2.9c0.1,0.4,0.2,0.7,0.2,1.1c0,0.3,0.1,0.5,0.1,0.8v0.5C166.7,154.1,166.7,154.2,166.7,154.2z"/>
			<path class="st2" d="M181.4,172c-0.1,0.1-3.9-2.3-8.6-5.4c-4.7-3.1-8.5-5.7-8.4-5.7c0.1-0.1,3.9,2.3,8.6,5.4
				C177.7,169.4,181.5,171.9,181.4,172z"/>
		</g>
		<path class="st2" d="M213.9,191.7l-8.6-9l2.8-2.5l5.9,6.2l12.4-11.9l2.7,2.6L213.9,191.7z"/>
		<g>
			<path class="st2" d="M454.4,183.1h0.4h0.5l0.7,0.1c1.6,0.2,3,0.9,4.3,1.8c2,1.5,3.3,3.8,3.6,6.3c0.1,0.7,0.1,1.5,0.1,2.2
				c0,0.8,0,1.6,0,2.4c0,1.6,0,3.3,0,5.1s0,3.7,0,5.7c0,1,0,2,0,3c0.1,1.1-0.1,2.1-0.3,3.2c-0.4,1.7-1.4,3.2-2.6,4.4
				c-1.3,1.2-2.9,2-4.6,2.4c-1.2,0.2-2.4,0.3-3.7,0.2H420l0.1,0l-7.4,7.2l-0.3,0.3v-7.6l0.2,0.2c-0.8,0-1.6,0-2.4-0.1
				c-0.8-0.1-1.6-0.3-2.4-0.6c-1.5-0.6-2.8-1.5-3.8-2.7c-1-1.2-1.7-2.6-2-4.2c-0.1-0.7-0.2-1.5-0.2-2.3v-2.2c0-2.9,0-5.9,0-8.7V195
				c0-1.4,0-2.8,0.1-4.1c0.2-1.3,0.7-2.6,1.5-3.8c0.7-1.1,1.7-2,2.8-2.7c1.1-0.7,2.4-1.2,3.7-1.4c1.3-0.1,2.5-0.2,3.8-0.1h13.7
				l19.8,0.1h5.4h1.4L454.4,183.1l-0.4-0.1h-1.4h-5.4l-19.8,0.1h-13.7c-1.2,0-2.5,0-3.7,0.1c-2,0.3-3.8,1.2-5.2,2.5
				c-1.4,1.4-2.3,3.1-2.6,5c-0.1,1.4-0.2,2.7-0.1,4.1v4.2c0,2.9,0,5.7,0,8.7c-0.1,1.5,0,3,0.2,4.4c0.3,1.5,1,2.8,2,4
				c1.5,1.8,3.6,2.9,6,3.2c0.8,0.1,1.6,0.1,2.4,0.1h0.2v7.5l-0.3-0.1l7.4-7.2l0.1-0.1h0.1h32.8c1.2,0.1,2.4,0,3.6-0.2
				c1.2-0.2,2.2-0.7,3.2-1.3c1.9-1.2,3.2-3.1,3.8-5.2c0.3-1,0.4-2,0.3-3c0-1,0-2,0-3c0-2,0-3.9,0-5.7c0-1.8,0-3.5,0-5.1
				c0-0.8,0-1.6,0-2.4c0-0.8,0-1.5-0.1-2.2c-0.3-2.4-1.5-4.6-3.5-6.2c-1.2-1-2.7-1.6-4.2-1.9l-0.7-0.1h-0.5L454.4,183.1z"/>
			<path class="st2" d="M425.2,202.6c0,0,0-0.2-0.1-0.5c-0.1-0.4-0.4-0.8-0.8-1c-0.3-0.2-0.6-0.3-0.9-0.3c-0.3,0-0.6,0-1,0.1
				c-0.4,0.1-0.7,0.4-0.9,0.7c-0.2,0.3-0.3,0.7-0.3,1.1s0.1,0.8,0.3,1.1c0.2,0.3,0.5,0.6,0.9,0.7c0.3,0.1,0.6,0.1,1,0.1
				c0.3,0,0.6-0.2,0.9-0.3c0.4-0.3,0.6-0.6,0.8-1C425.2,202.8,425.2,202.6,425.2,202.6c0,0.2,0,0.4,0,0.5c-0.1,0.5-0.3,0.9-0.7,1.2
				c-0.3,0.2-0.6,0.4-1,0.5c-0.4,0.1-0.8,0-1.1-0.1c-0.4-0.2-0.8-0.4-1.1-0.8c-0.3-0.4-0.4-0.8-0.4-1.3s0.1-0.9,0.4-1.3
				c0.3-0.4,0.7-0.7,1.1-0.8c0.4-0.1,0.7-0.2,1.1-0.1c0.4,0.1,0.7,0.2,1,0.4c0.4,0.3,0.7,0.7,0.7,1.2
				C425.3,202.3,425.3,202.5,425.2,202.6z"/>
			<path class="st2" d="M435,202.6c-0.1-0.2-0.1-0.3-0.1-0.5c-0.1-0.4-0.4-0.8-0.8-1.1c-0.3-0.2-0.6-0.3-0.9-0.3c-0.3,0-0.7,0-1,0.1
				c-0.4,0.1-0.7,0.4-0.9,0.7c-0.2,0.3-0.3,0.7-0.3,1.1c0,0.4,0.1,0.8,0.3,1.1c0.2,0.3,0.5,0.6,0.9,0.7c0.3,0.1,0.6,0.1,1,0.1
				c0.3,0,0.6-0.2,0.9-0.3c0.4-0.3,0.6-0.6,0.8-1C434.9,202.9,434.9,202.7,435,202.6c0,0,0.1,0.2,0,0.5c-0.1,0.5-0.3,0.9-0.7,1.2
				c-0.3,0.2-0.6,0.4-1,0.5c-0.4,0.1-0.8,0-1.1-0.1c-0.4-0.2-0.8-0.4-1.1-0.8c-0.3-0.4-0.4-0.8-0.4-1.3s0.1-0.9,0.4-1.3
				c0.3-0.4,0.7-0.7,1.1-0.8c0.4-0.1,0.7-0.2,1.1-0.1s0.7,0.2,1,0.4c0.4,0.3,0.6,0.7,0.7,1.2C435,202.4,435,202.6,435,202.6z"/>
			<path class="st2" d="M444.7,202.6c-0.1-0.2-0.1-0.3-0.1-0.5c-0.1-0.4-0.4-0.8-0.7-1.1c-0.3-0.2-0.6-0.3-0.9-0.3
				c-0.3,0-0.7,0-1,0.1c-0.4,0.1-0.7,0.4-0.9,0.7c-0.2,0.3-0.3,0.7-0.3,1.1c0,0.4,0.1,0.8,0.3,1.1c0.2,0.3,0.5,0.6,0.9,0.7
				c0.3,0.1,0.6,0.1,1,0.1c0.3,0,0.6-0.2,0.9-0.3c0.4-0.3,0.6-0.6,0.7-1C444.7,202.7,444.7,202.6,444.7,202.6c0,0,0.1,0.2,0,0.5
				c-0.1,0.5-0.3,0.9-0.7,1.2c-0.3,0.2-0.6,0.4-1,0.5c-0.4,0.1-0.8,0-1.1-0.1c-0.4-0.2-0.8-0.4-1.1-0.8c-0.3-0.4-0.4-0.8-0.4-1.3
				s0.1-0.9,0.4-1.3c0.3-0.4,0.7-0.7,1.1-0.8c0.4-0.1,0.7-0.2,1.1-0.1c0.4,0.1,0.7,0.2,1,0.4c0.4,0.3,0.6,0.7,0.7,1.2
				C444.8,202.4,444.7,202.6,444.7,202.6z"/>
		</g>
		<g>
			<path class="st2" d="M86.1,153.5c0-6.1-6.6-10-13.4-7c-1.5,0.7-2.8,1.9-3.6,3.3c-1.7,3.2-0.9,6.9,0.6,9.9l5.3,13
				c0.2,0.4,0.5,0.8,0.8,1c0.4,0.2,0.8,0.4,1.3,0.4c0.5,0,0.9-0.1,1.3-0.4c0.4-0.2,0.7-0.6,0.8-1l5.1-13
				C86.2,155.7,86.1,153.5,86.1,153.5z M79.7,158.8c-4.5,2.6-9.1-2.2-6.6-6.9c0.3-0.6,0.8-1.1,1.5-1.5c4.5-2.6,9.1,2.2,6.6,6.9
				C80.9,157.9,80.4,158.5,79.7,158.8z"/>
			<path class="st2" d="M109.4,174.7c0,0,0,0.1,0.1,0.2c0.1,0.2,0.1,0.4,0.2,0.7l0.9,2.7c0.8,2.4,2,5.9,3.5,10.4l0,0.1H114
				l-14.8-2.6h-0.1v-0.1l0.2,0.1c-6.5,4.7-14.3,7.2-22.4,7.2c-1.8,0-3.6-0.2-5.5-0.4c-1.9-0.3-3.7-0.7-5.5-1.2l-2.7-1
				c-0.5-0.2-0.9-0.3-1.4-0.6l-1.3-0.6c-3.7-1.8-7-4.2-9.9-7c-3-3-5.5-6.5-7.3-10.3c-2.6-5.6-3.8-11.8-3.3-17.9
				c0.5-6.1,2.6-12.1,6.1-17.2c3.5-5.1,8.3-9.3,14-12.1c5.6-2.8,11.9-4.1,18.2-3.9c9.2,0.3,17.9,4,24.4,10.2
				c6.6,6.2,10.5,14.6,11.1,23.6c0.3,3.7-0.1,7.4-1,11c-0.6,2.3-1.4,4.5-2.4,6.6c-0.4,0.7-0.6,1.3-0.9,1.6L109.4,174.7l0.3-0.5
				c0.2-0.4,0.5-0.9,0.8-1.6c1-2.1,1.8-4.3,2.4-6.6c0.9-3.6,1.2-7.3,0.9-10.9c-0.4-5.4-2-10.6-4.7-15.4c-2.7-4.7-6.5-8.7-11.1-11.8
				c-6.1-4.1-13.2-6.3-20.6-6.3c-7.4-0.1-14.6,2-20.7,6c-7.2,4.7-12.5,11.8-14.9,20c-2.4,8.2-1.7,16.9,2,24.6
				c1.8,3.8,4.2,7.2,7.2,10.2c2.9,2.8,6.2,5.1,9.8,6.9l1.3,0.6c0.4,0.2,0.9,0.4,1.3,0.6l2.7,1c1.8,0.5,3.6,0.9,5.5,1.2
				c1.8,0.3,3.6,0.4,5.4,0.5c8,0.1,15.8-2.4,22.2-7.1l0.2-0.1v0.2l-0.1-0.1l14.8,2.7l-0.1,0.1l-3.4-10.4l-0.9-2.7
				c-0.1-0.3-0.2-0.5-0.2-0.7C109.4,174.7,109.4,174.6,109.4,174.7L109.4,174.7z"/>
		</g>
		<g>
			<path class="st2" d="M347.4,144.6c-0.1-0.4-0.2-0.8-0.1-1.3c0-0.5-0.1-1-0.2-1.5c-0.1-0.7-0.2-1.4-0.4-2
				c-0.5-1.9-1.2-3.6-2.2-5.3c-1.3-2.2-3-4.1-5-5.6c-2.4-1.9-5.3-3.2-8.4-3.8c-3.5-0.7-7.1-0.5-10.5,0.6c-1.8,0.6-3.6,1.4-5.1,2.5
				c-1.7,1.1-3.1,2.5-4.3,4c-2.6,3.3-4.1,7.3-4.2,11.4c-0.1,4.1,1.2,8.2,3.6,11.6c0.6,0.8,1.2,1.6,1.9,2.3c0.7,0.7,1.4,1.3,2.2,1.9
				c1.5,1.2,3.2,2.1,5,2.8c3.3,1.3,6.9,1.7,10.5,1.1c3.1-0.5,6-1.6,8.6-3.4c2.1-1.5,3.9-3.3,5.3-5.4c1.1-1.6,1.9-3.3,2.4-5.2
				c0.2-0.7,0.4-1.3,0.5-2c0.1-0.5,0.2-1,0.3-1.5C347.2,145.5,347.2,145.1,347.4,144.6c0,0.4,0,0.9,0,1.3c0,0.5-0.1,1-0.1,1.6
				c-0.1,0.7-0.2,1.4-0.4,2.1c-0.5,1.9-1.3,3.7-2.3,5.4c-1.6,2.5-3.6,4.6-6.1,6.2c-2.5,1.6-5.2,2.7-8.2,3.2c-3.7,0.6-7.5,0.2-11-1.1
				c-1.9-0.7-3.7-1.7-5.3-2.9c-0.8-0.6-1.6-1.3-2.3-2c-0.7-0.8-1.4-1.6-2-2.4c-2.6-3.6-3.9-7.9-3.8-12.2c0.1-4.4,1.7-8.6,4.4-12
				c0.7-0.8,1.4-1.6,2.1-2.3c0.8-0.7,1.6-1.4,2.4-2c1.6-1.1,3.5-2,5.4-2.6c3.6-1.2,7.4-1.4,11.1-0.6c2.9,0.6,5.6,1.8,8,3.6
				c2.4,1.7,4.3,3.9,5.8,6.5c1,1.7,1.7,3.6,2.1,5.5c0.2,0.7,0.3,1.4,0.3,2.1c0.1,0.5,0.1,1,0.1,1.6
				C347.5,143.8,347.4,144.2,347.4,144.6z"/>
			<path class="st2" d="M343.3,132.2c0,0.1-0.3,0.4-1,0.9l-1.3,0.9c-0.3,0.2-0.5,0.4-0.8,0.6l-1,0.5c-3.7,2-7.8,3.1-12.1,3l-1.8-0.1
				l-1.7-0.3c-0.3,0-0.6-0.1-0.9-0.1l-0.8-0.2c-0.5-0.1-1.1-0.3-1.6-0.4c-1.8-0.6-3.5-1.4-5.1-2.3c-2.7-1.6-4.1-3.1-4-3.2
				c0.1-0.1,1.6,1.1,4.4,2.5c1.6,0.8,3.3,1.5,5,2c0.5,0.1,1,0.3,1.5,0.4l0.8,0.2l0.8,0.1l1.7,0.2l1.7,0.1c4,0.1,8.1-0.8,11.7-2.6
				l1-0.4c0.3-0.2,0.6-0.3,0.9-0.5l1.4-0.7C342.8,132.3,343.2,132.1,343.3,132.2z"/>
			<path class="st2" d="M310.5,156.5c0-0.1,0.3-0.4,1-0.9l1.3-0.9c0.3-0.2,0.5-0.4,0.8-0.6l1-0.5c3.7-2,7.8-3.1,12.1-3l1.8,0.1
				l1.7,0.3c0.3,0.1,0.6,0.1,0.9,0.1l0.8,0.2c0.5,0.2,1.1,0.3,1.6,0.4c1.8,0.6,3.5,1.4,5.1,2.3c2.7,1.6,4.1,3.1,4,3.2
				s-1.6-1.1-4.4-2.5c-1.6-0.8-3.3-1.5-5-2c-0.5-0.1-1-0.2-1.5-0.4l-0.8-0.2l-0.8-0.1l-1.7-0.2l-1.7-0.1c-4-0.1-8.1,0.8-11.7,2.6
				l-1,0.5c-0.3,0.2-0.6,0.3-0.9,0.5l-1.4,0.8C311,156.3,310.5,156.5,310.5,156.5z"/>
			<path class="st2" d="M347.4,145.1c0,0.3-9.2,0.3-20.6,0.1c-11.4-0.3-20.5-0.7-20.5-1c0-0.3,9.2-0.3,20.6-0.1
				C338.2,144.3,347.4,144.8,347.4,145.1z"/>
			<path class="st2" d="M325.9,164.1c-0.3,0-0.3-9-0.1-20c0.3-11,0.7-20,1.1-20c0.3,0,0.3,9,0.1,20
				C326.7,155.2,326.2,164.1,325.9,164.1z"/>
			<path class="st2" d="M325.9,164.1c-0.1,0.1-2.3-1.4-4.9-4.8c-1.5-2-2.8-4.2-3.7-6.5c-1.1-2.9-1.6-5.9-1.6-9
				c0.1-3.1,0.8-6.1,2.1-8.9c1-2.3,2.4-4.4,4-6.3c2.8-3.3,5-4.7,5.1-4.6c0.1,0.1-2,1.8-4.5,5.1c-1.5,1.9-2.7,4-3.7,6.2
				c-1.2,2.7-1.8,5.6-1.9,8.5c0,2.9,0.5,5.8,1.5,8.6c0.8,2.3,2,4.4,3.3,6.4C324,162.3,326,164,325.9,164.1z"/>
			<path class="st2" d="M327.4,124.2c0.1-0.1,2.3,1.4,4.9,4.8c1.5,2,2.8,4.2,3.7,6.5c1.1,2.9,1.6,5.9,1.6,9
				c-0.1,3.1-0.8,6.1-2.1,8.9c-1,2.3-2.4,4.4-4,6.3c-2.8,3.3-5,4.7-5.1,4.6c-0.1-0.1,2-1.8,4.5-5.1c1.5-1.9,2.7-4,3.7-6.2
				c1.2-2.7,1.8-5.6,1.9-8.5c0-2.9-0.5-5.8-1.5-8.6c-0.8-2.3-2-4.4-3.3-6.4C329.3,126,327.2,124.3,327.4,124.2z"/>
			<path class="st2" d="M306.4,173.9l-0.3,0.1l-0.7,0.2l-2.8,0.7l-10.9,2.4l-0.1,0l0-0.1l4-14.1v-0.1h0.1l-0.1,0.2
				c-3.3-5.2-5.2-11.1-5.5-17.2c-0.1-1.7,0-3.4,0.1-5.1c0.2-1.8,0.5-3.5,0.9-5.2c0.4-1.8,1-3.5,1.7-5.3c0.4-0.9,0.8-1.7,1.2-2.6
				c0.2-0.4,0.5-0.9,0.7-1.3c0.3-0.4,0.5-0.8,0.7-1.2c2.2-3.4,4.9-6.4,8-9c3.3-2.7,7.1-4.7,11.2-6.1c6-2.1,12.4-2.6,18.6-1.6
				c6.2,1,12.1,3.6,17,7.5c4.9,3.9,8.7,8.9,11.1,14.6c2.4,5.7,3.2,11.9,2.3,18.1c-1.1,8.9-5.6,17-12.6,22.8
				c-7,5.8-15.9,8.9-25.1,8.6c-3.8-0.1-7.6-0.7-11.2-2c-2.3-0.8-4.4-1.8-6.5-2.9c-0.7-0.4-1.2-0.7-1.6-1L306.4,173.9l0.5,0.3
				c0.4,0.2,0.9,0.5,1.6,0.9c2.1,1.2,4.3,2.1,6.5,2.9c3.6,1.2,7.3,1.8,11.1,1.9c6.4,0.1,12.8-1.4,18.5-4.4c5.7-3,10.4-7.4,13.7-12.8
				s5.2-11.5,5.4-17.8c0.2-6.3-1.4-12.5-4.4-18c-4.2-7.5-10.9-13.2-19.1-16.3c-8.1-3-17.1-3.2-25.3-0.3c-4,1.4-7.8,3.4-11.1,6.1
				c-3.1,2.5-5.8,5.5-7.9,8.9c-0.3,0.4-0.5,0.8-0.7,1.2c-0.3,0.4-0.5,0.8-0.7,1.2l-1.2,2.5c-0.7,1.7-1.3,3.4-1.7,5.2
				c-0.4,1.7-0.8,3.4-0.9,5.2c-0.2,1.7-0.2,3.4-0.1,5.1c0.3,6.1,2.1,11.9,5.4,17.1l0.1,0.2h-0.2l0.1-0.1c-1.6,5.4-2.9,10.2-4.1,14.1
				l-0.1-0.1l10.9-2.4l2.9-0.6l0.7-0.2C306.2,174,306.3,174,306.4,173.9L306.4,173.9z"/>
		</g>
		<g>
			<path class="st2" d="M337.3,200.5c-3.6,0.8-5.9,4.4-6.7,7.9c-0.8,3.5-0.4,7.2-0.7,10.7c-0.3,3.6-1.6,7.4-4.7,9.3l3.1,0.9
				c-0.6,1.9-1.9,3.5-3.6,4.5c1.2,0.9,2.7,1.4,4.2,1.4c-1.8,0.5-2.3,3-1.3,4.5c1,1.5,2.9,2.3,4.7,2.7c2.1,0.6,4.4,0.7,6.5,0.2
				c2.9-0.9,5.2-3.4,6.3-6.2c1.1-2.8,1.4-5.9,1.5-8.9c0.2-7.6-0.2-15.2-2.2-22.6c-0.5-1.8-1.1-3.7-2.7-4.7c-1.5-1-4.2-0.6-4.7,1.2"
				/>
			<path class="st2" d="M418.4,309.8c-0.9-3.2-5.8-21-10.3-32.6c-4.9-12.9-15.1-15.6-15.1-15.6c-22.9-7.6-43.4-7.6-65.3-0.2
				c-0.7,0.2-1.4,0.4-2,0.7h-0.1c-16.3,6.2-18,23-18,23l-6.9,40.6c-0.1,0.3-0.1,0.6-0.2,1l-0.1,0.4c-0.1,1.9,0.4,3.8,1.4,5.4
				c1,1.6,2.5,2.9,4.2,3.8c9.5,4.3,18.7,3.3,26.5,0.1l-5.7,8.1h67.8l-4.4-10.7l1.5-6.4l10.5,12.3c1.3,1.5,2.9,2.5,4.8,3.1
				c12.1,1.4,14.1-16.2,11.8-26.4"/>
			<path class="st2" d="M375.5,257.2c0,0-10.9,53.6-14.8,53.2c-3.9-0.4-21.9-52.2-21.9-52.2S361.8,252.2,375.5,257.2z"/>
			<path class="st2" d="M344.4,261.2c-0.1-6.2-0.2-12.7-0.2-12.7s-8.2-1.3-9.9-11.6c-1.7-9.9-0.1-32.7-0.1-32.7
				c5.8-2.3,12.1-2.8,18.2-1.5c6.1,1.3,11.6,4.4,15.9,8.9l-0.4,50.1c0,5.8-5.2,10.4-11.6,10.3C349.7,271.9,344.5,267.1,344.4,261.2z
				"/>
			<path class="st2" d="M336.8,221.4c0,0.3,0.1,0.7,0.4,0.9c0.2,0.2,0.6,0.4,0.9,0.4c0.2,0,0.3,0,0.5-0.1c0.2-0.1,0.3-0.1,0.4-0.3
				c0.1-0.1,0.2-0.2,0.3-0.4c0.1-0.2,0.1-0.3,0.1-0.5c0-0.3-0.1-0.7-0.4-0.9c-0.2-0.2-0.6-0.4-0.9-0.4c-0.2,0-0.3,0-0.5,0.1
				c-0.2,0.1-0.3,0.1-0.4,0.3c-0.1,0.1-0.2,0.2-0.3,0.4S336.8,221.2,336.8,221.4z"/>
			<path class="st2" d="M335,220.5c0.2,0.2,1.2-0.6,2.7-0.6c1.5,0,2.6,0.7,2.7,0.5c0.2-0.2-0.1-0.4-0.6-0.7
				c-0.6-0.4-1.4-0.7-2.2-0.6c-0.8,0-1.5,0.3-2.1,0.7C335.1,220.1,334.9,220.4,335,220.5z"/>
			<path class="st2" d="M351.7,222.1c0,0.3,0.1,0.7,0.4,0.9c0.2,0.2,0.6,0.4,0.9,0.4c0.2,0,0.3,0,0.5-0.1c0.2-0.1,0.3-0.1,0.4-0.3
				c0.1-0.1,0.2-0.2,0.3-0.4c0.1-0.2,0.1-0.3,0.1-0.5c0-0.3-0.1-0.7-0.4-0.9c-0.2-0.2-0.6-0.4-0.9-0.4c-0.2,0-0.3,0-0.5,0.1
				c-0.2,0.1-0.3,0.1-0.4,0.3c-0.1,0.1-0.2,0.2-0.3,0.4C351.7,221.8,351.7,221.9,351.7,222.1z"/>
			<path class="st2" d="M350.4,220.9c0.2,0.2,1.2-0.6,2.7-0.6c1.5,0,2.6,0.7,2.7,0.5c0.2-0.2-0.1-0.4-0.6-0.7
				c-0.6-0.4-1.4-0.7-2.2-0.6c-0.8,0-1.5,0.3-2.1,0.7C350.4,220.5,350.3,220.8,350.4,220.9z"/>
			<path class="st2" d="M345.1,231.6c-0.8-0.2-1.6-0.4-2.4-0.4c-0.4,0-0.7-0.1-0.8-0.4c0-0.4,0-0.8,0.2-1.1l1.1-2.8
				c1.5-4,2.6-7.2,2.4-7.3c-0.2-0.1-1.5,3.1-3,7.1c-0.4,1-0.7,1.9-1,2.8c-0.2,0.4-0.3,0.9-0.2,1.4c0.1,0.1,0.1,0.2,0.2,0.3
				c0.1,0.1,0.2,0.2,0.4,0.2c0.2,0.1,0.4,0.1,0.6,0.1C343.5,231.7,344.3,231.7,345.1,231.6z"/>
			<path class="st2" d="M344.2,248.5c5,0,9.9-1.3,14.2-3.8c0,0-3.4,7.2-14.1,6.2L344.2,248.5z"/>
			<path class="st2" d="M345.7,235c0.3-0.3,0.6-0.6,1.1-0.8c0.4-0.2,0.9-0.2,1.3-0.2c0.3,0,0.6,0.1,0.9,0.3c0.3,0.1,0.5,0.4,0.7,0.6
				c0.2,0.2,0.3,0.5,0.3,0.8c0,0.3-0.1,0.6-0.2,0.9c-0.2,0.3-0.5,0.4-0.9,0.5c-0.3,0.1-0.7,0.1-1,0c-0.7-0.2-1.3-0.6-1.9-1.1
				c-0.2-0.1-0.3-0.3-0.4-0.4c-0.1-0.1-0.1-0.2-0.1-0.3C345.6,235.2,345.6,235.1,345.7,235"/>
			<path class="st2" d="M349.4,232.5c-0.2,0-0.2,1.5-1.6,2.7c-1.4,1.1-3.1,1-3.1,1.2c0,0.1,0.4,0.3,1.1,0.3c0.9,0,1.8-0.3,2.6-0.9
				c0.7-0.6,1.1-1.4,1.2-2.2C349.7,232.9,349.5,232.5,349.4,232.5z"/>
			<path class="st2" d="M362.5,203.2c-3.8,5.5-14,11.2-21.4,12.6c0.8-1.1,5.3-3.9,6.2-5c-3.3,2.5-8.1,5.8-12.5,6.1
				c-0.5,0.1-1.1,0-1.5-0.2c-0.3-0.2-0.5-0.4-0.6-0.7c-0.1-0.3-0.2-0.6-0.2-0.9c-0.3-3.1-0.3-6.3,0.1-9.4c0.3-2.6,1.6-5.1,3.7-6.8
				c2.8-2.2,6.9-2.8,10.7-2.9c3.2-0.1,6.5,0,9.5,1.1c3,1.1,5.5,3.3,6,6"/>
			<path class="st2" d="M375,228.3c0.5-2.3,0.8-4.6,0.9-7c0.2-5.4,1.9-24.7-17.1-22.8l1.1,5.2c0,0-3.5,12,4.6,20.2
				c0,0-2.3,17,3.3,22.4C367.9,246.3,374,234,375,228.3z"/>
			<path class="st2" d="M364.4,223c1.1-0.2,2.3-0.2,3.4,0.2c1.1,0.4,2,1.2,2.5,2.2c0.4,1.1,0.5,2.2,0.1,3.3c-0.4,1.1-1.1,2-1.9,2.8
				c-0.6,0.6-1.3,1.1-2.1,1.4c-0.4,0.1-0.8,0.2-1.2,0.1c-0.4-0.1-0.8-0.2-1.1-0.5"/>
			<path class="st2" d="M365,229.7c-0.1,0,0.4,0.7,1.4,0.4c0.6-0.2,1-0.6,1.3-1.1c0.3-0.6,0.5-1.2,0.6-1.8c0.1-0.7-0.1-1.4-0.5-2
				c-0.2-0.2-0.4-0.4-0.6-0.6c-0.3-0.1-0.5-0.2-0.8-0.3c-1.1,0-1.4,0.7-1.3,0.7c0.1,0,0.5-0.3,1.2-0.1c0.4,0.2,0.8,0.5,1,0.9
				c0.2,0.4,0.3,0.9,0.2,1.3c-0.1,1.1-0.6,2.2-1.2,2.5C365.6,229.8,365.1,229.6,365,229.7z"/>
			<path class="st2" d="M327,311.1c-0.1,0-0.2-4.2-0.2-9.4c0-5.2,0.1-9.4,0.2-9.4c0.1,0,0.2,4.2,0.2,9.4
				C327.2,306.9,327.1,311.1,327,311.1z"/>
			<path class="st2" d="M354.6,291.9c0,0-9.5,0.1-10.1,2.1c-1,3.4,0.8,22.1,0.8,22.1l8.8,2.9c0,0,4.2-1,2.3-8.9
				c-1.3-5-3.2-9.8-5.8-14.3c0,0,11.7,0.3,11.3-2.2C361.5,291.1,354.6,291.9,354.6,291.9z"/>
			<path class="st2" d="M350.8,297.4c0.5-0.1,12.2-1,11.4,0.8c-0.7,1.8-11.4,2.3-11.4,2.3V297.4z"/>
			<path class="st2" d="M388.2,270l-1.4,35.4l-5.3,13.6l-32.6,0.7l-1.3-43.9L388.2,270z"/>
			<path class="st2" d="M343.7,304.4c-0.1,0.1-0.3,0.1-0.4,0.2l-1.2,0.5l-4.4,1.8l-14.4,5.9l-7.9,3.2c-2.2,0.8-4.3,1.8-6.3,2.9
				c-1.4,0.8-2.6,1.8-3.6,2.9c-0.7,0.9-0.9,1.4-1,1.4c0-0.1,0.1-0.3,0.2-0.4c0.2-0.4,0.4-0.7,0.7-1.1c0.9-1.2,2.1-2.3,3.5-3.1
				c2-1.1,4.2-2.1,6.4-2.9l7.9-3.2l14.4-5.8l4.4-1.7l1.2-0.4C343.5,304.5,343.6,304.5,343.7,304.4z"/>
			<path class="st2" d="M354.5,318.3c-0.2,0.3-0.5,0.6-0.7,0.9c-0.5,0.5-1.2,1.3-2.1,2.2c-1.8,1.8-4.5,4.2-7.5,6.7
				c-3,2.5-5.9,4.6-8,6.1c-1,0.7-1.9,1.3-2.5,1.7c-0.3,0.2-0.6,0.4-1,0.6c0.3-0.3,0.6-0.5,0.9-0.7l2.4-1.8c2.1-1.5,4.9-3.7,7.9-6.2
				c3-2.5,5.7-4.8,7.6-6.6c0.9-0.9,1.7-1.6,2.2-2.1C354,318.8,354.2,318.5,354.5,318.3z"/>
			<path class="st2" d="M403.7,341c-0.1,0.1-4.9-5.3-10.7-11.9c-5.8-6.7-10.5-12.1-10.4-12.2c0.1,0,4.9,5.3,10.7,11.9
				C399.1,335.4,403.8,340.9,403.7,341z"/>
			<path class="st2" d="M412.9,315.2c-0.4-0.1-0.7-0.2-1.1-0.4c-0.7-0.3-1.6-0.7-2.8-1.2c-2.4-1-5.6-2.6-9-4.5
				c-3.4-1.9-6.4-3.9-8.5-5.4c-1-0.7-1.9-1.4-2.5-1.8c-0.3-0.2-0.6-0.5-0.9-0.7c0.3,0.2,0.6,0.4,0.9,0.6c0.7,0.4,1.5,1,2.5,1.7
				c2.1,1.4,5.1,3.3,8.5,5.2c3.4,1.9,6.6,3.5,8.9,4.6l2.8,1.3C412.3,314.9,412.6,315,412.9,315.2z"/>
			<path class="st2" d="M396,307.5c-0.1,0-0.7-3.8-1.3-8.4c-0.6-4.7-1-8.5-0.9-8.5s0.7,3.8,1.3,8.4
				C395.7,303.6,396.1,307.4,396,307.5z"/>
			<path class="st2" d="M368.4,229.6c-0.1,0.2-0.2,0.3-0.3,0.5l-0.9,1.2l-3.4,4.3v-0.2l5.5,4.2l0.5,0.4h-0.3l4.8-5.8v0.2l-3.6-2.9
				l-1-0.8c-0.1-0.1-0.2-0.2-0.3-0.3c0,0,0.1,0.1,0.4,0.2l1,0.7l3.7,2.7l0.1,0.1l-0.1,0.1c-1.4,1.7-3,3.7-4.7,5.9l-0.1,0.1l-0.2-0.1
				l-0.5-0.3c-2-1.5-3.9-3-5.5-4.3l-0.1-0.1l0.1-0.1l3.5-4.2l1-1.2C368.3,229.8,368.4,229.6,368.4,229.6z"/>
			<path class="st2" d="M382.4,316.3c-5.3-0.2-10.5-0.8-15.8-1.6c-6.2-1-6.1-1.5-5.9-2.2c0.6-1.8,10.9,1.3,9.1-0.7
				c-1.9-1.9-13-2.4-12.4-4.3c0.9-2.5,11.7,1,12.6,1.2c0.9,0.2,1.3-1.1,0.4-1.2c-1.2-0.2-14-3-13.1-5.4c0.5-1.4,2.9-0.2,2.9-0.2
				s11.8,3.4,12.2,2.3c0.4-1.2-6.5-3.4-8.9-4c-2.4-0.6-3-1.9-1.9-2.7c0.7-0.5,8.1,1.1,10.4,1.8c2.3,0.7,8.7,2.5,6.3-0.9l-0.1-0.2
				c-2.5-3.3-3.3-6.7-2.8-7.8c0.1-0.2,0.3-0.4,0.5-0.6c0.2-0.1,0.5-0.2,0.8-0.2s0.5,0.1,0.8,0.2c0.2,0.1,0.4,0.3,0.5,0.6
				c0.1,0.2,0.2,0.4,0.2,0.5c0,0.1,0.1,0.2,0.1,0.3c0.6,1.3,1.3,2.5,2.1,3.6c0.7,1,1.6,2,2.7,2.7c1.2,0.9,4.2,4,5.1,4.5"/>
			<path class="st2" d="M164,274.2c-3.3-0.1-6.5-1.4-8.8-3.6c-2.4-2.3-3.7-5.3-3.8-8.5c-0.2-5.6-0.3-10.9-0.3-10.9
				s-10.5-1-11.3-11.1c-0.8-10.1-0.4-33.5-0.4-33.5c5.8-2.8,12.2-4.1,18.6-3.7c6.4,0.4,12.6,2.5,18,6l1.6,1.1l-0.4,51.9
				c0,1.7-0.4,3.3-1,4.8c-0.7,1.5-1.6,2.9-2.9,4.1c-1.2,1.2-2.7,2.1-4.2,2.7C167.4,273.9,165.7,274.2,164,274.2z"/>
			<path class="st2" d="M150.8,233.7c0-0.1-0.9-0.2-2.3-0.3c-0.4,0-0.7-0.1-0.7-0.3c0-0.4,0-0.7,0.2-1.1l1-2.9
				c1.3-4.1,2.2-7.5,2-7.6c-0.2-0.1-1.5,3.2-2.8,7.4c-0.3,1-0.6,2-0.9,2.9c-0.2,0.5-0.3,1-0.1,1.5c0.1,0.1,0.2,0.3,0.3,0.3
				c0.1,0.1,0.3,0.2,0.4,0.2c0.2,0,0.4,0.1,0.6,0C149.9,233.9,150.8,233.8,150.8,233.7z"/>
			<path class="st2" d="M155.5,235c-2.2,1-4.5,1.8-6.9,2.4c0.5,0.7,1.3,1.2,2.2,1.4c0.9,0.2,1.8,0.2,2.6-0.2
				C156.4,237.4,155.5,235,155.5,235z"/>
			<path class="st2" d="M151,250.9c4.8-0.2,9.4-1.8,13.3-4.6c0,0-2.7,7.5-13.2,7.2L151,250.9z"/>
			<path class="st2" d="M177,222.3c0-0.4,0.1-0.8,0.4-1.1c0.3-0.3,0.6-0.5,1-0.5c1.9-0.1,5.1,0.7,5.4,5.9c0.4,7.5-6.9,5.6-7,5.4
				C176.9,231.9,177,225.2,177,222.3z"/>
			<path class="st2" d="M178.6,229.2c0,0,0.1,0.1,0.4,0.2c0.3,0.1,0.7,0.1,1,0c0.8-0.3,1.4-1.6,1.4-3c0-0.6-0.2-1.3-0.5-1.8
				c-0.1-0.2-0.2-0.4-0.4-0.6c-0.2-0.2-0.4-0.3-0.6-0.3c-0.2,0-0.3,0-0.5,0.1c-0.1,0.1-0.3,0.2-0.3,0.3c-0.1,0.2,0,0.4-0.1,0.4
				c-0.1,0-0.2-0.1-0.1-0.4c0-0.2,0.1-0.4,0.3-0.5c0.1-0.1,0.2-0.1,0.3-0.2c0.1,0,0.3-0.1,0.4,0c0.3,0,0.6,0.2,0.9,0.4
				c0.3,0.2,0.5,0.4,0.6,0.7c0.4,0.6,0.6,1.3,0.6,2c0,1.5-0.7,3-1.8,3.3c-0.2,0.1-0.4,0.1-0.6,0.1c-0.2,0-0.4-0.1-0.6-0.2
				C178.6,229.3,178.6,229.2,178.6,229.2z"/>
			<path class="st2" d="M142.6,223.6c0,0.4,0.2,0.7,0.5,0.9c0.3,0.2,0.6,0.4,1,0.4c0.2,0,0.4,0,0.5-0.1c0.2-0.1,0.3-0.2,0.4-0.3
				c0.1-0.1,0.2-0.3,0.3-0.4c0.1-0.2,0.1-0.3,0.1-0.5c0-0.4-0.2-0.7-0.5-0.9c-0.3-0.2-0.6-0.4-1-0.4c-0.2,0-0.4,0-0.5,0.1
				c-0.2,0.1-0.3,0.2-0.4,0.3c-0.1,0.1-0.2,0.3-0.3,0.4C142.6,223.3,142.6,223.5,142.6,223.6z"/>
			<path class="st2" d="M140.2,222.3c0.2,0.2,1.2-0.7,2.7-0.8c1.5-0.1,2.7,0.6,2.8,0.4c0.1-0.2-0.1-0.4-0.6-0.7
				c-0.7-0.4-1.5-0.6-2.3-0.5c-0.8,0-1.5,0.3-2.1,0.8C140.2,221.9,140.1,222.2,140.2,222.3z"/>
			<path class="st2" d="M157.7,223.4c0,0.4,0.2,0.7,0.5,0.9c0.3,0.2,0.6,0.4,1,0.4c0.2,0,0.4,0,0.5-0.1c0.2-0.1,0.3-0.2,0.4-0.3
				c0.1-0.1,0.2-0.3,0.3-0.4c0.1-0.2,0.1-0.3,0.1-0.5c0-0.4-0.2-0.7-0.5-0.9c-0.3-0.2-0.6-0.4-1-0.4c-0.2,0-0.4,0-0.5,0.1
				c-0.2,0.1-0.3,0.2-0.4,0.3c-0.1,0.1-0.2,0.3-0.3,0.4C157.7,223,157.7,223.2,157.7,223.4z"/>
			<path class="st2" d="M155.6,222.3c0.2,0.2,1.2-0.7,2.7-0.8c1.5-0.1,2.7,0.6,2.8,0.4c0.2-0.2-0.1-0.4-0.6-0.7
				c-0.7-0.4-1.5-0.6-2.3-0.5c-0.8,0-1.5,0.3-2.1,0.8C155.6,221.9,155.5,222.2,155.6,222.3z"/>
			<path class="st2" d="M165.6,203c-0.7,1.6-0.9,3.3-0.6,5c0.3,1.7,1.1,3.3,2.3,4.5c1,1,2.3,1.8,3.2,3c1.8,2.4,1.5,5.7,1.8,8.6
				c0.1,1.4,0.5,2.9,1.5,3.8c1,0.9,3,1,3.7-0.2c0.2-0.4,0.3-0.8,0.4-1.2c0.6-3.3,1.3-6.6,1.9-9.9c0.5-2.5,1-5,0.5-7.5
				c-0.3-1.5-0.8-2.8-1.7-4.1c-0.8-1.2-1.9-2.3-3.2-3.1c-1.3-0.8-2.7-1.3-4.2-1.5c-1.5-0.2-3-0.1-4.5,0.3"/>
			<path class="st2" d="M167.2,200.9c-3.5-0.7-5.5-1.8-8-2.9c-2.5-1.2-5.3-1.5-8-0.9c-1.8,0.5-3.5,1.5-5.3,1.5
				c-1.8,0-3.4-1.1-5.2-1.6c-1.2-0.4-2.4-0.5-3.7-0.4c-1.2,0.1-2.4,0.5-3.5,1.1c-1.7,0.9-3.2,2.6-3.4,4.6c-0.1,2,1.7,4.1,3.5,3.5
				c-1.9,0.7-2.7,3.4-1.7,5.2c0.5,0.9,1.3,1.6,2.2,2c0.9,0.4,1.9,0.6,3,0.4c2-0.4,3.9-1.5,5.2-3.1c0,2.2,2.3,3.8,4.5,3.7
				c2.1-0.1,4.1-1.3,5.8-2.6c1.8-1.3,3.5-2.7,5.6-3.1c1.5-0.3,2.9-0.1,4.4-0.3c1.5-0.2,3-0.8,3.8-2.1c0.7-1.4,3.5-2.9,2.1-3"/>
			<path class="st2" d="M146.3,211.9c0.3,0.1,0.5,0.3,0.8,0.4c0.8,0.2,1.6,0.2,2.4,0c0.5-0.2,1-0.4,1.5-0.7c0.5-0.3,1-0.7,1.6-1.1
				c0.6-0.4,1.2-0.8,1.8-1.1c0.7-0.4,1.5-0.5,2.3-0.6c1.6,0,3.1,0.4,4.4,0.3c0.6,0,1.2-0.2,1.7-0.5c0.5-0.3,1-0.7,1.3-1.1
				c0.5-0.6,0.8-1.4,0.9-2.1c0.1-0.6,0-0.9,0-0.9c0,0,0,0.1,0.1,0.2c0,0.2,0.1,0.4,0,0.7c0,0.8-0.3,1.6-0.8,2.3
				c-0.3,0.5-0.8,0.9-1.3,1.2c-0.6,0.3-1.2,0.5-1.9,0.6c-1.4,0.1-2.9-0.3-4.5-0.3c-1.5,0-2.9,0.9-4,1.6c-0.6,0.4-1.1,0.8-1.6,1.1
				c-0.5,0.3-1,0.5-1.6,0.6c-0.8,0.2-1.7,0.2-2.5-0.1c-0.2-0.1-0.4-0.2-0.6-0.4C146.4,211.9,146.3,211.9,146.3,211.9z"/>
			<path class="st2" d="M166.1,197.3c0,0.8,0.1,1.6,0.2,2.4c0.3,0.8,0.6,1.5,1,2.2c-0.7-0.6-1.1-1.3-1.3-2.1
				C165.8,199,165.8,198.1,166.1,197.3z"/>
			<path class="st2" d="M170,197.2c0.1,0.1-0.9,1-1.6,2.3c-0.7,1.4-0.9,2.6-1,2.6c-0.1-1,0.2-1.9,0.7-2.8
				C168.5,198.5,169.2,197.7,170,197.2z"/>
			<path class="st2" d="M219.1,303.2l16,40.1h-24.5l-11.4-28.5L219.1,303.2z"/>
			<path class="st2" d="M132.5,270.7c0,0-21.1,21.1-30.2,21.1c-3,0-5.3-35.2-5.4-45.3c0.5-1.3,1.2-2.5,2-3.6c0.8-1,1.7-2,2.6-2.9
				c1.3-1,2.6-1.9,4.1-2.6c1.4-0.5,1.5-2.4,0.2-2.8c-1.3-0.4-5.2,0.9-8.8,4.1c-3.6,3.3-2.5-4-2.1-6.7c0.3-2.7,1-11,0.2-11.7
				c-1.1-1.1-2.5-0.1-2.8,2.6c-0.3,2.7-1.6,10.7-3.1,10.5c-1.5-0.2,0.5-13.8,0.5-13.8s0.9-2.9-0.7-3.1c-3-0.5-3.9,14-4,15.4
				c0,1-1.6,0.8-1.5-0.2c0.1-1,2.2-13.5-0.8-14.1c-2.3-0.4-0.9,12-2.8,14.4c-1.9,2.4-0.1-9.5-2.4-9.9c-0.8-0.1-1.5-0.1-1.5,6.9
				c0,3.7,1.5,9.4,0.9,16.6c1,21.3-0.1,81,24.2,74c26.7-7.8,45-24.9,45-24.9L132.5,270.7z"/>
			<path class="st2" d="M191.5,289.6c0.1,0.3,0.2,0.6,0.2,0.8c0.1,0.5,0.3,1.3,0.5,2.3c0.4,2,0.8,4.7,1.2,7.8c0.3,3,0.5,5.8,0.6,7.8
				c0,1,0.1,1.8,0,2.4c0,0.3,0,0.6,0,0.9c-0.1-0.3-0.1-0.6-0.1-0.9c0-0.6-0.1-1.4-0.2-2.4c-0.1-2-0.4-4.7-0.7-7.8
				c-0.4-3-0.7-5.8-1.1-7.8c-0.1-0.9-0.3-1.7-0.4-2.3C191.5,290.2,191.5,289.9,191.5,289.6z"/>
			<path class="st2" d="M129,343.3l67.3,0.3l-2.3-13.8c0.6-6.6,0.6-13.2-0.1-19.7l3.4,9l27.8-13.6c0,0-10.1-26.3-18.6-35.2
				c-10.7-11.2-29.9-10.1-29.9-10.1l-13,8.6l-12-8.2c-6.4,0.7-12.7,2.5-18.5,5.2l-0.6,0.2v0.1c-7.1,3.6-17.1,12.4-26.7,20.9
				l11.1,10.5l12.3,11.1c0.7-0.1,1.4-0.1,2.1-0.1C131.4,309.7,129,343.3,129,343.3z"/>
			<path class="st3" d="M191.8,285.4l9.2,31.8l-3.7,1.8l-3.4-9C193.9,310,190.6,291.2,191.8,285.4z"/>
			<path class="st2" d="M150.9,260.4V257c0,0,10.5-0.8,12.6,11.3c0,0,3.4-11.3,13.6-12.4l1.5,5.3c0,0-4.8,14.7-5.5,14.9
				c-0.7,0.1-9.5,2.6-9.5,2.6l-5.1-1.1l-5.7-6.3L150.9,260.4z"/>
			<path class="st2" d="M178.9,260.7c-0.2,0.2-0.4,0.4-0.6,0.6c-0.4,0.4-0.9,0.9-1.6,1.6c-1.7,1.8-3.2,3.7-4.6,5.8
				c-0.3,0.5-0.6,1-0.9,1.5l-0.2,0.3l-0.2-0.3c-1.2-2.1-2.2-4-3-5.5c-0.2-0.3-0.4-0.5-0.7-0.7c-0.2-0.1-0.5-0.2-0.7-0.3
				c-0.2,0-0.4,0-0.6,0.1c0,0,0.2-0.2,0.6-0.2c0.3,0,0.6,0.1,0.8,0.2c0.3,0.2,0.6,0.5,0.8,0.8c0.8,1.4,1.9,3.2,3.1,5.4h-0.3
				c0.3-0.5,0.6-1,0.9-1.5c1.3-2.1,2.9-4.1,4.7-5.8c0.7-0.7,1.3-1.2,1.7-1.5C178.4,261,178.6,260.9,178.9,260.7z"/>
			<path class="st2" d="M150.2,261.4c0.2,0.1,0.4,0.3,0.5,0.5c0.3,0.4,0.7,0.9,1.3,1.5c1,1.3,2.5,3,4,5l0.3,0.3h-0.3
				c0.6-1,0.6-2.1,0.9-3.2c0.2-0.9,0.7-1.8,1.5-2.4c0.3-0.2,0.6-0.3,0.9-0.3c0.3,0,0.7,0,1,0.1c0.2,0.1,0.3,0.2,0.4,0.3
				c0.1,0.1,0.1,0.1,0.1,0.2c-0.2-0.1-0.4-0.2-0.6-0.3c-0.3-0.1-0.6-0.1-0.9,0c-0.3,0.1-0.6,0.2-0.8,0.3c-0.7,0.6-1.1,1.4-1.3,2.3
				c-0.1,1.1-0.4,2.2-0.9,3.3l-0.1,0.2l-0.2-0.2l-0.3-0.3c-1.6-2-2.9-3.8-3.9-5.1c-0.5-0.7-0.9-1.2-1.2-1.6
				C150.4,261.8,150.3,261.6,150.2,261.4z"/>
			<path class="st2" d="M157.7,343.3c0-0.1,0-0.1,0-0.2c0-0.1,0-0.3,0-0.6c0-0.5,0.1-1.3,0.1-2.2c0.1-1.9,0.3-4.7,0.5-8
				c0.5-6.8,1.1-16.2,1.9-26.5l2-26.5c0.3-3.4,0.5-6.1,0.6-8c0.1-0.9,0.1-1.7,0.2-2.2c0-0.2,0-0.4,0.1-0.6c0-0.1,0-0.1,0-0.2
				c0,0.1,0,0.1,0,0.2v0.6c0,0.5-0.1,1.3-0.1,2.2c-0.1,1.9-0.3,4.7-0.5,8c-0.5,6.8-1.1,16.2-1.9,26.5c-0.7,10.3-1.5,19.7-2,26.5
				c-0.3,3.4-0.5,6.1-0.6,8c-0.1,0.9-0.2,1.7-0.2,2.2c0,0.2,0,0.4-0.1,0.6C157.7,343.2,157.7,343.2,157.7,343.3z"/>
			<path class="st2" d="M133.5,279.7c0,0.4,0,0.8-0.1,1.1c-0.1,0.8-0.1,1.8-0.2,3.1c-0.2,2.6-0.4,6.2-0.6,10.2
				c-0.2,4-0.5,7.6-0.7,10.2c-0.1,1.3-0.3,2.4-0.4,3.1c0,0.4-0.1,0.8-0.2,1.1c0-0.4,0-0.8,0.1-1.1c0.1-0.8,0.1-1.8,0.2-3.1
				c0.2-2.6,0.4-6.2,0.6-10.2c0.2-4,0.5-7.6,0.7-10.2c0.1-1.3,0.3-2.4,0.4-3.1C133.3,280.4,133.4,280,133.5,279.7z"/>
			<path class="st2" d="M162.8,266.5c0,0-3.6,4.6-3.1,5.3l3.1,4h2.2c0,0,2.1-5.6,1.5-6.3C166,268.8,162.8,266.5,162.8,266.5z"/>
			<path class="st2" d="M168.3,265.3l-4,3l1.5,2.9l4.1-2.9L168.3,265.3z"/>
			<path class="st2" d="M156.6,267.2l3.6,3l2-3l-4.6-3.4L156.6,267.2z"/>
			<path class="st2" d="M162.8,275.8l-5.5,48.4l5.5,16.8l7.3-16.7l-4.8-49.1L162.8,275.8z"/>
			<path class="st2" d="M201.6,266.9c-0.2-0.2-0.5-0.3-0.7-0.5c-0.7-0.3-1.5-0.4-2.3-0.1c-1.1,0.4-2.1,1.1-2.8,2
				c-1,1-1.9,2.2-2.6,3.4c-1.3,2.3-2,4.8-2.2,7.3c-0.1,2,0.1,3.2,0.1,3.2c-0.1-0.3-0.2-0.6-0.2-0.9c-0.1-0.8-0.2-1.6-0.1-2.4
				c0.1-2.6,0.8-5.2,2.1-7.5c0.7-1.3,1.6-2.4,2.7-3.4c0.8-0.9,1.9-1.6,3-2c0.4-0.1,0.8-0.2,1.2-0.1c0.4,0,0.8,0.2,1.2,0.4
				c0.2,0.1,0.4,0.2,0.5,0.4C201.5,266.8,201.6,266.8,201.6,266.9z"/>
			<path class="st2" d="M254,207c-4.7,2.8-8,7.5-9.9,12.5c-1.9,5-2.7,10.4-3.2,15.7c-1.5,14.1-2,28.3-1.5,42.5
				c17.8,2.2,35.7,4.4,53.6,3.2c-3.1-19.9-5.1-39.8-2.6-59.8"/>
			<path class="st2" d="M294,372.4l-13-25.5l4.9-18.7c0.6,4,1.1,7.4,1.1,7.4l27.8-1.4c0.2,0,0.5-0.1,0.7-0.2
				c0.2-0.1,0.4-0.3,0.6-0.4c0.2-0.2,0.3-0.4,0.3-0.6c0.1-0.2,0.1-0.5,0-0.7l-5.4-37.3c0,0-1.7-17.3-18.6-23.8h-0.1
				c-0.7-0.3-1.4-0.5-2.1-0.7c-22.7-7.7-43.9-7.6-67.6,0.2c0,0-10.5,2.8-15.6,16.1c-5.1,13.4-10.3,33-10.3,33l23.6,8.1l0.2-3.9
				l5.2,19.4l-11.4,28.3l39.9,1L294,372.4z"/>
			<path class="st2" d="M196.9,319.5l-2.6,12.2c-2.3,10.5,5.7,21.2,16.6,22.4l58.1,5.8c3.1,0.3,6.2,0.1,9.1-0.8
				c3-0.8,5.7-2.3,8.1-4.2c2.4-1.9,4.4-4.2,5.8-6.9c1.4-2.7,2.3-5.6,2.6-8.5l-73.2-6.8l0.5-6.9L196.9,319.5z"/>
			<path class="st2" d="M269.5,331.9l4.5-0.8c0,0,10.7-11.4,12.7-11.6c1.7-0.1,10.7-0.1,13.9,0c0.3,0,0.6,0.1,0.8,0.3
				c0.2,0.2,0.3,0.5,0.3,0.8c0,0.3-0.1,0.5-0.3,0.7c-0.2,0.2-0.5,0.3-0.8,0.3l-10.7,0.4l-0.1,0.8l10.8,0.1c1.1,0.1,1.8,1.8-1.7,2.1
				l-9,0.3v0.5l9.1,1.2c0.5,0.1,1.7,0.3,1.7,0.8c0,0,0.6,1.1-2,1.4c-0.9,0.1-8.8-0.2-8.8-0.2l0.3,0.7l8.2,1.7
				c0.3,0.1,0.5,0.2,0.7,0.5c0.2,0.2,0.2,0.5,0.2,0.8c0,0.3-0.2,0.6-0.4,0.7c-0.2,0.2-0.5,0.3-0.8,0.2l-8.8-0.8l-8.6,6.7h-11.5
				L269.5,331.9z"/>
			<path class="st2" d="M241,265.1c0,0,11.3,56.4,15.3,55.9c4-0.4,22.7-54,22.7-54S255.1,260,241,265.1z"/>
			<path class="st2" d="M291,319.7c-0.1,0-0.2-3.9-0.2-8.7s0.1-8.7,0.2-8.7c0.1,0,0.2,3.9,0.2,8.7S291.1,319.7,291,319.7z"/>
			<path class="st2" d="M221.6,320.1c0-0.8,0.1-1.7,0.2-2.5c0.2-1.5,0.5-3.7,0.8-6c0.4-2.3,0.7-4.5,0.9-6c0.1-0.8,0.3-1.7,0.5-2.5
				c0,0.8-0.1,1.7-0.2,2.5c-0.2,1.5-0.5,3.7-0.8,6c-0.4,2.3-0.7,4.4-0.9,6C222,318.4,221.8,319.3,221.6,320.1z"/>
			<path class="st2" d="M254.3,372.6c0-0.2,0-0.3,0-0.5c0-0.4,0-0.9,0-1.5c0-1.3,0-3.2,0.1-5.5c0.1-4.6,0.3-11.1,0.7-18.1
				c0.3-7.1,0.6-13.5,0.8-18.1c0.1-2.3,0.1-4.2,0.2-5.5c0-0.6,0-1.1,0-1.5c0-0.2,0-0.4,0-0.5c0,0.2,0,0.3,0,0.5c0,0.4,0,0.9,0,1.5
				c0,1.3,0,3.2,0,5.5c-0.1,4.6-0.4,11.1-0.7,18.2c-0.3,7.1-0.6,13.5-0.8,18.1c-0.1,2.3-0.1,4.2-0.2,5.5c0,0.6,0,1.1-0.1,1.5
				C254.3,372.3,254.3,372.4,254.3,372.6z"/>
			<path class="st2" d="M278.9,267c0,0,0,0.2,0.1,0.7c0.1,0.7,0.3,1.3,0.6,1.9c0.4,1,0.9,1.9,1.5,2.9c0.8,1.2,1.5,2.5,2.1,3.8
				c0.8,1.6,1.1,3.4,0.9,5.1c-0.2,1-0.6,1.9-1.2,2.7c-0.6,0.8-1.3,1.6-2.1,2.3c-1.6,1.5-3.1,3.2-4.4,4.9c-1.4,1.9-2.2,4.1-2.3,6.5
				c0,1.2,0.3,2.3,0.8,3.4c0.5,1,1,2.1,1.4,3.2c0.2,0.6,0.3,1.1,0.2,1.7c0,0.6-0.2,1.1-0.6,1.6c-0.7,0.9-1.5,1.6-2.4,2.2l-9.2,6.6
				l-6.2,4.4l-1.7,1.2l-0.4,0.3l-0.2,0.1c0,0,0-0.1,0.1-0.1l0.4-0.3l1.7-1.2l6.1-4.5l9.1-6.7c0.9-0.6,1.7-1.3,2.3-2.1
				c0.3-0.4,0.5-1,0.5-1.5c0-0.5,0-1.1-0.2-1.6c-0.4-1.1-0.9-2.1-1.4-3.2c-0.5-1.1-0.8-2.3-0.8-3.5c0.1-2.4,0.9-4.7,2.3-6.7
				c1.3-1.8,2.8-3.4,4.5-5c1.5-1.4,2.9-3,3.2-4.8c0.2-1.7-0.1-3.4-0.8-5c-0.6-1.3-1.3-2.6-2-3.8c-0.5-0.9-1-1.9-1.4-2.9
				c-0.2-0.6-0.4-1.3-0.5-2c0-0.2,0-0.4-0.1-0.5C278.8,267.1,278.8,267,278.9,267z"/>
			<path class="st2" d="M256.2,320.5h-0.2l-0.5-0.1c-0.7-0.1-1.3-0.3-2-0.5c-2.4-0.8-4.6-2-6.5-3.6c-2.8-2.4-4.9-5.5-5.9-9
				c-0.6-2.1-0.9-4.2-0.7-6.3c0.1-1.1,0.2-2.2,0.5-3.3c0.3-1.1,0.3-2.2,0.1-3.3c-0.2-0.5-0.5-1-0.9-1.4c-0.5-0.3-1-0.6-1.5-0.7
				c-0.5-0.2-1.1-0.3-1.7-0.5c-0.5-0.2-1-0.5-1.5-0.9c-0.8-0.8-1.3-1.8-1.5-3c-0.2-1-0.3-2.1-0.2-3.1c0.3-3.6,1.2-7.1,2.4-10.5
				c0.8-2.3,1.9-4.5,3.1-6.6c0.4-0.7,0.8-1.3,1-1.7l0.3-0.4c0-0.1,0.1-0.1,0.1-0.1c0,0,0,0.1-0.1,0.2l-0.3,0.5c-0.2,0.4-0.6,1-1,1.7
				c-1.1,2.1-2.1,4.4-2.9,6.6c-1.2,3.4-2,6.9-2.3,10.5c-0.1,1,0,2,0.2,3c0.2,1,0.7,2,1.4,2.8c0.4,0.4,0.9,0.7,1.4,0.9
				c0.5,0.2,1.1,0.4,1.6,0.5c0.6,0.2,1.1,0.4,1.6,0.8c0.5,0.4,0.8,0.9,1,1.5c0.2,1.2,0.2,2.4-0.1,3.5c-0.2,1.1-0.4,2.2-0.5,3.3
				c-0.1,2.1,0.1,4.2,0.7,6.2c1,3.4,3,6.5,5.8,8.9c1.9,1.6,4,2.8,6.3,3.7c0.8,0.3,1.5,0.5,1.9,0.6L256.2,320.5
				C256.2,320.5,256.2,320.5,256.2,320.5z"/>
			<path class="st2" d="M286.8,332l-48.6-1.5l0.1,15.7l32.2,6.9l22.7,3.5c14.1,0,25.3-12.6,23.2-26.1h-0.1L286.8,332z"/>
			<path class="st2" d="M300.2,331.7c-0.2,0-0.4,0-0.6,0l-1.8,0l-6.6,0.1c-5.6,0.1-13.4,0.2-21.9,0.1c-8.6-0.1-16.3-0.4-21.9-0.7
				c-2.8-0.2-5.1-0.4-6.6-0.5l-1.8-0.2c-0.2,0-0.4,0-0.6-0.1c0.2,0,0.4,0,0.6,0l1.8,0.1c1.6,0.1,3.8,0.2,6.6,0.4
				c5.6,0.3,13.4,0.6,21.9,0.6c8.6,0.1,16.3,0,21.9,0h6.7h1.8C299.7,331.7,300,331.7,300.2,331.7z"/>
			<path class="st2" d="M237.7,331.9l-4.5-0.8c0,0-10.7-11.4-12.7-11.6c-1.6-0.1-10.7-0.1-13.9,0c-0.3,0-0.6,0.1-0.8,0.3
				c-0.2,0.2-0.3,0.5-0.3,0.8c0,0.3,0.1,0.5,0.3,0.7c0.2,0.2,0.5,0.3,0.8,0.3l10.7,0.4l0.1,0.8l-10.8,0.1c-1.1,0.1-1.8,1.8,1.7,2.1
				l9,0.3v0.5l-9.1,1.2c-0.5,0.1-1.7,0.3-1.7,0.8c0,0-0.6,1.1,2,1.4c0.9,0.1,8.8-0.2,8.8-0.2l-0.3,0.7l-8.2,1.7
				c-0.3,0.1-0.5,0.2-0.7,0.5c-0.2,0.2-0.2,0.5-0.2,0.8c0,0.3,0.2,0.6,0.4,0.7c0.2,0.2,0.5,0.3,0.8,0.2l8.8-0.8l8.6,6.7h11.5
				L237.7,331.9z"/>
			<path class="st2" d="M292.2,356.4c-0.2,0-0.4,0-0.6,0l-1.6-0.2c-1.4-0.1-3.3-0.4-5.8-0.7c-4.9-0.7-11.6-1.7-18.9-3.1
				c-7.4-1.4-13.9-2.9-18.7-4.1c-2.4-0.6-4.3-1.1-5.6-1.4l-1.5-0.4c-0.2,0-0.4-0.1-0.5-0.2c0.2,0,0.4,0,0.5,0.1l1.5,0.4l5.7,1.3
				c4.8,1.1,11.4,2.6,18.8,4c7.4,1.4,14.1,2.5,18.9,3.2l5.8,0.8l1.6,0.2C291.8,356.3,292,356.3,292.2,356.4z"/>
			<path class="st2" d="M238.6,346.3c-0.2-0.7-0.4-1.5-0.4-2.2c-0.2-1.4-0.4-3.3-0.5-5.5c-0.1-2.1-0.1-4.1-0.1-5.5
				c0-0.8,0.1-1.5,0.2-2.3c0.1,0.8,0.1,1.5,0.1,2.3c0,1.4,0.1,3.3,0.2,5.5c0.1,2.1,0.3,4.1,0.4,5.5
				C238.6,344.7,238.6,345.5,238.6,346.3z"/>
			<path class="st2" d="M244,346.9c-0.1-0.2-0.2-0.4-0.2-0.6c-0.1-0.4-0.3-1-0.4-1.7c-0.8-3.7-1-7.5-0.7-11.3
				c0.1-0.7,0.1-1.3,0.2-1.7c0-0.2,0.1-0.4,0.1-0.6c0,0.8,0,1.6-0.1,2.3c-0.1,1.4-0.1,3.4,0.1,5.6c0.1,2.2,0.4,4.2,0.6,5.6
				C243.8,345.3,243.9,346.1,244,346.9z"/>
			<path class="st2" d="M239.5,333.3c0,0-0.2,0.2-0.2,0.7c0,0.1,0,0.2,0.1,0.4c0.1,0.1,0.1,0.2,0.2,0.3c0.1,0.1,0.3,0.1,0.4,0.1
				c0.1,0,0.3,0,0.4-0.1c0.1-0.1,0.2-0.2,0.3-0.3c0.1-0.1,0.1-0.3,0.1-0.4c0-0.1-0.1-0.2-0.1-0.3c-0.1-0.1-0.2-0.2-0.3-0.2
				c-0.4-0.2-0.7-0.1-0.7-0.2s0.3-0.3,0.9-0.1c0.2,0.1,0.3,0.2,0.4,0.3c0.1,0.1,0.2,0.3,0.2,0.4c0,0.2,0,0.4-0.1,0.6
				c-0.1,0.2-0.3,0.3-0.4,0.5c-0.2,0.1-0.4,0.2-0.6,0.1c-0.2,0-0.4-0.1-0.6-0.2c-0.1-0.1-0.2-0.3-0.3-0.4c-0.1-0.2-0.1-0.3-0.1-0.5
				C239.1,333.4,239.5,333.3,239.5,333.3z"/>
			<path class="st2" d="M248.3,349.2c-0.2,0-0.3,0-0.5,0c-0.3,0-0.8,0-1.4,0c-1.7,0-3.5,0.2-5.2,0.5c-2.6,0.4-5.1,1-7.6,1.6
				c-2.8,0.7-5.9,1.6-9.3,2.3c-3.1,0.7-6.3,1-9.5,1c-2.6-0.1-5.2-0.5-7.7-1.4c-1.7-0.6-3.2-1.5-4.6-2.5c-0.4-0.3-0.7-0.6-1.1-0.9
				c-0.1-0.1-0.2-0.2-0.3-0.4c0,0,0.5,0.5,1.5,1.2c1.4,1,3,1.8,4.6,2.4c2.5,0.8,5,1.3,7.6,1.4c3.2,0,6.3-0.3,9.4-1
				c3.3-0.7,6.4-1.6,9.3-2.3c2.5-0.7,5.1-1.2,7.6-1.6c1.7-0.2,3.5-0.4,5.3-0.4c0.6,0,1.1,0,1.4,0.1
				C248,349.1,248.2,349.2,248.3,349.2z"/>
			<path class="st2" d="M269.7,271.8c1.2-6.3,2.5-12.9,2.5-12.9s8.6,0.1,12.2-10.2c3.5-9.8,6-33.4,6-33.4
				c-5.5-3.3-11.9-4.9-18.3-4.6c-6.4,0.3-12.6,2.6-17.7,6.4l-8.5,51.2c-1,5.9,3.5,11.5,10,12.5C262.4,281.8,268.6,277.8,269.7,271.8
				z"/>
			<path class="st2" d="M284,233c-0.1,0.4-0.3,0.7-0.6,0.9c-0.3,0.2-0.7,0.3-1,0.3c-0.2,0-0.4-0.1-0.5-0.1c-0.2-0.1-0.3-0.2-0.4-0.3
				c-0.1-0.1-0.2-0.3-0.2-0.5c-0.1-0.2-0.1-0.3,0-0.5c0.1-0.4,0.3-0.7,0.6-0.9c0.3-0.2,0.7-0.3,1-0.3c0.2,0,0.4,0.1,0.5,0.2
				c0.2,0.1,0.3,0.2,0.4,0.3c0.1,0.1,0.2,0.3,0.2,0.5C284,232.7,284,232.8,284,233z"/>
			<path class="st2" d="M286.5,231.9c-0.2,0.1-1.1-0.8-2.6-1c-1.5-0.2-2.7,0.3-2.9,0.1c-0.1-0.1,0.2-0.4,0.7-0.6
				c0.7-0.3,1.5-0.4,2.3-0.3c0.8,0.1,1.5,0.5,2,1.1C286.5,231.5,286.6,231.8,286.5,231.9z"/>
			<path class="st2" d="M268.6,230.6c-0.1,0.4-0.3,0.7-0.6,0.9c-0.3,0.2-0.7,0.3-1,0.3c-0.4,0-0.7-0.2-0.9-0.5
				c-0.2-0.3-0.3-0.6-0.3-1c0.1-0.4,0.3-0.7,0.6-0.9c0.3-0.2,0.7-0.3,1-0.3c0.4,0,0.7,0.2,0.9,0.5
				C268.5,229.9,268.7,230.3,268.6,230.6z"/>
			<path class="st2" d="M270.8,229.7c-0.2,0.1-1.1-0.8-2.6-1.1c-1.5-0.3-2.7,0.3-2.9,0.1c-0.1-0.1,0.2-0.4,0.7-0.6
				c0.7-0.3,1.5-0.4,2.3-0.3c0.8,0.1,1.5,0.5,2,1.1C270.8,229.3,270.9,229.7,270.8,229.7z"/>
			<path class="st2" d="M274.3,241.5c0.8-0.1,1.7-0.1,2.5,0c0.4,0,0.7,0,0.9-0.2c0.1-0.4,0.1-0.8-0.1-1.1c-0.2-1-0.4-2-0.6-3
				c-0.8-4.3-1.4-7.8-1.2-7.9c0.2,0,1,3.4,1.8,7.7c0.2,1.1,0.4,2.1,0.6,3c0.2,0.5,0.1,1-0.1,1.5c-0.1,0.1-0.2,0.2-0.3,0.3
				c-0.1,0.1-0.3,0.1-0.4,0.1c-0.2,0-0.4,0-0.7,0C275.9,241.9,275.1,241.7,274.3,241.5z"/>
			<path class="st2" d="M272.2,258.9c-5.1-0.8-9.9-3-13.8-6.3c0,0,2.2,7.9,13.2,8.7L272.2,258.9z"/>
			<path class="st2" d="M273,244.9c-0.2-0.4-0.5-0.7-0.9-1c-0.4-0.2-0.8-0.4-1.3-0.4c-0.3,0-0.7,0-1,0.1c-0.3,0.1-0.6,0.3-0.9,0.5
				c-0.2,0.2-0.4,0.5-0.5,0.8c-0.1,0.3-0.1,0.6,0.1,0.9c0.2,0.3,0.5,0.5,0.8,0.7c0.3,0.1,0.7,0.2,1.1,0.1c0.8-0.1,1.5-0.4,2.1-0.8
				c0.2-0.1,0.4-0.2,0.5-0.4c0.1-0.1,0.1-0.2,0.1-0.3C273.1,245.1,273.1,245,273,244.9"/>
			<path class="st2" d="M269.7,241.7c0.2,0,0,1.6,1.1,3c1.2,1.4,2.9,1.5,2.9,1.7c0,0.1-0.4,0.2-1.2,0.1c-1-0.1-1.8-0.6-2.5-1.3
				c-0.6-0.7-0.9-1.5-0.9-2.4C269.3,242,269.6,241.7,269.7,241.7z"/>
			<path class="st2" d="M261.6,209.6c2.9,6.2,12.3,13.8,19.5,16.5c-0.7-1.3-4.7-4.9-5.4-6.2c2.9,3.1,7.2,7.3,11.6,8.4
				c0.5,0.2,1.1,0.2,1.6,0c0.3-0.2,0.5-0.4,0.7-0.6c0.2-0.3,0.3-0.6,0.4-0.9c0.9-3.1,1.4-6.4,1.5-9.6c0.2-2.7-0.8-5.4-2.6-7.5
				c-2.5-2.7-6.5-4-10.4-4.8c-3.3-0.7-6.7-1.1-9.9-0.5c-3.2,0.6-6.2,2.4-7.2,5.1"/>
			<path class="st2" d="M244.3,233.1c-0.1-2.4,0-4.8,0.3-7.2c0.7-5.5,2.5-25.5,21.4-20.4l-2,5.1c0,0,1.5,12.9-8.3,19.8
				c0,0,0,12.9-6.7,17.5C249.1,247.9,244.4,239.1,244.3,233.1"/>
			<path class="st2" d="M256.2,229.5c-1.1-0.4-2.3-0.6-3.5-0.4c-1.2,0.2-2.2,0.9-2.9,1.8c-0.6,1-0.9,2.2-0.6,3.4
				c0.2,1.2,0.7,2.2,1.5,3.2c0.5,0.7,1.1,1.3,1.8,1.7c0.4,0.2,0.8,0.3,1.2,0.3c0.4,0,0.9-0.1,1.2-0.3"/>
			<path class="st2" d="M254.3,236.2c0.1,0.1-0.5,0.7-1.5,0.2c-0.3-0.1-0.5-0.3-0.7-0.6c-0.2-0.2-0.3-0.5-0.4-0.8
				c-0.2-0.6-0.3-1.3-0.2-2c0-0.7,0.3-1.4,0.8-1.9c0.2-0.2,0.5-0.4,0.8-0.5c0.3-0.1,0.6-0.1,0.9-0.1c1.1,0.2,1.3,1,1.2,1
				c-0.1,0-0.5-0.4-1.2-0.3c-0.5,0.1-0.9,0.3-1.2,0.7c-0.3,0.4-0.4,0.8-0.4,1.3c-0.1,1.2,0.2,2.3,0.8,2.7
				C253.7,236.3,254.2,236.1,254.3,236.2z"/>
			<path class="st2" d="M254.3,239.2c-2.9,17.1-0.6,34.6,0,51.9c0.1,1.7,0.1,3.4-0.7,4.9c-1.2,2.2-3.9,3.3-6.5,3.5
				c-2.6,0.1-5.1-0.4-7.7-0.6c-0.3-1.7-0.6-3.3-0.8-5c-0.9,1.9-1.7,3.8-2.6,5.7c1.1-12.2,2.4-24.3,3.7-36.5"/>
		</g>
	</g>
	<g>
		<path class="st4" d="M55.7,226.8c0.4,0,0.7-0.2,1-0.4c0.4-0.3,0.6-0.6,0.7-1.1c0.1-0.3,0.1-0.6,0.1-0.8c0-0.3,0-0.6,0-1
			c0-2.8,0.1-6.7,0.1-11.6c0-1.2,0-2.5,0-3.8c0-0.7,0-1.4,0-2c0-0.3,0-0.7,0-1c-0.1-0.3-0.2-0.6-0.5-0.9c-0.2-0.2-0.5-0.4-0.9-0.5
			c-0.4,0-0.7,0-1.1,0h-2.3h-4.9H26.4c-0.4,0-0.8,0.2-1.2,0.5c-0.3,0.3-0.5,0.7-0.5,1.1l0,2.7c0,1.8-0.1,3.6-0.1,5.4
			c-0.1,3.5-0.1,6.9-0.2,10.2v1.2c0,0.4,0.1,0.7,0.3,1c0.2,0.3,0.5,0.5,0.8,0.7c0.4,0.1,0.7,0.1,1.1,0.1h4.6h8.2l11.9,0.1l3.2,0h0.8
			L55.7,226.8c-0.1-0.1-0.2-0.1-0.3-0.1h-0.8h-3.2l-11.9,0.1h-8.2h-4.6c-0.4,0-0.8,0-1.2-0.1c-0.4-0.2-0.8-0.4-1-0.8
			c-0.2-0.4-0.3-0.8-0.3-1.2c0-0.4,0-0.8,0-1.2c0-3.2,0.1-6.6,0.1-10.2c0-1.8,0.1-3.6,0.1-5.4c0-0.9,0-1.8,0-2.8
			c0.1-0.5,0.3-0.9,0.7-1.2c0.4-0.3,0.9-0.5,1.4-0.5h21.6h7.2c0.4,0,0.8,0,1.2,0c0.4,0.1,0.8,0.3,1,0.6c0.3,0.3,0.5,0.6,0.5,1
			c0,0.4,0,0.7,0,1.1c0,0.7,0,1.4,0,2c0,1.3,0,2.6-0.1,3.8c-0.1,4.9-0.2,8.8-0.2,11.6c0,0.3,0,0.7,0,1c0,0.3,0,0.6-0.1,0.9
			c-0.1,0.4-0.4,0.8-0.8,1.1c-0.2,0.2-0.5,0.3-0.8,0.3C55.9,226.8,55.8,226.8,55.7,226.8z"/>
		<path class="st4" d="M42.3,213.2l4,2.4l-4.1,2.3l-4.1,2.3l0.1-4.7l0.1-4.7L42.3,213.2z"/>
	</g>
	<path class="st5" d="M413.6,144.8c1.3-0.6,2.4-1.5,3.2-2.7c0.8-1.2,1.2-2.6,1.2-4c0-4-3.1-7.2-6.9-7.3c-3.8,0-7,3.2-7,7.2
		c0,1.4,0.4,2.8,1.2,4c0.8,1.2,1.9,2.1,3.2,2.7c-10.7,1.6-10.2,12.9-10.2,12.9l25.3,0.1C423.6,157.8,424.2,146.4,413.6,144.8z"/>
	<g>
		<path class="st6" d="M263.8,119.3l-41,3.8l2.6,26.9l41-3.8L263.8,119.3z"/>
		<path class="st7" d="M266.4,146.2c0,0,0-0.2-0.1-0.5l-0.2-1.4c-0.1-1.3-0.3-3.1-0.6-5.4c-0.5-4.7-1.2-11.4-2-19.6l0.2,0.1l-41,3.9
			l0.2-0.2v0.2v0.2l0,0.4l0.1,0.9l0.2,1.8l0.3,3.5c0.2,2.3,0.4,4.6,0.7,6.9c0.4,4.5,0.9,8.8,1.2,12.9l-0.2-0.2l29.5-2.6l8.4-0.7
			l2.3-0.2l0.6,0L266.4,146.2l-0.2,0.1l-0.6,0.1l-2.2,0.2l-8.4,0.8l-29.6,2.8h-0.2V150c-0.4-4.1-0.8-8.4-1.3-12.9
			c-0.2-2.3-0.4-4.5-0.7-6.9c-0.1-1.2-0.2-2.3-0.3-3.5l-0.2-1.8l-0.1-0.9l0-0.4v-0.2v-0.2l0.2-0.2l41-3.8h0.2v0.2
			c0.7,8.2,1.4,15,1.8,19.7c0.2,2.3,0.4,4.1,0.5,5.4c0.1,0.6,0.1,1.1,0.1,1.4C266.5,146.2,266.4,146.2,266.4,146.2z"/>
		<path class="st4" d="M263.8,119.3c-0.1,0.2-0.2,0.3-0.3,0.4l-1,1.1c-0.9,1-2.1,2.3-3.6,4l-12.1,13.2l-0.1,0.1l-0.1-0.1l-1.1-0.7
			l-16-10l-4.8-3.1l-1.3-0.9c-0.2-0.1-0.3-0.2-0.4-0.3c0.2,0.1,0.3,0.2,0.5,0.3l1.3,0.8l4.9,3l16.1,9.9l1.1,0.7h-0.3l12.2-13.1
			l3.7-3.9l1-1.1C263.6,119.6,263.7,119.4,263.8,119.3z"/>
	</g>
	<g>
		<path class="st8" d="M172.7,151.5c-0.1-0.9-0.2-1.7-0.4-2.6c-0.3-1-0.7-1.9-1.2-2.8c-0.7-1.2-1.7-2.2-2.8-3
			c-1.4-1.1-3.1-1.8-4.9-2c-1.8-0.3-3.6-0.1-5.3,0.5c-2,0.7-3.7,2-5,3.7c-1.4,1.8-2.1,4-2.1,6.2c0,2.2,0.7,4.4,2.1,6.2
			c1.3,1.7,3,2.9,5,3.7c2.4,0.8,4.9,0.9,7.3,0c2.4-0.8,4.4-2.4,5.7-4.5c0.6-0.9,1-1.8,1.2-2.8C172.5,153.2,172.6,152.3,172.7,151.5
			c0,0.1,0,0.1,0,0.2v0.5c0,0.3,0,0.6-0.1,0.8c0,0.4-0.1,0.7-0.2,1.1c-0.2,1-0.6,2-1.2,2.9c-1.3,2.2-3.3,3.8-5.8,4.7
			c-2.4,0.9-5.1,0.9-7.5,0c-1-0.3-2-0.8-2.8-1.4c-0.9-0.6-1.7-1.4-2.4-2.3c-1.4-1.9-2.2-4.1-2.2-6.4s0.8-4.6,2.2-6.4
			c0.7-0.9,1.4-1.7,2.4-2.3c0.9-0.6,1.8-1.1,2.8-1.4c1.7-0.6,3.6-0.8,5.5-0.5c1.8,0.3,3.6,1,5,2.1c1.1,0.8,2.1,1.9,2.8,3.1
			c0.5,0.9,0.9,1.9,1.2,2.9c0.1,0.4,0.2,0.7,0.2,1.1c0,0.3,0.1,0.5,0.1,0.8v0.5C172.7,151.4,172.7,151.4,172.7,151.5z"/>
		<path class="st8" d="M187.4,169.3c-0.1,0.1-3.9-2.3-8.6-5.4c-4.7-3.1-8.5-5.7-8.4-5.7c0.1-0.1,3.9,2.3,8.6,5.4
			C183.7,166.6,187.5,169.2,187.4,169.3z"/>
	</g>
	<path class="st7" d="M219.9,188.9l-8.6-9l2.8-2.5l5.9,6.2l12.4-11.9l2.7,2.6L219.9,188.9z"/>
	<g>
		<path class="st8" d="M460.4,180.3h0.4h0.5l0.7,0.1c1.6,0.2,3,0.9,4.3,1.8c2,1.5,3.3,3.8,3.6,6.3c0.1,0.7,0.1,1.5,0.1,2.2
			s0,1.6,0,2.4c0,1.6,0,3.3,0,5.1s0,3.7,0,5.7c0,1,0,2,0,3c0.1,1.1-0.1,2.1-0.3,3.2c-0.4,1.7-1.4,3.2-2.6,4.4
			c-1.3,1.2-2.9,2-4.6,2.4c-1.2,0.2-2.4,0.3-3.7,0.2H426l0.1,0l-7.4,7.2l-0.3,0.3V217l0.2,0.2c-0.8,0-1.6,0-2.4-0.1
			c-0.8-0.1-1.6-0.3-2.4-0.6c-1.5-0.6-2.8-1.5-3.8-2.7c-1-1.2-1.7-2.6-2-4.2c-0.1-0.7-0.2-1.5-0.2-2.3v-2.2c0-2.9,0-5.9,0-8.7v-4.2
			c0-1.4,0-2.8,0.1-4.1c0.2-1.3,0.7-2.6,1.5-3.8c0.7-1.1,1.7-2,2.8-2.7c1.1-0.7,2.4-1.2,3.7-1.4c1.3-0.1,2.5-0.2,3.8-0.1h13.7
			l19.8,0.1h5.4h1.4L460.4,180.3l-0.4-0.1h-1.4h-5.4l-19.8,0.1h-13.7c-1.2,0-2.5,0-3.7,0.1c-2,0.3-3.8,1.2-5.2,2.5
			c-1.4,1.4-2.3,3.1-2.6,5c-0.1,1.4-0.2,2.7-0.1,4.1v4.2c0,2.9,0,5.7,0,8.7c-0.1,1.5,0,3,0.2,4.4c0.3,1.5,1,2.8,2,4
			c1.5,1.8,3.6,2.9,6,3.2c0.8,0.1,1.6,0.1,2.4,0.1h0.2v7.5l-0.3-0.1l7.4-7.2l0.1-0.1h0.1h32.8c1.2,0.1,2.4,0,3.6-0.2
			c1.2-0.2,2.2-0.7,3.2-1.3c1.9-1.2,3.2-3.1,3.8-5.2c0.3-1,0.4-2,0.3-3c0-1,0-2,0-3c0-2,0-3.9,0-5.7c0-1.8,0-3.5,0-5.1
			c0-0.8,0-1.6,0-2.4c0-0.8,0-1.5-0.1-2.2c-0.3-2.4-1.5-4.6-3.5-6.2c-1.2-1-2.7-1.6-4.2-1.9l-0.7-0.1h-0.5L460.4,180.3z"/>
		<path class="st9" d="M431.2,199.9c0,0,0-0.2-0.1-0.5c-0.1-0.4-0.4-0.8-0.8-1c-0.3-0.2-0.6-0.3-0.9-0.3c-0.3,0-0.6,0-1,0.1
			c-0.4,0.1-0.7,0.4-0.9,0.7s-0.3,0.7-0.3,1.1s0.1,0.8,0.3,1.1c0.2,0.3,0.5,0.6,0.9,0.7c0.3,0.1,0.6,0.1,1,0.1
			c0.3,0,0.6-0.2,0.9-0.3c0.4-0.3,0.6-0.6,0.8-1C431.2,200,431.2,199.9,431.2,199.9c0,0.2,0,0.4,0,0.5c-0.1,0.5-0.3,0.9-0.7,1.2
			c-0.3,0.2-0.6,0.4-1,0.5c-0.4,0.1-0.8,0-1.1-0.1c-0.4-0.2-0.8-0.4-1.1-0.8c-0.3-0.4-0.4-0.8-0.4-1.3s0.1-0.9,0.4-1.3
			c0.3-0.4,0.7-0.7,1.1-0.8c0.4-0.1,0.7-0.2,1.1-0.1c0.4,0.1,0.7,0.2,1,0.4c0.4,0.3,0.7,0.7,0.7,1.2
			C431.3,199.5,431.3,199.7,431.2,199.9z"/>
		<path class="st9" d="M441,199.8c-0.1-0.2-0.1-0.3-0.1-0.5c-0.1-0.4-0.4-0.8-0.8-1.1c-0.3-0.2-0.6-0.3-0.9-0.3c-0.3,0-0.7,0-1,0.1
			c-0.4,0.1-0.7,0.4-0.9,0.7c-0.2,0.3-0.3,0.7-0.3,1.1c0,0.4,0.1,0.8,0.3,1.1c0.2,0.3,0.5,0.6,0.9,0.7c0.3,0.1,0.6,0.1,1,0.1
			c0.3,0,0.6-0.2,0.9-0.3c0.4-0.3,0.6-0.6,0.8-1C440.9,200.1,440.9,200,441,199.8c0,0,0.1,0.2,0,0.5c-0.1,0.5-0.3,0.9-0.7,1.2
			c-0.3,0.2-0.6,0.4-1,0.5s-0.8,0-1.1-0.1c-0.4-0.2-0.8-0.4-1.1-0.8c-0.3-0.4-0.4-0.8-0.4-1.3s0.1-0.9,0.4-1.3
			c0.3-0.4,0.7-0.7,1.1-0.8c0.4-0.1,0.7-0.2,1.1-0.1c0.4,0.1,0.7,0.2,1,0.4c0.4,0.3,0.6,0.7,0.7,1.2C441,199.6,441,199.8,441,199.8z
			"/>
		<path class="st9" d="M450.7,199.8c-0.1-0.2-0.1-0.3-0.1-0.5c-0.1-0.4-0.4-0.8-0.7-1.1c-0.3-0.2-0.6-0.3-0.9-0.3
			c-0.3,0-0.7,0-1,0.1c-0.4,0.1-0.7,0.4-0.9,0.7c-0.2,0.3-0.3,0.7-0.3,1.1c0,0.4,0.1,0.8,0.3,1.1c0.2,0.3,0.5,0.6,0.9,0.7
			c0.3,0.1,0.6,0.1,1,0.1c0.3,0,0.6-0.2,0.9-0.3c0.4-0.3,0.6-0.6,0.7-1C450.7,200,450.7,199.8,450.7,199.8s0.1,0.2,0,0.5
			c-0.1,0.5-0.3,0.9-0.7,1.2c-0.3,0.2-0.6,0.4-1,0.5c-0.4,0.1-0.8,0-1.1-0.1c-0.4-0.2-0.8-0.4-1.1-0.8c-0.3-0.4-0.4-0.8-0.4-1.3
			s0.1-0.9,0.4-1.3c0.3-0.4,0.7-0.7,1.1-0.8c0.4-0.1,0.7-0.2,1.1-0.1c0.4,0.1,0.7,0.2,1,0.4c0.4,0.3,0.6,0.7,0.7,1.2
			C450.8,199.6,450.7,199.8,450.7,199.8z"/>
	</g>
	<g>
		<path class="st10" d="M92.1,150.7c0-6.1-6.6-10-13.4-7c-1.5,0.7-2.8,1.9-3.6,3.3c-1.7,3.2-0.9,6.9,0.6,9.9l5.3,13
			c0.2,0.4,0.5,0.8,0.8,1c0.4,0.2,0.8,0.4,1.3,0.4c0.5,0,0.9-0.1,1.3-0.4c0.4-0.2,0.7-0.6,0.8-1l5.1-13
			C92.2,152.9,92.1,150.7,92.1,150.7z M85.7,156c-4.5,2.6-9.1-2.2-6.6-6.9c0.3-0.6,0.8-1.1,1.5-1.5c4.5-2.6,9.1,2.2,6.6,6.9
			C86.9,155.2,86.4,155.7,85.7,156z"/>
		<path class="st8" d="M115.4,171.9c0,0,0,0.1,0.1,0.2c0.1,0.2,0.1,0.4,0.2,0.7l0.9,2.7c0.8,2.4,2,5.9,3.5,10.4l0,0.1H120l-14.8-2.6
			h-0.1v-0.1l0.2,0.1c-6.5,4.7-14.3,7.2-22.4,7.2c-1.8,0-3.6-0.2-5.5-0.4c-1.9-0.3-3.7-0.7-5.5-1.2l-2.7-1c-0.5-0.2-0.9-0.3-1.4-0.6
			l-1.3-0.6c-3.7-1.8-7-4.2-9.9-7c-3-3-5.5-6.5-7.3-10.3c-2.6-5.6-3.8-11.8-3.3-17.9c0.5-6.1,2.6-12.1,6.1-17.2
			c3.5-5.1,8.3-9.3,14-12.1c5.6-2.8,11.9-4.1,18.2-3.9c9.2,0.3,17.9,4,24.4,10.2c6.6,6.2,10.5,14.6,11.1,23.6c0.3,3.7-0.1,7.4-1,11
			c-0.6,2.3-1.4,4.5-2.4,6.6c-0.4,0.7-0.6,1.3-0.9,1.6L115.4,171.9l0.3-0.5c0.2-0.4,0.5-0.9,0.8-1.6c1-2.1,1.8-4.3,2.4-6.6
			c0.9-3.6,1.2-7.3,0.9-10.9c-0.4-5.4-2-10.6-4.7-15.4c-2.7-4.7-6.5-8.7-11.1-11.8c-6.1-4.1-13.2-6.3-20.6-6.3
			c-7.4-0.1-14.6,2-20.7,6c-7.2,4.7-12.5,11.8-14.9,20c-2.4,8.2-1.7,16.9,2,24.6c1.8,3.8,4.2,7.2,7.2,10.2c2.9,2.8,6.2,5.1,9.8,6.9
			l1.3,0.6c0.4,0.2,0.9,0.4,1.3,0.6l2.7,1c1.8,0.5,3.6,0.9,5.5,1.2c1.8,0.3,3.6,0.4,5.4,0.5c8,0.1,15.8-2.4,22.2-7.1l0.2-0.1v0.2
			l-0.1-0.1l14.8,2.7l-0.1,0.1l-3.4-10.4l-0.9-2.7c-0.1-0.3-0.2-0.5-0.2-0.7C115.4,171.9,115.4,171.9,115.4,171.9L115.4,171.9z"/>
	</g>
	<g>
		<path class="st11" d="M353.4,141.9c-0.1-0.4-0.2-0.8-0.1-1.3c0-0.5-0.1-1-0.2-1.5c-0.1-0.7-0.2-1.4-0.4-2
			c-0.5-1.9-1.2-3.6-2.2-5.3c-1.3-2.2-3-4.1-5-5.6c-2.4-1.9-5.3-3.2-8.4-3.8c-3.5-0.7-7.1-0.5-10.5,0.6c-1.8,0.6-3.6,1.4-5.1,2.5
			c-1.7,1.1-3.1,2.5-4.3,4c-2.6,3.3-4.1,7.3-4.2,11.4c-0.1,4.1,1.2,8.2,3.6,11.6c0.6,0.8,1.2,1.6,1.9,2.3c0.7,0.7,1.4,1.3,2.2,1.9
			c1.5,1.2,3.2,2.1,5,2.8c3.3,1.3,6.9,1.7,10.5,1.1c3.1-0.5,6-1.6,8.6-3.4c2.1-1.5,3.9-3.3,5.3-5.4c1.1-1.6,1.9-3.3,2.4-5.2
			c0.2-0.7,0.4-1.3,0.5-2c0.1-0.5,0.2-1,0.3-1.5C353.2,142.7,353.2,142.3,353.4,141.9c0,0.4,0,0.9,0,1.3c0,0.5-0.1,1-0.1,1.6
			c-0.1,0.7-0.2,1.4-0.4,2.1c-0.5,1.9-1.3,3.7-2.3,5.4c-1.6,2.5-3.6,4.6-6.1,6.2c-2.5,1.6-5.2,2.7-8.2,3.2c-3.7,0.6-7.5,0.2-11-1.1
			c-1.9-0.7-3.7-1.7-5.3-2.9c-0.8-0.6-1.6-1.3-2.3-2c-0.7-0.8-1.4-1.6-2-2.4c-2.6-3.6-3.9-7.9-3.8-12.2c0.1-4.4,1.7-8.6,4.4-12
			c0.7-0.8,1.4-1.6,2.1-2.3c0.8-0.7,1.6-1.4,2.4-2c1.6-1.1,3.5-2,5.4-2.6c3.6-1.2,7.4-1.4,11.1-0.6c2.9,0.6,5.6,1.8,8,3.6
			c2.4,1.7,4.3,3.9,5.8,6.5c1,1.7,1.7,3.6,2.1,5.5c0.2,0.7,0.3,1.4,0.3,2.1c0.1,0.5,0.1,1,0.1,1.6
			C353.5,141,353.4,141.5,353.4,141.9z"/>
		<path class="st11" d="M349.3,129.4c0,0.1-0.3,0.4-1,0.9l-1.3,0.9c-0.3,0.2-0.5,0.4-0.8,0.6l-1,0.5c-3.7,2-7.8,3.1-12.1,3l-1.8-0.1
			l-1.7-0.3c-0.3,0-0.6-0.1-0.9-0.1l-0.8-0.2c-0.5-0.1-1.1-0.3-1.6-0.4c-1.8-0.6-3.5-1.4-5.1-2.3c-2.7-1.6-4.1-3.1-4-3.2
			c0.1-0.1,1.6,1.1,4.4,2.5c1.6,0.8,3.3,1.5,5,2c0.5,0.1,1,0.3,1.5,0.4l0.8,0.2l0.8,0.1l1.7,0.2l1.7,0.1c4,0.1,8.1-0.8,11.7-2.6
			l1-0.4c0.3-0.2,0.6-0.3,0.9-0.5l1.4-0.7C348.8,129.5,349.2,129.3,349.3,129.4z"/>
		<path class="st11" d="M316.4,153.7c0-0.1,0.3-0.4,1-0.9l1.3-0.9c0.3-0.2,0.5-0.4,0.8-0.6l1-0.5c3.7-2,7.8-3.1,12.1-3l1.8,0.1
			l1.7,0.3c0.3,0.1,0.6,0.1,0.9,0.1l0.8,0.2c0.5,0.2,1.1,0.3,1.6,0.4c1.8,0.6,3.5,1.4,5.1,2.3c2.7,1.6,4.1,3.1,4,3.2
			c-0.1,0.1-1.6-1.1-4.4-2.5c-1.6-0.8-3.3-1.5-5-2c-0.5-0.1-1-0.2-1.5-0.4l-0.8-0.2l-0.8-0.1l-1.7-0.2l-1.7-0.1
			c-4-0.1-8.1,0.8-11.7,2.6l-1,0.5c-0.3,0.2-0.6,0.3-0.9,0.5l-1.4,0.8C317,153.6,316.5,153.8,316.4,153.7z"/>
		<path class="st11" d="M353.4,142.3c0,0.3-9.2,0.3-20.6,0.1c-11.4-0.3-20.5-0.7-20.5-1s9.2-0.3,20.6-0.1
			C344.2,141.6,353.4,142,353.4,142.3z"/>
		<path class="st11" d="M331.9,161.4c-0.3,0-0.3-9-0.1-20c0.3-11,0.7-20,1.1-20c0.3,0,0.3,9,0.1,20
			C332.7,152.5,332.2,161.4,331.9,161.4z"/>
		<path class="st11" d="M331.9,161.3c-0.1,0.1-2.3-1.4-4.9-4.8c-1.5-2-2.8-4.2-3.7-6.5c-1.1-2.9-1.6-5.9-1.6-9
			c0.1-3.1,0.8-6.1,2.1-8.9c1-2.3,2.4-4.4,4-6.3c2.8-3.3,5-4.7,5.1-4.6c0.1,0.1-2,1.8-4.5,5.1c-1.5,1.9-2.7,4-3.7,6.2
			c-1.2,2.7-1.8,5.6-1.9,8.5c0,2.9,0.5,5.8,1.5,8.6c0.8,2.3,2,4.4,3.3,6.4C330,159.5,332,161.2,331.9,161.3z"/>
		<path class="st11" d="M333.4,121.4c0.1-0.1,2.3,1.4,4.9,4.8c1.5,2,2.8,4.2,3.7,6.5c1.1,2.9,1.6,5.9,1.6,9
			c-0.1,3.1-0.8,6.1-2.1,8.9c-1,2.3-2.4,4.4-4,6.3c-2.8,3.3-5,4.7-5.1,4.6c-0.1-0.1,2-1.8,4.5-5.1c1.5-1.9,2.7-4,3.7-6.2
			c1.2-2.7,1.8-5.6,1.9-8.5c0-2.9-0.5-5.8-1.5-8.6c-0.8-2.3-2-4.4-3.3-6.4C335.3,123.2,333.2,121.5,333.4,121.4z"/>
		<path class="st8" d="M312.4,171.2l-0.3,0.1l-0.7,0.2l-2.8,0.7l-10.9,2.4l-0.1,0l0-0.1l4-14.1v-0.1h0.1l-0.1,0.2
			c-3.3-5.2-5.2-11.1-5.5-17.2c-0.1-1.7,0-3.4,0.1-5.1c0.2-1.8,0.5-3.5,0.9-5.2c0.4-1.8,1-3.5,1.7-5.3c0.4-0.9,0.8-1.7,1.2-2.6
			c0.2-0.4,0.5-0.9,0.7-1.3c0.3-0.4,0.5-0.8,0.7-1.2c2.2-3.4,4.9-6.4,8-9c3.3-2.7,7.1-4.7,11.2-6.1c6-2.1,12.4-2.6,18.6-1.6
			c6.2,1,12.1,3.6,17,7.5s8.7,8.9,11.1,14.6c2.4,5.7,3.2,11.9,2.3,18.1c-1.1,8.9-5.6,17-12.6,22.8c-7,5.8-15.9,8.9-25.1,8.6
			c-3.8-0.1-7.6-0.7-11.2-2c-2.3-0.8-4.4-1.8-6.5-2.9c-0.7-0.4-1.2-0.7-1.6-1L312.4,171.2l0.5,0.3c0.4,0.2,0.9,0.5,1.6,0.9
			c2.1,1.2,4.3,2.1,6.5,2.9c3.6,1.2,7.3,1.8,11.1,1.9c6.4,0.1,12.8-1.4,18.5-4.4c5.7-3,10.4-7.4,13.7-12.8
			c3.4-5.4,5.2-11.5,5.4-17.8c0.2-6.3-1.4-12.5-4.4-18c-4.2-7.5-10.9-13.2-19.1-16.3c-8.1-3-17.1-3.2-25.3-0.3
			c-4,1.4-7.8,3.4-11.1,6.1c-3.1,2.5-5.8,5.5-7.9,8.9c-0.3,0.4-0.5,0.8-0.7,1.2c-0.3,0.4-0.5,0.8-0.7,1.2l-1.2,2.5
			c-0.7,1.7-1.3,3.4-1.7,5.2c-0.4,1.7-0.8,3.4-0.9,5.2c-0.2,1.7-0.2,3.4-0.1,5.1c0.3,6.1,2.1,11.9,5.4,17.1l0.1,0.2h-0.2l0.1-0.1
			c-1.6,5.4-2.9,10.2-4.1,14.1l-0.1-0.1l10.9-2.4l2.9-0.6l0.7-0.2C312.2,171.2,312.3,171.2,312.4,171.2L312.4,171.2z"/>
	</g>
	<g>
		<path class="st12" d="M343.6,201.7c-3.6,0.8-5.9,4.4-6.7,7.9c-0.8,3.5-0.4,7.2-0.7,10.7c-0.3,3.6-1.6,7.4-4.7,9.3l3.1,0.9
			c-0.6,1.9-1.9,3.5-3.6,4.5c1.2,0.9,2.7,1.4,4.2,1.4c-1.8,0.5-2.3,3-1.3,4.5c1,1.5,2.9,2.3,4.7,2.7c2.1,0.6,4.4,0.7,6.5,0.2
			c2.9-0.9,5.2-3.4,6.3-6.2c1.1-2.8,1.4-5.9,1.5-8.9c0.2-7.6-0.2-15.2-2.2-22.6c-0.5-1.8-1.1-3.7-2.7-4.7c-1.5-1-4.2-0.6-4.7,1.2"/>
		<path class="st7" d="M424.7,311c-0.9-3.2-5.8-21-10.3-32.6c-4.9-12.9-15.1-15.6-15.1-15.6c-22.9-7.6-43.4-7.6-65.3-0.2
			c-0.7,0.2-1.4,0.4-2,0.7h-0.1c-16.3,6.2-18,23-18,23l-6.9,40.6c-0.1,0.3-0.1,0.6-0.2,1l-0.1,0.4c-0.1,1.9,0.4,3.8,1.4,5.4
			c1,1.6,2.5,2.9,4.2,3.8c9.5,4.3,18.7,3.3,26.5,0.1l-5.7,8.1h67.8l-4.4-10.7l1.5-6.4l10.5,12.3c1.3,1.5,2.9,2.5,4.8,3.1
			c12.1,1.4,14.1-16.2,11.8-26.4"/>
		<path class="st13" d="M381.7,258.4c0,0-10.9,53.6-14.8,53.2c-3.9-0.4-21.9-52.2-21.9-52.2S368.1,253.4,381.7,258.4z"/>
		<path class="st13" d="M350.7,262.3c-0.1-6.2-0.2-12.7-0.2-12.7s-8.2-1.3-9.9-11.6c-1.7-9.9-0.1-32.7-0.1-32.7
			c5.8-2.3,12.1-2.8,18.2-1.5c6.1,1.3,11.6,4.4,15.9,8.9l-0.4,50.1c0,5.8-5.2,10.4-11.6,10.3C356,273.1,350.7,268.2,350.7,262.3z"/>
		<path class="st9" d="M343.1,222.6c0,0.3,0.1,0.7,0.4,0.9c0.2,0.2,0.6,0.4,0.9,0.4c0.2,0,0.3,0,0.5-0.1c0.2-0.1,0.3-0.1,0.4-0.3
			c0.1-0.1,0.2-0.2,0.3-0.4c0.1-0.2,0.1-0.3,0.1-0.5c0-0.3-0.1-0.7-0.4-0.9c-0.2-0.2-0.6-0.4-0.9-0.4c-0.2,0-0.3,0-0.5,0.1
			c-0.2,0.1-0.3,0.1-0.4,0.3s-0.2,0.2-0.3,0.4C343.2,222.2,343.1,222.4,343.1,222.6z"/>
		<path class="st9" d="M341.3,221.6c0.2,0.2,1.2-0.6,2.7-0.6c1.5,0,2.6,0.7,2.7,0.5c0.2-0.2-0.1-0.4-0.6-0.7
			c-0.6-0.4-1.4-0.7-2.2-0.6c-0.8,0-1.5,0.3-2.1,0.7C341.4,221.2,341.2,221.6,341.3,221.6z"/>
		<path class="st9" d="M358,223.3c0,0.3,0.1,0.7,0.4,0.9c0.2,0.2,0.6,0.4,0.9,0.4c0.2,0,0.3,0,0.5-0.1c0.2-0.1,0.3-0.1,0.4-0.3
			c0.1-0.1,0.2-0.2,0.3-0.4c0.1-0.2,0.1-0.3,0.1-0.5c0-0.3-0.1-0.7-0.4-0.9c-0.2-0.2-0.6-0.4-0.9-0.4c-0.2,0-0.3,0-0.5,0.1
			c-0.2,0.1-0.3,0.1-0.4,0.3c-0.1,0.1-0.2,0.2-0.3,0.4C358,222.9,358,223.1,358,223.3z"/>
		<path class="st9" d="M356.6,222.1c0.2,0.2,1.2-0.6,2.7-0.6c1.5,0,2.6,0.7,2.7,0.5c0.2-0.2-0.1-0.4-0.6-0.7
			c-0.6-0.4-1.4-0.7-2.2-0.6c-0.8,0-1.5,0.3-2.1,0.7C356.7,221.7,356.6,222,356.6,222.1z"/>
		<path class="st9" d="M351.4,232.7c-0.8-0.2-1.6-0.4-2.4-0.4c-0.4,0-0.7-0.1-0.8-0.4c0-0.4,0-0.8,0.2-1.1l1.1-2.8
			c1.5-4,2.6-7.2,2.4-7.3c-0.2-0.1-1.5,3.1-3,7.1c-0.4,1-0.7,1.9-1,2.8c-0.2,0.4-0.3,0.9-0.2,1.4c0.1,0.1,0.1,0.2,0.2,0.3
			c0.1,0.1,0.2,0.2,0.4,0.2c0.2,0.1,0.4,0.1,0.6,0.1C349.8,232.8,350.6,232.8,351.4,232.7z"/>
		<path class="st14" d="M350.5,249.7c5,0,9.9-1.3,14.2-3.8c0,0-3.4,7.2-14.1,6.2L350.5,249.7z"/>
		<path class="st14" d="M352,236.2c0.3-0.3,0.6-0.6,1.1-0.8c0.4-0.2,0.9-0.2,1.3-0.2c0.3,0,0.6,0.1,0.9,0.3c0.3,0.1,0.5,0.4,0.7,0.6
			c0.2,0.2,0.3,0.5,0.3,0.8c0,0.3-0.1,0.6-0.2,0.9c-0.2,0.3-0.5,0.4-0.9,0.5c-0.3,0.1-0.7,0.1-1,0c-0.7-0.2-1.3-0.6-1.9-1.1
			c-0.2-0.1-0.3-0.3-0.4-0.4c-0.1-0.1-0.1-0.2-0.1-0.3C351.9,236.4,351.9,236.3,352,236.2"/>
		<path class="st9" d="M355.7,233.7c-0.2,0-0.2,1.5-1.6,2.7c-1.4,1.1-3.1,1-3.1,1.2c0,0.1,0.4,0.3,1.1,0.3c0.9,0,1.8-0.3,2.6-0.9
			c0.7-0.6,1.1-1.4,1.2-2.2C356,234.1,355.8,233.7,355.7,233.7z"/>
		<path class="st12" d="M368.7,204.3c-3.8,5.5-14,11.2-21.4,12.6c0.8-1.1,5.3-3.9,6.2-5c-3.3,2.5-8.1,5.8-12.5,6.1
			c-0.5,0.1-1.1,0-1.5-0.2c-0.3-0.2-0.5-0.4-0.6-0.7c-0.1-0.3-0.2-0.6-0.2-0.9c-0.3-3.1-0.3-6.3,0.1-9.4c0.3-2.6,1.6-5.1,3.7-6.8
			c2.8-2.2,6.9-2.8,10.7-2.9c3.2-0.1,6.5,0,9.5,1.1c3,1.1,5.5,3.3,6,6"/>
		<path class="st12" d="M381.3,229.4c0.5-2.3,0.8-4.6,0.9-7c0.2-5.4,1.9-24.7-17.1-22.8l1.1,5.2c0,0-3.5,12,4.6,20.2
			c0,0-2.3,17,3.3,22.4C374.2,247.5,380.3,235.2,381.3,229.4z"/>
		<path class="st13" d="M370.6,224.1c1.1-0.2,2.3-0.2,3.4,0.2c1.1,0.4,2,1.2,2.5,2.2c0.4,1.1,0.5,2.2,0.1,3.3
			c-0.4,1.1-1.1,2-1.9,2.8c-0.6,0.6-1.3,1.1-2.1,1.4c-0.4,0.1-0.8,0.2-1.2,0.1c-0.4-0.1-0.8-0.2-1.1-0.5"/>
		<path class="st14" d="M371.3,230.9c-0.1,0,0.4,0.7,1.4,0.4c0.6-0.2,1-0.6,1.3-1.1c0.3-0.6,0.5-1.2,0.6-1.8c0.1-0.7-0.1-1.4-0.5-2
			c-0.2-0.2-0.4-0.4-0.6-0.6c-0.3-0.1-0.5-0.2-0.8-0.3c-1.1,0-1.4,0.7-1.3,0.7c0.1,0,0.5-0.3,1.2-0.1c0.4,0.2,0.8,0.5,1,0.9
			c0.2,0.4,0.3,0.9,0.2,1.3c-0.1,1.1-0.6,2.2-1.2,2.5C371.9,231,371.4,230.8,371.3,230.9z"/>
		<path class="st9" d="M333.3,312.3c-0.1,0-0.2-4.2-0.2-9.4c0-5.2,0.1-9.4,0.2-9.4s0.2,4.2,0.2,9.4
			C333.5,308.1,333.4,312.3,333.3,312.3z"/>
		<path class="st13" d="M360.9,293.1c0,0-9.5,0.1-10.1,2.1c-1,3.4,0.8,22.1,0.8,22.1l8.8,2.9c0,0,4.2-1,2.3-8.9
			c-1.3-5-3.2-9.8-5.8-14.3c0,0,11.7,0.3,11.3-2.2S360.9,293.1,360.9,293.1z"/>
		<path class="st13" d="M357.1,298.6c0.5-0.1,12.2-1,11.4,0.8c-0.7,1.8-11.4,2.3-11.4,2.3V298.6z"/>
		<path class="st9" d="M394.5,271.1l-1.4,35.4l-5.3,13.6l-32.6,0.7l-1.3-43.9L394.5,271.1z"/>
		<path class="st9" d="M350,305.6c-0.1,0.1-0.3,0.1-0.4,0.2l-1.2,0.5l-4.4,1.8l-14.4,5.9l-7.9,3.2c-2.2,0.8-4.3,1.8-6.3,2.9
			c-1.4,0.8-2.6,1.8-3.6,2.9c-0.7,0.9-0.9,1.4-1,1.4c0-0.1,0.1-0.3,0.2-0.4c0.2-0.4,0.4-0.7,0.7-1.1c0.9-1.2,2.1-2.3,3.5-3.1
			c2-1.1,4.2-2.1,6.4-2.9l7.9-3.2l14.4-5.8l4.4-1.7l1.2-0.4C349.7,305.7,349.9,305.6,350,305.6z"/>
		<path class="st9" d="M360.8,319.5c-0.2,0.3-0.5,0.6-0.7,0.9c-0.5,0.5-1.2,1.3-2.1,2.2c-1.8,1.8-4.5,4.2-7.5,6.7
			c-3,2.5-5.9,4.6-8,6.1c-1,0.7-1.9,1.3-2.5,1.7c-0.3,0.2-0.6,0.4-1,0.6c0.3-0.3,0.6-0.5,0.9-0.7l2.4-1.8c2.1-1.5,4.9-3.7,7.9-6.2
			c3-2.5,5.7-4.8,7.6-6.6c0.9-0.9,1.7-1.6,2.2-2.1C360.2,319.9,360.5,319.7,360.8,319.5z"/>
		<path class="st9" d="M410,342.1c-0.1,0.1-4.9-5.3-10.7-11.9c-5.8-6.7-10.5-12.1-10.4-12.2c0.1,0,4.9,5.3,10.7,11.9
			C405.4,336.6,410,342.1,410,342.1z"/>
		<path class="st9" d="M419.2,316.4c-0.4-0.1-0.7-0.2-1.1-0.4c-0.7-0.3-1.6-0.7-2.8-1.2c-2.4-1-5.6-2.6-9-4.5
			c-3.4-1.9-6.4-3.9-8.5-5.4c-1-0.7-1.9-1.4-2.5-1.8c-0.3-0.2-0.6-0.5-0.9-0.7c0.3,0.2,0.6,0.4,0.9,0.6c0.7,0.4,1.5,1,2.5,1.7
			c2.1,1.4,5.1,3.3,8.5,5.2c3.4,1.9,6.6,3.5,8.9,4.6l2.8,1.3C418.5,316,418.9,316.2,419.2,316.4z"/>
		<path class="st9" d="M402.3,308.6c-0.1,0-0.7-3.8-1.3-8.4c-0.6-4.7-1-8.5-0.9-8.5s0.7,3.8,1.3,8.4
			C402,304.8,402.4,308.6,402.3,308.6z"/>
		<path class="st9" d="M374.7,230.8c-0.1,0.2-0.2,0.3-0.3,0.5l-0.9,1.2l-3.4,4.3v-0.2l5.5,4.2l0.5,0.4h-0.3l4.8-5.8v0.2l-3.6-2.9
			l-1-0.8c-0.1-0.1-0.2-0.2-0.3-0.3c0,0,0.1,0.1,0.4,0.2l1,0.7l3.7,2.7l0.1,0.1l-0.1,0.1c-1.4,1.7-3,3.7-4.7,5.9l-0.1,0.1l-0.2-0.1
			l-0.5-0.3c-2-1.5-3.9-3-5.5-4.3l-0.1-0.1l0.1-0.1l3.5-4.2l1-1.2C374.5,230.9,374.7,230.8,374.7,230.8z"/>
		<path class="st13" d="M388.7,317.5c-5.3-0.2-10.5-0.8-15.8-1.6c-6.2-1-6.1-1.5-5.9-2.2c0.6-1.8,10.9,1.3,9.1-0.7
			c-1.9-1.9-13-2.4-12.4-4.3c0.9-2.5,11.7,1,12.6,1.2s1.3-1.1,0.4-1.2c-1.2-0.2-14-3-13.1-5.4c0.5-1.4,2.9-0.2,2.9-0.2
			s11.8,3.4,12.2,2.3c0.4-1.2-6.5-3.4-8.9-4c-2.4-0.6-3-1.9-1.9-2.7c0.7-0.5,8.1,1.1,10.4,1.8c2.3,0.7,8.7,2.5,6.3-0.9l-0.1-0.2
			c-2.5-3.3-3.3-6.7-2.8-7.8c0.1-0.2,0.3-0.4,0.5-0.6c0.2-0.1,0.5-0.2,0.8-0.2s0.5,0.1,0.8,0.2c0.2,0.1,0.4,0.3,0.5,0.6
			c0.1,0.2,0.2,0.4,0.2,0.5c0,0.1,0.1,0.2,0.1,0.3c0.6,1.3,1.3,2.5,2.1,3.6c0.7,1,1.6,2,2.7,2.7c1.2,0.9,4.2,4,5.1,4.5"/>
		<path class="st15" d="M170.3,275.3c-3.3-0.1-6.5-1.4-8.8-3.6c-2.4-2.3-3.7-5.3-3.8-8.5c-0.2-5.6-0.3-10.9-0.3-10.9
			s-10.5-1-11.3-11.1c-0.8-10.1-0.4-33.5-0.4-33.5c5.8-2.8,12.2-4.1,18.6-3.7c6.4,0.4,12.6,2.5,18,6l1.6,1.1l-0.4,51.9
			c0,1.7-0.4,3.3-1,4.8c-0.7,1.5-1.6,2.9-2.9,4.1c-1.2,1.2-2.7,2.1-4.2,2.7C173.7,275.1,172,275.4,170.3,275.3z"/>
		<path class="st9" d="M157.1,234.9c0-0.1-0.9-0.2-2.3-0.3c-0.4,0-0.7-0.1-0.7-0.3c0-0.4,0-0.7,0.2-1.1l1-2.9c1.3-4.1,2.2-7.5,2-7.6
			c-0.2-0.1-1.5,3.2-2.8,7.4c-0.3,1-0.6,2-0.9,2.9c-0.2,0.5-0.3,1-0.1,1.5c0.1,0.1,0.2,0.3,0.3,0.3c0.1,0.1,0.3,0.2,0.4,0.2
			c0.2,0,0.4,0.1,0.6,0C156.2,235.1,157.1,235,157.1,234.9z"/>
		<path class="st16" d="M161.8,236.2c-2.2,1-4.5,1.8-6.9,2.4c0.5,0.7,1.3,1.2,2.2,1.4c0.9,0.2,1.8,0.2,2.6-0.2
			C162.7,238.5,161.8,236.2,161.8,236.2z"/>
		<path class="st17" d="M157.3,252.1c4.8-0.2,9.4-1.8,13.3-4.6c0,0-2.7,7.5-13.2,7.2L157.3,252.1z"/>
		<path class="st15" d="M183.2,223.5c0-0.4,0.1-0.8,0.4-1.1c0.3-0.3,0.6-0.5,1-0.5c1.9-0.1,5.1,0.7,5.4,5.9c0.4,7.5-6.9,5.6-7,5.4
			C183.2,233,183.2,226.4,183.2,223.5z"/>
		<path class="st17" d="M184.9,230.3c0,0,0.1,0.1,0.4,0.2c0.3,0.1,0.7,0.1,1,0c0.8-0.3,1.4-1.6,1.4-3c0-0.6-0.2-1.3-0.5-1.8
			c-0.1-0.2-0.2-0.4-0.4-0.6c-0.2-0.2-0.4-0.3-0.6-0.3c-0.2,0-0.3,0-0.5,0.1c-0.1,0.1-0.3,0.2-0.3,0.3c-0.1,0.2,0,0.4-0.1,0.4
			c-0.1,0-0.2-0.1-0.1-0.4c0-0.2,0.1-0.4,0.3-0.5c0.1-0.1,0.2-0.1,0.3-0.2c0.1,0,0.3-0.1,0.4,0c0.3,0,0.6,0.2,0.9,0.4
			c0.3,0.2,0.5,0.4,0.6,0.7c0.4,0.6,0.6,1.3,0.6,2c0,1.5-0.7,3-1.8,3.3c-0.2,0.1-0.4,0.1-0.6,0.1c-0.2,0-0.4-0.1-0.6-0.2
			C184.9,230.5,184.9,230.3,184.9,230.3z"/>
		<path class="st9" d="M148.9,224.8c0,0.4,0.2,0.7,0.5,0.9c0.3,0.2,0.6,0.4,1,0.4c0.2,0,0.4,0,0.5-0.1c0.2-0.1,0.3-0.2,0.4-0.3
			c0.1-0.1,0.2-0.3,0.3-0.4c0.1-0.2,0.1-0.3,0.1-0.5c0-0.4-0.2-0.7-0.5-0.9c-0.3-0.2-0.6-0.4-1-0.4c-0.2,0-0.4,0-0.5,0.1
			c-0.2,0.1-0.3,0.2-0.4,0.3c-0.1,0.1-0.2,0.3-0.3,0.4C148.9,224.5,148.9,224.6,148.9,224.8z"/>
		<path class="st9" d="M146.5,223.4c0.2,0.2,1.2-0.7,2.7-0.8c1.5-0.1,2.7,0.6,2.8,0.4c0.1-0.2-0.1-0.4-0.6-0.7
			c-0.7-0.4-1.5-0.6-2.3-0.5c-0.8,0-1.5,0.3-2.1,0.8C146.5,223,146.3,223.3,146.5,223.4z"/>
		<path class="st9" d="M164,224.5c0,0.4,0.2,0.7,0.5,0.9c0.3,0.2,0.6,0.4,1,0.4c0.2,0,0.4,0,0.5-0.1c0.2-0.1,0.3-0.2,0.4-0.3
			c0.1-0.1,0.2-0.3,0.3-0.4c0.1-0.2,0.1-0.3,0.1-0.5c0-0.4-0.2-0.7-0.5-0.9c-0.3-0.2-0.6-0.4-1-0.4c-0.2,0-0.4,0-0.5,0.1
			c-0.2,0.1-0.3,0.2-0.4,0.3c-0.1,0.1-0.2,0.3-0.3,0.4C164,224.2,164,224.4,164,224.5z"/>
		<path class="st9" d="M161.9,223.4c0.2,0.2,1.2-0.7,2.7-0.8c1.5-0.1,2.7,0.6,2.8,0.4c0.2-0.2-0.1-0.4-0.6-0.7
			c-0.7-0.4-1.5-0.6-2.3-0.5c-0.8,0-1.5,0.3-2.1,0.8C161.9,223,161.8,223.3,161.9,223.4z"/>
		<path class="st9" d="M171.9,204.1c-0.7,1.6-0.9,3.3-0.6,5c0.3,1.7,1.1,3.3,2.3,4.5c1,1,2.3,1.8,3.2,3c1.8,2.4,1.5,5.7,1.8,8.6
			c0.1,1.4,0.5,2.9,1.5,3.8c1,0.9,3,1,3.7-0.2c0.2-0.4,0.3-0.8,0.4-1.2c0.6-3.3,1.3-6.6,1.9-9.9c0.5-2.5,1-5,0.5-7.5
			c-0.3-1.5-0.8-2.8-1.7-4.1c-0.8-1.2-1.9-2.3-3.2-3.1c-1.3-0.8-2.7-1.3-4.2-1.5c-1.5-0.2-3-0.1-4.5,0.3"/>
		<path class="st9" d="M173.5,202c-3.5-0.7-5.5-1.8-8-2.9c-2.5-1.2-5.3-1.5-8-0.9c-1.8,0.5-3.5,1.5-5.3,1.5c-1.8,0-3.4-1.1-5.2-1.6
			c-1.2-0.4-2.4-0.5-3.7-0.4c-1.2,0.1-2.4,0.5-3.5,1.1c-1.7,0.9-3.2,2.6-3.4,4.6c-0.1,2,1.7,4.1,3.5,3.5c-1.9,0.7-2.7,3.4-1.7,5.2
			c0.5,0.9,1.3,1.6,2.2,2c0.9,0.4,1.9,0.6,3,0.4c2-0.4,3.9-1.5,5.2-3.1c0,2.2,2.3,3.8,4.5,3.7c2.1-0.1,4.1-1.3,5.8-2.6
			c1.8-1.3,3.5-2.7,5.6-3.1c1.5-0.3,2.9-0.1,4.4-0.3c1.5-0.2,3-0.8,3.8-2.1c0.7-1.4,3.5-2.9,2.1-3"/>
		<path class="st9" d="M152.6,213c0.3,0.1,0.5,0.3,0.8,0.4c0.8,0.2,1.6,0.2,2.4,0c0.5-0.2,1-0.4,1.5-0.7c0.5-0.3,1-0.7,1.6-1.1
			c0.6-0.4,1.2-0.8,1.8-1.1c0.7-0.4,1.5-0.5,2.3-0.6c1.6,0,3.1,0.4,4.4,0.3c0.6,0,1.2-0.2,1.7-0.5c0.5-0.3,1-0.7,1.3-1.1
			c0.5-0.6,0.8-1.4,0.9-2.1c0.1-0.6,0-0.9,0-0.9c0,0,0,0.1,0.1,0.2c0,0.2,0.1,0.4,0,0.7c0,0.8-0.3,1.6-0.8,2.3
			c-0.3,0.5-0.8,0.9-1.3,1.2c-0.6,0.3-1.2,0.5-1.9,0.6c-1.4,0.1-2.9-0.3-4.5-0.3c-1.5,0-2.9,0.9-4,1.6c-0.6,0.4-1.1,0.8-1.6,1.1
			c-0.5,0.3-1,0.5-1.6,0.6c-0.8,0.2-1.7,0.2-2.5-0.1c-0.2-0.1-0.4-0.2-0.6-0.4C152.6,213.1,152.6,213,152.6,213z"/>
		<path class="st9" d="M172.4,198.5c0,0.8,0.1,1.6,0.2,2.4c0.3,0.8,0.6,1.5,1,2.2c-0.7-0.6-1.1-1.3-1.3-2.1
			C172,200.2,172.1,199.3,172.4,198.5z"/>
		<path class="st9" d="M176.3,198.4c0.1,0.1-0.9,1-1.6,2.3c-0.7,1.4-0.9,2.6-1,2.6c-0.1-1,0.2-1.9,0.7-2.8
			C174.8,199.6,175.5,198.9,176.3,198.4z"/>
		<path class="st15" d="M225.4,304.4l16,40.1h-24.5l-11.4-28.5L225.4,304.4z"/>
		<path class="st15" d="M138.8,271.9c0,0-21.1,21.1-30.2,21.1c-3,0-5.3-35.2-5.4-45.3c0.5-1.3,1.2-2.5,2-3.6c0.8-1,1.7-2,2.6-2.9
			c1.3-1,2.6-1.9,4.1-2.6c1.4-0.5,1.5-2.4,0.2-2.8c-1.3-0.4-5.2,0.9-8.8,4.1c-3.6,3.3-2.5-4-2.1-6.7c0.3-2.7,1-11,0.2-11.7
			c-1.1-1.1-2.5-0.1-2.8,2.6c-0.3,2.7-1.6,10.7-3.1,10.5c-1.5-0.2,0.5-13.8,0.5-13.8s0.9-2.9-0.7-3.1c-3-0.5-3.9,14-4,15.4
			c0,1-1.6,0.8-1.5-0.2c0.1-1,2.2-13.5-0.8-14.1c-2.3-0.4-0.9,12-2.8,14.4c-1.9,2.4-0.1-9.5-2.4-9.9c-0.8-0.1-1.5-0.1-1.5,6.9
			c0,3.7,1.5,9.4,0.9,16.6c1,21.3-0.1,81,24.2,74c26.7-7.8,45-24.9,45-24.9L138.8,271.9z"/>
		<path class="st9" d="M197.8,290.8c0.1,0.3,0.2,0.6,0.2,0.8c0.1,0.5,0.3,1.3,0.5,2.3c0.4,2,0.8,4.7,1.2,7.8c0.3,3,0.5,5.8,0.6,7.8
			c0,1,0.1,1.8,0,2.4c0,0.3,0,0.6,0,0.9c-0.1-0.3-0.1-0.6-0.1-0.9c0-0.6-0.1-1.4-0.2-2.4c-0.1-2-0.4-4.7-0.7-7.8
			c-0.4-3-0.7-5.8-1.1-7.8c-0.1-0.9-0.3-1.7-0.4-2.3C197.8,291.4,197.8,291.1,197.8,290.8z"/>
		<path class="st7" d="M135.2,344.4l67.3,0.3l-2.3-13.8c0.6-6.6,0.6-13.2-0.1-19.7l3.4,9l27.8-13.6c0,0-10.1-26.3-18.6-35.2
			c-10.7-11.2-29.9-10.1-29.9-10.1l-13,8.6l-12-8.2c-6.4,0.7-12.7,2.5-18.5,5.2l-0.6,0.2v0.1c-7.1,3.6-17.1,12.4-26.7,20.9
			l11.1,10.5l12.3,11.1c0.7-0.1,1.4-0.1,2.1-0.1C137.7,310.8,135.2,344.4,135.2,344.4z"/>
		<path class="st18" d="M198.1,286.6l9.2,31.8l-3.7,1.8l-3.4-9C200.2,311.2,196.9,292.3,198.1,286.6z"/>
		<path class="st7" d="M157.2,261.6v-3.4c0,0,10.5-0.8,12.6,11.3c0,0,3.4-11.3,13.6-12.4l1.5,5.3c0,0-4.8,14.7-5.5,14.9
			c-0.7,0.1-9.5,2.6-9.5,2.6l-5.1-1.1l-5.7-6.3L157.2,261.6z"/>
		<path class="st9" d="M185.1,261.9c-0.2,0.2-0.4,0.4-0.6,0.6c-0.4,0.4-0.9,0.9-1.6,1.6c-1.7,1.8-3.2,3.7-4.6,5.8
			c-0.3,0.5-0.6,1-0.9,1.5l-0.2,0.3l-0.2-0.3c-1.2-2.1-2.2-4-3-5.5c-0.2-0.3-0.4-0.5-0.7-0.7c-0.2-0.1-0.5-0.2-0.7-0.3
			c-0.2,0-0.4,0-0.6,0.1c0,0,0.2-0.2,0.6-0.2c0.3,0,0.6,0.1,0.8,0.2c0.3,0.2,0.6,0.5,0.8,0.8c0.8,1.4,1.9,3.2,3.1,5.4h-0.3
			c0.3-0.5,0.6-1,0.9-1.5c1.3-2.1,2.9-4.1,4.7-5.8c0.7-0.7,1.3-1.2,1.7-1.5C184.7,262.2,184.9,262,185.1,261.9z"/>
		<path class="st9" d="M156.5,262.5c0.2,0.1,0.4,0.3,0.5,0.5c0.3,0.4,0.7,0.9,1.3,1.5c1,1.3,2.5,3,4,5l0.3,0.3h-0.3
			c0.6-1,0.6-2.1,0.9-3.2c0.2-0.9,0.7-1.8,1.5-2.4c0.3-0.2,0.6-0.3,0.9-0.3c0.3,0,0.7,0,1,0.1c0.2,0.1,0.3,0.2,0.4,0.3
			c0.1,0.1,0.1,0.1,0.1,0.2c-0.2-0.1-0.4-0.2-0.6-0.3c-0.3-0.1-0.6-0.1-0.9,0c-0.3,0.1-0.6,0.2-0.8,0.3c-0.7,0.6-1.1,1.4-1.3,2.3
			c-0.1,1.1-0.4,2.2-0.9,3.3l-0.1,0.2l-0.2-0.2l-0.3-0.3c-1.6-2-2.9-3.8-3.9-5.1c-0.5-0.7-0.9-1.2-1.2-1.6
			C156.7,262.9,156.6,262.7,156.5,262.5z"/>
		<path class="st9" d="M164,344.4c0-0.1,0-0.1,0-0.2c0-0.1,0-0.3,0-0.6c0-0.5,0.1-1.3,0.1-2.2c0.1-1.9,0.3-4.7,0.5-8
			c0.5-6.8,1.1-16.2,1.9-26.5l2-26.5c0.3-3.4,0.5-6.1,0.6-8c0.1-0.9,0.1-1.7,0.2-2.2c0-0.2,0-0.4,0.1-0.6c0-0.1,0-0.1,0-0.2
			c0,0.1,0,0.1,0,0.2v0.6c0,0.5-0.1,1.3-0.1,2.2c-0.1,1.9-0.3,4.7-0.5,8c-0.5,6.8-1.1,16.2-1.9,26.5c-0.7,10.3-1.5,19.7-2,26.5
			c-0.3,3.4-0.5,6.1-0.6,8c-0.1,0.9-0.2,1.7-0.2,2.2c0,0.2,0,0.4-0.1,0.6C164,344.3,164,344.4,164,344.4z"/>
		<path class="st9" d="M139.8,280.8c0,0.4,0,0.8-0.1,1.1c-0.1,0.8-0.1,1.8-0.2,3.1c-0.2,2.6-0.4,6.2-0.6,10.2
			c-0.2,4-0.5,7.6-0.7,10.2c-0.1,1.3-0.3,2.4-0.4,3.1c0,0.4-0.1,0.8-0.2,1.1c0-0.4,0-0.8,0.1-1.1c0.1-0.8,0.1-1.8,0.2-3.1
			c0.2-2.6,0.4-6.2,0.6-10.2c0.2-4,0.5-7.6,0.7-10.2c0.1-1.3,0.3-2.4,0.4-3.1C139.6,281.6,139.7,281.2,139.8,280.8z"/>
		<path class="st12" d="M169.1,267.7c0,0-3.6,4.6-3.1,5.3l3.1,4h2.2c0,0,2.1-5.6,1.5-6.3C172.3,270,169.1,267.7,169.1,267.7z"/>
		<path class="st12" d="M174.6,266.5l-4,3l1.5,2.9l4.1-2.9L174.6,266.5z"/>
		<path class="st12" d="M162.9,268.4l3.6,3l2-3L164,265L162.9,268.4z"/>
		<path class="st10" d="M169.1,277l-5.5,48.4l5.5,16.8l7.3-16.7l-4.8-49.1L169.1,277z"/>
		<path class="st9" d="M207.8,268c-0.2-0.2-0.5-0.3-0.7-0.5c-0.7-0.3-1.5-0.4-2.3-0.1c-1.1,0.4-2.1,1.1-2.8,2c-1,1-1.9,2.2-2.6,3.4
			c-1.3,2.3-2,4.8-2.2,7.3c-0.1,2,0.1,3.2,0.1,3.2c-0.1-0.3-0.2-0.6-0.2-0.9c-0.1-0.8-0.2-1.6-0.1-2.4c0.1-2.6,0.8-5.2,2.1-7.5
			c0.7-1.3,1.6-2.4,2.7-3.4c0.8-0.9,1.9-1.6,3-2c0.4-0.1,0.8-0.2,1.2-0.1s0.8,0.2,1.2,0.4c0.2,0.1,0.4,0.2,0.5,0.4
			C207.8,267.9,207.8,268,207.8,268z"/>
		<path class="st9" d="M260.3,208.2c-4.7,2.8-8,7.5-9.9,12.5c-1.9,5-2.7,10.4-3.2,15.7c-1.5,14.1-2,28.3-1.5,42.5
			c17.8,2.2,35.7,4.4,53.6,3.2c-3.1-19.9-5.1-39.8-2.6-59.8"/>
		<path class="st10" d="M300.2,373.6l-13-25.5l4.9-18.7c0.6,4,1.1,7.4,1.1,7.4l27.8-1.4c0.2,0,0.5-0.1,0.7-0.2
			c0.2-0.1,0.4-0.3,0.6-0.4c0.2-0.2,0.3-0.4,0.3-0.6c0.1-0.2,0.1-0.5,0-0.7l-5.4-37.3c0,0-1.7-17.3-18.6-23.8h-0.1
			c-0.7-0.3-1.4-0.5-2.1-0.7c-22.7-7.7-43.9-7.6-67.6,0.2c0,0-10.5,2.8-15.6,16.1c-5.1,13.4-10.3,33-10.3,33l23.6,8.1l0.2-3.9
			l5.2,19.4l-11.4,28.3l39.9,1L300.2,373.6z"/>
		<path class="st10" d="M203.2,320.6l-2.6,12.2c-2.3,10.5,5.7,21.2,16.6,22.4l58.1,5.8c3.1,0.3,6.2,0.1,9.1-0.8
			c3-0.8,5.7-2.3,8.1-4.2c2.4-1.9,4.4-4.2,5.8-6.9c1.4-2.7,2.3-5.6,2.6-8.5l-73.2-6.8l0.5-6.9L203.2,320.6z"/>
		<path class="st19" d="M275.8,333.1l4.5-0.8c0,0,10.7-11.4,12.7-11.6c1.7-0.1,10.7-0.1,13.9,0c0.3,0,0.6,0.1,0.8,0.3
			s0.3,0.5,0.3,0.8c0,0.3-0.1,0.5-0.3,0.7c-0.2,0.2-0.5,0.3-0.8,0.3l-10.7,0.4l-0.1,0.8l10.8,0.1c1.1,0.1,1.8,1.8-1.7,2.1l-9,0.3
			v0.5l9.1,1.2c0.5,0.1,1.7,0.3,1.7,0.8c0,0,0.6,1.1-2,1.4c-0.9,0.1-8.8-0.2-8.8-0.2l0.3,0.7l8.2,1.7c0.3,0.1,0.5,0.2,0.7,0.5
			c0.2,0.2,0.2,0.5,0.2,0.8c0,0.3-0.2,0.6-0.4,0.7c-0.2,0.2-0.5,0.3-0.8,0.2l-8.8-0.8L287,341h-11.5L275.8,333.1z"/>
		<path class="st20" d="M247.3,266.3c0,0,11.3,56.4,15.3,55.9c4-0.4,22.7-54,22.7-54S261.3,261.2,247.3,266.3z"/>
		<path class="st9" d="M297.3,320.9c-0.1,0-0.2-3.9-0.2-8.7s0.1-8.7,0.2-8.7s0.2,3.9,0.2,8.7S297.4,320.9,297.3,320.9z"/>
		<path class="st9" d="M227.9,321.2c0-0.8,0.1-1.7,0.2-2.5c0.2-1.5,0.5-3.7,0.8-6c0.4-2.3,0.7-4.5,0.9-6c0.1-0.8,0.3-1.7,0.5-2.5
			c0,0.8-0.1,1.7-0.2,2.5c-0.2,1.5-0.5,3.7-0.8,6c-0.4,2.3-0.7,4.4-0.9,6C228.3,319.6,228.1,320.4,227.9,321.2z"/>
		<path class="st9" d="M260.5,373.8c0-0.2,0-0.3,0-0.5c0-0.4,0-0.9,0-1.5c0-1.3,0-3.2,0.1-5.5c0.1-4.6,0.3-11.1,0.7-18.1
			c0.3-7.1,0.6-13.5,0.8-18.1c0.1-2.3,0.1-4.2,0.2-5.5c0-0.6,0-1.1,0-1.5c0-0.2,0-0.4,0-0.5c0,0.2,0,0.3,0,0.5c0,0.4,0,0.9,0,1.5
			c0,1.3,0,3.2,0,5.5c-0.1,4.6-0.4,11.1-0.7,18.2c-0.3,7.1-0.6,13.5-0.8,18.1c-0.1,2.3-0.1,4.2-0.2,5.5c0,0.6,0,1.1-0.1,1.5
			C260.6,373.4,260.6,373.6,260.5,373.8z"/>
		<path class="st9" d="M285.1,268.2c0,0,0,0.2,0.1,0.7c0.1,0.7,0.3,1.3,0.6,1.9c0.4,1,0.9,1.9,1.5,2.9c0.8,1.2,1.5,2.5,2.1,3.8
			c0.8,1.6,1.1,3.4,0.9,5.1c-0.2,1-0.6,1.9-1.2,2.7c-0.6,0.8-1.3,1.6-2.1,2.3c-1.6,1.5-3.1,3.2-4.4,4.9c-1.4,1.9-2.2,4.1-2.3,6.5
			c0,1.2,0.3,2.3,0.8,3.4c0.5,1,1,2.1,1.4,3.2c0.2,0.6,0.3,1.1,0.2,1.7c0,0.6-0.2,1.1-0.6,1.6c-0.7,0.9-1.5,1.6-2.4,2.2l-9.2,6.6
			l-6.2,4.4l-1.7,1.2l-0.4,0.3l-0.2,0.1c0,0,0-0.1,0.1-0.1l0.4-0.3l1.7-1.2l6.1-4.5l9.1-6.7c0.9-0.6,1.7-1.3,2.3-2.1
			c0.3-0.4,0.5-1,0.5-1.5c0-0.5,0-1.1-0.2-1.6c-0.4-1.1-0.9-2.1-1.4-3.2c-0.5-1.1-0.8-2.3-0.8-3.5c0.1-2.4,0.9-4.7,2.3-6.7
			c1.3-1.8,2.8-3.4,4.5-5c1.5-1.4,2.9-3,3.2-4.8c0.2-1.7-0.1-3.4-0.8-5c-0.6-1.3-1.3-2.6-2-3.8c-0.5-0.9-1-1.9-1.4-2.9
			c-0.2-0.6-0.4-1.3-0.5-2c0-0.2,0-0.4-0.1-0.5C285.1,268.3,285.1,268.2,285.1,268.2z"/>
		<path class="st9" d="M262.5,321.7h-0.2l-0.5-0.1c-0.7-0.1-1.3-0.3-2-0.5c-2.4-0.8-4.6-2-6.5-3.6c-2.8-2.4-4.9-5.5-5.9-9
			c-0.6-2.1-0.9-4.2-0.7-6.3c0.1-1.1,0.2-2.2,0.5-3.3c0.3-1.1,0.3-2.2,0.1-3.3c-0.2-0.5-0.5-1-0.9-1.4c-0.5-0.3-1-0.6-1.5-0.7
			c-0.5-0.2-1.1-0.3-1.7-0.5c-0.5-0.2-1-0.5-1.5-0.9c-0.8-0.8-1.3-1.8-1.5-3c-0.2-1-0.3-2.1-0.2-3.1c0.3-3.6,1.2-7.1,2.4-10.5
			c0.8-2.3,1.9-4.5,3.1-6.6c0.4-0.7,0.8-1.3,1-1.7l0.3-0.4c0-0.1,0.1-0.1,0.1-0.1c0,0,0,0.1-0.1,0.2l-0.3,0.5c-0.2,0.4-0.6,1-1,1.7
			c-1.1,2.1-2.1,4.4-2.9,6.6c-1.2,3.4-2,6.9-2.3,10.5c-0.1,1,0,2,0.2,3c0.2,1,0.7,2,1.4,2.8c0.4,0.4,0.9,0.7,1.4,0.9
			c0.5,0.2,1.1,0.4,1.6,0.5c0.6,0.2,1.1,0.4,1.6,0.8c0.5,0.4,0.8,0.9,1,1.5c0.2,1.2,0.2,2.4-0.1,3.5c-0.2,1.1-0.4,2.2-0.5,3.3
			c-0.1,2.1,0.1,4.2,0.7,6.2c1,3.4,3,6.5,5.8,8.9c1.9,1.6,4,2.8,6.3,3.7c0.8,0.3,1.5,0.5,1.9,0.6L262.5,321.7
			C262.4,321.7,262.5,321.7,262.5,321.7z"/>
		<path class="st10" d="M293,333.2l-48.6-1.5l0.1,15.7l32.2,6.9l22.7,3.5c14.1,0,25.3-12.6,23.2-26.1h-0.1L293,333.2z"/>
		<path class="st9" d="M306.4,332.9c-0.2,0-0.4,0-0.6,0l-1.8,0l-6.6,0.1c-5.6,0.1-13.4,0.2-21.9,0.1c-8.6-0.1-16.3-0.4-21.9-0.7
			c-2.8-0.2-5.1-0.4-6.6-0.5l-1.8-0.2c-0.2,0-0.4,0-0.6-0.1c0.2,0,0.4,0,0.6,0l1.8,0.1c1.6,0.1,3.8,0.2,6.6,0.4
			c5.6,0.3,13.4,0.6,21.9,0.6c8.6,0.1,16.3,0,21.9,0h6.7h1.8C306,332.8,306.2,332.8,306.4,332.9z"/>
		<path class="st19" d="M244,333.1l-4.5-0.8c0,0-10.7-11.4-12.7-11.6c-1.6-0.1-10.7-0.1-13.9,0c-0.3,0-0.6,0.1-0.8,0.3
			c-0.2,0.2-0.3,0.5-0.3,0.8c0,0.3,0.1,0.5,0.3,0.7c0.2,0.2,0.5,0.3,0.8,0.3l10.7,0.4l0.1,0.8l-10.8,0.1c-1.1,0.1-1.8,1.8,1.7,2.1
			l9,0.3v0.5l-9.1,1.2c-0.5,0.1-1.7,0.3-1.7,0.8c0,0-0.6,1.1,2,1.4c0.9,0.1,8.8-0.2,8.8-0.2l-0.3,0.7l-8.2,1.7
			c-0.3,0.1-0.5,0.2-0.7,0.5c-0.2,0.2-0.2,0.5-0.2,0.8c0,0.3,0.2,0.6,0.4,0.7c0.2,0.2,0.5,0.3,0.8,0.2l8.8-0.8l8.6,6.7h11.5
			L244,333.1z"/>
		<path class="st9" d="M298.5,357.5c-0.2,0-0.4,0-0.6,0l-1.6-0.2c-1.4-0.1-3.3-0.4-5.8-0.7c-4.9-0.7-11.6-1.7-18.9-3.1
			c-7.4-1.4-13.9-2.9-18.7-4.1c-2.4-0.6-4.3-1.1-5.6-1.4l-1.5-0.4c-0.2,0-0.4-0.1-0.5-0.2c0.2,0,0.4,0,0.5,0.1l1.5,0.4l5.7,1.3
			c4.8,1.1,11.4,2.6,18.8,4c7.4,1.4,14.1,2.5,18.9,3.2l5.8,0.8l1.6,0.2C298.1,357.5,298.3,357.5,298.5,357.5z"/>
		<path class="st9" d="M244.9,347.4c-0.2-0.7-0.4-1.5-0.4-2.2c-0.2-1.4-0.4-3.3-0.5-5.5c-0.1-2.1-0.1-4.1-0.1-5.5
			c0-0.8,0.1-1.5,0.2-2.3c0.1,0.8,0.1,1.5,0.1,2.3c0,1.4,0.1,3.3,0.2,5.5c0.1,2.1,0.3,4.1,0.4,5.5
			C244.9,345.9,244.9,346.7,244.9,347.4z"/>
		<path class="st9" d="M250.2,348c-0.1-0.2-0.2-0.4-0.2-0.6c-0.1-0.4-0.3-1-0.4-1.7c-0.8-3.7-1-7.5-0.7-11.3
			c0.1-0.7,0.1-1.3,0.2-1.7c0-0.2,0.1-0.4,0.1-0.6c0,0.8,0,1.6-0.1,2.3c-0.1,1.4-0.1,3.4,0.1,5.6c0.1,2.2,0.4,4.2,0.6,5.6
			C250,346.5,250.2,347.3,250.2,348z"/>
		<path class="st9" d="M245.7,334.5c0,0-0.2,0.2-0.2,0.7c0,0.1,0,0.2,0.1,0.4c0.1,0.1,0.1,0.2,0.2,0.3c0.1,0.1,0.3,0.1,0.4,0.1
			c0.1,0,0.3,0,0.4-0.1c0.1-0.1,0.2-0.2,0.3-0.3s0.1-0.3,0.1-0.4c0-0.1-0.1-0.2-0.1-0.3c-0.1-0.1-0.2-0.2-0.3-0.2
			c-0.4-0.2-0.7-0.1-0.7-0.2s0.3-0.3,0.9-0.1c0.2,0.1,0.3,0.2,0.4,0.3c0.1,0.1,0.2,0.3,0.2,0.4c0,0.2,0,0.4-0.1,0.6
			c-0.1,0.2-0.3,0.3-0.4,0.5c-0.2,0.1-0.4,0.2-0.6,0.1c-0.2,0-0.4-0.1-0.6-0.2c-0.1-0.1-0.2-0.3-0.3-0.4c-0.1-0.2-0.1-0.3-0.1-0.5
			C245.3,334.6,245.7,334.4,245.7,334.5z"/>
		<path class="st9" d="M254.6,350.4c-0.2,0-0.3,0-0.5,0c-0.3,0-0.8,0-1.4,0c-1.7,0-3.5,0.2-5.2,0.5c-2.6,0.4-5.1,1-7.6,1.6
			c-2.8,0.7-5.9,1.6-9.3,2.3c-3.1,0.7-6.3,1-9.5,1c-2.6-0.1-5.2-0.5-7.7-1.4c-1.7-0.6-3.2-1.5-4.6-2.5c-0.4-0.3-0.7-0.6-1.1-0.9
			c-0.1-0.1-0.2-0.2-0.3-0.4c0,0,0.5,0.5,1.5,1.2c1.4,1,3,1.8,4.6,2.4c2.5,0.8,5,1.3,7.6,1.4c3.2,0,6.3-0.3,9.4-1
			c3.3-0.7,6.4-1.6,9.3-2.3c2.5-0.7,5.1-1.2,7.6-1.6c1.7-0.2,3.5-0.4,5.3-0.4c0.6,0,1.1,0,1.4,0.1
			C254.3,350.3,254.4,350.3,254.6,350.4z"/>
		<path class="st13" d="M276,273c1.2-6.3,2.5-12.9,2.5-12.9s8.6,0.1,12.2-10.2c3.5-9.8,6-33.4,6-33.4c-5.5-3.3-11.9-4.9-18.3-4.6
			c-6.4,0.3-12.6,2.6-17.7,6.4l-8.5,51.2c-1,5.9,3.5,11.5,10,12.5C268.6,283,274.9,279,276,273z"/>
		<path class="st9" d="M290.3,234.2c-0.1,0.4-0.3,0.7-0.6,0.9c-0.3,0.2-0.7,0.3-1,0.3c-0.2,0-0.4-0.1-0.5-0.1
			c-0.2-0.1-0.3-0.2-0.4-0.3c-0.1-0.1-0.2-0.3-0.2-0.5c-0.1-0.2-0.1-0.3,0-0.5c0.1-0.4,0.3-0.7,0.6-0.9c0.3-0.2,0.7-0.3,1-0.3
			c0.2,0,0.4,0.1,0.5,0.2c0.2,0.1,0.3,0.2,0.4,0.3c0.1,0.1,0.2,0.3,0.2,0.5C290.3,233.8,290.3,234,290.3,234.2z"/>
		<path class="st9" d="M292.8,233c-0.2,0.1-1.1-0.8-2.6-1c-1.5-0.2-2.7,0.3-2.9,0.1c-0.1-0.1,0.2-0.4,0.7-0.6
			c0.7-0.3,1.5-0.4,2.3-0.3c0.8,0.1,1.5,0.5,2,1.1C292.8,232.6,292.9,233,292.8,233z"/>
		<path class="st9" d="M274.9,231.8c-0.1,0.4-0.3,0.7-0.6,0.9c-0.3,0.2-0.7,0.3-1,0.3c-0.4,0-0.7-0.2-0.9-0.5
			c-0.2-0.3-0.3-0.6-0.3-1c0.1-0.4,0.3-0.7,0.6-0.9c0.3-0.2,0.7-0.3,1-0.3c0.4,0,0.7,0.2,0.9,0.5
			C274.8,231.1,274.9,231.4,274.9,231.8z"/>
		<path class="st9" d="M277.1,230.9c-0.2,0.1-1.1-0.8-2.6-1.1c-1.5-0.3-2.7,0.3-2.9,0.1c-0.1-0.1,0.2-0.4,0.7-0.6
			c0.7-0.3,1.5-0.4,2.3-0.3c0.8,0.1,1.5,0.5,2,1.1C277.1,230.5,277.2,230.8,277.1,230.9z"/>
		<path class="st9" d="M280.6,242.6c0.8-0.1,1.7-0.1,2.5,0c0.4,0,0.7,0,0.9-0.2c0.1-0.4,0.1-0.8-0.1-1.1c-0.2-1-0.4-2-0.6-3
			c-0.8-4.3-1.4-7.8-1.2-7.9c0.2,0,1,3.4,1.8,7.7c0.2,1.1,0.4,2.1,0.6,3c0.2,0.5,0.1,1-0.1,1.5c-0.1,0.1-0.2,0.2-0.3,0.3
			c-0.1,0.1-0.3,0.1-0.4,0.1c-0.2,0-0.4,0-0.7,0C282.2,243,281.4,242.9,280.6,242.6z"/>
		<path class="st14" d="M278.5,260.1c-5.1-0.8-9.9-3-13.8-6.3c0,0,2.2,7.9,13.2,8.7L278.5,260.1z"/>
		<path class="st14" d="M279.3,246.1c-0.2-0.4-0.5-0.7-0.9-1c-0.4-0.2-0.8-0.4-1.3-0.4c-0.3,0-0.7,0-1,0.1c-0.3,0.1-0.6,0.3-0.9,0.5
			c-0.2,0.2-0.4,0.5-0.5,0.8c-0.1,0.3-0.1,0.6,0.1,0.9c0.2,0.3,0.5,0.5,0.8,0.7c0.3,0.1,0.7,0.2,1.1,0.1c0.8-0.1,1.5-0.4,2.1-0.8
			c0.2-0.1,0.4-0.2,0.5-0.4c0.1-0.1,0.1-0.2,0.1-0.3C279.4,246.3,279.4,246.2,279.3,246.1"/>
		<path class="st9" d="M276,242.9c0.2,0,0,1.6,1.1,3c1.2,1.4,2.9,1.5,2.9,1.7c0,0.1-0.4,0.2-1.2,0.1c-1-0.1-1.8-0.6-2.5-1.3
			c-0.6-0.7-0.9-1.5-0.9-2.4C275.6,243.2,275.9,242.9,276,242.9z"/>
		<path class="st9" d="M267.9,210.8c2.9,6.2,12.3,13.8,19.5,16.5c-0.7-1.3-4.7-4.9-5.4-6.2c2.9,3.1,7.2,7.3,11.6,8.4
			c0.5,0.2,1.1,0.2,1.6,0c0.3-0.2,0.5-0.4,0.7-0.6c0.2-0.3,0.3-0.6,0.4-0.9c0.9-3.1,1.4-6.4,1.5-9.6c0.2-2.7-0.8-5.4-2.6-7.5
			c-2.5-2.7-6.5-4-10.4-4.8c-3.3-0.7-6.7-1.1-9.9-0.5c-3.2,0.6-6.2,2.4-7.2,5.1"/>
		<path class="st9" d="M250.6,234.2c-0.1-2.4,0-4.8,0.3-7.2c0.7-5.5,2.5-25.5,21.4-20.4l-2,5.1c0,0,1.5,12.9-8.3,19.8
			c0,0,0,12.9-6.7,17.5C255.3,249,250.6,240.3,250.6,234.2"/>
		<path class="st13" d="M262.4,230.6c-1.1-0.4-2.3-0.6-3.5-0.4c-1.2,0.2-2.2,0.9-2.9,1.8c-0.6,1-0.9,2.2-0.6,3.4
			c0.2,1.2,0.7,2.2,1.5,3.2c0.5,0.7,1.1,1.3,1.8,1.7c0.4,0.2,0.8,0.3,1.2,0.3c0.4,0,0.9-0.1,1.2-0.3"/>
		<path class="st14" d="M260.6,237.4c0.1,0.1-0.5,0.7-1.5,0.2c-0.3-0.1-0.5-0.3-0.7-0.6c-0.2-0.2-0.3-0.5-0.4-0.8
			c-0.2-0.6-0.3-1.3-0.2-2c0-0.7,0.3-1.4,0.8-1.9c0.2-0.2,0.5-0.4,0.8-0.5c0.3-0.1,0.6-0.1,0.9-0.1c1.1,0.2,1.3,1,1.2,1
			c-0.1,0-0.5-0.4-1.2-0.3c-0.5,0.1-0.9,0.3-1.2,0.7c-0.3,0.4-0.4,0.8-0.4,1.3c-0.1,1.2,0.2,2.3,0.8,2.7
			C260,237.4,260.5,237.3,260.6,237.4z"/>
		<path class="st9" d="M260.5,240.4c-2.9,17.1-0.6,34.6,0,51.9c0.1,1.7,0.1,3.4-0.7,4.9c-1.2,2.2-3.9,3.3-6.5,3.5
			c-2.6,0.1-5.1-0.4-7.7-0.6c-0.3-1.7-0.6-3.3-0.8-5c-0.9,1.9-1.7,3.8-2.6,5.7c1.1-12.2,2.4-24.3,3.7-36.5"/>
	</g>
</g>
</svg>
