<?xml version="1.0" encoding="utf-8"?>
<!-- Generator: Adobe Illustrator 24.3.0, SVG Export Plug-In . SVG Version: 6.00 Build 0)  -->
<svg version="1.1" id="Layer_1" xmlns="http://www.w3.org/2000/svg" xmlns:xlink="http://www.w3.org/1999/xlink" x="0px" y="0px"
	 viewBox="0 0 500 500" style="enable-background:new 0 0 500 500;" xml:space="preserve">
<style type="text/css">
	.st0{fill:url(#SVGID_1_);}
	.st1{fill:#C7C7C7;}
	.st2{fill:#EBEBEB;}
	.st3{fill:#DBDBDB;}
	.st4{fill:#A6A6A6;}
	.st5{fill:#F9FF00;}
	.st6{fill:#FFFFFF;}
	.st7{fill:#F8F8F8;}
	.st8{font-family:'MyriadPro-Regular';}
	.st9{font-size:37.2248px;}
	.st10{fill:#263238;}
	.st11{opacity:0.1;}
	.st12{opacity:0.1;enable-background:new    ;}
	.st13{fill:#455A64;}
	.st14{font-size:10.7008px;}
	.st15{fill:#F7A9A0;}
	.st16{fill:#37474F;}
</style>
<linearGradient id="SVGID_1_" gradientUnits="userSpaceOnUse" x1="21.825" y1="89.7209" x2="483.9782" y2="356.5457" gradientTransform="matrix(1 0 0 -1 0 500)">
	<stop  offset="0" style="stop-color:#F9FF00;stop-opacity:0.1"/>
	<stop  offset="0.459" style="stop-color:#F7EC13;stop-opacity:0.67"/>
	<stop  offset="0.7656" style="stop-color:#F9FF00"/>
</linearGradient>
<path class="st0" d="M467.1,111.8c-13.8-40.3-72.8-69.5-116.9-60.5c-56.7,11.6-68.4,82.4-112.6,78.9c-26.9-2.1-27.6-28.8-73.3-41.6
	c-12.8-3.6-43.2-11.7-73.3,2.8c-6.6,3.2-25.8,13.5-37.6,34.7c-26,46.7,18.8,82.6-1,139.9c-12.3,35.6-34.5,35.7-41.9,69.4
	c-7.9,36.2,10,70.9,25.7,93.9c147.7-1.4,295.5-2.7,443.2-4.1c9.1-23.9,18.1-59.5,3.9-92.9c-14.4-33.7-38.6-32.7-50.6-60.6
	C409,216.1,486.3,167.6,467.1,111.8z"/>
<g>
	<g id="freepik--background-complete--inject-12">
		<rect x="91.1" y="25.2" class="st1" width="0.9" height="82.6"/>
		<polygon class="st2" points="121.7,135.4 119.3,140.5 63.9,140.5 61.5,135.4 85.1,119.9 98.1,119.9 		"/>
		<polygon class="st3" points="99.8,104.9 98.1,119.9 85.1,119.9 83.4,104.9 		"/>
		<polygon class="st3" points="121.7,135.4 119.3,140.5 63.9,140.5 61.5,135.4 		"/>
		<rect x="155.8" y="25.2" class="st1" width="0.9" height="66.2"/>
		<polygon class="st2" points="186.4,119 183.9,124.1 128.5,124.1 126.1,119 149.7,103.5 162.8,103.5 		"/>
		<polygon class="st3" points="164.4,88.5 162.8,103.5 149.7,103.5 148.1,88.5 		"/>
		<polygon class="st3" points="186.4,119 183.9,124.1 128.5,124.1 126.1,119 		"/>
		<path class="st3" d="M255,171.7l0.2,69.9c0,3.9-3.3,7.1-7.4,7.1c0,0,0,0,0,0L131.3,249c-4.1,0-7.4-3.1-7.4-7.1c0,0,0,0,0,0
			l-0.2-69.9c0-3.6,3.1-6.6,6.9-6.6c0,0,0,0,0,0l117.5-0.3C251.8,165.1,254.9,168.1,255,171.7C255,171.7,255,171.7,255,171.7z"/>
		<path class="st4" d="M236.2,231.8c0,3.6-3,6.5-6.8,6.5c-3.8,0-6.8-2.9-6.9-6.5c0-3.6,3-6.5,6.8-6.5c0,0,0,0,0,0
			C233.1,225.3,236.2,228.2,236.2,231.8C236.2,231.8,236.2,231.8,236.2,231.8z"/>
		<path class="st5" d="M244.6,231.8c0,3.6-3,6.5-6.8,6.5c-3.8,0-6.8-2.9-6.9-6.5c0-3.6,3-6.5,6.8-6.5
			C241.5,225.3,244.6,228.2,244.6,231.8C244.6,231.8,244.6,231.8,244.6,231.8z"/>
		<path class="st5" d="M138.7,177.4l16.7,0c2.2,0,4,1.7,4,3.8l0,8.6c0,2.1-1.8,3.8-4,3.8l-16.7,0c-2.2,0-4-1.7-4-3.8l0-8.6
			C134.7,179.1,136.5,177.4,138.7,177.4z"/>
		<path class="st6" d="M239.8,186.1h-11.2c-2.6,0-4.7-1.9-4.7-4.4c0,0,0,0,0,0l0,0c0-2.5,2-4.5,4.6-4.5c0,0,0,0,0,0h11.1
			c2.6,0,4.7,1.9,4.7,4.4c0,0,0,0,0,0l0,0C244.5,184,242.4,186,239.8,186.1C239.8,186.1,239.8,186.1,239.8,186.1z"/>
		<path class="st7" d="M133.9,208.4l-1,0.6c0,0-0.1,0-0.1,0c-0.1,0-0.2,0-0.2-0.1c-0.1-0.1,0-0.2,0.1-0.3c0,0,0,0,0,0l1.4-0.8
			c0.1-0.1,0.3,0,0.3,0.1c0,0.1,0,0.1,0,0.2v6.3c0,0.1-0.1,0.2-0.2,0.2s-0.2-0.1-0.2-0.2L133.9,208.4z"/>
		<path class="st7" d="M136.1,214.1l3.3-2.9c0.4-0.3,0.6-0.8,0.6-1.3c0-0.4-0.2-0.9-0.5-1.2c-0.7-0.7-1.8-0.7-2.6-0.1l-0.4,0.3
			c-0.1,0.1-0.3,0.1-0.4,0c-0.1-0.1-0.1-0.2,0-0.3l0.4-0.3c0.4-0.4,1-0.6,1.6-0.6c1.3,0,2.3,1,2.3,2.2c0,0.6-0.3,1.2-0.8,1.6
			l-2.8,2.5h3.4c0.1,0,0.2,0.2,0.2,0.3c0,0.1-0.1,0.2-0.2,0.2h-4c-0.1,0-0.1,0-0.2-0.1C136.1,214.4,136,214.2,136.1,214.1z"/>
		<path class="st7" d="M146.5,208.1l-1.8,1.8c0.5,0.1,0.9,0.3,1.2,0.6c0.9,0.9,0.9,2.4,0,3.3c-0.5,0.4-1.1,0.7-1.7,0.7
			c-0.6,0-1.3-0.2-1.7-0.7c-0.1-0.1-0.1-0.2,0-0.3c0,0,0,0,0,0c0.1-0.1,0.3-0.1,0.4,0c0.4,0.3,0.8,0.5,1.3,0.5c0.5,0,1-0.2,1.4-0.5
			c0.4-0.3,0.6-0.8,0.6-1.3c0-0.5-0.2-0.9-0.6-1.3c-0.4-0.3-0.8-0.5-1.4-0.5c-0.1,0-0.1,0-0.2-0.1l0,0c-0.1-0.1-0.1-0.2,0-0.3
			c0,0,0,0,0,0l1.8-1.7H143c-0.1,0-0.3-0.1-0.3-0.2c0,0,0,0,0,0c0-0.1,0.1-0.2,0.2-0.2c0,0,0,0,0,0h3.3c0.1,0,0.3,0.1,0.3,0.2
			c0,0,0,0,0,0C146.6,208,146.6,208,146.5,208.1C146.6,208.1,146.5,208.1,146.5,208.1z"/>
		<path class="st7" d="M152.5,213.1h-3.9l0,0c-0.1,0-0.1,0-0.2-0.1c-0.1-0.1-0.1-0.2,0-0.3c0,0,0,0,0,0l4.1-4.9l0,0
			c0.1-0.1,0.3-0.1,0.4,0c0,0,0.1,0.1,0.1,0.1l0,0v4.7h0.5c0.1,0,0.3,0.1,0.3,0.2c0,0.1-0.1,0.2-0.2,0.2c0,0,0,0,0,0H153v1.2
			c0,0.1-0.2,0.2-0.3,0.2c-0.1,0-0.2-0.1-0.2-0.2L152.5,213.1z M152.5,212.6v-4l-3.4,4L152.5,212.6z"/>
		<path class="st7" d="M161.5,213.8c-0.1-0.1-0.1-0.2,0-0.3c0,0,0,0,0,0c0.1-0.1,0.3-0.1,0.4,0c0,0,0,0,0,0c0.7,0.7,1.9,0.7,2.7,0
			c0,0,0,0,0,0c0.4-0.3,0.6-0.8,0.6-1.3c0-1-0.8-1.8-1.9-1.8c-0.5,0-1,0.2-1.4,0.5c-0.1,0.1-0.2,0.1-0.3,0c0,0,0,0,0,0
			c0,0,0,0-0.1-0.1l0,0l0,0c0,0,0,0,0-0.1c0,0,0,0,0-0.1l0.3-2.7c0-0.1,0-0.1,0.1-0.2c0,0,0.1-0.1,0.2-0.1h3.3
			c0.1,0,0.3,0.1,0.3,0.2c0,0,0,0,0,0c0,0.1-0.1,0.2-0.2,0.2c0,0,0,0,0,0h-3.1l-0.2,2c0.9-0.5,2.1-0.4,2.9,0.4
			c0.9,0.9,0.9,2.4,0,3.3c-0.5,0.4-1.1,0.7-1.7,0.7C162.5,214.6,161.9,214.3,161.5,213.8z"/>
		<path class="st7" d="M168.3,209.1c0.5-0.9,1.4-1.5,2.5-1.5c0.1,0,0.3,0.1,0.3,0.2c0,0,0,0,0,0c0,0.1-0.1,0.2-0.2,0.3
			c-0.9,0-1.7,0.5-2.1,1.2c-0.2,0.4-0.4,0.9-0.5,1.4c0.9-0.9,2.3-1,3.3-0.2c1,0.8,1.1,2.2,0.2,3.2c-0.9,0.9-2.3,1-3.3,0.2
			c-0.5-0.4-0.8-1-0.8-1.6c0-0.2,0-0.3,0-0.5C167.6,210.9,167.8,210,168.3,209.1z M168.1,212.3c0,0,0,0.1,0,0.1c0,0,0,0,0,0.1
			c0.1,1,1,1.7,2,1.7c1-0.1,1.8-0.9,1.8-1.9c-0.1-1-1-1.7-2-1.7C168.9,210.6,168.2,211.3,168.1,212.3L168.1,212.3z"/>
		<path class="st7" d="M174.9,214.1l2.6-6h-3.5c-0.1,0-0.2-0.1-0.2-0.2c0-0.1,0.1-0.2,0.2-0.2h3.8c0.1,0,0.1,0,0.2,0
			c0.1,0,0.1,0.1,0.1,0.1c0,0,0,0,0,0.1c0,0,0,0.1,0,0.1l-2.8,6.3c0,0.1-0.1,0.1-0.2,0.2c0,0-0.1,0-0.1,0
			C174.9,214.4,174.9,214.3,174.9,214.1C174.9,214.1,174.9,214.1,174.9,214.1z"/>
		<path class="st7" d="M182,207.6c0.8,0,1.5,0.6,1.5,1.4c0,0.5-0.2,0.9-0.6,1.2c1.2,0.5,1.7,1.7,1.3,2.9c-0.5,1.1-1.8,1.7-3,1.2
			c-1.2-0.5-1.7-1.7-1.3-2.9c0.2-0.5,0.7-1,1.3-1.2c-0.4-0.3-0.6-0.7-0.6-1.1C180.5,208.3,181.1,207.6,182,207.6
			C182,207.6,182,207.6,182,207.6z M182,213.9c1,0,1.8-0.8,1.8-1.7c0-1-0.8-1.7-1.8-1.7c-1,0-1.8,0.8-1.8,1.7
			C180.1,213.2,180.9,213.9,182,213.9C181.9,214,182,214,182,213.9L182,213.9z M182,210c0.6,0,1-0.4,1-1c0-0.5-0.4-0.9-0.9-0.9
			c0,0,0,0-0.1,0c-0.5,0-0.9,0.4-0.9,0.9c0,0,0,0,0,0C181,209.6,181.4,210,182,210L182,210z"/>
		<path class="st7" d="M194.7,207.6c1.2,0,2.2,0.8,2.4,2v0.1c0,0.2,0,0.4,0,0.6c0,0.9-0.2,1.9-0.7,2.7c-0.5,0.9-1.4,1.4-2.5,1.5l0,0
			c-0.1,0-0.3-0.1-0.3-0.2c0,0,0,0,0,0c0-0.1,0.1-0.2,0.2-0.3c0.9,0,1.7-0.5,2.1-1.2c0.2-0.4,0.4-0.9,0.5-1.4
			c-0.4,0.5-1.1,0.8-1.8,0.7c-1.3,0-2.4-1-2.4-2.3S193.4,207.5,194.7,207.6L194.7,207.6L194.7,207.6z M196.6,209.8
			c0-1-0.8-1.8-1.9-1.8s-1.9,0.8-1.9,1.8c0,1,0.8,1.8,1.9,1.8C195.7,211.6,196.5,210.8,196.6,209.8L196.6,209.8z"/>
		<path class="st7" d="M198.9,211c0-0.8,0.2-1.7,0.7-2.4c0.5-0.9,1.8-1.3,2.7-0.8c0.4,0.2,0.6,0.5,0.8,0.8c0.5,0.7,0.7,1.5,0.7,2.4
			c0,0.8-0.2,1.7-0.7,2.4c-0.5,0.9-1.7,1.3-2.7,0.8c-0.4-0.2-0.7-0.5-0.9-0.8C199.1,212.7,198.8,211.8,198.9,211z M199.4,211
			c0,0.7,0.2,1.5,0.6,2.1c0.3,0.5,0.8,0.8,1.4,0.8c0.6,0,1.1-0.4,1.4-0.8c0.4-0.6,0.6-1.4,0.6-2.1c0-0.7-0.2-1.5-0.6-2.1
			c-0.3-0.5-0.8-0.8-1.4-0.8c-0.6,0-1.1,0.3-1.4,0.8C199.6,209.5,199.4,210.2,199.4,211z"/>
		<path class="st7" d="M207.1,208.3l-1,0.6c-0.1,0.1-0.2,0-0.3-0.1c0,0,0,0,0,0c-0.1-0.1,0-0.2,0.1-0.3c0,0,0,0,0,0l1.4-0.8
			c0.1-0.1,0.3,0,0.3,0.1c0,0.1,0,0.1,0,0.2v6.3c0,0.1-0.1,0.2-0.2,0.2c-0.1,0-0.2-0.1-0.2-0.2L207.1,208.3z"/>
		<path class="st7" d="M209.4,213.9l3.3-2.9c0.4-0.3,0.6-0.8,0.6-1.3c0-0.4-0.2-0.8-0.5-1.2c-0.7-0.7-1.8-0.7-2.6-0.1l-0.3,0.3
			c-0.1,0.1-0.3,0.1-0.4,0c-0.1-0.1-0.1-0.2,0-0.3c0,0,0,0,0,0l0.4-0.3c0.4-0.4,1-0.6,1.6-0.6c0.7,0,1.3,0.3,1.7,0.7
			c0.4,0.4,0.6,0.9,0.6,1.5c0,0.6-0.3,1.2-0.8,1.6l-2.8,2.5h3.4c0.1,0,0.2,0.2,0.2,0.3c0,0.1-0.1,0.2-0.2,0.2h-4
			c-0.1,0-0.1,0-0.2-0.1C209.3,214.2,209.3,214.1,209.4,213.9C209.4,214,209.4,214,209.4,213.9z"/>
		<path class="st7" d="M225.8,207.9l-1.9,1.8c1.3,0.2,2.2,1.5,1.9,2.7c-0.1,0.4-0.3,0.9-0.7,1.2c-0.5,0.4-1.1,0.7-1.7,0.7
			c-0.6,0-1.3-0.2-1.7-0.7c-0.1-0.1-0.1-0.2,0-0.3c0,0,0,0,0,0c0.1-0.1,0.3-0.1,0.4,0c0.4,0.3,0.8,0.5,1.3,0.5c0.5,0,1-0.2,1.4-0.5
			c0.4-0.3,0.6-0.8,0.6-1.3c0-0.5-0.2-0.9-0.6-1.3c-0.4-0.3-0.8-0.5-1.4-0.5c-0.1,0-0.2,0-0.2-0.1l0,0c-0.1-0.1-0.1-0.2,0-0.3
			c0,0,0,0,0,0l1.8-1.7h-2.7c-0.1,0-0.3-0.1-0.3-0.2c0,0,0,0,0,0c0-0.1,0.1-0.2,0.2-0.2c0,0,0,0,0,0h3.3c0.1,0,0.3,0.1,0.3,0.2
			C225.9,207.8,225.9,207.8,225.8,207.9C225.9,207.9,225.9,207.9,225.8,207.9z"/>
		<path class="st7" d="M231.9,212.9H228c-0.1,0-0.1,0-0.2-0.1c-0.1-0.1-0.1-0.2,0-0.3c0,0,0,0,0,0l4.1-4.9l0,0
			c0.1-0.1,0.2-0.1,0.3,0c0,0,0,0,0,0c0,0,0.1,0.1,0.1,0.1l0,0v4.7h0.5c0.1,0,0.3,0.1,0.3,0.2s-0.1,0.3-0.2,0.3c0,0-0.1,0-0.1,0
			h-0.5v1.2c0,0.1-0.2,0.2-0.3,0.2c-0.1,0-0.2-0.1-0.2-0.2L231.9,212.9z M231.9,212.4v-4l-3.4,4L231.9,212.4z"/>
		<path class="st7" d="M234.7,213.6c-0.1-0.1-0.1-0.2,0-0.3c0.1-0.1,0.3-0.1,0.4,0c0,0,0,0,0,0c0.4,0.3,0.8,0.5,1.4,0.5
			c1,0,1.9-0.8,1.9-1.8c0-1-0.8-1.8-1.9-1.8c-0.5,0-1,0.2-1.4,0.5c-0.1,0.1-0.2,0.1-0.3,0c0,0,0,0,0,0c0,0-0.1,0-0.1-0.1l0,0l0,0
			c0,0,0-0.1,0-0.1c0,0,0,0,0,0l0.3-2.7c0-0.1,0-0.1,0.1-0.2c0,0,0.1-0.1,0.2-0.1h3.3c0.1,0,0.3,0.1,0.3,0.2c0,0.1-0.1,0.2-0.3,0.2
			c0,0,0,0,0,0h-3.1l-0.3,2c0.9-0.5,2.1-0.4,2.9,0.4c0.5,0.4,0.7,1,0.7,1.6c0,0.6-0.2,1.2-0.7,1.6c-0.5,0.4-1.1,0.7-1.7,0.7
			C235.8,214.4,235.1,214.1,234.7,213.6z"/>
		<path class="st7" d="M241.5,209c0.5-0.9,1.4-1.5,2.5-1.5c0.1,0,0.3,0.1,0.3,0.2c0,0,0,0,0,0c0,0.1-0.1,0.2-0.2,0.3
			c-0.9,0-1.7,0.5-2.1,1.2c-0.2,0.4-0.4,0.9-0.5,1.4c0.9-0.9,2.3-1,3.3-0.2s1,2.2,0.2,3.2c-0.9,0.9-2.3,1-3.3,0.2
			c-0.5-0.4-0.8-1-0.8-1.6c0-0.2,0-0.3,0-0.5C240.8,210.7,241,209.8,241.5,209z M241.3,212.1c0,0,0,0.1,0,0.1c0,0,0,0,0,0.1
			c0.1,0.9,0.9,1.5,1.9,1.5c1,0,1.9-0.8,1.9-1.8s-0.8-1.8-1.9-1.8S241.3,211,241.3,212.1L241.3,212.1z"/>
		
			<rect x="134.9" y="226.1" transform="matrix(1 -2.492700e-03 2.492700e-03 1 -0.5668 0.4146)" class="st4" width="62.4" height="2.9"/>
		
			<rect x="134.9" y="232.7" transform="matrix(1 -2.492700e-03 2.492700e-03 1 -0.5831 0.3919)" class="st4" width="44.1" height="2.9"/>
		
			<rect x="188.6" y="177.3" transform="matrix(1 -2.492700e-03 2.492700e-03 1 -0.4449 0.5094)" class="st4" width="31.1" height="2.9"/>
		<rect x="398.7" y="56.5" class="st2" width="53.6" height="51.1"/>
		<text transform="matrix(1.4212 0 0 1 411.9969 93.3067)" class="st6 st8 st9">₹</text>
	</g>
	<g id="freepik--Floor--inject-12">
		<polygon class="st10" points="55.6,405.2 105,405 154.3,404.9 252.9,404.7 351.6,404.9 400.9,405 450.3,405.2 400.9,405.4 
			351.6,405.5 252.9,405.6 154.3,405.5 105,405.4 		"/>
	</g>
	<g id="freepik--Shadow--inject-12">
		<ellipse class="st2" cx="252.9" cy="425.4" rx="207.9" ry="24.8"/>
	</g>
	<g id="freepik--Device--inject-12">
		<path class="st10" d="M427.2,105.4v290.1c0.1,8.5-7,15.4-15.9,15.5c0,0,0,0,0,0H253.6c-8.9-0.1-16-7-15.9-15.4c0,0,0,0,0,0V105.4
			c-0.1-8.5,7-15.4,15.9-15.5c0,0,0,0,0,0h157.6C420.1,90,427.2,96.9,427.2,105.4C427.2,105.3,427.2,105.4,427.2,105.4z"/>
		<path class="st6" d="M417.2,119.9v266c0,8.1-6.4,14.7-14.3,14.7H262c-7.9,0-14.3-6.6-14.3-14.7v-266c0-16.6,6.4-20.2,14.3-20.2
			h28.2c1.6,0,3,1.8,3,4v0.9c0,5.2,3,5.2,6.6,5.2h65.3c3.7,0,6.6,0,6.6-5.2v-0.9c0-2.2,1.3-4,3-4h28.3
			C410.8,99.7,417.2,104.7,417.2,119.9z"/>
		<path class="st6" d="M341.3,103.3h-17.8c-0.6,0-1.1-0.5-1.1-1c0,0,0,0,0,0l0,0c0-0.6,0.5-1,1.1-1c0,0,0,0,0,0h17.8
			c0.6,0,1.1,0.5,1.1,1v0l0,0C342.4,102.9,341.9,103.3,341.3,103.3z"/>
		<path class="st5" d="M393.6,284.6c-1.5,2.7-5.2,5-5.2,5s-3.7-2.4-5.2-5c-1.7-3-0.8-6.1,1.7-6.1c2.8,0,3.5,3.3,3.5,3.3
			s0.7-3.3,3.5-3.3C394.3,278.5,395.3,281.6,393.6,284.6z"/>
		<rect x="270.4" y="122.4" class="st3" width="14.2" height="2.2"/>
		<rect x="270.4" y="126.8" class="st3" width="14.2" height="2.2"/>
		<rect x="270.4" y="131.3" class="st3" width="14.2" height="2.2"/>
		<polygon class="st3" points="351.6,127.5 353.2,126.4 357.9,132.4 356.4,133.5 		"/>
		<path class="st3" d="M354.9,123.9c1.4,1.8,1.1,4.3-0.8,5.7c-1.9,1.4-4.5,1-6-0.8c-1.4-1.8-1.1-4.3,0.8-5.7
			C350.8,121.7,353.4,122.1,354.9,123.9C354.9,123.8,354.9,123.8,354.9,123.9z"/>
		<path class="st6" d="M353.5,124.8c0.9,1.1,0.7,2.6-0.5,3.4c-1.1,0.8-2.7,0.6-3.6-0.4s-0.7-2.6,0.5-3.4c0,0,0,0,0,0
			C351.1,123.6,352.7,123.8,353.5,124.8z"/>
		<path class="st3" d="M376.4,128.5c-1.5,2.7-5.2,5-5.2,5s-3.7-2.3-5.2-5c-1.7-3-0.8-6.1,1.7-6.1c2.8,0,3.5,3.3,3.5,3.3
			s0.7-3.3,3.5-3.3C377.1,122.4,378.1,125.5,376.4,128.5z"/>
		<path class="st3" d="M392.8,131.3h-8.6l-2.2-8.3h-0.9v-0.7h1.4l0.4,1.6h11.8L392.8,131.3z M384.8,130.6h7.4l1.7-5.9h-10.7
			L384.8,130.6z"/>
		<polygon class="st3" points="391.4,132.6 390.8,131.3 386,131.3 385.5,132.6 384.8,132.4 385.4,130.6 391.3,130.6 392.1,132.3 		
			"/>
		<rect x="383.2" y="125.6" class="st3" width="10.7" height="0.7"/>
		
			<rect x="388.2" y="122.8" transform="matrix(4.582605e-03 -1 1 4.582605e-03 259.1638 515.6606)" class="st3" width="0.7" height="9.7"/>
		<rect x="384.2" y="129.1" class="st3" width="8.8" height="0.7"/>
		<rect x="388.1" y="124.3" class="st3" width="0.7" height="6.6"/>
		<polygon class="st3" points="390,129.9 390.6,123.2 391.3,123.3 390.8,129.9 		"/>
		<polygon class="st3" points="390.8,130.9 392.1,124.3 392.8,124.4 391.5,131 		"/>
		<polygon class="st3" points="386.2,124.4 387,124.3 387.5,130.9 386.8,131 		"/>
		<polygon class="st3" points="384.1,124.4 384.9,124.3 386.1,130.9 385.4,131 		"/>
		<path class="st3" d="M391.7,133.6c-0.6,0-1.2-0.5-1.2-1.1c0-0.6,0.5-1.1,1.2-1.1s1.2,0.5,1.2,1.1c0,0,0,0,0,0
			C392.9,133.1,392.4,133.6,391.7,133.6C391.8,133.6,391.8,133.6,391.7,133.6z M391.7,132.1c-0.2,0-0.4,0.2-0.4,0.4
			c0,0.2,0.2,0.4,0.4,0.4s0.4-0.2,0.4-0.4c0,0,0,0,0,0C392.2,132.2,392,132.1,391.7,132.1z"/>
		<path class="st3" d="M385.2,133.6c-0.6,0-1.2-0.5-1.2-1.1c0-0.6,0.5-1.1,1.2-1.1c0.6,0,1.2,0.5,1.2,1.1c0,0,0,0,0,0
			C386.3,133.1,385.8,133.6,385.2,133.6z M385.2,132.1c-0.2,0-0.4,0.2-0.5,0.4c0,0.2,0.2,0.4,0.4,0.4s0.4-0.2,0.5-0.4c0,0,0,0,0,0
			C385.6,132.2,385.4,132.1,385.2,132.1z"/>
		<ellipse class="st5" cx="394.4" cy="122.2" rx="3.1" ry="3"/>
		<path class="st6" d="M394.9,120.4v3.3c0,0.2-0.2,0.3-0.3,0.3c-0.2,0-0.3-0.1-0.3-0.3V121l-0.2,0.1c0,0-0.1,0-0.2,0
			c-0.1,0-0.2-0.1-0.3-0.2c-0.1-0.1-0.1-0.3,0.1-0.4c0,0,0,0,0,0l0.7-0.4l0,0l0,0h0.2l0,0l0,0l0,0l0,0l0,0l0,0l0,0l0,0l0,0l0,0l0,0
			l0,0l0,0l0,0L394.9,120.4z"/>
		<rect x="270.4" y="280.7" class="st3" width="78" height="2.1"/>
		<rect x="270.4" y="284.6" class="st3" width="67.1" height="2.1"/>
		<polygon class="st1" points="262.6,217.2 259.4,214.4 262.6,211.6 263.1,212.1 260.5,214.4 263.1,216.7 		"/>
		<path class="st1" d="M261.9,219.4c-2.9,0-5.2-2.2-5.2-5c0-2.8,2.3-5,5.2-5c2.9,0,5.2,2.2,5.2,5c0,0,0,0,0,0
			C267.2,217.2,264.8,219.4,261.9,219.4z M261.9,210.4c-2.4,0-4.3,1.8-4.3,4.1c0,2.3,1.9,4.1,4.3,4.1c2.4,0,4.3-1.8,4.3-4.1l0,0
			C266.2,212.2,264.3,210.4,261.9,210.4C262,210.3,261.9,210.3,261.9,210.4L261.9,210.4z"/>
		<polygon class="st1" points="402.3,217.2 401.8,216.7 404.4,214.4 401.8,212.1 402.3,211.6 405.4,214.4 		"/>
		<path class="st1" d="M402.9,219.4c-2.9,0-5.2-2.2-5.2-5c0-2.8,2.3-5,5.2-5s5.2,2.2,5.2,5c0,0,0,0,0,0
			C408.1,217.2,405.8,219.4,402.9,219.4z M402.9,210.4c-2.4,0-4.3,1.8-4.3,4.1c0,2.3,1.9,4.1,4.3,4.1c2.4,0,4.3-1.8,4.3-4.1
			c0,0,0,0,0,0C407.2,212.2,405.3,210.4,402.9,210.4C402.9,210.3,402.9,210.3,402.9,210.4L402.9,210.4z"/>
		<path d="M279.6,342.6l3.9-3.3c0.4-0.4,0.7-0.9,0.7-1.5c0-1.1-0.9-2-2.1-2c-0.5,0-1,0.2-1.4,0.5l-0.4,0.4c-0.1,0.1-0.3,0.1-0.4,0
			c0,0,0,0,0,0c-0.1-0.1-0.1-0.2,0-0.3c0,0,0,0,0,0l0.4-0.4c0.5-0.4,1.2-0.7,1.8-0.7c1.5,0,2.7,1.1,2.7,2.5c0,0.7-0.3,1.4-0.9,1.9
			l-3.3,2.8h3.9c0.2,0,0.3,0.1,0.3,0.3c0,0,0,0,0,0c0,0.1-0.1,0.3-0.3,0.3h-4.6c-0.1,0-0.2,0-0.2-0.1
			C279.5,342.9,279.4,342.7,279.6,342.6C279.6,342.6,279.6,342.6,279.6,342.6z"/>
		<path d="M286.7,339.1c0-1,0.3-1.9,0.8-2.7c0.6-1.1,2-1.5,3.2-0.9c0.4,0.2,0.7,0.5,1,0.9c0.5,0.8,0.8,1.8,0.8,2.7
			c0,1-0.3,1.9-0.8,2.7c-0.6,1.1-2,1.5-3.1,0.9c-0.4-0.2-0.8-0.5-1-0.9C286.9,341,286.6,340.1,286.7,339.1z M287.2,339.1
			c0,0.9,0.2,1.7,0.7,2.4c0.4,0.8,1.5,1.2,2.3,0.8c0.4-0.2,0.6-0.4,0.8-0.8c0.9-1.5,0.9-3.4,0-4.9c-0.4-0.8-1.5-1.2-2.3-0.8
			c-0.4,0.2-0.6,0.4-0.8,0.8C287.5,337.4,287.2,338.3,287.2,339.1z"/>
		<path d="M295.5,341.9c0.3,0,0.6,0.2,0.6,0.6c0,0.3-0.3,0.6-0.6,0.6c-0.3,0-0.6-0.2-0.6-0.6c0,0,0,0,0,0
			C294.9,342.2,295.2,341.9,295.5,341.9z"/>
		<path d="M297.2,339.1c0-1,0.2-1.9,0.8-2.7c0.4-0.7,1.2-1.1,2.1-1.2c0.8,0,1.6,0.5,2.1,1.2c0.5,0.8,0.8,1.8,0.8,2.7
			c0,1-0.3,1.9-0.8,2.7c-0.4,0.7-1.2,1.1-2.1,1.2c-0.9,0-1.6-0.5-2.1-1.2C297.5,341,297.2,340.1,297.2,339.1z M297.8,339.1
			c0,0.9,0.2,1.7,0.7,2.4c0.3,0.5,0.9,0.9,1.6,0.9c0.6,0,1.2-0.4,1.6-0.9c0.9-1.5,0.9-3.4,0-4.9c-0.3-0.5-0.9-0.9-1.6-0.9
			c-0.7,0-1.2,0.4-1.6,0.9C298,337.4,297.8,338.3,297.8,339.1z"/>
		<path d="M305.6,339.1c0-1,0.3-1.9,0.8-2.7c0.6-1.1,2-1.5,3.1-0.9c0.4,0.2,0.7,0.5,1,0.9c0.5,0.8,0.8,1.8,0.8,2.7
			c0,1-0.3,1.9-0.8,2.7c-0.6,1.1-2,1.5-3.1,0.9c-0.4-0.2-0.8-0.5-1-0.9C305.8,341,305.6,340.1,305.6,339.1z M306.2,339.1
			c0,0.9,0.2,1.7,0.7,2.4c0.3,0.5,0.9,0.9,1.6,0.9c0.6,0,1.2-0.4,1.6-0.9c0.9-1.5,0.9-3.4,0-4.9c-0.3-0.5-0.9-0.9-1.6-0.9
			c-0.7,0-1.2,0.4-1.6,0.9C306.4,337.4,306.1,338.3,306.2,339.1z"/>
		<path d="M275.4,146.7l-1.8,2.3c0,0.1-0.1,0.1-0.2,0.1l0,0c-0.1,0-0.1,0-0.2-0.1l-1.8-2.3v4.3c0,0.1-0.1,0.2-0.2,0.2
			c-0.1,0-0.2-0.1-0.2-0.2c0,0,0,0,0,0v-4.8c0-0.1,0-0.1,0.1-0.1l0,0c0.1,0,0.2,0,0.3,0l2,2.6l1.9-2.6c0.1-0.1,0.2-0.1,0.3,0
			l0.1,0.1c0,0,0,0.1,0,0.1v4.8c0,0.1-0.1,0.2-0.2,0.2c-0.1,0-0.2-0.1-0.2-0.2c0,0,0,0,0,0L275.4,146.7z"/>
		<path d="M279.4,147.5c1,0,1.9,0.7,2,1.7c0,1-0.8,1.8-1.8,1.9s-1.9-0.7-2-1.7c0,0,0,0,0-0.1C277.6,148.4,278.4,147.6,279.4,147.5z
			 M279.4,150.9c0.9,0.1,1.6-0.6,1.7-1.4c0.1-0.8-0.6-1.5-1.4-1.6c-0.9-0.1-1.6,0.6-1.7,1.4c0,0,0,0.1,0,0.1
			C277.9,150.2,278.5,150.8,279.4,150.9z"/>
		<path d="M285.7,150.5c-0.3,0.4-0.9,0.7-1.5,0.7c-1.1,0-1.9-0.8-1.9-1.8c0-1,0.9-1.8,1.9-1.8c0.6,0,1.1,0.3,1.5,0.7v-2.1
			c0-0.1,0.1-0.2,0.2-0.2c0,0,0,0,0,0c0.1,0,0.2,0.1,0.2,0.2v4.9c0,0.1-0.1,0.2-0.2,0.2c-0.1,0-0.2-0.1-0.2-0.2c0,0,0,0,0,0V150.5z
			 M285.7,149.4v-0.1c0-0.8-0.7-1.4-1.6-1.4s-1.5,0.7-1.5,1.5s0.7,1.4,1.6,1.4C285,150.8,285.7,150.2,285.7,149.4z"/>
		<path d="M287.4,149.4c0-1,0.8-1.8,1.9-1.8c1,0,1.8,0.7,1.9,1.7l0,0l0,0c0,0.1-0.1,0.2-0.2,0.2c0,0,0,0,0,0h-3.2
			c0,0.8,0.7,1.4,1.5,1.4c0.5,0,1-0.3,1.2-0.7c0-0.1,0.2-0.1,0.2-0.1c0,0,0,0,0,0c0.1,0.1,0.1,0.2,0.1,0.3c-0.3,0.5-0.9,0.8-1.6,0.8
			C288.3,151.2,287.4,150.4,287.4,149.4C287.4,149.4,287.4,149.4,287.4,149.4z M287.8,149.1h2.9c-0.1-0.8-0.9-1.3-1.7-1.2
			C288.4,148,287.9,148.5,287.8,149.1z"/>
		<path d="M292.3,147.7c0-0.1,0.1-0.2,0.2-0.2c0,0,0,0,0,0c0.1,0,0.2,0.1,0.2,0.2v0.8c0,0,0-0.1,0.1-0.1c0.3-0.5,0.9-0.9,1.5-0.9
			c0.1,0,0.2,0.1,0.2,0.2c0,0.1-0.1,0.2-0.2,0.2c-0.4,0-0.9,0.2-1.1,0.6c-0.2,0.3-0.4,0.6-0.5,0.9c0,0,0,0,0,0.1v1.6
			c0,0.1-0.1,0.2-0.2,0.2l0,0c-0.1,0-0.2-0.1-0.2-0.2c0,0,0,0,0,0L292.3,147.7z"/>
		<path d="M298.5,149c0-0.6-0.5-1.1-1.2-1.1c-0.7,0-1.2,0.5-1.2,1.1v2c0,0,0,0.1,0,0.1c0,0-0.1,0.1-0.1,0.1h0c-0.1,0-0.1,0-0.1-0.1
			l0,0l0,0v-3.4c0-0.1,0.1-0.2,0.2-0.2c0,0,0,0,0,0c0.1,0,0.2,0.1,0.2,0.2v0.4c0.3-0.3,0.7-0.5,1.2-0.5c0.9,0,1.6,0.7,1.6,1.5v2
			c0,0.1-0.1,0.2-0.2,0.2c-0.1,0-0.2-0.1-0.2-0.2c0,0,0,0,0,0L298.5,149z"/>
		<path d="M306.2,148.8h-2.8v2.3c0,0.1-0.1,0.2-0.2,0.2c-0.1,0-0.2-0.1-0.2-0.2v-4.9c0-0.1,0.1-0.2,0.2-0.2c0.1,0,0.2,0.1,0.2,0.2
			v2.3h2.8v-2.3c0-0.1,0.1-0.2,0.2-0.2c0.1,0,0.2,0.1,0.2,0.2v4.9c0,0.1-0.1,0.2-0.2,0.2c-0.1,0-0.2-0.1-0.2-0.2V148.8z"/>
		<path d="M311.7,147.7v3.3c0,0.1-0.1,0.2-0.2,0.2c-0.1,0-0.2-0.1-0.2-0.2v-0.5c-0.3,0.4-0.9,0.7-1.4,0.7c-1.1,0-1.9-0.8-1.9-1.8
			c0-1,0.9-1.8,1.9-1.8c0.6,0,1.1,0.3,1.4,0.7v-0.5c0-0.1,0-0.2,0.1-0.2S311.6,147.5,311.7,147.7
			C311.7,147.7,311.7,147.7,311.7,147.7z M311.3,149.4c-0.1-0.8-0.8-1.3-1.5-1.3c-0.8,0.1-1.4,0.7-1.3,1.5c0.1,0.7,0.7,1.3,1.4,1.3
			C310.7,150.8,311.3,150.2,311.3,149.4L311.3,149.4z"/>
		<path d="M315.9,149c0-0.6-0.5-1.1-1.2-1.1c0,0,0,0,0,0c-0.7,0-1.2,0.5-1.2,1.1v2c0,0,0,0.1,0,0.1c0,0-0.1,0.1-0.1,0.1h0
			c-0.1,0-0.1,0-0.1-0.1l0,0l0,0v-3.4c0-0.1,0.1-0.2,0.2-0.2c0,0,0,0,0,0c0.1,0,0.2,0.1,0.2,0.2c0,0,0,0,0,0v0.4
			c0.3-0.3,0.7-0.5,1.2-0.5c0.9,0,1.6,0.7,1.6,1.5v2c0,0.1-0.1,0.2-0.2,0.2c-0.1,0-0.2-0.1-0.2-0.2L315.9,149z"/>
		<path d="M320.9,150.5c-0.3,0.4-0.9,0.7-1.5,0.7c-1.1,0-1.9-0.8-1.9-1.8c0-1,0.9-1.8,1.9-1.8c0.6,0,1.1,0.3,1.5,0.7v-2.1
			c0-0.1,0.1-0.2,0.2-0.2c0,0,0,0,0,0c0.1,0,0.2,0.1,0.2,0.2v4.9c0,0.1-0.1,0.2-0.2,0.2c-0.1,0-0.2-0.1-0.2-0.2c0,0,0,0,0,0V150.5z
			 M320.9,149.4v-0.1c0-0.8-0.7-1.4-1.6-1.4s-1.5,0.7-1.5,1.5c0,0.8,0.7,1.4,1.6,1.4C320.3,150.8,320.9,150.2,320.9,149.4z"/>
		<path d="M323,149.5v-3.3c0-0.1,0.1-0.2,0.2-0.2c0.1,0,0.2,0.1,0.2,0.2c0,0,0,0,0,0v2.1c0.3-0.4,0.9-0.7,1.5-0.7
			c1.1,0,1.9,0.8,1.9,1.8c0,1-0.9,1.8-1.9,1.8c-0.6,0-1.1-0.3-1.5-0.7v0.5c0,0.1-0.1,0.2-0.2,0.2c0,0,0,0,0,0
			c-0.1,0-0.2-0.1-0.2-0.2V149.5z M323.4,149.4c0,0.8,0.7,1.4,1.5,1.4c0.8,0,1.5-0.7,1.5-1.5c0-0.8-0.7-1.4-1.5-1.4
			C324.1,148,323.4,148.6,323.4,149.4L323.4,149.4z"/>
		<path d="M331.4,147.7v3.3c0,0.1-0.1,0.2-0.2,0.2c-0.1,0-0.2-0.1-0.2-0.2v-0.5c-0.3,0.4-0.9,0.7-1.4,0.7c-1.1,0-1.9-0.8-1.9-1.8
			c0-1,0.9-1.8,1.9-1.8c0.6,0,1.1,0.3,1.4,0.7v-0.5c0-0.1,0-0.2,0.1-0.2S331.4,147.5,331.4,147.7
			C331.4,147.7,331.4,147.7,331.4,147.7z M331,149.4c-0.1-0.8-0.8-1.3-1.5-1.3c-0.8,0.1-1.4,0.7-1.3,1.5c0.1,0.7,0.7,1.3,1.4,1.3
			C330.4,150.8,331.1,150.2,331,149.4L331,149.4z"/>
		<path d="M336.7,150.9c0,1-0.8,1.7-1.8,1.7l0,0c-0.3,0-0.6-0.1-0.8-0.2c-0.1-0.1-0.1-0.2-0.1-0.2c0-0.1,0.1-0.1,0.2-0.1
			c0,0,0,0,0,0c0.7,0.3,1.6,0,1.9-0.6c0.1-0.2,0.1-0.4,0.1-0.6v-0.5c-0.3,0.5-0.9,0.7-1.4,0.7c-1,0-1.9-0.8-1.9-1.8
			c0-1,0.8-1.8,1.9-1.8c0.6,0,1.1,0.3,1.4,0.7v-0.6c0-0.1,0.1-0.2,0.2-0.2c0.1,0,0.2,0.1,0.2,0.2V150.9z M336.3,149.4
			c-0.1-0.7-0.8-1.3-1.5-1.2c-0.8,0.1-1.4,0.7-1.3,1.5c0.1,0.7,0.7,1.2,1.4,1.3C335.7,150.8,336.3,150.1,336.3,149.4
			C336.3,149.4,336.3,149.4,336.3,149.4z"/>
		<path d="M273.8,292.9c0.6,0,1.3,0.2,1.8,0.6c0.1,0.1,0.1,0.2,0,0.3c-0.1,0.1-0.2,0.1-0.3,0c0,0,0,0,0,0c-0.4-0.3-1-0.5-1.5-0.5
			c-1.3-0.1-2.5,0.9-2.5,2.1c-0.1,1.3,0.9,2.3,2.2,2.4c0.1,0,0.2,0,0.3,0c0.6,0,1.1-0.2,1.5-0.5c0.1-0.1,0.2-0.1,0.3,0
			c0.1,0.1,0.1,0.2,0,0.3c0,0,0,0,0,0c-0.5,0.4-1.1,0.6-1.8,0.6c-1.5,0-2.8-1.2-2.8-2.6C271,294,272.3,292.8,273.8,292.9
			L273.8,292.9z"/>
		<path d="M278.7,294.6c1,0,1.9,0.7,2,1.7c0,1-0.8,1.8-1.8,1.9s-1.9-0.7-2-1.7c0,0,0,0,0-0.1C276.9,295.4,277.7,294.6,278.7,294.6z
			 M278.7,297.8c0.9,0.1,1.6-0.6,1.7-1.4c0.1-0.8-0.6-1.5-1.4-1.6c-0.9-0.1-1.6,0.6-1.7,1.4c0,0,0,0.1,0,0.1
			C277.3,297.2,277.9,297.8,278.7,297.8L278.7,297.8z"/>
		<path d="M282,293.2c0-0.1,0.1-0.2,0.2-0.2c0.1,0,0.2,0.1,0.2,0.2c0,0,0,0,0,0v4.9c0,0.1-0.1,0.2-0.2,0.2c0,0,0,0,0,0
			c-0.1,0-0.2-0.1-0.2-0.2V293.2z"/>
		<path d="M285.6,294.6c1,0,1.9,0.7,2,1.7c0,1-0.8,1.8-1.8,1.9s-1.9-0.7-2-1.7c0,0,0,0,0-0.1C283.8,295.4,284.6,294.6,285.6,294.6z
			 M285.6,297.8c0.9,0.1,1.6-0.5,1.7-1.3c0.1-0.8-0.5-1.5-1.4-1.6c-0.9-0.1-1.6,0.5-1.7,1.3c0,0,0,0.1,0,0.1
			C284.1,297.1,284.7,297.8,285.6,297.8L285.6,297.8z"/>
		<path d="M288.7,294.7c0-0.1,0.1-0.2,0.2-0.2c0,0,0,0,0,0c0.1,0,0.2,0.1,0.2,0.2v0v0.8c0,0,0-0.1,0-0.1c0.3-0.5,0.9-0.9,1.5-0.9
			c0.1,0,0.2,0.1,0.2,0.2c0,0,0,0,0,0c0,0.1-0.1,0.2-0.2,0.2h0c-0.5,0-0.9,0.2-1.1,0.6c-0.2,0.3-0.4,0.6-0.5,0.9c0,0,0,0,0,0.1v1.6
			c0,0.1-0.1,0.2-0.2,0.2h0c-0.1,0-0.2-0.1-0.2-0.2c0,0,0,0,0,0L288.7,294.7z"/>
		<rect x="280.4" y="354.8" class="st5" width="104.1" height="20.9"/>
		<path class="st6" d="M298.2,367.7h-2.8l-0.6,1.5c-0.1,0.2-0.3,0.4-0.6,0.4c-0.1,0-0.2,0-0.2,0c-0.3-0.1-0.5-0.5-0.4-0.8l2.6-6.6
			c0.1-0.2,0.4-0.4,0.6-0.4c0.3,0,0.5,0.1,0.6,0.4l2.6,6.6c0.1,0.3-0.1,0.7-0.4,0.8c-0.1,0-0.2,0-0.2,0c-0.3,0-0.5-0.2-0.6-0.4
			L298.2,367.7z M297.7,366.4l-0.9-2.4l-0.9,2.4H297.7z"/>
		<path class="st6" d="M301.6,368.9v-6.6c0-0.3,0.3-0.6,0.6-0.6c0,0,0,0,0,0h1.4c2.3,0.1,4,1.9,3.9,4.1c-0.1,2-1.8,3.6-3.9,3.7h-1.4
			C301.8,369.5,301.6,369.2,301.6,368.9C301.6,368.9,301.6,368.9,301.6,368.9z M302.9,368.3h0.7c1.6-0.2,2.6-1.6,2.4-3.1
			c-0.2-1.2-1.2-2.1-2.4-2.3h-0.7V368.3z"/>
		<path class="st6" d="M309.7,368.9v-6.6c0-0.3,0.3-0.6,0.6-0.6c0,0,0,0,0,0h1.4c2.3,0.1,4,1.9,3.9,4.1c-0.1,2-1.8,3.6-3.9,3.7h-1.4
			C309.9,369.5,309.7,369.2,309.7,368.9C309.7,368.9,309.7,368.9,309.7,368.9z M311,368.3h0.7c1.6-0.2,2.6-1.6,2.4-3.1
			c-0.2-1.2-1.2-2.1-2.4-2.3H311V368.3z"/>
		<path class="st6" d="M326.7,362.9h-1.9v6c0,0.3-0.4,0.6-0.7,0.5c-0.3,0-0.5-0.3-0.6-0.5v-6h-1.9c-0.4,0-0.7-0.3-0.7-0.6l0,0
			c0-0.3,0.3-0.6,0.6-0.6c0,0,0,0,0,0h5c0.4,0,0.6,0.3,0.6,0.6c0,0,0,0,0,0C327.2,362.6,327,362.9,326.7,362.9z"/>
		<path class="st6" d="M335.1,362.7c1.6,1.6,1.6,4.1,0,5.7c-0.7,0.8-1.8,1.2-2.8,1.2c-1.1,0-2.1-0.4-2.9-1.2c-1.6-1.6-1.6-4.1,0-5.7
			c0.7-0.8,1.8-1.2,2.9-1.2C333.3,361.5,334.4,361.9,335.1,362.7z M334.9,365.5c0-0.7-0.3-1.4-0.8-2c-0.5-0.5-1.2-0.8-1.9-0.8
			c-0.7,0-1.4,0.3-1.9,0.8c-0.5,0.5-0.8,1.2-0.8,2c0,0.7,0.3,1.4,0.8,1.9c0.5,0.5,1.2,0.8,1.9,0.8c0.7,0,1.4-0.3,1.9-0.8
			C334.6,366.9,334.9,366.2,334.9,365.5z"/>
		<path class="st6" d="M341.8,365.5c0-2.2,2-4,4.3-4c1,0,1.9,0.3,2.7,0.9c0.3,0.2,0.4,0.6,0.1,0.9c-0.2,0.3-0.6,0.3-0.9,0.1
			c-0.5-0.4-1.2-0.6-1.9-0.6c-0.8,0-1.5,0.3-2.1,0.8c-1.1,1-1.2,2.7-0.1,3.8c0,0,0,0,0.1,0.1c0.6,0.5,1.3,0.8,2.1,0.8
			c0.7,0,1.4-0.2,1.9-0.6c0.3-0.2,0.7-0.1,0.9,0.1c0.2,0.3,0.2,0.7-0.1,0.9c-0.8,0.6-1.7,0.9-2.7,0.9
			C343.7,369.6,341.8,367.8,341.8,365.5C341.8,365.5,341.8,365.5,341.8,365.5z"/>
		<path class="st6" d="M355.2,367.7h-2.8l-0.6,1.5c-0.1,0.2-0.3,0.4-0.6,0.4c-0.1,0-0.1,0-0.2,0c-0.3-0.1-0.5-0.5-0.4-0.8
			c0,0,0,0,0,0l2.6-6.6c0.1-0.2,0.4-0.4,0.6-0.4c0.3,0,0.5,0.1,0.6,0.4l2.6,6.6c0.1,0.3,0,0.7-0.4,0.8c0,0,0,0,0,0
			c-0.1,0-0.1,0-0.2,0c-0.3,0-0.5-0.1-0.6-0.4L355.2,367.7z M354.7,366.4l-0.9-2.4l-0.9,2.4H354.7z"/>
		<path class="st6" d="M364,368.6c0.1,0.3-0.1,0.7-0.4,0.8c-0.1,0-0.2,0-0.3,0l0,0c-0.2,0-0.3,0-0.5-0.1c-0.2-0.1-0.3-0.2-0.4-0.4
			c-0.2-0.4-0.3-0.9-0.2-1.3c0-0.2,0-0.3-0.1-0.5c-0.1-0.1-0.2-0.2-0.4-0.3c-0.2-0.1-0.4-0.2-0.7-0.3h-1.4v2.4
			c0,0.3-0.3,0.6-0.7,0.6c0,0,0,0,0,0c-0.4,0-0.6-0.3-0.6-0.6v-6.6c0-0.3,0.3-0.6,0.6-0.6c0,0,0,0,0,0h2.1c1.4,0,2.5,1.1,2.5,2.4
			c0,0,0,0,0,0c0,0.7-0.4,1.4-0.9,1.8c0.2,0.1,0.3,0.3,0.4,0.4c0.3,0.4,0.4,0.8,0.4,1.2c0,0.2,0,0.4,0,0.7
			C363.8,368.2,364,368.4,364,368.6z M362.4,364.1c0-0.6-0.5-1.2-1.2-1.2c0,0,0,0,0,0h-1.4v2.3h1.4
			C361.8,365.2,362.4,364.7,362.4,364.1L362.4,364.1z"/>
		<path class="st6" d="M370.7,362.9h-1.9v6c0,0.3-0.3,0.6-0.6,0.6c0,0,0,0,0,0c-0.4,0-0.6-0.3-0.7-0.6c0,0,0,0,0,0v-6h-1.9
			c-0.4,0-0.6-0.3-0.6-0.6c0-0.3,0.3-0.6,0.6-0.6c0,0,0,0,0,0h5c0.4,0,0.6,0.3,0.7,0.6c0,0,0,0,0,0
			C371.3,362.6,371.1,362.9,370.7,362.9z"/>
		<rect x="270.4" y="155.4" class="st2" width="124" height="118.1"/>
		<ellipse class="st3" cx="332.4" cy="260.2" rx="51" ry="6.7"/>
		<path class="st5" d="M363.4,259.8h-61.9c-16.7,0-14.1-12.7-10-26.1c4-13.4,10-33.7,24.9-33.7h32.2c15,0,20.9,20.3,24.9,33.7
			C377.4,247.1,380.1,259.8,363.4,259.8z"/>
		<g class="st11">
			<path d="M314.6,200.7c0,0.3-0.3,0.6-0.6,0.6c-0.4,0-0.6-0.3-0.6-0.6c0-0.3,0.3-0.6,0.6-0.6c0,0,0,0,0,0
				C314.3,200.1,314.6,200.3,314.6,200.7z"/>
			<path d="M325.1,200.7c0,0.3-0.3,0.6-0.6,0.6c-0.4,0-0.6-0.3-0.6-0.6c0-0.3,0.3-0.6,0.6-0.6c0,0,0,0,0,0
				C324.9,200.1,325.1,200.3,325.1,200.7z"/>
			<path d="M335.7,200.7c0,0.3-0.3,0.6-0.6,0.6c-0.4,0-0.6-0.3-0.6-0.6c0-0.3,0.3-0.6,0.6-0.6l0,0
				C335.4,200.1,335.7,200.3,335.7,200.7z"/>
			<path d="M346.3,200.7c0,0.3-0.3,0.6-0.6,0.6c-0.4,0-0.6-0.3-0.6-0.6c0-0.3,0.3-0.6,0.6-0.6C346,200.1,346.3,200.3,346.3,200.7z"
				/>
			<path d="M304,213.6c0,0.3-0.3,0.6-0.6,0.6c-0.4,0-0.6-0.3-0.7-0.6c0-0.3,0.3-0.6,0.6-0.6c0,0,0,0,0,0
				C303.7,213,304,213.3,304,213.6z"/>
			<ellipse cx="313.9" cy="213.6" rx="0.6" ry="0.6"/>
			<path d="M325.1,213.6c0,0.3-0.3,0.6-0.6,0.6c-0.4,0-0.6-0.3-0.7-0.6c0-0.3,0.3-0.6,0.6-0.6c0,0,0,0,0,0
				C324.9,213,325.1,213.3,325.1,213.6L325.1,213.6z"/>
			<path d="M335.7,213.6c0,0.3-0.3,0.6-0.6,0.6c-0.4,0-0.6-0.3-0.7-0.6c0-0.3,0.3-0.6,0.6-0.6c0,0,0,0,0,0
				C335.4,213,335.7,213.3,335.7,213.6C335.7,213.6,335.7,213.6,335.7,213.6z"/>
			<path d="M346.3,213.6c0,0.3-0.3,0.6-0.6,0.6c-0.4,0-0.6-0.3-0.6-0.6c0-0.3,0.3-0.6,0.6-0.6C346,213,346.3,213.3,346.3,213.6
				L346.3,213.6z"/>
			<path d="M356.8,213.6c0,0.3-0.3,0.6-0.6,0.6c-0.4,0-0.6-0.3-0.7-0.6c0-0.3,0.3-0.6,0.6-0.6c0,0,0,0,0,0
				C356.5,213,356.8,213.3,356.8,213.6z"/>
			<path d="M309.3,207c0,0.3-0.3,0.6-0.6,0.6c-0.4,0-0.6-0.3-0.6-0.6c0-0.3,0.3-0.6,0.6-0.6l0,0C309,206.4,309.3,206.6,309.3,207z"
				/>
			<path d="M319.9,207c0,0.3-0.3,0.6-0.6,0.6c-0.4,0-0.6-0.3-0.6-0.6c0-0.3,0.3-0.6,0.6-0.6c0,0,0,0,0,0
				C319.6,206.4,319.9,206.6,319.9,207C319.9,207,319.9,207,319.9,207z"/>
			<path d="M330.4,207c0,0.3-0.3,0.6-0.6,0.6c-0.4,0-0.6-0.3-0.6-0.6c0-0.3,0.3-0.6,0.6-0.6l0,0C330.1,206.4,330.4,206.6,330.4,207
				C330.4,207,330.4,207,330.4,207z"/>
			<path d="M340.9,207c0,0.3-0.3,0.6-0.6,0.6c-0.4,0-0.6-0.3-0.6-0.6c0-0.3,0.3-0.6,0.6-0.6l0,0C340.6,206.4,340.9,206.6,340.9,207
				C340.9,207,340.9,207,340.9,207z"/>
			<path d="M351.5,207c0,0.3-0.3,0.6-0.6,0.6c-0.4,0-0.6-0.3-0.6-0.6c0-0.3,0.3-0.6,0.6-0.6l0,0C351.2,206.4,351.5,206.6,351.5,207z
				"/>
			<path d="M362,207.3c-0.1,0.2-0.3,0.3-0.5,0.3c-0.4,0-0.6-0.3-0.6-0.6c0,0,0,0,0,0c0-0.3,0.2-0.5,0.4-0.6
				C361.5,206.7,361.8,207,362,207.3z"/>
			<path d="M304,226.5c0,0.3-0.3,0.6-0.6,0.6c-0.4,0-0.6-0.3-0.7-0.6s0.3-0.6,0.6-0.6c0,0,0,0,0,0C303.7,225.9,304,226.2,304,226.5z
				"/>
			<ellipse cx="313.9" cy="226.5" rx="0.6" ry="0.6"/>
			<path d="M325.1,226.5c0,0.3-0.3,0.6-0.6,0.6c-0.4,0-0.6-0.3-0.7-0.6c0-0.3,0.3-0.6,0.6-0.6c0,0,0,0,0,0
				C324.9,225.9,325.1,226.2,325.1,226.5L325.1,226.5z"/>
			<path d="M335.7,226.5c0,0.3-0.3,0.6-0.6,0.6c-0.4,0-0.6-0.3-0.7-0.6c0-0.3,0.3-0.6,0.6-0.6c0,0,0,0,0,0
				C335.4,225.9,335.7,226.2,335.7,226.5C335.7,226.5,335.7,226.5,335.7,226.5z"/>
			<path d="M346.3,226.5c0,0.3-0.3,0.6-0.6,0.6c-0.4,0-0.6-0.3-0.6-0.6c0-0.3,0.3-0.6,0.6-0.6C346,225.9,346.3,226.2,346.3,226.5
				L346.3,226.5z"/>
			<path d="M356.8,226.5c0,0.3-0.3,0.6-0.6,0.6c-0.4,0-0.6-0.3-0.7-0.6c0-0.3,0.3-0.6,0.6-0.6c0,0,0,0,0,0
				C356.5,225.9,356.8,226.2,356.8,226.5z"/>
			<ellipse cx="366.7" cy="226.5" rx="0.6" ry="0.6"/>
			<path d="M298.7,219.9c0,0.3-0.3,0.6-0.6,0.6c-0.4,0-0.6-0.3-0.6-0.6c0-0.3,0.3-0.6,0.6-0.6l0,0
				C298.5,219.3,298.7,219.6,298.7,219.9z"/>
			<path d="M309.3,219.9c0,0.3-0.3,0.6-0.6,0.6c-0.4,0-0.6-0.3-0.6-0.6c0-0.3,0.3-0.6,0.6-0.6l0,0
				C309,219.3,309.3,219.6,309.3,219.9z"/>
			<path d="M319.9,219.9c0,0.3-0.3,0.6-0.6,0.6s-0.6-0.3-0.6-0.6c0-0.3,0.3-0.6,0.6-0.6c0,0,0,0,0,0
				C319.6,219.3,319.9,219.6,319.9,219.9z"/>
			<path d="M330.4,219.9c0,0.3-0.3,0.6-0.6,0.6c-0.4,0-0.6-0.3-0.6-0.6c0-0.3,0.3-0.6,0.6-0.6l0,0
				C330.1,219.3,330.4,219.6,330.4,219.9z"/>
			<path d="M340.9,219.9c0,0.3-0.3,0.6-0.6,0.6c-0.4,0-0.6-0.3-0.6-0.6c0-0.3,0.3-0.6,0.6-0.6l0,0
				C340.6,219.3,340.9,219.6,340.9,219.9z"/>
			<path d="M351.5,219.9c0,0.3-0.3,0.6-0.6,0.6c-0.4,0-0.6-0.3-0.6-0.6c0-0.3,0.3-0.6,0.6-0.6l0,0
				C351.2,219.3,351.5,219.6,351.5,219.9z"/>
			<path d="M362.1,219.9c0,0.3-0.3,0.6-0.6,0.6s-0.6-0.3-0.6-0.6c0-0.3,0.3-0.6,0.6-0.6c0,0,0,0,0,0
				C361.8,219.3,362.1,219.6,362.1,219.9z"/>
			<path d="M293.5,239.4c0,0.3-0.3,0.6-0.6,0.6c-0.4,0-0.6-0.3-0.7-0.6s0.3-0.6,0.6-0.6c0,0,0,0,0,0
				C293.2,238.8,293.5,239.1,293.5,239.4C293.5,239.4,293.5,239.4,293.5,239.4z"/>
			<path d="M304,239.4c0,0.3-0.3,0.6-0.6,0.6c-0.4,0-0.6-0.3-0.7-0.6s0.3-0.6,0.6-0.6c0,0,0,0,0,0C303.7,238.8,304,239.1,304,239.4z
				"/>
			<ellipse cx="313.9" cy="239.4" rx="0.6" ry="0.6"/>
			<path d="M325.1,239.4c0,0.3-0.3,0.6-0.6,0.6c-0.4,0-0.6-0.3-0.7-0.6c0-0.3,0.3-0.6,0.6-0.6c0,0,0,0,0,0
				C324.9,238.8,325.1,239.1,325.1,239.4L325.1,239.4z"/>
			<path d="M335.1,239.4c0,0.3-0.2,0.6-0.3,0.6c-0.2,0-0.4-0.3-0.4-0.6s0.2-0.6,0.3-0.6c0,0,0,0,0,0
				C334.9,238.8,335.1,239.1,335.1,239.4C335.1,239.4,335.1,239.4,335.1,239.4z"/>
			<path d="M346.3,239.4c0,0.3-0.3,0.6-0.6,0.6c-0.4,0-0.6-0.3-0.6-0.6c0-0.3,0.3-0.6,0.6-0.6C346,238.8,346.3,239.1,346.3,239.4
				L346.3,239.4z"/>
			<path d="M356.8,239.4c0,0.3-0.3,0.6-0.6,0.6c-0.4,0-0.6-0.3-0.7-0.6c0-0.3,0.3-0.6,0.6-0.6c0,0,0,0,0,0
				C356.5,238.8,356.8,239.1,356.8,239.4z"/>
			<ellipse cx="366.7" cy="239.4" rx="0.6" ry="0.6"/>
			<path d="M298.7,232.8c0,0.3-0.3,0.6-0.6,0.6c-0.4,0-0.6-0.3-0.6-0.6c0-0.3,0.3-0.6,0.6-0.6l0,0
				C298.5,232.2,298.7,232.5,298.7,232.8z"/>
			<path d="M309.3,232.8c0,0.3-0.3,0.6-0.6,0.6c-0.4,0-0.6-0.3-0.6-0.6c0-0.3,0.3-0.6,0.6-0.6l0,0
				C309,232.2,309.3,232.5,309.3,232.8z"/>
			<path d="M319.9,232.8c0,0.3-0.3,0.6-0.6,0.6c-0.4,0-0.6-0.3-0.6-0.6c0-0.3,0.3-0.6,0.6-0.6c0,0,0,0,0,0
				C319.6,232.2,319.9,232.5,319.9,232.8z"/>
			<path d="M330.4,232.8c0,0.3-0.3,0.6-0.6,0.6c-0.4,0-0.6-0.3-0.6-0.6c0-0.3,0.3-0.6,0.6-0.6l0,0
				C330.1,232.2,330.4,232.5,330.4,232.8z"/>
			<path d="M340.9,232.8c0,0.3-0.3,0.6-0.6,0.6c-0.4,0-0.6-0.3-0.6-0.6c0-0.3,0.3-0.6,0.6-0.6l0,0
				C340.6,232.2,340.9,232.5,340.9,232.8z"/>
			<path d="M351.5,232.8c0,0.3-0.3,0.6-0.6,0.6c-0.4,0-0.6-0.3-0.6-0.6c0-0.3,0.3-0.6,0.6-0.6l0,0
				C351.2,232.2,351.5,232.5,351.5,232.8z"/>
			<path d="M362.1,232.8c0,0.3-0.3,0.6-0.6,0.6c-0.4,0-0.6-0.3-0.6-0.6c0-0.3,0.3-0.6,0.6-0.6c0,0,0,0,0,0
				C361.8,232.2,362.1,232.5,362.1,232.8z"/>
			<path d="M372.6,232.8c0,0.3-0.3,0.6-0.6,0.6c-0.4,0-0.6-0.3-0.6-0.6c0-0.3,0.3-0.6,0.6-0.6c0,0,0,0,0,0
				C372.4,232.2,372.6,232.5,372.6,232.8z"/>
			<path d="M293.5,252.4c0,0.3-0.3,0.6-0.6,0.6c-0.4,0-0.6-0.3-0.6-0.6c0-0.3,0.3-0.6,0.6-0.6l0,0
				C293.2,251.7,293.5,252,293.5,252.4C293.5,252.4,293.5,252.4,293.5,252.4z"/>
			<path d="M304,252.4c0,0.3-0.3,0.6-0.6,0.6c-0.4,0-0.6-0.3-0.6-0.6c0-0.3,0.3-0.6,0.6-0.6l0,0C303.7,251.8,304,252,304,252.4z"/>
			<ellipse cx="313.9" cy="252.4" rx="0.6" ry="0.6"/>
			<path d="M325.1,252.4c0,0.3-0.3,0.6-0.6,0.6c-0.4,0-0.6-0.3-0.6-0.6c0-0.3,0.3-0.6,0.6-0.6c0,0,0,0,0,0
				C324.9,251.8,325.1,252,325.1,252.4C325.1,252.4,325.1,252.4,325.1,252.4z"/>
			<path d="M335.7,252.4c0,0.3-0.3,0.6-0.6,0.6c-0.4,0-0.6-0.3-0.6-0.6c0-0.3,0.3-0.6,0.6-0.6l0,0
				C335.4,251.7,335.7,252,335.7,252.4C335.7,252.4,335.7,252.4,335.7,252.4z"/>
			<path d="M346.3,252.4c0,0.3-0.3,0.6-0.6,0.6c-0.4,0-0.6-0.3-0.6-0.7c0-0.3,0.3-0.5,0.6-0.5C346,251.8,346.3,252,346.3,252.4
				L346.3,252.4z"/>
			<path d="M356.8,252.4c0,0.3-0.3,0.6-0.6,0.6s-0.6-0.3-0.6-0.6c0-0.3,0.3-0.6,0.6-0.6l0,0C356.5,251.8,356.8,252,356.8,252.4z"/>
			<ellipse cx="366.7" cy="252.4" rx="0.6" ry="0.6"/>
			<path d="M298.7,245.7c0,0.3-0.3,0.6-0.6,0.6c-0.4,0-0.6-0.3-0.7-0.6s0.3-0.6,0.6-0.6c0,0,0,0,0,0
				C298.5,245.1,298.7,245.4,298.7,245.7C298.7,245.7,298.7,245.7,298.7,245.7z"/>
			<path d="M309.3,245.7c0,0.3-0.3,0.6-0.6,0.6c-0.4,0-0.6-0.3-0.7-0.6s0.3-0.6,0.6-0.6c0,0,0,0,0,0
				C309,245.1,309.3,245.4,309.3,245.7z"/>
			<path d="M319.9,245.7c0,0.3-0.3,0.6-0.6,0.6c-0.4,0-0.6-0.3-0.7-0.6c0-0.3,0.3-0.6,0.6-0.6c0,0,0,0,0,0
				C319.6,245.1,319.9,245.4,319.9,245.7L319.9,245.7z"/>
			<path d="M330.4,245.7c0,0.3-0.3,0.6-0.6,0.6c-0.4,0-0.6-0.3-0.7-0.6c0-0.3,0.3-0.6,0.6-0.6c0,0,0,0,0,0
				C330.1,245.1,330.4,245.4,330.4,245.7C330.4,245.7,330.4,245.7,330.4,245.7z"/>
			<path d="M340.9,245.7c0,0.3-0.3,0.6-0.6,0.6c-0.4,0-0.6-0.3-0.7-0.6c0-0.3,0.3-0.6,0.6-0.6c0,0,0,0,0,0
				C340.6,245.1,340.9,245.4,340.9,245.7C340.9,245.7,340.9,245.7,340.9,245.7z"/>
			<path d="M351.5,245.7c0,0.3-0.3,0.6-0.6,0.6c-0.4,0-0.6-0.3-0.7-0.6c0-0.3,0.3-0.6,0.6-0.6c0,0,0,0,0,0
				C351.2,245.1,351.5,245.4,351.5,245.7z"/>
			<path d="M362.1,245.7c0,0.3-0.3,0.6-0.6,0.6c-0.4,0-0.6-0.3-0.7-0.6c0-0.3,0.3-0.6,0.6-0.6c0,0,0,0,0,0
				C361.8,245.1,362.1,245.4,362.1,245.7L362.1,245.7z"/>
			<path d="M372.6,245.7c0,0.3-0.3,0.6-0.6,0.6c-0.4,0-0.6-0.3-0.7-0.6c0-0.3,0.3-0.6,0.6-0.6c0,0,0,0,0,0
				C372.4,245.1,372.6,245.4,372.6,245.7L372.6,245.7z"/>
			<ellipse cx="298.1" cy="258.7" rx="0.6" ry="0.6"/>
			<path d="M309.3,258.7c0,0.3-0.3,0.6-0.6,0.6c-0.4,0-0.6-0.3-0.7-0.6c0-0.3,0.3-0.6,0.6-0.6c0,0,0,0,0,0
				C309,258,309.3,258.3,309.3,258.7z"/>
			<path d="M319.9,258.7c0,0.3-0.3,0.6-0.6,0.6c-0.4,0-0.6-0.3-0.7-0.6c0-0.3,0.3-0.6,0.6-0.6c0,0,0,0,0,0
				C319.6,258,319.9,258.3,319.9,258.7L319.9,258.7z"/>
			<path d="M330.4,258.7c0,0.3-0.3,0.6-0.6,0.6c-0.4,0-0.6-0.3-0.7-0.6c0-0.3,0.3-0.6,0.6-0.6c0,0,0,0,0,0
				C330.1,258,330.4,258.3,330.4,258.7C330.4,258.6,330.4,258.6,330.4,258.7z"/>
			<ellipse cx="340.3" cy="258.7" rx="0.6" ry="0.6"/>
			<ellipse cx="350.9" cy="258.7" rx="0.6" ry="0.6"/>
			<path d="M362.1,258.7c0,0.3-0.3,0.6-0.6,0.6c-0.4,0-0.6-0.3-0.7-0.6c0-0.3,0.3-0.6,0.6-0.6c0,0,0,0,0,0
				C361.8,258,362.1,258.3,362.1,258.7L362.1,258.7z"/>
			<path d="M371.9,258.1c-0.1,0.1-0.2,0.1-0.3,0.2C371.6,258.1,371.7,258.1,371.9,258.1z"/>
		</g>
		<ellipse class="st12" cx="315.3" cy="207.1" rx="5.1" ry="4.9"/>
		<ellipse class="st12" cx="349.5" cy="207.1" rx="5.1" ry="4.9"/>
		<ellipse class="st10" cx="315.3" cy="207.1" rx="3.5" ry="3.3"/>
		<ellipse class="st10" cx="349.5" cy="207.1" rx="3.5" ry="3.3"/>
		<path class="st5" d="M349.5,207.8c-1.1,0-2-0.8-2-1.9l0,0c-0.4-5.9-1.4-11.8-2.9-17.6c-2-7-5.6-15.3-11.8-15.3
			c-11.4,0-15.6,27.3-15.6,32.9c0,1-0.9,1.9-2,1.9s-2-0.8-2-1.9c0-0.4,2.4-36.6,19.5-36.6c16.6,0,18.6,36.3,18.6,36.6
			C351.5,206.9,350.6,207.8,349.5,207.8C349.5,207.8,349.5,207.8,349.5,207.8z"/>
		<rect x="270.4" y="303.4" class="st2" width="22.1" height="21"/>
		<path class="st13" d="M287,322h-11.1c-3,0-2.5-2.3-1.8-4.7c0.7-2.4,1.8-6,4.4-6h5.7c2.7,0,3.7,3.6,4.4,6S289.9,322,287,322z"/>
		<g class="st11">
			<path d="M278.3,311.4c0,0.1-0.1,0.1-0.1,0.1c-0.1,0-0.1-0.1-0.1-0.1c0-0.1,0.1-0.1,0.1-0.1S278.3,311.4,278.3,311.4z"/>
			<path d="M280.1,311.4c0,0.1-0.1,0.1-0.1,0.1c-0.1,0-0.1,0-0.1-0.1c0-0.1,0.1-0.1,0.1-0.1C280.1,311.3,280.1,311.4,280.1,311.4z"
				/>
			<path d="M282,311.4c0,0.1-0.1,0.1-0.1,0.1c-0.1,0-0.1,0-0.1-0.1c0-0.1,0.1-0.1,0.1-0.1C282,311.3,282,311.4,282,311.4z"/>
			<path d="M283.9,311.4c0,0.1-0.1,0.1-0.1,0.1c-0.1,0-0.1,0-0.1-0.1c0-0.1,0.1-0.1,0.1-0.1S283.9,311.4,283.9,311.4z"/>
			<path d="M276.4,313.7c0,0.1-0.1,0.1-0.1,0.1s-0.1,0-0.1-0.1c0-0.1,0.1-0.1,0.1-0.1C276.3,313.6,276.4,313.7,276.4,313.7z"/>
			<path d="M278.3,313.7c0,0.1-0.1,0.1-0.1,0.1s-0.1,0-0.1-0.1c0-0.1,0.1-0.1,0.1-0.1C278.2,313.6,278.3,313.7,278.3,313.7z"/>
			<path d="M280.1,313.7c0,0.1,0,0.1-0.1,0.1c-0.1,0-0.1,0-0.1-0.1c0,0,0,0,0,0c0-0.1,0.1-0.1,0.1-0.1
				C280.1,313.6,280.1,313.7,280.1,313.7z"/>
			<path d="M282,313.7c0,0.1,0,0.1-0.1,0.1c-0.1,0-0.1,0-0.1-0.1c0,0,0,0,0,0c0-0.1,0.1-0.1,0.1-0.1C282,313.6,282,313.7,282,313.7z
				"/>
			<path d="M283.9,313.7c0,0.1-0.1,0.1-0.1,0.1s-0.1,0-0.1-0.1s0.1-0.1,0.1-0.1C283.9,313.6,283.9,313.7,283.9,313.7z"/>
			<path d="M285.8,313.7c0,0.1-0.1,0.1-0.1,0.1s-0.1,0-0.1-0.1s0.1-0.1,0.1-0.1C285.7,313.6,285.8,313.7,285.8,313.7z"/>
			<ellipse cx="277.2" cy="312.6" rx="0.1" ry="0.1"/>
			<ellipse cx="279.1" cy="312.6" rx="0.1" ry="0.1"/>
			<ellipse cx="281" cy="312.6" rx="0.1" ry="0.1"/>
			<path d="M283,312.6c0,0.1-0.1,0.1-0.1,0.1s-0.1,0-0.1-0.1c0-0.1,0.1-0.1,0.1-0.1C282.9,312.5,283,312.5,283,312.6z"/>
			<path d="M284.8,312.6c0,0.1-0.1,0.1-0.1,0.1s-0.1,0-0.1-0.1c0-0.1,0.1-0.1,0.1-0.1C284.8,312.5,284.8,312.5,284.8,312.6z"/>
			<path d="M286.7,312.6C286.7,312.7,286.7,312.7,286.7,312.6c-0.2,0.1-0.2,0-0.2-0.1c0,0,0-0.1,0.1-0.1
				C286.6,312.5,286.7,312.6,286.7,312.6z"/>
			<path d="M276.4,316c0,0.1-0.1,0.1-0.1,0.1c-0.1,0-0.1,0-0.1-0.1c0-0.1,0.1-0.1,0.1-0.1C276.3,315.9,276.4,316,276.4,316z"/>
			<path d="M278.3,316c0,0.1-0.1,0.1-0.1,0.1c-0.1,0-0.1,0-0.1-0.1c0-0.1,0.1-0.1,0.1-0.1C278.2,315.9,278.3,316,278.3,316z"/>
			<path d="M280.1,316c0,0.1-0.1,0.1-0.1,0.1c-0.1,0-0.1,0-0.1-0.1s0.1-0.1,0.1-0.1l0,0C280.1,315.9,280.1,316,280.1,316z"/>
			<path d="M282,316c0,0.1-0.1,0.1-0.1,0.1s-0.1,0-0.1-0.1s0.1-0.1,0.1-0.1l0,0C282,315.9,282,316,282,316z"/>
			<path d="M283.9,316c0,0.1-0.1,0.1-0.1,0.1c-0.1,0-0.1,0-0.1-0.1c0-0.1,0.1-0.1,0.1-0.1C283.9,315.9,283.9,316,283.9,316z"/>
			<path d="M285.8,316c0,0.1-0.1,0.1-0.1,0.1c-0.1,0-0.1,0-0.1-0.1c0-0.1,0.1-0.1,0.1-0.1C285.7,315.9,285.8,316,285.8,316z"/>
			<path d="M287.7,316c0,0.1-0.1,0.1-0.1,0.1c-0.1,0-0.1,0-0.1-0.1c0-0.1,0-0.1,0.1-0.1c0,0,0,0,0,0
				C287.6,315.9,287.7,316,287.7,316z"/>
			<ellipse cx="275.3" cy="314.9" rx="0.1" ry="0.1"/>
			<ellipse cx="277.2" cy="314.9" rx="0.1" ry="0.1"/>
			<ellipse cx="279.1" cy="314.9" rx="0.1" ry="0.1"/>
			<ellipse cx="281" cy="314.9" rx="0.1" ry="0.1"/>
			<path d="M283,314.9c0,0.1-0.1,0.1-0.1,0.1c-0.1,0-0.1,0-0.1-0.1c0-0.1,0.1-0.1,0.1-0.1C282.9,314.8,283,314.8,283,314.9z"/>
			<path d="M284.8,314.9c0,0.1-0.1,0.1-0.1,0.1c-0.1,0-0.1,0-0.1-0.1c0-0.1,0.1-0.1,0.1-0.1C284.8,314.8,284.8,314.8,284.8,314.9z"
				/>
			<path d="M286.7,314.9c0,0.1-0.1,0.1-0.1,0.1s-0.1,0-0.1-0.1c0-0.1,0.1-0.1,0.1-0.1l0,0C286.7,314.8,286.7,314.8,286.7,314.9z"/>
			<path d="M274.5,318.4c0,0.1-0.1,0.1-0.1,0.1c-0.1,0-0.1,0-0.1-0.1c0-0.1,0-0.1,0.1-0.1c0,0,0,0,0,0
				C274.5,318.2,274.5,318.3,274.5,318.4z"/>
			<path d="M276.4,318.4c0,0.1-0.1,0.1-0.1,0.1c-0.1,0-0.1-0.1-0.1-0.1c0-0.1,0-0.1,0.1-0.1C276.3,318.2,276.4,318.3,276.4,318.4
				C276.4,318.3,276.4,318.3,276.4,318.4z"/>
			<path d="M278.3,318.4c0,0.1-0.1,0.1-0.1,0.1c-0.1,0-0.1-0.1-0.1-0.1c0-0.1,0-0.1,0.1-0.1C278.2,318.2,278.3,318.3,278.3,318.4
				C278.3,318.3,278.3,318.3,278.3,318.4z"/>
			<path d="M280.1,318.4c0,0.1-0.1,0.1-0.1,0.1c-0.1,0-0.1,0-0.1-0.1c0-0.1,0-0.1,0.1-0.1C280.1,318.2,280.1,318.3,280.1,318.4
				C280.1,318.4,280.1,318.4,280.1,318.4z"/>
			<path d="M282,318.4c0,0.1-0.1,0.1-0.1,0.1c-0.1,0-0.1,0-0.1-0.1c0-0.1,0-0.1,0.1-0.1C282,318.2,282,318.3,282,318.4
				C282,318.4,282,318.4,282,318.4z"/>
			<path d="M283.9,318.4c0,0.1-0.1,0.1-0.1,0.1c-0.1,0-0.1,0-0.1-0.1c0-0.1,0-0.1,0.1-0.1c0,0,0,0,0,0
				C283.9,318.2,283.9,318.3,283.9,318.4z"/>
			<path d="M285.8,318.4c0,0.1-0.1,0.1-0.1,0.1c-0.1,0-0.1,0-0.1-0.1c0-0.1,0-0.1,0.1-0.1c0,0,0,0,0,0
				C285.7,318.2,285.8,318.3,285.8,318.4z"/>
			<path d="M287.7,318.4c0,0.1-0.1,0.1-0.1,0.1c-0.1,0-0.1,0-0.1-0.1c0-0.1,0.1-0.1,0.1-0.1l0,0
				C287.6,318.2,287.7,318.3,287.7,318.4z"/>
			<ellipse cx="275.3" cy="317.2" rx="0.1" ry="0.1"/>
			<ellipse cx="277.2" cy="317.2" rx="0.1" ry="0.1"/>
			<ellipse cx="279.1" cy="317.2" rx="0.1" ry="0.1"/>
			<ellipse cx="281" cy="317.2" rx="0.1" ry="0.1"/>
			<path d="M283,317.2c0,0.1,0,0.1-0.1,0.1c0,0,0,0,0,0c-0.1,0-0.1-0.1-0.1-0.1c0-0.1,0.1-0.1,0.1-0.1
				C282.9,317.1,283,317.1,283,317.2z"/>
			<path d="M284.8,317.2c0,0.1,0,0.1-0.1,0.1c0,0,0,0,0,0c-0.1,0-0.1-0.1-0.1-0.1c0-0.1,0.1-0.1,0.1-0.1
				C284.8,317.1,284.8,317.1,284.8,317.2z"/>
			<path d="M286.7,317.2c0,0.1,0,0.1-0.1,0.1c-0.1,0-0.1,0-0.1-0.1c0,0,0,0,0,0c0-0.1,0-0.1,0.1-0.1
				C286.7,317.1,286.7,317.1,286.7,317.2C286.7,317.2,286.7,317.2,286.7,317.2z"/>
			<path d="M288.6,317.2c0,0.1,0,0.1-0.1,0.1c-0.1,0-0.1,0-0.1-0.1c0,0,0,0,0,0c0-0.1,0.1-0.1,0.1-0.1
				C288.6,317.1,288.6,317.1,288.6,317.2z"/>
			<ellipse cx="274.4" cy="320.7" rx="0.1" ry="0.1"/>
			<ellipse cx="276.3" cy="320.7" rx="0.1" ry="0.1"/>
			<path d="M278.3,320.7c0,0.1-0.1,0.1-0.1,0.1c-0.1,0-0.1,0-0.1-0.1c0-0.1,0.1-0.1,0.1-0.1C278.2,320.6,278.3,320.6,278.3,320.7z"
				/>
			<path d="M280.1,320.7c0,0.1-0.1,0.1-0.1,0.1c-0.1,0-0.1,0-0.1-0.1c0-0.1,0.1-0.1,0.1-0.1l0,0
				C280.1,320.6,280.1,320.6,280.1,320.7z"/>
			<ellipse cx="281.9" cy="320.7" rx="0.1" ry="0.1"/>
			<ellipse cx="283.8" cy="320.7" rx="0.1" ry="0.1"/>
			<ellipse cx="285.7" cy="320.7" rx="0.1" ry="0.1"/>
			<ellipse cx="287.6" cy="320.7" rx="0.1" ry="0.1"/>
			<ellipse cx="275.3" cy="319.5" rx="0.1" ry="0.1"/>
			<ellipse cx="277.2" cy="319.5" rx="0.1" ry="0.1"/>
			<ellipse cx="279.1" cy="319.5" rx="0.1" ry="0.1"/>
			<ellipse cx="281" cy="319.5" rx="0.1" ry="0.1"/>
			<path d="M283,319.5c0,0.1-0.1,0.1-0.1,0.1c-0.1,0-0.1,0-0.1-0.1c0-0.1,0.1-0.1,0.1-0.1C282.9,319.4,283,319.4,283,319.5z"/>
			<path d="M284.8,319.5c0,0.1-0.1,0.1-0.1,0.1c-0.1,0-0.1,0-0.1-0.1c0-0.1,0.1-0.1,0.1-0.1C284.8,319.4,284.8,319.4,284.8,319.5z"
				/>
			<path d="M286.7,319.5c0,0.1-0.1,0.1-0.1,0.1s-0.1,0-0.1-0.1c0-0.1,0.1-0.1,0.1-0.1l0,0C286.7,319.4,286.7,319.4,286.7,319.5z"/>
			<path d="M288.6,319.5c0,0.1-0.1,0.1-0.1,0.1s-0.1,0-0.1-0.1c0-0.1,0.1-0.1,0.1-0.1l0,0C288.6,319.4,288.6,319.4,288.6,319.5z"/>
			<ellipse cx="275.3" cy="321.8" rx="0.1" ry="0.1"/>
			<ellipse cx="277.2" cy="321.8" rx="0.1" ry="0.1"/>
			<ellipse cx="279.1" cy="321.8" rx="0.1" ry="0.1"/>
			<ellipse cx="281" cy="321.8" rx="0.1" ry="0.1"/>
			<path d="M283,321.8c0,0.1-0.1,0.1-0.1,0.1c-0.1,0-0.1-0.1-0.1-0.1c0-0.1,0.1-0.1,0.1-0.1S283,321.7,283,321.8z"/>
			<path d="M284.8,321.8c0,0.1-0.1,0.1-0.1,0.1c-0.1,0-0.1-0.1-0.1-0.1c0-0.1,0.1-0.1,0.1-0.1S284.8,321.7,284.8,321.8z"/>
			<path d="M286.7,321.8c0,0.1,0,0.1-0.1,0.1c-0.1,0-0.1,0-0.1-0.1c0,0,0,0,0,0c0-0.1,0-0.1,0.1-0.1
				C286.7,321.7,286.7,321.7,286.7,321.8C286.7,321.8,286.7,321.8,286.7,321.8z"/>
			<path d="M288.5,321.7L288.5,321.7C288.4,321.7,288.5,321.7,288.5,321.7z"/>
		</g>
		<path class="st12" d="M279.3,312.6c0,0.5-0.4,0.9-0.9,0.9s-0.9-0.4-0.9-0.9s0.4-0.9,0.9-0.9S279.3,312.1,279.3,312.6z"/>
		<path class="st12" d="M285.4,312.6c0,0.5-0.4,0.9-0.9,0.9s-0.9-0.4-0.9-0.9s0.4-0.9,0.9-0.9S285.4,312.1,285.4,312.6z"/>
		<path class="st10" d="M279,312.6c0,0.3-0.3,0.6-0.6,0.6c-0.3,0-0.6-0.3-0.6-0.6c0-0.3,0.3-0.6,0.6-0.6
			C278.7,312,279,312.2,279,312.6z"/>
		<ellipse class="st10" cx="284.5" cy="312.6" rx="0.6" ry="0.6"/>
		<path class="st13" d="M284.5,312.7c-0.2,0-0.3-0.1-0.3-0.3c0,0,0,0,0,0c-0.1-1.1-0.2-2.1-0.5-3.1c-0.4-1.2-1-2.7-2.1-2.7
			c-2,0-2.8,4.9-2.8,5.9c0,0.2-0.2,0.3-0.4,0.3c-0.2,0-0.3-0.1-0.3-0.3c0,0,0,0,0,0c0-0.1,0.4-6.5,3.5-6.5s3.3,6.5,3.3,6.5
			C284.8,312.6,284.7,312.7,284.5,312.7z"/>
		<rect x="297.7" y="303.4" class="st2" width="22.1" height="21"/>
		<path class="st10" d="M320.3,324.9h-23v-22h23L320.3,324.9z M298.2,324h21.2v-20.2h-21.2V324z"/>
		<path class="st5" d="M314.3,322h-11c-3,0-2.5-2.3-1.8-4.7c0.7-2.4,1.8-6,4.4-6h5.7c2.7,0,3.7,3.6,4.4,6
			C316.8,319.7,317.3,322,314.3,322z"/>
		<g class="st11">
			<path d="M305.6,311.4c0,0.1-0.1,0.1-0.1,0.1c-0.1,0-0.1,0-0.1-0.1c0-0.1,0.1-0.1,0.1-0.1C305.5,311.3,305.6,311.4,305.6,311.4z"
				/>
			<path d="M307.5,311.4c0,0.1-0.1,0.1-0.1,0.1c-0.1,0-0.1,0-0.1-0.1c0-0.1,0.1-0.1,0.1-0.1C307.4,311.3,307.5,311.4,307.5,311.4z"
				/>
			<path d="M309.3,311.4c0,0.1-0.1,0.1-0.1,0.1c-0.1,0-0.1,0-0.1-0.1c0-0.1,0.1-0.1,0.1-0.1C309.3,311.3,309.3,311.4,309.3,311.4z"
				/>
			<path d="M311.2,311.4c0,0.1-0.1,0.1-0.1,0.1c-0.1,0-0.1,0-0.1-0.1c0-0.1,0.1-0.1,0.1-0.1c0,0,0,0,0,0
				C311.2,311.3,311.2,311.4,311.2,311.4z"/>
			<path d="M303.7,313.7c0,0.1-0.1,0.1-0.1,0.1c-0.1,0-0.1,0-0.1-0.1c0-0.1,0-0.1,0.1-0.1C303.6,313.6,303.7,313.7,303.7,313.7
				C303.7,313.7,303.7,313.7,303.7,313.7z"/>
			<path d="M305.6,313.7c0,0.1-0.1,0.1-0.1,0.1c-0.1,0-0.1,0-0.1-0.1c0-0.1,0-0.1,0.1-0.1C305.5,313.6,305.6,313.7,305.6,313.7
				C305.6,313.7,305.6,313.7,305.6,313.7z"/>
			<path d="M307.5,313.7c0,0.1-0.1,0.1-0.1,0.1c-0.1,0-0.1,0-0.1-0.1c0-0.1,0-0.1,0.1-0.1C307.4,313.6,307.5,313.7,307.5,313.7
				C307.5,313.7,307.5,313.7,307.5,313.7z"/>
			<path d="M309.3,313.7c0,0.1-0.1,0.1-0.1,0.1c-0.1,0-0.1,0-0.1-0.1s0.1-0.1,0.1-0.1C309.3,313.6,309.3,313.7,309.3,313.7z"/>
			<path d="M311.2,313.7c0,0.1-0.1,0.1-0.1,0.1c-0.1,0-0.1,0-0.1-0.1c0,0,0,0,0,0c0-0.1,0.1-0.1,0.1-0.1
				C311.2,313.6,311.2,313.7,311.2,313.7z"/>
			<path d="M313.1,313.7c0,0.1-0.1,0.1-0.1,0.1s-0.1,0-0.1-0.1c0-0.1,0.1-0.1,0.1-0.1C313.1,313.6,313.1,313.7,313.1,313.7z"/>
			<path d="M304.6,312.6c0,0.1-0.1,0.1-0.1,0.1s-0.1,0-0.1-0.1s0.1-0.1,0.1-0.1C304.6,312.5,304.6,312.5,304.6,312.6z"/>
			<ellipse cx="306.4" cy="312.6" rx="0.1" ry="0.1"/>
			<ellipse cx="308.3" cy="312.6" rx="0.1" ry="0.1"/>
			<ellipse cx="310.2" cy="312.6" rx="0.1" ry="0.1"/>
			<ellipse cx="312.1" cy="312.6" rx="0.1" ry="0.1"/>
			<path d="M314,312.6C314,312.6,314,312.7,314,312.6c-0.2,0.1-0.2,0-0.2-0.1c0,0,0-0.1,0.1-0.1C313.9,312.5,314,312.6,314,312.6z"
				/>
			<path d="M303.7,316c0,0.1-0.1,0.1-0.1,0.1s-0.1,0-0.1-0.1s0.1-0.1,0.1-0.1l0,0C303.6,315.9,303.7,316,303.7,316z"/>
			<path d="M305.6,316c0,0.1-0.1,0.1-0.1,0.1s-0.1,0-0.1-0.1s0.1-0.1,0.1-0.1l0,0C305.5,315.9,305.6,316,305.6,316z"/>
			<path d="M307.5,316c0,0.1-0.1,0.1-0.1,0.1s-0.1,0-0.1-0.1s0.1-0.1,0.1-0.1l0,0C307.4,315.9,307.5,316,307.5,316z"/>
			<path d="M309.3,316c0,0.1-0.1,0.1-0.1,0.1c-0.1,0-0.1,0-0.1-0.1c0-0.1,0.1-0.1,0.1-0.1C309.3,315.9,309.3,316,309.3,316z"/>
			<path d="M311.2,316c0,0.1-0.1,0.1-0.1,0.1c-0.1,0-0.1,0-0.1-0.1c0-0.1,0-0.1,0.1-0.1c0,0,0,0,0,0
				C311.2,315.9,311.2,316,311.2,316z"/>
			<path d="M313.1,316c0,0.1-0.1,0.1-0.1,0.1c-0.1,0-0.1,0-0.1-0.1c0-0.1,0-0.1,0.1-0.1c0,0,0,0,0,0
				C313.1,315.9,313.1,316,313.1,316z"/>
			<path d="M315,316c0,0.1-0.1,0.1-0.1,0.1c-0.1,0-0.1,0-0.1-0.1c0-0.1,0-0.1,0.1-0.1c0,0,0,0,0,0C314.9,315.9,315,316,315,316z"/>
			<path d="M302.8,314.9c0,0.1-0.1,0.1-0.1,0.1c-0.1,0-0.1,0-0.1-0.1c0-0.1,0-0.1,0.1-0.1c0,0,0,0,0,0
				C302.7,314.8,302.8,314.8,302.8,314.9z"/>
			<path d="M304.6,314.9c0,0.1-0.1,0.1-0.1,0.1c-0.1,0-0.1,0-0.1-0.1c0-0.1,0.1-0.1,0.1-0.1C304.6,314.8,304.6,314.8,304.6,314.9z"
				/>
			<ellipse cx="306.4" cy="314.9" rx="0.1" ry="0.1"/>
			<ellipse cx="308.3" cy="314.9" rx="0.1" ry="0.1"/>
			<ellipse cx="310.2" cy="314.9" rx="0.1" ry="0.1"/>
			<ellipse cx="312.1" cy="314.9" rx="0.1" ry="0.1"/>
			<path d="M314,314.9c0,0.1-0.1,0.1-0.1,0.1c-0.1,0-0.1,0-0.1-0.1c0-0.1,0.1-0.1,0.1-0.1C314,314.8,314,314.8,314,314.9z"/>
			<path d="M301.8,318.4c0,0.1-0.1,0.1-0.1,0.1c-0.1,0-0.1-0.1-0.1-0.1c0-0.1,0-0.1,0.1-0.1C301.8,318.2,301.8,318.3,301.8,318.4
				C301.8,318.3,301.8,318.3,301.8,318.4z"/>
			<path d="M303.7,318.4c0,0.1,0,0.1-0.1,0.1c-0.1,0-0.1,0-0.1-0.1c0,0,0,0,0,0c0-0.1,0-0.1,0.1-0.1
				C303.6,318.2,303.7,318.3,303.7,318.4C303.7,318.4,303.7,318.4,303.7,318.4z"/>
			<path d="M305.6,318.4c0,0.1,0,0.1-0.1,0.1c-0.1,0-0.1,0-0.1-0.1c0,0,0,0,0,0c0-0.1,0-0.1,0.1-0.1
				C305.5,318.2,305.6,318.3,305.6,318.4C305.6,318.4,305.6,318.4,305.6,318.4z"/>
			<path d="M307.5,318.4c0,0.1,0,0.1-0.1,0.1c-0.1,0-0.1,0-0.1-0.1c0,0,0,0,0,0c0-0.1,0-0.1,0.1-0.1
				C307.4,318.2,307.5,318.3,307.5,318.4C307.5,318.4,307.5,318.4,307.5,318.4z"/>
			<path d="M309.3,318.4c0,0.1-0.1,0.1-0.1,0.1c-0.1,0-0.1,0-0.1-0.1c0-0.1,0-0.1,0.1-0.1c0,0,0,0,0,0
				C309.3,318.2,309.3,318.3,309.3,318.4z"/>
			<path d="M311.2,318.4c0,0.1-0.1,0.1-0.1,0.1c-0.1,0-0.1,0-0.1-0.1c0-0.1,0.1-0.1,0.1-0.1l0,0
				C311.2,318.2,311.2,318.3,311.2,318.4z"/>
			<path d="M313.1,318.4c0,0.1-0.1,0.1-0.1,0.1c-0.1,0-0.1-0.1-0.1-0.1c0-0.1,0-0.1,0.1-0.1C313.1,318.2,313.1,318.3,313.1,318.4
				C313.1,318.3,313.1,318.3,313.1,318.4z"/>
			<path d="M315,318.4c0,0.1-0.1,0.1-0.1,0.1c-0.1,0-0.1-0.1-0.1-0.1c0-0.1,0-0.1,0.1-0.1C314.9,318.2,315,318.3,315,318.4
				C315,318.3,315,318.3,315,318.4z"/>
			<path d="M302.8,317.2c0,0.1,0,0.1-0.1,0.1c-0.1,0-0.1,0-0.1-0.1c0,0,0,0,0,0c0-0.1,0.1-0.1,0.1-0.1
				C302.7,317.1,302.8,317.1,302.8,317.2z"/>
			<path d="M304.6,317.2c0,0.1,0,0.1-0.1,0.1c-0.1,0-0.1,0-0.1-0.1c0,0,0,0,0,0c0-0.1,0.1-0.1,0.1-0.1
				C304.6,317.1,304.6,317.1,304.6,317.2z"/>
			<ellipse cx="306.4" cy="317.2" rx="0.1" ry="0.1"/>
			<ellipse cx="308.3" cy="317.2" rx="0.1" ry="0.1"/>
			<ellipse cx="310.2" cy="317.2" rx="0.1" ry="0.1"/>
			<ellipse cx="312.1" cy="317.2" rx="0.1" ry="0.1"/>
			<path d="M314,317.2c0,0.1,0,0.1-0.1,0.1c-0.1,0-0.1,0-0.1-0.1c0,0,0,0,0,0c0-0.1,0.1-0.1,0.1-0.1C314,317.1,314,317.1,314,317.2z
				"/>
			<ellipse cx="315.8" cy="317.2" rx="0.1" ry="0.1"/>
			<ellipse cx="301.7" cy="320.7" rx="0.1" ry="0.1"/>
			<ellipse cx="303.6" cy="320.7" rx="0.1" ry="0.1"/>
			<ellipse cx="305.5" cy="320.7" rx="0.1" ry="0.1"/>
			<path d="M307.5,320.7c0,0.1-0.1,0.1-0.1,0.1s-0.1,0-0.1-0.1c0-0.1,0.1-0.1,0.1-0.1l0,0C307.4,320.6,307.5,320.6,307.5,320.7z"/>
			<path d="M309.3,320.7c0,0.1-0.1,0.1-0.1,0.1c-0.1,0-0.1,0-0.1-0.1c0-0.1,0.1-0.1,0.1-0.1C309.3,320.6,309.3,320.6,309.3,320.7z"
				/>
			<path d="M311.2,320.7c0,0.1-0.1,0.1-0.1,0.1c-0.1,0-0.1,0-0.1-0.1c0-0.1,0-0.1,0.1-0.1c0,0,0,0,0,0
				C311.2,320.6,311.2,320.6,311.2,320.7z"/>
			<path d="M313.1,320.7c0,0.1-0.1,0.1-0.1,0.1c-0.1,0-0.1,0-0.1-0.1c0-0.1,0.1-0.1,0.1-0.1C313.1,320.6,313.1,320.6,313.1,320.7z"
				/>
			<path d="M315,320.7c0,0.1-0.1,0.1-0.1,0.1c-0.1,0-0.1,0-0.1-0.1c0-0.1,0.1-0.1,0.1-0.1C314.9,320.6,315,320.6,315,320.7z"/>
			<path d="M302.8,319.5c0,0.1-0.1,0.1-0.1,0.1c-0.1,0-0.1,0-0.1-0.1c0-0.1,0-0.1,0.1-0.1c0,0,0,0,0,0
				C302.7,319.4,302.8,319.4,302.8,319.5z"/>
			<path d="M304.6,319.5c0,0.1-0.1,0.1-0.1,0.1c-0.1,0-0.1,0-0.1-0.1c0-0.1,0.1-0.1,0.1-0.1C304.6,319.4,304.6,319.4,304.6,319.5z"
				/>
			<ellipse cx="306.4" cy="319.5" rx="0.1" ry="0.1"/>
			<ellipse cx="308.3" cy="319.5" rx="0.1" ry="0.1"/>
			<ellipse cx="310.2" cy="319.5" rx="0.1" ry="0.1"/>
			<ellipse cx="312.1" cy="319.5" rx="0.1" ry="0.1"/>
			<path d="M314,319.5c0,0.1-0.1,0.1-0.1,0.1c-0.1,0-0.1,0-0.1-0.1c0-0.1,0.1-0.1,0.1-0.1C314,319.4,314,319.4,314,319.5z"/>
			<ellipse cx="315.8" cy="319.5" rx="0.1" ry="0.1"/>
			<path d="M302.8,321.8c0,0.1-0.1,0.1-0.1,0.1c-0.1,0-0.1,0-0.1-0.1s0.1-0.1,0.1-0.1S302.8,321.7,302.8,321.8z"/>
			<path d="M304.6,321.8c0,0.1-0.1,0.1-0.1,0.1c-0.1,0-0.1,0-0.1-0.1s0.1-0.1,0.1-0.1S304.6,321.7,304.6,321.8z"/>
			<ellipse cx="306.4" cy="321.8" rx="0.1" ry="0.1"/>
			<ellipse cx="308.3" cy="321.8" rx="0.1" ry="0.1"/>
			<ellipse cx="310.2" cy="321.8" rx="0.1" ry="0.1"/>
			<ellipse cx="312.1" cy="321.8" rx="0.1" ry="0.1"/>
			<path d="M314,321.8c0,0.1-0.1,0.1-0.1,0.1c-0.1,0-0.1,0-0.1-0.1s0.1-0.1,0.1-0.1S314,321.7,314,321.8z"/>
			<path d="M315.8,321.7L315.8,321.7L315.8,321.7z"/>
		</g>
		<path class="st12" d="M306.6,312.6c0,0.5-0.4,0.9-0.9,0.9s-0.9-0.4-0.9-0.9s0.4-0.9,0.9-0.9S306.6,312.1,306.6,312.6z"/>
		<path class="st12" d="M312.7,312.6c0,0.5-0.4,0.9-0.9,0.9c-0.5,0-0.9-0.4-0.9-0.9s0.4-0.9,0.9-0.9
			C312.3,311.7,312.7,312.1,312.7,312.6z"/>
		<ellipse class="st10" cx="305.7" cy="312.6" rx="0.6" ry="0.6"/>
		<ellipse class="st10" cx="311.8" cy="312.6" rx="0.6" ry="0.6"/>
		<path class="st5" d="M311.8,312.7c-0.2,0-0.3-0.1-0.4-0.3c-0.1-1.1-0.2-2.1-0.5-3.1c-0.4-1.2-1-2.7-2.1-2.7c-2,0-2.8,4.9-2.8,5.9
			c0,0.2-0.2,0.3-0.4,0.3c-0.1,0-0.3-0.1-0.3-0.3c0-0.1,0.4-6.5,3.5-6.5c3.1,0,3.3,6.5,3.3,6.5C312.1,312.6,312,312.7,311.8,312.7z"
			/>
		<rect x="325" y="303.4" class="st2" width="22.1" height="21"/>
		<path class="st4" d="M341.6,322h-11.1c-3,0-2.5-2.3-1.8-4.7c0.7-2.4,1.8-6,4.4-6h5.7c2.7,0,3.7,3.6,4.4,6S344.6,322,341.6,322z"/>
		<g class="st11">
			<path d="M332.9,311.4c0,0.1-0.1,0.1-0.1,0.1c-0.1,0-0.1,0-0.1-0.1c0-0.1,0.1-0.1,0.1-0.1S332.9,311.4,332.9,311.4z"/>
			<path d="M334.8,311.4c0,0.1-0.1,0.1-0.1,0.1c-0.1,0-0.1,0-0.1-0.1c0-0.1,0.1-0.1,0.1-0.1S334.8,311.4,334.8,311.4z"/>
			<path d="M336.7,311.4c0,0.1-0.1,0.1-0.1,0.1c-0.1,0-0.1-0.1-0.1-0.1c0-0.1,0.1-0.1,0.1-0.1S336.7,311.4,336.7,311.4z"/>
			<path d="M338.5,311.4c0,0.1-0.1,0.1-0.1,0.1c-0.1,0-0.1-0.1-0.1-0.1c0-0.1,0.1-0.1,0.1-0.1S338.5,311.4,338.5,311.4z"/>
			<path d="M331,313.7c0,0.1,0,0.1-0.1,0.1c-0.1,0-0.1,0-0.1-0.1c0,0,0,0,0,0c0-0.1,0.1-0.1,0.1-0.1C331,313.6,331,313.7,331,313.7z
				"/>
			<path d="M332.9,313.7c0,0.1-0.1,0.1-0.1,0.1s-0.1,0-0.1-0.1s0.1-0.1,0.1-0.1C332.8,313.6,332.9,313.7,332.9,313.7z"/>
			<path d="M334.8,313.7c0,0.1-0.1,0.1-0.1,0.1s-0.1,0-0.1-0.1s0.1-0.1,0.1-0.1C334.7,313.6,334.8,313.7,334.8,313.7z"/>
			<path d="M336.7,313.7c0,0.1-0.1,0.1-0.1,0.1s-0.1,0-0.1-0.1c0-0.1,0.1-0.1,0.1-0.1C336.6,313.6,336.7,313.7,336.7,313.7z"/>
			<path d="M338.5,313.7c0,0.1-0.1,0.1-0.1,0.1s-0.1,0-0.1-0.1c0-0.1,0.1-0.1,0.1-0.1C338.5,313.6,338.5,313.7,338.5,313.7z"/>
			<path d="M340.4,313.7c0,0.1-0.1,0.1-0.1,0.1c-0.1,0-0.1,0-0.1-0.1c0-0.1,0.1-0.1,0.1-0.1C340.4,313.6,340.4,313.7,340.4,313.7z"
				/>
			<path d="M331.9,312.6c0,0.1-0.1,0.1-0.1,0.1s-0.1,0-0.1-0.1c0-0.1,0.1-0.1,0.1-0.1C331.9,312.5,331.9,312.5,331.9,312.6z"/>
			<path d="M333.8,312.6c0,0.1-0.1,0.1-0.1,0.1c-0.1,0-0.1,0-0.1-0.1c0-0.1,0.1-0.1,0.1-0.1C333.8,312.5,333.8,312.5,333.8,312.6z"
				/>
			<path d="M335.7,312.6c0,0.1-0.1,0.1-0.1,0.1c-0.1,0-0.1,0-0.1-0.1c0-0.1,0.1-0.1,0.1-0.1C335.7,312.5,335.7,312.5,335.7,312.6z"
				/>
			<path d="M337.6,312.6c0,0.1-0.1,0.1-0.1,0.1c-0.1,0-0.1,0-0.1-0.1c0-0.1,0.1-0.1,0.1-0.1C337.5,312.5,337.6,312.5,337.6,312.6z"
				/>
			<path d="M339.5,312.6c0,0.1-0.1,0.1-0.1,0.1s-0.1,0-0.1-0.1s0.1-0.1,0.1-0.1C339.4,312.5,339.5,312.5,339.5,312.6z"/>
			<path d="M341.3,312.6C341.3,312.6,341.3,312.7,341.3,312.6c-0.2,0.1-0.2,0-0.2-0.1c0,0,0-0.1,0.1-0.1
				C341.3,312.5,341.3,312.6,341.3,312.6z"/>
			<path d="M331,316c0,0.1-0.1,0.1-0.1,0.1s-0.1,0-0.1-0.1s0.1-0.1,0.1-0.1l0,0C331,315.9,331,316,331,316z"/>
			<path d="M332.9,316c0,0.1-0.1,0.1-0.1,0.1c-0.1,0-0.1,0-0.1-0.1c0-0.1,0.1-0.1,0.1-0.1C332.8,315.9,332.9,316,332.9,316z"/>
			<path d="M334.8,316c0,0.1-0.1,0.1-0.1,0.1c-0.1,0-0.1,0-0.1-0.1c0-0.1,0.1-0.1,0.1-0.1C334.7,315.9,334.8,316,334.8,316z"/>
			<path d="M336.7,316c0,0.1-0.1,0.1-0.1,0.1c-0.1,0-0.1,0-0.1-0.1c0-0.1,0.1-0.1,0.1-0.1C336.6,315.9,336.7,316,336.7,316z"/>
			<path d="M338.5,316c0,0.1-0.1,0.1-0.1,0.1c-0.1,0-0.1,0-0.1-0.1c0-0.1,0-0.1,0.1-0.1c0,0,0,0,0,0
				C338.5,315.9,338.5,316,338.5,316z"/>
			<path d="M340.4,316c0,0.1-0.1,0.1-0.1,0.1s-0.1,0-0.1-0.1s0.1-0.1,0.1-0.1l0,0C340.4,315.9,340.4,316,340.4,316z"/>
			<path d="M342.3,316c0,0.1-0.1,0.1-0.1,0.1s-0.1,0-0.1-0.1s0.1-0.1,0.1-0.1l0,0C342.2,315.9,342.3,316,342.3,316z"/>
			<ellipse cx="330" cy="314.9" rx="0.1" ry="0.1"/>
			<path d="M331.9,314.9c0,0.1-0.1,0.1-0.1,0.1c-0.1,0-0.1,0-0.1-0.1c0-0.1,0.1-0.1,0.1-0.1C331.9,314.8,331.9,314.8,331.9,314.9z"
				/>
			<path d="M333.8,314.9c0,0.1-0.1,0.1-0.1,0.1c-0.1,0-0.1,0-0.1-0.1c0-0.1,0.1-0.1,0.1-0.1C333.8,314.8,333.8,314.8,333.8,314.9z"
				/>
			<path d="M335.7,314.9c0,0.1-0.1,0.1-0.1,0.1s-0.1,0-0.1-0.1c0-0.1,0.1-0.1,0.1-0.1l0,0C335.7,314.8,335.7,314.8,335.7,314.9z"/>
			<path d="M337.6,314.9c0,0.1-0.1,0.1-0.1,0.1s-0.1,0-0.1-0.1c0-0.1,0.1-0.1,0.1-0.1l0,0C337.5,314.8,337.6,314.8,337.6,314.9z"/>
			<path d="M339.5,314.9c0,0.1-0.1,0.1-0.1,0.1c-0.1,0-0.1,0-0.1-0.1c0-0.1,0-0.1,0.1-0.1c0,0,0,0,0,0
				C339.4,314.8,339.5,314.8,339.5,314.9z"/>
			<path d="M341.4,314.9c0,0.1-0.1,0.1-0.1,0.1c-0.1,0-0.1,0-0.1-0.1c0-0.1,0-0.1,0.1-0.1c0,0,0,0,0,0
				C341.3,314.8,341.4,314.8,341.4,314.9z"/>
			<path d="M329.1,318.4c0,0.1-0.1,0.1-0.1,0.1c-0.1,0-0.1,0-0.1-0.1c0-0.1,0-0.1,0.1-0.1C329.1,318.2,329.1,318.3,329.1,318.4
				C329.1,318.4,329.1,318.4,329.1,318.4z"/>
			<path d="M331,318.4c0,0.1-0.1,0.1-0.1,0.1c-0.1,0-0.1,0-0.1-0.1c0-0.1,0-0.1,0.1-0.1C331,318.2,331,318.3,331,318.4
				C331,318.4,331,318.4,331,318.4z"/>
			<path d="M332.9,318.4c0,0.1-0.1,0.1-0.1,0.1c-0.1,0-0.1,0-0.1-0.1c0-0.1,0-0.1,0.1-0.1c0,0,0,0,0,0
				C332.8,318.2,332.9,318.3,332.9,318.4z"/>
			<path d="M334.8,318.4c0,0.1-0.1,0.1-0.1,0.1c-0.1,0-0.1,0-0.1-0.1c0-0.1,0-0.1,0.1-0.1c0,0,0,0,0,0
				C334.7,318.2,334.8,318.3,334.8,318.4z"/>
			<path d="M336.7,318.4c0,0.1-0.1,0.1-0.1,0.1c-0.1,0-0.1-0.1-0.1-0.1c0-0.1,0-0.1,0.1-0.1C336.6,318.2,336.7,318.3,336.7,318.4
				C336.7,318.3,336.7,318.3,336.7,318.4z"/>
			<path d="M338.5,318.4c0,0.1-0.1,0.1-0.1,0.1c-0.1,0-0.1-0.1-0.1-0.1c0-0.1,0-0.1,0.1-0.1C338.5,318.2,338.5,318.3,338.5,318.4
				C338.5,318.3,338.5,318.3,338.5,318.4z"/>
			<path d="M340.4,318.4c0,0.1-0.1,0.1-0.1,0.1c-0.1,0-0.1,0-0.1-0.1c0-0.1,0-0.1,0.1-0.1C340.4,318.2,340.4,318.3,340.4,318.4
				C340.4,318.4,340.4,318.4,340.4,318.4z"/>
			<path d="M342.3,318.4c0,0.1-0.1,0.1-0.1,0.1c-0.1,0-0.1,0-0.1-0.1c0-0.1,0-0.1,0.1-0.1C342.2,318.2,342.3,318.3,342.3,318.4
				C342.3,318.4,342.3,318.4,342.3,318.4z"/>
			<ellipse cx="330" cy="317.2" rx="0.1" ry="0.1"/>
			<path d="M331.9,317.2c0,0.1,0,0.1-0.1,0.1c0,0,0,0,0,0c-0.1,0-0.1-0.1-0.1-0.1c0-0.1,0.1-0.1,0.1-0.1
				C331.9,317.1,331.9,317.1,331.9,317.2z"/>
			<path d="M333.8,317.2c0,0.1,0,0.1-0.1,0.1c0,0,0,0,0,0c-0.1,0-0.1-0.1-0.1-0.1c0-0.1,0.1-0.1,0.1-0.1
				C333.8,317.1,333.8,317.1,333.8,317.2z"/>
			<path d="M335.7,317.2c0,0.1,0,0.1-0.1,0.1c-0.1,0-0.1,0-0.1-0.1c0,0,0,0,0,0c0-0.1,0.1-0.1,0.1-0.1
				C335.7,317.1,335.7,317.1,335.7,317.2z"/>
			<path d="M337.6,317.2c0,0.1,0,0.1-0.1,0.1c-0.1,0-0.1,0-0.1-0.1c0,0,0,0,0,0c0-0.1,0.1-0.1,0.1-0.1
				C337.5,317.1,337.6,317.1,337.6,317.2z"/>
			<path d="M339.5,317.2c0,0.1,0,0.1-0.1,0.1c-0.1,0-0.1,0-0.1-0.1c0,0,0,0,0,0c0-0.1,0.1-0.1,0.1-0.1
				C339.4,317.1,339.5,317.1,339.5,317.2z"/>
			<path d="M341.4,317.2c0,0.1,0,0.1-0.1,0.1c-0.1,0-0.1-0.1-0.1-0.1l0,0c0-0.1,0.1-0.1,0.1-0.1
				C341.3,317.1,341.4,317.1,341.4,317.2z"/>
			<path d="M343.2,317.2c0,0.1,0,0.1-0.1,0.1c0,0,0,0,0,0c-0.1,0-0.1-0.1-0.1-0.1c0-0.1,0.1-0.1,0.1-0.1
				C343.2,317.1,343.2,317.1,343.2,317.2z"/>
			<path d="M329.1,320.7c0,0.1-0.1,0.1-0.1,0.1s-0.1,0-0.1-0.1c0-0.1,0.1-0.1,0.1-0.1l0,0C329.1,320.6,329.1,320.6,329.1,320.7z"/>
			<ellipse cx="330.9" cy="320.7" rx="0.1" ry="0.1"/>
			<ellipse cx="332.8" cy="320.7" rx="0.1" ry="0.1"/>
			<ellipse cx="334.7" cy="320.7" rx="0.1" ry="0.1"/>
			<ellipse cx="336.5" cy="320.7" rx="0.1" ry="0.1"/>
			<path d="M338.5,320.7c0,0.1-0.1,0.1-0.1,0.1c-0.1,0-0.1,0-0.1-0.1c0-0.1,0.1-0.1,0.1-0.1C338.5,320.6,338.5,320.6,338.5,320.7z"
				/>
			<ellipse cx="340.3" cy="320.7" rx="0.1" ry="0.1"/>
			<ellipse cx="342.2" cy="320.7" rx="0.1" ry="0.1"/>
			<ellipse cx="330" cy="319.5" rx="0.1" ry="0.1"/>
			<path d="M331.9,319.5c0,0.1-0.1,0.1-0.1,0.1c-0.1,0-0.1,0-0.1-0.1c0-0.1,0.1-0.1,0.1-0.1C331.9,319.4,331.9,319.4,331.9,319.5z"
				/>
			<path d="M333.8,319.5c0,0.1-0.1,0.1-0.1,0.1c-0.1,0-0.1,0-0.1-0.1c0-0.1,0.1-0.1,0.1-0.1C333.8,319.4,333.8,319.4,333.8,319.5z"
				/>
			<path d="M335.7,319.5c0,0.1-0.1,0.1-0.1,0.1s-0.1,0-0.1-0.1c0-0.1,0.1-0.1,0.1-0.1l0,0C335.7,319.4,335.7,319.4,335.7,319.5z"/>
			<path d="M337.6,319.5c0,0.1-0.1,0.1-0.1,0.1s-0.1,0-0.1-0.1c0-0.1,0.1-0.1,0.1-0.1l0,0C337.5,319.4,337.6,319.4,337.6,319.5z"/>
			<path d="M339.5,319.5c0,0.1-0.1,0.1-0.1,0.1c-0.1,0-0.1,0-0.1-0.1c0-0.1,0.1-0.1,0.1-0.1C339.4,319.4,339.5,319.4,339.5,319.5z"
				/>
			<path d="M341.4,319.5c0,0.1-0.1,0.1-0.1,0.1c-0.1,0-0.1,0-0.1-0.1c0-0.1,0-0.1,0.1-0.1c0,0,0,0,0,0
				C341.3,319.4,341.4,319.4,341.4,319.5z"/>
			<path d="M343.2,319.5c0,0.1-0.1,0.1-0.1,0.1c-0.1,0-0.1,0-0.1-0.1c0-0.1,0.1-0.1,0.1-0.1C343.2,319.4,343.2,319.4,343.2,319.5z"
				/>
			<ellipse cx="330" cy="321.8" rx="0.1" ry="0.1"/>
			<path d="M331.9,321.8c0,0.1-0.1,0.1-0.1,0.1c-0.1,0-0.1-0.1-0.1-0.1c0-0.1,0.1-0.1,0.1-0.1S331.9,321.7,331.9,321.8z"/>
			<path d="M333.8,321.8c0,0.1-0.1,0.1-0.1,0.1c-0.1,0-0.1-0.1-0.1-0.1c0-0.1,0.1-0.1,0.1-0.1C333.8,321.7,333.8,321.7,333.8,321.8z
				"/>
			<path d="M335.7,321.8c0,0.1,0,0.1-0.1,0.1c-0.1,0-0.1,0-0.1-0.1c0,0,0,0,0,0c0-0.1,0.1-0.1,0.1-0.1
				C335.7,321.7,335.7,321.7,335.7,321.8z"/>
			<path d="M337.6,321.8c0,0.1,0,0.1-0.1,0.1c-0.1,0-0.1,0-0.1-0.1c0,0,0,0,0,0c0-0.1,0.1-0.1,0.1-0.1
				C337.5,321.7,337.6,321.7,337.6,321.8z"/>
			<path d="M339.5,321.8c0,0.1-0.1,0.1-0.1,0.1c-0.1,0-0.1,0-0.1-0.1s0.1-0.1,0.1-0.1S339.5,321.7,339.5,321.8z"/>
			<path d="M341.4,321.8c0,0.1-0.1,0.1-0.1,0.1c-0.1,0-0.1,0-0.1-0.1c0-0.1,0.1-0.1,0.1-0.1c0,0,0,0,0,0
				C341.3,321.7,341.4,321.7,341.4,321.8z"/>
			<path d="M343.1,321.7L343.1,321.7C343.1,321.7,343.1,321.7,343.1,321.7z"/>
		</g>
		<path class="st12" d="M333.9,312.6c0,0.5-0.4,0.9-0.9,0.9c-0.5,0-0.9-0.4-0.9-0.9s0.4-0.9,0.9-0.9
			C333.5,311.7,333.9,312.1,333.9,312.6z"/>
		<path class="st12" d="M340,312.6c0,0.5-0.4,0.9-0.9,0.9s-0.9-0.4-0.9-0.9s0.4-0.9,0.9-0.9S340,312.1,340,312.6z"/>
		<ellipse class="st10" cx="333" cy="312.6" rx="0.6" ry="0.6"/>
		<ellipse class="st10" cx="339.1" cy="312.6" rx="0.6" ry="0.6"/>
		<path class="st4" d="M339.1,312.7c-0.2,0-0.3-0.1-0.4-0.3c-0.1-1.1-0.2-2.1-0.5-3.1c-0.4-1.2-1-2.7-2.1-2.7c-2,0-2.8,4.9-2.8,5.9
			c0,0.2-0.2,0.3-0.3,0.3c0,0,0,0,0,0c-0.2,0-0.3-0.1-0.4-0.3c0-0.1,0.4-6.5,3.5-6.5s3.3,6.5,3.3,6.5
			C339.5,312.6,339.3,312.7,339.1,312.7z"/>
		<text transform="matrix(1.3452 0 0 1 270.7654 343.1285)" class="st8 st14">₹</text>
	</g>
	<g id="freepik--Puff--inject-12">
		<path class="st1" d="M82.9,431l138.9,0.6c33.8-25.2,37.2-62.6,13.2-85.3c-14.6-13.7-33.1-10.9-50.7-13.1l0,0
			c-6.2-0.6-12.3-2.3-17.9-5c-18.1-9.1-28.4-30.6-43.6-48.7c-1.9-2.3-3.9-4.5-6-6.6c-12.6-12.8-37.5-13.2-50.6,4.8
			C32.9,323.3,48.1,391.1,82.9,431z"/>
		<path class="st3" d="M79.8,326.7c3.6,54.3,69.4,74.5,110.5,58.3c35.7-14.1,24-46.4-6.1-51.8l0,0c-6.2-0.6-12.3-2.3-17.9-5
			c-18.1-9.1-28.4-30.6-43.6-48.7C99.9,268.3,77.2,287,79.8,326.7z"/>
	</g>
	<g id="freepik--Character--inject-12">
		<path class="st15" d="M210.2,439.3c-2.1-0.7-50.7-37.7-51.6-40.2c-0.4-1,4.9-8,11.5-16.3c1.4-1.8,2.9-3.7,4.4-5.5
			c9.8-12.2,20.5-24.9,20.5-24.9l32.5,24.6l-21.4,24.2l-4.7,5.3c0,0,11.9,22.1,12.6,24.9C214.8,434.2,212.4,440,210.2,439.3z"/>
		<path class="st6" d="M210.2,439.3c-2.1-0.7-50.7-37.7-51.6-40.2c-0.4-1.2,7.4-11.3,15.9-21.9l31.6,23.9l-4.7,5.3
			c0,0,11.9,22.1,12.6,24.9C214.8,434.2,212.4,440,210.2,439.3z"/>
		<path class="st5" d="M210.2,439.3c-2.1-0.7-50.7-37.7-51.6-40.2c-0.4-1,4.9-8,11.5-16.3l31.4,23.7c0,0,11.9,22.1,12.6,24.9
			C214.8,434.2,212.4,440,210.2,439.3z"/>
		<path class="st10" d="M211.1,436.9c-8-6.4-40.8-31.4-49.2-37.1c-0.1,0-0.1,0,0,0.1c7.8,6.5,40.8,31.3,49.1,37.2
			C211.2,437.1,211.3,437,211.1,436.9z"/>
		<path class="st10" d="M212.4,427.3c-1.8-1.4-4.1-2.1-6.5-1.8c-2.1,0.2-4,1.2-5.3,2.8c0,0,0,0.1,0.1,0.1c3.2-2.7,7.9-3.1,11.6-0.9
			c0,0,0.1,0,0.1,0C212.4,427.4,212.4,427.3,212.4,427.3z"/>
		<path class="st10" d="M204,409.6c-3.2-2.5-7.9-4.3-12.1-3.3c-0.2,0-0.1,0.3,0,0.3c4.1,0.7,8,1.9,11.8,3.4c0.1,0,0.3,0,0.3-0.2
			C204.1,409.8,204,409.7,204,409.6z"/>
		<path class="st10" d="M205.7,412.5c-3.2-2.5-7.9-4.3-12.1-3.3c-0.2,0-0.1,0.3,0,0.3c4,0.7,8,1.9,11.8,3.4c0.1,0.1,0.3,0,0.4-0.1
			C205.9,412.7,205.8,412.5,205.7,412.5z"/>
		<path class="st10" d="M207.4,415.3c-3.2-2.5-7.9-4.3-12.1-3.3c-0.2,0-0.1,0.3,0,0.3c4,0.7,8,1.9,11.8,3.4c0.1,0.1,0.3,0,0.4-0.1
			C207.6,415.5,207.6,415.4,207.4,415.3z"/>
		<path class="st10" d="M209.2,418.2c-3.2-2.5-7.9-4.3-12.1-3.3c-0.2,0-0.1,0.3,0,0.3c4,0.8,8,1.9,11.8,3.5c0.1,0.1,0.3,0,0.4-0.1
			C209.3,418.4,209.3,418.2,209.2,418.2z"/>
		<path class="st6" d="M170.2,394c-3.7-2.8-8.2,2.6-4.5,5.4C169.3,402.1,173.8,396.7,170.2,394z"/>
		<path class="st10" d="M214.4,404c-0.5-2.6-3.7-2.9-5.8-2.3c-3.7,1.1-7,3-9.6,5.7c0,0-0.1,0.1,0,0.2c0,0,0,0,0,0
			c-0.1,0.2,0,0.5,0.2,0.6c0.1,0,0.1,0,0.2,0c3.6,0.2,7.4,0.9,11,0.1C212.4,407.9,215,406.4,214.4,404z M204.9,407.6
			c-1.8-0.1-3.5-0.2-5.3-0.2c1.8-1.2,3.7-2.2,5.7-3.2c1-0.5,1.9-0.9,2.9-1.2c1.6-0.5,6.9-0.6,4.4,3
			C211.3,407.9,207,407.7,204.9,407.6z"/>
		<path class="st10" d="M189.9,402.4c2.5,2.6,6.1,4,9.2,5.7c0.2,0.1,0.5,0,0.7-0.2c0-0.1,0-0.1,0-0.2c0.1,0,0.1,0,0.1-0.1
			c-0.6-3.6-2.3-7-4.7-9.8c-1.4-1.6-4.2-3-6.2-1.2S188.5,400.9,189.9,402.4z M189.4,399.1c0-4.3,4.4-1.4,5.4-0.1
			c0.6,0.8,1.2,1.7,1.8,2.5c1,1.8,2,3.7,2.8,5.7c-1.5-0.9-3-1.7-4.6-2.6C193.1,403.6,189.4,401.5,189.4,399.1z"/>
		<path class="st16" d="M260.4,329.6c-2.2,16.1-43.9,62.6-48.7,67.9l-1.1,1.2l-34.5-25.2l0.4-0.5l30.3-37.8l-90.5-0.5l34.4-25.4
			c0,0,2.8,1.5,8.6,0.7c20-2.8,65-9,75.7-8.5C248.7,301.9,262.5,314.8,260.4,329.6z"/>
		<path class="st10" d="M217.8,321.1c-1.1,1.2-2.2,2.5-3.1,3.8c-1.1,1.3-2.2,2.7-3.2,4v0c0.2-0.4,0.4-0.8,0.6-1.2
			c0.7-1.3,1.2-2.7,2-4c0-0.1-0.1-0.2-0.1-0.1c-0.8,1.3-1.8,2.5-2.5,3.8c-0.3,0.6-0.6,1.3-0.9,1.9c-0.2,0.4-0.3,0.7-0.5,1.1
			c-0.1,0.2-0.1,0.3-0.2,0.5c-0.5,0.6-0.9,1.2-1.4,1.9c-1,1.4-1.9,2.9-3,4.3c-0.1,0.1,0.1,0.1,0.1,0.1c1-1.3,2.2-2.5,3.3-3.8
			c1.1-1.3,2.1-2.7,3.1-4.1c1-1.4,2-2.7,3-4c1.1-1.3,2.1-2.7,3-4.2C217.9,321.2,217.9,321.1,217.8,321.1
			C217.9,321.1,217.8,321.1,217.8,321.1z"/>
		<path class="st10" d="M121.4,240.3c-7.2,5.4-14.3,40.5-17,44.4c-2,2.7-4.4,5.5-4.3,7c0.1,1.5,7,9.2,20,11.6s25.9-3.5,27.2-5.1
			c1.3-1.6-2.1-6.9-2-11.7c0.1-4.8,4.6-31.2,1.9-39C144,238.6,129.7,234.1,121.4,240.3z"/>
		<path class="st10" d="M148.2,296.7c-1.4-3.1-2.1-6.5-2-10c0.1-3.8,0.6-7.7,1-11.5c0.5-4,0.9-8.1,1.4-12.1
			c0.4-3.6,0.9-7.2,0.2-10.7c-0.6-3.4-2.2-6.7-4.6-9.3c0,0-0.1,0-0.1,0c2.2,2.7,3.7,5.9,4.3,9.3c0.7,3.8,0,7.7-0.4,11.5
			c-0.5,4-0.9,7.9-1.4,11.9c-0.4,3.6-0.9,7.3-0.9,11c0,3.4,0.3,7.1,2.2,10C148.1,296.9,148.3,296.9,148.2,296.7z"/>
		<path class="st10" d="M122.6,240c-3.3,1.7-5,5.1-6.3,8.4c-1.8,4.4-3.5,8.9-5,13.5c-1.6,4.7-2.9,9.4-4.5,14.1
			c-1.6,4.5-3.9,8.9-6.8,12.8c-0.1,0.1,0,0.2,0.1,0.1c6.2-6.9,8.1-16.2,10.9-24.7c1.6-4.7,3.2-9.3,5-14c1.4-3.7,2.8-8,6.6-10.1
			C122.7,240.1,122.6,240,122.6,240z"/>
		<path class="st10" d="M125.6,238.7c-7,2.6-9.7,10-12,16.4c-2.7,7.5-4.6,15.3-6.9,22.9c-1.3,4.3-2.5,9-5.4,12.5
			c-0.1,0.1,0.1,0.2,0.2,0.1c2.3-2.6,3.4-5.7,4.5-8.9c1.3-3.8,2.4-7.6,3.5-11.4c2.2-7.6,4.2-15.4,7.6-22.5
			C118.8,244.1,121.5,240.4,125.6,238.7C125.7,238.8,125.7,238.7,125.6,238.7z"/>
		<path class="st15" d="M127.7,286.4c6.1,8.4,27.2,30.2,41.7,33.3c8,1.7,46.8,6.9,52,2.3c6.2-5.4,3.3-25.7-1.6-25.9
			c-15.1-0.6-43,2.2-50,0.8c-3.2-0.7-19.9-10.9-37.7-19.2C125.4,274.6,123.8,280.9,127.7,286.4z"/>
		<path class="st5" d="M211.7,295l-2.6,30.4c0,0-35.1-0.5-45.7-6.2c-10.6-5.7-27.9-20.2-34.5-30.2c-6.6-10.1-4.4-15.6,8.5-9.4
			s30.3,16.1,32.6,16.6C172.3,296.7,211.7,295,211.7,295z"/>
		<path class="st10" d="M206,297.1c0-0.1-0.1-0.1-0.2,0c-0.4,2.1-0.6,4.2-0.9,6.3c-0.2,2.1-0.5,4.4-0.7,6.6c-0.4,4.4-0.9,8.8-1,13.1
			c0,0.2,0.3,0.2,0.3,0c0.7-4.3,1.1-8.7,1.5-13c0.2-2.2,0.4-4.3,0.6-6.5C205.8,301.5,206,299.3,206,297.1z"/>
		<path class="st5" d="M96.2,341.9c1.9,0.6,56.7-14.5,56.7-14.5l-6.5-18.1c0,0,3.2-5.8,1.7-11.4c-2-7.5-16.5-19.8-17.7-20.5
			c-4.6-2.9-8.9-2.8-12.7-0.9C102,284.4,96.2,341.9,96.2,341.9z"/>
		<path class="st10" d="M138.1,283.9c1.4,1.6,2.9,3,4.4,4.6c-0.7-1.1-1.4-2.3-2.1-3.4c0,0,0-0.1,0,0c1.1,1.3,2,2.7,2.8,4.2
			c1.1,1.2,2.1,2.4,3,3.7c1.1,1.5,2,3.2,2.5,5c0.5,1.8,0.6,3.7,0.2,5.6c-0.4,2.1-1,4.2-1.8,6.2c-0.1,0.3-0.5,0.1-0.4-0.2
			c1-3.5,2.2-7.3,1.4-11c-0.8-3.7-3.2-6.7-5.5-9.6c-1.4-1.8-2.9-3.5-4.5-5.1C137.9,283.9,138,283.8,138.1,283.9z"/>
		<path class="st15" d="M121.3,277.4c0.2,0.9,4.9,7.1,9.4,7c1.5,0,1.6-7.7,1.6-7.7l0.1-0.6l2-7.9l-11.1-6.9
			C123.2,261.3,121.2,277,121.3,277.4z"/>
		<path class="st10" d="M134.3,268.2l-2,7.9c-4.5-1.7-8.1-5.2-9.8-9.5c0.3-2.7,0.6-5,0.7-5.3c0,0,0,0,0,0l1.4,0.8L134.3,268.2z"/>
		<path class="st15" d="M147.3,258.5c-0.9,14.3-10,15.3-13.2,15.1c-2.9-0.2-12.9-1.1-13.5-15.4c-0.6-14.3,6.6-18.4,13.4-18.3
			C140.7,240,148.2,244.2,147.3,258.5z"/>
		<path class="st10" d="M145.1,257.1c-0.3-0.1-0.6-0.2-0.9-0.3c-0.4-0.1-0.7-0.2-0.9-0.5c-0.1-0.2-0.1-0.5,0.1-0.6
			c0.4-0.3,0.9-0.3,1.3-0.1c0.5,0.1,0.9,0.4,1.1,0.8c0.2,0.3,0,0.6-0.2,0.7C145.4,257.1,145.2,257.1,145.1,257.1z"/>
		<path class="st10" d="M135.3,255.9c0.3,0,0.7,0,1-0.1c0.4,0,0.7-0.1,1-0.3c0.2-0.2,0.2-0.4,0.1-0.6c-0.3-0.4-0.8-0.5-1.2-0.5
			c-0.5,0-0.9,0.2-1.3,0.5c-0.2,0.2-0.2,0.6,0,0.8C135,255.8,135.1,255.9,135.3,255.9z"/>
		<path class="st10" d="M137.1,258.3C137.1,258.3,137,258.3,137.1,258.3c-0.2,1.1-0.4,2.2-1.4,2.4v0.1
			C136.8,260.7,137.2,259.2,137.1,258.3z"/>
		<path class="st10" d="M136.3,257.2c-1.6-0.3-2.1,2.8-0.6,3.1C137.2,260.5,137.7,257.4,136.3,257.2z"/>
		<path class="st10" d="M135.6,257.3c-0.3,0.1-0.6,0.4-1,0.4c-0.4,0-0.7-0.4-0.9-0.7c0,0-0.1,0-0.1,0c-0.1,0.6,0,1.2,0.7,1.4
			c0.7,0.2,1.1-0.3,1.4-0.9C135.8,257.4,135.8,257.2,135.6,257.3z"/>
		<path class="st10" d="M142.7,258.8C142.7,258.8,142.7,258.9,142.7,258.8c-0.1,1.1-0.2,2.2,0.7,2.6c0,0,0,0.1,0,0.1
			C142.2,261.2,142.3,259.7,142.7,258.8z"/>
		<path class="st10" d="M143.7,258c1.6,0.1,1.3,3.2-0.3,3.1S142.4,257.9,143.7,258z"/>
		<path class="st10" d="M144.4,258.3c0.2,0.2,0.5,0.5,0.8,0.6c0.3,0.1,0.7-0.2,0.9-0.5h0c-0.1,0.6-0.3,1.2-0.9,1.2
			c-0.6,0-0.9-0.5-0.9-1.1C144.2,258.3,144.3,258.2,144.4,258.3z"/>
		<path class="st10" d="M135.7,266.6c0.2,0.3,0.4,0.6,0.7,0.7c0.4,0.1,0.8,0.1,1.1,0c0,0,0.1,0,0,0.1c-0.4,0.3-0.9,0.4-1.4,0.3
			c-0.4-0.2-0.6-0.6-0.6-1c0,0,0-0.1,0-0.1C135.6,266.6,135.7,266.6,135.7,266.6z"/>
		<path class="st10" d="M140.4,263.7c0,0,0,1.5-0.1,2.1c0,0.1-0.2,0.1-0.4,0.1l0,0c-1.3,0.1-2.5-0.6-3.1-1.6c0,0,0-0.1,0.1-0.1
			c0,0,0,0,0.1,0c0.8,0.7,1.9,1.1,3,1.2c0.1-0.2-0.1-2.5,0-2.5c0.5,0.1,1.1,0.3,1.6,0.6c0.1-3.1-0.3-6.1-0.2-9.1
			c0-0.1,0.1-0.1,0.1-0.1c0,0,0.1,0,0.1,0.1c0.6,3.3,0.8,6.5,0.6,9.8C142.1,264.5,140.7,263.8,140.4,263.7z"/>
		<path class="st10" d="M120.5,259c2.1-0.5,3.8-2,4.5-4c2.8-0.5,5.4-1.8,7.6-3.6c-0.2,0.3-1.3,2.2-2,3.2c9.7,0.2,14.1-6,14.1-6
			c1.4,1.9,2.4,4.1,2.8,6.5c0,0,1.3-5.4-0.8-9.7c-1.4-3-4.3-5-7.7-5.4c-4.5-2-9.7-1.6-13.7,1.2C117.6,246.2,120.5,259,120.5,259z"/>
		<path class="st10" d="M137.9,254.5c-1.7,0.5-3.4,0.7-5.2,0.7l0,0c2.8-0.1,5.5-1,7.7-2.5c1-0.7,1.8-1.4,2.6-2.3
			c0.9-0.9,1.6-2,2-3.1c0,0,0-0.1,0-0.1c0,0,0.1,0,0.1,0c0,0,0,0,0,0.1c-0.3,1.2-0.8,2.3-1.5,3.4c-0.7,1-1.7,1.8-2.7,2.5
			C140,253.7,139,254.2,137.9,254.5"/>
		<path class="st15" d="M122.9,259.4c0,0-2.5-4.9-4.8-4.1c-2.3,0.8-0.9,7.5,1.5,8.8c1.2,0.7,2.7,0.4,3.5-0.7c0,0,0-0.1,0.1-0.1
			L122.9,259.4z"/>
		<path class="st10" d="M118.5,257.3C118.5,257.3,118.5,257.3,118.5,257.3c1.6,1,2.3,2.6,2.7,4.3c-0.3-0.7-1.1-1-1.8-0.8
			c-0.1,0-0.1,0.1-0.2,0.1c0,0,0,0,0,0.1c0,0,0,0,0,0c0.7-0.1,1.3,0.2,1.6,0.8c0.3,0.5,0.5,0.9,0.6,1.4c0.1,0.2,0.4,0.1,0.3-0.1l0,0
			C122.1,261,120.8,257.8,118.5,257.3z"/>
		<path class="st15" d="M109.6,289.1c-4.4,23.8-0.1,41.6,4.1,43.8c11.4,5.9,38.9-6.1,46.6-8.5c3.1-1-11.1-23.7-14.3-22.3
			c-7.5,3.3-18.1,8.9-18.5,8.9c-0.9-0.1-1.8-6.2-6.2-23.9C117.7,272.9,111.4,279.4,109.6,289.1z"/>
		<path class="st15" d="M185.2,290.9c0.8,3-7.1,4.2-7.1,4.2c1.3,0.4,2.4,1.3,3.1,2.5c1.1,2.1-1.8,4.7-1.8,4.7
			c1.2,0.7,2.2,1.8,2.8,3.1c0.9,2.1-1.6,5.1-1.6,5.1c0.8,1.3,1,2.8,0.7,4.2c-0.9,3.8-7.1,5.3-10.8,7c-3.9,1.8-10.3,2.4-13.2,3.7
			l-12.7-22.1c0,0,12.3-12.4,19.3-14.2C167.8,288,184,286.3,185.2,290.9z"/>
		<path class="st10" d="M178,295c-4.4-0.2-8.8,0.6-13.1,1.5c-0.1,0-0.1,0.2,0,0.1c4.2-0.9,8.8-0.7,13.1-1.4c0.1,0,0.1,0,0.1-0.1
			C178.1,295.1,178.1,295,178,295z"/>
		<path class="st10" d="M179.3,301.9c-1,0.1-2,0.2-3,0.5c-1,0.3-2.1,0.5-3.1,0.8c-2,0.6-4.1,1.2-6.1,1.9c-0.1,0-0.1,0.2,0,0.1
			c2-0.6,4.1-1.1,6.1-1.6c1-0.2,2.1-0.5,3.1-0.7c1-0.2,2-0.4,2.9-0.8c0.1,0,0.1-0.1,0.1-0.2C179.4,302,179.3,302,179.3,301.9z"/>
		<path class="st10" d="M180.6,310.5c-0.9,0.1-1.8,0.3-2.6,0.6l-2.8,0.8c-1.9,0.5-3.7,1.1-5.6,1.5c-0.1,0-0.1,0.2,0,0.1
			c1.9-0.5,3.8-0.9,5.7-1.4l2.8-0.7C179.1,311.3,179.9,311,180.6,310.5C180.7,310.5,180.6,310.5,180.6,310.5z"/>
		<path class="st5" d="M145.1,301.9l13.2,26.8c0,0-40.8,11.3-46.3,4.5c-5.5-6.8-5.1-28.3-2.6-43.1c2.6-14.8,9.6-15.1,12.7-1.7
			s4.9,21.9,5.4,21.8C128.1,310.1,145.1,301.9,145.1,301.9z"/>
		<path class="st10" d="M139.8,305.5c0-0.1-0.2,0-0.1,0.1c0.7,2,1.7,3.9,2.6,5.9c0.9,1.9,1.9,4,2.9,6c2,4,3.9,8,6.1,11.8
			c0,0.1,0.1,0.1,0.2,0.1c0.1,0,0.1-0.1,0.1-0.2c0,0,0,0,0,0c-1.7-4.1-3.7-8-5.6-11.9c-0.9-2-1.9-3.9-2.9-5.8
			C142,309.5,141,307.4,139.8,305.5z"/>
		<path class="st10" d="M136.7,333.6c-1.2,0.1-2.3,0.2-3.4,0.5c-1.2,0.2-2.4,0.4-3.5,0.5c-2.3,0.3-4.6,0.5-6.9,0.6
			c-2.3,0.1-7.9-0.3-9.7-1.8c-1.4-1.3-2.4-3-2.9-4.8c-0.6-2.5-1.1-5.1-1.4-7.6c-0.7-5.4-0.8-10.9-0.5-16.3c0.1-1.5,0.2-3,0.3-4.5
			s0.3-3.1,0.4-4.6c0-0.1-0.1-0.1-0.1,0c-0.5,2.5-0.9,5-1.1,7.5c-0.1-1.6-0.3-3.1-0.3-4.7c0,0,0-0.1-0.1-0.1s-0.1,0-0.1,0.1l0,0
			c0,1.6-0.1,3.3,0,4.9c0,0.9,0.1,1.8,0.2,2.8c-0.1,2.1-0.2,4.2-0.2,6.3c-0.1,5.5,0.6,11.1,2,16.4c0.7,2.3,1.7,4.6,3.9,5.8
			c1.7,0.8,3.5,1.2,5.4,1.3c3.9,0.3,7.9,0,11.8-0.7c1.1-0.2,2.2-0.4,3.2-0.6C134.8,334.4,135.8,334.1,136.7,333.6
			C136.8,333.7,136.8,333.6,136.7,333.6z"/>
		<polygon class="st10" points="145.7,302.2 145.7,302.2 145.7,302.2 		"/>
		<path class="st10" d="M145.1,301.4c-3,1.4-6,2.9-9,4.3l-4.4,2.2c-1.4,0.7-4.1,2.1-4.1,2.1c0-0.6-0.5-2.5-0.8-3.7
			c-0.3-1.2-0.6-2.6-0.9-3.9c-0.1-0.3-0.2-0.7-0.3-1c-0.1-0.6-0.1-1.3-0.2-1.9c-0.1-1-0.2-2-0.4-3c0,0-0.1,0-0.1,0
			c-0.1,1-0.1,1.9,0,2.9c-0.5-1.6-0.9-3.2-1.4-4.7 M123.4,294.6c0.5,2.6,1.1,5.3,1.7,7.9c0.3,1.3,0.7,2.5,1,3.8
			c0.3,1.4,0.7,2.7,1.2,4.1c1.5-0.6,3-1.2,4.5-1.9c1.5-0.7,3.1-1.4,4.6-2.1c2.9-1.4,5.9-2.8,8.8-4.4c0,0,0.2,0.4,0.2,0.4
			c0,0,0.2-0.1,0.1-0.2c0-0.1-0.3-0.7-0.4-0.7L123.4,294.6z"/>
		<polygon class="st10" points="145.7,302.2 145.7,302.2 145.7,302.2 		"/>
		<polygon class="st10" points="171,327.8 209.4,327.8 226.2,276.1 187.8,276.1 		"/>
		<polygon class="st13" points="172.8,327.8 211.3,327.8 228.1,276.1 189.7,276.1 		"/>
		<path class="st6" d="M204.5,300.3c-0.6,2-2.5,3.5-4.7,3.6c-1.5,0.1-2.8-1-2.9-2.5c0-0.4,0-0.7,0.2-1c0.6-2,2.5-3.5,4.7-3.6
			c1.5-0.1,2.8,1,2.9,2.5C204.7,299.6,204.7,300,204.5,300.3z"/>
		<path class="st15" d="M222.2,294.2c1.9,3.3,6.9,7.3,7.4,10.1c0.3,1.4-0.4,2.8-1.7,3.5c0,0,3,1.2,3,3.8c0,1.3-2.2,2.5-2.2,2.5
			c1.3,0.6,2.2,1.9,2.2,3.3c-0.1,1.8-2.3,2.7-2.3,2.7s1.7,2,1,3.8c-1.5,3.7-17.8,4.6-20.7-1c-1.3-2.6,2.7-2.6,2.7-2.6
			s-5.8-1.3-6-4.5c-0.3-3.2,4.9-2.9,4.9-2.9s-5.6-1.3-5.5-4.7c0.1-3.4,5.2-2.3,5.2-2.3s-3.8-2.2-3.1-4.7c1.1-4.2,9.3,0.8,12.8-0.2
			L222.2,294.2z"/>
		<path class="st10" d="M228.3,320.4c-5.5,1.6-11.4,1.6-16.9-0.1c-0.2-0.1-0.2-0.3,0.1-0.3C217.1,320.9,222.7,321,228.3,320.4
			L228.3,320.4z"/>
		<path class="st10" d="M228.8,314c0.1,0,0.1,0.1,0,0.1c-6.1,1.7-12.6,1.3-18.4-1.2c-0.2-0.1-0.3-0.4,0-0.3
			C214.4,314.2,223.6,314.7,228.8,314z"/>
		<path class="st10" d="M210,305.5c5.7,2.4,11.6,2.7,17.7,2.3c0.1,0,0.1,0.1,0,0.1c-2.9,1-6.9,0.9-9.9,0.5c-2.8-0.3-5.6-1.2-7.9-2.8
			C209.8,305.6,209.8,305.5,210,305.5z"/>
		<path class="st15" d="M336.1,397.4c-0.8,2-39.7,48.1-42.4,49c-1,0.3-8.4-4.7-17.1-11c-1.9-1.4-3.8-2.8-5.8-4.2
			c-12.7-9.4-26-19.6-26-19.6l26-30.9l25.3,20.5l5.6,4.5c0,0,23.2-11.3,26.2-11.9C330.8,393.1,336.9,395.4,336.1,397.4z"/>
		<path class="st6" d="M336.1,397.4c-0.8,2-39.7,48.1-42.4,49c-1.2,0.4-11.9-7.1-22.9-15.2l25.2-30.1l5.6,4.5
			c0,0,23.2-11.3,26.2-11.9C330.8,393.1,336.9,395.4,336.1,397.4z"/>
		<path class="st5" d="M336.1,397.4c-0.8,2-39.7,48.1-42.4,49c-1,0.3-8.4-4.7-17.1-11l25-29.8c0,0,23.2-11.3,26.2-11.9
			C330.8,393.1,336.9,395.4,336.1,397.4z"/>
		<path class="st10" d="M333.6,396.6c-6.7,7.6-33.1,38.7-39.2,46.7c0,0.1,0,0.1,0,0c6.8-7.4,33-38.7,39.2-46.6
			C333.8,396.5,333.7,396.4,333.6,396.6z"/>
		<path class="st10" d="M323.5,395.3c-1.5,1.7-2.2,3.9-1.9,6.1c0.2,2,1.2,3.8,2.8,5c0,0,0.1,0,0.1-0.1
			C321.7,403.4,321.3,398.9,323.5,395.3C323.6,395.4,323.6,395.3,323.5,395.3C323.5,395.3,323.5,395.3,323.5,395.3z"/>
		<path class="st10" d="M304.9,403.3c-2.7,3.1-4.5,7.5-3.5,11.5c0,0.2,0.3,0.1,0.3,0c0.8-3.8,2-7.6,3.7-11.2
			c0.1-0.1,0.1-0.3-0.1-0.4C305.1,403.1,305,403.2,304.9,403.3L304.9,403.3z"/>
		<path class="st10" d="M307.9,401.6c-2.7,3.1-4.5,7.5-3.5,11.5c0,0.2,0.3,0.1,0.3,0c0.8-3.8,2-7.6,3.7-11.2
			c0.1-0.1,0.1-0.3-0.1-0.4S308,401.5,307.9,401.6z"/>
		<path class="st10" d="M310.9,400c-2.7,3.1-4.5,7.5-3.5,11.5c0,0.2,0.3,0.1,0.3,0c0.8-3.8,2-7.6,3.7-11.2c0.1-0.1,0.1-0.3-0.1-0.4
			C311.1,399.8,311,399.8,310.9,400L310.9,400z"/>
		<path class="st10" d="M313.9,398.4c-2.7,3.1-4.5,7.5-3.5,11.5c0,0.2,0.3,0.1,0.3,0c0.8-3.8,2-7.6,3.7-11.2c0.1-0.1,0-0.3-0.1-0.4
			C314.1,398.2,314,398.2,313.9,398.4L313.9,398.4z"/>
		<path class="st6" d="M288.4,435.4c-2.9,3.5,2.8,7.8,5.7,4.3S291.3,431.9,288.4,435.4z"/>
		<path class="st10" d="M299.1,393.3c-2.7,0.5-3,3.5-2.4,5.6c1.1,3.5,3.1,6.7,5.9,9.2c0,0,0.1,0.1,0.1,0c0,0,0,0,0,0
			c0.3,0.1,0.6,0,0.7-0.2c0,0,0-0.1,0.1-0.1c0.3-3.4,0.9-7.1,0.1-10.5C303.1,395.2,301.6,392.8,299.1,393.3z M302.8,402.4
			c-0.1,1.7-0.3,3.4-0.3,5.1c-1.2-1.7-2.3-3.6-3.3-5.4c-0.5-0.9-0.9-1.8-1.2-2.8c-0.5-1.5-0.7-6.6,3.1-4.2
			C303.1,396.3,302.9,400.4,302.8,402.4L302.8,402.4z"/>
		<path class="st10" d="M297.3,416.6c2.7-2.4,4.2-5.8,6.1-8.7c0.1-0.2,0-0.5-0.3-0.6c0,0-0.1,0-0.1,0c0-0.1,0-0.1-0.1-0.1
			c0,0,0,0,0,0c-3.8,0.6-7.3,2.1-10.3,4.4c-1.7,1.4-3.2,4-1.3,5.9C293.1,419.3,295.7,418,297.3,416.6z M293.9,417.1
			c-4.6,0-1.4-4.2-0.1-5.2c0.9-0.6,1.8-1.2,2.7-1.7c1.9-1.1,4-1.8,6-2.7c-0.9,1.4-1.8,2.9-2.8,4.3
			C298.5,413.6,296.4,417.1,293.9,417.1L293.9,417.1z"/>
		<path class="st16" d="M294.6,396.5l-27,34.7L176.5,371l-8.8-5.8c0,0-2.5,1.6-6.2,3.6c-5.2,2.7-12.8,6.2-19.6,7.2
			c-11.4,1.6-30.2,1.4-39.7-10.7c-8-10.2-3.7-23.6-3.7-23.6l12.4-5.1c0,0,29.4-23.3,48.5-24c8.1-0.3,19.9,5.5,30.8,11.6
			C201,330.3,294.6,396.5,294.6,396.5z"/>
		<path class="st10" d="M167.7,365.2c0,0-2.5,1.6-6.2,3.6c-6.6-7.5-20.6-21.3-21.1-21.7L167.7,365.2z"/>
		<path class="st10" d="M121.7,328.7c-1.8,1.2-3.5,2.4-5.2,3.6c-1.7,1.2-3.5,2.3-5.1,3.6s-3.2,2.7-4.7,4.1c-0.7,0.7-1.5,1.4-2.2,2.1
			c-0.8,0.7-1.5,1.4-2.1,2.2c-0.1,0.1,0.1,0.2,0.1,0.1c0.8-0.5,1.6-1.2,2.3-1.8l2.4-2.1c1.6-1.3,3.2-2.5,4.7-3.8
			c1.5-1.3,3-2.7,4.6-4S119.9,330,121.7,328.7C121.7,328.8,121.7,328.7,121.7,328.7z"/>
		<path class="st10" d="M288.3,395.3c-1.8,1.8-3.4,3.7-5,5.6s-3.3,3.8-4.9,5.8c-3.2,3.8-6.5,7.7-9.7,11.6c-1.8,2.1-3.5,4.3-5.1,6.5
			c-0.1,0.1,0.1,0.2,0.2,0.1c3.5-3.6,6.7-7.5,9.9-11.4s6.5-7.7,9.6-11.6c1.7-2.1,3.5-4.3,5.1-6.5
			C288.5,395.3,288.4,395.2,288.3,395.3z"/>
		<path class="st10" d="M213.5,395.6c-4.5-3.4-9.2-6.6-13.9-9.8c-4.7-3.2-9.4-6.4-14.1-9.4c-1.4-0.9-2.7-1.8-4.1-2.6
			c-1.4-0.9-2.8-1.7-4.1-2.6c-0.1,0-0.2,0.1-0.1,0.1c1.2,0.8,2.4,1.8,3.6,2.7c1.2,0.9,2.3,1.7,3.5,2.5c2.3,1.6,4.6,3.2,6.9,4.8
			c4.7,3.2,9.3,6.4,14.1,9.5c2.7,1.8,5.4,3.5,8.1,5.2C213.5,396,213.6,395.7,213.5,395.6z"/>
		<path class="st10" d="M242.6,359.8c-4.2-3.3-8.7-6.3-13.1-9.3c-4.4-3-8.9-6.2-13.3-9.3L203,332c-4.3-3-8.6-6-13.1-8.6
			c-2.5-1.4-5-2.8-7.6-3.9c-2.5-1.2-5.2-2.3-7.9-3.1c-0.1,0-0.1,0.1-0.1,0.1c2.2,1.2,4.6,2.2,6.8,3.3s4.4,2.3,6.6,3.6
			c4.5,2.6,8.7,5.5,13,8.5c8.9,6.1,17.7,12.2,26.6,18.1c5,3.4,9.9,6.9,15.1,9.9C242.6,360.2,242.8,359.9,242.6,359.8z"/>
	</g>
	<g id="freepik--Plant--inject-12">
		<path class="st5" d="M448.3,345.9c-11.6,14.9-23.7,32.2-26.6,50.9c0,0.3,0.4,0.4,0.5,0.1c1.3-5.1,3-10.1,5.1-15
			c7.6-2,15.1-3.6,19.1-10.8c4.1-7.4,3.5-17,2.8-25.1C449.1,345.6,448.5,345.6,448.3,345.9z"/>
		<path class="st10" d="M427.5,381.8c5.2-11.1,11.9-22.2,20.4-31.4c0.1-0.1,0.1,0,0.1,0.1c-5.5,6.5-9.8,13.6-13.9,20.8
			c3.8-3.7,8-7,11.6-10.9c0,0,0.1,0,0.1,0c0,0,0,0.1,0,0.1c-3.6,4.1-7.6,8.6-12.2,11.6c-1.3,2.2-2.5,4.4-3.8,6.6
			c0.3-0.2,0.6-0.3,0.9-0.5c0.1,0,0.1,0.1,0,0.1c-0.4,0.2-0.7,0.4-1.1,0.5c-0.6,1-1.2,2.1-1.8,3.1
			C427.7,382.2,427.4,382,427.5,381.8z"/>
		<path class="st10" d="M431.3,377.9c3.1-1.7,6.1-3.5,8.9-5.6c0.1-0.1,0.2,0,0.1,0.1c-2.7,2.2-5.7,4.2-8.9,5.7c-0.1,0-0.1,0-0.2,0
			C431.2,378,431.3,377.9,431.3,377.9z"/>
		<path class="st5" d="M420.4,394c0,0.2,0.4,0.2,0.4,0c0.1-6.2,0-12.4,0.1-18.5c1.7-3.2,5.2-4.9,7.7-7.5c1.8-1.9,3.3-3.9,4.6-6.1
			c3-5.3,4.8-11,5.4-17c0.7-6.6-1.9-28.3-4.9-27.6c-1.5,0.4-6.4,11.2-7.7,14.7c-2.1,5.9-3.6,11.9-4.6,18
			C419,364.5,419.2,379.4,420.4,394z"/>
		<path class="st10" d="M420.3,367.4L420.3,367.4c0.4-7.8,2.2-15.7,3.9-23.2c1.9-8.1,4-15.8,8.4-23.1c0.1-0.1,0.3,0,0.2,0.1
			c-2.9,5.6-5.2,11.6-6.8,17.7c0.3-0.4,0.7-0.9,0.9-1.3c0.1-0.2,0.4,0,0.3,0.2c-0.4,0.7-0.9,1.3-1.4,1.8h-0.1
			c-1.5,5.8-2.6,11.8-3.5,17.7c0.1-0.1,0.1-0.2,0.2-0.2c0,0,0.1,0,0.1,0.1c-0.1,0.2-0.2,0.4-0.4,0.6c-0.5,3-0.9,6-1.3,9
			c5.7-4.6,10.4-10,13.2-16.7c0,0,0.1,0,0.1,0c-2.7,6.9-6.9,13-13.3,17.2c-0.1,0.8-0.2,1.6-0.4,2.4c0,0.2-0.3,0.1-0.3,0
			c0-0.7,0-1.4,0.1-2.1C420.2,367.6,420.3,367.5,420.3,367.4C420.3,367.4,420.3,367.4,420.3,367.4z"/>
		<path class="st10" d="M423,356.1c4.3-6.1,8.3-12.1,11.5-18.8c0,0,0.1-0.1,0.1,0c0,0,0.1,0.1,0,0.1l0,0
			c-2.7,6.7-6.4,13.5-11.4,18.9C423.1,356.4,422.9,356.3,423,356.1z"/>
		<path class="st10" d="M428.7,335.8c1.8-3,3.7-5.9,5.3-9c0-0.1,0.2,0,0.1,0.1c-1.4,3.2-3.1,6.3-5.2,9.1
			C428.9,336.1,428.6,336,428.7,335.8z"/>
		<path class="st10" d="M428,337.1"/>
		<path class="st5" d="M416,376.2c-0.1,4.1-0.6,8.1-1.5,12.1l0.2,1.3c1.3-4.4,2.1-8.9,2.3-13.5c0.1-0.1,0.1-0.3,0-0.4l0,0
			c0.2-6.1-0.3-12.3-1.4-18.3c-2-11.3-6.4-22.2-14.7-30.6c-0.2-0.2-0.6-0.2-0.8,0c0,0-0.1,0.1-0.1,0.2c-3.3,8.1-2.2,17.8,0.7,25.8
			c1.5,4.4,3.8,8.5,6.6,12.3C410.1,368.8,413.7,372,416,376.2z"/>
		<path class="st10" d="M401.9,330.5c7.9,12.1,13.3,26.5,14,40.9c0,0.3-0.4,0.3-0.5,0.1c-0.2-1.3-0.4-2.6-0.6-3.8l0,0
			c-3.3-3-6.6-6.1-8.9-9.8c0-0.1,0.1-0.1,0.1-0.1c2.7,3.2,5.6,6.2,8.7,9c-0.6-3.2-1.2-6.3-2-9.4l-0.6-0.7c-0.1-0.2,0.1-0.4,0.2-0.2
			l0.2,0.2c-1.1-4.2-2.5-8.4-4.1-12.4c-2-2.3-4.2-4.2-5.7-7c0-0.1,0.1-0.1,0.1-0.1c1.2,1.6,2.3,3.1,3.6,4.6c0.5,0.6,1.1,1.1,1.7,1.7
			c-1.8-4.4-4-8.7-6.4-12.8c0-0.1,0-0.2,0.1-0.2C401.8,330.4,401.8,330.5,401.9,330.5z"/>
		<path class="st10" d="M403.5,345.5c2.5,3.3,5.4,6.4,7.8,9.7c0.1,0.1-0.1,0.2-0.2,0.1c-3-2.7-5.6-6.4-7.8-9.7
			C403.2,345.5,403.4,345.4,403.5,345.5z"/>
		<path class="st10" d="M411.6,355.9l0.1,0.1c0.1,0.1,0,0.2-0.1,0.1l-0.1-0.1C411.4,356,411.5,355.9,411.6,355.9z"/>
		<path class="st5" d="M389.6,353.8c0.9,6.8,3.8,13.2,8.3,18.5c1.9,2.1,4.1,3.8,6.7,5c2.9,1.4,6,2.9,9,4.1c1.4,3.5,2.5,7.1,3.2,10.7
			c0.1-0.3,0.2-0.6,0.3-1c-1.9-15.8-12.7-29.3-26.4-38c-0.3-0.2-0.7-0.1-0.9,0.2C389.6,353.5,389.5,353.7,389.6,353.8z"/>
		<path class="st10" d="M394.3,358.5c-0.1-0.1,0-0.2,0.1-0.2c7.6,5.3,13.6,12.4,17.5,20.6c0.1,0.2-0.2,0.4-0.3,0.2
			c-0.6-1.1-1.3-2.1-1.9-3.1l0,0c-3.1-0.6-6.1-2.7-8.4-4.7c-0.1-0.1,0-0.1,0.1-0.1c1.2,1.1,2.5,2,4,2.7c1.3,0.6,2.7,1,4,1.5
			c-1.2-1.8-2.4-3.4-3.6-5.1c-3.4-1.2-6.6-2.9-9.5-5c0,0-0.1-0.1,0-0.1c0,0,0.1-0.1,0.1,0l0,0c2.8,1.6,5.8,3.1,8.8,4.5
			c-1.9-2.4-4-4.7-6.2-6.9c-1.1-0.5-2.1-1.1-3.2-1.6c-0.1,0,0-0.2,0.1-0.2c0.9,0.3,1.7,0.7,2.4,1.1
			C397,360.8,395.7,359.7,394.3,358.5z"/>
		<path class="st10" d="M394.6,364c0.2,0.1,0.4,0.2,0.5,0.4c0,0,0,0.1-0.1,0.1c-0.2-0.1-0.4-0.2-0.5-0.3
			C394.4,364.1,394.5,363.9,394.6,364z"/>
		<polygon class="st13" points="438.5,426.4 400.8,426.4 403.8,393.8 404.5,386.6 434.8,386.6 435.4,393.8 		"/>
		<polygon class="st10" points="435.4,393.8 403.8,393.8 404.5,386.6 434.8,386.6 		"/>
		<rect x="402.7" y="381.5" class="st13" width="33.9" height="7.1"/>
	</g>
</g>
</svg>
