<?xml version="1.0" encoding="utf-8"?>
<!-- Generator: Adobe Illustrator 24.3.0, SVG Export Plug-In . SVG Version: 6.00 Build 0)  -->
<svg version="1.1" id="Layer_1" xmlns:svgjs="http://svgjs.com/svgjs"
	 xmlns="http://www.w3.org/2000/svg" xmlns:xlink="http://www.w3.org/1999/xlink" x="0px" y="0px" viewBox="0 0 1728 2160"
	 style="enable-background:new 0 0 1728 2160;" xml:space="preserve">
<style type="text/css">
	.st0{fill:url(#SVGID_1_);}
	.st1{opacity:0.63;}
	.st2{fill:#FFA800;}
	.st3{fill:#FFA800;stroke:#FFA800;stroke-width:18;stroke-miterlimit:10;}
	.st4{opacity:0.99;}
	.st5{fill:#FFF800;}
	.st6{fill:#F9FF00;}
	.st7{fill:none;}
	.st8{fill:url(#SVGID_2_);}
	.st9{opacity:0.56;}
	.st10{fill:#EFEB61;}
	.st11{fill:#F1E912;}
	.st12{fill:#FFFFFF;}
	.st13{fill:#231F20;}
	.st14{fill:#2A719B;}
	.st15{fill:#FF7EB8;}
	.st16{fill:url(#SVGID_3_);}
	.st17{opacity:0.7;}
	.st18{fill:#77848C;}
	.st19{fill:#A0A0A0;}
	.st20{fill:#B1B1B1;}
	.st21{fill:#787878;}
	.st22{fill:#596369;}
	.st23{fill:#1DE9B6;}
	.st24{fill:#686868;}
	.st25{fill:#4F565A;}
	.st26{fill:#586267;}
	.st27{fill:#FFFA52;}
	.st28{fill:#A2ADB3;}
	.st29{fill:#333333;}
	.st30{fill:url(#SVGID_4_);}
	.st31{fill:#FFA800;stroke:#FFA800;stroke-width:8.1507;stroke-miterlimit:10;}
	.st32{fill:#FFA800;stroke:#FFA800;stroke-width:4.5282;stroke-miterlimit:10;}
	.st33{fill:#FFA800;stroke:#FFA800;stroke-width:1.8113;stroke-miterlimit:10;}
	.st34{fill:#F9FF00;stroke:#000000;stroke-width:16.4838;stroke-miterlimit:10;}
	.st35{fill:#FFA800;stroke:#000000;stroke-width:16.4838;stroke-miterlimit:10;}
	.st36{stroke:#000000;stroke-width:16.4838;stroke-miterlimit:10;}
	.st37{fill:#444444;stroke:#000000;stroke-width:16.4838;stroke-miterlimit:10;}
	.st38{fill:#3F3F51;stroke:#000000;stroke-width:16.4838;stroke-miterlimit:10;}
	.st39{fill:url(#SVGID_5_);}
	.st40{opacity:0.23;fill:#FFD100;stroke:#FFA800;stroke-miterlimit:10;enable-background:new    ;}
	.st41{fill:#FFA800;stroke:#FFA800;stroke-width:8.3823;stroke-miterlimit:10;}
	.st42{fill:#FFB531;stroke:#FFA800;stroke-miterlimit:10;}
	.st43{fill:#FFA800;stroke:#FFA800;stroke-miterlimit:10;}
	.st44{fill:#FFE100;stroke:#FFA800;stroke-miterlimit:10;}
	.st45{fill:#D2DEFF;stroke:#FFA800;stroke-width:8.3823;stroke-miterlimit:10;}
	.st46{fill:#97FFD2;stroke:#FFA800;stroke-width:8.3823;stroke-miterlimit:10;}
	.st47{fill:#FFFFFF;stroke:#FFA800;stroke-width:8.3823;stroke-miterlimit:10;}
	.st48{opacity:0.99;fill:#FFB531;stroke:#FFA800;stroke-miterlimit:10;}
	.st49{fill:#FFA800;stroke:#FFA800;stroke-width:12;stroke-miterlimit:10;}
	.st50{opacity:0.23;fill:#FFD100;enable-background:new    ;}
	.st51{fill:#FFF800;stroke:#000000;stroke-width:8.3823;stroke-miterlimit:10;}
	.st52{fill:#FFE100;stroke:#000000;stroke-width:8.3823;stroke-miterlimit:10;}
	.st53{fill:#FFA800;stroke:#000000;stroke-width:8.3823;stroke-miterlimit:10;}
	.st54{fill:#6583FE;stroke:#000000;stroke-width:8.3823;stroke-miterlimit:10;}
	.st55{fill:#FFE100;}
	.st56{fill:#FFB531;}
	.st57{fill:#D2DEFF;stroke:#000000;stroke-width:8.3823;stroke-miterlimit:10;}
	.st58{fill:#97FFD2;stroke:#000000;stroke-width:8.3823;stroke-miterlimit:10;}
	.st59{fill:#FFFFFF;stroke:#000000;stroke-width:8.3823;stroke-miterlimit:10;}
	.st60{fill:#FFFFFF;stroke:#231F20;stroke-width:8.3823;stroke-miterlimit:10;}
	.st61{opacity:0.99;fill:#FFFB5C;}
	.st62{fill:#FFFF03;stroke:#000000;stroke-width:8.3823;stroke-miterlimit:10;}
	.st63{fill:#231F20;stroke:#231F20;stroke-width:0.9314;stroke-miterlimit:10;}
	.st64{fill:#FFE100;stroke:#231F20;stroke-width:8.3823;stroke-miterlimit:10;}
	.st65{fill:url(#SVGID_6_);}
	.st66{fill:#338DBF;}
	.st67{fill:#5CA4CC;}
	.st68{fill:#BEBEBE;}
	.st69{fill:#70D6B1;}
	.st70{fill:#00B378;}
	.st71{fill:#BDBA14;}
	.st72{fill:#EFEF26;}
</style>
<g>
	
		<linearGradient id="SVGID_1_" gradientUnits="userSpaceOnUse" x1="107.2159" y1="863.8187" x2="1519.8817" y2="1679.4232" gradientTransform="matrix(1 0 0 -1 0 2162)">
		<stop  offset="0" style="stop-color:#F9FF00;stop-opacity:0.1"/>
		<stop  offset="0.459" style="stop-color:#F7EC13;stop-opacity:0.67"/>
		<stop  offset="0.7656" style="stop-color:#F9FF00"/>
	</linearGradient>
	<path class="st0" d="M1434.8,447.9c-108.1-50.4-348.3-144.5-650.5-114.4c-52.8,5.3-492.3,49.1-611.6,283.7
		c-13.6,26.7-40.2,77.5-32.6,142.2c15.4,132.1,151.7,152.2,185.3,262.3c48.4,158.6-193.5,251.9-141.9,390.4
		c47.4,127.3,294,162.6,343,169.6c51.9,7.4,332.8,49.8,423.4-81.8c63-91.4-16.3-193.5,65.6-277.8c24.6-25.3,70.4-39.7,161-67.5
		c186-57,211.3-34.2,288.3-77.3c22.9-12.8,136-79.3,172.4-211.2c26.3-95.2-1.1-174.6-10.8-201.3
		C1584.4,548.6,1497.5,477.1,1434.8,447.9z"/>
</g>
<g id="_x33_2_Hosting_1_" class="st1">
	<g>
		<path class="st2" d="M762.3,393.3c17.4,0,34.4,1.4,50.9,4.3c-136,22.8-239.3,136.2-239.3,272.9c0,28.7,4.7,56.3,13,82.5
			c-83.6,3.2-150.1,69.2-150.1,149.7c0,82.7,70.1,150,156.9,150H492.1c-86.7,0-156.9-67.3-156.9-150c0-80.4,66.5-146.4,150.2-149.7
			c-8.5-26.1-13.2-53.7-13.2-82.5C472.3,517.2,602.1,393.3,762.3,393.3L762.3,393.3z"/>
		<g>
			<path class="st2" d="M1150.7,856.9v100c0,16.2-13.7,29.3-30.6,29.3H583.5c-16.9,0-30.6-13.1-30.6-29.3v-100
				c0-16.2,13.7-29.3,30.6-29.3h536.6C1137,827.6,1150.7,840.7,1150.7,856.9L1150.7,856.9z"/>
			<path class="st2" d="M1150.7,1064.2v100c0,16.2-13.7,29.3-30.6,29.3H583.5c-16.9,0-30.6-13.1-30.6-29.3v-100
				c0-16.2,13.7-29.3,30.6-29.3h536.6C1137,1035,1150.7,1048.1,1150.7,1064.2z"/>
			<path class="st2" d="M1150.7,1271.6v100c0,16.2-13.7,29.3-30.6,29.3H583.5c-16.9,0-30.6-13.1-30.6-29.3v-100
				c0-16.2,13.7-29.3,30.6-29.3h536.6C1137,1242.4,1150.7,1255.5,1150.7,1271.6z"/>
		</g>
		<path class="st2" d="M1024.9,883.9h55.1v45.8h-55.1V883.9z"/>
		<path class="st2" d="M1024.9,1091.3h55.1v45.8h-55.1V1091.3z"/>
		<path class="st2" d="M1024.9,1298.7h55.1v45.8h-55.1V1298.7z"/>
		<g>
			<path class="st3" d="M1221.3,743.5c5.3-83.3-81.7-141-160-110.2c-19.1-141.9-147.3-250.8-299-250.8
				c-166.2,0-301.4,129.2-301.4,288c0,24.5,3.3,49,9.8,72.8c-83.4,9.9-146.8,77.5-146.8,159.4c0,88.7,75.5,160.8,168.2,160.8h16.6
				c6.3,0,11.3-4.9,11.3-10.8s-5.1-10.8-11.3-10.8h-16.6c-80.2,0-145.5-62.4-145.5-139.1c0-74.8,61.2-135.8,139.3-138.8
				c7.5-0.3,12.6-7.3,10.4-14c-8.4-25.8-12.6-52.4-12.6-79.2c0-146.9,125-266.4,278.7-266.4c145.5,0,267.6,108.3,278,246.7
				c0.6,8.1,9.9,12.7,17.2,8.5c69.7-40.1,156.9,20.1,139.4,95.3c-1.8,7.8,5.6,14.8,13.7,12.9c92.6-21.3,179.5,46.3,179.5,135.1
				c0,76.7-65.2,139.1-145.3,139.1h-49.7c-6.3,0-11.3,4.9-11.3,10.8s5.1,10.8,11.3,10.8h49.7c92.6,0,168-72.1,168-160.8
				C1412.7,805.3,1322.5,729.7,1221.3,743.5L1221.3,743.5z"/>
			<path class="st2" d="M1120.1,816.8H583.5c-23.1,0-42,18-42,40.1v100c0,22.1,18.8,40.1,42,40.1h28.7v27.3h-28.7
				c-23.1,0-42,18-42,40.1v100c0,22.1,18.8,40.1,42,40.1h28.7v27.3h-28.7c-23.1,0-42,18-42,40.1v100c0,22.1,18.8,40.1,42,40.1h536.6
				c23.1,0,42-18,42-40.1v-100c0-22.1-18.8-40.1-42-40.1h-28.7v-27.3h28.7c23.1,0,42-18,42-40.1v-100c0-22.1-18.8-40.1-42-40.1
				h-28.7v-27.3h28.7c23.1,0,42-18,42-40.1v-100C1162.1,834.8,1143.2,816.8,1120.1,816.8L1120.1,816.8z M1139.4,1271.6v100
				c0,10.2-8.6,18.4-19.3,18.4H583.5c-10.6,0-19.3-8.3-19.3-18.4v-100c0-10.2,8.6-18.4,19.3-18.4h536.6
				C1130.7,1253.2,1139.4,1261.5,1139.4,1271.6z M1068.7,1231.5H634.9v-27.3h433.9V1231.5z M1139.4,1064.2v100
				c0,10.2-8.6,18.4-19.3,18.4c-112.7,0-423.9,0-536.6,0c-10.6,0-19.3-8.3-19.3-18.4v-100c0-10.2,8.6-18.4,19.3-18.4h536.6
				C1130.7,1045.8,1139.4,1054.1,1139.4,1064.2z M1068.7,1024.2H634.9v-27.3h433.9V1024.2z M1139.4,956.8c0,10.1-8.6,18.4-19.3,18.4
				c-112.6,0-424,0-536.6,0c-10.6,0-19.3-8.3-19.3-18.4v-100c0-10.2,8.6-18.4,19.3-18.4h536.6c10.6,0,19.3,8.3,19.3,18.4V956.8z"/>
			<path class="st2" d="M629.7,896h-6.1c-6.3,0-11.3,4.9-11.3,10.8c0,6,5.1,10.8,11.3,10.8h6.1c6.3,0,11.3-4.9,11.3-10.8
				C641.1,900.8,636,896,629.7,896L629.7,896z"/>
			<path class="st2" d="M672.9,896h-6.1c-6.3,0-11.3,4.9-11.3,10.8c0,6,5.1,10.8,11.3,10.8h6.1c6.3,0,11.3-4.9,11.3-10.8
				C684.2,900.8,679.2,896,672.9,896L672.9,896z"/>
			<path class="st2" d="M716.1,896H710c-6.3,0-11.3,4.9-11.3,10.8c0,6,5.1,10.8,11.3,10.8h6.1c6.3,0,11.3-4.9,11.3-10.8
				C727.4,900.8,722.3,896,716.1,896L716.1,896z"/>
			<path class="st2" d="M804.8,873.1c-6.3,0-11.3,4.9-11.3,10.8v45.8c0,6,5.1,10.8,11.3,10.8s11.3-4.9,11.3-10.8v-45.8
				C816.1,878,811,873.1,804.8,873.1L804.8,873.1z"/>
			<path class="st2" d="M859.8,873.1c-6.3,0-11.3,4.9-11.3,10.8v45.8c0,6,5.1,10.8,11.3,10.8s11.3-4.9,11.3-10.8v-45.8
				C871.2,878,866.1,873.1,859.8,873.1L859.8,873.1z"/>
			<path class="st2" d="M914.9,873.1c-6.3,0-11.3,4.9-11.3,10.8v45.8c0,6,5.1,10.8,11.3,10.8c6.3,0,11.3-4.9,11.3-10.8v-45.8
				C926.2,878,921.1,873.1,914.9,873.1L914.9,873.1z"/>
			<path class="st2" d="M969.9,873.1c-6.3,0-11.3,4.9-11.3,10.8v45.8c0,6,5.1,10.8,11.3,10.8c6.3,0,11.3-4.9,11.3-10.8v-45.8
				C981.3,878,976.2,873.1,969.9,873.1L969.9,873.1z"/>
			<path class="st2" d="M1080.1,873.1h-55.1c-6.3,0-11.3,4.9-11.3,10.8v45.8c0,6,5.1,10.8,11.3,10.8h55.1c6.3,0,11.3-4.9,11.3-10.8
				v-45.8C1091.4,878,1086.3,873.1,1080.1,873.1L1080.1,873.1z M1068.7,918.9h-32.4v-24.1h32.4V918.9z"/>
			<path class="st2" d="M629.7,1103.4h-6.1c-6.3,0-11.3,4.9-11.3,10.8c0,6,5.1,10.8,11.3,10.8h6.1c6.3,0,11.3-4.9,11.3-10.8
				S636,1103.4,629.7,1103.4L629.7,1103.4z"/>
			<path class="st2" d="M672.9,1103.4h-6.1c-6.3,0-11.3,4.9-11.3,10.8c0,6,5.1,10.8,11.3,10.8h6.1c6.3,0,11.3-4.9,11.3-10.8
				S679.2,1103.4,672.9,1103.4L672.9,1103.4z"/>
			<path class="st2" d="M716.1,1103.4H710c-6.3,0-11.3,4.9-11.3,10.8c0,6,5.1,10.8,11.3,10.8h6.1c6.3,0,11.3-4.9,11.3-10.8
				S722.3,1103.4,716.1,1103.4L716.1,1103.4z"/>
			<path class="st2" d="M804.8,1080.5c-6.3,0-11.3,4.9-11.3,10.8v45.8c0,6,5.1,10.8,11.3,10.8s11.3-4.9,11.3-10.8v-45.8
				C816.1,1085.3,811,1080.5,804.8,1080.5z"/>
			<path class="st2" d="M859.8,1080.5c-6.3,0-11.3,4.9-11.3,10.8v45.8c0,6,5.1,10.8,11.3,10.8s11.3-4.9,11.3-10.8v-45.8
				C871.2,1085.3,866.1,1080.5,859.8,1080.5z"/>
			<path class="st2" d="M914.9,1080.5c-6.3,0-11.3,4.9-11.3,10.8v45.8c0,6,5.1,10.8,11.3,10.8c6.3,0,11.3-4.9,11.3-10.8v-45.8
				C926.2,1085.3,921.1,1080.5,914.9,1080.5z"/>
			<path class="st2" d="M969.9,1080.5c-6.3,0-11.3,4.9-11.3,10.8v45.8c0,6,5.1,10.8,11.3,10.8c6.3,0,11.3-4.9,11.3-10.8v-45.8
				C981.3,1085.3,976.2,1080.5,969.9,1080.5z"/>
			<path class="st2" d="M1024.9,1080.5c-6.3,0-11.3,4.9-11.3,10.8v45.8c0,6,5.1,10.8,11.3,10.8h55.1c6.3,0,11.3-4.9,11.3-10.8v-45.8
				c0-6-5.1-10.8-11.3-10.8H1024.9z M1068.7,1126.2h-32.4v-24.1h32.4V1126.2z"/>
			<path class="st2" d="M629.7,1310.8h-6.1c-6.3,0-11.3,4.9-11.3,10.8s5.1,10.8,11.3,10.8h6.1c6.3,0,11.3-4.9,11.3-10.8
				S636,1310.8,629.7,1310.8z"/>
			<path class="st2" d="M672.9,1310.8h-6.1c-6.3,0-11.3,4.9-11.3,10.8s5.1,10.8,11.3,10.8h6.1c6.3,0,11.3-4.9,11.3-10.8
				S679.2,1310.8,672.9,1310.8z"/>
			<path class="st2" d="M716.1,1310.8H710c-6.3,0-11.3,4.9-11.3,10.8s5.1,10.8,11.3,10.8h6.1c6.3,0,11.3-4.9,11.3-10.8
				S722.3,1310.8,716.1,1310.8z"/>
			<path class="st2" d="M804.8,1287.9c-6.3,0-11.3,4.9-11.3,10.8v45.8c0,6,5.1,10.8,11.3,10.8s11.3-4.9,11.3-10.8v-45.8
				C816.1,1292.7,811,1287.9,804.8,1287.9L804.8,1287.9z"/>
			<path class="st2" d="M859.8,1287.9c-6.3,0-11.3,4.9-11.3,10.8v45.8c0,6,5.1,10.8,11.3,10.8s11.3-4.9,11.3-10.8v-45.8
				C871.2,1292.7,866.1,1287.9,859.8,1287.9L859.8,1287.9z"/>
			<path class="st2" d="M914.9,1287.9c-6.3,0-11.3,4.9-11.3,10.8v45.8c0,6,5.1,10.8,11.3,10.8c6.3,0,11.3-4.9,11.3-10.8v-45.8
				C926.2,1292.7,921.1,1287.9,914.9,1287.9L914.9,1287.9z"/>
			<path class="st2" d="M969.9,1287.9c-6.3,0-11.3,4.9-11.3,10.8v45.8c0,6,5.1,10.8,11.3,10.8c6.3,0,11.3-4.9,11.3-10.8v-45.8
				C981.3,1292.7,976.2,1287.9,969.9,1287.9L969.9,1287.9z"/>
			<path class="st2" d="M1024.9,1287.9c-6.3,0-11.3,4.9-11.3,10.8v45.8c0,6,5.1,10.8,11.3,10.8h55.1c6.3,0,11.3-4.9,11.3-10.8v-45.8
				c0-6-5.1-10.8-11.3-10.8H1024.9z M1068.7,1333.6h-32.4v-24.1h32.4V1333.6z"/>
			<path class="st2" d="M802.6,777.7c6.3,0,11.3-4.9,11.3-10.8v-92.2l15.6,16.2c4.2,4.4,11.4,4.7,16,0.6c4.6-4.1,4.9-10.9,0.7-15.3
				L811,639.6c-4.2-4.3-11.8-5-16.7,0c0,0,0,0,0,0L759,676.1c-4.3,4.4-4,11.2,0.6,15.3c4.6,4.1,11.8,3.8,16-0.6l15.6-16.1v92.1
				C791.3,772.9,796.3,777.7,802.6,777.7z"/>
			<path class="st2" d="M901,636.2c-6.3,0-11.3,4.9-11.3,10.8v92.2l-15.6-16.2c-4.2-4.4-11.4-4.7-16-0.6c-4.6,4.1-4.9,10.9-0.7,15.3
				l35.2,36.5c4.2,4.4,11.9,4.9,16.6,0c0,0,0,0,0,0l35.3-36.5c4.3-4.4,4-11.2-0.6-15.3c-4.6-4.1-11.8-3.8-16,0.6l-15.6,16.1V647
				C912.4,641,907.3,636.2,901,636.2L901,636.2z"/>
		</g>
	</g>
</g>
<g id="_x33_2_Hosting_2_" class="st4">
	<g>
		<path class="st5" d="M789.6,380.5c16.6,0,32.8,1.4,48.6,4.2C708.4,407,609.8,518,609.8,651.6c0,28.1,4.4,55.1,12.4,80.6
			c-79.8,3.2-143.2,67.7-143.2,146.3c0,80.8,66.9,146.6,149.7,146.6h-97c-82.7,0-149.7-65.8-149.7-146.6
			c0-78.6,63.4-143.1,143.3-146.3c-8.1-25.5-12.6-52.6-12.6-80.6C512.9,501.8,636.8,380.5,789.6,380.5L789.6,380.5z"/>
		<g>
			<path class="st6" d="M1160.2,833.8v97.7c0,15.8-13.1,28.6-29.2,28.6H619c-16.1,0-29.2-12.8-29.2-28.6v-97.7
				c0-15.8,13.1-28.6,29.2-28.6h512C1147.1,805.2,1160.2,818,1160.2,833.8L1160.2,833.8z"/>
			<path class="st6" d="M1160.2,1036.6v97.7c0,15.8-13.1,28.6-29.2,28.6H619c-16.1,0-29.2-12.8-29.2-28.6v-97.7
				c0-15.8,13.1-28.6,29.2-28.6h512C1147.1,1008,1160.2,1020.8,1160.2,1036.6z"/>
			<path class="st6" d="M1160.2,1239.3v97.7c0,15.8-13.1,28.6-29.2,28.6H619c-16.1,0-29.2-12.8-29.2-28.6v-97.7
				c0-15.8,13.1-28.6,29.2-28.6h512C1147.1,1210.7,1160.2,1223.5,1160.2,1239.3z"/>
		</g>
		<path class="st2" d="M1040.2,860.3h52.6V905h-52.6V860.3z"/>
		<path class="st2" d="M1040.2,1063.1h52.6v44.7h-52.6V1063.1z"/>
		<path class="st2" d="M1040.2,1265.8h52.6v44.7h-52.6V1265.8z"/>
		<g>
			<path d="M1227.5,723c5.1-81.5-78-137.9-152.7-107.8c-18.2-138.7-140.5-245.3-285.3-245.3C631,369.9,502,496.3,502,651.6
				c0,24,3.1,47.9,9.4,71.1c-79.6,9.7-140.1,75.8-140.1,155.8c0,86.7,72,157.2,160.5,157.2h15.8c6,0,10.8-4.7,10.8-10.6
				c0-5.9-4.8-10.6-10.8-10.6h-15.8c-76.6,0-138.8-61-138.8-136c0-73.1,58.4-132.8,132.9-135.7c7.1-0.3,12-7.1,9.9-13.7
				c-8-25.2-12.1-51.3-12.1-77.5c0-143.6,119.3-260.4,265.9-260.4c138.8,0,255.4,105.9,265.3,241.2c0.6,7.9,9.5,12.4,16.4,8.3
				c66.5-39.2,149.7,19.7,133,93.2c-1.7,7.7,5.3,14.4,13.1,12.6c88.3-20.8,171.3,45.2,171.3,132.1c0,75-62.2,136-138.6,136h-47.4
				c-6,0-10.8,4.7-10.8,10.6c0,5.9,4.8,10.6,10.8,10.6h47.4c88.4,0,160.3-70.5,160.3-157.2C1410.2,783.4,1324.1,709.5,1227.5,723
				L1227.5,723z"/>
			<path d="M1131,794.6H619c-22.1,0-40,17.6-40,39.2v97.7c0,21.6,18,39.2,40,39.2h27.4v26.6H619c-22.1,0-40,17.6-40,39.2v97.7
				c0,21.6,18,39.2,40,39.2h27.4v26.6H619c-22.1,0-40,17.6-40,39.2v97.7c0,21.6,18,39.2,40,39.2h512c22.1,0,40-17.6,40-39.2v-97.7
				c0-21.6-18-39.2-40-39.2h-27.4v-26.6h27.4c22.1,0,40-17.6,40-39.2v-97.7c0-21.6-18-39.2-40-39.2h-27.4v-26.6h27.4
				c22.1,0,40-17.6,40-39.2v-97.7C1171,812.2,1153.1,794.6,1131,794.6L1131,794.6z M1149.4,1239.3v97.7c0,9.9-8.2,18-18.4,18H619
				c-10.1,0-18.4-8.1-18.4-18v-97.7c0-9.9,8.2-18,18.4-18h512C1141.1,1221.3,1149.4,1229.4,1149.4,1239.3z M1082,1200.1H668v-26.6
				h414V1200.1z M1149.4,1036.6v97.7c0,9.9-8.2,18-18.4,18c-107.5,0-404.5,0-512,0c-10.1,0-18.4-8.1-18.4-18v-97.7
				c0-9.9,8.2-18,18.4-18h512C1141.1,1018.6,1149.4,1026.6,1149.4,1036.6z M1082,997.4H668v-26.6h414V997.4z M1149.4,931.5
				c0,9.9-8.2,18-18.4,18c-107.5,0-404.5,0-512,0c-10.1,0-18.4-8.1-18.4-18v-97.7c0-9.9,8.2-18,18.4-18h512c10.1,0,18.4,8.1,18.4,18
				V931.5z"/>
			<path d="M663.1,872.1h-5.8c-6,0-10.8,4.7-10.8,10.6c0,5.9,4.8,10.6,10.8,10.6h5.8c6,0,10.8-4.7,10.8-10.6
				C673.9,876.8,669.1,872.1,663.1,872.1L663.1,872.1z"/>
			<path d="M704.3,872.1h-5.8c-6,0-10.8,4.7-10.8,10.6c0,5.9,4.8,10.6,10.8,10.6h5.8c6,0,10.8-4.7,10.8-10.6
				C715.1,876.8,710.3,872.1,704.3,872.1L704.3,872.1z"/>
			<path d="M745.5,872.1h-5.8c-6,0-10.8,4.7-10.8,10.6c0,5.9,4.8,10.6,10.8,10.6h5.8c6,0,10.8-4.7,10.8-10.6
				C756.3,876.8,751.5,872.1,745.5,872.1L745.5,872.1z"/>
			<path d="M830.1,849.7c-6,0-10.8,4.7-10.8,10.6v44.8c0,5.9,4.8,10.6,10.8,10.6s10.8-4.7,10.8-10.6v-44.8
				C841,854.4,836.1,849.7,830.1,849.7L830.1,849.7z"/>
			<path d="M882.7,849.7c-6,0-10.8,4.7-10.8,10.6v44.8c0,5.9,4.8,10.6,10.8,10.6s10.8-4.7,10.8-10.6v-44.8
				C893.5,854.4,888.6,849.7,882.7,849.7L882.7,849.7z"/>
			<path d="M935.2,849.7c-6,0-10.8,4.7-10.8,10.6v44.8c0,5.9,4.8,10.6,10.8,10.6c6,0,10.8-4.7,10.8-10.6v-44.8
				C946,854.4,941.2,849.7,935.2,849.7L935.2,849.7z"/>
			<path d="M987.7,849.7c-6,0-10.8,4.7-10.8,10.6v44.8c0,5.9,4.8,10.6,10.8,10.6c6,0,10.8-4.7,10.8-10.6v-44.8
				C998.5,854.4,993.7,849.7,987.7,849.7L987.7,849.7z"/>
			<path d="M1092.8,849.7h-52.6c-6,0-10.8,4.7-10.8,10.6V905c0,5.9,4.8,10.6,10.8,10.6h52.6c6,0,10.8-4.7,10.8-10.6v-44.7
				C1103.6,854.4,1098.8,849.7,1092.8,849.7L1092.8,849.7z M1082,894.4h-31v-23.6h31V894.4z"/>
			<path d="M663.1,1074.8h-5.8c-6,0-10.8,4.7-10.8,10.6s4.8,10.6,10.8,10.6h5.8c6,0,10.8-4.7,10.8-10.6
				C673.9,1079.6,669.1,1074.8,663.1,1074.8L663.1,1074.8z"/>
			<path d="M704.3,1074.8h-5.8c-6,0-10.8,4.7-10.8,10.6s4.8,10.6,10.8,10.6h5.8c6,0,10.8-4.7,10.8-10.6
				C715.1,1079.6,710.3,1074.8,704.3,1074.8L704.3,1074.8z"/>
			<path d="M745.5,1074.8h-5.8c-6,0-10.8,4.7-10.8,10.6s4.8,10.6,10.8,10.6h5.8c6,0,10.8-4.7,10.8-10.6
				C756.3,1079.6,751.5,1074.8,745.5,1074.8L745.5,1074.8z"/>
			<path d="M830.1,1052.5c-6,0-10.8,4.7-10.8,10.6v44.8c0,5.9,4.8,10.6,10.8,10.6s10.8-4.7,10.8-10.6v-44.8
				C841,1057.2,836.1,1052.5,830.1,1052.5z"/>
			<path d="M882.7,1052.5c-6,0-10.8,4.7-10.8,10.6v44.8c0,5.9,4.8,10.6,10.8,10.6s10.8-4.7,10.8-10.6v-44.8
				C893.5,1057.2,888.6,1052.5,882.7,1052.5z"/>
			<path d="M935.2,1052.5c-6,0-10.8,4.7-10.8,10.6v44.8c0,5.9,4.8,10.6,10.8,10.6c6,0,10.8-4.7,10.8-10.6v-44.8
				C946,1057.2,941.2,1052.5,935.2,1052.5z"/>
			<path d="M987.7,1052.5c-6,0-10.8,4.7-10.8,10.6v44.8c0,5.9,4.8,10.6,10.8,10.6c6,0,10.8-4.7,10.8-10.6v-44.8
				C998.5,1057.2,993.7,1052.5,987.7,1052.5z"/>
			<path d="M1040.2,1052.5c-6,0-10.8,4.7-10.8,10.6v44.7c0,5.9,4.8,10.6,10.8,10.6h52.6c6,0,10.8-4.7,10.8-10.6v-44.7
				c0-5.9-4.8-10.6-10.8-10.6H1040.2z M1082,1097.2h-31v-23.5h31V1097.2z"/>
			<path d="M663.1,1277.6h-5.8c-6,0-10.8,4.7-10.8,10.6c0,5.9,4.8,10.6,10.8,10.6h5.8c6,0,10.8-4.7,10.8-10.6
				C673.9,1282.3,669.1,1277.6,663.1,1277.6z"/>
			<path d="M704.3,1277.6h-5.8c-6,0-10.8,4.7-10.8,10.6c0,5.9,4.8,10.6,10.8,10.6h5.8c6,0,10.8-4.7,10.8-10.6
				C715.1,1282.3,710.3,1277.6,704.3,1277.6z"/>
			<path d="M745.5,1277.6h-5.8c-6,0-10.8,4.7-10.8,10.6c0,5.9,4.8,10.6,10.8,10.6h5.8c6,0,10.8-4.7,10.8-10.6
				C756.3,1282.3,751.5,1277.6,745.5,1277.6z"/>
			<path d="M830.1,1255.2c-6,0-10.8,4.7-10.8,10.6v44.8c0,5.9,4.8,10.6,10.8,10.6s10.8-4.7,10.8-10.6v-44.8
				C841,1260,836.1,1255.2,830.1,1255.2L830.1,1255.2z"/>
			<path d="M882.7,1255.2c-6,0-10.8,4.7-10.8,10.6v44.8c0,5.9,4.8,10.6,10.8,10.6s10.8-4.7,10.8-10.6v-44.8
				C893.5,1260,888.6,1255.2,882.7,1255.2L882.7,1255.2z"/>
			<path d="M935.2,1255.2c-6,0-10.8,4.7-10.8,10.6v44.8c0,5.9,4.8,10.6,10.8,10.6c6,0,10.8-4.7,10.8-10.6v-44.8
				C946,1260,941.2,1255.2,935.2,1255.2L935.2,1255.2z"/>
			<path d="M987.7,1255.2c-6,0-10.8,4.7-10.8,10.6v44.8c0,5.9,4.8,10.6,10.8,10.6c6,0,10.8-4.7,10.8-10.6v-44.8
				C998.5,1260,993.7,1255.2,987.7,1255.2L987.7,1255.2z"/>
			<path d="M1040.2,1255.2c-6,0-10.8,4.7-10.8,10.6v44.7c0,5.9,4.8,10.6,10.8,10.6h52.6c6,0,10.8-4.7,10.8-10.6v-44.7
				c0-5.9-4.8-10.6-10.8-10.6H1040.2z M1082,1300h-31v-23.5h31V1300z"/>
			<path d="M828.1,756.4c6,0,10.8-4.7,10.8-10.6v-90.2l14.9,15.8c4.1,4.3,10.9,4.6,15.3,0.6c4.4-4,4.7-10.7,0.6-15l-33.6-35.7
				c-4-4.2-11.3-4.9-15.9,0c0,0,0,0,0,0l-33.7,35.7c-4.1,4.3-3.8,11,0.6,15c4.4,4,11.2,3.7,15.3-0.6l14.9-15.7v90.1
				C817.2,751.7,822.1,756.4,828.1,756.4z"/>
			<path d="M922,618c-6,0-10.8,4.7-10.8,10.6v90.2L896.3,703c-4.1-4.3-10.9-4.6-15.3-0.6c-4.4,4-4.7,10.7-0.6,15l33.6,35.7
				c4,4.3,11.3,4.8,15.9,0c0,0,0,0,0,0l33.7-35.7c4.1-4.3,3.8-11-0.6-15c-4.4-4-11.2-3.7-15.3,0.6l-14.9,15.7v-90.1
				C932.8,622.8,927.9,618,922,618L922,618z"/>
		</g>
	</g>
</g>
</svg>
