<?xml version="1.0" encoding="utf-8"?>
<!-- Generator: Adobe Illustrator 24.3.0, SVG Export Plug-In . SVG Version: 6.00 Build 0)  -->
<svg version="1.1" id="Layer_1" xmlns:svgjs="http://svgjs.com/svgjs"
	 xmlns="http://www.w3.org/2000/svg" xmlns:xlink="http://www.w3.org/1999/xlink" x="0px" y="0px" viewBox="0 0 1728 2160"
	 style="enable-background:new 0 0 1728 2160;" xml:space="preserve">
<style type="text/css">
	.st0{fill:url(#SVGID_1_);}
	.st1{opacity:0.63;}
	.st2{fill:#FFA800;}
	.st3{fill:#FFA800;stroke:#FFA800;stroke-width:18;stroke-miterlimit:10;}
	.st4{opacity:0.99;}
	.st5{fill:#FFF800;}
	.st6{fill:#F9FF00;}
	.st7{fill:none;}
	.st8{fill:url(#SVGID_2_);}
	.st9{opacity:0.56;}
	.st10{fill:#EFEB61;}
	.st11{fill:#F1E912;}
	.st12{fill:#FFFFFF;}
	.st13{fill:#231F20;}
	.st14{fill:#2A719B;}
	.st15{fill:#FF7EB8;}
	.st16{fill:url(#SVGID_3_);}
	.st17{opacity:0.7;}
	.st18{fill:#77848C;}
	.st19{fill:#A0A0A0;}
	.st20{fill:#B1B1B1;}
	.st21{fill:#787878;}
	.st22{fill:#596369;}
	.st23{fill:#1DE9B6;}
	.st24{fill:#686868;}
	.st25{fill:#4F565A;}
	.st26{fill:#586267;}
	.st27{fill:#FFFA52;}
	.st28{fill:#A2ADB3;}
	.st29{fill:#333333;}
	.st30{fill:url(#SVGID_4_);}
	.st31{fill:#FFA800;stroke:#FFA800;stroke-width:8.1507;stroke-miterlimit:10;}
	.st32{fill:#FFA800;stroke:#FFA800;stroke-width:4.5282;stroke-miterlimit:10;}
	.st33{fill:#FFA800;stroke:#FFA800;stroke-width:1.8113;stroke-miterlimit:10;}
	.st34{fill:#F9FF00;stroke:#000000;stroke-width:16.4838;stroke-miterlimit:10;}
	.st35{fill:#FFA800;stroke:#000000;stroke-width:16.4838;stroke-miterlimit:10;}
	.st36{stroke:#000000;stroke-width:16.4838;stroke-miterlimit:10;}
	.st37{fill:#444444;stroke:#000000;stroke-width:16.4838;stroke-miterlimit:10;}
	.st38{fill:#3F3F51;stroke:#000000;stroke-width:16.4838;stroke-miterlimit:10;}
	.st39{fill:url(#SVGID_5_);}
	.st40{opacity:0.23;fill:#FFD100;stroke:#FFA800;stroke-miterlimit:10;enable-background:new    ;}
	.st41{fill:#FFA800;stroke:#FFA800;stroke-width:8.3823;stroke-miterlimit:10;}
	.st42{fill:#FFB531;stroke:#FFA800;stroke-miterlimit:10;}
	.st43{fill:#FFA800;stroke:#FFA800;stroke-miterlimit:10;}
	.st44{fill:#FFE100;stroke:#FFA800;stroke-miterlimit:10;}
	.st45{fill:#D2DEFF;stroke:#FFA800;stroke-width:8.3823;stroke-miterlimit:10;}
	.st46{fill:#97FFD2;stroke:#FFA800;stroke-width:8.3823;stroke-miterlimit:10;}
	.st47{fill:#FFFFFF;stroke:#FFA800;stroke-width:8.3823;stroke-miterlimit:10;}
	.st48{opacity:0.99;fill:#FFB531;stroke:#FFA800;stroke-miterlimit:10;}
	.st49{fill:#FFA800;stroke:#FFA800;stroke-width:12;stroke-miterlimit:10;}
	.st50{opacity:0.23;fill:#FFD100;enable-background:new    ;}
	.st51{fill:#FFF800;stroke:#000000;stroke-width:8.3823;stroke-miterlimit:10;}
	.st52{fill:#FFE100;stroke:#000000;stroke-width:8.3823;stroke-miterlimit:10;}
	.st53{fill:#FFA800;stroke:#000000;stroke-width:8.3823;stroke-miterlimit:10;}
	.st54{fill:#6583FE;stroke:#000000;stroke-width:8.3823;stroke-miterlimit:10;}
	.st55{fill:#FFE100;}
	.st56{fill:#FFB531;}
	.st57{fill:#D2DEFF;stroke:#000000;stroke-width:8.3823;stroke-miterlimit:10;}
	.st58{fill:#97FFD2;stroke:#000000;stroke-width:8.3823;stroke-miterlimit:10;}
	.st59{fill:#FFFFFF;stroke:#000000;stroke-width:8.3823;stroke-miterlimit:10;}
	.st60{fill:#FFFFFF;stroke:#231F20;stroke-width:8.3823;stroke-miterlimit:10;}
	.st61{opacity:0.99;fill:#FFFB5C;}
	.st62{fill:#FFFF03;stroke:#000000;stroke-width:8.3823;stroke-miterlimit:10;}
	.st63{fill:#231F20;stroke:#231F20;stroke-width:0.9314;stroke-miterlimit:10;}
	.st64{fill:#FFE100;stroke:#231F20;stroke-width:8.3823;stroke-miterlimit:10;}
	.st65{fill:url(#SVGID_6_);}
	.st66{fill:#338DBF;}
	.st67{fill:#5CA4CC;}
	.st68{fill:#BEBEBE;}
	.st69{fill:#70D6B1;}
	.st70{fill:#00B378;}
	.st71{fill:#BDBA14;}
	.st72{fill:#EFEF26;}
</style>
<g>
	<rect x="-8" y="252.3" class="st7" width="1728" height="1487.3"/>
	
		<linearGradient id="SVGID_1_" gradientUnits="userSpaceOnUse" x1="57.458" y1="823.5855" x2="1523.0815" y2="1669.7653" gradientTransform="matrix(1 0 0 -1 0 2162)">
		<stop  offset="0" style="stop-color:#F9FF00;stop-opacity:0.1"/>
		<stop  offset="0.459" style="stop-color:#F7EC13;stop-opacity:0.67"/>
		<stop  offset="0.7656" style="stop-color:#F9FF00"/>
	</linearGradient>
	<path class="st0" d="M1429.4,440.3c-111.2-53.7-358.2-153.8-668.9-121.7c-54.3,5.6-506.3,52.3-628.9,301.8
		c-13.9,28.4-41.3,82.5-33.6,151.3c15.8,140.5,156,161.9,190.6,279.1c49.8,168.8-199,268-146,415.4
		c48.7,135.4,302.4,173,352.7,180.4c53.3,7.9,342.2,53,435.4-87c64.8-97.3-16.8-205.9,67.4-295.6c25.3-26.9,72.4-42.3,165.6-71.8
		c191.3-60.7,217.3-36.4,296.5-82.3c23.5-13.6,139.8-84.4,177.3-224.7c27.1-101.3-1.2-185.8-11.1-214.2
		C1583.3,547.4,1493.9,471.4,1429.4,440.3z"/>
	<g>
		<g>
			<g id="FILLED_OUTLINE">
				<path class="st2" d="M323,552.4h407.7v937.1H323V552.4z"/>
				<path class="st2" d="M323,681.7h407.7v290.8H323V681.7z"/>
				<path class="st2" d="M323,552.4h407.7v129.2H323V552.4z"/>
				<path class="st2" d="M374,600.9h67.9v32.3H374V600.9z"/>
				<path class="st2" d="M645.8,600.9h34v32.3h-34V600.9z"/>
				<path class="st2" d="M374,1117.9h305.8v32.3H374V1117.9z"/>
				<path class="st2" d="M391,1311.7h271.8v96.9H391V1311.7z"/>
				<path class="st2" d="M374,1198.7h305.8v32.3H374V1198.7z"/>
				<path class="st2" d="M900.6,552.4h407.7v937.1H900.6V552.4z"/>
				<ellipse class="st2" cx="1019.5" cy="794.7" rx="51" ry="48.5"/>
				<path class="st2" d="M900.6,552.4h407.7v129.2H900.6V552.4z"/>
				<path class="st2" d="M951.5,600.9h67.9v32.3h-67.9V600.9z"/>
				<path class="st2" d="M1223.3,600.9h34v32.3h-34V600.9z"/>
				<path class="st2" d="M1121.4,746.3h135.9v32.3h-135.9V746.3z"/>
				<path class="st2" d="M1121.4,810.9h135.9v32.3h-135.9V810.9z"/>
				<path class="st2" d="M764.7,1376.4H662.8v-32.3h101.9c9.4,0,17-7.2,17-16.2V907.8c0-26.8,22.8-48.4,51-48.5h67.9v32.3h-67.9
					c-9.4,0-17,7.2-17,16.2v420.1C815.6,1354.7,792.8,1376.3,764.7,1376.4z"/>
				<path class="st2" d="M968.5,1327.9h271.8v96.9H968.5V1327.9z"/>
				<path class="st2" d="M374,1037.1h305.8v32.3H374V1037.1z"/>
				<ellipse class="st2" cx="1104.4" cy="1053.2" rx="135.9" ry="129.2"/>
				<g>
					<path class="st2" d="M968.5,1231h67.9v32.3h-67.9V1231z"/>
					<path class="st2" d="M1070.5,1231h67.9v32.3h-67.9V1231z"/>
					<path class="st2" d="M1172.4,1231h67.9v32.3h-67.9V1231z"/>
				</g>
				<path class="st2" d="M1125.6,1055.9l86.1-81.9c-7-8.5-15-16.2-24-22.8l-90.3,85.9H969.6c-1.5,10.7-1.5,21.6,0,32.3h110.3
					l-38.7,98.2c10.1,5,20.7,8.8,31.8,11.3l34.6-87.8l49,81.5c10.5-4.2,20.4-9.5,29.5-16L1125.6,1055.9z"/>
				<path class="st2" d="M391,972.5h339.7v-64.6L594.8,778.6L391,972.5z"/>
				<path class="st2" d="M475.9,778.6L323,924v48.5h356.7L475.9,778.6z"/>
				<path class="st2" d="M713.7,1473.3H340V988.6h373.7v323.1h34V552.4c0-8.9-7.6-16.2-17-16.2H323c-9.4,0-17,7.2-17,16.2v937.1
					c0,8.9,7.6,16.2,17,16.2h407.7c9.4,0,17-7.2,17-16.2v-80.8h-34V1473.3z M713.7,868.8L606.8,767.2c-6.6-6.3-17.4-6.3-24,0
					l-47.4,45.1l-47.4-45.1c-6.6-6.3-17.4-6.3-24,0L340,885V697.8h373.7V868.8z M340,956.3v-25.6l135.9-129.3l89.9,85.5l24-22.8
					l-30.5-29l35.4-33.7l118.9,113.1v41.8H340z M713.7,568.6v96.9H340v-96.9H713.7z"/>
				<path class="st2" d="M374,600.9h67.9v32.3H374V600.9z"/>
				<path class="st2" d="M645.8,600.9h34v32.3h-34V600.9z"/>
				<path class="st2" d="M374,1117.9h305.8v32.3H374V1117.9z"/>
				<path class="st2" d="M374,1198.7h305.8v32.3H374V1198.7z"/>
				<path class="st2" d="M1308.3,536.3H900.6c-9.4,0-17,7.2-17,16.2v307h-51c-28.1,0-50.9,21.7-51,48.5v420.1
					c0,8.9-7.6,16.1-17,16.2h-84.9v-32.3c0-8.9-7.6-16.2-17-16.2H391c-9.4,0-17,7.2-17,16.2v96.9c0,8.9,7.6,16.2,17,16.2h271.8
					c9.4,0,17-7.2,17-16.2v-32.3h84.9c28.1,0,50.9-21.7,51-48.5V907.8c0-8.9,7.6-16.1,17-16.2h51v597.8c0,8.9,7.6,16.2,17,16.2
					h407.7c9.4,0,17-7.2,17-16.2V552.4C1325.3,543.5,1317.7,536.3,1308.3,536.3z M645.8,1392.5H407.9v-64.6h237.8V1392.5z
					 M1291.3,568.6v96.9H917.6v-96.9H1291.3z M917.6,1473.3V697.8h373.7v775.5H917.6z"/>
				<path class="st2" d="M1019.5,859.4c37.5,0,67.9-28.9,67.9-64.6c0-35.7-30.4-64.6-67.9-64.6s-67.9,28.9-67.9,64.6
					C951.6,830.4,982,859.3,1019.5,859.4z M1019.5,762.4c18.8,0,34,14.5,34,32.3c0,17.8-15.2,32.3-34,32.3c-18.8,0-34-14.5-34-32.3
					C985.5,776.9,1000.7,762.5,1019.5,762.4z"/>
				<path class="st2" d="M951.5,600.9h67.9v32.3h-67.9V600.9z"/>
				<path class="st2" d="M1223.3,600.9h34v32.3h-34V600.9z"/>
				<path class="st2" d="M1121.4,746.3h135.9v32.3h-135.9V746.3z"/>
				<path class="st2" d="M1121.4,810.9h135.9v32.3h-135.9V810.9z"/>
				<path class="st2" d="M1240.3,1311.7H968.5c-9.4,0-17,7.2-17,16.2v96.9c0,8.9,7.6,16.2,17,16.2h271.8c9.4,0,17-7.2,17-16.2v-96.9
					C1257.3,1319,1249.7,1311.7,1240.3,1311.7z M1223.3,1408.7H985.5v-64.6h237.8V1408.7z"/>
				<path class="st2" d="M374,1037.1h305.8v32.3H374V1037.1z"/>
				<path class="st2" d="M1104.4,907.8c-84.4,0-152.9,65.1-152.9,145.4s68.4,145.4,152.9,145.4s152.9-65.1,152.9-145.4
					C1257.2,973,1188.8,907.9,1104.4,907.8z M1104.4,940.2c25.7,0,50.7,7.9,71.2,22.6l-78.2,74.4H986.7
					C995.3,981.5,1045.3,940.2,1104.4,940.2z M986.7,1069.4h93.2l-32.7,82.9C1014.5,1135.2,992.1,1104.5,986.7,1069.4z M1079,1163.7
					l28.6-72.6l40.4,67.3C1126.1,1166.7,1102.1,1168.5,1079,1163.7z M1177.5,1142.4l-51.9-86.4l74-70.4
					C1238.4,1034.8,1228.6,1104.6,1177.5,1142.4z"/>
				<path class="st2" d="M968.5,1231h67.9v32.3h-67.9V1231z"/>
				<path class="st2" d="M1070.5,1231h67.9v32.3h-67.9V1231z"/>
				<path class="st2" d="M1172.4,1231h67.9v32.3h-67.9V1231z"/>
			</g>
		</g>
		<g>
			<g id="FILLED_OUTLINE_2_">
				<path class="st2" d="M346.4,528.2h407.7v937.1H346.4V528.2z"/>
				<path class="st6" d="M346.4,657.4h407.7v290.8H346.4V657.4z"/>
				<path class="st66" d="M346.4,528.2h407.7v129.2H346.4V528.2z"/>
				<path class="st67" d="M397.3,576.6h67.9V609h-67.9V576.6z"/>
				<path class="st67" d="M669.1,576.6h34V609h-34V576.6z"/>
				<path class="st68" d="M397.3,1093.6h305.8v32.3H397.3V1093.6z"/>
				<path class="st6" d="M414.3,1287.5h271.8v96.9H414.3V1287.5z"/>
				<path class="st68" d="M397.3,1174.4h305.8v32.3H397.3V1174.4z"/>
				<path class="st2" d="M923.9,528.2h407.7v937.1H923.9V528.2z"/>
				<ellipse class="st66" cx="1042.8" cy="770.5" rx="51" ry="48.5"/>
				<path class="st66" d="M923.9,528.2h407.7v129.2H923.9V528.2z"/>
				<path class="st67" d="M974.9,576.6h67.9V609h-67.9V576.6z"/>
				<path class="st67" d="M1246.7,576.6h34V609h-34V576.6z"/>
				<path class="st68" d="M1144.8,722h135.9v32.3h-135.9V722z"/>
				<path class="st68" d="M1144.8,786.7h135.9V819h-135.9V786.7z"/>
				<path class="st69" d="M788,1352.1H686.1v-32.3H788c9.4,0,17-7.2,17-16.2V883.6c0-26.8,22.8-48.4,51-48.5h67.9v32.3H856
					c-9.4,0-17,7.2-17,16.2v420.1C839,1330.4,816.2,1352.1,788,1352.1z"/>
				<path class="st6" d="M991.9,1303.7h271.8v96.9H991.9V1303.7z"/>
				<path class="st68" d="M397.3,1012.9h305.8v32.3H397.3V1012.9z"/>
				<ellipse class="st6" cx="1127.8" cy="1029" rx="135.9" ry="129.2"/>
				<g>
					<path class="st68" d="M991.9,1206.7h67.9v32.3h-67.9V1206.7z"/>
					<path class="st68" d="M1093.8,1206.7h67.9v32.3h-67.9V1206.7z"/>
					<path class="st68" d="M1195.7,1206.7h67.9v32.3h-67.9V1206.7z"/>
				</g>
				<path class="st70" d="M1149,1031.7l86.1-81.9c-7-8.5-15-16.2-24-22.8l-90.3,85.9H993c-1.5,10.7-1.5,21.6,0,32.3h110.3
					l-38.7,98.2c10.1,5,20.7,8.8,31.8,11.3l34.6-87.8l49,81.5c10.5-4.2,20.4-9.5,29.5-16L1149,1031.7z"/>
				<path class="st71" d="M414.3,948.2h339.7v-64.6L618.2,754.4L414.3,948.2z"/>
				<path class="st72" d="M499.3,754.4L346.4,899.8v48.5h356.7L499.3,754.4z"/>
				<path d="M737.1,1449.1H363.4V964.4h373.7v323.1h34V528.2c0-8.9-7.6-16.2-17-16.2H346.4c-9.4,0-17,7.2-17,16.2v937.1
					c0,8.9,7.6,16.2,17,16.2h407.7c9.4,0,17-7.2,17-16.2v-80.8h-34V1449.1z M737.1,844.6L630.2,742.9c-6.6-6.3-17.4-6.3-24,0
					l-47.4,45.1l-47.4-45.1c-6.6-6.3-17.4-6.3-24,0L363.4,860.8V673.6h373.7V844.6z M363.4,932.1v-25.6l135.9-129.3l89.9,85.5
					l24-22.8l-30.5-29l35.4-33.7l118.9,113.1v41.8H363.4z M737.1,544.3v96.9H363.4v-96.9H737.1z"/>
				<path d="M397.3,576.6h67.9V609h-67.9V576.6z"/>
				<path d="M669.1,576.6h34V609h-34V576.6z"/>
				<path d="M397.3,1093.6h305.8v32.3H397.3V1093.6z"/>
				<path d="M397.3,1174.4h305.8v32.3H397.3V1174.4z"/>
				<path d="M1331.6,512H923.9c-9.4,0-17,7.2-17,16.2v307h-51c-28.1,0-50.9,21.7-51,48.5v420.1c0,8.9-7.6,16.1-17,16.2h-84.9v-32.3
					c0-8.9-7.6-16.2-17-16.2H414.3c-9.4,0-17,7.2-17,16.2v96.9c0,8.9,7.6,16.2,17,16.2h271.8c9.4,0,17-7.2,17-16.2v-32.3H788
					c28.1,0,50.9-21.7,51-48.5V883.6c0-8.9,7.6-16.1,17-16.2h51v597.8c0,8.9,7.6,16.2,17,16.2h407.7c9.4,0,17-7.2,17-16.2V528.2
					C1348.6,519.3,1341,512,1331.6,512z M669.1,1368.3H431.3v-64.6h237.8V1368.3z M1314.6,544.3v96.9H940.9v-96.9H1314.6z
					 M940.9,1449.1V673.6h373.7v775.5H940.9z"/>
				<path d="M1042.8,835.1c37.5,0,67.9-28.9,67.9-64.6c0-35.7-30.4-64.6-67.9-64.6s-67.9,28.9-67.9,64.6
					C974.9,806.2,1005.3,835.1,1042.8,835.1z M1042.8,738.2c18.8,0,34,14.5,34,32.3c0,17.8-15.2,32.3-34,32.3s-34-14.5-34-32.3
					C1008.9,752.7,1024.1,738.2,1042.8,738.2z"/>
				<path d="M974.9,576.6h67.9V609h-67.9V576.6z"/>
				<path d="M1246.7,576.6h34V609h-34V576.6z"/>
				<path d="M1144.8,722h135.9v32.3h-135.9V722z"/>
				<path d="M1144.8,786.7h135.9V819h-135.9V786.7z"/>
				<path d="M1263.7,1287.5H991.9c-9.4,0-17,7.2-17,16.2v96.9c0,8.9,7.6,16.2,17,16.2h271.8c9.4,0,17-7.2,17-16.2v-96.9
					C1280.7,1294.7,1273.1,1287.5,1263.7,1287.5z M1246.7,1384.4h-237.8v-64.6h237.8V1384.4z"/>
				<path d="M397.3,1012.9h305.8v32.3H397.3V1012.9z"/>
				<path d="M1127.8,883.6c-84.4,0-152.9,65.1-152.9,145.4s68.4,145.4,152.9,145.4s152.9-65.1,152.9-145.4
					C1280.6,948.7,1212.2,883.7,1127.8,883.6z M1127.8,915.9c25.7,0,50.7,7.9,71.2,22.6l-78.2,74.4h-110.6
					C1018.6,957.3,1068.7,916,1127.8,915.9z M1010.1,1045.2h93.2l-32.7,82.9C1037.9,1111,1015.5,1080.3,1010.1,1045.2z
					 M1102.4,1139.5l28.6-72.6l40.4,67.3C1149.5,1142.5,1125.4,1144.3,1102.4,1139.5z M1200.9,1118.1l-51.9-86.4l74-70.4
					C1261.8,1010.6,1252,1080.3,1200.9,1118.1z"/>
				<path d="M991.9,1206.7h67.9v32.3h-67.9V1206.7z"/>
				<path d="M1093.8,1206.7h67.9v32.3h-67.9V1206.7z"/>
				<path d="M1195.7,1206.7h67.9v32.3h-67.9V1206.7z"/>
			</g>
		</g>
	</g>
</g>
</svg>
