<?xml version="1.0" encoding="utf-8"?>
<!-- Generator: Adobe Illustrator 24.3.0, SVG Export Plug-In . SVG Version: 6.00 Build 0)  -->
<svg version="1.1" id="Layer_1" xmlns:svgjs="http://svgjs.com/svgjs"
	 xmlns="http://www.w3.org/2000/svg" xmlns:xlink="http://www.w3.org/1999/xlink" x="0px" y="0px" viewBox="0 0 1728 2160"
	 style="enable-background:new 0 0 1728 2160;" xml:space="preserve">
<style type="text/css">
	.st0{fill:url(#SVGID_1_);}
	.st1{opacity:0.63;}
	.st2{fill:#FFA800;}
	.st3{fill:#FFA800;stroke:#FFA800;stroke-width:18;stroke-miterlimit:10;}
	.st4{opacity:0.99;}
	.st5{fill:#FFF800;}
	.st6{fill:#F9FF00;}
	.st7{fill:none;}
	.st8{fill:url(#SVGID_2_);}
	.st9{opacity:0.56;}
	.st10{fill:#EFEB61;}
	.st11{fill:#F1E912;}
	.st12{fill:#FFFFFF;}
	.st13{fill:#231F20;}
	.st14{fill:#2A719B;}
	.st15{fill:#FF7EB8;}
	.st16{fill:url(#SVGID_3_);}
	.st17{opacity:0.7;}
	.st18{fill:#77848C;}
	.st19{fill:#A0A0A0;}
	.st20{fill:#B1B1B1;}
	.st21{fill:#787878;}
	.st22{fill:#596369;}
	.st23{fill:#1DE9B6;}
	.st24{fill:#686868;}
	.st25{fill:#4F565A;}
	.st26{fill:#586267;}
	.st27{fill:#FFFA52;}
	.st28{fill:#A2ADB3;}
	.st29{fill:#333333;}
	.st30{fill:url(#SVGID_4_);}
	.st31{fill:#FFA800;stroke:#FFA800;stroke-width:8.1507;stroke-miterlimit:10;}
	.st32{fill:#FFA800;stroke:#FFA800;stroke-width:4.5282;stroke-miterlimit:10;}
	.st33{fill:#FFA800;stroke:#FFA800;stroke-width:1.8113;stroke-miterlimit:10;}
	.st34{fill:#F9FF00;stroke:#000000;stroke-width:16.4838;stroke-miterlimit:10;}
	.st35{fill:#FFA800;stroke:#000000;stroke-width:16.4838;stroke-miterlimit:10;}
	.st36{stroke:#000000;stroke-width:16.4838;stroke-miterlimit:10;}
	.st37{fill:#444444;stroke:#000000;stroke-width:16.4838;stroke-miterlimit:10;}
	.st38{fill:#3F3F51;stroke:#000000;stroke-width:16.4838;stroke-miterlimit:10;}
	.st39{fill:url(#SVGID_5_);}
	.st40{opacity:0.23;fill:#FFD100;stroke:#FFA800;stroke-miterlimit:10;enable-background:new    ;}
	.st41{fill:#FFA800;stroke:#FFA800;stroke-width:8.3823;stroke-miterlimit:10;}
	.st42{fill:#FFB531;stroke:#FFA800;stroke-miterlimit:10;}
	.st43{fill:#FFA800;stroke:#FFA800;stroke-miterlimit:10;}
	.st44{fill:#FFE100;stroke:#FFA800;stroke-miterlimit:10;}
	.st45{fill:#D2DEFF;stroke:#FFA800;stroke-width:8.3823;stroke-miterlimit:10;}
	.st46{fill:#97FFD2;stroke:#FFA800;stroke-width:8.3823;stroke-miterlimit:10;}
	.st47{fill:#FFFFFF;stroke:#FFA800;stroke-width:8.3823;stroke-miterlimit:10;}
	.st48{opacity:0.99;fill:#FFB531;stroke:#FFA800;stroke-miterlimit:10;}
	.st49{fill:#FFA800;stroke:#FFA800;stroke-width:12;stroke-miterlimit:10;}
	.st50{opacity:0.23;fill:#FFD100;enable-background:new    ;}
	.st51{fill:#FFF800;stroke:#000000;stroke-width:8.3823;stroke-miterlimit:10;}
	.st52{fill:#FFE100;stroke:#000000;stroke-width:8.3823;stroke-miterlimit:10;}
	.st53{fill:#FFA800;stroke:#000000;stroke-width:8.3823;stroke-miterlimit:10;}
	.st54{fill:#6583FE;stroke:#000000;stroke-width:8.3823;stroke-miterlimit:10;}
	.st55{fill:#FFE100;}
	.st56{fill:#FFB531;}
	.st57{fill:#D2DEFF;stroke:#000000;stroke-width:8.3823;stroke-miterlimit:10;}
	.st58{fill:#97FFD2;stroke:#000000;stroke-width:8.3823;stroke-miterlimit:10;}
	.st59{fill:#FFFFFF;stroke:#000000;stroke-width:8.3823;stroke-miterlimit:10;}
	.st60{fill:#FFFFFF;stroke:#231F20;stroke-width:8.3823;stroke-miterlimit:10;}
	.st61{opacity:0.99;fill:#FFFB5C;}
	.st62{fill:#FFFF03;stroke:#000000;stroke-width:8.3823;stroke-miterlimit:10;}
	.st63{fill:#231F20;stroke:#231F20;stroke-width:0.9314;stroke-miterlimit:10;}
	.st64{fill:#FFE100;stroke:#231F20;stroke-width:8.3823;stroke-miterlimit:10;}
	.st65{fill:url(#SVGID_6_);}
	.st66{fill:#338DBF;}
	.st67{fill:#5CA4CC;}
	.st68{fill:#BEBEBE;}
	.st69{fill:#70D6B1;}
	.st70{fill:#00B378;}
	.st71{fill:#BDBA14;}
	.st72{fill:#EFEF26;}
</style>
<g>
	<rect x="-0.3" y="16.4" class="st7" width="1727.2" height="1457.3"/>
	<g>
		
			<linearGradient id="SVGID_1_" gradientUnits="userSpaceOnUse" x1="106.9197" y1="841.285" x2="1481.0602" y2="1634.6469" gradientTransform="matrix(1 0 0 -1 0 2162)">
			<stop  offset="0" style="stop-color:#F9FF00;stop-opacity:0.1"/>
			<stop  offset="0.459" style="stop-color:#F7EC13;stop-opacity:0.67"/>
			<stop  offset="0.7656" style="stop-color:#F9FF00"/>
		</linearGradient>
		<path class="st0" d="M1392.7,477.2c-104.1-50.4-335.6-144.5-626.6-114.4c-50.9,5.3-474.3,49.1-589.2,283.7
			c-13.1,26.7-38.7,77.5-31.4,142.2C160.3,920.7,291.7,940.8,324,1051c46.6,158.6-186.4,251.9-136.7,390.4
			c45.6,127.3,283.2,162.6,330.4,169.6c50,7.4,320.6,49.8,407.9-81.8c60.7-91.4-15.7-193.5,63.2-277.8
			c23.7-25.3,67.8-39.7,155.1-67.5c179.2-57,203.5-34.2,277.7-77.3c22-12.8,131-79.3,166.1-211.2c25.4-95.2-1.1-174.6-10.4-201.3
			C1536.9,577.9,1453.1,506.4,1392.7,477.2z"/>
	</g>
	<g>
		<g>
			<g class="st9">
				<path class="st2" d="M1366.6,503c-27.1,0-49.7,18.7-55.8,43.8H937.7v-21.7c0-14.6-12-26.6-26.7-26.6h-70.3
					c-14.7,0-26.7,11.9-26.7,26.6v21.7H440.9c-6-25.1-28.7-43.8-55.8-43.8c-31.7,0-57.4,25.6-57.4,57.1s25.8,57.1,57.4,57.1
					c27.1,0,49.7-18.7,55.8-43.8h299c-129.8,52.9-221.8,179.1-223.6,326.5h-21.9c-14.7,0-26.7,11.9-26.7,26.6v69.9
					c0,14.6,12,26.6,26.7,26.6h70.3c14.7,0,26.7-11.9,26.7-26.6v-69.9c0-14.6-12-26.6-26.7-26.6H543
					c2.2-159.5,118.3-292.1,271-320.7V595c0,14.6,12,26.6,26.7,26.6H911c14.7,0,26.7-11.9,26.7-26.6v-15.9
					c152.7,28.6,268.9,161.2,271,320.7H1187c-14.7,0-26.7,11.9-26.7,26.6v69.9c0,14.6,12,26.6,26.7,26.6h70.3
					c14.7,0,26.7-11.9,26.7-26.6v-69.9c0-14.6-12-26.6-26.7-26.6h-21.9c-1.9-147.4-93.9-273.6-223.6-326.5h299
					c6,25.1,28.7,43.8,55.8,43.8c31.7,0,57.4-25.6,57.4-57.1S1398.3,503,1366.6,503L1366.6,503z"/>
				<path class="st2" d="M1093.4,999.7L910.1,701c-7.3-12-20.1-19.1-34.2-19.1c0,0,0,0,0,0c-14.1,0-26.9,7.1-34.2,19.1L658.4,999.7
					c-9.5,15.5-7.3,35.4,5.4,48.4l57.7,59.2H707c-22.1,0-40.1,17.8-40.1,39.8v60.7c0,22,17.9,39.8,40.1,39.8h12.3l17.8,180.8
					c1.3,13.6,12.8,24,26.6,24h224.5c13.7,0,25.2-10.4,26.6-24l17.8-180.8h12.3c22.1,0,40.1-17.8,40.1-39.8v-60.7
					c0-22-17.9-39.8-40.1-39.8h-14.5l57.7-59.2C1100.7,1035.1,1102.9,1015.2,1093.4,999.7L1093.4,999.7z"/>
			</g>
			<g>
				<path class="st10" d="M1022.4,1163l-24.5,232H753.8l-24.5-232H1022.4z"/>
				<path class="st11" d="M1022.4,1163l-7,66.2H736.3l-7-66.2H1022.4z"/>
				<g>
					<path class="st2" d="M564.7,956.5h-70.3c-7.4,0-13.4-5.9-13.4-13.3v-69.9c0-7.3,6-13.3,13.4-13.3h70.3
						c7.4,0,13.4,5.9,13.4,13.3v69.9C578.1,950.5,572.1,956.5,564.7,956.5z"/>
					<path class="st2" d="M1257.3,956.5H1187c-7.4,0-13.4-5.9-13.4-13.3v-69.9c0-7.3,6-13.3,13.4-13.3h70.3
						c7.4,0,13.4,5.9,13.4,13.3v69.9C1270.7,950.5,1264.7,956.5,1257.3,956.5z"/>
					<g>
						<ellipse class="st2" cx="385.1" cy="507" rx="44.1" ry="43.8"/>
						<ellipse class="st2" cx="1366.6" cy="507" rx="44.1" ry="43.8"/>
					</g>
				</g>
				<path class="st12" d="M947.4,1120.4l131-134.5c8.5-8.7,9.9-22,3.6-32.3L898.7,654.8c-10.4-17-35.2-17-45.6,0L669.8,953.5
					c-6.3,10.3-4.9,23.6,3.6,32.3l131,134.5H947.4z"/>
				<g>
					<path class="st13" d="M862.5,869.8h26.7v279.9h-26.7V869.8z"/>
				</g>
				<path class="st6" d="M1044.8,1181.4H707c-14.8,0-26.7-11.9-26.7-26.6v-60.7c0-14.7,12-26.6,26.7-26.6h337.8
					c14.8,0,26.7,11.9,26.7,26.6v60.7C1071.5,1169.5,1059.5,1181.4,1044.8,1181.4z"/>
				<g>
					<g>
						<ellipse class="st2" cx="875.9" cy="857.1" rx="38.7" ry="38.5"/>
					</g>
				</g>
				<path class="st2" d="M911,555.2h-70.3c-7.4,0-13.4-5.9-13.4-13.3V472c0-7.3,6-13.3,13.4-13.3H911c7.4,0,13.4,5.9,13.4,13.3v69.9
					C924.4,549.3,918.4,555.2,911,555.2z"/>
				<g>
					<g>
						<g>
							<g>
								<path class="st13" d="M1366.6,449.9c-27.1,0-49.7,18.7-55.8,43.8H937.7V472c0-14.6-12-26.6-26.7-26.6h-70.3
									c-14.7,0-26.7,11.9-26.7,26.6v21.7H440.9c-6-25.1-28.7-43.8-55.8-43.8c-31.7,0-57.4,25.6-57.4,57.1s25.8,57.1,57.4,57.1
									c27.1,0,49.7-18.7,55.8-43.8h299c-129.8,52.9-221.8,179.1-223.7,326.5h-21.9c-14.7,0-26.7,11.9-26.7,26.6v69.9
									c0,14.6,12,26.6,26.7,26.6h70.3c14.7,0,26.7-11.9,26.7-26.6v-69.9c0-14.6-12-26.6-26.7-26.6H543
									c2.2-159.5,118.3-292.1,271-320.7v15.9c0,14.6,12,26.6,26.7,26.6H911c14.7,0,26.7-11.9,26.7-26.6V526
									c152.7,28.6,268.9,161.2,271,320.7H1187c-14.7,0-26.7,11.9-26.7,26.6v69.9c0,14.6,12,26.6,26.7,26.6h70.3
									c14.7,0,26.7-11.9,26.7-26.6v-69.9c0-14.6-12-26.6-26.7-26.6h-21.9c-1.9-147.4-93.9-273.6-223.7-326.5h299
									c6,25.1,28.7,43.8,55.8,43.8c31.7,0,57.4-25.6,57.4-57.1S1398.3,449.9,1366.6,449.9L1366.6,449.9z M564.8,943.2h-70.3v-69.9
									h70.3L564.8,943.2z M385.1,537.5c-16.9,0-30.7-13.7-30.7-30.5c0-16.8,13.8-30.5,30.7-30.5s30.7,13.7,30.7,30.5
									C415.8,523.8,402.1,537.5,385.1,537.5z M1257.4,943.2H1187v-69.9h70.3L1257.4,943.2z M840.7,541.9V472H911l0,69.9
									L840.7,541.9z M1366.6,537.5c-16.9,0-30.7-13.7-30.7-30.5s13.8-30.5,30.7-30.5c16.9,0,30.7,13.7,30.7,30.5
									S1383.5,537.5,1366.6,537.5z"/>
							</g>
						</g>
						<g>
							<path class="st13" d="M1064.4,899.3c-3.8-6.3-12.1-8.2-18.4-4.4c-6.3,3.8-8.3,12-4.4,18.2l29,47.3c3.2,5.2,2.4,11.8-1.8,16.2
								l-75.7,77.7H758.6L683,976.6c-4.2-4.3-5-11-1.8-16.1l183.3-298.7c3.5-5.7,9.1-6.4,11.4-6.4c2.3,0,7.9,0.6,11.4,6.4l107,174.4
								c3.8,6.3,12.1,8.2,18.4,4.4c6.3-3.8,8.3-12,4.4-18.2l-107-174.4c-7.3-12-20.1-19.1-34.2-19.1c-14.1,0-26.9,7.1-34.2,19.1
								L658.4,946.6c-9.5,15.5-7.3,35.4,5.4,48.4l57.7,59.2H707c-22.1,0-40.1,17.9-40.1,39.8v60.7c0,22,18,39.8,40.1,39.8h12.3
								l21.3,201.7c0.8,7.3,7.3,12.6,14.7,11.8c7.3-0.8,12.7-7.3,11.9-14.6l-21-198.9h39c7.4,0,13.4-5.9,13.4-13.3
								c0-7.3-6-13.3-13.4-13.3H707c-7.4,0-13.4-6-13.4-13.3v-60.7c0-7.3,6-13.3,13.4-13.3h337.8c7.4,0,13.4,6,13.4,13.3v60.7
								c0,7.3-6,13.3-13.4,13.3H875.9c-7.4,0-13.4,5.9-13.4,13.3V1395c0,7.3,6,13.3,13.4,13.3c7.4,0,13.4-5.9,13.4-13.3v-200.3
								h116.4l-21,198.9c-0.8,7.3,4.6,13.8,11.9,14.6c0.5,0.1,0.9,0.1,1.4,0.1c6.7,0,12.5-5.1,13.3-11.9l21.3-201.7h12.3
								c22.1,0,40.1-17.9,40.1-39.8v-60.7c0-22-18-39.8-40.1-39.8h-14.5l57.7-59.2c12.7-13,14.9-33,5.4-48.4L1064.4,899.3z"/>
						</g>
					</g>
				</g>
			</g>
		</g>
		<path class="st14" d="M481.1,1176.3c-7.4,0-13.4-5.9-13.4-13.3c0-8.8-7.2-15.9-16-15.9c-7.4,0-13.4-5.9-13.4-13.3
			s6-13.3,13.4-13.3c8.8,0,16-7.1,16-15.9c0-7.3,6-13.3,13.4-13.3s13.4,5.9,13.4,13.3c0,8.8,7.2,15.9,16,15.9
			c7.4,0,13.4,5.9,13.4,13.3s-6,13.3-13.4,13.3c-8.8,0-16,7.1-16,15.9C494.4,1170.4,488.4,1176.3,481.1,1176.3z"/>
		<g>
			<path class="st15" d="M1348.6,747.2c-7.4,0-13.4-5.9-13.4-13.3c0-8.8-7.2-15.9-16-15.9c-7.4,0-13.4-5.9-13.4-13.3
				s6-13.3,13.4-13.3c8.8,0,16-7.1,16-15.9c0-7.3,6-13.3,13.4-13.3c7.4,0,13.4,5.9,13.4,13.3c0,8.8,7.2,15.9,16,15.9
				c7.4,0,13.4,5.9,13.4,13.3s-6,13.3-13.4,13.3c-8.8,0-16,7.1-16,15.9C1361.9,741.3,1356,747.2,1348.6,747.2z"/>
			<path class="st15" d="M1161.6,1380.9c-7.4,0-13.4-5.9-13.4-13.3c0-8.8-7.2-15.9-16-15.9c-7.4,0-13.4-5.9-13.4-13.3
				s6-13.3,13.4-13.3c8.8,0,16-7.1,16-15.9c0-7.3,6-13.3,13.4-13.3c7.4,0,13.4,5.9,13.4,13.3c0,8.8,7.2,15.9,16,15.9
				c7.4,0,13.4,5.9,13.4,13.3s-6,13.3-13.4,13.3c-8.8,0-16,7.1-16,15.9C1175,1375,1169,1380.9,1161.6,1380.9z"/>
			<path class="st15" d="M386.5,774c-3.4,0-6.8-1.3-9.4-3.9c-5.2-5.2-5.2-13.6,0-18.8l26.7-26.6c5.2-5.2,13.7-5.2,18.9,0
				c5.2,5.2,5.2,13.6,0,18.8l-26.7,26.6C393.3,772.7,389.9,774,386.5,774z"/>
		</g>
		<path class="st14" d="M1270.7,1189.6c-3.4,0-6.8-1.3-9.4-3.9c-5.2-5.2-5.2-13.6,0-18.8l26.7-26.6c5.2-5.2,13.7-5.2,18.9,0
			c5.2,5.2,5.2,13.6,0,18.8l-26.7,26.6C1277.5,1188.3,1274.1,1189.6,1270.7,1189.6z"/>
	</g>
</g>
</svg>
