<?xml version="1.0" encoding="utf-8"?>
<!-- Generator: Adobe Illustrator 24.3.0, SVG Export Plug-In . SVG Version: 6.00 Build 0)  -->
<svg version="1.1" id="Layer_1" xmlns:svgjs="http://svgjs.com/svgjs"
	 xmlns="http://www.w3.org/2000/svg" xmlns:xlink="http://www.w3.org/1999/xlink" x="0px" y="0px" viewBox="0 0 1728 2160"
	 style="enable-background:new 0 0 1728 2160;" xml:space="preserve">
<style type="text/css">
	.st0{fill:url(#SVGID_1_);}
	.st1{opacity:0.63;}
	.st2{fill:#FFA800;}
	.st3{fill:#FFA800;stroke:#FFA800;stroke-width:18;stroke-miterlimit:10;}
	.st4{opacity:0.99;}
	.st5{fill:#FFF800;}
	.st6{fill:#F9FF00;}
	.st7{fill:none;}
	.st8{fill:url(#SVGID_2_);}
	.st9{opacity:0.56;}
	.st10{fill:#EFEB61;}
	.st11{fill:#F1E912;}
	.st12{fill:#FFFFFF;}
	.st13{fill:#231F20;}
	.st14{fill:#2A719B;}
	.st15{fill:#FF7EB8;}
	.st16{fill:url(#SVGID_3_);}
	.st17{opacity:0.7;}
	.st18{fill:#77848C;}
	.st19{fill:#A0A0A0;}
	.st20{fill:#B1B1B1;}
	.st21{fill:#787878;}
	.st22{fill:#596369;}
	.st23{fill:#1DE9B6;}
	.st24{fill:#686868;}
	.st25{fill:#4F565A;}
	.st26{fill:#586267;}
	.st27{fill:#FFFA52;}
	.st28{fill:#A2ADB3;}
	.st29{fill:#333333;}
	.st30{fill:url(#SVGID_4_);}
	.st31{fill:#FFA800;stroke:#FFA800;stroke-width:8.1507;stroke-miterlimit:10;}
	.st32{fill:#FFA800;stroke:#FFA800;stroke-width:4.5282;stroke-miterlimit:10;}
	.st33{fill:#FFA800;stroke:#FFA800;stroke-width:1.8113;stroke-miterlimit:10;}
	.st34{fill:#F9FF00;stroke:#000000;stroke-width:16.4838;stroke-miterlimit:10;}
	.st35{fill:#FFA800;stroke:#000000;stroke-width:16.4838;stroke-miterlimit:10;}
	.st36{stroke:#000000;stroke-width:16.4838;stroke-miterlimit:10;}
	.st37{fill:#444444;stroke:#000000;stroke-width:16.4838;stroke-miterlimit:10;}
	.st38{fill:#3F3F51;stroke:#000000;stroke-width:16.4838;stroke-miterlimit:10;}
	.st39{fill:url(#SVGID_5_);}
	.st40{opacity:0.23;fill:#FFD100;stroke:#FFA800;stroke-miterlimit:10;enable-background:new    ;}
	.st41{fill:#FFA800;stroke:#FFA800;stroke-width:8.3823;stroke-miterlimit:10;}
	.st42{fill:#FFB531;stroke:#FFA800;stroke-miterlimit:10;}
	.st43{fill:#FFA800;stroke:#FFA800;stroke-miterlimit:10;}
	.st44{fill:#FFE100;stroke:#FFA800;stroke-miterlimit:10;}
	.st45{fill:#D2DEFF;stroke:#FFA800;stroke-width:8.3823;stroke-miterlimit:10;}
	.st46{fill:#97FFD2;stroke:#FFA800;stroke-width:8.3823;stroke-miterlimit:10;}
	.st47{fill:#FFFFFF;stroke:#FFA800;stroke-width:8.3823;stroke-miterlimit:10;}
	.st48{opacity:0.99;fill:#FFB531;stroke:#FFA800;stroke-miterlimit:10;}
	.st49{fill:#FFA800;stroke:#FFA800;stroke-width:12;stroke-miterlimit:10;}
	.st50{opacity:0.23;fill:#FFD100;enable-background:new    ;}
	.st51{fill:#FFF800;stroke:#000000;stroke-width:8.3823;stroke-miterlimit:10;}
	.st52{fill:#FFE100;stroke:#000000;stroke-width:8.3823;stroke-miterlimit:10;}
	.st53{fill:#FFA800;stroke:#000000;stroke-width:8.3823;stroke-miterlimit:10;}
	.st54{fill:#6583FE;stroke:#000000;stroke-width:8.3823;stroke-miterlimit:10;}
	.st55{fill:#FFE100;}
	.st56{fill:#FFB531;}
	.st57{fill:#D2DEFF;stroke:#000000;stroke-width:8.3823;stroke-miterlimit:10;}
	.st58{fill:#97FFD2;stroke:#000000;stroke-width:8.3823;stroke-miterlimit:10;}
	.st59{fill:#FFFFFF;stroke:#000000;stroke-width:8.3823;stroke-miterlimit:10;}
	.st60{fill:#FFFFFF;stroke:#231F20;stroke-width:8.3823;stroke-miterlimit:10;}
	.st61{opacity:0.99;fill:#FFFB5C;}
	.st62{fill:#FFFF03;stroke:#000000;stroke-width:8.3823;stroke-miterlimit:10;}
	.st63{fill:#231F20;stroke:#231F20;stroke-width:0.9314;stroke-miterlimit:10;}
	.st64{fill:#FFE100;stroke:#231F20;stroke-width:8.3823;stroke-miterlimit:10;}
	.st65{fill:url(#SVGID_6_);}
	.st66{fill:#338DBF;}
	.st67{fill:#5CA4CC;}
	.st68{fill:#BEBEBE;}
	.st69{fill:#70D6B1;}
	.st70{fill:#00B378;}
	.st71{fill:#BDBA14;}
	.st72{fill:#EFEF26;}
</style>
<g>
	<g>
		
			<linearGradient id="SVGID_1_" gradientUnits="userSpaceOnUse" x1="97.3635" y1="828.7281" x2="1507.9292" y2="1643.1201" gradientTransform="matrix(1 0 0 -1 0 2162)">
			<stop  offset="0" style="stop-color:#F9FF00;stop-opacity:0.1"/>
			<stop  offset="0.459" style="stop-color:#F7EC13;stop-opacity:0.67"/>
			<stop  offset="0.7656" style="stop-color:#F9FF00"/>
		</linearGradient>
		<path class="st0" d="M1416.7,465.8c-106.8-51.9-344.2-148.7-642.7-117.7c-52.2,5.4-486.4,50.5-604.2,291.9
			c-13.4,27.4-39.7,79.8-32.2,146.3c15.2,135.9,149.9,156.6,183.1,269.9c47.8,163.3-191.1,259.2-140.2,401.8
			c46.8,131,290.5,167.3,338.9,174.5c51.3,7.6,328.8,51.2,418.3-84.2c62.2-94.1-16.1-199.1,64.8-285.9
			c24.3-26.1,69.6-40.9,159.1-69.5c183.8-58.7,208.7-35.2,284.8-79.6c22.6-13.2,134.3-81.7,170.3-217.3c26-98-1.1-179.7-10.7-207.1
			C1564.5,569.5,1478.7,495.9,1416.7,465.8z"/>
	</g>
	<g class="st1">
		<path class="st40" d="M1161.5,508.1H655.2c-19.1,0-34.5,16.7-34.5,37.3v204.8H438c-9.6,0-17.3,8.4-17.3,18.7v175.8
			c0,10.4,7.8,18.7,17.3,18.7h182.6v305.1H381.3c-12.7,0-23,11.2-23,24.9v170.9c0,13.8,10.3,24.9,23,24.9h568.4
			c12.7,0,23-11.2,23-24.9V1365h188.8c19.1,0,34.5-16.7,34.5-37.3V545.5C1196.1,524.9,1180.6,508.1,1161.5,508.1L1161.5,508.1z"/>
		<path class="st41" d="M1057.6,1546.8c-6.4,0-11.5-5.6-11.5-12.5c0-8.3-6.2-15-13.8-15c-6.4,0-11.5-5.6-11.5-12.5
			s5.2-12.5,11.5-12.5c7.6,0,13.8-6.7,13.8-15c0-6.9,5.2-12.5,11.5-12.5s11.5,5.6,11.5,12.5c0,8.3,6.2,15,13.8,15
			c6.4,0,11.5,5.6,11.5,12.5s-5.2,12.5-11.5,12.5c-7.6,0-13.8,6.7-13.8,15C1069.1,1541.2,1063.9,1546.8,1057.6,1546.8z"/>
		<path class="st41" d="M469.7,570.4c-6.4,0-11.5-5.6-11.5-12.5c0-8.3-6.2-15-13.9-15c-6.4,0-11.5-5.6-11.5-12.5
			c0-6.9,5.2-12.5,11.5-12.5c7.6,0,13.9-6.7,13.9-15c0-6.9,5.2-12.5,11.5-12.5s11.5,5.6,11.5,12.5c0,8.3,6.2,15,13.9,15
			c6.4,0,11.5,5.6,11.5,12.5c0,6.9-5.2,12.5-11.5,12.5c-7.6,0-13.9,6.7-13.9,15C481.3,564.9,476.1,570.4,469.7,570.4z"/>
		<path class="st41" d="M420.7,760.9c-3.1,0-6-1.3-8.1-3.6l-25.4-27.4c-2.2-2.3-3.4-5.5-3.4-8.8s1.2-6.5,3.4-8.8l25.4-27.4
			c4.5-4.9,11.8-4.9,16.3,0l25.4,27.4c2.2,2.3,3.4,5.5,3.4,8.8s-1.2,6.5-3.4,8.8l-25.4,27.4C426.7,759.6,423.8,760.9,420.7,760.9z
			 M411.6,721l9.1,9.8l9.1-9.8l-9.1-9.8L411.6,721z"/>
		<path class="st41" d="M545.9,720.2c-6.4,0-11.5-5.6-11.5-12.5c0-8.3-6.2-15-13.9-15c-6.4,0-11.5-5.6-11.5-12.5s5.2-12.5,11.5-12.5
			c7.6,0,13.9-6.7,13.9-15c0-6.9,5.2-12.5,11.5-12.5s11.5,5.6,11.5,12.5c0,8.3,6.2,15,13.9,15c6.4,0,11.5,5.6,11.5,12.5
			s-5.2,12.5-11.5,12.5c-7.6,0-13.9,6.7-13.9,15C557.4,714.7,552.2,720.2,545.9,720.2z"/>
		<path class="st42" d="M1196.1,597.8V1380c0,20.6-15.5,37.3-34.5,37.3H655.2c-19.1,0-34.5-16.7-34.5-37.3V597.8
			c0-20.6,15.5-37.3,34.5-37.3h506.4C1180.6,560.5,1196.1,577.2,1196.1,597.8L1196.1,597.8z"/>
		<path class="st43" d="M620.7,1320.9v59c0,20.6,15.5,37.3,34.5,37.3h506.4c19.1,0,34.5-16.7,34.5-37.3v-59H620.7z"/>
		<path class="st41" d="M746.3,560.4v856.9h-91.1c-19,0-34.5-16.7-34.5-37.3V597.8c0-20.6,15.5-37.3,34.5-37.3H746.3z"/>
		<path class="st44" d="M705,856.6v175.8c0,10.3-7.7,18.7-17.3,18.7h-67V837.9h67C697.3,837.9,705,846.3,705,856.6L705,856.6z"/>
		<path class="st42" d="M1196.1,680.4v-82.6c0-20.6-15.5-37.3-34.5-37.3H655.2c-19.1,0-34.5,16.7-34.5,37.3v82.6L1196.1,680.4z"/>
		<path class="st45" d="M919.8,960.7h-36.2c-6,0-11.4,4.8-12,11.2c-0.7,7.4,4.7,13.7,11.5,13.7h36.7c6.4,0,11.5-5.6,11.5-12.5
			C931.3,966.3,926.1,960.7,919.8,960.7L919.8,960.7z"/>
		<path class="st46" d="M1059,960.7h-86.2c-6.4,0-11.5,5.6-11.5,12.5c0,6.9,5.2,12.5,11.5,12.5h86.7c6.7,0,12.1-6.3,11.5-13.7
			C1070.4,965.5,1065,960.7,1059,960.7L1059,960.7z"/>
		<path class="st45" d="M1002.7,1012.9H883.5c-6,0-11.4,4.8-12,11.2c-0.7,7.4,4.7,13.7,11.5,13.7h119.7c6.4,0,11.5-5.6,11.5-12.5
			C1014.2,1018.5,1009.1,1012.9,1002.7,1012.9L1002.7,1012.9z"/>
		<path class="st46" d="M1128.1,1012.9h-72.4c-6.4,0-11.5,5.6-11.5,12.5c0,6.9,5.2,12.5,11.5,12.5h72.8c6.7,0,12.1-6.3,11.5-13.7
			C1139.5,1017.7,1134.1,1012.9,1128.1,1012.9L1128.1,1012.9z"/>
		<path class="st45" d="M968.1,1065.2h-84.6c-6,0-11.4,4.8-12,11.2c-0.7,7.4,4.7,13.7,11.5,13.7h85.1c6.4,0,11.5-5.6,11.5-12.5
			C979.7,1070.8,974.5,1065.2,968.1,1065.2L968.1,1065.2z"/>
		<path class="st46" d="M1059,1065.2h-37.8c-6.4,0-11.5,5.6-11.5,12.5s5.2,12.5,11.5,12.5h38.3c6.7,0,12.1-6.3,11.5-13.7
			C1070.4,1069.9,1065,1065.2,1059,1065.2L1059,1065.2z"/>
		<path class="st46" d="M1128.1,1117.4H986.6c-6.4,0-11.5,5.6-11.5,12.5s5.2,12.5,11.5,12.5h142c6.7,0,12.1-6.3,11.5-13.7
			C1139.5,1122.2,1134.1,1117.4,1128.1,1117.4L1128.1,1117.4z"/>
		<path class="st45" d="M933.6,1117.4h-50.1c-6,0-11.4,4.8-12,11.2c-0.7,7.4,4.7,13.7,11.5,13.7h50.6c6.4,0,11.5-5.6,11.5-12.5
			C945.1,1123,940,1117.4,933.6,1117.4L933.6,1117.4z"/>
		<g>
			<path class="st47" d="M853,873.9h-38.5c-6,0-11.4,4.8-12,11.2c-0.7,7.4,4.7,13.7,11.5,13.7h39c6.4,0,11.5-5.6,11.5-12.5
				C864.5,879.5,859.3,873.9,853,873.9L853,873.9z"/>
			<path class="st47" d="M1059,873.9H909.1c-6.4,0-11.5,5.6-11.5,12.5c0,6.9,5.2,12.5,11.5,12.5h150.4c6.7,0,12.1-6.3,11.5-13.7
				C1070.4,878.7,1065,873.9,1059,873.9L1059,873.9z"/>
			<path class="st47" d="M853,1211.6h-38.5c-6,0-11.4,4.8-12,11.2c-0.7,7.4,4.7,13.7,11.5,13.7h39c6.4,0,11.5-5.6,11.5-12.5
				C864.5,1217.2,859.3,1211.6,853,1211.6L853,1211.6z"/>
			<path class="st47" d="M1059,1211.6H909.1c-6.4,0-11.5,5.6-11.5,12.5c0,6.9,5.2,12.5,11.5,12.5h150.4c6.7,0,12.1-6.3,11.5-13.7
				C1070.4,1216.4,1065,1211.6,1059,1211.6L1059,1211.6z"/>
		</g>
		<path class="st42" d="M687.7,1015.8H438c-9.6,0-17.3-8.4-17.3-18.7V821.3c0-10.4,7.8-18.7,17.3-18.7h249.7
			c9.6,0,17.3,8.4,17.3,18.7v175.8C705,1007.4,697.3,1015.8,687.7,1015.8z"/>
		<path class="st47" d="M509,951.7c-2.9,0-5.9-1.2-8.1-3.6l-27.7-30c-4.5-4.9-4.5-12.8,0-17.6l27.7-30c4.5-4.9,11.8-4.9,16.3,0
			c4.5,4.9,4.5,12.8,0,17.6l-19.6,21.2l19.6,21.2c4.5,4.9,4.5,12.8,0,17.6C514.9,950.4,511.9,951.7,509,951.7L509,951.7z"/>
		<path class="st47" d="M616.7,866.8c2.9,0,5.9,1.2,8.1,3.6l27.7,30c4.5,4.9,4.5,12.8,0,17.6l-27.7,30c-4.5,4.9-11.8,4.9-16.3,0
			c-4.5-4.9-4.5-12.8,0-17.6l19.6-21.2L608.6,888c-4.5-4.9-4.5-12.8,0-17.6C610.8,868,613.8,866.8,616.7,866.8L616.7,866.8z"/>
		<path class="st47" d="M547.2,951.7c-1.9,0-3.9-0.5-5.7-1.6c-5.5-3.4-7.5-11-4.4-17l31.3-60c3.1-6,10.2-8.1,15.7-4.7
			c5.5,3.4,7.5,11,4.4,17l-31.3,60C555.1,949.4,551.2,951.7,547.2,951.7L547.2,951.7z"/>
		<path class="st48" d="M949.7,1541.7H381.3c-12.7,0-23-11.2-23-24.9v-170.9c0-13.8,10.3-24.9,23-24.9h568.4c12.7,0,23,11.2,23,24.9
			v170.9C972.8,1530.5,962.5,1541.7,949.7,1541.7z"/>
		<g>
			<path class="st41" d="M708.3,607.8c-6.4,0-11.5,5.6-11.5,12.5v0.4c0,6.9,5.2,12.5,11.5,12.5s11.5-5.6,11.5-12.5v-0.4
				C719.8,613.3,714.7,607.8,708.3,607.8z"/>
			<path class="st41" d="M752.8,607.8c-6.4,0-11.5,5.6-11.5,12.5v0.4c0,6.9,5.2,12.5,11.5,12.5c6.4,0,11.5-5.6,11.5-12.5v-0.4
				C764.3,613.3,759.1,607.8,752.8,607.8z"/>
			<path class="st41" d="M797.3,607.8c-6.4,0-11.5,5.6-11.5,12.5v0.4c0,6.9,5.2,12.5,11.5,12.5c6.4,0,11.5-5.6,11.5-12.5v-0.4
				C808.8,613.3,803.6,607.8,797.3,607.8z"/>
			<path class="st49" d="M1161.5,548H655.2c-25.4,0-46,22.3-46,49.8V734c0,6.9,5.2,12.5,11.5,12.5c6.4,0,11.5-5.6,11.5-12.5v-41.2
				h552.4V1380c0,13.7-10.3,24.9-23,24.9H984.3v-59c0-20.6-15.5-37.4-34.6-37.4H684.1c-6.4,0-11.5,5.6-11.5,12.5
				c0,6.9,5.2,12.5,11.5,12.5h265.6c6.4,0,11.5,5.6,11.5,12.5v170.9c0,6.9-5.2,12.5-11.5,12.5H381.3c-6.4,0-11.5-5.6-11.5-12.5
				v-170.9c0-6.9,5.2-12.5,11.5-12.5h239.3c6.4,0,11.5-5.6,11.5-12.5v-292.7h55.5c15.9,0,28.8-14,28.8-31.2V821.3
				c0-17.2-12.9-31.2-28.8-31.2H438c-15.9,0-28.8,14-28.8,31.2v75.4h-11.7c-27.9,0-50.7,24.6-50.7,54.8v81.1
				c0,30.2,22.7,54.8,50.7,54.8h92c15.3,0,27.8,13.5,27.8,30c0,16.6-12.5,30-27.8,30h-92c-27.9,0-50.7,24.6-50.7,54.8
				s22.7,54.8,50.7,54.8h87.8c15.2,0,27.6,13.4,27.6,29.9v21.4H381.3c-19,0-34.6,16.8-34.6,37.4v170.9c0,20.6,15.5,37.4,34.6,37.4
				h568.4c19,0,34.6-16.8,34.6-37.4v-87h177.3c25.4,0,46-22.3,46-49.8V597.8C1207.6,570.3,1186.9,548,1161.5,548L1161.5,548z
				 M432.2,821.3c0-3.5,2.6-6.3,5.8-6.3h249.7c3.2,0,5.8,2.8,5.8,6.3v175.8c0,3.5-2.6,6.3-5.8,6.3H438c-3.2,0-5.8-2.8-5.8-6.3V821.3
				z M485.3,1232.3h-87.8c-15.2,0-27.6-13.4-27.6-29.9s12.4-29.9,27.6-29.9h92c28,0,50.8-24.6,50.8-54.9c0-30.3-22.8-54.9-50.8-54.9
				h-92c-15.2,0-27.6-13.4-27.6-29.9v-81.1c0-16.5,12.4-29.9,27.6-29.9h11.7v75.4c0,17.2,12.9,31.2,28.8,31.2h171.1v280.2H536v-21.4
				C536,1256.9,513.2,1232.3,485.3,1232.3z M632.2,667.9v-70.1c0-13.7,10.3-24.9,23-24.9h506.4c12.7,0,23,11.2,23,24.9v70.1H632.2z"
				/>
			<path class="st41" d="M701.8,1111.9c0-6.9-5.2-12.5-11.5-12.5s-11.5,5.6-11.5,12.5v0.4c0,6.9,5.2,12.5,11.5,12.5
				s11.5-5.6,11.5-12.5V1111.9z"/>
			<path class="st41" d="M690.3,1212.4c-6.4,0-11.5,5.6-11.5,12.5v0.4c0,6.9,5.2,12.5,11.5,12.5s11.5-5.6,11.5-12.5v-0.4
				C701.8,1217.9,696.7,1212.4,690.3,1212.4z"/>
			<path class="st41" d="M423.1,1383.1c0-6.9-5.2-12.5-11.5-12.5s-11.5,5.6-11.5,12.5v0.3c0,6.9,5.2,12.5,11.5,12.5
				s11.5-5.6,11.5-12.5V1383.1z"/>
			<path class="st41" d="M479.5,1383.1c0-6.9-5.2-12.5-11.5-12.5c-6.4,0-11.5,5.6-11.5,12.5v0.3c0,6.9,5.2,12.5,11.5,12.5
				c6.4,0,11.5-5.6,11.5-12.5V1383.1z"/>
			<path class="st41" d="M524.4,1395.8c6.4,0,11.5-5.6,11.5-12.5v-0.3c0-6.9-5.2-12.5-11.5-12.5c-6.4,0-11.5,5.6-11.5,12.5v0.3
				C512.9,1390.3,518.1,1395.8,524.4,1395.8z"/>
			<path class="st41" d="M592.4,1383.4v-0.3c0-6.9-5.2-12.5-11.5-12.5c-6.4,0-11.5,5.6-11.5,12.5v0.3c0,6.9,5.2,12.5,11.5,12.5
				C587.2,1395.8,592.4,1390.3,592.4,1383.4z"/>
			<path class="st41" d="M648.8,1383.4v-0.3c0-6.9-5.2-12.5-11.5-12.5s-11.5,5.6-11.5,12.5v0.3c0,6.9,5.2,12.5,11.5,12.5
				S648.8,1390.3,648.8,1383.4z"/>
			<path class="st41" d="M705.3,1383.4v-0.3c0-6.9-5.2-12.5-11.5-12.5s-11.5,5.6-11.5,12.5v0.3c0,6.9,5.2,12.5,11.5,12.5
				S705.3,1390.3,705.3,1383.4z"/>
			<path class="st41" d="M761.7,1383.4v-0.3c0-6.9-5.2-12.5-11.5-12.5s-11.5,5.6-11.5,12.5v0.3c0,6.9,5.2,12.5,11.5,12.5
				S761.7,1390.3,761.7,1383.4z"/>
			<path class="st41" d="M806.6,1395.8c6.4,0,11.5-5.6,11.5-12.5v-0.3c0-6.9-5.2-12.5-11.5-12.5c-6.4,0-11.5,5.6-11.5,12.5v0.3
				C795.1,1390.3,800.3,1395.8,806.6,1395.8z"/>
			<path class="st41" d="M863.1,1395.8c6.4,0,11.5-5.6,11.5-12.5v-0.3c0-6.9-5.2-12.5-11.5-12.5c-6.4,0-11.5,5.6-11.5,12.5v0.3
				C851.5,1390.3,856.7,1395.8,863.1,1395.8z"/>
			<path class="st41" d="M919.5,1395.8c6.4,0,11.5-5.6,11.5-12.5v-0.3c0-6.9-5.2-12.5-11.5-12.5c-6.4,0-11.5,5.6-11.5,12.5v0.3
				C908,1390.3,913.1,1395.8,919.5,1395.8z"/>
			<path class="st41" d="M428.3,1431.2v0.3c0,6.9,5.2,12.5,11.5,12.5c6.4,0,11.5-5.6,11.5-12.5v-0.3c0-6.9-5.2-12.5-11.5-12.5
				C433.4,1418.7,428.3,1424.3,428.3,1431.2z"/>
			<path class="st41" d="M484.7,1431.2v0.3c0,6.9,5.2,12.5,11.5,12.5c6.4,0,11.5-5.6,11.5-12.5v-0.3c0-6.9-5.2-12.5-11.5-12.5
				C489.9,1418.7,484.7,1424.3,484.7,1431.2z"/>
			<path class="st41" d="M564.2,1431.5v-0.3c0-6.9-5.2-12.5-11.5-12.5s-11.5,5.6-11.5,12.5v0.3c0,6.9,5.2,12.5,11.5,12.5
				S564.2,1438.3,564.2,1431.5z"/>
			<path class="st41" d="M620.6,1431.5v-0.3c0-6.9-5.2-12.5-11.5-12.5s-11.5,5.6-11.5,12.5v0.3c0,6.9,5.2,12.5,11.5,12.5
				S620.6,1438.3,620.6,1431.5z"/>
			<path class="st41" d="M665.5,1418.7c-6.4,0-11.5,5.6-11.5,12.5v0.3c0,6.9,5.2,12.5,11.5,12.5c6.4,0,11.5-5.6,11.5-12.5v-0.3
				C677,1424.3,671.9,1418.7,665.5,1418.7z"/>
			<path class="st41" d="M733.5,1431.5v-0.3c0-6.9-5.2-12.5-11.5-12.5s-11.5,5.6-11.5,12.5v0.3c0,6.9,5.2,12.5,11.5,12.5
				S733.5,1438.3,733.5,1431.5z"/>
			<path class="st41" d="M789.9,1431.5v-0.3c0-6.9-5.2-12.5-11.5-12.5c-6.4,0-11.5,5.6-11.5,12.5v0.3c0,6.9,5.2,12.5,11.5,12.5
				C784.8,1443.9,789.9,1438.3,789.9,1431.5z"/>
			<path class="st41" d="M846.4,1431.5v-0.3c0-6.9-5.2-12.5-11.5-12.5s-11.5,5.6-11.5,12.5v0.3c0,6.9,5.2,12.5,11.5,12.5
				S846.4,1438.3,846.4,1431.5z"/>
			<path class="st41" d="M902.8,1431.5v-0.3c0-6.9-5.2-12.5-11.5-12.5c-6.4,0-11.5,5.6-11.5,12.5v0.3c0,6.9,5.2,12.5,11.5,12.5
				C897.6,1443.9,902.8,1438.3,902.8,1431.5z"/>
			<path class="st41" d="M411.6,1466.8c-6.4,0-11.5,5.6-11.5,12.5v0.3c0,6.9,5.2,12.5,11.5,12.5s11.5-5.6,11.5-12.5v-0.3
				C423.1,1472.4,417.9,1466.8,411.6,1466.8z"/>
			<path class="st41" d="M468,1466.8c-6.4,0-11.5,5.6-11.5,12.5v0.3c0,6.9,5.2,12.5,11.5,12.5c6.4,0,11.5-5.6,11.5-12.5v-0.3
				C479.5,1472.4,474.4,1466.8,468,1466.8z"/>
			<path class="st41" d="M512.9,1479.5c0,6.9,5.2,12.5,11.5,12.5h225.7c6.4,0,11.5-5.6,11.5-12.5c0-6.9-5.2-12.5-11.5-12.5H524.4
				C518.1,1467.1,512.9,1472.6,512.9,1479.5z"/>
			<path class="st41" d="M795.1,1479.5c0,6.9,5.2,12.5,11.5,12.5c6.4,0,11.5-5.6,11.5-12.5v-0.3c0-6.9-5.2-12.5-11.5-12.5
				c-6.4,0-11.5,5.6-11.5,12.5V1479.5z"/>
			<path class="st41" d="M851.5,1479.5c0,6.9,5.2,12.5,11.5,12.5c6.4,0,11.5-5.6,11.5-12.5v-0.3c0-6.9-5.2-12.5-11.5-12.5
				c-6.4,0-11.5,5.6-11.5,12.5V1479.5z"/>
			<path class="st41" d="M908,1479.5c0,6.9,5.2,12.5,11.5,12.5c6.4,0,11.5-5.6,11.5-12.5v-0.3c0-6.9-5.2-12.5-11.5-12.5
				c-6.4,0-11.5,5.6-11.5,12.5V1479.5z"/>
		</g>
	</g>
	<g>
		<path class="st50" d="M1178,489.1H671.6c-19.1,0-34.5,16.7-34.5,37.3v204.8H454.5c-9.6,0-17.3,8.4-17.3,18.7v175.8
			c0,10.4,7.8,18.7,17.3,18.7h182.6v305.1H397.7c-12.7,0-23,11.2-23,24.9v170.9c0,13.8,10.3,24.9,23,24.9h568.4
			c12.7,0,23-11.2,23-24.9V1346H1178c19.1,0,34.5-16.7,34.5-37.3V526.5C1212.5,505.9,1197,489.1,1178,489.1L1178,489.1z"/>
		<path class="st51" d="M1074,1527.8c-6.4,0-11.5-5.6-11.5-12.5c0-8.3-6.2-15-13.8-15c-6.4,0-11.5-5.6-11.5-12.5
			c0-6.9,5.2-12.5,11.5-12.5c7.6,0,13.8-6.7,13.8-15c0-6.9,5.2-12.5,11.5-12.5c6.4,0,11.5,5.6,11.5,12.5c0,8.3,6.2,15,13.8,15
			c6.4,0,11.5,5.6,11.5,12.5c0,6.9-5.2,12.5-11.5,12.5c-7.6,0-13.8,6.7-13.8,15C1085.5,1522.2,1080.4,1527.8,1074,1527.8z"/>
		<path class="st52" d="M486.2,551.4c-6.4,0-11.5-5.6-11.5-12.5c0-8.3-6.2-15-13.9-15c-6.4,0-11.5-5.6-11.5-12.5s5.2-12.5,11.5-12.5
			c7.6,0,13.9-6.7,13.9-15c0-6.9,5.2-12.5,11.5-12.5c6.4,0,11.5,5.6,11.5,12.5c0,8.3,6.2,15,13.9,15c6.4,0,11.5,5.6,11.5,12.5
			s-5.2,12.5-11.5,12.5c-7.6,0-13.9,6.7-13.9,15C497.7,545.8,492.5,551.4,486.2,551.4z"/>
		<path class="st53" d="M437.1,741.8c-3.1,0-6-1.3-8.1-3.6l-25.4-27.4c-2.2-2.3-3.4-5.5-3.4-8.8c0-3.3,1.2-6.5,3.4-8.8l25.4-27.4
			c4.5-4.9,11.8-4.9,16.3,0l25.4,27.4c2.2,2.3,3.4,5.5,3.4,8.8c0,3.3-1.2,6.5-3.4,8.8l-25.4,27.4
			C443.1,740.5,440.2,741.8,437.1,741.8z M428,701.9l9.1,9.8l9.1-9.8l-9.1-9.8L428,701.9z"/>
		<path class="st54" d="M562.3,701.2c-6.4,0-11.5-5.6-11.5-12.5c0-8.3-6.2-15-13.9-15c-6.4,0-11.5-5.6-11.5-12.5s5.2-12.5,11.5-12.5
			c7.6,0,13.9-6.7,13.9-15c0-6.9,5.2-12.5,11.5-12.5c6.4,0,11.5,5.6,11.5,12.5c0,8.3,6.2,15,13.9,15c6.4,0,11.5,5.6,11.5,12.5
			s-5.2,12.5-11.5,12.5c-7.6,0-13.9,6.7-13.9,15C573.8,695.6,568.7,701.2,562.3,701.2z"/>
		<path class="st6" d="M1212.5,578.8v782.2c0,20.6-15.5,37.3-34.5,37.3H671.6c-19.1,0-34.5-16.7-34.5-37.3V578.8
			c0-20.6,15.5-37.3,34.5-37.3H1178C1197,541.4,1212.5,558.2,1212.5,578.8L1212.5,578.8z"/>
		<path class="st2" d="M637.1,1301.9v59c0,20.6,15.5,37.3,34.5,37.3H1178c19.1,0,34.5-16.7,34.5-37.3v-59H637.1z"/>
		<path class="st53" d="M762.7,541.4v856.9h-91.1c-19,0-34.5-16.7-34.5-37.3V578.8c0-20.6,15.5-37.3,34.5-37.3H762.7z"/>
		<path class="st55" d="M721.4,837.6v175.8c0,10.3-7.7,18.7-17.3,18.7h-67V818.8h67C713.7,818.8,721.4,827.2,721.4,837.6
			L721.4,837.6z"/>
		<path class="st56" d="M1212.5,661.3v-82.6c0-20.6-15.5-37.3-34.5-37.3H671.6c-19.1,0-34.5,16.7-34.5,37.3v82.6L1212.5,661.3z"/>
		<path class="st57" d="M936.2,941.7H900c-6,0-11.4,4.8-12,11.2c-0.7,7.4,4.7,13.7,11.5,13.7h36.7c6.4,0,11.5-5.6,11.5-12.5
			C947.7,947.3,942.6,941.7,936.2,941.7L936.2,941.7z"/>
		<path class="st58" d="M1075.4,941.7h-86.2c-6.4,0-11.5,5.6-11.5,12.5s5.2,12.5,11.5,12.5h86.7c6.7,0,12.1-6.3,11.5-13.7
			C1086.8,946.5,1081.4,941.7,1075.4,941.7L1075.4,941.7z"/>
		<path class="st57" d="M1019.1,993.9H900c-6,0-11.4,4.8-12,11.2c-0.7,7.4,4.7,13.7,11.5,13.7h119.7c6.4,0,11.5-5.6,11.5-12.5
			C1030.7,999.5,1025.5,993.9,1019.1,993.9L1019.1,993.9z"/>
		<path class="st58" d="M1144.5,993.9h-72.4c-6.4,0-11.5,5.6-11.5,12.5s5.2,12.5,11.5,12.5h72.8c6.7,0,12.1-6.3,11.5-13.7
			C1155.9,998.7,1150.5,993.9,1144.5,993.9L1144.5,993.9z"/>
		<path class="st57" d="M984.6,1046.1H900c-6,0-11.4,4.8-12,11.2c-0.7,7.4,4.7,13.7,11.5,13.7h85.1c6.4,0,11.5-5.6,11.5-12.5
			C996.1,1051.7,991,1046.1,984.6,1046.1L984.6,1046.1z"/>
		<path class="st58" d="M1075.4,1046.1h-37.8c-6.4,0-11.5,5.6-11.5,12.5s5.2,12.5,11.5,12.5h38.3c6.7,0,12.1-6.3,11.5-13.7
			C1086.8,1050.9,1081.4,1046.1,1075.4,1046.1L1075.4,1046.1z"/>
		<path class="st58" d="M1144.5,1098.4H1003c-6.4,0-11.5,5.6-11.5,12.5c0,6.9,5.2,12.5,11.5,12.5h142c6.7,0,12.1-6.3,11.5-13.7
			C1155.9,1103.1,1150.5,1098.4,1144.5,1098.4L1144.5,1098.4z"/>
		<path class="st57" d="M950,1098.4H900c-6,0-11.4,4.8-12,11.2c-0.7,7.4,4.7,13.7,11.5,13.7H950c6.4,0,11.5-5.6,11.5-12.5
			C961.6,1104,956.4,1098.4,950,1098.4L950,1098.4z"/>
		<g>
			<path class="st59" d="M869.4,854.9h-38.5c-6,0-11.4,4.8-12,11.2c-0.7,7.4,4.7,13.7,11.5,13.7h39c6.4,0,11.5-5.6,11.5-12.5
				C880.9,860.5,875.8,854.9,869.4,854.9L869.4,854.9z"/>
			<path class="st59" d="M1075.4,854.9H925.5c-6.4,0-11.5,5.6-11.5,12.5c0,6.9,5.2,12.5,11.5,12.5h150.4c6.7,0,12.1-6.3,11.5-13.7
				C1086.8,859.6,1081.4,854.9,1075.4,854.9L1075.4,854.9z"/>
			<path class="st59" d="M869.4,1192.6h-38.5c-6,0-11.4,4.8-12,11.2c-0.7,7.4,4.7,13.7,11.5,13.7h39c6.4,0,11.5-5.6,11.5-12.5
				C880.9,1198.2,875.8,1192.6,869.4,1192.6L869.4,1192.6z"/>
			<path class="st59" d="M1075.4,1192.6H925.5c-6.4,0-11.5,5.6-11.5,12.5c0,6.9,5.2,12.5,11.5,12.5h150.4c6.7,0,12.1-6.3,11.5-13.7
				C1086.8,1197.4,1081.4,1192.6,1075.4,1192.6L1075.4,1192.6z"/>
		</g>
		<path class="st6" d="M704.1,996.8H454.5c-9.6,0-17.3-8.4-17.3-18.7V802.3c0-10.4,7.8-18.7,17.3-18.7h249.7
			c9.6,0,17.3,8.4,17.3,18.7v175.8C721.4,988.4,713.7,996.8,704.1,996.8z"/>
		<path class="st60" d="M525.4,932.6c-2.9,0-5.9-1.2-8.1-3.6l-27.7-30c-4.5-4.9-4.5-12.8,0-17.6l27.7-30c4.5-4.9,11.8-4.9,16.3,0
			c4.5,4.9,4.5,12.8,0,17.6L514,890.2l19.6,21.2c4.5,4.9,4.5,12.8,0,17.6C531.3,931.4,528.4,932.6,525.4,932.6L525.4,932.6z"/>
		<path class="st60" d="M633.2,847.7c2.9,0,5.9,1.2,8.1,3.6l27.7,30c4.5,4.9,4.5,12.8,0,17.6l-27.7,30c-4.5,4.9-11.8,4.9-16.3,0
			c-4.5-4.9-4.5-12.8,0-17.6l19.6-21.2L625,869c-4.5-4.9-4.5-12.8,0-17.6C627.3,849,630.2,847.7,633.2,847.7L633.2,847.7z"/>
		<path class="st60" d="M563.6,932.6c-1.9,0-3.9-0.5-5.7-1.6c-5.5-3.4-7.5-11-4.4-17l31.3-60c3.1-6,10.2-8.1,15.7-4.7
			c5.5,3.4,7.5,11,4.4,17l-31.3,60C571.5,930.4,567.6,932.6,563.6,932.6L563.6,932.6z"/>
		<path class="st61" d="M966.2,1522.7H397.7c-12.7,0-23-11.2-23-24.9v-170.9c0-13.8,10.3-24.9,23-24.9h568.4c12.7,0,23,11.2,23,24.9
			v170.9C989.2,1511.5,978.9,1522.7,966.2,1522.7z"/>
		<g>
			<path class="st62" d="M724.7,588.7c-6.4,0-11.5,5.6-11.5,12.5v0.4c0,6.9,5.2,12.5,11.5,12.5s11.5-5.6,11.5-12.5v-0.4
				C736.3,594.3,731.1,588.7,724.7,588.7z"/>
			<path class="st62" d="M769.2,588.7c-6.4,0-11.5,5.6-11.5,12.5v0.4c0,6.9,5.2,12.5,11.5,12.5s11.5-5.6,11.5-12.5v-0.4
				C780.7,594.3,775.6,588.7,769.2,588.7z"/>
			<path class="st62" d="M813.7,588.7c-6.4,0-11.5,5.6-11.5,12.5v0.4c0,6.9,5.2,12.5,11.5,12.5c6.4,0,11.5-5.6,11.5-12.5v-0.4
				C825.2,594.3,820.1,588.7,813.7,588.7z"/>
			<path class="st63" d="M1178,529H671.6c-25.4,0-46,22.3-46,49.8V715c0,6.9,5.2,12.5,11.5,12.5c6.4,0,11.5-5.6,11.5-12.5v-41.2
				H1201v687.1c0,13.7-10.3,24.9-23,24.9h-177.3v-59c0-20.6-15.5-37.4-34.6-37.4H700.5c-6.4,0-11.5,5.6-11.5,12.5
				c0,6.9,5.2,12.5,11.5,12.5h265.6c6.4,0,11.5,5.6,11.5,12.5v170.9c0,6.9-5.2,12.5-11.5,12.5H397.7c-6.4,0-11.5-5.6-11.5-12.5
				v-170.9c0-6.9,5.2-12.5,11.5-12.5h239.3c6.4,0,11.5-5.6,11.5-12.5v-292.7h55.5c15.9,0,28.8-14,28.8-31.2V802.3
				c0-17.2-12.9-31.2-28.8-31.2H454.5c-15.9,0-28.8,14-28.8,31.2v75.4h-11.7c-27.9,0-50.7,24.6-50.7,54.8v81.1
				c0,30.2,22.7,54.8,50.7,54.8h92c15.3,0,27.8,13.5,27.8,30c0,16.6-12.5,30-27.8,30h-92c-27.9,0-50.7,24.6-50.7,54.8
				s22.7,54.8,50.7,54.8h87.8c15.2,0,27.6,13.4,27.6,29.9v21.4H397.7c-19,0-34.6,16.8-34.6,37.4v170.9c0,20.6,15.5,37.4,34.6,37.4
				h568.4c19,0,34.6-16.8,34.6-37.4v-87H1178c25.4,0,46-22.3,46-49.8V578.8C1224,551.3,1203.4,529,1178,529L1178,529z M448.6,802.3
				c0-3.5,2.6-6.3,5.8-6.3h249.7c3.2,0,5.8,2.8,5.8,6.3v175.8c0,3.5-2.6,6.3-5.8,6.3H454.5c-3.2,0-5.8-2.8-5.8-6.3V802.3z
				 M501.7,1213.3h-87.8c-15.2,0-27.6-13.4-27.6-29.9c0-16.5,12.4-29.9,27.6-29.9h92c28,0,50.8-24.6,50.8-54.9
				c0-30.3-22.8-54.9-50.8-54.9h-92c-15.2,0-27.6-13.4-27.6-29.9v-81.1c0-16.5,12.4-29.9,27.6-29.9h11.7v75.4
				c0,17.2,12.9,31.2,28.8,31.2h171.1v280.2h-73.2v-21.4C552.4,1237.9,529.7,1213.3,501.7,1213.3z M648.6,648.9v-70.1
				c0-13.7,10.3-24.9,23-24.9H1178c12.7,0,23,11.2,23,24.9v70.1H648.6z"/>
			<path class="st64" d="M718.3,1092.9c0-6.9-5.2-12.5-11.5-12.5c-6.4,0-11.5,5.6-11.5,12.5v0.4c0,6.9,5.2,12.5,11.5,12.5
				c6.4,0,11.5-5.6,11.5-12.5V1092.9z"/>
			<path class="st64" d="M706.8,1193.3c-6.4,0-11.5,5.6-11.5,12.5v0.4c0,6.9,5.2,12.5,11.5,12.5c6.4,0,11.5-5.6,11.5-12.5v-0.4
				C718.3,1198.9,713.1,1193.3,706.8,1193.3z"/>
			<path class="st52" d="M439.5,1364.1c0-6.9-5.2-12.5-11.5-12.5c-6.4,0-11.5,5.6-11.5,12.5v0.3c0,6.9,5.2,12.5,11.5,12.5
				c6.4,0,11.5-5.6,11.5-12.5V1364.1z"/>
			<path class="st52" d="M495.9,1364.1c0-6.9-5.2-12.5-11.5-12.5c-6.4,0-11.5,5.6-11.5,12.5v0.3c0,6.9,5.2,12.5,11.5,12.5
				c6.4,0,11.5-5.6,11.5-12.5V1364.1z"/>
			<path class="st52" d="M540.9,1376.8c6.4,0,11.5-5.6,11.5-12.5v-0.3c0-6.9-5.2-12.5-11.5-12.5s-11.5,5.6-11.5,12.5v0.3
				C529.4,1371.2,534.5,1376.8,540.9,1376.8z"/>
			<path class="st52" d="M608.8,1364.4v-0.3c0-6.9-5.2-12.5-11.5-12.5c-6.4,0-11.5,5.6-11.5,12.5v0.3c0,6.9,5.2,12.5,11.5,12.5
				C603.7,1376.8,608.8,1371.2,608.8,1364.4z"/>
			<path class="st52" d="M665.3,1364.4v-0.3c0-6.9-5.2-12.5-11.5-12.5c-6.4,0-11.5,5.6-11.5,12.5v0.3c0,6.9,5.2,12.5,11.5,12.5
				C660.1,1376.8,665.3,1371.2,665.3,1364.4z"/>
			<path class="st52" d="M721.7,1364.4v-0.3c0-6.9-5.2-12.5-11.5-12.5s-11.5,5.6-11.5,12.5v0.3c0,6.9,5.2,12.5,11.5,12.5
				S721.7,1371.2,721.7,1364.4z"/>
			<path class="st52" d="M778.1,1364.4v-0.3c0-6.9-5.2-12.5-11.5-12.5c-6.4,0-11.5,5.6-11.5,12.5v0.3c0,6.9,5.2,12.5,11.5,12.5
				C773,1376.8,778.1,1371.2,778.1,1364.4z"/>
			<path class="st52" d="M823,1376.8c6.4,0,11.5-5.6,11.5-12.5v-0.3c0-6.9-5.2-12.5-11.5-12.5c-6.4,0-11.5,5.6-11.5,12.5v0.3
				C811.5,1371.2,816.7,1376.8,823,1376.8z"/>
			<path class="st52" d="M879.5,1376.8c6.4,0,11.5-5.6,11.5-12.5v-0.3c0-6.9-5.2-12.5-11.5-12.5c-6.4,0-11.5,5.6-11.5,12.5v0.3
				C868,1371.2,873.1,1376.8,879.5,1376.8z"/>
			<path class="st52" d="M935.9,1376.8c6.4,0,11.5-5.6,11.5-12.5v-0.3c0-6.9-5.2-12.5-11.5-12.5c-6.4,0-11.5,5.6-11.5,12.5v0.3
				C924.4,1371.2,929.6,1376.8,935.9,1376.8z"/>
			<path class="st52" d="M444.7,1412.1v0.3c0,6.9,5.2,12.5,11.5,12.5s11.5-5.6,11.5-12.5v-0.3c0-6.9-5.2-12.5-11.5-12.5
				S444.7,1405.3,444.7,1412.1z"/>
			<path class="st52" d="M501.1,1412.1v0.3c0,6.9,5.2,12.5,11.5,12.5s11.5-5.6,11.5-12.5v-0.3c0-6.9-5.2-12.5-11.5-12.5
				S501.1,1405.3,501.1,1412.1z"/>
			<path class="st52" d="M580.6,1412.4v-0.3c0-6.9-5.2-12.5-11.5-12.5s-11.5,5.6-11.5,12.5v0.3c0,6.9,5.2,12.5,11.5,12.5
				S580.6,1419.3,580.6,1412.4z"/>
			<path class="st52" d="M637,1412.4v-0.3c0-6.9-5.2-12.5-11.5-12.5c-6.4,0-11.5,5.6-11.5,12.5v0.3c0,6.9,5.2,12.5,11.5,12.5
				C631.9,1424.9,637,1419.3,637,1412.4z"/>
			<path class="st52" d="M682,1399.7c-6.4,0-11.5,5.6-11.5,12.5v0.3c0,6.9,5.2,12.5,11.5,12.5s11.5-5.6,11.5-12.5v-0.3
				C693.5,1405.3,688.3,1399.7,682,1399.7z"/>
			<path class="st52" d="M749.9,1412.4v-0.3c0-6.9-5.2-12.5-11.5-12.5s-11.5,5.6-11.5,12.5v0.3c0,6.9,5.2,12.5,11.5,12.5
				S749.9,1419.3,749.9,1412.4z"/>
			<path class="st52" d="M806.3,1412.4v-0.3c0-6.9-5.2-12.5-11.5-12.5c-6.4,0-11.5,5.6-11.5,12.5v0.3c0,6.9,5.2,12.5,11.5,12.5
				C801.2,1424.9,806.3,1419.3,806.3,1412.4z"/>
			<path class="st52" d="M862.8,1412.4v-0.3c0-6.9-5.2-12.5-11.5-12.5c-6.4,0-11.5,5.6-11.5,12.5v0.3c0,6.9,5.2,12.5,11.5,12.5
				C857.6,1424.9,862.8,1419.3,862.8,1412.4z"/>
			<path class="st52" d="M919.2,1412.4v-0.3c0-6.9-5.2-12.5-11.5-12.5c-6.4,0-11.5,5.6-11.5,12.5v0.3c0,6.9,5.2,12.5,11.5,12.5
				C914.1,1424.9,919.2,1419.3,919.2,1412.4z"/>
			<path class="st52" d="M428,1447.8c-6.4,0-11.5,5.6-11.5,12.5v0.3c0,6.9,5.2,12.5,11.5,12.5c6.4,0,11.5-5.6,11.5-12.5v-0.3
				C439.5,1453.3,434.4,1447.8,428,1447.8z"/>
			<path class="st52" d="M484.4,1447.8c-6.4,0-11.5,5.6-11.5,12.5v0.3c0,6.9,5.2,12.5,11.5,12.5c6.4,0,11.5-5.6,11.5-12.5v-0.3
				C495.9,1453.3,490.8,1447.8,484.4,1447.8z"/>
			<path class="st52" d="M529.4,1460.5c0,6.9,5.2,12.5,11.5,12.5h225.7c6.4,0,11.5-5.6,11.5-12.5s-5.2-12.5-11.5-12.5H540.9
				C534.5,1448,529.4,1453.6,529.4,1460.5z"/>
			<path class="st52" d="M811.5,1460.5c0,6.9,5.2,12.5,11.5,12.5c6.4,0,11.5-5.6,11.5-12.5v-0.3c0-6.9-5.2-12.5-11.5-12.5
				c-6.4,0-11.5,5.6-11.5,12.5V1460.5z"/>
			<path class="st52" d="M868,1460.5c0,6.9,5.2,12.5,11.5,12.5c6.4,0,11.5-5.6,11.5-12.5v-0.3c0-6.9-5.2-12.5-11.5-12.5
				c-6.4,0-11.5,5.6-11.5,12.5V1460.5z"/>
			<path class="st52" d="M924.4,1460.5c0,6.9,5.2,12.5,11.5,12.5c6.4,0,11.5-5.6,11.5-12.5v-0.3c0-6.9-5.2-12.5-11.5-12.5
				c-6.4,0-11.5,5.6-11.5,12.5V1460.5z"/>
		</g>
	</g>
</g>
</svg>
