<?xml version="1.0" encoding="utf-8"?>
<!-- Generator: Adobe Illustrator 24.3.0, SVG Export Plug-In . SVG Version: 6.00 Build 0)  -->
<svg version="1.1" id="Layer_1" xmlns:svgjs="http://svgjs.com/svgjs"
	 xmlns="http://www.w3.org/2000/svg" xmlns:xlink="http://www.w3.org/1999/xlink" x="0px" y="0px" viewBox="0 0 1728 2160"
	 style="enable-background:new 0 0 1728 2160;" xml:space="preserve">
<style type="text/css">
	.st0{fill:url(#SVGID_1_);}
	.st1{opacity:0.63;}
	.st2{fill:#FFA800;}
	.st3{fill:#FFA800;stroke:#FFA800;stroke-width:18;stroke-miterlimit:10;}
	.st4{opacity:0.99;}
	.st5{fill:#FFF800;}
	.st6{fill:#F9FF00;}
	.st7{fill:none;}
	.st8{fill:url(#SVGID_2_);}
	.st9{opacity:0.56;}
	.st10{fill:#EFEB61;}
	.st11{fill:#F1E912;}
	.st12{fill:#FFFFFF;}
	.st13{fill:#231F20;}
	.st14{fill:#2A719B;}
	.st15{fill:#FF7EB8;}
	.st16{fill:url(#SVGID_3_);}
	.st17{opacity:0.7;}
	.st18{fill:#77848C;}
	.st19{fill:#A0A0A0;}
	.st20{fill:#B1B1B1;}
	.st21{fill:#787878;}
	.st22{fill:#596369;}
	.st23{fill:#1DE9B6;}
	.st24{fill:#686868;}
	.st25{fill:#4F565A;}
	.st26{fill:#586267;}
	.st27{fill:#FFFA52;}
	.st28{fill:#A2ADB3;}
	.st29{fill:#333333;}
	.st30{fill:url(#SVGID_4_);}
	.st31{fill:#FFA800;stroke:#FFA800;stroke-width:8.1507;stroke-miterlimit:10;}
	.st32{fill:#FFA800;stroke:#FFA800;stroke-width:4.5282;stroke-miterlimit:10;}
	.st33{fill:#FFA800;stroke:#FFA800;stroke-width:1.8113;stroke-miterlimit:10;}
	.st34{fill:#F9FF00;stroke:#000000;stroke-width:16.4838;stroke-miterlimit:10;}
	.st35{fill:#FFA800;stroke:#000000;stroke-width:16.4838;stroke-miterlimit:10;}
	.st36{stroke:#000000;stroke-width:16.4838;stroke-miterlimit:10;}
	.st37{fill:#444444;stroke:#000000;stroke-width:16.4838;stroke-miterlimit:10;}
	.st38{fill:#3F3F51;stroke:#000000;stroke-width:16.4838;stroke-miterlimit:10;}
	.st39{fill:url(#SVGID_5_);}
	.st40{opacity:0.23;fill:#FFD100;stroke:#FFA800;stroke-miterlimit:10;enable-background:new    ;}
	.st41{fill:#FFA800;stroke:#FFA800;stroke-width:8.3823;stroke-miterlimit:10;}
	.st42{fill:#FFB531;stroke:#FFA800;stroke-miterlimit:10;}
	.st43{fill:#FFA800;stroke:#FFA800;stroke-miterlimit:10;}
	.st44{fill:#FFE100;stroke:#FFA800;stroke-miterlimit:10;}
	.st45{fill:#D2DEFF;stroke:#FFA800;stroke-width:8.3823;stroke-miterlimit:10;}
	.st46{fill:#97FFD2;stroke:#FFA800;stroke-width:8.3823;stroke-miterlimit:10;}
	.st47{fill:#FFFFFF;stroke:#FFA800;stroke-width:8.3823;stroke-miterlimit:10;}
	.st48{opacity:0.99;fill:#FFB531;stroke:#FFA800;stroke-miterlimit:10;}
	.st49{fill:#FFA800;stroke:#FFA800;stroke-width:12;stroke-miterlimit:10;}
	.st50{opacity:0.23;fill:#FFD100;enable-background:new    ;}
	.st51{fill:#FFF800;stroke:#000000;stroke-width:8.3823;stroke-miterlimit:10;}
	.st52{fill:#FFE100;stroke:#000000;stroke-width:8.3823;stroke-miterlimit:10;}
	.st53{fill:#FFA800;stroke:#000000;stroke-width:8.3823;stroke-miterlimit:10;}
	.st54{fill:#6583FE;stroke:#000000;stroke-width:8.3823;stroke-miterlimit:10;}
	.st55{fill:#FFE100;}
	.st56{fill:#FFB531;}
	.st57{fill:#D2DEFF;stroke:#000000;stroke-width:8.3823;stroke-miterlimit:10;}
	.st58{fill:#97FFD2;stroke:#000000;stroke-width:8.3823;stroke-miterlimit:10;}
	.st59{fill:#FFFFFF;stroke:#000000;stroke-width:8.3823;stroke-miterlimit:10;}
	.st60{fill:#FFFFFF;stroke:#231F20;stroke-width:8.3823;stroke-miterlimit:10;}
	.st61{opacity:0.99;fill:#FFFB5C;}
	.st62{fill:#FFFF03;stroke:#000000;stroke-width:8.3823;stroke-miterlimit:10;}
	.st63{fill:#231F20;stroke:#231F20;stroke-width:0.9314;stroke-miterlimit:10;}
	.st64{fill:#FFE100;stroke:#231F20;stroke-width:8.3823;stroke-miterlimit:10;}
	.st65{fill:url(#SVGID_6_);}
	.st66{fill:#338DBF;}
	.st67{fill:#5CA4CC;}
	.st68{fill:#BEBEBE;}
	.st69{fill:#70D6B1;}
	.st70{fill:#00B378;}
	.st71{fill:#BDBA14;}
	.st72{fill:#EFEF26;}
</style>
<g>
	<rect y="1486.3" class="st7" width="1728" height="654.2"/>
	<rect class="st7" width="1728" height="1475.8"/>
	
		<linearGradient id="SVGID_1_" gradientUnits="userSpaceOnUse" x1="105.3077" y1="885.8867" x2="1479.4482" y2="1679.2485" gradientTransform="matrix(1 0 0 -1 0 2162)">
		<stop  offset="0" style="stop-color:#F9FF00;stop-opacity:0.1"/>
		<stop  offset="0.459" style="stop-color:#F7EC13;stop-opacity:0.67"/>
		<stop  offset="0.7656" style="stop-color:#F9FF00"/>
	</linearGradient>
	<path class="st0" d="M1391.1,432.6c-104.1-50.4-335.6-144.5-626.6-114.4c-50.9,5.3-474.3,49.1-589.2,283.7
		c-13.1,26.7-38.7,77.5-31.4,142.2c14.8,132.1,146.2,152.2,178.5,262.3C369,1165,136,1258.2,185.7,1396.7
		c45.6,127.3,283.2,162.6,330.4,169.6c50,7.4,320.6,49.8,407.9-81.8c60.7-91.4-15.7-193.5,63.2-277.8
		c23.7-25.3,67.8-39.7,155.1-67.5c179.2-57,203.5-34.2,277.7-77.3c22-12.8,131-79.3,166.1-211.2c25.4-95.2-1.1-174.6-10.4-201.3
		C1535.3,533.3,1451.5,461.8,1391.1,432.6z"/>
	<g class="st17">
		<path class="st2" d="M1073.2,1272.8h80.6v77.6h-80.6V1272.8z"/>
		<path class="st2" d="M1113.5,1272.8h40.3v77.6h-40.3V1272.8z"/>
		<path class="st2" d="M1153.8,1179.7v93.1h-80.6H965.7c-29.7,0-53.7-27.8-53.7-62.1v-31h107.5h53.7c14.8,0,26.9-14,26.9-31V931.5
			h53.7V1179.7z"/>
		<path class="st2" d="M1032.8,1117.7v46.5c0,8.5-6,15.5-13.4,15.5H911.9h-26.9c-7.4,0-13.4-7-13.4-15.5v-46.5
			c0-8.5,6-15.5,13.4-15.5h67.2h67.2C1026.8,1102.2,1032.8,1109.2,1032.8,1117.7z"/>
		<path class="st2" d="M1032.8,1117.7v46.5c0,8.5-6,15.5-13.4,15.5H885.1c-7.4,0-13.4-7-13.4-15.5v-15.5h94.1
			c7.4,0,13.4-7,13.4-15.5v-31h40.3C1026.8,1102.2,1032.8,1109.2,1032.8,1117.7z"/>
		<path class="st2" d="M952.2,1055.6c7.4,0,13.4-7,13.4-15.5c0-8.5-6-15.5-13.4-15.5s-13.4,7-13.4,15.5
			C938.8,1048.6,944.8,1055.6,952.2,1055.6z M1004.2,1024.6c7.4,33.2-9.9,67-38.6,75.6c-4.4,1.4-9,2-13.4,2
			c-23.9,0-45.8-18.6-52-46.5c-7.4-33.2,9.9-67,38.6-75.6C967.6,971.5,996.8,991.6,1004.2,1024.6z"/>
		<path class="st2" d="M1016.6,892.9c7.4,33.2-9.9,67-38.7,75.6l-39.1,11.6l-39,11.5c-28.8,8.5-58-11.5-65.4-44.7l-6.7-29.9
			l182.2-54L1016.6,892.9z"/>
		<path class="st2" d="M977.9,968.4l-39.1,11.6l-39,11.5c-6.6,2-13.3,2.5-19.8,1.6l30.6-9.2c28.8-8.5,46.1-42.4,38.7-75.6l-5.8-25.8
			l66.2-19.7l6.7,29.9C1024,926.1,1006.6,959.9,977.9,968.4L977.9,968.4z"/>
		<path class="st2" d="M671.7,402.5l13.3,60.2l-104,30.9l-13.4-60.2L671.7,402.5z"/>
		<path class="st2" d="M685,462.7l-104,30.9c-3.6-16.3,4.9-32.9,18.9-37.1l18.4-5.5c7.2-2.1,11.5-10.5,9.7-18.8l-3.4-15.7l47.2-14
			L685,462.7z"/>
		<path class="st2" d="M451.3,652.3c12.9,27.1,26.9,65.6,38.3,116.7c15.9,71.4,16.8,124.1,13.7,155.3
			c-15.7-25.6-36.9-72.3-52.8-143.8c-12-53.7-15.5-96.8-15.2-128.1l-0.7-3.3l14.9-4.3L451.3,652.3z"/>
		<path class="st2" d="M527.9,1004.7c-1.9,1.2-3.9,2.2-6,2.8c-39.5,11.8-94.7-83-123.3-211.6c-10.2-45.9-15.7-90-16.7-128.1l1.1-9.6
			c8.5,1.6,17.3,1.1,26.2-1.6l25.5-7.6l0.7,3.3c-0.3,31.3,3.2,74.5,15.2,128.1c15.9,71.5,37.1,118.2,52.8,143.8
			c3.1-31.2,2.1-83.9-13.7-155.3c-11.4-51-25.4-89.5-38.3-116.7l-1.7-7.6l53.5-16l1.7,8.1c14.2,33,27.1,72.9,36.8,116.7
			C568.8,875.2,562.2,983.6,527.9,1004.7z"/>
		<path class="st2" d="M684.9,710.9c28.5,128.5,19.8,242-19.5,254.1c-0.1,0.2-0.1,0.2-0.3,0.2l-136.6,40.5l-0.5-0.9
			c34.3-21.1,40.8-129.5,13.7-251.3c-9.7-43.8-22.6-83.6-36.8-116.7l-1.7-8.1l142.4-42.2l0.8,3.7C661.2,624,674.7,665.4,684.9,710.9
			L684.9,710.9z"/>
		<path class="st2" d="M516.9,667.6c50.8-2.9,101.5-9.1,152.2-15.5c-7-22.5-14.6-43.4-22.8-61.9l-0.8-3.7l-142.4,42.2l1.8,8.1
			C509,646.4,513,656.8,516.9,667.6z"/>
		<path class="st2" d="M539.4,744.4c0.7,3,1.5,5.9,2.2,9c2.1,9.2,3.8,18.3,5.5,27.4c48.4-10.8,97.5-16.9,146.2-25.2
			c-1.4-9-3.1-18.1-4.9-27.3C638.8,734.4,589.2,740.6,539.4,744.4z"/>
		<path class="st2" d="M557.1,858.3c5.1,74.5-5.3,131.7-29.2,146.4l0.5,0.9l136.6-40.5c0.1,0,0.1,0,0.3-0.2
			c25.9-8,38.4-60.4,35.8-132.1C653.1,840.9,604.7,847.2,557.1,858.3L557.1,858.3z"/>
		<path class="st2" d="M1009.9,862.9l-182.2,54L665.4,965c39.2-12.1,48-125.7,19.5-254.1c-10.2-45.5-23.6-86.9-38.6-120.7l-0.8-3.7
			l36.9-11c5.5-1.7,11.2-2.5,16.7-2.5c30,0,57.4,23.3,65.2,58.3c9.1,41.6,45.8,66.6,81.7,55.9l247.4-73.4v0.2l20,90.1
			c14.8,66.4-19.9,134-77.4,151.1L1009.9,862.9z"/>
		<path class="st2" d="M1082.4,825.9c1.5-14.4,0.7-29.3-2.7-44.2l-6.7-30c-7.4-33.2-36.7-53.2-65.4-44.7l-195.3,57.8
			c-35.9,10.7-72.6-14.3-81.7-55.9c-7.5-33.8-33.3-56.6-61.9-58.2c-6.9-22-14.4-42.4-22.4-60.5l-0.8-3.7l36.9-11
			c5.5-1.7,11.2-2.5,16.7-2.5c30,0,57.4,23.3,65.2,58.3c9.1,41.6,45.8,66.6,81.7,55.9l247.4-73.4v0.2l20,90.1
			C1123.5,749.7,1110.4,795.9,1082.4,825.9L1082.4,825.9z"/>
		<path class="st2" d="M1135.2,553.3l10.1,45.1l-52,15.4L846,687.2c-35.9,10.7-72.6-14.3-81.7-55.9c-7.8-35.1-35.2-58.3-65.2-58.3
			c-5.5,0-11.2,0.8-16.7,2.5l-36.9,11l-142.4,42.2l-53.5,16l-14.9,4.3l-25.5,7.6c-8.9,2.6-17.7,3.1-26.2,1.6
			c-26.2-4.2-48.6-26.2-55.6-57.4l-6.6-30.1L581,493.5l104-30.9L906.3,397C1006.9,367.1,1109.4,437.2,1135.2,553.3L1135.2,553.3z"/>
		<path class="st2" d="M1145.3,598.4l-52,15.4L846,687.2c-34.4,10.2-69.5-12.3-80.3-50.6l233.6-69.3l12.9-3.8
			c21.6-6.4,34.6-31.8,29-56.7c-10.5-47-33.5-86.4-64-114.8c73.9,11,138.4,72.9,158,161.3L1145.3,598.4z"/>
		<g>
			<path class="st2" d="M576,693.6c-17.3,0-17.3,31,0,31C593.3,724.7,593.4,693.6,576,693.6z"/>
			<path class="st2" d="M596.2,732.4c-8.6,0-8.7,15.5,0,15.5C604.8,747.9,604.9,732.4,596.2,732.4z"/>
		</g>
		<g>
			<ellipse class="st2" cx="952.2" cy="1040.1" rx="13.4" ry="15.5"/>
			<g>
				<path class="st2" d="M992.5,659.3c1.1,0,2.2-0.2,3.4-0.5l26.9-8c7.2-2.1,11.5-10.6,9.7-18.9c-1.9-8.3-9.2-13.2-16.4-11.2
					l-26.9,8c-7.2,2.1-11.5,10.6-9.7,18.9C981.1,654.6,986.5,659.3,992.5,659.3z"/>
				<path class="st2" d="M1153.8,916H1100c-7.4,0-13.4,6.9-13.4,15.5v217.2c0,8.6-6,15.5-13.4,15.5h-26.9v-46.5
					c0-17.1-12-31-26.9-31h-13.9c1.5-2.3,3.2-4.5,4.5-7.1c9.1-17.9,11.7-38.8,7.3-58.9c-3.9-17.6-13-32-24.7-42.2
					c28.9-15.4,45.2-52.8,37-89.7l-3.3-15l13-3.9c31.3-9.3,57.6-32.1,74.1-64.3c16.5-32.2,21.1-69.8,13-105.9l-16.7-75.2l39.1-11.6
					c7.2-2.1,11.5-10.6,9.7-18.9l-10-45.1c-27.7-124.4-137.9-199.7-245.6-167.7L694.3,443l-10-45.1c-1.9-8.3-9.2-13.2-16.4-11.2
					l-104.2,30.9c-3.5,1-6.4,3.6-8.2,7.1c-1.8,3.5-2.3,7.8-1.5,11.8l10,45.1L316.5,555c-7.2,2.1-11.5,10.6-9.7,18.9l6.7,30.1
					c7.2,32.4,28.4,56.4,54.3,65.7c1.2,40.1,7,84.9,17,129.7c14.2,63.9,35.4,122,59.5,163.5c28.3,48.5,52.5,61.1,70.1,61.1
					c3.7,0,7.2-0.6,10.3-1.5c1.4-0.4,2.9-1,4.3-1.6c0.7-0.1,1.5-0.1,2.2-0.3L667.9,980h0.3h0l149.8-44.4l3.3,15
					c7.8,35,35.2,58.4,65.2,58.4c1.5,0,3.1-0.2,4.7-0.3c-6.2,16-7.8,33.6-4,50.8c2.3,10.2,6.4,19.3,11.6,27.3h-13.8
					c-14.8,0-26.9,13.9-26.9,31v46.5c0,17.1,12,31,26.9,31h13.4v15.5c0,42.8,30.1,77.6,67.2,77.6h94.1v62.1c0,8.6,6,15.5,13.4,15.5
					h80.6c7.4,0,13.4-6.9,13.4-15.5v-77.6V920.7C1167.2,912.3,1157.8,909,1153.8,916L1153.8,916z M917.5,1016.4
					c5.5-10.7,14.2-18.3,24.7-21.4c3.3-1,6.7-1.5,10.1-1.5c7.1,0,14.1,2.2,20.4,6.5c9.3,6.3,15.9,16.4,18.5,28.5
					c2.7,12,1.1,24.6-4.3,35.3c-5.5,10.7-14.2,18.3-24.7,21.4c-10.4,3.1-21.3,1.3-30.5-5c-9.3-6.3-15.9-16.4-18.5-28.5
					C910.5,1039.6,912.1,1027.1,917.5,1016.4L917.5,1016.4z M583.9,444.6l78.1-23.1l6.7,30.1l-78.1,23.2L583.9,444.6z M340.1,597.2
					l-3.3-15l247.5-73.4h-2.4l105.1-31.2c0,0,0,0,0,0l223.2-66.2c94.1-28,190.4,37.8,214.6,146.5l6.8,30.3l-39.4,11.7h-2.2
					c0,0,0,0,0,0l-24.7,7.3c-7.2,2.1-11.5,10.6-9.6,18.8c1.9,8.3,9.2,13.2,16.3,11.1l11.8-3.5l16.7,74.9
					c12.9,57.8-17.4,117-67.5,131.8l-25.9,7.7c0,0,0.3,0,0.2,0s0,0,0,0l-183,54.3c0,0,0.6,0,0.6,0c0,0,0,0,0,0l-120.9,35.9
					c18-53.2,13.2-146-5.7-230.8c-8.8-39.6-20.6-77.2-34-110.1l21.9-6.5c28.7-8.5,58.1,11.5,65.5,44.7c5.4,24.1,18.5,44.4,37.1,57
					c12.6,8.6,26.7,13,40.9,13c6.7,0,13.5-1,20.2-3l92.9-27.5c7.2-2.1,11.5-10.6,9.7-18.9c-1.9-8.3-9.2-13.3-16.4-11.2l-92.9,27.5
					c-13.9,4.1-28.4,1.8-40.8-6.7c-12.4-8.4-21.1-21.9-24.7-38c-11.1-49.8-55.2-79.8-98.2-67.1l-273.5,81.1
					C376.8,650.4,347.5,630.3,340.1,597.2L340.1,597.2z M560.7,980c4.6-13.7,8.2-31.3,10-54.3c3.9-49.7-1.8-112.3-16-176.1
					c-8.8-39.5-20.5-77.1-33.9-110.1l116.6-34.6c13.6,32.4,25.5,70,34.4,109.9c30,135,14.4,228-10.1,235.3L560.7,980z M467.3,945.7
					c-22.5-38.6-42.3-93.1-55.7-153.7c-9.1-40.7-14.4-81.1-15.8-117.6c5.6-0.3,11.2-1.1,16.8-2.8l9.7-2.9
					c0.8,27.5,4.4,66.4,15.3,115.6c18.1,81.3,42.1,128.2,54.9,148.9c2.6,4.2,6.7,6.5,11,6.5c1.1,0,2.2-0.2,3.3-0.5
					c5.4-1.6,9.4-6.9,10-13.2c2.5-25.2,4-79.6-14.1-161c-9.1-41-21.2-78.4-35-109.8l26.6-7.9c13.6,32.3,25.5,70.2,34.3,109.9
					c13.5,60.5,18.9,119.4,15.3,165.7c-3,39.2-12.8,65.8-25.4,69.6C506,996.3,486.3,978.3,467.3,945.7L467.3,945.7z M449.8,683.3
					c8.6,21.7,18.4,51.4,26.8,89.5c8.3,37.5,12.3,68.7,13.9,93.5c-9-22.6-18.5-52.1-26.9-89.6C455.2,738.7,451.3,707.4,449.8,683.3z
					 M847.4,943.1l-3.3-15l156.2-46.3l3.3,15c5.5,24.9-7.5,50.3-29,56.7l-78.1,23.2C875,982.9,852.9,967.9,847.4,943.1z
					 M885.1,1117.7h67.1h0.1h0.1h67.1l0,46.5H911.9h-26.9V1117.7z M925.4,1210.8v-15.5h94.1h53.7c22.2,0,40.3-20.9,40.3-46.5V947
					h26.9v310.3h-67.2H965.7C943.4,1257.3,925.4,1236.4,925.4,1210.8z M1140.3,1334.9h-53.7v-46.5h53.7V1334.9z"/>
			</g>
		</g>
	</g>
	<g>
		<path class="st2" d="M1099.5,1272.8h80.6v77.6h-80.6V1272.8z"/>
		<path class="st18" d="M1139.8,1272.8h40.3v77.6h-40.3V1272.8z"/>
		<path class="st19" d="M1180.1,1179.7v93.1h-80.6H992c-29.7,0-53.7-27.8-53.7-62.1v-31h107.5h53.7c14.8,0,26.9-14,26.9-31V931.5
			h53.7V1179.7z"/>
		<path class="st2" d="M1059.2,1117.6v46.5c0,8.5-6,15.5-13.4,15.5H938.3h-26.9c-7.4,0-13.4-7-13.4-15.5v-46.5
			c0-8.5,6-15.5,13.4-15.5h67.2h67.2C1053.2,1102.1,1059.2,1109.1,1059.2,1117.6z"/>
		<path class="st18" d="M1059.2,1117.6v46.5c0,8.5-6,15.5-13.4,15.5H911.4c-7.4,0-13.4-7-13.4-15.5v-15.5H992
			c7.4,0,13.4-7,13.4-15.5v-31h40.3C1053.2,1102.1,1059.2,1109.1,1059.2,1117.6z"/>
		<path class="st18" d="M978.6,1055.6c7.4,0,13.4-7,13.4-15.5s-6-15.5-13.4-15.5s-13.4,7-13.4,15.5S971.2,1055.6,978.6,1055.6z
			 M1030.6,1024.5c7.4,33.2-9.9,67-38.6,75.6c-4.4,1.4-9,2-13.4,2c-23.9,0-45.8-18.6-52-46.5c-7.4-33.2,9.9-67,38.6-75.6
			C993.9,971.5,1023.2,991.5,1030.6,1024.5z"/>
		<path class="st20" d="M1043,892.8c7.4,33.2-9.9,67-38.7,75.6L965.2,980l-39,11.5c-28.8,8.5-58-11.5-65.4-44.7l-6.7-29.9l182.2-54
			L1043,892.8z"/>
		<path class="st21" d="M1004.3,968.4L965.2,980l-39,11.5c-6.6,2-13.3,2.5-19.8,1.6l30.6-9.2c28.8-8.5,46.1-42.4,38.7-75.6
			l-5.8-25.8l66.2-19.7l6.7,29.9C1050.3,926,1033,959.8,1004.3,968.4L1004.3,968.4z"/>
		<path class="st18" d="M698.1,402.4l13.3,60.2l-104,30.9l-13.4-60.2L698.1,402.4z"/>
		<path class="st22" d="M711.4,462.6l-104,30.9c-3.6-16.3,4.9-32.9,18.9-37.1l18.4-5.5c7.2-2.1,11.5-10.5,9.7-18.8l-3.4-15.7
			l47.2-14L711.4,462.6z"/>
		<path class="st23" d="M477.7,652.2c12.9,27.1,26.9,65.6,38.3,116.7c15.9,71.4,16.8,124.1,13.7,155.3
			c-15.7-25.6-36.9-72.3-52.8-143.8c-12-53.7-15.5-96.8-15.2-128.1l-0.7-3.3l14.9-4.3L477.7,652.2z"/>
		<path class="st19" d="M554.3,1004.7c-1.9,1.2-3.9,2.2-6,2.8c-39.5,11.8-94.7-83-123.3-211.6c-10.2-45.9-15.7-90-16.7-128.1
			l1.1-9.6c8.5,1.6,17.3,1.1,26.2-1.6l25.5-7.6l0.7,3.3c-0.3,31.3,3.2,74.5,15.2,128.1c15.9,71.5,37.1,118.2,52.8,143.8
			c3.1-31.2,2.1-83.9-13.7-155.3c-11.4-51-25.4-89.5-38.3-116.7l-1.7-7.6l53.5-16l1.7,8.1c14.2,33,27.1,72.9,36.8,116.7
			C595.1,875.1,588.6,983.6,554.3,1004.7z"/>
		<path class="st24" d="M711.2,710.8c28.5,128.5,19.8,242-19.5,254.1c-0.1,0.2-0.1,0.2-0.3,0.2l-136.6,40.5l-0.5-0.9
			c34.3-21.1,40.8-129.5,13.7-251.3c-9.7-43.8-22.6-83.6-36.8-116.7l-1.7-8.1l142.4-42.2l0.8,3.7C687.6,624,701,665.4,711.2,710.8
			L711.2,710.8z"/>
		<path class="st25" d="M543.2,667.5c50.8-2.9,101.5-9.1,152.2-15.5c-7-22.5-14.6-43.4-22.8-61.9l-0.8-3.7l-142.4,42.2l1.8,8.1
			C535.4,646.3,539.4,656.8,543.2,667.5z"/>
		<path class="st26" d="M565.8,744.3c0.7,3,1.5,5.9,2.2,9c2.1,9.2,3.8,18.3,5.5,27.4c48.4-10.8,97.5-16.9,146.2-25.2
			c-1.4-9-3.1-18.1-4.9-27.3C665.1,734.4,615.5,740.6,565.8,744.3z"/>
		<path class="st25" d="M583.5,858.3c5.1,74.5-5.3,131.7-29.2,146.4l0.5,0.9l136.6-40.5c0.1,0,0.1,0,0.3-0.2
			c25.9-8,38.4-60.4,35.8-132.1C679.5,840.9,631.1,847.1,583.5,858.3L583.5,858.3z"/>
		<path class="st27" d="M1036.2,862.9l-182.2,54L691.7,965c39.2-12.1,48-125.7,19.5-254.1c-10.2-45.5-23.6-86.9-38.6-120.7l-0.8-3.7
			l36.9-11c5.5-1.7,11.2-2.5,16.7-2.5c30,0,57.4,23.3,65.2,58.3c9.1,41.6,45.8,66.6,81.7,55.9l247.4-73.4v0.2l20,90.1
			c14.8,66.4-19.9,134-77.4,151.1L1036.2,862.9z"/>
		<path class="st28" d="M1108.8,825.8c1.5-14.4,0.7-29.3-2.7-44.2l-6.7-30c-7.4-33.2-36.7-53.2-65.4-44.7l-195.3,57.8
			c-35.9,10.7-72.6-14.3-81.7-55.9c-7.5-33.8-33.3-56.6-61.9-58.2c-6.9-22-14.4-42.4-22.4-60.5l-0.8-3.7l36.9-11
			c5.5-1.7,11.2-2.5,16.7-2.5c30,0,57.4,23.3,65.2,58.3c9.1,41.6,45.8,66.6,81.7,55.9l247.4-73.4v0.2l20,90.1
			C1149.9,749.6,1136.7,795.9,1108.8,825.8L1108.8,825.8z"/>
		<path class="st6" d="M1161.6,553.2l10.1,45.1l-52,15.4l-247.4,73.4c-35.9,10.7-72.6-14.3-81.7-55.9c-7.8-35.1-35.2-58.3-65.2-58.3
			c-5.5,0-11.2,0.8-16.7,2.5l-36.9,11l-142.4,42.2l-53.5,16l-14.9,4.3l-25.5,7.6c-8.9,2.6-17.7,3.1-26.2,1.6
			c-26.2-4.2-48.6-26.2-55.6-57.4l-6.6-30.1l260.3-77.1l104-30.9L932.6,397C1033.3,367,1135.8,437.2,1161.6,553.2L1161.6,553.2z"/>
		<path class="st2" d="M1171.7,598.4l-52,15.4l-247.4,73.4c-34.4,10.2-69.5-12.3-80.3-50.6l233.6-69.3l12.9-3.8
			c21.6-6.4,34.6-31.8,29-56.7c-10.5-47-33.5-86.4-64-114.8c73.9,11,138.4,72.9,158,161.3L1171.7,598.4z"/>
		<g>
			<path class="st12" d="M602.4,693.6c-17.3,0-17.3,31,0,31C619.7,724.6,619.7,693.6,602.4,693.6z"/>
			<path class="st12" d="M622.6,732.4c-8.6,0-8.7,15.5,0,15.5C631.2,747.9,631.2,732.4,622.6,732.4z"/>
		</g>
		<g>
			<ellipse class="st29" cx="978.6" cy="1040.1" rx="13.4" ry="15.5"/>
			<g>
				<path d="M1018.9,659.2c1.1,0,2.2-0.2,3.4-0.5l26.9-8c7.2-2.1,11.5-10.6,9.7-18.9c-1.9-8.3-9.2-13.2-16.4-11.2l-26.9,8
					c-7.2,2.1-11.5,10.6-9.7,18.9C1007.4,654.5,1012.9,659.2,1018.9,659.2z"/>
				<path d="M1180.1,915.9h-53.7c-7.4,0-13.4,6.9-13.4,15.5v217.2c0,8.6-6,15.5-13.4,15.5h-26.9v-46.5c0-17.1-12-31-26.9-31h-13.9
					c1.5-2.3,3.2-4.5,4.5-7.1c9.1-17.9,11.7-38.8,7.3-58.9c-3.9-17.6-13-32-24.7-42.2c28.9-15.4,45.2-52.8,37-89.7l-3.3-15l13-3.9
					c31.3-9.3,57.6-32.1,74.1-64.3s21.1-69.8,13-105.9l-16.7-75.2l39.1-11.6c7.2-2.1,11.5-10.6,9.7-18.9l-10-45.1
					c-27.7-124.4-137.9-199.7-245.6-167.7l-208.4,61.8l-10-45.1c-1.9-8.3-9.2-13.2-16.4-11.2L590,417.5c-3.5,1-6.4,3.6-8.2,7.1
					c-1.8,3.5-2.3,7.8-1.5,11.8l10,45.1L342.9,555c-7.2,2.1-11.5,10.6-9.7,18.9l6.7,30.1c7.2,32.4,28.4,56.4,54.3,65.7
					c1.2,40.1,7,84.9,17,129.7c14.2,63.9,35.4,122,59.5,163.5c28.3,48.5,52.5,61.1,70.1,61.1c3.7,0,7.2-0.6,10.3-1.5
					c1.4-0.4,2.9-1,4.3-1.6c0.7-0.1,1.5-0.1,2.2-0.3l136.8-40.6h0.3h0l149.8-44.4l3.3,15c7.8,35,35.2,58.4,65.2,58.4
					c1.5,0,3.1-0.2,4.7-0.3c-6.2,16-7.8,33.6-4,50.8c2.3,10.2,6.4,19.3,11.6,27.3h-13.8c-14.8,0-26.9,13.9-26.9,31v46.5
					c0,17.1,12,31,26.9,31h13.4v15.5c0,42.8,30.1,77.6,67.2,77.6h94.1v62.1c0,8.6,6,15.5,13.4,15.5h80.6c7.4,0,13.4-6.9,13.4-15.5
					v-77.6V920.6C1193.6,912.3,1184.2,909,1180.1,915.9L1180.1,915.9z M943.9,1016.4c5.5-10.7,14.2-18.3,24.7-21.4
					c3.3-1,6.7-1.5,10.1-1.5c7.1,0,14.1,2.2,20.4,6.5c9.3,6.3,15.9,16.4,18.5,28.5c2.7,12,1.1,24.6-4.3,35.3
					c-5.5,10.7-14.2,18.3-24.7,21.4c-10.4,3.1-21.3,1.3-30.5-5c-9.3-6.3-15.9-16.4-18.5-28.5
					C936.9,1039.6,938.4,1027.1,943.9,1016.4L943.9,1016.4z M610.3,444.5l78.1-23.1l6.7,30.1L617,474.6L610.3,444.5z M366.5,597.1
					l-3.3-15l247.5-73.4h-2.4l105.1-31.2c0,0,0,0,0,0l223.2-66.2c94.1-28,190.4,37.8,214.6,146.5l6.8,30.3l-39.4,11.7h-2.2
					c0,0,0,0,0,0l-24.7,7.3c-7.2,2.1-11.5,10.6-9.6,18.8c1.9,8.3,9.2,13.2,16.3,11.1l11.8-3.5l16.7,74.9
					c12.9,57.8-17.4,117-67.5,131.8l-25.9,7.7c0,0,0.3,0,0.2,0c0,0,0,0,0,0l-183,54.3c0,0,0.6,0,0.6,0c0,0,0,0,0,0l-120.9,35.9
					c18-53.2,13.2-146-5.7-230.8c-8.8-39.6-20.6-77.2-34-110.1l21.9-6.5c28.7-8.5,58.1,11.5,65.5,44.7c5.4,24.1,18.5,44.4,37.1,57
					c12.6,8.6,26.7,13,40.9,13c6.7,0,13.5-1,20.2-3l92.9-27.5c7.2-2.1,11.5-10.6,9.7-18.9c-1.9-8.3-9.2-13.3-16.4-11.2l-92.9,27.5
					c-13.9,4.1-28.4,1.8-40.8-6.7c-12.4-8.4-21.1-21.9-24.7-38c-11.1-49.8-55.2-79.8-98.2-67.1l-273.5,81.1
					C403.2,650.3,373.9,630.3,366.5,597.1L366.5,597.1z M587.1,980c4.6-13.7,8.2-31.3,10-54.3c3.9-49.7-1.8-112.3-16-176.1
					c-8.8-39.5-20.5-77.1-33.9-110.1l116.6-34.6c13.6,32.4,25.5,70,34.4,109.9c30,135,14.4,228-10.1,235.3L587.1,980z M493.6,945.6
					c-22.5-38.6-42.3-93.1-55.7-153.7c-9.1-40.7-14.4-81.1-15.8-117.6c5.6-0.3,11.2-1.1,16.8-2.8l9.7-2.9
					c0.8,27.5,4.4,66.4,15.3,115.6c18.1,81.3,42.1,128.2,54.9,148.9c2.6,4.2,6.7,6.5,11,6.5c1.1,0,2.2-0.2,3.3-0.5
					c5.4-1.6,9.4-6.9,10-13.2c2.5-25.2,4-79.6-14.1-161c-9.1-41-21.2-78.4-35-109.8l26.6-7.9c13.6,32.3,25.5,70.2,34.3,109.9
					c13.5,60.5,18.9,119.4,15.3,165.7c-3,39.2-12.8,65.8-25.4,69.6C532.3,996.3,512.6,978.3,493.6,945.6L493.6,945.6z M476.1,683.2
					c8.6,21.7,18.4,51.4,26.8,89.5c8.3,37.5,12.3,68.7,13.9,93.5c-9-22.6-18.5-52.1-26.9-89.6C481.5,738.7,477.7,707.4,476.1,683.2z
					 M873.8,943l-3.3-15l156.2-46.3l3.3,15c5.5,24.9-7.5,50.3-29,56.7l-78.1,23.2C901.3,982.9,879.3,967.9,873.8,943z M911.4,1117.6
					h67.1h0.1h0.1h67.1l0,46.5H938.3h-26.9V1117.6z M951.7,1210.7v-15.5h94.1h53.7c22.2,0,40.3-20.9,40.3-46.5V947h26.9v310.3h-67.2
					H992C969.8,1257.3,951.7,1236.4,951.7,1210.7z M1166.7,1334.8H1113v-46.5h53.7V1334.8z"/>
			</g>
		</g>
	</g>
</g>
</svg>
