<?xml version="1.0" encoding="utf-8"?>
<!-- Generator: Adobe Illustrator 24.3.0, SVG Export Plug-In . SVG Version: 6.00 Build 0)  -->
<svg version="1.1" id="Layer_1" xmlns:svgjs="http://svgjs.com/svgjs"
	 xmlns="http://www.w3.org/2000/svg" xmlns:xlink="http://www.w3.org/1999/xlink" x="0px" y="0px" viewBox="0 0 1728 2160"
	 style="enable-background:new 0 0 1728 2160;" xml:space="preserve">
<style type="text/css">
	.st0{fill:url(#SVGID_1_);}
	.st1{opacity:0.63;}
	.st2{fill:#FFA800;}
	.st3{fill:#FFA800;stroke:#FFA800;stroke-width:18;stroke-miterlimit:10;}
	.st4{opacity:0.99;}
	.st5{fill:#FFF800;}
	.st6{fill:#F9FF00;}
	.st7{fill:none;}
	.st8{fill:url(#SVGID_2_);}
	.st9{opacity:0.56;}
	.st10{fill:#EFEB61;}
	.st11{fill:#F1E912;}
	.st12{fill:#FFFFFF;}
	.st13{fill:#231F20;}
	.st14{fill:#2A719B;}
	.st15{fill:#FF7EB8;}
	.st16{fill:url(#SVGID_3_);}
	.st17{opacity:0.7;}
	.st18{fill:#77848C;}
	.st19{fill:#A0A0A0;}
	.st20{fill:#B1B1B1;}
	.st21{fill:#787878;}
	.st22{fill:#596369;}
	.st23{fill:#1DE9B6;}
	.st24{fill:#686868;}
	.st25{fill:#4F565A;}
	.st26{fill:#586267;}
	.st27{fill:#FFFA52;}
	.st28{fill:#A2ADB3;}
	.st29{fill:#333333;}
	.st30{fill:url(#SVGID_4_);}
	.st31{fill:#FFA800;stroke:#FFA800;stroke-width:8.1507;stroke-miterlimit:10;}
	.st32{fill:#FFA800;stroke:#FFA800;stroke-width:4.5282;stroke-miterlimit:10;}
	.st33{fill:#FFA800;stroke:#FFA800;stroke-width:1.8113;stroke-miterlimit:10;}
	.st34{fill:#F9FF00;stroke:#000000;stroke-width:16.4838;stroke-miterlimit:10;}
	.st35{fill:#FFA800;stroke:#000000;stroke-width:16.4838;stroke-miterlimit:10;}
	.st36{stroke:#000000;stroke-width:16.4838;stroke-miterlimit:10;}
	.st37{fill:#444444;stroke:#000000;stroke-width:16.4838;stroke-miterlimit:10;}
	.st38{fill:#3F3F51;stroke:#000000;stroke-width:16.4838;stroke-miterlimit:10;}
	.st39{fill:url(#SVGID_5_);}
	.st40{opacity:0.23;fill:#FFD100;stroke:#FFA800;stroke-miterlimit:10;enable-background:new    ;}
	.st41{fill:#FFA800;stroke:#FFA800;stroke-width:8.3823;stroke-miterlimit:10;}
	.st42{fill:#FFB531;stroke:#FFA800;stroke-miterlimit:10;}
	.st43{fill:#FFA800;stroke:#FFA800;stroke-miterlimit:10;}
	.st44{fill:#FFE100;stroke:#FFA800;stroke-miterlimit:10;}
	.st45{fill:#D2DEFF;stroke:#FFA800;stroke-width:8.3823;stroke-miterlimit:10;}
	.st46{fill:#97FFD2;stroke:#FFA800;stroke-width:8.3823;stroke-miterlimit:10;}
	.st47{fill:#FFFFFF;stroke:#FFA800;stroke-width:8.3823;stroke-miterlimit:10;}
	.st48{opacity:0.99;fill:#FFB531;stroke:#FFA800;stroke-miterlimit:10;}
	.st49{fill:#FFA800;stroke:#FFA800;stroke-width:12;stroke-miterlimit:10;}
	.st50{opacity:0.23;fill:#FFD100;enable-background:new    ;}
	.st51{fill:#FFF800;stroke:#000000;stroke-width:8.3823;stroke-miterlimit:10;}
	.st52{fill:#FFE100;stroke:#000000;stroke-width:8.3823;stroke-miterlimit:10;}
	.st53{fill:#FFA800;stroke:#000000;stroke-width:8.3823;stroke-miterlimit:10;}
	.st54{fill:#6583FE;stroke:#000000;stroke-width:8.3823;stroke-miterlimit:10;}
	.st55{fill:#FFE100;}
	.st56{fill:#FFB531;}
	.st57{fill:#D2DEFF;stroke:#000000;stroke-width:8.3823;stroke-miterlimit:10;}
	.st58{fill:#97FFD2;stroke:#000000;stroke-width:8.3823;stroke-miterlimit:10;}
	.st59{fill:#FFFFFF;stroke:#000000;stroke-width:8.3823;stroke-miterlimit:10;}
	.st60{fill:#FFFFFF;stroke:#231F20;stroke-width:8.3823;stroke-miterlimit:10;}
	.st61{opacity:0.99;fill:#FFFB5C;}
	.st62{fill:#FFFF03;stroke:#000000;stroke-width:8.3823;stroke-miterlimit:10;}
	.st63{fill:#231F20;stroke:#231F20;stroke-width:0.9314;stroke-miterlimit:10;}
	.st64{fill:#FFE100;stroke:#231F20;stroke-width:8.3823;stroke-miterlimit:10;}
	.st65{fill:url(#SVGID_6_);}
	.st66{fill:#338DBF;}
	.st67{fill:#5CA4CC;}
	.st68{fill:#BEBEBE;}
	.st69{fill:#70D6B1;}
	.st70{fill:#00B378;}
	.st71{fill:#BDBA14;}
	.st72{fill:#EFEF26;}
</style>
<g>
	
		<linearGradient id="SVGID_1_" gradientUnits="userSpaceOnUse" x1="95.5772" y1="837.5353" x2="1506.1429" y2="1651.9272" gradientTransform="matrix(1 0 0 -1 0 2162)">
		<stop  offset="0" style="stop-color:#F9FF00;stop-opacity:0.1"/>
		<stop  offset="0.459" style="stop-color:#F7EC13;stop-opacity:0.67"/>
		<stop  offset="0.7656" style="stop-color:#F9FF00"/>
	</linearGradient>
	<path class="st0" d="M1414.9,457c-106.8-51.9-344.2-148.7-642.7-117.7c-52.2,5.4-486.4,50.5-604.2,291.9
		c-13.4,27.4-39.7,79.8-32.2,146.3c15.2,135.9,149.9,156.6,183.1,269.9c47.8,163.3-191.1,259.2-140.2,401.8
		c46.8,131,290.5,167.3,338.9,174.5c51.3,7.6,328.8,51.2,418.3-84.2c62.2-94.1-16.1-199.1,64.8-285.9
		c24.3-26.1,69.6-40.9,159.1-69.5c183.8-58.7,208.7-35.2,284.8-79.6c22.6-13.2,134.3-81.7,170.3-217.3c26-98-1.1-179.7-10.7-207.1
		C1562.8,560.7,1476.9,487.1,1414.9,457z"/>
</g>
<g>
	<g class="st17">
		<g>
			<path class="st31" d="M1086.4,1279.3H860.2v31.2h0v134.8c0,57.6,50.7,104.2,113.2,104.2s113.2-46.7,113.2-104.2
				C1086.6,1329.3,1086.4,1283.7,1086.4,1279.3z"/>
			<path class="st31" d="M598.1,1279.3c0,70.2,0,56.9,0,166c0,57.6,50.7,104.2,113.2,104.2s113.2-46.7,113.2-104.2
				c0-5.2-0.2-160.9-0.2-166H598.1z"/>
		</g>
		<g>
			<path class="st31" d="M931.2,1445.4v-134.8h0v-31.2h-70.1v31.2h0v134.8c0,57.6,50.7,104.2,113.2,104.2c12.2,0,24-1.8,35-5.1
				C964,1530.9,931.2,1491.7,931.2,1445.4z"/>
			<path class="st31" d="M669,1445.4c0-174.7,0-56.6,0-166H599c0,70.2,0,56.9,0,166c0,57.6,50.7,104.2,113.2,104.2
				c12.2,0,24-1.8,35-5.1C701.9,1530.9,669,1491.7,669,1445.4z"/>
			<path class="st31" d="M695.8,639.5c-9.4,0-18.4-4.6-23.2-12.8l-73.6-126.3c-6.9-11.8-2.1-26.4,10.7-32.7
				c12.8-6.3,28.7-1.9,35.6,9.9L719,603.9c6.9,11.8,2.1,26.4-10.7,32.7C704.3,638.6,700,639.5,695.8,639.5z"/>
		</g>
		<g>
			<path class="st31" d="M979.6,634.9c-12.8-6.3-17.6-21-10.7-32.7l73.6-126.3c6.9-11.8,22.8-16.2,35.6-9.9
				c12.8,6.3,17.6,21,10.7,32.7L1015.1,625C1008.3,636.8,992.3,641.2,979.6,634.9z"/>
			<path class="st31" d="M1282.6,804.4c-58.9,0-106.6,43.9-106.6,98.1c0,36,0,251.4,0,285.5c0,54.2,47.7,98.1,106.6,98.1
				s106.6-43.9,106.6-98.1c0-34.1,0-249.5,0-285.5C1389.2,848.3,1341.5,804.4,1282.6,804.4z"/>
			<path class="st31" d="M402.1,804.4c-58.9,0-106.6,43.9-106.6,98.1c0,34.1,0,249.5,0,285.5c0,54.2,47.7,98.1,106.6,98.1
				s106.6-43.9,106.6-98.1c0-36,0-251.4,0-285.5C508.7,848.3,460.9,804.4,402.1,804.4z"/>
		</g>
		<g>
			<path class="st31" d="M591.8,1367.1c8.5,0,509.7,0,501.1,0c32.4,0,58.6-24.2,58.6-54v-447c0-4.4-3.9-7.9-8.6-7.9h-601
				c-4.8,0-8.7,3.6-8.7,8v446.9C533.2,1343,559.4,1367.1,591.8,1367.1z"/>
			<path class="st31" d="M841.9,558.8c-170.5,0-308.8,119.7-308.8,267.5c0,0,0,0.1,0,0.1c0,5.2,4.3,9.3,9.5,9.3h598.5
				c5.2,0,9.5-4.2,9.5-9.3c0,0,0-0.1,0-0.1C1150.7,678.5,1012.4,558.8,841.9,558.8z"/>
		</g>
		<g>
			<path class="st31" d="M1242.7,1188c0-34.1,0-249.5,0-285.5c0-42.9,29.9-79.3,71.6-92.7c-69.3-22.2-141.6,25.3-141.6,92.7
				c0,36,0,251.4,0,285.5c0,54.2,47.7,98.1,106.6,98.1c12.3,0,24.1-1.9,35-5.4C1272.6,1267.3,1242.7,1230.9,1242.7,1188z"/>
			<path class="st31" d="M362.2,1188c0-36,0-251.4,0-285.5c0-42.9,29.9-79.3,71.6-92.7c-11-3.5-22.8-5.4-35-5.4
				c-58.9,0-106.6,43.9-106.6,98.1c0,34.1,0,249.5,0,285.5c0,54.2,47.7,98.1,106.6,98.1c12.3,0,24.1-1.9,35-5.4
				C392.1,1267.3,362.2,1230.9,362.2,1188z"/>
			<path class="st31" d="M599.9,1313.1V866.2c0-4.4,3.9-8,8.7-8h-70.1c-4.8,0-8.7,3.6-8.7,8v446.9c0,29.8,26.2,54,58.6,54
				c28.1,0,42.1,0,70.1,0C626.1,1367.1,599.9,1343,599.9,1313.1z"/>
			<path class="st31" d="M599.9,826.3C599.8,688,720.6,575.5,873.6,560.5c-184.3-18-343.8,106.8-343.8,265.7c0,0,0,0.1,0,0.1
				c0,5.2,4.3,9.3,9.5,9.3h70.1C604.2,835.6,599.9,831.5,599.9,826.3z"/>
		</g>
		<g>
			<ellipse class="st31" cx="981.1" cy="710.5" rx="34.7" ry="31.9"/>
			<path class="st32" d="M980.5,737.9c-2.5-2.6-9.9-10.9-11.1-23.9c-1.7-18.1,10-30.4,11.7-32.2c-17.2-0.4-30.7,14.2-29.7,29.8
				C952.3,725.9,965,738,980.5,737.9z"/>
			<ellipse class="st31" cx="704.4" cy="710.5" rx="34.7" ry="31.9"/>
			<path class="st32" d="M703.8,737.9c-2.5-2.6-9.9-10.9-11.1-23.9c-1.7-18.1,10-30.4,11.7-32.2c-17.2-0.4-30.7,14.2-29.7,29.8
				C675.6,725.9,688.3,738,703.8,737.9z"/>
		</g>
	</g>
	<g>
		<g>
			<path class="st34" d="M1136,1266.9H911.4v31.4h0V1434c0,57.9,50.3,104.9,112.4,104.9s112.4-47,112.4-104.9
				C1136.2,1317.2,1136,1271.3,1136,1266.9z"/>
			<path class="st34" d="M651.3,1266.9c0,70.7,0,57.3,0,167.1c0,57.9,50.3,104.9,112.4,104.9s112.4-47,112.4-104.9
				c0-5.2-0.2-161.9-0.2-167.1H651.3z"/>
		</g>
		<g>
			<path class="st35" d="M981.9,1434v-135.7h0v-31.4h-69.5v31.4h0V1434c0,57.9,50.3,104.9,112.4,104.9c12.1,0,23.8-1.8,34.8-5.1
				C1014.5,1520.1,981.9,1480.6,981.9,1434z"/>
			<path class="st35" d="M721.7,1434c0-175.8,0-56.9,0-167.1h-69.5c0,70.7,0,57.3,0,167.1c0,57.9,50.3,104.9,112.4,104.9
				c12.1,0,23.8-1.8,34.8-5.1C754.3,1520.1,721.7,1480.6,721.7,1434z"/>
			<path class="st36" d="M748.3,623.1c-9.3,0-18.3-4.7-23-12.8l-73-127.1c-6.8-11.8-2-26.6,10.7-32.9c12.7-6.3,28.5-1.9,35.3,9.9
				l73,127.1c6.8,11.8,2,26.6-10.7,32.9C756.7,622.1,752.5,623.1,748.3,623.1z"/>
		</g>
		<g>
			<path class="st36" d="M1029.9,618.4c-12.7-6.4-17.5-21.1-10.6-33l73.1-127.1c6.8-11.8,22.6-16.3,35.3-9.9
				c12.7,6.4,17.5,21.1,10.6,33l-73.1,127.1C1058.4,620.3,1042.6,624.8,1029.9,618.4z"/>
			<path class="st34" d="M1330.7,789c-58.4,0-105.8,44.2-105.8,98.7c0,36.2,0,253,0,287.3c0,54.5,47.4,98.7,105.8,98.7
				s105.8-44.2,105.8-98.7c0-34.3,0-251,0-287.3C1436.5,833.2,1389.2,789,1330.7,789z"/>
			<path class="st34" d="M456.8,789c-58.4,0-105.8,44.2-105.8,98.7c0,34.3,0,251,0,287.3c0,54.5,47.4,98.7,105.8,98.7
				s105.8-44.2,105.8-98.7c0-36.2,0-253,0-287.3C562.5,833.2,515.2,789,456.8,789z"/>
		</g>
		<g>
			<path class="st34" d="M645.1,1355.2c8.4,0,505.9,0,497.4,0c32.1,0,58.2-24.3,58.2-54.3V851.1c0-4.4-3.8-8-8.6-8H595.5
				c-4.8,0-8.6,3.6-8.6,8.1v449.7C586.9,1330.9,612.9,1355.2,645.1,1355.2z"/>
			<path class="st34" d="M893.3,541.8c-169.2,0-306.4,120.5-306.4,269.1c0,0,0,0.1,0,0.1c0,5.2,4.3,9.4,9.4,9.4h594.1
				c5.2,0,9.4-4.2,9.4-9.4c0,0,0-0.1,0-0.1C1199.8,662.3,1062.6,541.8,893.3,541.8z"/>
		</g>
		<g>
			<path class="st35" d="M1291.1,1175c0-34.3,0-251,0-287.3c0-43.2,29.7-79.8,71-93.2c-68.8-22.3-140.6,25.5-140.6,93.2
				c0,36.2,0,253,0,287.3c0,54.5,47.4,98.7,105.8,98.7c12.2,0,23.9-1.9,34.8-5.5C1320.8,1254.8,1291.1,1218.1,1291.1,1175z"/>
			<path class="st35" d="M417.2,1175c0-36.2,0-253,0-287.3c0-43.2,29.7-79.8,71-93.2c-10.9-3.5-22.6-5.5-34.8-5.5
				c-58.4,0-105.8,44.2-105.8,98.7c0,34.3,0,251,0,287.3c0,54.5,47.4,98.7,105.8,98.7c12.2,0,23.9-1.9,34.8-5.5
				C446.8,1254.8,417.2,1218.1,417.2,1175z"/>
			<path class="st35" d="M653.1,1300.9V851.2c0-4.5,3.9-8.1,8.6-8.1h-69.5c-4.8,0-8.6,3.6-8.6,8.1v449.7c0,30,26.1,54.3,58.2,54.3
				c27.9,0,41.8,0,69.5,0C679.1,1355.2,653.1,1330.9,653.1,1300.9z"/>
			<path class="st35" d="M653.1,811C653,671.8,772.9,558.6,924.8,543.5C741.9,525.4,583.5,651,583.5,810.9c0,0,0,0.1,0,0.1
				c0,5.2,4.3,9.4,9.4,9.4h69.5C657.3,820.4,653.1,816.2,653.1,811z"/>
		</g>
		<g>
			<ellipse class="st36" cx="1031.5" cy="694.5" rx="34.4" ry="32.1"/>
			<path class="st37" d="M1030.9,722c-2.5-2.6-9.8-11-11-24c-1.7-18.2,9.9-30.6,11.6-32.4c-17.1-0.4-30.4,14.2-29.5,30
				C1002.9,710,1015.5,722.1,1030.9,722z"/>
			<ellipse class="st36" cx="756.8" cy="694.5" rx="34.4" ry="32.1"/>
			<path class="st37" d="M756.2,722c-2.5-2.6-9.8-11-11-24c-1.7-18.2,9.9-30.6,11.6-32.4c-17.1-0.4-30.4,14.2-29.5,30
				C728.3,710,740.8,722.1,756.2,722z"/>
		</g>
	</g>
</g>
</svg>
