<svg id="Layer_1" data-name="Layer 1" xmlns="http://www.w3.org/2000/svg" xmlns:xlink="http://www.w3.org/1999/xlink" viewBox="0 0 274.33 342.65"><defs><style>.cls-1,.cls-17,.cls-18,.cls-4,.cls-8{fill:none;}.cls-1,.cls-17{stroke:#fff;}.cls-1,.cls-12,.cls-13,.cls-14,.cls-4,.cls-8{stroke-miterlimit:10;}.cls-2{fill:url(#linear-gradient);}.cls-12,.cls-3,.cls-5{fill:#263238;}.cls-12,.cls-13,.cls-14,.cls-15,.cls-16,.cls-18,.cls-20,.cls-4,.cls-5,.cls-6{stroke:#263238;}.cls-12,.cls-13,.cls-14,.cls-15,.cls-16,.cls-17,.cls-18,.cls-20,.cls-4,.cls-5,.cls-6,.cls-8{stroke-width:0.4px;}.cls-15,.cls-16,.cls-17,.cls-18,.cls-20,.cls-5,.cls-6{stroke-linecap:round;stroke-linejoin:round;}.cls-6,.cls-9{fill:#f9ff00;}.cls-7{fill:#b0b0b0;}.cls-8{stroke:#f9ff00;}.cls-10{fill:#8a8a8a;}.cls-11{fill:#dedede;}.cls-13,.cls-19,.cls-20{fill:#fff;}.cls-14,.cls-16{fill:gray;}.cls-15{fill:#ababab;}.cls-21{fill:#4a4a4a;}</style><linearGradient id="linear-gradient" x1="507.69" y1="469.32" x2="745.77" y2="331.87" gradientUnits="userSpaceOnUse"><stop offset="0" stop-color="#f9ff00" stop-opacity="0.1"/><stop offset="0.46" stop-color="#f7ec13" stop-opacity="0.67"/><stop offset="0.77" stop-color="#f9ff00"/></linearGradient></defs><rect class="cls-1" x="0.5" y="0.5" width="273.33" height="341.65"/><path class="cls-2" d="M729.37,324c-18-8.68-58.16-24.85-108.6-19.67-8.82.91-82.19,8.45-102.09,48.79-2.3,4.66-6.41,13.35-5.45,24.45,2.37,27.57,33.07,32.74,35.49,55.1,2.68,24.7-32.76,36.72-28.25,57.16,3.73,16.9,31.26,23.71,45.47,27.22,30.33,7.51,76.92,6.7,86.95-15.28,7.41-16.23-10-33.21,0-45,1.76-2.06,12.31-5.14,33.35-11.2,11.8-3.4,17.72-4.94,20.31-5.51,13.73-3,18.51-2.42,27.82-7.79,3.82-2.2,22.7-13.65,28.78-36.32,4.4-16.37-.19-30-1.8-34.62C754.34,341.27,739.83,329,729.37,324Z" transform="translate(-498.15 -253.4)"/><g id="freepik--Plants--inject-2"><path class="cls-3" d="M540.46,421.7a3,3,0,0,0,2.56.41,9.31,9.31,0,0,0,2.59-1.5c.3.45.62.94,1,1.42a18.29,18.29,0,0,0,2,2.28l0,0c-.29-.14-1.12-.5-1.18-.52-1-.27-2.93-.27-3.53.68a1.38,1.38,0,0,0,.4,1.85l.12.07a2.6,2.6,0,0,0,2.27-.15,8.85,8.85,0,0,0,2-1.86,22.17,22.17,0,0,0,2.43,1.91c.5.34,1,.67,1.52,1l-.52-.21c-.94-.29-2.91-.26-3.52.68a1.37,1.37,0,0,0,.41,1.85l.11.06a2.63,2.63,0,0,0,2.27-.14,9.11,9.11,0,0,0,2-1.79l.59.36c1,.58,1.91,1.15,2.82,1.74.33.21.64.43,1,.64l-.43-.18c-.93-.29-2.9-.26-3.51.68a1.36,1.36,0,0,0,.4,1.85l.11.06a2.63,2.63,0,0,0,2.27-.14,8.33,8.33,0,0,0,1.9-1.74,10.6,10.6,0,0,1,.92.7c.2.16.4.31.59.49l.53.51c.35.34.71.69,1,1s.43.44.67.7c-.32-.21-1-.62-1-.64-.89-.45-2.84-.72-3.58.12a1.37,1.37,0,0,0,.13,1.89l.11.08a2.58,2.58,0,0,0,2.25.21,8.61,8.61,0,0,0,2.25-1.51c.36.39.71.76,1,1.12s2.16,2.13,2.52,2.58a13.28,13.28,0,0,1,1,1.26l.84-.06a10,10,0,0,0-.13-1.34c-.11-.84-.35-3.06-.55-4.18-.1-.53-.21-1.1-.33-1.69a8.63,8.63,0,0,0,2.35-1.31,2.78,2.78,0,0,0,.9-2.16,1.31,1.31,0,0,0-1.44-1.18l-.13,0c-1.06.28-1.73,2.19-1.81,3.2,0,.06,0,.71.06,1.12,0-.24-.1-.47-.16-.72-.1-.48-.22-1-.35-1.48q-.1-.36-.21-.75c-.07-.25-.16-.5-.25-.76-.2-.59-.43-1.18-.68-1.79a7.74,7.74,0,0,0,2.44-.92,2.81,2.81,0,0,0,1.2-2,1.31,1.31,0,0,0-1.25-1.38h-.13c-1.08.11-2,1.89-2.25,2.88,0,.06-.08.78-.12,1.18-.15-.35-.3-.7-.46-1.05-.48-1-1-2-1.49-3l-.47-.93a9.36,9.36,0,0,0,2.54-.94,2.8,2.8,0,0,0,1.2-2,1.33,1.33,0,0,0-1.25-1.39h-.13c-1.09.1-2,1.88-2.25,2.87,0,.08-.12,1.12-.13,1.39-.34-.69-.67-1.38-1-2.06a24.44,24.44,0,0,1-1-2.86,8.57,8.57,0,0,0,2.55-.95,2.77,2.77,0,0,0,1.2-2,1.34,1.34,0,0,0-1.25-1.39h-.13c-1.09.12-2.05,1.9-2.26,2.88,0,.07-.09.86-.11,1.24h-.07a18.17,18.17,0,0,1-.52-3c-.06-.56-.08-1.1-.09-1.63a8.79,8.79,0,0,0,2.59-.64,2.73,2.73,0,0,0,1.41-1.84,1.33,1.33,0,0,0-1.1-1.52l-.13,0c-1.09,0-2.23,1.65-2.54,2.6,0,.06-.14.61-.21,1v-.71c0-.86.07-1.64.13-2.33,0-.39.07-.75.11-1.08a8.69,8.69,0,0,0,2-1.79,2.9,2.9,0,0,0,.43-2.31,1.29,1.29,0,0,0-1.65-.83l-.12.05c-1,.51-1.25,2.53-1.1,3.53,0,.08.37,1.41.38,1.4h0c0,.31-.09.65-.13,1-.07.69-.15,1.48-.18,2.33v.94c-.14-.4-.47-1.27-.5-1.34-.53-1-2.11-2.65-3.33-2.43a1.52,1.52,0,0,0-1.14,1.8.94.94,0,0,0,0,.16,3.08,3.08,0,0,0,1.91,1.79,10.94,10.94,0,0,0,3,.22c0,.52,0,1.06.05,1.61a18.66,18.66,0,0,0,.47,3.07v0c-.17-.28-.67-1.05-.71-1.1-.63-.77-2.29-1.88-3.3-1.44a1.36,1.36,0,0,0-.65,1.77l.06.12a2.69,2.69,0,0,0,2,1.18,8.66,8.66,0,0,0,2.66-.41,25.47,25.47,0,0,0,1,3c.23.56.48,1.13.74,1.69-.16-.24-.29-.45-.32-.48-.63-.77-2.29-1.87-3.29-1.44a1.36,1.36,0,0,0-.65,1.78.39.39,0,0,0,.06.11,2.66,2.66,0,0,0,2,1.18,8.59,8.59,0,0,0,2.59-.38l.3.64c.49,1,1,2,1.42,3.06.16.36.31.72.43,1.08l-.27-.42c-.63-.76-2.28-1.87-3.29-1.44a1.36,1.36,0,0,0-.65,1.78l.06.12a2.66,2.66,0,0,0,2,1.17,7.85,7.85,0,0,0,2.52-.36c.14.37.28.74.4,1.1s.16.5.22.75.14.51.2.76c.1.48.22,1,.31,1.45s.13.65.19,1c-.15-.36-.47-1.05-.5-1.11a5,5,0,0,0-1.9-1.74,1,1,0,0,0-.17-.24,1.25,1.25,0,0,0-1.82-.16l-.1.09c-.73.84-.29,2.82.2,3.7l.64.9-.51-.51c-.34-.34-.7-.67-1.08-1l-.57-.51c-.2-.17-.44-.33-.62-.5-.49-.37-1-.73-1.52-1.09a8.78,8.78,0,0,0,1.55-2.15,2.89,2.89,0,0,0-.06-2.36,1.27,1.27,0,0,0-1.78-.43l-.11.07c-.86.71-.7,2.75-.34,3.69,0,0,.35.7.53,1l-1-.62c-.94-.57-1.91-1.12-2.87-1.68l-.86-.52A9.51,9.51,0,0,0,554.9,425a2.91,2.91,0,0,0-.06-2.35,1.27,1.27,0,0,0-1.78-.44l-.11.07c-.86.72-.7,2.75-.34,3.69,0,.07.49,1,.63,1.23-.65-.38-1.3-.77-1.9-1.17a23.24,23.24,0,0,1-2.39-1.79,9.78,9.78,0,0,0,1.62-2.24,2.91,2.91,0,0,0-.06-2.35,1.27,1.27,0,0,0-1.78-.44l-.11.07c-.87.72-.7,2.75-.35,3.69l.56,1.1,0,0a17.4,17.4,0,0,1-2.06-2.23c-.34-.45-.65-.87-.94-1.31a8.89,8.89,0,0,0,1.8-2,2.8,2.8,0,0,0,.19-2.34,1.28,1.28,0,0,0-1.72-.65l-.12.07c-.91.61-1,2.65-.73,3.62,0,.05.21.58.36,1l-.38-.59c-.44-.72-.82-1.41-1.14-2-.18-.34-.33-.67-.47-1a9.37,9.37,0,0,0,.7-2.62,2.89,2.89,0,0,0-.86-2.17,1.27,1.27,0,0,0-1.82.25l-.08.12c-.54,1,.31,2.82,1,3.58,0,.06,1,1,1.06.94h0l.43.94c.31.62.66,1.32,1.1,2l.33.55-1-.72c-1-.55-3.17-1-4.07-.13a1.56,1.56,0,0,0,0,2.15A.93.93,0,0,0,540.46,421.7Zm22.25,12.36a13.25,13.25,0,0,0,.87-1.45,8.65,8.65,0,0,0,2.59,0c.1.53.19,1,.26,1.52.18,1.1.39,3.29.49,4.11l0,.25-.28-.37c-.48-.55-2.16-2.17-2.8-2.84-.34-.39-.77-.8-1.17-1.22Z" transform="translate(-498.15 -253.4)"/><path class="cls-3" d="M717.48,354.6c-.93-.85-3.11-.29-4.06.3,0,0-.62.47-1,.76.11-.19.21-.38.31-.57.41-.75.74-1.46,1-2.09.15-.34.28-.66.4-1h0s1-.92,1-1c.63-.78,1.41-2.65.83-3.61a1.28,1.28,0,0,0-1.8-.37l-.11.09a2.78,2.78,0,0,0-.78,2.2,9.34,9.34,0,0,0,.8,2.59c-.13.31-.27.63-.43,1-.3.62-.64,1.34-1.06,2.06-.11.2-.23.4-.36.61.14-.39.32-.92.33-1,.21-1,.06-3-.87-3.58a1.26,1.26,0,0,0-1.75.53l-.06.12a2.91,2.91,0,0,0,.28,2.34A9.29,9.29,0,0,0,712.1,356c-.27.45-.56.9-.89,1.35a17.25,17.25,0,0,1-2,2.3l0,0c.16-.33.49-1.06.52-1.12.31-1,.38-3-.49-3.67a1.28,1.28,0,0,0-1.81.33l-.07.12a2.84,2.84,0,0,0,0,2.35,9.24,9.24,0,0,0,1.7,2.17,21,21,0,0,1-2.32,1.89c-.59.45-1.22.84-1.85,1.25.12-.23.56-1.18.58-1.25.32-1,.39-3-.49-3.67a1.27,1.27,0,0,0-1.8.33.75.75,0,0,0-.07.12,2.91,2.91,0,0,0,0,2.35,9.31,9.31,0,0,0,1.7,2.16l-.86.55c-.94.6-1.89,1.19-2.8,1.79-.32.21-.63.45-.93.65.17-.36.47-1,.49-1.07.32-1,.39-3-.48-3.67a1.27,1.27,0,0,0-1.81.33l-.07.11a2.9,2.9,0,0,0,0,2.36,8.88,8.88,0,0,0,1.63,2.09c-.5.37-1,.75-1.47,1.15-.2.18-.41.35-.59.53l-.56.52c-.37.38-.71.72-1,1.08l-.49.53c.23-.34.58-.89.61-.93.45-.89.82-2.89.05-3.7a1.26,1.26,0,0,0-1.83.05l-.09.09a2.13,2.13,0,0,0-.16.25,5.12,5.12,0,0,0-1.82,1.82c0,.06-.32.76-.46,1.13,0-.32.09-.64.15-1s.17-1,.26-1.47l.16-.76c.05-.26.13-.5.2-.76s.22-.75.35-1.12a8.24,8.24,0,0,0,2.53.26,2.75,2.75,0,0,0,1.92-1.26,1.36,1.36,0,0,0-.55-1.81l-.11-.05c-1-.39-2.64.78-3.24,1.57a4.57,4.57,0,0,1-.26.42c.13-.36.26-.72.4-1.09.41-1,.87-2.07,1.3-3.13.1-.22.18-.44.28-.65a8.27,8.27,0,0,0,2.59.27,2.65,2.65,0,0,0,1.92-1.25,1.37,1.37,0,0,0-.55-1.81l-.11-.06c-1-.39-2.64.78-3.24,1.58a5.35,5.35,0,0,1-.3.49c.24-.57.46-1.15.67-1.72a23.83,23.83,0,0,0,.89-3,9,9,0,0,0,2.68.29,2.7,2.7,0,0,0,1.92-1.25,1.37,1.37,0,0,0-.54-1.81.52.52,0,0,0-.13-.06c-1-.39-2.63.78-3.23,1.58,0,.05-.51.85-.67,1.13v0a17.83,17.83,0,0,0,.35-3.08c0-.56,0-1.1,0-1.63a10.64,10.64,0,0,0,3-.34,3,3,0,0,0,1.84-1.88,1.51,1.51,0,0,0-1-1.87l-.15,0c-1.23-.17-2.75,1.53-3.23,2.57,0,.06-.33.95-.45,1.34,0-.32,0-.64-.06-.94-.06-.86-.17-1.64-.27-2.33-.06-.37-.11-.71-.17-1h0s.32-1.35.33-1.42c.11-1-.25-3-1.24-3.47a1.28,1.28,0,0,0-1.69.74s0,.07,0,.11a2.9,2.9,0,0,0,.52,2.29,9.13,9.13,0,0,0,2.05,1.7c.06.33.11.68.16,1.07.09.69.18,1.47.22,2.33a5.78,5.78,0,0,0,0,.7c-.1-.4-.23-.94-.25-1-.35-.94-1.55-2.55-2.65-2.49a1.33,1.33,0,0,0-1.18,1.45.69.69,0,0,0,0,.13,2.79,2.79,0,0,0,1.48,1.79,9.15,9.15,0,0,0,2.59.53c0,.52,0,1.06,0,1.63a18.36,18.36,0,0,1-.41,3h-.07c0-.38-.15-1.17-.16-1.23-.25-1-1.27-2.72-2.37-2.78a1.32,1.32,0,0,0-1.33,1.31.62.62,0,0,0,0,.13,2.76,2.76,0,0,0,1.29,1.94,9,9,0,0,0,2.59.84,23.23,23.23,0,0,1-.92,2.9c-.27.7-.57,1.4-.87,2.09,0-.26-.16-1.3-.18-1.37-.25-1-1.27-2.72-2.37-2.78a1.32,1.32,0,0,0-1.33,1.3.66.66,0,0,0,0,.14,2.78,2.78,0,0,0,1.29,1.94,8.62,8.62,0,0,0,2.57.83c-.14.32-.28.64-.43.95-.47,1-.94,2.07-1.38,3.1-.14.36-.28.72-.43,1.08-.05-.4-.15-1.12-.16-1.18-.25-1-1.27-2.71-2.36-2.78a1.32,1.32,0,0,0-1.33,1.31v.13a2.72,2.72,0,0,0,1.3,1.94,8.38,8.38,0,0,0,2.47.82c-.22.6-.43,1.2-.61,1.79-.07.26-.16.52-.22.77l-.18.76c-.11.52-.21,1-.29,1.49-.05.25-.09.48-.13.72v-1.11c-.1-1-.86-2.89-1.92-3.13a1.3,1.3,0,0,0-1.51,1.08.59.59,0,0,0,0,.13,2.74,2.74,0,0,0,1,2.12,9.46,9.46,0,0,0,2.4,1.22c-.1.59-.19,1.17-.27,1.71-.16,1.12-.31,3.35-.39,4.19a8.54,8.54,0,0,0-.07,1.34l.84,0a14.7,14.7,0,0,1,.92-1.31c.37-.44,2-2.14,2.42-2.68.31-.37.64-.76,1-1.16a9.16,9.16,0,0,0,2.3,1.42,2.66,2.66,0,0,0,2.25-.31,1.38,1.38,0,0,0,.24-1.88l-.08-.1c-.78-.8-2.71-.45-3.58,0-.06,0-.68.45-1,.68l.64-.72,1-1.08.54-.54c.19-.19.38-.34.57-.52l.89-.74a8,8,0,0,0,2,1.66,2.65,2.65,0,0,0,2.27.05,1.37,1.37,0,0,0,.5-1.82l-.07-.11c-.65-.9-2.61-.86-3.54-.54l-.43.21.92-.68c.89-.63,1.82-1.24,2.75-1.86l.58-.39a8.57,8.57,0,0,0,2,1.72,2.66,2.66,0,0,0,2.27.05,1.37,1.37,0,0,0,.5-1.83l-.07-.11c-.64-.89-2.59-.85-3.53-.53a3.36,3.36,0,0,0-.51.24c.5-.34,1-.69,1.47-1.06a21.32,21.32,0,0,0,2.35-2,9.27,9.27,0,0,0,2.08,1.79,2.62,2.62,0,0,0,2.27.05,1.36,1.36,0,0,0,.5-1.82.75.75,0,0,0-.07-.12c-.65-.89-2.62-.85-3.54-.53-.07,0-.86.42-1.16.57h0a17.53,17.53,0,0,0,1.93-2.37c.35-.5.65-1,.92-1.46a9.75,9.75,0,0,0,2.65,1.39,3,3,0,0,0,2.54-.52,1.55,1.55,0,0,0,.07-2.14Zm-22.9,16.81c-.6.7-2.23,2.39-2.68,3l-.26.38,0-.25c.07-.82.19-3,.33-4.12.06-.49.13-1,.2-1.54a9,9,0,0,0,2.59-.1,13.2,13.2,0,0,0,.93,1.41c-.41.43-.79.86-1.14,1.26Z" transform="translate(-498.15 -253.4)"/></g><g id="freepik--window-2--inject-2"><rect class="cls-4" x="68.79" y="68.92" width="123.69" height="144.82"/><rect class="cls-5" x="68.79" y="68.92" width="123.69" height="6.26"/><path class="cls-6" d="M572.06,325.05a1.3,1.3,0,1,1-1.29-1.34A1.32,1.32,0,0,1,572.06,325.05Z" transform="translate(-498.15 -253.4)"/><path class="cls-6" d="M576,325.05a1.3,1.3,0,1,1-1.29-1.34A1.32,1.32,0,0,1,576,325.05Z" transform="translate(-498.15 -253.4)"/><path class="cls-6" d="M579.84,325.05a1.3,1.3,0,1,1-1.29-1.34A1.32,1.32,0,0,1,579.84,325.05Z" transform="translate(-498.15 -253.4)"/></g><g id="freepik--character-2--inject-2"><path class="cls-7" d="M672.13,352.53c-.36-1.48-5-2.57-5.51-2.35a2,2,0,0,0-.33.89,6.68,6.68,0,0,0-.78-.13c-.47,0-.86,2.59-.86,2.59s0,4.48.12,5.55l-8.64,15.63-14.74-7.57c-1.11,4.4,6,11.68,6,11.68S657.16,382,658.9,381s9-21.29,9-21.29a22.12,22.12,0,0,0,2-1.81C670.55,357.16,672.49,354,672.13,352.53Z" transform="translate(-498.15 -253.4)"/><polyline class="cls-8" points="147.52 120.56 158.97 125.2 168.54 106 171.62 97.51"/><path class="cls-9" d="M658.17,378.12a1.11,1.11,0,0,0-1.49-.58,1.19,1.19,0,0,0-.56,1.54,1.12,1.12,0,0,0,1.49.58A1.19,1.19,0,0,0,658.17,378.12Z" transform="translate(-498.15 -253.4)"/><path class="cls-9" d="M667.6,358.72a1.12,1.12,0,0,0-1.49-.59,1.2,1.2,0,0,0-.57,1.55,1.12,1.12,0,0,0,1.49.58h0a1.19,1.19,0,0,0,.56-1.54Z" transform="translate(-498.15 -253.4)"/><path class="cls-9" d="M670.77,351.23a1.12,1.12,0,1,0-1.12,1.16,1.14,1.14,0,0,0,1.12-1.16Z" transform="translate(-498.15 -253.4)"/><path class="cls-10" d="M640.92,361.46s6.19,13.75,7.24,16.48-.4,5.72-2.24,7.77a12.67,12.67,0,0,1-3.55,2.85,50.34,50.34,0,0,0-6.19,12c-1.58,5-2.21,9.25-7,10.74s-11.85-2-13.16-7.89a13.42,13.42,0,0,1,5.39-13.62c3.56-2.44,6-4.77,7-6.4s2.63-9.53,4.21-13.89S638.82,360.64,640.92,361.46Z" transform="translate(-498.15 -253.4)"/><path class="cls-7" d="M656.35,337.57a10,10,0,0,0-5.3,1.48,12.8,12.8,0,0,0-8.49-.34,8.13,8.13,0,0,0-4,2.89,9.09,9.09,0,0,0-.69,1.16,10.52,10.52,0,0,0-.9,2.69,17,17,0,0,0-.3,2.26v1a1.19,1.19,0,0,0,0,.25c0,.09,0,.11,0,.16a.9.9,0,0,0,0,.26l0,.16,0,.25a.9.9,0,0,0,0,.16c0,.06,0,.17.06.26l0,.16a1.14,1.14,0,0,0,.06.25c0,.09,0,.11,0,.16s.05.18.07.26,0,.11,0,.16l.08.26s0,.11,0,.16l.09.26.06.15.09.26.07.16.09.25.07.15c0,.09.07.17.11.26l.06.14.11.25.07.15.12.24c0,.05,0,.11.07.15l.12.24.07.14.12.23.08.15.12.21.08.15.11.2.09.15.11.19.09.15.1.17.1.16.09.15.1.16.09.13.1.17.08.11.11.16.07.1.11.16,0,.08.12.16,0,.06.12.16,0,0,.12.16v0l.12.15h0l.12.14h0a1.72,1.72,0,0,0,.17.19,2.92,2.92,0,0,1,.14,3.48l-.11.14-.26-.58c-2.11-.82-6.71,3.67-8.29,8s-3.29,12.26-4.21,13.89-3.27,3.8-6.64,6.17a29.49,29.49,0,0,0,15,9.27,51,51,0,0,1,5.58-10.28,12.89,12.89,0,0,0,3.55-2.86c1.84-2,3.29-5,2.24-7.76-.43-1.14-1.77-4.18-3.17-7.35.43-1.88,1.46-6.21,2.33-7.67a14.65,14.65,0,0,1,1.68-2.46s5.74,1.74,6.72.87,2.67-6.24,2.67-6.24,2-.87,1.68-1.88-2.38-1.45-2.53-3.19c0-.41,0-.78,0-1.1a2.81,2.81,0,0,0,.71,0c1.42-.15,1-1.92.57-2.66s1.29-1.62,2.28-3.1S660.91,337.42,656.35,337.57Z" transform="translate(-498.15 -253.4)"/><path class="cls-10" d="M650.21,339.78s1.57-2.07,6.14-2.24,5.7,4.14,4.7,5.61-2.71,2.36-2.28,3.1.86,2.51-.57,2.66a2,2,0,0,1-2.42-1.92C655.63,345.66,652.07,339.94,650.21,339.78Z" transform="translate(-498.15 -253.4)"/><path class="cls-7" d="M657.55,347.26a11.76,11.76,0,0,0-2.66-5.66c-2.39-2.9-8.27-4.35-12.33-2.89s-5.62,4.78-5.89,9,3.5,9.72,4.48,10.74a2.92,2.92,0,0,1,.15,3.47c-.56.73-.85,1.16-.85,1.16l4.35,8.41s1.4-6.67,2.52-8.55a14.84,14.84,0,0,1,1.68-2.46s5.75,1.73,6.73.86,2.66-6.23,2.66-6.23,2-.87,1.68-1.89-2.38-1.45-2.52-3.19A14,14,0,0,1,657.55,347.26Z" transform="translate(-498.15 -253.4)"/><path class="cls-10" d="M654.89,341.6c-2.39-2.89-8.27-4.35-12.33-2.89s-5.62,4.78-5.89,9,3.36,9.5,4.42,10.66c1,0,3.42-.44,5.25-5.44a2.7,2.7,0,0,0,2.66-1.59c1.12-1.88-.14-3.77,1.4-5.95,1.3-1.79,4.88-1.51,6.05-1.34A13.77,13.77,0,0,0,654.89,341.6Z" transform="translate(-498.15 -253.4)"/><path class="cls-7" d="M648,353.49s-2-3.91-3.64-2.89-.57,4.2.28,5.5,2.94-.44,2.94-.44" transform="translate(-498.15 -253.4)"/><polyline class="cls-8" points="151.23 94.17 144.81 113.2 136.31 133.49 125.38 152.52"/><path class="cls-9" d="M650.51,347.57a1.13,1.13,0,1,0-1.13,1.17h0a1.15,1.15,0,0,0,1.13-1.16Z" transform="translate(-498.15 -253.4)"/><path class="cls-9" d="M644.09,366.6a1.13,1.13,0,1,0-1.13,1.17h0a1.15,1.15,0,0,0,1.13-1.16Z" transform="translate(-498.15 -253.4)"/><ellipse class="cls-9" cx="136.31" cy="133.49" rx="1.12" ry="1.16"/><ellipse class="cls-9" cx="125.38" cy="152.52" rx="1.12" ry="1.16"/><path class="cls-7" d="M640,363.86s-21.64-4.42-23.3-4.11c-1.36.25-12.28,7.91-16.26,10.73,0,0-5.25,2.29-5.88,3.49s1.49,3.16,1.49,3.16a2,2,0,0,0,1.12,1.56c1,.4,4.32-2.23,4.4-2.95a9.66,9.66,0,0,1,1.36-2.49c3.65-1.79,14.9-6.81,14.9-6.81s19.28,6.35,21.56,5.14S643.67,365.64,640,363.86Z" transform="translate(-498.15 -253.4)"/><polyline class="cls-8" points="141.51 114.28 118.46 109.3 103.95 118.5 97.85 123.72"/><path class="cls-9" d="M640.66,368.24a1.2,1.2,0,0,0-.46-1.58,1.1,1.1,0,0,0-1.52.48,1.18,1.18,0,0,0,.45,1.57A1.12,1.12,0,0,0,640.66,368.24Z" transform="translate(-498.15 -253.4)"/><path class="cls-9" d="M617.21,363.44a1.19,1.19,0,0,0-.45-1.59,1.12,1.12,0,0,0-1.53.47,1.19,1.19,0,0,0,.45,1.58h0a1.1,1.1,0,0,0,1.52-.47Z" transform="translate(-498.15 -253.4)"/><path class="cls-9" d="M603.1,372.46a1.2,1.2,0,0,0-.43-1.59,1.1,1.1,0,0,0-1.53.44,1.19,1.19,0,0,0,.42,1.59h0A1.11,1.11,0,0,0,603.1,372.46Z" transform="translate(-498.15 -253.4)"/><path class="cls-9" d="M597,377.5a1.18,1.18,0,0,0-.42-1.59,1.1,1.1,0,0,0-1.54.44,1.18,1.18,0,0,0,.43,1.59h0a1.09,1.09,0,0,0,1.52-.44Z" transform="translate(-498.15 -253.4)"/><path class="cls-10" d="M639.29,344.85s-2.35-7.63-7.27-11.23-8.92.45-12.14,1.79-5.35-1.73-7.8-3.77-7.45,1.37-5.43,8.27,11,8.3,15.08,6.44,6.62-5.63,10.17-4.85,6.27,4.28,6.27,4.28Z" transform="translate(-498.15 -253.4)"/><polyline class="cls-8" points="139.16 89.05 130.57 82.26 117.33 87.94 112.34 81.5"/><path class="cls-9" d="M616.47,341.89a1.19,1.19,0,0,0-.43-1.58,1.11,1.11,0,0,0-1.53.45,1.18,1.18,0,0,0,.43,1.58h0A1.11,1.11,0,0,0,616.47,341.89Z" transform="translate(-498.15 -253.4)"/><path class="cls-9" d="M611.56,335.46a1.17,1.17,0,0,0-.43-1.58,1.1,1.1,0,0,0-1.53.44,1.18,1.18,0,0,0,.43,1.59h0a1.1,1.1,0,0,0,1.53-.44Z" transform="translate(-498.15 -253.4)"/><path class="cls-9" d="M629.72,336.22a1.2,1.2,0,0,0-.43-1.59,1.11,1.11,0,0,0-1.53.45,1.17,1.17,0,0,0,.43,1.58h0A1.12,1.12,0,0,0,629.72,336.22Z" transform="translate(-498.15 -253.4)"/><path class="cls-9" d="M638.29,343a1.18,1.18,0,0,0-.43-1.58,1.1,1.1,0,0,0-1.53.44,1.18,1.18,0,0,0,.43,1.58h0A1.1,1.1,0,0,0,638.29,343Z" transform="translate(-498.15 -253.4)"/><path class="cls-10" d="M619.28,400.65s-14.72,19.64-14.6,22,2.2,5.65,5.75,4.21,16.75-9.84,21.1-15.65S627.17,393,619.28,400.65Z" transform="translate(-498.15 -253.4)"/><path class="cls-10" d="M621.25,395.9s15.73.32,28.07,5.27,12.18,6.06,11.71,8-4.62,3.19-19.44,3.66-19.45-.79-24.2-7.17" transform="translate(-498.15 -253.4)"/><path class="cls-10" d="M611,419.59a36,36,0,0,0-9.84-4.61c-5.23-1.4-15.22-4.73-15.68-5.05s-5-4.25-5.62-4-8.35,10.46-8.39,11.18-.08,1.07,1.34.45l2.43-1c.71-.3,8.21-2.46,8.21-2.46s19.1,11.54,21.66,12.52a11,11,0,0,0,5.18.53,7.28,7.28,0,0,0,2.79-1.68" transform="translate(-498.15 -253.4)"/><path class="cls-7" d="M592.28,412.29c-3.54-1.15-6.54-2.19-6.79-2.36-.46-.33-5-4.25-5.62-4s-8.35,10.46-8.39,11.18-.08,1.07,1.34.45l2.43-1c.71-.3,8.21-2.46,8.21-2.46s2.44,1.48,5.7,3.42A11,11,0,0,1,592.28,412.29Z" transform="translate(-498.15 -253.4)"/><path class="cls-11" d="M581.56,412.64l2.9-3.54c-1.51-1.23-4.14-3.35-4.57-3.18s-8.34,10.46-8.39,11.18-.08,1.07,1.35.45l2.42-1c.71-.3,8.21-2.46,8.21-2.46l.1.06A4.06,4.06,0,0,0,581.56,412.64Z" transform="translate(-498.15 -253.4)"/><polyline class="cls-8" points="126.24 154.14 111.08 169.78 85.86 157.69 78.91 159.86 73.34 163.7"/><path class="cls-9" d="M609.77,423.44a1.18,1.18,0,0,0-.54-1.55,1.11,1.11,0,0,0-1.49.56,1.19,1.19,0,0,0,.54,1.55,1.11,1.11,0,0,0,1.49-.56Z" transform="translate(-498.15 -253.4)"/><path class="cls-9" d="M585.42,412a1.18,1.18,0,0,0-.53-1.55,1.12,1.12,0,0,0-1.5.56,1.19,1.19,0,0,0,.54,1.55h0A1.11,1.11,0,0,0,585.42,412Z" transform="translate(-498.15 -253.4)"/><path class="cls-9" d="M578.08,413.75a1.17,1.17,0,0,0-.54-1.54,1.11,1.11,0,0,0-1.49.56,1.18,1.18,0,0,0,.54,1.54A1.11,1.11,0,0,0,578.08,413.75Z" transform="translate(-498.15 -253.4)"/><path class="cls-9" d="M573.1,417.42a1.19,1.19,0,0,0-.54-1.55,1.11,1.11,0,0,0-1.49.56,1.16,1.16,0,0,0,.54,1.54,1.1,1.1,0,0,0,1.49-.54Z" transform="translate(-498.15 -253.4)"/><path class="cls-10" d="M664,443.6c1-.35,3.62-.34,5.42-.9-1.8-1.93-3.28-3.54-3.28-3.54s-4.07-28.89-4.9-31.12-2.34-2.85-4.29-2l-8.64,4.74S664,443.3,664,443.6Z" transform="translate(-498.15 -253.4)"/><path class="cls-7" d="M664,443.6c1-.35,3.62-.34,5.42-.9-1.8-1.93-3.28-3.54-3.28-3.54s-.46-3-1.12-7a9.85,9.85,0,0,1-5.44,2C662,439.15,664,443.47,664,443.6Z" transform="translate(-498.15 -253.4)"/><path class="cls-11" d="M666.5,448.85c.93-.17,10.38-4.5,11.59-5.67s2.67-3.47,1.38-3.81-2.64.89-4.82,1.26-9-1.68-9-1.68c-.46,1.44,1.56,3.83,1.56,3.83l-3.23.82S665.58,449,666.5,448.85Z" transform="translate(-498.15 -253.4)"/><polyline class="cls-8" points="181.45 186.52 174.36 189.51 166.85 187.26 157.74 156.15 123.47 147.61"/><path class="cls-9" d="M666.12,440.66a1.13,1.13,0,1,0-1.12,1.17h0a1.14,1.14,0,0,0,1.12-1.16Z" transform="translate(-498.15 -253.4)"/><path class="cls-9" d="M657,409.55a1.13,1.13,0,1,0-1.13,1.17h0a1.15,1.15,0,0,0,1.13-1.16Z" transform="translate(-498.15 -253.4)"/><path class="cls-9" d="M622.74,401a1.13,1.13,0,1,0-1.14,1.16h0A1.15,1.15,0,0,0,622.74,401Z" transform="translate(-498.15 -253.4)"/><ellipse class="cls-9" cx="174.36" cy="189.51" rx="1.12" ry="1.16"/><path class="cls-9" d="M680.15,440.22a1.13,1.13,0,1,0-1.14,1.16h0a1.15,1.15,0,0,0,1.13-1.16Z" transform="translate(-498.15 -253.4)"/></g><g id="freepik--character-1--inject-2"><line class="cls-4" x1="77.06" y1="209.16" x2="188.05" y2="209.16"/><path class="cls-12" d="M639.21,344.2s-5.59-5.55-11.57-6.26-7.64,4.81-9.85,7.6-5.51,1.1-8.58.53-5.92,4.89-.94,10,13.46,1.88,16.22-1.79,3.22-8.23,6.69-9.28,7.48.65,7.48.65Z" transform="translate(-498.15 -253.4)"/><polyline class="cls-8" points="138.22 89.69 127.54 87.97 118.53 99.5 111.17 96.31"/><path class="cls-9" d="M617.81,352.9a1.13,1.13,0,1,0-1.14,1.17h0A1.16,1.16,0,0,0,617.81,352.9Z" transform="translate(-498.15 -253.4)"/><ellipse class="cls-9" cx="111.24" cy="96.27" rx="1.12" ry="1.16"/><path class="cls-9" d="M626.82,341.37a1.13,1.13,0,1,0-2.26,0,1.16,1.16,0,0,0,1.13,1.17h0A1.15,1.15,0,0,0,626.82,341.37Z" transform="translate(-498.15 -253.4)"/><path class="cls-9" d="M637.49,343.07a1.12,1.12,0,1,0-1.12,1.16,1.14,1.14,0,0,0,1.12-1.16Z" transform="translate(-498.15 -253.4)"/><path class="cls-13" d="M643.05,367.58l10.37,13.21L668,369.89s4.21-6.94,4.75-6.94,4.32,3,4.08,4.49-3.29,3.55-4.21,3.95a20.29,20.29,0,0,1-2.5.82s-14.75,15.39-16.73,15.53-9.61-6.95-9.61-6.95S640.26,371.12,643.05,367.58Z" transform="translate(-498.15 -253.4)"/><path class="cls-13" d="M667.5,370.47a52.94,52.94,0,0,1,2.14-5.31s1.39-2.21,1.82-2,2.89,2.1,2.57,2.65-2.47-.33-2.47-.33,1.3,2.33-.43,4" transform="translate(-498.15 -253.4)"/><line class="cls-4" x1="173.95" y1="112.75" x2="176.3" y2="114.86"/><polyline class="cls-8" points="142.58 117.22 154.61 131.36 171 117.98 177.2 111.57"/><path class="cls-9" d="M653.89,384.76a1.13,1.13,0,1,0-1.13,1.17h0a1.15,1.15,0,0,0,1.13-1.15Z" transform="translate(-498.15 -253.4)"/><path class="cls-9" d="M670.27,371.14a1.13,1.13,0,1,0-1.13,1.16,1.15,1.15,0,0,0,1.13-1.16Z" transform="translate(-498.15 -253.4)"/><path class="cls-12" d="M650.21,339.78s1.57-2.07,6.14-2.24,5.7,4.14,4.7,5.61-2.71,2.36-2.28,3.1.86,2.51-.57,2.66a2,2,0,0,1-2.42-1.92C655.63,345.66,652.07,339.94,650.21,339.78Z" transform="translate(-498.15 -253.4)"/><path class="cls-13" d="M657.55,347.26a11.76,11.76,0,0,0-2.66-5.66c-2.39-2.9-8.27-4.35-12.33-2.89s-5.62,4.78-5.89,9,3.5,9.72,4.48,10.74a2.92,2.92,0,0,1,.15,3.47c-.56.73-.85,1.16-.85,1.16l4.35,8.41s1.4-6.67,2.52-8.55a14.84,14.84,0,0,1,1.68-2.46s5.75,1.73,6.73.86,2.66-6.23,2.66-6.23,2-.87,1.68-1.89-2.38-1.45-2.52-3.19A14,14,0,0,1,657.55,347.26Z" transform="translate(-498.15 -253.4)"/><ellipse class="cls-3" cx="157.36" cy="97.66" rx="0.46" ry="0.94"/><path class="cls-4" d="M653.85,348.15a1.8,1.8,0,0,1,2.28.31" transform="translate(-498.15 -253.4)"/><path class="cls-4" d="M656.51,356.53s-1.76.18-2.11-1.1" transform="translate(-498.15 -253.4)"/><path class="cls-12" d="M654.89,341.6c-2.39-2.89-8.27-4.35-12.33-2.89s-5.62,4.78-5.89,9,3.36,9.5,4.42,10.66c1,0,3.42-.44,5.25-5.44a2.7,2.7,0,0,0,2.66-1.59c1.12-1.88-.14-3.77,1.4-5.95,1.3-1.79,4.88-1.51,6.05-1.34A13.77,13.77,0,0,0,654.89,341.6Z" transform="translate(-498.15 -253.4)"/><path class="cls-13" d="M648,353.49s-2-3.91-3.64-2.89-.57,4.2.28,5.5,2.94-.44,2.94-.44" transform="translate(-498.15 -253.4)"/><path class="cls-12" d="M640.92,361.46s6.19,13.75,7.24,16.48-.4,5.72-2.24,7.77a12.67,12.67,0,0,1-3.55,2.85,50.34,50.34,0,0,0-6.19,12c-1.58,5-2.21,9.25-7,10.74s-11.85-2-13.16-7.89a13.42,13.42,0,0,1,5.39-13.62c3.56-2.44,6-4.77,7-6.4s2.63-9.53,4.21-13.89S638.82,360.64,640.92,361.46Z" transform="translate(-498.15 -253.4)"/><path class="cls-14" d="M645.92,385.7c1.84-2.05,3.29-5,2.24-7.77s-7.24-16.47-7.24-16.47c-2.1-.82-6.71,3.67-8.29,8.05s-3.29,12.25-4.21,13.88-3.27,3.8-6.64,6.17a29.52,29.52,0,0,0,15,9.27,52,52,0,0,1,5.57-10.28A12.85,12.85,0,0,0,645.92,385.7Z" transform="translate(-498.15 -253.4)"/><path class="cls-4" d="M636.72,374s1.91,7.9,3.12,9.88" transform="translate(-498.15 -253.4)"/><path class="cls-4" d="M635,374.5s1.73,4.67,2.43,6.83" transform="translate(-498.15 -253.4)"/><path class="cls-4" d="M625.09,390.46a34.41,34.41,0,0,0,12.67-.53" transform="translate(-498.15 -253.4)"/><path class="cls-4" d="M628.39,389.22s7.78-.42,12.66-2" transform="translate(-498.15 -253.4)"/><polyline class="cls-8" points="151.23 94.17 144.81 113.2 136.31 133.49 125.38 152.52"/><path class="cls-9" d="M650.51,347.57a1.13,1.13,0,1,0-1.13,1.17h0a1.15,1.15,0,0,0,1.13-1.16Z" transform="translate(-498.15 -253.4)"/><path class="cls-9" d="M644.09,366.6a1.13,1.13,0,1,0-1.13,1.17h0a1.15,1.15,0,0,0,1.13-1.16Z" transform="translate(-498.15 -253.4)"/><ellipse class="cls-9" cx="136.31" cy="133.49" rx="1.12" ry="1.16"/><ellipse class="cls-9" cx="125.38" cy="152.52" rx="1.12" ry="1.16"/><path class="cls-12" d="M616.93,403.56s-5.24,24.26-4.16,26.33,4.32,4.15,6.94,1.28,11.1-16.28,12.64-23.46S620.94,393.19,616.93,403.56Z" transform="translate(-498.15 -253.4)"/><path class="cls-12" d="M614.31,425.42a37.08,37.08,0,0,0-7.86,7.66c-3.24,4.47-10,12.77-10.5,13.09s-5.71,3.19-5.71,3.83,6.17,12,6.79,12.29.92.47.92-1.12v-2.72c0-.79.93-8.77.93-8.77s17.58-13.86,19.44-16a34.47,34.47,0,0,0,3.86-6.22" transform="translate(-498.15 -253.4)"/><path class="cls-13" d="M600.66,440.56c-2.37,3-4.45,5.44-4.7,5.61-.46.32-5.7,3.19-5.7,3.83s6.16,12,6.78,12.29.92.47.92-1.12v-2.72c0-.79.93-8.77.93-8.77l5.23-4.16A10.82,10.82,0,0,1,600.66,440.56Z" transform="translate(-498.15 -253.4)"/><path class="cls-13" d="M596.88,451l-2-4.12c-1.68,1-4.57,2.68-4.57,3.16s6.16,12,6.78,12.29.92.47.92-1.12v-2.72c0-.79.93-8.77.93-8.77l.09-.07A3.94,3.94,0,0,0,596.88,451Z" transform="translate(-498.15 -253.4)"/><polyline class="cls-8" points="126.24 154.14 118.96 174.96 99.7 194.53 98.14 202.97 99.7 208.89"/><path class="cls-9" d="M617.72,428.36a1.13,1.13,0,1,0-1.14,1.16h0a1.14,1.14,0,0,0,1.13-1.15Z" transform="translate(-498.15 -253.4)"/><path class="cls-9" d="M599,447.93a1.13,1.13,0,1,0-1.13,1.17h0A1.15,1.15,0,0,0,599,447.93Z" transform="translate(-498.15 -253.4)"/><path class="cls-9" d="M597.51,456.37a1.13,1.13,0,1,0-1.14,1.16h0a1.14,1.14,0,0,0,1.13-1.16Z" transform="translate(-498.15 -253.4)"/><path class="cls-9" d="M598.89,461.75a1.13,1.13,0,1,0-1.12,1.17h0a1.13,1.13,0,0,0,1.12-1.15Z" transform="translate(-498.15 -253.4)"/><path class="cls-12" d="M621.25,395.9s15.73.32,28.07,5.27,12.18,6.06,11.71,8-4.62,3.19-19.44,3.66-19.45-.79-24.2-7.17" transform="translate(-498.15 -253.4)"/><path class="cls-12" d="M646.54,410.42l-14.34,24.1s-5.25,1.6-5.09,2.55,3.08,10.21,3.7,11.81,2.16,3.83,2.93,2.72.15-2.88.62-5.11,2.31-10.21,2.31-10.21,22-22.5,23.44-24.42,1.39-3.19-.31-4.47" transform="translate(-498.15 -253.4)"/><path class="cls-13" d="M636.75,426.86l-4.55,7.66s-5.25,1.6-5.09,2.55,3.08,10.21,3.7,11.81,2.16,3.83,2.93,2.72.15-2.88.62-5.11,2.31-10.21,2.31-10.21l4.85-5A6.23,6.23,0,0,1,636.75,426.86Z" transform="translate(-498.15 -253.4)"/><path class="cls-13" d="M627.11,437.07c.16,1,3.08,10.21,3.7,11.81s2.16,3.83,2.93,2.72.15-2.88.62-5.11,2.31-10.21,2.31-10.21c-1.38-.49-3.7,1.59-3.7,1.59l-.77-3.35S627,436.12,627.11,437.07Z" transform="translate(-498.15 -253.4)"/><polyline class="cls-8" points="122.77 147.5 157.82 155.58 136.83 182.5 134.92 191.48 135.59 198.2"/><path class="cls-9" d="M621.87,400.72a1.13,1.13,0,1,0-1.13,1.16h0A1.14,1.14,0,0,0,621.87,400.72Z" transform="translate(-498.15 -253.4)"/><path class="cls-9" d="M656.58,409a1.13,1.13,0,1,0-1.13,1.17h0A1.15,1.15,0,0,0,656.58,409Z" transform="translate(-498.15 -253.4)"/><ellipse class="cls-9" cx="137.17" cy="182.86" rx="1.12" ry="1.16"/><ellipse class="cls-9" cx="134.92" cy="191.48" rx="1.12" ry="1.16"/><path class="cls-9" d="M635.06,451.79a1.13,1.13,0,1,0-1.12,1.17h0a1.14,1.14,0,0,0,1.12-1.15Z" transform="translate(-498.15 -253.4)"/><path class="cls-13" d="M638.16,364.18s-21,6.81-22.37,7.9c-1.08.89-7.14,13-9.34,17.43,0,0-3.56,4.61-3.56,6s2.77,2,2.77,2a1.94,1.94,0,0,0,1.72.82c1-.14,2.77-4.09,2.5-4.77a10,10,0,0,1,0-2.87c2.38-3.37,9.94-13.34,9.94-13.34s19.88-3.94,21.32-6.12S642.24,363.91,638.16,364.18Z" transform="translate(-498.15 -253.4)"/><polyline class="cls-8" points="141.51 114.28 118.96 121.28 110.46 136.55 107.5 144.14"/><path class="cls-9" d="M640.79,367.68a1.13,1.13,0,1,0-1.13,1.17h0a1.15,1.15,0,0,0,1.12-1.16Z" transform="translate(-498.15 -253.4)"/><ellipse class="cls-9" cx="118.7" cy="121.64" rx="1.12" ry="1.16"/><ellipse class="cls-9" cx="110.46" cy="136.55" rx="1.12" ry="1.16"/><ellipse class="cls-9" cx="107.47" cy="143.97" rx="1.12" ry="1.16"/></g><g id="freepik--windows-1--inject-2"><rect class="cls-15" x="48.79" y="187.19" width="37.52" height="53.54"/><rect class="cls-16" x="48.79" y="187.19" width="37.52" height="11.55"/><path class="cls-17" d="M553.71,447.16a1.67,1.67,0,1,1-1.67-1.73,1.7,1.7,0,0,1,1.67,1.73Z" transform="translate(-498.15 -253.4)"/><line class="cls-17" x1="52.6" y1="195.1" x2="50.93" y2="197.01"/><line class="cls-18" x1="48.99" y1="198.63" x2="85.7" y2="198.63"/><rect class="cls-5" x="48.79" y="186.01" width="37.52" height="4.69"/><path class="cls-16" d="M552.09,441.88a1.22,1.22,0,1,1-1.23-1.25h0A1.24,1.24,0,0,1,552.09,441.88Z" transform="translate(-498.15 -253.4)"/><path class="cls-16" d="M556.14,441.88a1.22,1.22,0,1,1-1.22-1.25h0A1.24,1.24,0,0,1,556.14,441.88Z" transform="translate(-498.15 -253.4)"/><path class="cls-16" d="M560.19,441.88a1.22,1.22,0,1,1-1.22-1.25h0A1.23,1.23,0,0,1,560.19,441.88Z" transform="translate(-498.15 -253.4)"/><line class="cls-18" x1="48.99" y1="206.63" x2="85.7" y2="206.63"/><polygon class="cls-19" points="55.1 202.8 51.61 201.34 51.61 204.26 55.1 202.8"/><line class="cls-18" x1="48.99" y1="214.64" x2="85.7" y2="214.64"/><polygon class="cls-19" points="55.1 210.8 51.61 209.34 51.61 212.27 55.1 210.8"/><line class="cls-18" x1="48.99" y1="222.64" x2="85.7" y2="222.64"/><polygon class="cls-19" points="55.1 218.8 51.61 217.34 51.61 220.27 55.1 218.8"/><line class="cls-18" x1="48.99" y1="230.64" x2="85.7" y2="230.64"/><polygon class="cls-19" points="55.1 226.8 51.61 225.34 51.61 228.27 55.1 226.8"/><line class="cls-18" x1="48.99" y1="238.64" x2="85.7" y2="238.64"/><polygon class="cls-19" points="55.1 234.8 51.61 233.34 51.61 236.27 55.1 234.8"/><line class="cls-17" x1="58.97" y1="202.63" x2="80.24" y2="202.63"/><line class="cls-17" x1="58.97" y1="210.71" x2="80.24" y2="210.71"/><line class="cls-17" x1="58.97" y1="218.78" x2="80.24" y2="218.78"/><line class="cls-17" x1="58.97" y1="226.97" x2="80.24" y2="226.97"/><line class="cls-17" x1="58.97" y1="234.93" x2="80.24" y2="234.93"/><rect class="cls-15" x="104.2" y="221.34" width="120.8" height="24.76"/><line class="cls-17" x1="122.93" y1="221.8" x2="122.93" y2="222.91"/><line class="cls-17" x1="125.18" y1="221.8" x2="125.18" y2="222.91"/><line class="cls-17" x1="127.44" y1="221.8" x2="127.44" y2="222.91"/><line class="cls-17" x1="129.69" y1="221.8" x2="129.69" y2="222.91"/><line class="cls-17" x1="131.95" y1="221.8" x2="131.95" y2="222.91"/><line class="cls-17" x1="134.21" y1="221.8" x2="134.21" y2="222.91"/><line class="cls-17" x1="136.46" y1="221.8" x2="136.46" y2="222.91"/><line class="cls-17" x1="138.71" y1="221.8" x2="138.71" y2="222.91"/><line class="cls-17" x1="140.97" y1="221.8" x2="140.97" y2="222.91"/><line class="cls-17" x1="143.22" y1="221.8" x2="143.22" y2="222.91"/><line class="cls-17" x1="145.48" y1="221.8" x2="145.48" y2="222.91"/><line class="cls-17" x1="147.73" y1="221.8" x2="147.73" y2="222.91"/><line class="cls-17" x1="149.99" y1="221.8" x2="149.99" y2="222.91"/><line class="cls-17" x1="152.25" y1="221.8" x2="152.25" y2="222.91"/><line class="cls-17" x1="154.5" y1="221.8" x2="154.5" y2="222.91"/><line class="cls-17" x1="156.76" y1="221.8" x2="156.76" y2="222.91"/><line class="cls-17" x1="159.01" y1="221.8" x2="159.01" y2="222.91"/><line class="cls-17" x1="161.26" y1="221.8" x2="161.26" y2="222.91"/><line class="cls-17" x1="163.52" y1="221.8" x2="163.52" y2="222.91"/><line class="cls-17" x1="165.78" y1="221.8" x2="165.78" y2="222.91"/><line class="cls-17" x1="168.03" y1="221.8" x2="168.03" y2="222.91"/><line class="cls-17" x1="170.29" y1="221.8" x2="170.29" y2="222.91"/><line class="cls-17" x1="172.54" y1="221.8" x2="172.54" y2="222.91"/><line class="cls-17" x1="174.8" y1="221.8" x2="174.8" y2="222.91"/><line class="cls-17" x1="177.05" y1="221.8" x2="177.05" y2="222.91"/><line class="cls-17" x1="179.31" y1="221.8" x2="179.31" y2="222.91"/><line class="cls-17" x1="181.71" y1="221.8" x2="181.71" y2="222.91"/><line class="cls-17" x1="184.11" y1="221.8" x2="184.11" y2="222.91"/><line class="cls-17" x1="186.52" y1="221.8" x2="186.52" y2="222.91"/><line class="cls-17" x1="188.92" y1="221.8" x2="188.92" y2="222.91"/><line class="cls-17" x1="191.32" y1="221.8" x2="191.32" y2="222.91"/><line class="cls-17" x1="193.72" y1="221.8" x2="193.72" y2="222.91"/><line class="cls-17" x1="196.13" y1="221.8" x2="196.13" y2="222.91"/><line class="cls-17" x1="198.53" y1="221.8" x2="198.53" y2="222.91"/><line class="cls-17" x1="200.94" y1="221.8" x2="200.94" y2="222.91"/><line class="cls-17" x1="203.34" y1="221.8" x2="203.34" y2="222.91"/><line class="cls-17" x1="205.74" y1="221.8" x2="205.74" y2="222.91"/><line class="cls-17" x1="208.14" y1="221.8" x2="208.14" y2="222.91"/><line class="cls-17" x1="210.55" y1="221.8" x2="210.55" y2="222.91"/><line class="cls-17" x1="212.95" y1="221.8" x2="212.95" y2="222.91"/><line class="cls-17" x1="215.35" y1="221.8" x2="215.35" y2="222.91"/><line class="cls-17" x1="217.75" y1="221.8" x2="217.75" y2="222.91"/><line class="cls-17" x1="220.16" y1="221.8" x2="220.16" y2="222.91"/><line class="cls-17" x1="222.56" y1="221.8" x2="222.56" y2="222.91"/><line class="cls-17" x1="227.37" y1="221.8" x2="227.37" y2="222.91"/><line class="cls-17" x1="203.59" y1="221.8" x2="203.59" y2="222.91"/><line class="cls-17" x1="206" y1="221.8" x2="206" y2="222.91"/><line class="cls-17" x1="208.4" y1="221.8" x2="208.4" y2="222.91"/><line class="cls-17" x1="210.8" y1="221.8" x2="210.8" y2="222.91"/><line class="cls-17" x1="213.2" y1="221.8" x2="213.2" y2="222.91"/><line class="cls-17" x1="215.61" y1="221.8" x2="215.61" y2="222.91"/><line class="cls-17" x1="218.01" y1="221.8" x2="218.01" y2="222.91"/><line class="cls-17" x1="220.41" y1="221.8" x2="220.41" y2="222.91"/><line class="cls-17" x1="222.82" y1="221.8" x2="222.82" y2="222.91"/><rect class="cls-9" x="120.62" y="223.72" width="104.41" height="2.26"/><rect class="cls-3" x="135.74" y="228.36" width="63.11" height="2.26"/><rect class="cls-3" x="204.72" y="228.36" width="4.45" height="2.26"/><rect class="cls-9" x="120.62" y="233.05" width="30.44" height="2.26"/><rect class="cls-9" x="186.72" y="233.05" width="30.44" height="2.26"/><rect class="cls-18" x="104.2" y="223.72" width="120.8" height="22.37"/><rect class="cls-18" x="104.2" y="223.72" width="16.42" height="22.37"/><line class="cls-18" x1="104.19" y1="225.98" x2="225.03" y2="225.98"/><line class="cls-18" x1="104.19" y1="228.36" x2="225.03" y2="228.36"/><line class="cls-18" x1="104.19" y1="230.73" x2="225.03" y2="230.73"/><line class="cls-18" x1="104.19" y1="233.11" x2="225.03" y2="233.11"/><line class="cls-18" x1="104.19" y1="235.49" x2="225.03" y2="235.49"/><polygon class="cls-20" points="130.96 223.6 130.36 224.06 129.81 223.6 129.81 221.82 130.96 221.82 130.96 223.6"/><polygon class="cls-20" points="170.93 223.6 170.33 224.06 169.78 223.6 169.78 221.82 170.93 221.82 170.93 223.6"/><polygon class="cls-20" points="210.9 223.6 210.3 224.06 209.75 223.6 209.75 221.82 210.9 221.82 210.9 223.6"/><line class="cls-18" x1="130.36" y1="224.06" x2="130.36" y2="235.64"/><rect class="cls-21" x="115.28" y="224.28" width="4.31" height="1.01"/><rect class="cls-21" x="115.28" y="226.61" width="4.31" height="1.01"/><rect class="cls-21" x="115.28" y="228.95" width="4.31" height="1.01"/><rect class="cls-21" x="115.28" y="231.28" width="4.31" height="1.01"/><rect class="cls-21" x="115.28" y="233.61" width="4.31" height="1.01"/><rect class="cls-21" x="111.85" y="224.28" width="2.65" height="1.01"/><rect class="cls-21" x="111.85" y="226.61" width="2.65" height="1.01"/><rect class="cls-21" x="111.85" y="228.95" width="2.65" height="1.01"/><rect class="cls-21" x="111.85" y="231.28" width="2.65" height="1.01"/><rect class="cls-21" x="111.85" y="233.61" width="2.65" height="1.01"/><rect class="cls-15" x="176.64" y="123.36" width="42.36" height="57.54"/><rect class="cls-5" x="176.64" y="122.19" width="42.36" height="4.69"/><path class="cls-18" d="M688,384.31h14.58a1.38,1.38,0,0,1,1.36,1.4v13.68a1.39,1.39,0,0,1-1.36,1.41H688a1.39,1.39,0,0,1-1.36-1.41V385.71A1.38,1.38,0,0,1,688,384.31Z" transform="translate(-498.15 -253.4)"/><ellipse class="cls-6" cx="202.36" cy="139.46" rx="1.85" ry="1.91"/><line class="cls-18" x1="211.15" y1="154.32" x2="185.89" y2="154.32"/><line class="cls-18" x1="211.15" y1="160.36" x2="185.89" y2="160.36"/><line class="cls-18" x1="211.15" y1="166.39" x2="185.89" y2="166.39"/><line class="cls-18" x1="211.15" y1="172.42" x2="185.89" y2="172.42"/><ellipse class="cls-6" cx="202.41" cy="154.32" rx="1.85" ry="1.91"/><path class="cls-6" d="M693.46,419.38a1.85,1.85,0,1,1-1.84-1.91h0A1.88,1.88,0,0,1,693.46,419.38Z" transform="translate(-498.15 -253.4)"/><ellipse class="cls-6" cx="205.9" cy="172.22" rx="1.85" ry="1.91"/><ellipse class="cls-6" cx="202.41" cy="160.15" rx="1.85" ry="1.91"/><path class="cls-16" d="M679.94,378a1.22,1.22,0,1,1-1.22-1.26h0a1.24,1.24,0,0,1,1.22,1.25Z" transform="translate(-498.15 -253.4)"/><path class="cls-16" d="M684,378a1.22,1.22,0,1,1-1.22-1.26h0A1.24,1.24,0,0,1,684,378Z" transform="translate(-498.15 -253.4)"/><path class="cls-16" d="M688,378a1.22,1.22,0,1,1-1.22-1.26h0A1.23,1.23,0,0,1,688,378Z" transform="translate(-498.15 -253.4)"/></g></svg>