<svg id="Layer_1" data-name="Layer 1" xmlns="http://www.w3.org/2000/svg" xmlns:xlink="http://www.w3.org/1999/xlink" viewBox="0 0 274.33 342.65"><defs><style>.cls-1,.cls-7{fill:none;}.cls-1{stroke:#fff;}.cls-1,.cls-3,.cls-5,.cls-6{stroke-miterlimit:10;}.cls-2{fill:url(#linear-gradient);}.cls-3,.cls-5,.cls-8{fill:#ffb100;}.cls-3,.cls-5,.cls-6{stroke:#231f20;}.cls-4{fill:#fff035;}.cls-5,.cls-6{stroke-width:0.36px;}.cls-6{fill:#f9ff00;}</style><linearGradient id="linear-gradient" x1="507.69" y1="469.32" x2="745.77" y2="331.87" gradientUnits="userSpaceOnUse"><stop offset="0" stop-color="#f9ff00" stop-opacity="0.1"/><stop offset="0.46" stop-color="#f7ec13" stop-opacity="0.67"/><stop offset="0.77" stop-color="#f9ff00"/></linearGradient></defs><rect class="cls-1" x="0.5" y="0.5" width="273.33" height="341.65"/><path class="cls-2" d="M729.37,324c-18-8.68-58.16-24.85-108.6-19.67-8.82.91-82.19,8.45-102.09,48.79-2.3,4.66-6.41,13.35-5.45,24.45,2.37,27.57,33.07,32.74,35.49,55.1,2.68,24.7-32.76,36.72-28.25,57.16,3.73,16.9,31.26,23.71,45.47,27.22,30.33,7.51,76.92,6.7,86.95-15.28,7.41-16.23-10-33.21,0-45,1.76-2.06,12.31-5.14,33.35-11.2,11.8-3.4,17.72-4.94,20.31-5.51,13.73-3,18.51-2.42,27.82-7.79,3.82-2.2,22.7-13.65,28.78-36.32,4.4-16.37-.19-30-1.8-34.62C754.34,341.27,739.83,329,729.37,324Z" transform="translate(-498.15 -253.4)"/><g id="Page-1"><g id="Icons"><path id="Shape" class="cls-3" d="M708.22,435.65l-7.57,20.69a2.65,2.65,0,0,1-1.35,1.54,2.17,2.17,0,0,1-1.91,0l-5.47-2.58-7.19-3.36c-.7,1.12-1.42,2.21-2.15,3.26a59.44,59.44,0,0,1-11.73,12.45L676.09,482a3.06,3.06,0,0,1,0,2.15,2.6,2.6,0,0,1-1.35,1.51l-18.25,8.58a2.16,2.16,0,0,1-1.89,0,2.62,2.62,0,0,1-1.34-1.53l-.38-1.05L648,478.35a43.08,43.08,0,0,1-8.76,1,53.71,53.71,0,0,1-5.67-.19,39.44,39.44,0,0,1-5.18-.76l-.35.95-4.89,13.4a2.62,2.62,0,0,1-1.35,1.54,2.17,2.17,0,0,1-1.91,0l-5.47-2.57-12.78-6a2.6,2.6,0,0,1-1.35-1.51,3.12,3.12,0,0,1,0-2.15l5.24-14.36a61,61,0,0,1-13.88-15.74l-7,3.26L579,457.86a2.39,2.39,0,0,1-3.23-1.52l-.38-1.06-7.16-19.67a3,3,0,0,1,1.31-3.66l10.25-4.79,6.25-4.52,5.62-4.06,3.93,4.56,4.6,5.34c5.46,16.12,18.37,27.45,33.5,29.41a34.39,34.39,0,0,0,4.54.3c16.88,0,32-11.82,38-29.71l7-6,4.48-3.9,11.7,9.84h0l7.48,3.53a2.7,2.7,0,0,1,1.35,1.53,3.17,3.17,0,0,1,0,2.17Z" transform="translate(-498.15 -253.4)"/><path id="Shape-2" data-name="Shape" class="cls-4" d="M699.11,435.65l-7.19,19.63-7.19-3.36c-.7,1.12-1.42,2.21-2.15,3.26l-7-3.26a60.15,60.15,0,0,1-13.88,15.71L667,482a3.06,3.06,0,0,1,0,2.15,2.6,2.6,0,0,1-1.35,1.51l-12.75,6L648,478.35a43.08,43.08,0,0,1-8.76,1l-.35-1a48.82,48.82,0,0,1-5.32.8,51.36,51.36,0,0,1-5.53.19,45.35,45.35,0,0,1-8.76-.95l-4.86,13.3-12.78-6a2.6,2.6,0,0,1-1.35-1.51,3.12,3.12,0,0,1,0-2.15l5.24-14.36a61,61,0,0,1-13.88-15.74l-7,3.26c-.72-1.05-1.45-2.14-2.15-3.26l-7.19,3.36-7.16-19.67a3,3,0,0,1,1.31-3.66l10.25-4.79,15.8-4,1.89-.5,5,5.84a30.91,30.91,0,0,0,4.91,13.7,32.32,32.32,0,0,0,9.78,9.33,41.54,41.54,0,0,0,16.48,6.38,34.39,34.39,0,0,0,4.54.3c16.88,0,32-11.82,38-29.71l7-6,7.07,5.94h0l7.48,3.53a3,3,0,0,1,1.35,1.53A3.08,3.08,0,0,1,699.11,435.65Z" transform="translate(-498.15 -253.4)"/><path id="Shape-3" data-name="Shape" class="cls-5" d="M722.6,400.43c0,15.49-11.08,28-24.74,28.05H588.72c-19.29,0-34.92-17.73-34.92-39.6s15.63-39.61,34.92-39.61a23.16,23.16,0,0,1,2.65.14c6-17.94,21.13-29.82,38-29.84s32.08,11.81,38.11,29.74c.41,0,.82,0,1.22,0,13,0,24.5,9.26,28.82,23.11h.29c13.66,0,24.73,12.56,24.74,28.05Z" transform="translate(-498.15 -253.4)"/><path id="Shape-4" data-name="Shape" class="cls-6" d="M713.86,400.43c.34,15.09-10.15,27.63-23.45,28.05H586.92c-18.3,0-33.12-17.72-33.12-39.6s14.82-39.61,33.11-39.61a21.28,21.28,0,0,1,2.52.14c5.26-17.62,19.73-29.56,36.12-29.84,16.36.28,30.81,12.18,36.1,29.74a11.24,11.24,0,0,1,1.16,0c12.54.23,23.55,9.54,27.32,23.11h.28C703.71,372.8,714.2,385.35,713.86,400.43Z" transform="translate(-498.15 -253.4)"/></g><g id="Layer_10" data-name="Layer 10"><path id="Shape-5" data-name="Shape" class="cls-7" d="M697.86,431.78H588.72c-20.89,0-37.83-19.2-37.83-42.9S567.83,346,588.72,346h.74c6.94-18,22.65-29.71,40-29.71s33.07,11.67,40,29.71c13.17.34,24.95,9.4,30.1,23.16,14.91,1,26.39,15.33,25.93,32.27S712.8,431.79,697.86,431.78ZM588.72,352.57c-17.68,0-32,16.26-32,36.31s14.33,36.3,32,36.3H697.86c12,0,21.83-11.08,21.83-24.75s-9.78-24.75-21.83-24.75h-.29a3,3,0,0,1-2.75-2.2c-3.92-12.61-14.45-21-26.23-20.91-.29,0-.57,0-.85,0a3,3,0,0,1-2.93-2.12c-5.59-16.64-19.68-27.63-35.39-27.61s-29.76,11-35.33,27.7a2.9,2.9,0,0,1-3,2.12,23.31,23.31,0,0,0-2.36-.12Z" transform="translate(-498.15 -253.4)"/><path id="Shape-6" data-name="Shape" class="cls-8" d="M570.59,408.68a2.79,2.79,0,0,1-2.26-1.22,32.7,32.7,0,0,1-5.14-25.26c1.8-8.87,7.1-16.3,14.36-20.17a2.78,2.78,0,0,1,3.88,1.58A3.51,3.51,0,0,1,580,368c-7.12,3.83-11.66,11.95-11.69,20.88a24.6,24.6,0,0,0,4.5,14.42,3.67,3.67,0,0,1,.37,3.5A2.92,2.92,0,0,1,570.59,408.68Z" transform="translate(-498.15 -253.4)"/><path id="Shape-7" data-name="Shape" class="cls-7" d="M620.87,497.8a5,5,0,0,1-2.13-.51l-18.21-8.56a5.82,5.82,0,0,1-2.95-3.37,6.67,6.67,0,0,1,.06-4.68L602,468.8A63.78,63.78,0,0,1,590.66,456l-10.58,5a4.76,4.76,0,0,1-4.12,0,5.8,5.8,0,0,1-2.91-3.28l-7.54-20.75a6.4,6.4,0,0,1,2.83-7.94l10.31-4.82a2.62,2.62,0,0,1,2.88.44,3.49,3.49,0,0,1,1.11,3.05,3.26,3.26,0,0,1-1.77,2.62l-9.82,4.58,7.21,19.82,12.29-5.75A2.72,2.72,0,0,1,594,450,57.56,57.56,0,0,0,607.21,465a3.57,3.57,0,0,1,1,4l-5.07,13.9L620.62,491l5.08-13.91a2.87,2.87,0,0,1,3.2-2,46.37,46.37,0,0,0,18.59,0,2.86,2.86,0,0,1,3.2,2l5.1,13.93,17.44-8.2-5.07-13.94a3.58,3.58,0,0,1,1-4A57,57,0,0,0,682.35,450a2.71,2.71,0,0,1,3.5-1.15l12.28,5.76,7.24-19.82-7-3.31a3.38,3.38,0,0,1-1.85-3.66,3,3,0,0,1,2.85-2.72,2.74,2.74,0,0,1,1.15.25L708,428.9a5.76,5.76,0,0,1,2.92,3.33,6.87,6.87,0,0,1,0,4.67l-7.57,20.7a5.81,5.81,0,0,1-2.94,3.34,4.81,4.81,0,0,1-4.16-.05L685.73,456a63.23,63.23,0,0,1-11.31,12.81l4.36,12a6.68,6.68,0,0,1,0,4.6,5.87,5.87,0,0,1-3,3.38l-18.23,8.57a4.78,4.78,0,0,1-4.13,0,5.8,5.8,0,0,1-2.91-3.33l-4.38-12a51.72,51.72,0,0,1-16,0l-4.36,12a5.45,5.45,0,0,1-5,3.79Zm-.41-6.31Zm.54-.28Zm52.42-7.88v0ZM603,483.27h0Zm70.64-.64h0Zm-70.9,0h0ZM698,455.09Zm-120.11-.28Zm120.65,0ZM705.77,435h0Zm-134.88-.66Z" transform="translate(-498.15 -253.4)"/><path id="Shape-8" data-name="Shape" class="cls-7" d="M638.2,461.49c-18.07-.08-34.25-12.72-40.76-31.83a3.67,3.67,0,0,1,.45-3.28,2.74,2.74,0,0,1,2.73-1.18,3,3,0,0,1,2.26,2.11c5.59,16.61,19.64,27.58,35.32,27.58s29.72-11,35.32-27.58a3,3,0,0,1,2.25-2.11,2.75,2.75,0,0,1,2.74,1.18,3.69,3.69,0,0,1,.44,3.28C672.44,448.77,656.26,461.41,638.2,461.49Z" transform="translate(-498.15 -253.4)"/><path id="Shape-9" data-name="Shape" class="cls-8" d="M606.18,355.88a2.86,2.86,0,0,1-2.36-1.38,3.71,3.71,0,0,1-.4-3c6.41-21.81,22.46-22.06,23.13-22.06a3.33,3.33,0,0,1,0,6.6c-.57,0-12.59.42-17.63,17.55a3,3,0,0,1-2.76,2.26Z" transform="translate(-498.15 -253.4)"/><path class="cls-8" d="M578.37,404.54V380h3.34v24.5Zm3.12-9.32v-3.28h4.72a4,4,0,0,0,3-1.08,4.19,4.19,0,0,0,1.06-3.06,4.76,4.76,0,0,0-1.06-3.32,3.86,3.86,0,0,0-3-1.16h-4.66l-.38-3.28h5a6.74,6.74,0,0,1,7.42,7.42,8,8,0,0,1-1.94,5.73,7.23,7.23,0,0,1-5.48,2Zm9.12,9.32L585.5,393H589l5.43,11.53Z" transform="translate(-498.15 -253.4)"/><path class="cls-8" d="M606.51,404.88a8.87,8.87,0,0,1-6.72-2.46q-2.37-2.46-2.37-7.06a10.87,10.87,0,0,1,2-7,6.87,6.87,0,0,1,5.67-2.48,6.58,6.58,0,0,1,5.34,2.24c1.26,1.49,1.89,3.67,1.89,6.52,0,.84,0,1.62-.1,2.35H600.28v-2.8h9a5.8,5.8,0,0,0-1.1-3.79,3.68,3.68,0,0,0-3-1.31,4,4,0,0,0-3.36,1.58,7.31,7.31,0,0,0-1.2,4.49,6.58,6.58,0,0,0,1.65,4.83,6.33,6.33,0,0,0,4.68,1.65,16.07,16.07,0,0,0,2.09-.13c.68-.08,1.38-.2,2.09-.35l.41,3.21a20.63,20.63,0,0,1-2.76.4C607.89,404.85,607.15,404.88,606.51,404.88Z" transform="translate(-498.15 -253.4)"/><path class="cls-8" d="M623,404.88q-1.92,0-3.3-.12a16.28,16.28,0,0,1-2.51-.4l.38-3.31c1.13.19,2.12.32,3,.42a23.57,23.57,0,0,0,2.45.13,9.53,9.53,0,0,0,3.75-.54,1.8,1.8,0,0,0,1.16-1.73,1.68,1.68,0,0,0-.4-1.24,2.85,2.85,0,0,0-1.27-.63l-3.91-1.07a9.54,9.54,0,0,1-3.7-1.7,3.86,3.86,0,0,1-1.19-3.09,4.76,4.76,0,0,1,2.15-4.35c1.43-.9,3.73-1.34,6.91-1.34.83,0,1.59,0,2.31.07s1.44.14,2.19.27l-.36,3.18c-.86-.1-1.63-.16-2.29-.19s-1.31-.06-1.94-.06a11.86,11.86,0,0,0-4.15.53,1.79,1.79,0,0,0-1.28,1.72,1.24,1.24,0,0,0,.53,1.14,5.6,5.6,0,0,0,1.62.65l3.15.83a9.12,9.12,0,0,1,3.92,1.84,4.4,4.4,0,0,1,1.25,3.37,4.77,4.77,0,0,1-2,4.28C628.08,404.44,625.94,404.88,623,404.88Z" transform="translate(-498.15 -253.4)"/><path class="cls-8" d="M635.06,389.46v-3.21h15.41v3.21Zm4.27,6.45V380.73h3.4v15.18Zm7.32,9c-2.58,0-4.44-.57-5.6-1.72s-1.72-3-1.72-5.52v-3.11h3.4v2.93a4.31,4.31,0,0,0,1,3.16,4.47,4.47,0,0,0,3.25,1,17,17,0,0,0,1.7-.09c.6-.06,1.29-.15,2.06-.25l.38,3.21c-.74.14-1.48.24-2.19.31S647.45,404.88,646.65,404.88Z" transform="translate(-498.15 -253.4)"/><path class="cls-8" d="M673.19,404.54l6.59-24.5h4.65l6.59,24.5h-3.37L682.25,383H682l-5.39,21.53Zm3.06-6v-3.28h11.56v3.28Z" transform="translate(-498.15 -253.4)"/><path class="cls-8" d="M694.31,404.54V380h3.34v24.5Zm3-7.59v-3.28H701a5.23,5.23,0,0,0,4-1.41,5.7,5.7,0,0,0,1.35-4.11,4.63,4.63,0,0,0-1.35-3.61,5.74,5.74,0,0,0-4-1.22h-3.69V380H701c2.86,0,5,.69,6.5,2a7.89,7.89,0,0,1,2.21,6.06c0,2.89-.74,5.07-2.21,6.56S703.88,397,701,397Z" transform="translate(-498.15 -253.4)"/><path class="cls-8" d="M713.71,383.32V380h13.87v3.28Zm0,21.22v-3.28h13.87v3.28Zm5.25,0V380h3.34v24.5Z" transform="translate(-498.15 -253.4)"/><path d="M580.5,403.4V378.91h3.34V403.4Zm3.12-9.31v-3.28h4.72a4,4,0,0,0,3-1.09,4.17,4.17,0,0,0,1.07-3.05,4.73,4.73,0,0,0-1.07-3.32,3.84,3.84,0,0,0-3-1.17h-4.66l-.38-3.27h5a6.74,6.74,0,0,1,7.42,7.41,8,8,0,0,1-1.94,5.73,7.18,7.18,0,0,1-5.48,2Zm9.12,9.31-5.11-11.52h3.54l5.42,11.52Z" transform="translate(-498.15 -253.4)"/><path d="M608.64,403.75a8.9,8.9,0,0,1-6.72-2.46q-2.37-2.46-2.37-7.07a10.81,10.81,0,0,1,2-7,6.86,6.86,0,0,1,5.66-2.48,6.58,6.58,0,0,1,5.34,2.24q1.89,2.25,1.89,6.52c0,.84,0,1.63-.1,2.35H602.41v-2.79h9a5.84,5.84,0,0,0-1.09-3.79,3.72,3.72,0,0,0-3-1.32,4,4,0,0,0-3.37,1.59,7.28,7.28,0,0,0-1.19,4.48,6.54,6.54,0,0,0,1.64,4.83,6.29,6.29,0,0,0,4.68,1.66,18,18,0,0,0,2.09-.13c.69-.09,1.38-.21,2.09-.36l.42,3.21a21,21,0,0,1-2.77.4C610,403.72,609.28,403.75,608.64,403.75Z" transform="translate(-498.15 -253.4)"/><path d="M625.11,403.75c-1.28,0-2.38,0-3.3-.13a17.65,17.65,0,0,1-2.51-.39l.39-3.31c1.12.18,2.11.32,3,.41a23.85,23.85,0,0,0,2.45.14,9.28,9.28,0,0,0,3.75-.55,1.8,1.8,0,0,0,1.17-1.73,1.67,1.67,0,0,0-.41-1.23,2.86,2.86,0,0,0-1.26-.63l-3.92-1.07a9.53,9.53,0,0,1-3.7-1.71,3.85,3.85,0,0,1-1.18-3.09,4.72,4.72,0,0,1,2.14-4.34q2.14-1.35,6.91-1.35c.83,0,1.6,0,2.31.08a21.79,21.79,0,0,1,2.19.27l-.35,3.17c-.87-.09-1.64-.16-2.3-.19s-1.31-.05-1.94-.05a11.91,11.91,0,0,0-4.15.52,1.8,1.8,0,0,0-1.28,1.72,1.29,1.29,0,0,0,.53,1.15,5.63,5.63,0,0,0,1.62.64l3.15.83a9.11,9.11,0,0,1,3.93,1.85,4.39,4.39,0,0,1,1.24,3.36,4.77,4.77,0,0,1-2,4.29C630.21,403.3,628.07,403.75,625.11,403.75Z" transform="translate(-498.15 -253.4)"/><path d="M637.19,388.32v-3.2H652.6v3.2Zm4.27,6.46V379.6h3.4v15.18Zm7.32,9q-3.87,0-5.59-1.73t-1.73-5.52v-3.1h3.4v2.93a4.28,4.28,0,0,0,1,3.15,4.47,4.47,0,0,0,3.25,1,14.74,14.74,0,0,0,1.71-.1c.6-.06,1.28-.14,2.05-.25l.39,3.21c-.75.14-1.48.24-2.2.31S649.58,403.75,648.78,403.75Z" transform="translate(-498.15 -253.4)"/><path d="M675.33,403.4l6.58-24.49h4.66l6.58,24.49h-3.37l-5.4-21.53h-.29L678.7,403.4Zm3-6v-3.28h11.56v3.28Z" transform="translate(-498.15 -253.4)"/><path d="M696.44,403.4V378.91h3.34V403.4Zm3-7.59v-3.28h3.75a5.31,5.31,0,0,0,4-1.4,5.73,5.73,0,0,0,1.35-4.12,4.61,4.61,0,0,0-1.35-3.6,5.74,5.74,0,0,0-4-1.23h-3.69v-3.27h3.69q4.29,0,6.5,2a7.88,7.88,0,0,1,2.21,6.05q0,4.33-2.21,6.57t-6.5,2.23Z" transform="translate(-498.15 -253.4)"/><path d="M715.84,382.18v-3.27h13.87v3.27Zm0,21.22v-3.28h13.87v3.28Zm5.25,0V378.91h3.34V403.4Z" transform="translate(-498.15 -253.4)"/></g></g></svg>