<svg id="Layer_1" data-name="Layer 1" xmlns="http://www.w3.org/2000/svg" xmlns:xlink="http://www.w3.org/1999/xlink" viewBox="0 0 274.33 342.65"><defs><style>.cls-1{fill:none;stroke:#fff;stroke-miterlimit:10;}.cls-2{fill:url(#linear-gradient);}.cls-3{fill:#ebebeb;}.cls-4{fill:#a6a6a6;}.cls-5{fill:#f9ff00;}.cls-6{fill:#dbdbdb;}.cls-11,.cls-7{fill:#fff;}.cls-8{fill:#263238;}.cls-9{fill:#455a64;}.cls-10{fill:#c7c7c7;}.cls-11{opacity:0.6;}.cls-11,.cls-12,.cls-13{isolation:isolate;}.cls-12{opacity:0.2;}.cls-13{opacity:0.1;}.cls-14{fill:#d3766a;}.cls-15{fill:#ff9bbc;}</style><linearGradient id="linear-gradient" x1="506.65" y1="468.14" x2="738.07" y2="334.52" gradientUnits="userSpaceOnUse"><stop offset="0" stop-color="#f9ff00" stop-opacity="0.1"/><stop offset="0.46" stop-color="#f7ec13" stop-opacity="0.67"/><stop offset="0.77" stop-color="#f9ff00"/></linearGradient></defs><rect class="cls-1" x="0.5" y="0.5" width="273.33" height="341.65"/><path class="cls-2" d="M721.14,324c-17.37-8.68-55.94-24.85-104.46-19.67-8.49.91-79.07,8.45-98.22,48.79-2.21,4.66-6.16,13.35-5.24,24.45,2.29,27.57,31.81,32.74,34.15,55.1,2.57,24.7-31.52,36.72-27.18,57.16,3.59,16.9,30.07,23.71,43.74,27.22,29.17,7.51,74,6.7,83.64-15.28,7.12-16.23-9.65-33.21,0-45,1.69-2.06,11.84-5.14,32.08-11.2,11.35-3.4,17.05-4.94,19.54-5.51,13.2-3,17.8-2.42,26.76-7.79,3.67-2.2,21.83-13.65,27.69-36.32,4.22-16.37-.19-30-1.74-34.62C745.16,341.27,731.2,329,721.14,324Z" transform="translate(-498.15 -253.4)"/><g id="freepik--background-complete--inject-18"><path class="cls-3" d="M578.64,358H535.57v-38.2h43.07Zm-42.73-.44H578.3V320.19H535.91Z" transform="translate(-498.15 -253.4)"/><path class="cls-4" d="M538.94,322.2a.89.89,0,1,1-.86-1.11h0A1,1,0,0,1,538.94,322.2Z" transform="translate(-498.15 -253.4)"/><path class="cls-3" d="M542.44,322.2a.89.89,0,1,1-.86-1.11h0A1,1,0,0,1,542.44,322.2Z" transform="translate(-498.15 -253.4)"/><path class="cls-5" d="M545.94,322.2a.89.89,0,1,1-.86-1.11h0A1,1,0,0,1,545.94,322.2Z" transform="translate(-498.15 -253.4)"/><rect class="cls-3" x="37.58" y="70.77" width="42.73" height="0.44"/><path class="cls-3" d="M733.93,425.47l-4.46.12-2.27.05c-.76,0-1.52,0-2.28,0h-.15v-.2l0-5v-.22h.17l4.51,0c1.5,0,3,0,4.5.07h.1v.12c0,.84,0,1.67,0,2.5Zm0,0,0-2.49c0-.82,0-1.64,0-2.45l.09.13c-1.5,0-3,.07-4.5.07l-4.51,0,.17-.22v4.94l-.15-.2c.74,0,1.48,0,2.23,0l2.21.08Z" transform="translate(-498.15 -253.4)"/><path class="cls-3" d="M728.91,431.69l-4.47.12-2.26.05c-.76,0-1.52,0-2.28,0h-.15v-5.36h.17l4.5,0c1.5,0,3,.05,4.51.08H729v.11c0,.84,0,1.68,0,2.5Zm0,0,0-2.49c0-.82,0-1.63,0-2.45l.09.13c-1.5,0-3,.07-4.51.07l-4.5,0,.17-.22v4.94l-.15-.2c.74,0,1.48,0,2.23,0l2.23.05Z" transform="translate(-498.15 -253.4)"/><path class="cls-3" d="M739,431.69l-4.46.12-2.26.05c-.76,0-1.52,0-2.28,0h-.15v-.2l0-4.94v-.22H730l4.5,0c1.5,0,3,.05,4.5.08h.1v.11c0,.84,0,1.68,0,2.5Zm0,0,0-2.49c0-.82,0-1.63,0-2.45l.09.13c-1.5,0-3,.07-4.5.07l-4.5,0,.17-.22v4.94l-.15-.2c.74,0,1.48,0,2.22,0l2.24.05Z" transform="translate(-498.15 -253.4)"/><path class="cls-3" d="M612.31,366.76l-4.46.12-2.26.05h-2.43v-.2l0-4.93v-.22h.17l4.5,0c1.5,0,3,0,4.5.07h.1v.12c0,.83,0,1.66,0,2.49Zm0,0,0-2.5c0-.82,0-1.63,0-2.43l.09.12c-1.5,0-3,.07-4.5.07l-4.5,0,.17-.22,0,4.93-.15-.2c.74,0,1.48,0,2.22,0l2.24.05Z" transform="translate(-498.15 -253.4)"/><path class="cls-3" d="M607.28,373l-4.46.12-2.27,0c-.75,0-1.51,0-2.27,0h-.15V373l0-4.93v-.22h.17l4.5,0c1.5,0,3,.05,4.51.07h.09v.12c0,.84,0,1.67,0,2.49Zm0,0,0-2.49c0-.82,0-1.64,0-2.44l.09.12c-1.5,0-3,.07-4.5.07l-4.5,0,.17-.22V373l-.15-.2c.74,0,1.48,0,2.22,0l2.24.05Z" transform="translate(-498.15 -253.4)"/><path class="cls-3" d="M617.34,373l-4.47.12-2.26,0c-.76,0-1.52,0-2.28,0h-.15V373l0-4.93v-.22h.17l4.5,0c1.51,0,3,.05,4.51.07h.09v.12c0,.84,0,1.67,0,2.49Zm0,0-.05-2.49c0-.82,0-1.64,0-2.44l.09.12c-1.5,0-3,.07-4.51.07l-4.5,0,.17-.22,0,4.93-.15-.2c.75,0,1.48,0,2.23,0l2.24.05Z" transform="translate(-498.15 -253.4)"/><path class="cls-3" d="M529.87,441.63l-4.46.12-2.27.06c-.75,0-1.51,0-2.27,0h-.15v-5.35h.17l4.5,0c1.5,0,3,.05,4.5.07h.1v.12c0,.84,0,1.67,0,2.49Zm0,0,0-2.49c0-.82,0-1.63-.05-2.44l.09.12c-1.5,0-3,.07-4.5.07l-4.5,0,.17-.22,0,4.93-.15-.19c.74,0,1.48,0,2.22,0l2.24.05Z" transform="translate(-498.15 -253.4)"/><path class="cls-3" d="M688.18,366.76l-4.46.12-2.27.05c-.75,0-1.52,0-2.27,0H679v-.2l0-4.93v-.22h.17l4.5,0c1.5,0,3,.06,4.5.08h.1v.12c0,.83,0,1.67,0,2.49Zm0,0,0-2.5c0-.82,0-1.63,0-2.44l.09.12c-1.5,0-3,.07-4.5.08l-4.5,0,.17-.22v4.94l-.16-.2c.74,0,1.49,0,2.23,0l2.24.05Z" transform="translate(-498.15 -253.4)"/><path class="cls-3" d="M733.41,318.84,729,319l-2.27.05c-.76,0-1.52,0-2.28,0h-.15v-5.36h.17l4.51,0c1.5,0,3,.05,4.5.07h.1v.12c0,.84,0,1.67,0,2.49Zm0,0,0-2.49c0-.83,0-1.64,0-2.45l.09.12c-1.5,0-3,.07-4.5.08l-4.51,0,.17-.22v4.94l-.16-.2c.75,0,1.49,0,2.23,0l2.24,0Z" transform="translate(-498.15 -253.4)"/><path class="cls-3" d="M738.43,325.06l-4.46.12-2.26.05c-.76,0-1.52,0-2.28,0h-.15v-.2l0-4.93v-.22h.17l4.5,0c1.5,0,3,.05,4.5.07h.1v.12c0,.84,0,1.67,0,2.49Zm0,0,0-2.49c0-.83,0-1.64,0-2.45l.09.12c-1.5,0-3,.07-4.5.08l-4.5,0,.17-.23v4.94l-.16-.2c.75,0,1.49,0,2.23,0l2.24.05Z" transform="translate(-498.15 -253.4)"/><path class="cls-3" d="M528.83,318.84l-4.46.13-2.27,0c-.75,0-1.51,0-2.27,0h-.16v-5.35h.18l4.5,0c1.5,0,3,0,4.5.07h.1v.12c0,.84,0,1.67-.05,2.49Zm0,0-.05-2.49c0-.82,0-1.63,0-2.44l.09.12c-1.5,0-3,.07-4.5.07l-4.5,0,.17-.22,0,4.93-.15-.17h2.22l2.24.05Z" transform="translate(-498.15 -253.4)"/><polygon class="cls-3" points="56.36 168.59 32.66 176.62 24.7 137.18 42.3 131.22 48.4 129.15 49.92 136.66 56.36 168.59"/><polygon class="cls-6" points="47.87 137.48 28.56 144.02 28.36 143.01 47.66 136.47 47.87 137.48"/><polygon class="cls-6" points="48.38 140.03 29.07 146.57 28.87 145.56 48.18 139.02 48.38 140.03"/><polygon class="cls-6" points="48.9 142.59 29.59 149.14 29.39 148.13 48.69 141.58 48.9 142.59"/><polygon class="cls-6" points="49.41 145.15 30.1 151.69 29.9 150.68 49.21 144.14 49.41 145.15"/><polygon class="cls-6" points="49.92 147.7 30.62 154.25 30.41 153.23 49.72 146.69 49.92 147.7"/><polygon class="cls-6" points="50.62 149.88 31.27 156.35 31.07 155.34 50.42 148.87 50.62 149.88"/><polygon class="cls-6" points="50.96 152.82 31.65 159.36 31.45 158.35 50.75 151.81 50.96 152.82"/><polygon class="cls-6" points="51.66 154.98 32.3 161.44 32.1 160.43 51.46 153.96 51.66 154.98"/><polygon class="cls-6" points="52.18 157.52 32.83 163.99 32.63 162.97 51.98 156.51 52.18 157.52"/><polygon class="cls-6" points="52.51 160.49 33.2 167.03 32.99 166.02 52.3 159.48 52.51 160.49"/><polygon class="cls-6" points="53.23 162.62 33.87 169.09 33.67 168.07 53.02 161.61 53.23 162.62"/><polygon class="cls-6" points="53.74 165.17 34.39 171.63 34.19 170.62 53.54 164.15 53.74 165.17"/><polygon class="cls-3" points="62.65 179.97 38.19 181.74 36.44 141.04 54.59 139.72 61.23 147.02 62.65 179.97"/><polygon class="cls-6" points="54.59 139.72 61.23 147.02 54.93 147.48 54.59 139.72"/><polygon class="cls-6" points="52.77 147.75 39.17 148.74 39.12 147.69 52.72 146.71 52.77 147.75"/><polygon class="cls-6" points="52.88 150.39 39.28 151.38 39.23 150.33 52.83 149.35 52.88 150.39"/><polygon class="cls-6" points="52.99 153.03 39.39 154.01 39.35 152.97 52.95 151.98 52.99 153.03"/><polygon class="cls-6" points="59.43 155.21 39.51 156.65 39.46 155.61 59.38 154.16 59.43 155.21"/><polygon class="cls-6" points="59.55 157.84 39.62 159.29 39.58 158.24 59.5 156.8 59.55 157.84"/><polygon class="cls-6" points="59.66 160.48 39.74 161.93 39.69 160.88 59.61 159.44 59.66 160.48"/><polygon class="cls-6" points="59.77 163.12 39.85 164.56 39.8 163.52 59.73 162.08 59.77 163.12"/><polygon class="cls-6" points="59.88 165.76 39.96 167.2 39.92 166.16 59.84 164.72 59.88 165.76"/><polygon class="cls-6" points="60 168.4 40.08 169.84 40.03 168.8 59.95 167.35 60 168.4"/><polygon class="cls-6" points="60.11 171.03 40.19 172.47 40.15 171.43 60.07 169.99 60.11 171.03"/><polygon class="cls-6" points="60.23 173.67 40.3 175.12 40.26 174.07 60.18 172.63 60.23 173.67"/><polygon class="cls-6" points="60.34 176.31 40.42 177.75 40.37 176.71 60.3 175.27 60.34 176.31"/><polygon class="cls-3" points="200.76 97.29 224.23 119.67 235.76 99.31 212.3 76.93 200.76 97.29"/><polygon class="cls-7" points="202.46 96.95 223.97 117.47 234.07 99.65 212.55 79.13 202.46 96.95"/><path class="cls-6" d="M709.51,339.94a4.53,4.53,0,0,0,.62,5.26c1.29,1.24,3.11.88,4.06-.8a4.53,4.53,0,0,0-.62-5.26A2.5,2.5,0,0,0,709.51,339.94Z" transform="translate(-498.15 -253.4)"/><polygon class="cls-6" points="209.12 103.35 223.94 117.49 223.92 97.4 209.12 103.35"/><polygon class="cls-3" points="203.31 97.81 215.54 109.49 214.24 95.17 203.31 97.81"/><polygon class="cls-3" points="192.26 87.66 221.39 88.16 221.63 62.91 192.5 62.4 192.26 87.66"/><polygon class="cls-7" points="193.48 86.1 220.2 86.57 220.4 64.46 193.69 64 193.48 86.1"/><path class="cls-6" d="M694.2,324.33c0,2.08,1.27,3.79,2.87,3.82s2.93-1.64,2.95-3.72-1.27-3.79-2.87-3.82-2.93,1.64-2.95,3.72Z" transform="translate(-498.15 -253.4)"/><polygon class="cls-6" points="201.78 86.28 220.18 86.61 211.15 70.28 201.78 86.28"/><polygon class="cls-3" points="194.56 86.17 209.75 86.43 202.27 75.77 194.56 86.17"/></g><g id="freepik--Plant--inject-18"><path class="cls-5" d="M734.61,415.59c-4.35,7.64-8.88,16.51-10,26.09,0,.15.17.2.19.05a69.94,69.94,0,0,1,1.93-7.67c2.86-1,5.67-1.86,7.17-5.54s1.34-8.71,1-12.84A.18.18,0,0,0,734.61,415.59Z" transform="translate(-498.15 -253.4)"/><path class="cls-8" d="M726.78,434a68.42,68.42,0,0,1,7.65-16.07s.06,0,0,0a73.55,73.55,0,0,0-5.23,10.65c1.45-1.89,3-3.59,4.39-5.6,0,0,.07,0,0,.06a28.65,28.65,0,0,1-4.6,5.95l-1.43,3.41c.11-.09.24-.16.36-.24s0,0,0,0l-.41.26-.68,1.61C726.87,434.19,726.74,434.1,726.78,434Z" transform="translate(-498.15 -253.4)"/><path class="cls-8" d="M728.23,432a25.72,25.72,0,0,0,3.34-2.88s.08,0,0,0a18.34,18.34,0,0,1-3.33,2.94s0,0-.06,0A.07.07,0,0,1,728.23,432Z" transform="translate(-498.15 -253.4)"/><path class="cls-5" d="M724.12,440.25c0,.06,0,.09.1.08a.1.1,0,0,0,.06-.08c0-3.15,0-6.32,0-9.49.62-1.63,2-2.54,2.89-3.84a17.29,17.29,0,0,0,1.73-3.14,27.65,27.65,0,0,0,2-8.7c.25-3.37-.73-14.51-1.83-14.11-.57.2-2.41,5.73-2.9,7.54a66.05,66.05,0,0,0-1.73,9.26A125.89,125.89,0,0,0,724.12,440.25Z" transform="translate(-498.15 -253.4)"/><path class="cls-8" d="M724.1,426.64h0a90.61,90.61,0,0,1,1.48-11.9,48,48,0,0,1,3.17-11.82,0,0,0,0,1,.07,0,.08.08,0,0,1,0,.07,53.33,53.33,0,0,0-2.55,9.07c.11-.22.25-.44.37-.65s.15,0,.1.09a6.11,6.11,0,0,1-.52.94h0c-.57,3-1,6-1.33,9.07,0,0,0-.08.08-.11s0,0,0,0-.1.2-.14.3c-.18,1.55-.34,3.09-.51,4.62a22.1,22.1,0,0,0,5-8.54h0a18.06,18.06,0,0,1-5,8.82l-.13,1.24c0,.08-.12.06-.12,0,0-.37,0-.74,0-1.1a.09.09,0,0,1,0-.12Z" transform="translate(-498.15 -253.4)"/><path class="cls-8" d="M725.1,420.86a70.21,70.21,0,0,0,4.32-9.65s.07,0,.05,0a34.19,34.19,0,0,1-4.29,9.7C725.14,421,725.07,420.92,725.1,420.86Z" transform="translate(-498.15 -253.4)"/><path class="cls-8" d="M727.25,410.44c.68-1.54,1.36-3,2-4.61,0-.05.07,0,.06,0a27.65,27.65,0,0,1-2,4.66C727.31,410.59,727.21,410.52,727.25,410.44Z" transform="translate(-498.15 -253.4)"/><path class="cls-8" d="M727,411.11" transform="translate(-498.15 -253.4)"/><path class="cls-5" d="M722.47,431.13a40.16,40.16,0,0,1-.57,6.21c0,.23.05.45.08.68a38.86,38.86,0,0,0,.86-6.92.26.26,0,0,0,0-.21h0a59,59,0,0,0-.54-9.4c-.74-5.82-2.4-11.37-5.5-15.71a.18.18,0,0,0-.31,0l0,.05c-1.26,4.15-.82,9.1.25,13.23a27.36,27.36,0,0,0,2.47,6.3C720.24,427.35,721.6,429,722.47,431.13Z" transform="translate(-498.15 -253.4)"/><path class="cls-8" d="M717.14,407.73a54.09,54.09,0,0,1,5.26,20.95c0,.12-.16.16-.17,0-.07-.66-.15-1.33-.23-2h0a24.31,24.31,0,0,1-3.36-5,.05.05,0,0,1,0,0h0a49.51,49.51,0,0,0,3.27,4.57c-.21-1.62-.46-3.22-.76-4.8-.08-.11-.15-.23-.23-.35s0-.19.09-.12l.07.1c-.42-2.15-.94-4.28-1.55-6.35a19.72,19.72,0,0,1-2.14-3.58s0,0,0,0h0c.42.82.88,1.6,1.36,2.35.2.3.42.58.62.89a56,56,0,0,0-2.42-6.54.1.1,0,0,1,.05-.1A0,0,0,0,1,717.14,407.73Z" transform="translate(-498.15 -253.4)"/><path class="cls-8" d="M717.75,415.39c1,1.67,2,3.26,2.93,5,0,.05,0,.11-.06.07a26.15,26.15,0,0,1-2.93-5C717.66,415.39,717.72,415.34,717.75,415.39Z" transform="translate(-498.15 -253.4)"/><path class="cls-8" d="M720.82,420.76l0,.05s0,.1,0,.06l0-.05s0-.05,0-.06A0,0,0,0,1,720.82,420.76Z" transform="translate(-498.15 -253.4)"/><path class="cls-5" d="M712.52,419.68a22.43,22.43,0,0,0,3.12,9.49,8.43,8.43,0,0,0,2.53,2.55,37.6,37.6,0,0,0,3.38,2.09,34.59,34.59,0,0,1,1.19,5.51c0-.16.08-.33.11-.49a29.27,29.27,0,0,0-9.94-19.47.22.22,0,0,0-.35.09A.43.43,0,0,0,712.52,419.68Z" transform="translate(-498.15 -253.4)"/><path class="cls-8" d="M714.31,422.07s0-.13.05-.09a27.26,27.26,0,0,1,6.6,10.53c0,.11-.09.21-.13.1-.25-.55-.49-1.08-.74-1.6h0a7,7,0,0,1-3.18-2.39s0-.07,0,0a7.39,7.39,0,0,0,1.5,1.36,13.24,13.24,0,0,0,1.5.77c-.44-.88-.9-1.76-1.37-2.6a13.19,13.19,0,0,1-3.54-2.59s0-.1,0-.07a34.07,34.07,0,0,0,3.3,2.28,37.63,37.63,0,0,0-2.33-3.52c-.4-.28-.81-.56-1.2-.85a0,0,0,0,1,0-.05s0,0,0,0h0a4.35,4.35,0,0,1,.92.59C715.31,423.26,714.83,422.66,714.31,422.07Z" transform="translate(-498.15 -253.4)"/><path class="cls-8" d="M714.42,424.87a1.71,1.71,0,0,1,.2.18s0,.06,0,.05a1.16,1.16,0,0,1-.21-.16S714.38,424.84,714.42,424.87Z" transform="translate(-498.15 -253.4)"/><polygon class="cls-9" points="232.77 203.47 218.6 203.47 219.74 186.73 219.99 183.04 231.38 183.04 231.63 186.73 232.77 203.47"/><polygon class="cls-8" points="231.63 186.73 219.74 186.73 219.99 183.04 231.38 183.04 231.63 186.73"/><rect class="cls-9" x="219.32" y="180.46" width="12.74" height="3.65"/></g><g id="freepik--Floor--inject-18"><polygon class="cls-8" points="16.72 203.47 45.35 203.35 73.98 203.32 131.24 203.25 188.49 203.32 217.12 203.35 245.75 203.47 217.12 203.57 188.49 203.61 131.24 203.69 73.98 203.61 45.35 203.57 16.72 203.47"/></g><g id="freepik--Shadow--inject-18"><ellipse class="cls-3" cx="131.24" cy="230.48" rx="110.29" ry="11.34"/></g><g id="freepik--Device--inject-18"><rect class="cls-3" x="52.15" y="73.61" width="158.18" height="137.17"/><rect class="cls-8" x="53.3" y="75.28" width="155.88" height="133.82"/><rect class="cls-6" x="31.55" y="221.06" width="199.38" height="9.41"/><polygon class="cls-3" points="31.55 221.06 52.15 210.78 210.32 210.78 230.93 221.06 31.55 221.06"/><polygon class="cls-8" points="53.99 217.41 67.28 210.78 195.19 210.78 208.49 217.41 53.99 217.41"/><rect class="cls-7" x="62.11" y="85.45" width="138.26" height="113.49"/><rect class="cls-5" x="61.99" y="89.82" width="135.92" height="28.64"/><rect class="cls-9" x="61.99" y="85.45" width="138.37" height="4.36"/><path class="cls-10" d="M562.82,341a.86.86,0,1,1-1.67,0A1,1,0,0,1,562,340h0a1,1,0,0,1,.83,1.08Z" transform="translate(-498.15 -253.4)"/><path class="cls-7" d="M566.23,341a.86.86,0,1,1-1.67,0,1,1,0,0,1,.83-1.08h0a1,1,0,0,1,.83,1.08Z" transform="translate(-498.15 -253.4)"/><path class="cls-5" d="M569.64,341a.86.86,0,1,1-1.67,0,1,1,0,0,1,.84-1.08h0a1,1,0,0,1,.83,1.08Z" transform="translate(-498.15 -253.4)"/><rect class="cls-6" x="197.91" y="89.82" width="2.46" height="109.12"/><path class="cls-4" d="M697.29,381.05h0a.74.74,0,0,1-.63-.82V344.68a.74.74,0,0,1,.63-.82h0a.76.76,0,0,1,.64.82v35.55A.76.76,0,0,1,697.29,381.05Z" transform="translate(-498.15 -253.4)"/><rect class="cls-7" x="157.78" y="95.14" width="33.05" height="5.72"/><path class="cls-10" d="M689,354.32H655.89v-5.84H689Zm-33-.12h33v-5.6H656Z" transform="translate(-498.15 -253.4)"/><rect class="cls-9" x="186.37" y="95.08" width="4.5" height="5.84"/><path class="cls-7" d="M688.18,353l-.41.4-.76-1.29-.27-.47a.57.57,0,0,0,.15-.12.82.82,0,0,0,.21-.35l.3.5Z" transform="translate(-498.15 -253.4)"/><path class="cls-7" d="M687.37,350a1,1,0,0,0-1.56-.27,1.76,1.76,0,0,0-.21,2,1,1,0,0,0,1.41.4.65.65,0,0,0,.16-.13,1.63,1.63,0,0,0,.2-2Zm-.48,1.57a.83.83,0,0,1-.15.11.59.59,0,0,1-.78-.27,1.1,1.1,0,0,1-.07-1.25.58.58,0,0,1,1-.09.92.92,0,0,1,.17.29,1.09,1.09,0,0,1,.08.85.79.79,0,0,1-.21.34Z" transform="translate(-498.15 -253.4)"/><rect class="cls-10" x="158.7" y="96.26" width="0.24" height="3.47"/><rect class="cls-7" x="80.02" y="95.14" width="76.11" height="5.72"/><path class="cls-10" d="M654.32,354.32H578.14v-5.84h76.18Zm-76.1-.12h76v-5.6h-76Z" transform="translate(-498.15 -253.4)"/><rect class="cls-10" x="80.94" y="96.26" width="0.24" height="3.47"/><polygon class="cls-7" points="71.69 99.96 70.09 98.04 71.69 96.05 71.94 96.38 70.61 98.03 71.94 99.61 71.69 99.96"/><polygon class="cls-7" points="75.57 96.04 77.17 97.96 75.57 99.95 75.33 99.62 76.65 97.97 75.33 96.39 75.57 96.04"/><rect class="cls-5" x="113.74" y="124.76" width="35.05" height="34.86"/><path class="cls-11" d="M615.39,385.79c-.35,2.23.77,4.4,2.5,4.85s3.4-1,3.74-3.24-.77-4.41-2.5-4.86a2.64,2.64,0,0,0-1.25,0A3.78,3.78,0,0,0,615.39,385.79Z" transform="translate(-498.15 -253.4)"/><polygon class="cls-5" points="125.31 152.11 148.79 152.11 137.05 133.35 125.31 152.11"/><polygon class="cls-12" points="125.31 152.11 148.79 152.11 137.05 133.35 125.31 152.11"/><polygon class="cls-5" points="113.74 152.13 134.57 152.13 124.16 139.91 113.74 152.13"/><polygon class="cls-13" points="113.74 152.13 134.57 152.13 124.16 139.91 113.74 152.13"/><rect class="cls-5" x="113.74" y="152.11" width="35.05" height="7.51"/><rect class="cls-13" x="113.74" y="152.11" width="35.05" height="7.51"/><rect class="cls-4" x="69.49" y="164.44" width="18.53" height="2.02"/><rect class="cls-3" x="69.49" y="169.13" width="78.76" height="2.02"/><rect class="cls-3" x="69.49" y="173.58" width="78.76" height="2.02"/><rect class="cls-3" x="69.49" y="178.03" width="78.76" height="2.02"/><rect class="cls-3" x="69.49" y="182.47" width="78.76" height="2.02"/><rect class="cls-3" x="69.49" y="186.92" width="78.76" height="2.02"/><rect class="cls-4" x="153.61" y="125.07" width="18.53" height="2.02"/><rect class="cls-3" x="153.61" y="129.75" width="39.38" height="2.02"/><rect class="cls-3" x="153.61" y="134.2" width="39.38" height="2.02"/><rect class="cls-3" x="153.61" y="138.65" width="39.38" height="2.02"/><rect class="cls-3" x="153.61" y="143.1" width="39.38" height="2.02"/><rect class="cls-3" x="153.61" y="151.34" width="39.38" height="2.02"/><rect class="cls-3" x="153.61" y="155.79" width="39.38" height="2.02"/><rect class="cls-3" x="153.61" y="160.24" width="39.38" height="2.02"/><rect class="cls-3" x="153.61" y="164.68" width="39.38" height="2.02"/><rect class="cls-3" x="153.61" y="169.13" width="39.38" height="2.02"/><rect class="cls-3" x="153.61" y="178.03" width="39.38" height="2.02"/><rect class="cls-3" x="153.61" y="182.47" width="26.54" height="2.02"/><rect class="cls-8" x="180.94" y="181.2" width="0.17" height="4.57"/><rect class="cls-4" x="69.49" y="124.76" width="18.53" height="5.41"/><rect class="cls-3" x="69.49" y="133.9" width="39.32" height="2.02"/><rect class="cls-3" x="69.49" y="138.35" width="39.32" height="2.02"/><rect class="cls-3" x="69.49" y="142.79" width="39.32" height="2.02"/><rect class="cls-3" x="69.49" y="147.24" width="39.32" height="2.02"/><rect class="cls-3" x="69.49" y="153.15" width="39.32" height="2.02"/><rect class="cls-3" x="69.49" y="157.6" width="39.32" height="2.02"/></g><g id="freepik--Pen--inject-18"><path class="cls-5" d="M639.12,490s-7.82.71-7.77-6.25,7.88-6,7.88-6Z" transform="translate(-498.15 -253.4)"/><path class="cls-5" d="M700.9,483.19l0,3.05L694,490.76h0l-31-.44-19.92-.3-2.2,0h-2.13l.11-12.28h.31l1.59,0h.23l2.19,0,50.89.75h0l6.76,4.72Z" transform="translate(-498.15 -253.4)"/><polygon class="cls-9" points="204.26 231.34 202.73 232.37 202.72 232.37 202.75 230.29 203.67 230.93 204.26 231.34"/><polygon class="cls-8" points="140.36 237.59 140.49 223.25 142.68 223.28 142.55 237.62 140.36 237.59"/><polygon class="cls-8" points="142.62 237.37 142.73 223.03 144.92 223.06 144.81 237.4 142.62 237.37"/><polygon class="cls-8" points="144.97 237.64 145.01 233.01 164.96 235.86 164.87 237.56 144.97 237.64"/></g><g id="freepik--Character--inject-18"><path class="cls-8" d="M590.84,404.32c1.92,3,3.45,20.23,1,26.94s-12.93,8.14-15.19-.5c-1.19-4.5,1.8-9.53,3.19-21.43C580.89,400.45,588.14,400.08,590.84,404.32Z" transform="translate(-498.15 -253.4)"/><path class="cls-8" d="M589.67,433.75a9.42,9.42,0,0,0,3.46-5.67,34.23,34.23,0,0,0,.38-8.1,62.58,62.58,0,0,0-2.64-15.57s0,0,0,0a57.28,57.28,0,0,1,2.81,16.47,25.45,25.45,0,0,1-.68,8.19,8.94,8.94,0,0,1-3.34,4.73S589.64,433.75,589.67,433.75Z" transform="translate(-498.15 -253.4)"/><path class="cls-8" d="M576.82,420.79a43.87,43.87,0,0,0,1.7-4.92c.4-1.73.57-3.41.85-5.13.42-2.64,1.14-5.29,2.85-7h0c-1.74,1.81-2.35,4.64-2.76,7.36-.22,1.49-.4,3-.72,4.46a27.49,27.49,0,0,1-1.22,3.79c-1.14,2.92-2,5.93-1.5,9.26a8.71,8.71,0,0,0,3.79,6.28c.06,0,0,.17,0,.14a8.27,8.27,0,0,1-3.7-5.39A15.5,15.5,0,0,1,576.82,420.79Z" transform="translate(-498.15 -253.4)"/><path class="cls-8" d="M577.57,420.93a28,28,0,0,0,1.17-4.78c.23-1.58.34-3.17.56-4.75.34-2.7,1-5.47,2.64-7.36,0,0,0,0,0,0-1.56,2-2.19,4.67-2.53,7.37A49.65,49.65,0,0,1,578,420c-.83,2.7-2,5.4-1.87,8.38a8.91,8.91,0,0,0,3.52,6.69.11.11,0,0,1,0,.08s0,0,0,0a8.91,8.91,0,0,1-3.51-5.62C575.61,426.56,576.67,423.63,577.57,420.93Z" transform="translate(-498.15 -253.4)"/><path class="cls-14" d="M659.53,470.5c-.81.4-24.22.95-25.14.27-.1-.07-.07-1.42-.41-4.88a8.91,8.91,0,0,0-1.39-1.72c-3.13-3.4-10.49-10.58-10.49-10.58l11.68-13.16,11.33,14.43,2.94,3.75s9.57,6.7,10.52,7.58S660.34,470.1,659.53,470.5Z" transform="translate(-498.15 -253.4)"/><path class="cls-5" d="M659.53,470.5c-.8.4-24.22.95-25.14.27-.1-.07-.07-1.42-.41-4.88,2.87,1,20.46,1.6,21.8.11.9-1-2.56-3.7-4-4.74,2.79,2,6.22,4.43,6.77,4.94C659.51,467.09,660.34,470.1,659.53,470.5Z" transform="translate(-498.15 -253.4)"/><path class="cls-9" d="M645.27,454.06l-14.44,9.7S615.78,446.13,614.4,446s-21.62,17.68-31.82,17.76c-10.54.06-11.09-14.28-11.09-14.28l15.4-4.59c11.1-7.09,22.67-19.84,30.23-18.64C625.33,427.49,645.27,454.06,645.27,454.06Z" transform="translate(-498.15 -253.4)"/><path class="cls-8" d="M641.74,451.59c-2.44,1.57-1.75,1.08-4.18,2.67-1.19.78-7.14,4.69-8.16,5.65,0,0,0,0,0,0s0,0,0,0c1.19-.52,7.1-4.59,8.28-5.4,2.4-1.66,1.7-1.22,4.08-2.9a0,0,0,0,0,0-.07s0,0,0,0Z" transform="translate(-498.15 -253.4)"/><path class="cls-8" d="M628.27,459.29c-2.83-3.22-12.08-13.73-12.45-14.11a5.65,5.65,0,0,0-1-.93.83.83,0,0,0-.89.09c-.43.26-.85.54-1.27.81l-2.5,1.59c-3.24,2-6.46,4.15-9.72,6.12s-5.37,3.7-8.65,5.17a40.08,40.08,0,0,1-10.05,3.08l-1.26.18a0,0,0,1,0,0,.06A32.27,32.27,0,0,0,590.4,459c3.24-1.29,5.44-3,8.52-4.81s6.35-4,9.49-6l5-3.21c.38-.25.92-.77,1.36-.51a2.51,2.51,0,0,1,.5.48l.55.6c.72.77,12.06,13.43,12.43,13.8C628.26,459.37,628.3,459.32,628.27,459.29Z" transform="translate(-498.15 -253.4)"/><path class="cls-9" d="M571.47,449.43s-1.73,12.95,3.26,18,41.58,4.47,47.13,2.15,5.72-13.94-.34-16.63c-5.79-2.56-30.33-3.8-30.93-4.11-.16-.08,2.17-1.9,2.16-2l-5.58-2.2Z" transform="translate(-498.15 -253.4)"/><path class="cls-8" d="M579.05,449.1c0-.05-.07,0-.07,0a7.71,7.71,0,0,1-1.15,4.12,10.45,10.45,0,0,1-3.24,2.73c-.11.07,0,.29.08.25a9.12,9.12,0,0,0,2-1.13,5.35,5.35,0,0,0,1.51-1.62A6.84,6.84,0,0,0,579.05,449.1Z" transform="translate(-498.15 -253.4)"/><path class="cls-8" d="M590.18,447.5c-.25-.42-.53-.82-.79-1.23-.63-1-1.26-1.93-1.91-2.86-.06-.09-.19,0-.13.13.44.75.91,1.47,1.36,2.2l.71,1.12a8,8,0,0,1,.67,1.09.55.55,0,0,1-.39.81,1,1,0,0,1-.8-.37,13.9,13.9,0,0,1-1.36-1.88c-.26-.39-.52-.77-.79-1.15s-.59-.78-.87-1.19c0,0,0,0,0,0,.25.44.48.88.73,1.32l.75,1.33c.26.44.5.81.75,1.2a3.87,3.87,0,0,0,.77.88.94.94,0,0,0,1.55-.35A1.37,1.37,0,0,0,590.18,447.5Z" transform="translate(-498.15 -253.4)"/><path class="cls-8" d="M621.1,469.65c-1.91.05-3.82.19-5.73.25s-3.79.06-5.69,0q-5.71-.07-11.42-.58c-3.84-.34-8-.84-11.79-1.52-1.82-.33-3.67-.6-5.48-1.1a8.18,8.18,0,0,1-4.32-2.87c-2.47-3.1-3.43-7.67-3.83-12-.05-.59-.09-1.18-.13-1.77,0,0,0,0,0,0l0,0s0,0,0,0c.22,4.47.76,9.14,2.92,12.74a9.38,9.38,0,0,0,3.54,3.56,18.11,18.11,0,0,0,5.41,1.42c3.83.67,8,1.19,11.84,1.58s7.76.63,11.64.7,7.78,0,11.66-.24l1.42-.12s0,0,0,0Z" transform="translate(-498.15 -253.4)"/><path class="cls-8" d="M609.05,450.62c-1.2-.23-2.4-.44-3.61-.61s-2.45-.31-3.67-.44c-2.42-.27-4.85-.51-7.28-.66-1.38-.08-2.75-.09-4.13-.07-.05,0,0,.09,0,.09,2.42.28,4.85.48,7.28.69s4.85.49,7.27.79c1.36.17,2.75.3,4.12.44C609.13,450.86,609.15,450.64,609.05,450.62Z" transform="translate(-498.15 -253.4)"/><path class="cls-8" d="M593,446.71a18.31,18.31,0,0,0-2.79,1.93,23.51,23.51,0,0,0-2.58,2.34,0,0,0,0,0,0,0,32.22,32.22,0,0,0,2.76-2,25.76,25.76,0,0,0,2.63-2.2C593.15,446.82,593.12,446.67,593,446.71Z" transform="translate(-498.15 -253.4)"/><path class="cls-14" d="M582.7,423.57c1.86,8.16,5.36,17.84,6.73,19.36,1.74,1.9,12.76,4.79,13.3,4.82,1.36.07,3.45-12.64,2-12.79-2.19-.23-10.11-.17-10.62-.76s-4.1-5.81-7.82-11.69C583.73,418.43,581.55,418.5,582.7,423.57Z" transform="translate(-498.15 -253.4)"/><path class="cls-14" d="M601.63,447.16a26.14,26.14,0,0,0,3.92,1.81c1.07.31,4.15,1.1,4.53-.39.26-1-1.51-1.76-2.75-2.31-.66-.3-1.49-1.1-1.32-1.65.28-.95,2-.15,3.09.58,2.16,1.41,5.08,4,6.29,2.55.46-.56-.14-1.46-1-2.32,1.38,1,2.84,1.76,3.37,1.16a1.12,1.12,0,0,0,.1-1.25.79.79,0,0,0,1-.29,2.26,2.26,0,0,0-.36-2.32.55.55,0,0,0,.37-.37c.83-1.88-4-6.71-5.6-7.07a31.15,31.15,0,0,0-9.63-.42C601.9,436.91,601.62,447.16,601.63,447.16Z" transform="translate(-498.15 -253.4)"/><path class="cls-8" d="M608.22,441.05a6.87,6.87,0,0,1,3.19,1.33,24.36,24.36,0,0,1,3.11,3.15,0,0,0,0,1,0,.05,0,0,0,0,1,0,0c-.5-.53-2.56-2.51-3.09-2.95a6.52,6.52,0,0,0-3.18-1.54Z" transform="translate(-498.15 -253.4)"/><path class="cls-8" d="M609,438.42a15.73,15.73,0,0,1,3.7,1.32,13.64,13.64,0,0,1,3.34,3.2c.61.74,1.21,1.48,1.8,2.24,0,0,0,.09,0,.06-1-1.26-2.1-2.47-3.19-3.64a9.55,9.55,0,0,0-3.43-2.44c-.71-.29-1.45-.51-2.18-.73C609,438.44,609,438.42,609,438.42Z" transform="translate(-498.15 -253.4)"/><path class="cls-8" d="M610.17,436.08a8,8,0,0,1,3.35,1.15,18.54,18.54,0,0,1,3.41,3.34c.55.68,1.09,1.39,1.62,2.1,0,0,0,.08,0,.05a46.41,46.41,0,0,0-3.85-4.37,7.49,7.49,0,0,0-2.12-1.56,11.56,11.56,0,0,0-2.35-.71Z" transform="translate(-498.15 -253.4)"/><path class="cls-5" d="M602.86,434.42l-2.69,14s-9.19-2.64-10.95-4.81-5.36-13.85-6.53-19.55,1.09-5.74,3.33-2.27,7.83,11.91,8.11,12.07S602.86,434.42,602.86,434.42Z" transform="translate(-498.15 -253.4)"/><path class="cls-8" d="M599,442.36c.34-1.64.68-3.29.94-4.95.16-1,.33-1.89.48-2.84,0,0,0-.05-.05,0-.38,1.64-.76,3.28-1.08,4.94s-.65,3.3-1,4.95c-.18.94-.33,1.89-.46,2.85,0,0,0,0,0,0C598.36,445.67,598.7,444,599,442.36Z" transform="translate(-498.15 -253.4)"/><path class="cls-7" d="M599.06,434.32c0,.31,0,.63,0,.94a7,7,0,0,1-.18.91,6.08,6.08,0,0,1-.7,1.65A3.51,3.51,0,0,1,597,439a3.68,3.68,0,0,1-1.39.52,6.37,6.37,0,0,1-1.23.09h-.22a11.65,11.65,0,0,1-1.44-.12,21.23,21.23,0,0,0-2.87-.24,4.37,4.37,0,0,0-1.42.24,2.5,2.5,0,0,0-.94.64l0-.06a2.58,2.58,0,0,1,1-.64,4.44,4.44,0,0,1,1.43-.25,20,20,0,0,1,2.88.24c.48.05,1,.1,1.44.11h.29a5.48,5.48,0,0,0,1.14-.09,3.72,3.72,0,0,0,1.36-.52,3.26,3.26,0,0,0,1.11-1.16,6.37,6.37,0,0,0,.89-3.44.2.2,0,0,0,0-.11h.08S599.06,434.28,599.06,434.32Zm-2.87-.27v0h-.07a0,0,0,0,1,0,0,8.18,8.18,0,0,1-.09,1.85,7.89,7.89,0,0,1-1.32,3.25c-.1.13-.2.26-.31.38l-.07.08a5.13,5.13,0,0,1-.76.65,6.42,6.42,0,0,1-1.33.68,17,17,0,0,0-2.76,1.09,4.91,4.91,0,0,0-.83.63l0,0a4,4,0,0,1,.82-.61,16.05,16.05,0,0,1,2.75-1.09,6.65,6.65,0,0,0,1.36-.68,4.91,4.91,0,0,0,.81-.71l.08-.08.27-.33a7,7,0,0,0,.83-1.53,7.91,7.91,0,0,0,.5-1.76A8.35,8.35,0,0,0,596.19,434.05Z" transform="translate(-498.15 -253.4)"/><path class="cls-13" d="M600.45,447l-.27,1.39s-9.18-2.64-10.95-4.8S583.87,429.7,582.7,424c-.85-4.17.13-5.31,1.59-4.27C588.36,426.48,596,439.25,600.45,447Z" transform="translate(-498.15 -253.4)"/><path class="cls-5" d="M570.66,450.8c.68.33,20.69-5.77,20.69-5.77l-2-9a11.23,11.23,0,0,0,.84-5.56c-.57-3.71-5.58-10.08-6-10.46-1.6-1.53-3.06-1.82-4.45-1C573.92,422.56,570.66,450.8,570.66,450.8Z" transform="translate(-498.15 -253.4)"/><path class="cls-7" d="M589.45,428.09l0,.08h-.64a4.21,4.21,0,0,0-1.41.37,4.67,4.67,0,0,0-1.27.84,6.19,6.19,0,0,0-1,1.27,12.38,12.38,0,0,0-.82,1.53c-.25.53-.48,1.07-.73,1.6a10.67,10.67,0,0,1-.86,1.52,5.57,5.57,0,0,1-.52.64,4.21,4.21,0,0,1-.61.52,3.89,3.89,0,0,1-1.36.59,2.49,2.49,0,0,1-1.45-.13,4.17,4.17,0,0,1-1.28-.84,9.16,9.16,0,0,1-.94-1l-.06-.08-.1-.12c-.34-.44-.68-.88-1-1.36s-.85-1.26-1.3-1.86c0,0,0-.06,0-.08.45.61.88,1.25,1.32,1.88.32.47.65.92,1,1.36l.15.19.06.08a9.74,9.74,0,0,0,.88.93,4.17,4.17,0,0,0,1.28.84,2.32,2.32,0,0,0,1.4.11,3.55,3.55,0,0,0,1.36-.58,4.5,4.5,0,0,0,1.12-1.14,9.89,9.89,0,0,0,.85-1.5c.25-.53.48-1.07.73-1.6a15.07,15.07,0,0,1,.83-1.54,6.27,6.27,0,0,1,1.06-1.27,4.63,4.63,0,0,1,2.72-1.22h.58Zm.19.45-.2-.27-.1-.13-.06-.07a9.16,9.16,0,0,0-.94-1,4.21,4.21,0,0,0-1.29-.84,2.46,2.46,0,0,0-1.44-.13,3.73,3.73,0,0,0-1.36.59,4.23,4.23,0,0,0-.61.51,5.56,5.56,0,0,0-.53.65,11.08,11.08,0,0,0-.85,1.51c-.25.54-.49,1.08-.74,1.61a12.33,12.33,0,0,1-.81,1.53,6.92,6.92,0,0,1-1,1.27,5.1,5.1,0,0,1-1.28.83,4.11,4.11,0,0,1-1.4.38,3.08,3.08,0,0,1-.43,0h-.09a4.13,4.13,0,0,1-.9-.19,7.31,7.31,0,0,1-1.33-.69l-.64-.44v.06l.63.44a6.86,6.86,0,0,0,1.34.7,3.71,3.71,0,0,0,1,.2H577a4.17,4.17,0,0,0,1.41-.38,4.62,4.62,0,0,0,1.29-.84,6.07,6.07,0,0,0,1.06-1.28,12.52,12.52,0,0,0,.82-1.54c.26-.53.49-1.07.74-1.6a11,11,0,0,1,.85-1.5,4.67,4.67,0,0,1,1.12-1.14,3.71,3.71,0,0,1,1.36-.58,2.44,2.44,0,0,1,1.41.12,4.41,4.41,0,0,1,1.27.83,9.87,9.87,0,0,1,.88.94l.06.08.15.19a5.12,5.12,0,0,1,.34.44,1.43,1.43,0,0,0-.08-.22Z" transform="translate(-498.15 -253.4)"/><path class="cls-8" d="M586.81,423.35c.48.8,1,1.57,1.49,2.35-.22-.58-.44-1.15-.68-1.71h0a13.43,13.43,0,0,1,.92,2.12,19.75,19.75,0,0,1,1,1.87,9.3,9.3,0,0,1,.8,2.54,8.69,8.69,0,0,1-.05,2.74,21.43,21.43,0,0,1-.78,3c0,.13-.18,0-.15-.09a14.4,14.4,0,0,0,.7-5.34,14,14,0,0,0-1.81-4.85,25.25,25.25,0,0,0-1.51-2.58C586.74,423.36,586.79,423.32,586.81,423.35Z" transform="translate(-498.15 -253.4)"/><path class="cls-14" d="M577.85,420.64c-4,4-14.51,20.08-12.31,23.9s17.27,2.54,21.67.88c1.31-.49-2-11.28-3.45-11.81-1.16-.44-7.68,1.85-7.8,1.35s1.31-4.11,3.64-10.64C582.29,416.83,579.62,418.89,577.85,420.64Z" transform="translate(-498.15 -253.4)"/><path class="cls-14" d="M590.2,431.75c3,.11,3.77.73,6.35-.93,1.7-1.1,3-.17,1.81,1.9a8.26,8.26,0,0,1-7.22,4.13Z" transform="translate(-498.15 -253.4)"/><path class="cls-14" d="M581.9,433.75a24.74,24.74,0,0,1,6.83-2c2.23-.21,7.12,0,10.91,7.13.91,1.69,1.27,4.91-1,2.85-1.59-1.46-2.26-3-3.3-3.64,0,0,.08,4.18-1.26,5.29a28.62,28.62,0,0,1-3.65,2.56,8.29,8.29,0,0,1-.43-.84,4.13,4.13,0,0,1-3.51.13Z" transform="translate(-498.15 -253.4)"/><path class="cls-14" d="M590.88,432a21.13,21.13,0,0,1,4.08,5.23c1.3,2.6,3.26,8.05,1.77,9.26-1.09.88-2-1.1-2-1.1s.44,2.47-.68,3-1.64-1.11-1.64-1.11.07,1.56-1,1.76c-1.26.27-1.2-3.05-2.66-4.23C588.43,444.6,590.88,432,590.88,432Z" transform="translate(-498.15 -253.4)"/><path class="cls-8" d="M592.6,438.56a14.45,14.45,0,0,1,2.16,6.8c0,.06,0,.1,0,0a35.42,35.42,0,0,0-2.13-6.8Z" transform="translate(-498.15 -253.4)"/><path class="cls-8" d="M590.62,440.33a16.65,16.65,0,0,1,1.83,7c0,.06,0,.09,0,0a40.05,40.05,0,0,0-1.81-7Z" transform="translate(-498.15 -253.4)"/><path class="cls-8" d="M595.38,438.09a9.16,9.16,0,0,1,2.18,2.21c.35.45.72.88,1.1,1.28s.88.88,1.37.56a1.19,1.19,0,0,0,.3-1,6,6,0,0,0-.34-1.53s0,0,0,0a8,8,0,0,1,.42,1.39,2.21,2.21,0,0,1,0,1,.8.8,0,0,1-1.29.33,5.18,5.18,0,0,1-.69-.64,7,7,0,0,1-.61-.7c-.41-.5-.79-1-1.19-1.53a15.83,15.83,0,0,0-1.24-1.33C595.32,438.12,595.34,438.08,595.38,438.09Z" transform="translate(-498.15 -253.4)"/><path class="cls-8" d="M596.81,442.9a47.28,47.28,0,0,0-1.47-4.78s0,0,0,0a22.72,22.72,0,0,1,1.7,4.62,8.75,8.75,0,0,1,.26,2.75c-.16,1.3-.86,1.41-1.11,1.42a1.13,1.13,0,0,1-.83-.38,3.34,3.34,0,0,1-.65-1.1s0,0,0,0c.28.59.8,1.22,1.36,1.25a.81.81,0,0,0,.68-.31,1.88,1.88,0,0,0,.3-1A9.45,9.45,0,0,0,596.81,442.9Z" transform="translate(-498.15 -253.4)"/><path class="cls-5" d="M581.9,433.75l3,13.67s-18.84,1.39-19.89-3.05,8.07-19,11.84-23c4.38-4.62,4.61-2.68,3.19,1.94-1.49,4.85-4.06,11.76-4.06,11.76Z" transform="translate(-498.15 -253.4)"/><path class="cls-7" d="M576.86,432.75l0,.09a1.93,1.93,0,0,1-.34,0,3.67,3.67,0,0,1-1.4-.46,8.53,8.53,0,0,1-1.08-.73l-.08-.06-.11-.09c-.41-.33-.81-.69-1.2-1.06s-.91-.86-1.36-1.27l0-.05c.46.41.91.84,1.36,1.26s.78.72,1.19,1.05l.18.14.07.06a8.13,8.13,0,0,0,1,.67,3.71,3.71,0,0,0,1.38.44A2.17,2.17,0,0,0,576.86,432.75ZM579.64,422a7.22,7.22,0,0,0-.41.78,12,12,0,0,0-.58,1.72c-.16.59-.29,1.19-.45,1.76a14.47,14.47,0,0,1-.54,1.73,8.53,8.53,0,0,1-.8,1.53,5.9,5.9,0,0,1-1.11,1.17,4.76,4.76,0,0,1-1.3.76l-.42.12h-.09a3.49,3.49,0,0,1-.91.06,5.28,5.28,0,0,1-1.41-.29l-1.4-.5,0,.05c.47.17.94.36,1.41.51a6,6,0,0,0,1.43.3,3.23,3.23,0,0,0,1-.08l.1,0a2.3,2.3,0,0,0,.35-.1,5.47,5.47,0,0,0,2.44-2,7.38,7.38,0,0,0,.82-1.55,15.86,15.86,0,0,0,.55-1.73c.15-.59.29-1.19.45-1.76a10.63,10.63,0,0,1,.58-1.7,5.31,5.31,0,0,1,.89-1.43,4.51,4.51,0,0,1,.51-.47.34.34,0,0,1,0-.14,4.81,4.81,0,0,0-.57.54,4.4,4.4,0,0,0-.51.69Zm1.72,11.91h0a7.38,7.38,0,0,1,0,.82v.57a8.82,8.82,0,0,1-.16,1.27,8.2,8.2,0,0,1-.54,1.72,6.18,6.18,0,0,1-.91,1.44,21.43,21.43,0,0,1-2.35,2.14,8,8,0,0,0-1.12,1.19,6.2,6.2,0,0,0-.61,1l0,.11c-.06.14-.12.28-.17.42a8.91,8.91,0,0,0-.51,3H575a9.2,9.2,0,0,1,.08-1.17,7.93,7.93,0,0,1,.42-1.76c.06-.17.13-.33.2-.48l.06-.11a6.2,6.2,0,0,1,.56-.93,8.87,8.87,0,0,1,1.1-1.18,20.65,20.65,0,0,0,2.36-2.15,5.93,5.93,0,0,0,.91-1.45,8.38,8.38,0,0,0,.54-1.74,9.84,9.84,0,0,0,.16-1.23v-.62c0-.28,0-.56,0-.84Zm1.17,4.67a6,6,0,0,0-.44-1.76c-.21-.52-.46-1-.7-1.51l0-.05a12.19,12.19,0,0,1-.54-1.22h0a13.38,13.38,0,0,0,.56,1.28l0,.05c.23.48.48,1,.68,1.47a6,6,0,0,1,.44,1.76,4.78,4.78,0,0,1-.23,1.81,3.1,3.1,0,0,1-.91,1.39,4.82,4.82,0,0,1-1.29.79,25.13,25.13,0,0,1-2.78.92c-.47.14-.94.28-1.4.46l-.13.06-.09,0a7,7,0,0,0-1.13.57,4.79,4.79,0,0,0-1.2,1.06,4.37,4.37,0,0,0-.78,1.57l0,.12h.08a.29.29,0,0,1,0-.09,4.32,4.32,0,0,1,.76-1.55,4.76,4.76,0,0,1,1.17-1,8.14,8.14,0,0,1,1.06-.54l.08,0,.21-.08c.46-.18.92-.33,1.39-.47a24,24,0,0,0,2.79-.93,5,5,0,0,0,1.3-.82,3.24,3.24,0,0,0,.93-1.42,4.9,4.9,0,0,0,.21-1.83Z" transform="translate(-498.15 -253.4)"/><path class="cls-8" d="M570,437.31a19.79,19.79,0,0,1,2.91-1.46,18,18,0,0,1,3-.86c.58-.11,1.16-.19,1.74-.28,0,0,0,0,0,0a21.92,21.92,0,0,0-3,.82c-1,.34-2,.7-3,1.08-.56.21-1.1.47-1.65.71,0,0,0,0,0,0Z" transform="translate(-498.15 -253.4)"/><path class="cls-8" d="M581.85,433.71c-.09,0-5.33,1.07-5.51,1.13,0-.09,1.36-3.32,1.56-3.8l.06-.14c.12-.2.24-.41.34-.61l.43-.82h0l-.45.79a2.71,2.71,0,0,0-.21.37l.39-1c.21-.55.4-1.09.59-1.64,0,0,0,0,0,0-.39.94-.8,1.87-1.2,2.81S576,435.2,576,435.2l5.9-1.36a.08.08,0,0,0,0-.08S581.88,433.7,581.85,433.71Z" transform="translate(-498.15 -253.4)"/><path class="cls-8" d="M581.13,442c-.34-1.52-.65-3.05-1-4.55-.21-.89-.42-1.72-.64-2.57,0,0-.05,0-.05,0,.29,1.54.58,3.08.92,4.62s.68,3,1,4.56c.2.87.43,1.72.68,2.56.38,1.26,0,0,0,0C581.8,445.11,581.47,443.58,581.13,442Z" transform="translate(-498.15 -253.4)"/><path class="cls-8" d="M585.14,447.67c-.14-.44-.3-1-.44-1.46,0-.12-.1-.11-.08,0,.1.38.16.8.25,1.2a7,7,0,0,0-.79,0l-.91.05-1.79.07q-1.82,0-3.63,0a53.68,53.68,0,0,1-7.26-.67c-.68-.11-1.36-.24-2-.39a15,15,0,0,1-2-.55s0,0,0,0a8.88,8.88,0,0,0,1.68.66c.6.17,1.2.32,1.81.44a34.82,34.82,0,0,0,3.65.51,68.05,68.05,0,0,0,7.28.29q1,0,2-.06l1-.05A5.51,5.51,0,0,0,585.14,447.67Z" transform="translate(-498.15 -253.4)"/><path class="cls-14" d="M581.43,419.48c0,.48,1.16,3.89,2.77,4.26.52.12,1.15-3.56,1.15-3.56l.09-.26,1.32-3.6-3.37-4.41S581.43,419.28,581.43,419.48Z" transform="translate(-498.15 -253.4)"/><path class="cls-8" d="M586.75,416.31l-1.32,3.61a8.53,8.53,0,0,1-2.72-5.48l.66-2.5v0l.43.52Z" transform="translate(-498.15 -253.4)"/><path class="cls-14" d="M592.17,412.27c-.76,6.93-4,7.13-5.2,6.92s-4.6-1-4.4-8,2.93-8.74,5.34-8.46S592.93,405.33,592.17,412.27Z" transform="translate(-498.15 -253.4)"/><path class="cls-8" d="M591.52,411.51a2.74,2.74,0,0,1-.34-.19.64.64,0,0,1-.32-.29.29.29,0,0,1,0-.3.39.39,0,0,1,.48,0,.83.83,0,0,1,.38.44.3.3,0,0,1-.13.34A.13.13,0,0,1,591.52,411.51Z" transform="translate(-498.15 -253.4)"/><path class="cls-8" d="M587.91,410.59h.38a.49.49,0,0,0,.38-.1.34.34,0,0,0,.05-.3.48.48,0,0,0-.44-.27.61.61,0,0,0-.48.2.32.32,0,0,0,0,.38A.2.2,0,0,0,587.91,410.59Z" transform="translate(-498.15 -253.4)"/><path class="cls-8" d="M588.61,411.8a0,0,0,0,0,0,0c-.05.48-.18,1-.53,1.08v0C588.46,413,588.62,412.26,588.61,411.8Z" transform="translate(-498.15 -253.4)"/><path class="cls-8" d="M588.36,411.23c-.57-.2-.83,1.32-.3,1.49S588.85,411.4,588.36,411.23Z" transform="translate(-498.15 -253.4)"/><path class="cls-8" d="M588.12,411.26c-.11.05-.24.18-.36.16s-.23-.22-.29-.4h0a.65.65,0,0,0,.22.72c.2.11.4-.1.51-.37C588.19,411.31,588.17,411.22,588.12,411.26Z" transform="translate(-498.15 -253.4)"/><path class="cls-8" d="M590.62,412.27l0,.05c-.1.44-.15,1,.15,1.27v0C590.38,413.42,590.45,412.69,590.62,412.27Z" transform="translate(-498.15 -253.4)"/><path class="cls-8" d="M591,411.89c.59.12.34,1.63-.18,1.52S590.52,411.79,591,411.89Z" transform="translate(-498.15 -253.4)"/><path class="cls-8" d="M591.24,412.05c.08.11.15.27.26.31s.24-.09.34-.23h0c0,.29-.16.57-.39.57s-.3-.28-.31-.58C591.17,412.08,591.21,412,591.24,412.05Z" transform="translate(-498.15 -253.4)"/><path class="cls-8" d="M587.81,415.86c.06.14.11.32.24.38a.72.72,0,0,0,.41,0s0,0,0,0a.41.41,0,0,1-.51.08.57.57,0,0,1-.19-.5A0,0,0,0,1,587.81,415.86Z" transform="translate(-498.15 -253.4)"/><path class="cls-8" d="M589.65,414.56s0,.72-.1,1.05c0,0-.06,0-.15,0h0a1.25,1.25,0,0,1-1.07-.91s0-.06,0,0a1.75,1.75,0,0,0,1,.72c0-.08,0-1.23.08-1.22a2.06,2.06,0,0,1,.55.33c.12-1.49.06-3,.2-4.47,0,0,0,0,0,0a0,0,0,0,1,0,0h0a31.42,31.42,0,0,1-.06,4.85C590.22,415,589.74,414.65,589.65,414.56Z" transform="translate(-498.15 -253.4)"/><path class="cls-8" d="M589.26,415.46a1.26,1.26,0,0,1-.63.41.51.51,0,0,1-.38-.06c-.25-.16-.21-.48-.12-.74a2.32,2.32,0,0,1,.18-.39A1.83,1.83,0,0,0,589.26,415.46Z" transform="translate(-498.15 -253.4)"/><path class="cls-15" d="M588.65,415.87a.51.51,0,0,1-.38-.06c-.26-.16-.22-.48-.13-.74A.83.83,0,0,1,588.65,415.87Z" transform="translate(-498.15 -253.4)"/><path class="cls-8" d="M582.51,411.53a2.48,2.48,0,0,0,1.7-1.8,5.21,5.21,0,0,0,2.82-1.5c-.07.13-.55,1-.8,1.48a5.49,5.49,0,0,0,5.24-2.4,9.32,9.32,0,0,1,.82,3.26,10.8,10.8,0,0,0,0-4.77,3.83,3.83,0,0,0-2.61-2.9,3.94,3.94,0,0,0-5,.06C581.88,405.16,582.51,411.53,582.51,411.53Z" transform="translate(-498.15 -253.4)"/><path class="cls-8" d="M588.92,410a5,5,0,0,1-1.88.16h0a4.48,4.48,0,0,0,2.86-1,5.73,5.73,0,0,0,1-1,4.7,4.7,0,0,0,.81-1.46s0,0,0,0,0,0,0,0a6.4,6.4,0,0,1-.65,1.59,4.11,4.11,0,0,1-1.06,1.13,4,4,0,0,1-1.14.56" transform="translate(-498.15 -253.4)"/><path class="cls-14" d="M583.37,411.85s-.78-2.48-1.62-2.17-.52,3.66.28,4.34a.78.78,0,0,0,1.28-.23l0,0Z" transform="translate(-498.15 -253.4)"/><path class="cls-8" d="M581.86,410.64s0,0,0,0a3.29,3.29,0,0,1,.84,2.17c-.08-.35-.36-.54-.63-.43l-.07,0s0,.05,0,.05a.54.54,0,0,1,.55.44,4.35,4.35,0,0,1,.18.71c0,.08.12.08.12,0v0C583,412.58,582.69,411,581.86,410.64Z" transform="translate(-498.15 -253.4)"/><rect class="cls-10" x="90.9" y="197.2" width="22.25" height="1.29"/><polygon class="cls-4" points="113.15 197.2 113.15 198.49 98.03 198.49 98.79 197.2 113.15 197.2"/><polygon class="cls-10" points="99.75 198.49 121.44 198.49 123.24 179.39 101.56 179.39 99.75 198.49"/><path class="cls-7" d="M608.33,442.34a1.54,1.54,0,0,0,1.27,1.71h0a1.58,1.58,0,0,0,1.34-1.71,1.54,1.54,0,0,0-1.26-1.71h0A1.6,1.6,0,0,0,608.33,442.34Z" transform="translate(-498.15 -253.4)"/></g><g id="freepik--speech-bubble--inject-18"><path class="cls-7" d="M612.47,398.61c-.46,5.77-4.45,10-8.91,9.37a7.44,7.44,0,0,1-4.64-2.72l-4.06.78,2-4.55c-1.7-5.38.29-11.52,4.44-13.72s8.89.38,10.58,5.76a13.33,13.33,0,0,1,.56,5.08Z" transform="translate(-498.15 -253.4)"/><path class="cls-8" d="M610.11,389.84c-3.28-4.13-8.53-4-11.72.21a13.16,13.16,0,0,0-1.77,11.41l-2.11,4.76a.13.13,0,0,0,0,.12.06.06,0,0,0,.08,0l4.26-.85a7.72,7.72,0,0,0,4,2.51,6.15,6.15,0,0,0,1.13.16h.34a4,4,0,0,0,.6,0h.2a6.46,6.46,0,0,0,2.2-.68,7.72,7.72,0,0,0,2-1.43,6.72,6.72,0,0,0,.63-.67l.24-.29.22-.31a7.18,7.18,0,0,0,.52-.79,12.57,12.57,0,0,0,1.65-5.39h0A12.73,12.73,0,0,0,610.11,389.84Zm2.27,8.76a12.27,12.27,0,0,1-1.64,5.25,8.49,8.49,0,0,1-.5.77l-.23.3-.23.27a5.5,5.5,0,0,1-.62.65,7.37,7.37,0,0,1-1.93,1.36,6.87,6.87,0,0,1-2.14.61h-.2a4.61,4.61,0,0,1-.91,0,5.65,5.65,0,0,1-1.08-.17,7.43,7.43,0,0,1-3.85-2.55l0,0a.09.09,0,0,0-.06,0h0l-3.66.66,1.85-4.1a.14.14,0,0,0,0-.09l0-.1a13.43,13.43,0,0,1-.56-4.53,12.48,12.48,0,0,1,1-4.41A10.33,10.33,0,0,1,600,389a7,7,0,0,1,3.32-1.69,6.26,6.26,0,0,1,3.57.34C610.47,389.17,612.77,393.73,612.38,398.6Z" transform="translate(-498.15 -253.4)"/><path class="cls-8" d="M601.27,397.93a1,1,0,0,1-.88,1.15,1.18,1.18,0,0,1,0-2.29h0A1,1,0,0,1,601.27,397.93Z" transform="translate(-498.15 -253.4)"/><ellipse class="cls-8" cx="106.35" cy="144.53" rx="0.88" ry="1.14"/><ellipse class="cls-8" cx="110.47" cy="144.53" rx="0.88" ry="1.14"/></g></svg>