<svg id="Layer_1" data-name="Layer 1" xmlns="http://www.w3.org/2000/svg" xmlns:xlink="http://www.w3.org/1999/xlink" viewBox="0 0 274.33 342.65"><defs><style>.cls-1,.cls-12,.cls-14,.cls-2,.cls-24,.cls-4{fill:none;}.cls-12,.cls-2{stroke:#fff;}.cls-2{stroke-miterlimit:10;}.cls-3{fill:url(#linear-gradient);}.cls-13,.cls-14,.cls-15,.cls-16,.cls-20,.cls-27,.cls-4,.cls-8{stroke:#263238;}.cls-12,.cls-13,.cls-14,.cls-15,.cls-16,.cls-20,.cls-24,.cls-27,.cls-4,.cls-8{stroke-linecap:round;stroke-linejoin:round;}.cls-12,.cls-13,.cls-20,.cls-24,.cls-27,.cls-4,.cls-8{stroke-width:0.44px;}.cls-15,.cls-16,.cls-5,.cls-8{fill:#263238;}.cls-11,.cls-20,.cls-6,.cls-7{fill:#fff;}.cls-6{fill-rule:evenodd;}.cls-9{fill:gray;}.cls-10{clip-path:url(#clip-path);}.cls-11,.cls-19{opacity:0.2;isolation:isolate;}.cls-13{fill:#f9ff00;}.cls-14{stroke-width:0.36px;}.cls-15{stroke-width:0.32px;}.cls-16{stroke-width:0.39px;}.cls-17{clip-path:url(#clip-path-2);}.cls-18{clip-path:url(#clip-path-3);}.cls-21{clip-path:url(#clip-path-4);}.cls-22{clip-path:url(#clip-path-5);}.cls-23{clip-path:url(#clip-path-6);}.cls-24{stroke:gray;}.cls-25{clip-path:url(#clip-path-7);}.cls-26{clip-path:url(#clip-path-8);}.cls-27{fill:#d6d6d6;}</style><linearGradient id="linear-gradient" x1="507.69" y1="469.32" x2="745.77" y2="331.87" gradientUnits="userSpaceOnUse"><stop offset="0" stop-color="#f9ff00" stop-opacity="0.1"/><stop offset="0.46" stop-color="#f7ec13" stop-opacity="0.67"/><stop offset="0.77" stop-color="#f9ff00"/></linearGradient><clipPath id="clip-path" transform="translate(-498.15 -253.4)"><path class="cls-1" d="M590.38,340.8h73.09a6.4,6.4,0,0,1,6.63,6.14v143.7a6.4,6.4,0,0,1-6.63,6.14H590.38a6.4,6.4,0,0,1-6.63-6.14V346.94A6.4,6.4,0,0,1,590.38,340.8Z"/></clipPath><clipPath id="clip-path-2" transform="translate(-498.15 -253.4)"><path class="cls-1" d="M713.23,369.41h-92v25.24c-19,2.27-32.51,18.39-30.07,36s19.86,30.09,38.91,27.83a35.41,35.41,0,0,0,23.47-12.7h59.64Z"/></clipPath><clipPath id="clip-path-3" transform="translate(-498.15 -253.4)"><path class="cls-1" d="M587.8,458.06s9.62-31,11.44-37.66,4.57-10.95,10.24-12,16.14-2,16.14-2a124.37,124.37,0,0,1,15.7-.42c6.59.42,12.63,3.69,15.81,5.92s12.4,9.89,12.4,9.89l-1.14-17.68,8.3.63s6,24.63,6.83,29.16.79,6.53,0,7.06.57.84-6.71-1.37S661,434.3,656.33,433s-5.23-1.47-5.23-1.47-11.42,15.9-15.05,20.64a81.31,81.31,0,0,0-6.63,10.57"/></clipPath><clipPath id="clip-path-4" transform="translate(-498.15 -253.4)"><path class="cls-1" d="M632.89,397s-1.93,5.48-3.54,7.39-2.28,2.21-2.84,6.63,1.94,14.42,2.74,14.21,8.65-11.79,11.27-13.69,5.34-3.89,5.34-3.89-6.37-1.79-8.53-4.32A56.25,56.25,0,0,1,632.89,397Z"/></clipPath><clipPath id="clip-path-5" transform="translate(-498.15 -253.4)"><path class="cls-1" d="M657.12,383s-.34,7.06-.12,9.37,1.14,6.34-.91,10.11-3.76,6.21-5.69,6.84-8.19-.63-13.19-4.1-5.91-10.64-6.71-12.95.11-10.21,5.23-12.74a19.35,19.35,0,0,1,13.42-1.16C651.89,379.2,657.12,383,657.12,383Z"/></clipPath><clipPath id="clip-path-6" transform="translate(-498.15 -253.4)"><path class="cls-1" d="M631.3,395.1s1-4.11,3.53-5.58,4.89-1.16,3.41-3.16-2.29-4,.91-4.95,9.44.64,13.08,1.9,10.69,1.69,12.51-3.06c1.12-2.92-2.16-5.25-4.57-6.45a14.27,14.27,0,0,0-8.65-1.48c-1.83.29-3.57.95-5.39,1.12-3.09.29-5.82-1-8.9-.34a12.37,12.37,0,0,0-6.6,3.8C627.77,380.15,627,386,631.3,395.1Z"/></clipPath><clipPath id="clip-path-7" transform="translate(-498.15 -253.4)"><path class="cls-1" d="M615,413.71l8.35,24.13s19.18-10.34,23.67-15.73,7.09-11.48,8.68-12.05,7.19.85,8,1.69.63,1.77-.37,2.65a4.09,4.09,0,0,1-1.56,1s-.05,1.9-.5,2.23-.34-.1-.46.32a3,3,0,0,1-.52,1.27c-.33.42-.46.64-.77.76a12,12,0,0,1-2,.58,29.49,29.49,0,0,1-3.74.63c-.79.13-5.94,9.54-10.77,15.15s-20.09,18.48-22.49,18.54-16.48-21.46-19.5-26.75"/></clipPath><clipPath id="clip-path-8" transform="translate(-498.15 -253.4)"><path class="cls-1" d="M657.54,420.54a11.18,11.18,0,0,0,2-.58c.34-.12.45-.33.77-.76a3,3,0,0,0,.52-1.27c.1-.42.4-.56.84-.89s.11-1.66.11-1.66a4.17,4.17,0,0,0,1.56-1c1-.87,1.19-1.83.36-2.65s-6.44-2.24-8-1.69-4,6.16-8.09,11.37l3.85,2.92c1.2-1.86,2.06-3.12,2.34-3.16A29.36,29.36,0,0,0,657.54,420.54Z"/></clipPath></defs><rect class="cls-2" x="0.5" y="0.5" width="273.33" height="341.65"/><path class="cls-3" d="M729.37,324c-18-8.68-58.16-24.85-108.6-19.67-8.82.91-82.19,8.45-102.09,48.79-2.3,4.66-6.41,13.35-5.45,24.45,2.37,27.57,33.07,32.74,35.49,55.1,2.68,24.7-32.76,36.72-28.25,57.16,3.73,16.9,31.26,23.71,45.47,27.22,30.33,7.51,76.92,6.7,86.95-15.28,7.41-16.23-10-33.21,0-45,1.76-2.06,12.31-5.14,33.35-11.2,11.8-3.4,17.72-4.94,20.31-5.51,13.73-3,18.51-2.42,27.82-7.79,3.82-2.2,22.7-13.65,28.78-36.32,4.4-16.37-.19-30-1.8-34.62C754.34,341.27,739.83,329,729.37,324Z" transform="translate(-498.15 -253.4)"/><g id="freepik--Icons--inject-66"><polyline class="cls-4" points="72.62 82.89 130.07 169.76 199.87 108.55"/><polyline class="cls-4" points="42.41 173.72 130.07 169.76 66.28 144.72"/><polyline class="cls-4" points="144.14 72.6 131.09 171.81 211.09 186.5"/><polyline class="cls-4" points="67.61 231.59 130.07 169.76 194.86 215.21"/><path class="cls-5" d="M538.62,416.13c-6.15,0-11.14,4.62-11.14,10.31s5,10.32,11.14,10.32,11.14-4.62,11.14-10.32h0C549.75,420.75,544.77,416.14,538.62,416.13Z" transform="translate(-498.15 -253.4)"/><path class="cls-6" d="M545.44,426.18a6.26,6.26,0,0,0-6.83-5.49,6.18,6.18,0,0,0-5.91,5.38v.26a5.46,5.46,0,0,0,.91,3l-1.15,3.15,3.53-1a6.68,6.68,0,0,0,8.68-2.36,5.57,5.57,0,0,0,.78-2.77A.76.76,0,0,0,545.44,426.18Zm-6.39,5.07a5.6,5.6,0,0,1-2.95-.82L534,431l.67-1.83a4.61,4.61,0,0,1-1-2.89c0-.16,0-.31,0-.47a5.27,5.27,0,0,1,5.81-4.53,5.16,5.16,0,0,1,4.89,4.62v.38a5.15,5.15,0,0,1-5.34,4.93Z" transform="translate(-498.15 -253.4)"/><path class="cls-6" d="M542,427.51c-.16-.07-.91-.43-1.07-.47s-.25-.07-.35.07-.41.47-.49.57-.19.1-.35,0a4.4,4.4,0,0,1-1.25-.71,4.3,4.3,0,0,1-.87-1c-.09-.15,0-.23.07-.3l.23-.25.06-.07a1,1,0,0,0,.1-.17.28.28,0,0,0,0-.25c0-.07-.35-.78-.49-1.07s-.26-.23-.35-.23h-.3a.59.59,0,0,0-.42.17A1.57,1.57,0,0,0,536,425a1.62,1.62,0,0,0,.08.49,3.09,3.09,0,0,0,.56,1,6.24,6.24,0,0,0,2.67,2.17c1.59.57,1.59.38,1.87.35a1.52,1.52,0,0,0,1.06-.68.48.48,0,0,0-.22-.86Z" transform="translate(-498.15 -253.4)"/><path class="cls-5" d="M568.16,324.33c-6.15.12-11,4.83-10.92,10.53.12,5.53,4.94,10,10.92,10.11h0c6.16.11,11.25-4.41,11.37-10.11s-4.76-10.41-10.92-10.53Z" transform="translate(-498.15 -253.4)"/><path class="cls-7" d="M575.23,331.34a1.77,1.77,0,0,0-1.3-1.22,59.59,59.59,0,0,0-11.54,0,1.8,1.8,0,0,0-1.31,1.22,18,18,0,0,0,0,6.62,1.8,1.8,0,0,0,1.31,1.22,57.55,57.55,0,0,0,11.54,0,1.79,1.79,0,0,0,1.3-1.22A18,18,0,0,0,575.23,331.34Z" transform="translate(-498.15 -253.4)"/><polygon class="cls-5" points="68.5 83.29 68.5 79.22 72.35 81.25 68.5 83.29"/><path class="cls-5" d="M566.58,472c-8.07,0-14.62,6.06-14.62,13.53s6.55,13.52,14.62,13.52,14.61-6.05,14.61-13.52S574.65,472,566.58,472Z" transform="translate(-498.15 -253.4)"/><path class="cls-7" d="M564.12,494.21h3.78v-8.76h2.63l.28-2.94H567.9v-1.69c0-.69.14-1,.87-1h2v-3.05H568.2c-2.82,0-4.08,1.15-4.08,3.35v2.33h-2v3h2Z" transform="translate(-498.15 -253.4)"/><path class="cls-5" d="M693.41,458.53c-6.16,0-11.15,4.62-11.16,10.31s5,10.32,11.15,10.33,11.15-4.62,11.15-10.32h0C704.54,463.15,699.56,458.54,693.41,458.53Z" transform="translate(-498.15 -253.4)"/><path class="cls-7" d="M693.41,463.92c1.73,0,1.94,0,2.62,0a4.16,4.16,0,0,1,1.21.21,2.08,2.08,0,0,1,.74.45,1.86,1.86,0,0,1,.49.69,3.1,3.1,0,0,1,.22,1.12c0,.63,0,.84,0,2.42s0,1.8,0,2.43a3.06,3.06,0,0,1-.22,1.12,1.75,1.75,0,0,1-.49.69,2.08,2.08,0,0,1-.74.45,4.16,4.16,0,0,1-1.21.21c-.68,0-.89,0-2.62,0s-1.94,0-2.63,0a4,4,0,0,1-1.2-.21,2,2,0,0,1-.75-.45,1.73,1.73,0,0,1-.48-.69,3.07,3.07,0,0,1-.23-1.12c0-.63,0-.82,0-2.43s0-1.79,0-2.42a3.11,3.11,0,0,1,.23-1.12,1.73,1.73,0,0,1,.48-.69,2,2,0,0,1,.75-.45,4,4,0,0,1,1.2-.21c.69,0,.89,0,2.63,0m0-1.08c-1.77,0-2,0-2.68,0a5.41,5.41,0,0,0-1.55.26,3.19,3.19,0,0,0-1.9,1.76,4.1,4.1,0,0,0-.3,1.46c0,.64,0,.85,0,2.48s0,1.84,0,2.48a4.1,4.1,0,0,0,.3,1.46,3.22,3.22,0,0,0,1.9,1.78,5.18,5.18,0,0,0,1.57.28c.69,0,.92,0,2.68,0s2,0,2.68,0a5.24,5.24,0,0,0,1.57-.28,3.24,3.24,0,0,0,1.9-1.76,4.1,4.1,0,0,0,.3-1.46c0-.64,0-.85,0-2.48s0-1.84,0-2.48a4.1,4.1,0,0,0-.3-1.46,3.27,3.27,0,0,0-1.9-1.76,5.23,5.23,0,0,0-1.57-.27c-.69,0-.92,0-2.68,0" transform="translate(-498.15 -253.4)"/><path class="cls-7" d="M693.41,465.76a3.1,3.1,0,1,0,3.33,3.09h0a3.21,3.21,0,0,0-3.33-3.08m0,5.07a2,2,0,1,1,2.16-2h0a2.09,2.09,0,0,1-2.16,2" transform="translate(-498.15 -253.4)"/><path class="cls-7" d="M697.65,465.64a.74.74,0,0,1-.77.72.72.72,0,1,1,0-1.44h0a.75.75,0,0,1,.78.72" transform="translate(-498.15 -253.4)"/><path class="cls-8" d="M697.48,376.33h0c-9.33,0-16.9-7-16.9-15.64h0c0-8.64,7.57-15.64,16.9-15.64h0c9.33,0,16.9,7,16.9,15.64h0C714.38,369.32,706.81,376.33,697.48,376.33Z" transform="translate(-498.15 -253.4)"/><path class="cls-7" d="M688.48,365.93a11.16,11.16,0,0,0,5.66,1.54c6.85,0,10.73-5.36,10.51-10.17a7.3,7.3,0,0,0,1.82-1.77,7.69,7.69,0,0,1-2.12.54,3.48,3.48,0,0,0,1.62-1.89,7.9,7.9,0,0,1-2.34.85,3.9,3.9,0,0,0-5.22-.16,3.27,3.27,0,0,0-1.07,3.27,10.73,10.73,0,0,1-7.61-3.57,3.27,3.27,0,0,0,1.14,4.56,3.86,3.86,0,0,1-1.67-.42,3.5,3.5,0,0,0,3,3.38,3.87,3.87,0,0,1-1.66.06,3.66,3.66,0,0,0,3.45,2.37A7.87,7.87,0,0,1,688.48,365.93Z" transform="translate(-498.15 -253.4)"/><path class="cls-9" d="M565,389.47c-4.86,0-8.8,3.65-8.8,8.14s3.94,8.15,8.8,8.15,8.8-3.65,8.8-8.15S569.89,389.47,565,389.47Z" transform="translate(-498.15 -253.4)"/><rect class="cls-7" x="62.38" y="142.08" width="1.94" height="5.79"/><path class="cls-7" d="M561.49,394.72a1.07,1.07,0,1,0,0-2.14,1.13,1.13,0,0,0-1.17,1.06h0a1.11,1.11,0,0,0,1.15,1.07Z" transform="translate(-498.15 -253.4)"/><path class="cls-7" d="M565.56,398.23c0-.81.4-1.3,1.18-1.3s1,.47,1,1.3v3h1.93v-3.66a2.1,2.1,0,0,0-2.28-2.3,2.24,2.24,0,0,0-1.89,1v-.77H563.7v5.79h1.85Z" transform="translate(-498.15 -253.4)"/><path class="cls-9" d="M708.79,447.21h0c-5,0-9.14-3.78-9.14-8.45h0c0-4.67,4.09-8.45,9.14-8.45h0c5,0,9.13,3.78,9.13,8.45h0C717.92,443.43,713.83,447.21,708.79,447.21Z" transform="translate(-498.15 -253.4)"/><path class="cls-7" d="M707.44,442a1.68,1.68,0,0,0,.73-.29,1.87,1.87,0,0,0,.46-.47,1.6,1.6,0,0,0,.28-.94,1.43,1.43,0,0,0-.25-.87,1.34,1.34,0,0,0-.74-.53,1.41,1.41,0,0,0,.49-.33,1.24,1.24,0,0,0,.3-.88,1.42,1.42,0,0,0-.3-.9,2,2,0,0,0-1.66-.63h-3.09V442h2.87A4.6,4.6,0,0,0,707.44,442Zm-2.51-4.81h1.4a2.37,2.37,0,0,1,.75.09.52.52,0,0,1,.35.54.57.57,0,0,1-.26.53,1.43,1.43,0,0,1-.68.14h-1.56Zm0,3.87v-1.58h1.58a1.74,1.74,0,0,1,.64.09.64.64,0,0,1,.41.64.73.73,0,0,1-.43.74,1.54,1.54,0,0,1-.64.11Z" transform="translate(-498.15 -253.4)"/><path class="cls-7" d="M710,441.66a2.73,2.73,0,0,0,1.67.53,2.35,2.35,0,0,0,1.78-.64,1.39,1.39,0,0,0,.46-.79h-1.27a.81.81,0,0,1-.25.3,1,1,0,0,1-.69.21,1.35,1.35,0,0,1-.68-.17,1,1,0,0,1-.5-.92h3.45a5,5,0,0,0,0-.87,2.29,2.29,0,0,0-.38-.91,1.88,1.88,0,0,0-.82-.65,3,3,0,0,0-1.11-.21,2.41,2.41,0,0,0-1.7.61,2.27,2.27,0,0,0-.63,1.73A2,2,0,0,0,710,441.66Zm.89-2.92a1,1,0,0,1,.74-.25,1.14,1.14,0,0,1,.73.24.91.91,0,0,1,.33.69h-2.13A1.1,1.1,0,0,1,710.86,438.74Z" transform="translate(-498.15 -253.4)"/><rect class="cls-7" x="211.97" y="183.06" width="2.79" height="0.6"/><path class="cls-9" d="M642.29,334.47h0c-5,0-9.13-3.79-9.13-8.46h0c0-4.67,4.09-8.45,9.13-8.45h0c5.05,0,9.14,3.78,9.14,8.45h0C651.43,330.68,647.34,334.47,642.29,334.47Z" transform="translate(-498.15 -253.4)"/><path class="cls-6" d="M647.59,328.48h0a1.23,1.23,0,0,0-.34-.11h0a3.21,3.21,0,0,1-1.91-1.74h0a.34.34,0,0,1,0-.34h0a1.05,1.05,0,0,1,.48-.28h0a1.86,1.86,0,0,0,.65-.31h0a.23.23,0,0,0,.1-.12v0a.22.22,0,0,0,0-.16h0a.52.52,0,0,0-.23-.21h0a.48.48,0,0,0-.39,0h0a2,2,0,0,1-.35.09h0a.86.86,0,0,1-.39,0v-.08h0v-.69h0a6.77,6.77,0,0,0,0-1.1h0a2.53,2.53,0,0,0-1.12-1.53,3,3,0,0,0-1.37-.44h-.48a2.85,2.85,0,0,0-2.77,1.64h0a2.73,2.73,0,0,0-.15,1.33h0a5.18,5.18,0,0,1,0,.88h0a1.7,1.7,0,0,1-.45,0h0a1.89,1.89,0,0,1-.36-.09h0a.47.47,0,0,0-.35.07h0a.36.36,0,0,0-.2.27v0h0a.3.3,0,0,0,.12.17l.13.09h0a3.58,3.58,0,0,0,.73.29h0a.53.53,0,0,1,.33.29.8.8,0,0,1-.13.52h0a3.33,3.33,0,0,1-1.1,1.17,3,3,0,0,1-.82.34h0a.49.49,0,0,0-.29.16v0a.2.2,0,0,0,0,.21.38.38,0,0,0,.13.09h0a2.74,2.74,0,0,0,.75.24h0a3.43,3.43,0,0,1,.46.11l.05.12c0,.13.06.27.11.43a.15.15,0,0,0,.11.08.25.25,0,0,0,.17,0h0a3.23,3.23,0,0,1,1.2,0h0a4.86,4.86,0,0,1,1.14.57h0a1.94,1.94,0,0,0,.91.31h0c.25,0,.51,0,.76,0h0a1.56,1.56,0,0,0,.6-.19h0c.4-.21.76-.47,1.16-.63h0a2.3,2.3,0,0,1,.45-.05h0a6.56,6.56,0,0,1,1,0h0a.16.16,0,0,0,.11-.05.09.09,0,0,0,0-.07h0s0,0,0,0a1.16,1.16,0,0,1,.2-.42.23.23,0,0,1,.2-.06h0a3.52,3.52,0,0,0,.77-.21h0a.65.65,0,0,0,.32-.19h0a.19.19,0,0,0-.06-.29h0Z" transform="translate(-498.15 -253.4)"/></g><g id="freepik--Device--inject-66"><path class="cls-5" d="M590.38,340.8h73.09a6.4,6.4,0,0,1,6.63,6.14v143.7a6.4,6.4,0,0,1-6.63,6.14H590.38a6.4,6.4,0,0,1-6.63-6.14V346.94A6.4,6.4,0,0,1,590.38,340.8Z" transform="translate(-498.15 -253.4)"/><g class="cls-10"><path class="cls-11" d="M591.19,340.8a7.18,7.18,0,0,0-7.44,6.88h0V489.89a6.69,6.69,0,0,0,2.67,5.28L636.8,340.8Z" transform="translate(-498.15 -253.4)"/><path class="cls-12" d="M629.86,492.26a2.95,2.95,0,1,0-2.94,2.72h0a2.83,2.83,0,0,0,2.93-2.71Z" transform="translate(-498.15 -253.4)"/></g><path class="cls-4" d="M590.38,340.8h73.09a6.4,6.4,0,0,1,6.63,6.14v143.7a6.4,6.4,0,0,1-6.63,6.14H590.38a6.4,6.4,0,0,1-6.63-6.14V346.94A6.4,6.4,0,0,1,590.38,340.8Z" transform="translate(-498.15 -253.4)"/><rect class="cls-13" x="89.43" y="97.99" width="78.67" height="136.13"/><ellipse class="cls-5" cx="127.53" cy="173.18" rx="36.07" ry="33.39"/><rect class="cls-7" x="92.16" y="114.33" width="73.55" height="15.5"/><rect class="cls-7" x="92.16" y="216.11" width="73.55" height="15.5"/><rect class="cls-7" x="92.16" y="210.72" width="73.55" height="0.67"/><rect class="cls-7" x="92.16" y="213.75" width="73.55" height="0.67"/><rect class="cls-14" x="158.91" y="99.4" width="6.52" height="3.31"/><rect class="cls-15" x="158.91" y="99.4" width="5.09" height="3.31"/><rect class="cls-15" x="165.41" y="100.33" width="0.92" height="1.46"/><rect class="cls-16" x="91.21" y="100.43" width="1.2" height="1.9"/><rect class="cls-16" x="93.09" y="99.76" width="1.2" height="2.57"/><rect class="cls-16" x="94.96" y="98.98" width="1.2" height="3.35"/><rect class="cls-5" x="90.7" y="104.55" width="75.54" height="5.26"/></g><g id="freepik--Character--inject-66"><g class="cls-17"><path class="cls-7" d="M587.8,458.06s9.62-31,11.44-37.66,4.57-10.95,10.24-12,16.14-2,16.14-2a124.37,124.37,0,0,1,15.7-.42c6.59.42,12.63,3.69,15.81,5.92s12.4,9.89,12.4,9.89l-1.14-17.68,8.3.63s6,24.63,6.83,29.16.79,6.53,0,7.06.57.84-6.71-1.37S661,434.3,656.33,433s-5.23-1.47-5.23-1.47-11.42,15.9-15.05,20.64a81.31,81.31,0,0,0-6.63,10.57" transform="translate(-498.15 -253.4)"/><g class="cls-18"><path class="cls-19" d="M683.5,440.89c.8-.52.8-2.53,0-7.05-.46-2.7-2.81-12.55-4.62-20.07.72,8.88,1,17.55-.45,19.17-3.2,3.5-7.87-1.1-7.87-1.1l-.89-6.82s-15.92-10.87-21.89-12.71a31.63,31.63,0,0,0-18.51-.37c-6.18,1.84-11.35,3.69-15.13,7.19s-16.89,31.5-16.89,31.5l-1.49,8.31,33.65,3.77A80.92,80.92,0,0,1,636,452.14c3.65-4.74,15.05-20.64,15.05-20.64s.57.21,5.23,1.48,13.19,4.31,20.47,6.52S682.71,441.42,683.5,440.89Z" transform="translate(-498.15 -253.4)"/></g><path class="cls-4" d="M587.8,458.06s9.62-31,11.44-37.66,4.57-10.95,10.24-12,16.14-2,16.14-2a124.37,124.37,0,0,1,15.7-.42c6.59.42,12.63,3.69,15.81,5.92s12.4,9.89,12.4,9.89l-1.14-17.68,8.3.63s6,24.63,6.83,29.16.79,6.53,0,7.06.57.84-6.71-1.37S661,434.3,656.33,433s-5.23-1.47-5.23-1.47-11.42,15.9-15.05,20.64a81.31,81.31,0,0,0-6.63,10.57" transform="translate(-498.15 -253.4)"/><polyline class="cls-4" points="156.18 173.24 152.93 178.13 162.54 173.24"/><path class="cls-20" d="M669.51,421.73s.46,8.74,1,10.11,3.07,2,3.07,2" transform="translate(-498.15 -253.4)"/><path class="cls-5" d="M619.39,421.47s-1.24,2.72-.62,2.72,4.66-1.43,6.52-1.43,3.88,3,3.88,3,5.43-3.73,7.13-3.3a6.32,6.32,0,0,1,2.26,1.24.81.81,0,0,0,1.07-.07.65.65,0,0,0,.18-.44c0-.77.06-1.83.06-3.17,0-3.16-2.94-11.77-8.37-12.2s-6.37,3.15-8.68,7.46S619.39,421.47,619.39,421.47Z" transform="translate(-498.15 -253.4)"/><path class="cls-20" d="M631.07,402.89s-5.23.64-7.62,2.76-1.59,5.47-2.85,8.52-3.41,9.27-2.28,9.16,5.12-3.05,6.26-2.32,3.75,3.81,4.21,4,6.25-3.68,7.05-4.1,4.66,4.23,4.78,3a71.39,71.39,0,0,0-.46-13.27C639.36,406.08,633.69,403,631.07,402.89Z" transform="translate(-498.15 -253.4)"/><path class="cls-7" d="M632.89,397s-1.93,5.48-3.54,7.39-2.28,2.21-2.84,6.63,1.94,14.42,2.74,14.21,8.65-11.79,11.27-13.69,5.34-3.89,5.34-3.89-6.37-1.79-8.53-4.32A56.25,56.25,0,0,1,632.89,397Z" transform="translate(-498.15 -253.4)"/><g class="cls-21"><path class="cls-19" d="M641.64,410.72c2.22-1.61,4.22-3.08,4.22-3.08s-6.37-1.79-8.53-4.31a54.87,54.87,0,0,1-4.44-6.32,49.92,49.92,0,0,1-2.32,5.44C631.54,405,634.22,409,641.64,410.72Z" transform="translate(-498.15 -253.4)"/><path class="cls-5" d="M637.33,403.31a54.87,54.87,0,0,1-4.44-6.32s-.65,1.84-1.5,3.76a13,13,0,0,0,4.67,6.38,22.09,22.09,0,0,0,6.74,2.74l3.06-2.23S639.49,405.84,637.33,403.31Z" transform="translate(-498.15 -253.4)"/></g><path class="cls-4" d="M632.89,397s-1.93,5.48-3.54,7.39-2.28,2.21-2.84,6.63,1.94,14.42,2.74,14.21,8.65-11.79,11.27-13.69,5.34-3.89,5.34-3.89-6.37-1.79-8.53-4.32A56.25,56.25,0,0,1,632.89,397Z" transform="translate(-498.15 -253.4)"/><path class="cls-7" d="M657.12,383s-.34,7.06-.12,9.37,1.14,6.34-.91,10.11-3.76,6.21-5.69,6.84-8.19-.63-13.19-4.1-5.91-10.64-6.71-12.95.11-10.21,5.23-12.74a19.35,19.35,0,0,1,13.42-1.16C651.89,379.2,657.12,383,657.12,383Z" transform="translate(-498.15 -253.4)"/><g class="cls-22"><path class="cls-19" d="M635.75,379.52a7.61,7.61,0,0,0-2,1.4l2.63,1.73s3.39-3.13,11,1.29a16.48,16.48,0,0,0,9.63,2.47c.06-1.88.13-3.42.13-3.42s-5.23-3.8-8-4.65A19.33,19.33,0,0,0,635.75,379.52Z" transform="translate(-498.15 -253.4)"/></g><path class="cls-4" d="M657.12,383s-.34,7.06-.12,9.37,1.14,6.34-.91,10.11-3.76,6.21-5.69,6.84-8.19-.63-13.19-4.1-5.91-10.64-6.71-12.95.11-10.21,5.23-12.74a19.35,19.35,0,0,1,13.42-1.16C651.89,379.2,657.12,383,657.12,383Z" transform="translate(-498.15 -253.4)"/><path class="cls-5" d="M646.37,392.51c0,.75-.31,1.35-.7,1.35s-.7-.6-.7-1.35.31-1.36.7-1.36S646.37,391.76,646.37,392.51Z" transform="translate(-498.15 -253.4)"/><path class="cls-5" d="M654.68,393.21c0,.76-.31,1.36-.7,1.36s-.71-.6-.71-1.36.32-1.35.71-1.35S654.68,392.47,654.68,393.21Z" transform="translate(-498.15 -253.4)"/><path class="cls-4" d="M652.45,391.21s-2.16,2-1.59,2.84,1.89,1.31,1.48,2.53-3.41,1.69-4.44,0" transform="translate(-498.15 -253.4)"/><path class="cls-8" d="M641.42,397.73a9.67,9.67,0,0,0,6.94,3.16s-4.67,2.84-6.71,2.54S641.42,397.73,641.42,397.73Z" transform="translate(-498.15 -253.4)"/><path class="cls-4" d="M642.51,388.49s2-2.53,5.94-1" transform="translate(-498.15 -253.4)"/><path class="cls-4" d="M653.25,388.57a3,3,0,0,1,3.41,1.69" transform="translate(-498.15 -253.4)"/><path class="cls-5" d="M631.3,395.1s1-4.11,3.53-5.58,4.89-1.16,3.41-3.16-2.29-4,.91-4.95,9.44.64,13.08,1.9,10.69,1.69,12.51-3.06c1.12-2.92-2.16-5.25-4.57-6.45a14.27,14.27,0,0,0-8.65-1.48c-1.83.29-3.57.95-5.39,1.12-3.09.29-5.82-1-8.9-.34a12.37,12.37,0,0,0-6.6,3.8C627.77,380.15,627,386,631.3,395.1Z" transform="translate(-498.15 -253.4)"/><g class="cls-23"><path class="cls-24" d="M657.64,372.12s5.91,3,1.77,7.88-8,1.53-17.85-.22-15.6,2.73-15.6,2.73" transform="translate(-498.15 -253.4)"/><path class="cls-24" d="M626.79,387.89s1.89-3.38,8-4.37,6.5-.11,6.5-.11" transform="translate(-498.15 -253.4)"/></g><path class="cls-4" d="M631.3,395.1s1-4.11,3.53-5.58,4.89-1.16,3.41-3.16-2.29-4,.91-4.95,9.44.64,13.08,1.9,10.69,1.69,12.51-3.06c1.12-2.92-2.16-5.25-4.57-6.45a14.27,14.27,0,0,0-8.65-1.48c-1.83.29-3.57.95-5.39,1.12-3.09.29-5.82-1-8.9-.34a12.37,12.37,0,0,0-6.6,3.8C627.77,380.15,627,386,631.3,395.1Z" transform="translate(-498.15 -253.4)"/><path class="cls-20" d="M633.87,393.6s-3-6.25-5.55-3,2.11,7.37,5.65,6.57" transform="translate(-498.15 -253.4)"/><path class="cls-20" d="M666,392.89s-1.93-.21-2.29,1.27-.68,3.8,0,3.8a2.71,2.71,0,0,0,2.39-1.27,22.49,22.49,0,0,0,.92-3.9Z" transform="translate(-498.15 -253.4)"/><path class="cls-20" d="M669.06,392.36s-2.74-.42-3.07.53-.8,4.22-.46,4.31a11.17,11.17,0,0,0,2.39-.73Z" transform="translate(-498.15 -253.4)"/><path class="cls-20" d="M672.7,392.57s-3.2-1.89-4-.95-.8,4.85-.8,4.85a1.83,1.83,0,0,0,1.59-.42c.57-.63,1.25-1.48,1.25-1.48a15.36,15.36,0,0,0,2.62.43c.34-.1,1.14,0,.92-1.06S672.7,392.57,672.7,392.57Z" transform="translate(-498.15 -253.4)"/><path class="cls-20" d="M677,394.47a10.24,10.24,0,0,1-3.41-3.58c-1.14-2.21-1.71-2.12-2.28-1.16s.11,1.89.56,2.74a23.47,23.47,0,0,0,2.39,2.84Z" transform="translate(-498.15 -253.4)"/><path class="cls-13" d="M656.56,409.2s-1.65,13-1.39,13.73,3,1.53,3.68,1.06.25-1.41,0-2S661,410.49,661,410.49Z" transform="translate(-498.15 -253.4)"/><path class="cls-7" d="M615,413.71l8.35,24.13s19.18-10.34,23.67-15.73,7.09-11.48,8.68-12.05,7.19.85,8,1.69.63,1.77-.37,2.65a4.09,4.09,0,0,1-1.56,1s-.05,1.9-.5,2.23-.34-.1-.46.32a3,3,0,0,1-.52,1.27c-.33.42-.46.64-.77.76a12,12,0,0,1-2,.58,29.49,29.49,0,0,1-3.74.63c-.79.13-5.94,9.54-10.77,15.15s-20.09,18.48-22.49,18.54-16.48-21.46-19.5-26.75" transform="translate(-498.15 -253.4)"/><g class="cls-25"><path class="cls-19" d="M660.34,419.2a3,3,0,0,0,.52-1.27c.1-.42,0,0,.46-.32s.5-2.23.5-2.23a4.09,4.09,0,0,0,1.56-1c1-.87,1.19-1.83.37-2.65s-6.45-2.24-8-1.69a3.87,3.87,0,0,0-1.46,1.48c.83,1.26,1.82,2,.91,4.25-1.37,3.38-4.57,7.61-7.31,11.2s-25.57,23.46-28.31,23c-2.24-.35-8.74-7.61-11-10.24,5,7.35,10.62,15.12,12,15.08,2.39-.07,17.67-12.93,22.49-18.54s10-15,10.75-15.14a29.51,29.51,0,0,0,3.74-.64,11.18,11.18,0,0,0,2-.58C659.91,419.84,660,419.63,660.34,419.2Z" transform="translate(-498.15 -253.4)"/></g><path class="cls-4" d="M615,413.71l8.35,24.13s19.18-10.34,23.67-15.73,7.09-11.48,8.68-12.05,7.19.85,8,1.69.63,1.77-.37,2.65a4.09,4.09,0,0,1-1.56,1s-.05,1.9-.5,2.23-.34-.1-.46.32a3,3,0,0,1-.52,1.27c-.33.42-.46.64-.77.76a12,12,0,0,1-2,.58,29.49,29.49,0,0,1-3.74.63c-.79.13-5.94,9.54-10.77,15.15s-20.09,18.48-22.49,18.54-16.48-21.46-19.5-26.75" transform="translate(-498.15 -253.4)"/><path class="cls-4" d="M623.38,437.84s-2.19.09-4,5.5" transform="translate(-498.15 -253.4)"/><path class="cls-7" d="M657.54,420.54a11.18,11.18,0,0,0,2-.58c.34-.12.45-.33.77-.76a3,3,0,0,0,.52-1.27c.1-.42.4-.56.84-.89s.11-1.66.11-1.66a4.17,4.17,0,0,0,1.56-1c1-.87,1.19-1.83.36-2.65s-6.44-2.24-8-1.69-4,6.16-8.09,11.37l3.85,2.92c1.2-1.86,2.06-3.12,2.34-3.16A29.36,29.36,0,0,0,657.54,420.54Z" transform="translate(-498.15 -253.4)"/><g class="cls-26"><path class="cls-19" d="M660.34,419.2a3,3,0,0,0,.52-1.27c.1-.42,0,0,.46-.32s.5-2.23.5-2.23a4.09,4.09,0,0,0,1.56-1c1-.87,1.19-1.83.37-2.65s-6.45-2.24-8-1.69a3.87,3.87,0,0,0-1.46,1.48c.83,1.26,1.82,2,.91,4.25-1.37,3.38-4.57,7.61-7.31,11.2s-25.57,23.46-28.31,23c-2.24-.35-8.74-7.61-11-10.24,5,7.35,10.62,15.12,12,15.08,2.39-.07,17.67-12.93,22.49-18.54s10-15,10.75-15.14a29.51,29.51,0,0,0,3.74-.64,11.18,11.18,0,0,0,2-.58C659.91,419.84,660,419.63,660.34,419.2Z" transform="translate(-498.15 -253.4)"/></g><path class="cls-4" d="M657.54,420.54a11.18,11.18,0,0,0,2-.58c.34-.12.45-.33.77-.76a3,3,0,0,0,.52-1.27c.1-.42.4-.56.84-.89s.11-1.66.11-1.66a4.17,4.17,0,0,0,1.56-1c1-.87,1.19-1.83.36-2.65s-6.44-2.24-8-1.69-4,6.16-8.09,11.37l3.85,2.92c1.2-1.86,2.06-3.12,2.34-3.16A29.36,29.36,0,0,0,657.54,420.54Z" transform="translate(-498.15 -253.4)"/><path class="cls-13" d="M652.57,400.68c-1.26,0-2.29,1.69-2.29,3.74s1,3.73,2.29,3.73l27.85,7.79V392.57Z" transform="translate(-498.15 -253.4)"/><line class="cls-4" x1="170.09" y1="144.17" x2="159.22" y2="147.06"/><line class="cls-4" x1="173.72" y1="143.2" x2="171.45" y2="143.81"/><path class="cls-8" d="M656.13,399.64l-3.56,1c-1.26,0-2.29,1.69-2.29,3.74s1,3.73,2.29,3.73l3.22.9A9.6,9.6,0,0,1,656.13,399.64Z" transform="translate(-498.15 -253.4)"/><ellipse class="cls-27" cx="184.67" cy="151.02" rx="9.55" ry="15.7"/><polyline class="cls-27" points="184.67 147.53 175.56 145.28 174.77 151.28 175.79 157.39 184.67 154.5 185.01 147.7"/><path class="cls-8" d="M682.82,387.31c-5.75,0-10.41,7.66-10.41,17.11s4.66,17.1,10.41,17.1,10.41-7.66,10.41-17.1S688.57,387.31,682.82,387.31Zm.26,31.79c-4.79,0-8.68-6.58-8.68-14.68s3.89-14.68,8.68-14.68,8.67,6.57,8.67,14.68-3.88,14.68-8.67,14.68Z" transform="translate(-498.15 -253.4)"/><ellipse class="cls-13" cx="184.67" cy="151.02" rx="2.12" ry="3.48"/><line class="cls-4" x1="211.52" y1="133.27" x2="213.63" y2="132.66"/><line class="cls-4" x1="196.38" y1="137.61" x2="208.91" y2="134.02"/><line class="cls-4" x1="198.02" y1="150.15" x2="209.52" y2="150.53"/><line class="cls-4" x1="207.55" y1="165.79" x2="209.93" y2="166.5"/><line class="cls-4" x1="197.2" y1="162.7" x2="205.66" y2="165.23"/><line class="cls-4" x1="197.61" y1="143.31" x2="203.77" y2="142.55"/><line class="cls-4" x1="194.74" y1="166.88" x2="199.26" y2="170.3"/></g></g></svg>