<svg id="Layer_1" data-name="Layer 1" xmlns="http://www.w3.org/2000/svg" xmlns:xlink="http://www.w3.org/1999/xlink" viewBox="0 0 274.33 342.65"><defs><style>.cls-1,.cls-8{fill:none;}.cls-1{stroke:#fff;}.cls-1,.cls-12,.cls-13,.cls-14,.cls-15,.cls-16,.cls-17,.cls-18,.cls-19,.cls-20,.cls-21,.cls-22,.cls-23,.cls-24,.cls-25,.cls-8{stroke-miterlimit:10;}.cls-2{fill:url(#linear-gradient);}.cls-17,.cls-3{fill:#e0e0e0;}.cls-4{fill:#ebebeb;}.cls-22,.cls-5{fill:#455a64;}.cls-6{fill:#37474f;}.cls-7{fill:#263238;}.cls-8{stroke:#e6e6e6;stroke-width:0.48px;}.cls-12,.cls-9{fill:#f9ff00;}.cls-10,.cls-15,.cls-20,.cls-25{fill:#fff;}.cls-10{opacity:0.85;}.cls-10,.cls-13,.cls-14,.cls-15,.cls-16,.cls-20,.cls-21{isolation:isolate;}.cls-11,.cls-19{fill:#fafafa;}.cls-12,.cls-13,.cls-14,.cls-15,.cls-16,.cls-17,.cls-18,.cls-19,.cls-20,.cls-21,.cls-22,.cls-23,.cls-24,.cls-25{stroke:#231f20;stroke-width:0.25px;}.cls-13{opacity:0.05;}.cls-14{opacity:0.1;}.cls-15{opacity:0.35;}.cls-16{opacity:0.2;}.cls-18{fill:#f0f0f0;}.cls-20{opacity:0.4;}.cls-21{opacity:0.15;}.cls-23{fill:#f28f8f;}.cls-24{fill:#ffa8a7;}</style><linearGradient id="linear-gradient" x1="506.65" y1="468.14" x2="738.07" y2="334.52" gradientUnits="userSpaceOnUse"><stop offset="0" stop-color="#f9ff00" stop-opacity="0.1"/><stop offset="0.46" stop-color="#f7ec13" stop-opacity="0.67"/><stop offset="0.77" stop-color="#f9ff00"/></linearGradient></defs><rect class="cls-1" x="0.5" y="0.5" width="273.33" height="341.65"/><path class="cls-2" d="M721.14,324c-17.37-8.68-55.94-24.85-104.46-19.67-8.49.91-79.07,8.45-98.22,48.79-2.21,4.66-6.16,13.35-5.24,24.45,2.29,27.57,31.81,32.74,34.15,55.1,2.57,24.7-31.52,36.72-27.18,57.16,3.59,16.9,30.07,23.71,43.74,27.22,29.17,7.51,74,6.7,83.64-15.28,7.12-16.23-9.65-33.21,0-45,1.69-2.06,11.84-5.14,32.08-11.2,11.35-3.4,17.05-4.94,19.54-5.51,13.2-3,17.8-2.42,26.76-7.79,3.67-2.2,21.83-13.65,27.69-36.32,4.22-16.37-.19-30-1.74-34.62C745.16,341.27,731.2,329,721.14,324Z" transform="translate(-498.15 -253.4)"/><g id="freepik--Shadow--inject-2"><path id="freepik--shadow--inject-2-2" data-name="freepik--shadow--inject-2" class="cls-3" d="M649.91,496.42l57.41-27.27c1.26-.6,1.26-1.57,0-2.17l-108.7-51.65a6,6,0,0,0-4.56,0L536.65,442.6c-1.26.6-1.26,1.57,0,2.17l108.7,51.65A6,6,0,0,0,649.91,496.42Z" transform="translate(-498.15 -253.4)"/></g><g id="freepik--Clouds--inject-2"><path id="freepik--Cloud--inject-2" class="cls-4" d="M701.35,328.88l4.54,2.16a2.7,2.7,0,0,1,0-.49v-1.11c0-1.93,1.64-2.71,3.68-1.74a6.85,6.85,0,0,1,2.18,1.74c.33-2.42,2.63-3.32,5.44-2,3,1.44,5.48,4.93,5.48,7.79v1.62a3.59,3.59,0,0,1-.47,1.87l3.77,1.79a3.65,3.65,0,0,1,2,2.89c0,1.07-.91,1.5-2,1l-24.58-11.65a3.61,3.61,0,0,1-2-2.89C699.32,328.77,700.23,328.34,701.35,328.88Z" transform="translate(-498.15 -253.4)"/><path id="freepik--cloud--inject-2-2" data-name="freepik--cloud--inject-2" class="cls-4" d="M682.56,338.48l3.32,1.58a2.16,2.16,0,0,1,0-.36v-.8c0-1.41,1.2-2,2.68-1.29a4.82,4.82,0,0,1,1.58,1.26c.24-1.77,1.93-2.43,4-1.45a7.18,7.18,0,0,1,4,5.72v1.18a2.79,2.79,0,0,1-.34,1.38l2.75,1.3a2.66,2.66,0,0,1,1.5,2.12c0,.78-.67,1.1-1.5.7l-18-8.51a2.64,2.64,0,0,1-1.49-2.12C681.05,338.41,681.71,338.09,682.56,338.48Z" transform="translate(-498.15 -253.4)"/></g><g id="freepik--Device--inject-2"><g id="freepik--device--inject-2-2" data-name="freepik--device--inject-2"><g id="freepik--device--inject-2-3" data-name="freepik--device--inject-2"><path class="cls-5" d="M703.84,459.87c.82.52.73,1.26-.26,1.73l-54.17,25.75a5.26,5.26,0,0,1-3.94,0l-103.6-49.21c-1-.48-1.08-1.23-.23-1.74a3.51,3.51,0,0,0-1.74,2.69v2.14a3.57,3.57,0,0,0,2,2.82l103.57,49.19a5.17,5.17,0,0,0,3.94,0l54.19-25.74a3.53,3.53,0,0,0,2-2.81v-2.17A3.46,3.46,0,0,0,703.84,459.87Z" transform="translate(-498.15 -253.4)"/><path class="cls-6" d="M703.6,459.73,600,410.51a5.26,5.26,0,0,0-3.94,0l-54.19,25.76c-1.09.51-1.09,1.35,0,1.87l103.57,49.21a5.26,5.26,0,0,0,3.94,0l54.18-25.75C704.65,461.08,704.65,460.24,703.6,459.73Zm-14.05-4c.93.43.93,1.16,0,1.6l-49.28,23.42a4.49,4.49,0,0,1-3.38,0l-80.66-38.33c-.93-.44-.93-1.17,0-1.61l49.28-23.41a3.22,3.22,0,0,1,2.84-.26Z" transform="translate(-498.15 -253.4)"/><path class="cls-7" d="M541.64,436.37a3.5,3.5,0,0,0-1.74,2.69v2.14a3.57,3.57,0,0,0,2,2.82l103.57,49.22a4.66,4.66,0,0,0,2,.39v-5.9a4.71,4.71,0,0,1-2-.38L541.87,438.14C540.87,437.67,540.79,436.91,541.64,436.37Z" transform="translate(-498.15 -253.4)"/><path d="M574.18,425.92c.73-.35.73-.91,0-1.26a3.52,3.52,0,0,0-2.63,0c-.73.35-.73.91,0,1.26A3.52,3.52,0,0,0,574.18,425.92Z" transform="translate(-498.15 -253.4)"/><path class="cls-8" d="M674.48,473c1.72-.81,1.72-2.14,0-2.95a8.2,8.2,0,0,0-6.23,0c-1.72.81-1.72,2.14,0,2.95A8.2,8.2,0,0,0,674.48,473Z" transform="translate(-498.15 -253.4)"/><path d="M572.86,430.08l10.21-4.84c.6-.29.63-.75.07-1a2.87,2.87,0,0,0-2.12,0l-10.21,4.85c-.6.29-.63.74-.06,1A2.76,2.76,0,0,0,572.86,430.08Z" transform="translate(-498.15 -253.4)"/><path class="cls-9" d="M608.35,417.17a3.29,3.29,0,0,0-2.84.26l-49.28,23.42c-.93.43-.93,1.16,0,1.6l80.64,38.31a4.4,4.4,0,0,0,3.38,0l49.28-23.41c.93-.44.93-1.16,0-1.61Z" transform="translate(-498.15 -253.4)"/><path class="cls-10" d="M608.35,417.17a3.29,3.29,0,0,0-2.84.26l-49.28,23.42c-.93.43-.93,1.16,0,1.6l80.64,38.31a4.4,4.4,0,0,0,3.38,0l49.28-23.41c.93-.44.93-1.16,0-1.61Z" transform="translate(-498.15 -253.4)"/></g><path class="cls-5" d="M561.91,443l-.53-.25c-.06,0-.1-.08-.07-.13a.16.16,0,0,1,.07-.07l.06,0a.49.49,0,0,1,.41,0l.53.25c.11,0,.11.14,0,.19l-.06,0A.58.58,0,0,1,561.91,443Z" transform="translate(-498.15 -253.4)"/><path class="cls-5" d="M562.84,442.5l-.91-.43c-.11-.05-.11-.14,0-.19l.06,0a.58.58,0,0,1,.41,0l.91.43c.11.06.11.14,0,.2l-.06,0A.49.49,0,0,1,562.84,442.5Z" transform="translate(-498.15 -253.4)"/><path class="cls-5" d="M563.78,442.06l-1.29-.61c-.11-.06-.11-.14,0-.2l.06,0a.58.58,0,0,1,.41,0l1.29.62c.06,0,.1.08.07.13a.11.11,0,0,1-.07.06l-.06,0A.58.58,0,0,1,563.78,442.06Z" transform="translate(-498.15 -253.4)"/><path class="cls-5" d="M564.71,441.62l-2.22-1.06c-.12-.06-.12-.14,0-.2l0,0a.49.49,0,0,1,.41,0l2.22,1.05c.12.06.12.14,0,.2l0,0A.58.58,0,0,1,564.71,441.62Z" transform="translate(-498.15 -253.4)"/><path class="cls-5" d="M567.4,440.48a.12.12,0,0,1-.1,0l-.33-.15-1.05.49a.14.14,0,0,1-.15,0l-.12-.05,0,0v-.05l-.06-1.08v0l.07,0,.14-.07.12,0,.11,0,1.14.54.23-.11a.53.53,0,0,1,.12,0,.17.17,0,0,1,.1,0l.08,0s.06,0,.05,0,0,0-.07.05l-.23.12.33.15s0,0,0,.05,0,0-.07.06l-.18.08A.21.21,0,0,1,567.4,440.48Zm-.64-.34-.81-.38,0,.74Z" transform="translate(-498.15 -253.4)"/><path class="cls-5" d="M568.45,439.8a2.3,2.3,0,0,1-1.05-.21q-.49-.24-.45-.51c0-.18.23-.36.6-.54a3.8,3.8,0,0,1,.47-.18,3,3,0,0,1,.43-.1h.07v0l.05.12a0,0,0,0,1,0,0h-.06a2.65,2.65,0,0,0-.64.2c-.25.12-.39.25-.41.37s.09.25.35.37a1.63,1.63,0,0,0,.76.17,1.78,1.78,0,0,0,.76-.19l.24-.13a.61.61,0,0,0,.16-.12l-.53-.25-.44.2-.12,0a.17.17,0,0,1-.1,0l-.08,0s-.05,0,0,0,0,0,.06-.06l.7-.33a.35.35,0,0,1,.14,0,.24.24,0,0,1,.12,0l.76.36a.05.05,0,0,1,0,0v0a1.53,1.53,0,0,1-.66.47A2.81,2.81,0,0,1,568.45,439.8Z" transform="translate(-498.15 -253.4)"/><path class="cls-5" d="M583,431.39l1.24.59a.47.47,0,0,0,.33,0l1.25-.59c.09-.05.09-.12,0-.16l-1.24-.59a.4.4,0,0,0-.34,0l-1.24.59C582.91,431.27,582.91,431.34,583,431.39Z" transform="translate(-498.15 -253.4)"/><path class="cls-5" d="M583.87,430.59a1.45,1.45,0,0,0-1.06,0c-.24.11-.24.29,0,.4l.43.21.31-.06-.42-.2a.15.15,0,0,1-.12-.21.16.16,0,0,1,.12-.09.51.51,0,0,1,.22-.05.38.38,0,0,1,.21.05l.43.2.31,0Z" transform="translate(-498.15 -253.4)"/><path class="cls-5" d="M606.44,419.84a1.53,1.53,0,0,0-.6.12l-3.15,1.49c-.28.13-.28.33,0,.46l1.14.54a1.81,1.81,0,0,0,.89.09.85.85,0,0,0,.31-.09l3.15-1.49c.27-.13.27-.33,0-.46L607,420A1.53,1.53,0,0,0,606.44,419.84Zm-2,2.6a.75.75,0,0,1-.26-.05l-1.14-.55a.18.18,0,0,1-.13-.24.21.21,0,0,1,.13-.11L606.2,420a.43.43,0,0,1,.16-.05h.1a.54.54,0,0,1,.25.06l1.14.54a.18.18,0,0,1,.14.24.2.2,0,0,1-.14.11l-3.16,1.49a.51.51,0,0,1-.25.06Z" transform="translate(-498.15 -253.4)"/><path class="cls-5" d="M604.53,422.27l0,0-1-.49a.13.13,0,0,1-.1-.18.21.21,0,0,1,.1-.08l2.83-1.34a.11.11,0,0,1,.06,0l0,0,1,.49a.13.13,0,0,1,.09.18.16.16,0,0,1-.09.07l-2.83,1.35Z" transform="translate(-498.15 -253.4)"/><path class="cls-5" d="M607.2,419.89a.89.89,0,0,1,.64.1l.21.1c.23.11.33.25.22.31l-.2.1L607,420Z" transform="translate(-498.15 -253.4)"/><path class="cls-5" d="M589.22,445.33a6,6,0,0,0,2.21-.5c1.29-.62,1.62-1.45-.42-2.49a2.14,2.14,0,0,1-1.34,1.48,6.34,6.34,0,0,1-5.33.29c-1.61-.76-1.06-1.89.7-2.72a8.86,8.86,0,0,1,7.42,0c3,1.42,2.3,2.91.2,3.9a9.86,9.86,0,0,1-3.59.87Zm.74-3.44a5,5,0,0,0-3.84,0c-.84.39-1,1-.08,1.41a3.45,3.45,0,0,0,3-.12A1.32,1.32,0,0,0,590,441.89Z" transform="translate(-498.15 -253.4)"/><path class="cls-5" d="M593.65,439.17a2.69,2.69,0,0,1,2.1-.12c.53.26.43.69-.25,1a2.74,2.74,0,0,1-2.14.13C592.82,439.92,593,439.49,593.65,439.17Zm4.11,1.95a2.73,2.73,0,0,1,2.1-.12c.53.26.43.69-.25,1a2.83,2.83,0,0,1-2.14.13c-.54-.26-.4-.7.27-1Z" transform="translate(-498.15 -253.4)"/><path class="cls-5" d="M598.45,438.76c-2.58-1.23-2.58-2.51-.47-3.52a8.64,8.64,0,0,1,7.4.23c2.58,1.22,2.63,2.54.52,3.55A8.73,8.73,0,0,1,598.45,438.76Zm5.16-2.46c-2.16-1-3.55-1-4.54-.54s-1,1.13,1.14,2.16,3.65,1.05,4.63.59S605.78,437.34,603.61,436.3Z" transform="translate(-498.15 -253.4)"/><path class="cls-5" d="M606.68,434.85c-2.59-1.23-2.59-2.51-.48-3.51a8.64,8.64,0,0,1,7.4.22c2.57,1.22,2.66,2.55.53,3.55A8.76,8.76,0,0,1,606.68,434.85Zm5.16-2.45c-2.17-1-3.56-1-4.55-.55s-1,1.13,1.15,2.16,3.65,1.05,4.62.58S614,433.43,611.84,432.4Z" transform="translate(-498.15 -253.4)"/><path class="cls-9" d="M593.42,454.83l41.39-19.66a4.1,4.1,0,0,1,3.15,0l10.58,5c.88.44.88,1.09,0,1.51l-41.37,19.66a4.21,4.21,0,0,1-3.16,0l-10.59-5C592.54,455.92,592.54,455.25,593.42,454.83Z" transform="translate(-498.15 -253.4)"/><path class="cls-11" d="M597.86,455.5l7.4,3.51a1.81,1.81,0,0,0,1.37,0l10.91-5.19c.38-.18.38-.47,0-.65l-7.41-3.52a1.78,1.78,0,0,0-1.36,0l-10.91,5.19a.34.34,0,0,0-.28.43A.39.39,0,0,0,597.86,455.5Z" transform="translate(-498.15 -253.4)"/><polygon class="cls-9" points="110.88 200.41 119.66 200.12 110.91 200.01 111.26 196.13 109.82 200.92 99.41 201.77 107.91 201.44 107.7 205.75 108.36 201.42 110.79 201.33 110.88 200.41"/><path class="cls-11" d="M613.64,447.81l10.69-5.06a2.32,2.32,0,0,1,1.72,0c.47.22.46.59,0,.82l-10.7,5.06a2.23,2.23,0,0,1-1.72,0C613.14,448.41,613.16,448.06,613.64,447.81Z" transform="translate(-498.15 -253.4)"/><path class="cls-11" d="M616.94,449.36l21.67-10.31a2.32,2.32,0,0,1,1.72,0c.47.22.45.59,0,.82l-21.68,10.31a2.25,2.25,0,0,1-1.73,0C616.43,450,616.45,449.61,616.94,449.36Z" transform="translate(-498.15 -253.4)"/><path class="cls-11" d="M620.22,450.94l21.69-10.31a2.23,2.23,0,0,1,1.72,0c.46.22.44.59,0,.82l-21.68,10.31a2.32,2.32,0,0,1-1.72,0C619.72,451.53,619.74,451.17,620.22,450.94Z" transform="translate(-498.15 -253.4)"/></g></g><g id="freepik--Message--inject-2"><g id="freepik--Envelope--inject-2"><path class="cls-12" d="M588.68,383.79l70.17-33.34,2.8,1.33a2.38,2.38,0,0,1,1.32,1.89v42.6a2.36,2.36,0,0,1-1.32,1.88l-67.53,32.08a3.52,3.52,0,0,1-2.63,0l-1.48-.71a2.35,2.35,0,0,1-1.32-1.88Z" transform="translate(-498.15 -253.4)"/><path class="cls-13" d="M588.68,383.79l70.17-33.34,2.8,1.33a2.38,2.38,0,0,1,1.32,1.89v42.6a2.36,2.36,0,0,1-1.32,1.88l-67.53,32.08a3.52,3.52,0,0,1-2.63,0l-1.48-.71a2.35,2.35,0,0,1-1.32-1.88Z" transform="translate(-498.15 -253.4)"/><path class="cls-12" d="M658.46,346.7l.29-.13-1.09-.52h0l-.3-.11-30.88-9.42a2.38,2.38,0,0,0-2.37.62l-34.55,41.52a4.32,4.32,0,0,0-.88,2.37v2.76l1.05.51,69.1-33.85v-2.76A1.71,1.71,0,0,0,658.46,346.7Z" transform="translate(-498.15 -253.4)"/><path class="cls-14" d="M625.54,337.35a1.34,1.34,0,0,0-.36.31l-34.55,41.51a4.17,4.17,0,0,0-.64,1.19l-1-.51a5,5,0,0,1,.28-.63h0a2,2,0,0,1,.14-.25v0a2.35,2.35,0,0,1,.19-.25l34.56-41.53.17-.18.19-.14Z" transform="translate(-498.15 -253.4)"/><path class="cls-15" d="M658.73,346.57a2.09,2.09,0,0,0-.3-.11L627.55,337a2.48,2.48,0,0,0-2,.32l-1-.51a2.51,2.51,0,0,1,2-.32l30.88,9.42a1.48,1.48,0,0,1,.29.12Z" transform="translate(-498.15 -253.4)"/><path class="cls-12" d="M589.38,378.91l.18-.25Z" transform="translate(-498.15 -253.4)"/><path class="cls-12" d="M624.29,337a.83.83,0,0,1,.18-.13A.83.83,0,0,0,624.29,337Z" transform="translate(-498.15 -253.4)"/><path class="cls-12" d="M588.91,379.85a4.46,4.46,0,0,1,.28-.63A4.46,4.46,0,0,0,588.91,379.85Z" transform="translate(-498.15 -253.4)"/><path class="cls-12" d="M589.21,379.2c0-.09.1-.17.14-.25C589.31,379,589.25,379.11,589.21,379.2Z" transform="translate(-498.15 -253.4)"/><path class="cls-16" d="M589.2,379.22Z" transform="translate(-498.15 -253.4)"/><polygon class="cls-16" points="90.76 126.45 90.76 126.45 90.76 126.45 90.76 126.45"/><polygon class="cls-16" points="126.32 83.44 126.32 83.44 126.32 83.44 126.32 83.44"/><path class="cls-16" d="M589.35,379v0S589.36,378.94,589.35,379Z" transform="translate(-498.15 -253.4)"/><path class="cls-16" d="M624.11,337.14a1,1,0,0,1,.18-.17A1,1,0,0,0,624.11,337.14Z" transform="translate(-498.15 -253.4)"/><path class="cls-12" d="M625.18,337.66l-34.54,41.52a4.34,4.34,0,0,0-.9,2.37v2.76L659.91,351V348.2a2.06,2.06,0,0,0-1.48-1.73l-30.88-9.42A2.41,2.41,0,0,0,625.18,337.66Z" transform="translate(-498.15 -253.4)"/><path class="cls-17" d="M597.38,424.43l-2.25-1.07h0a1,1,0,0,1-.53-1V364.61a2.93,2.93,0,0,1,.64-1.65l2.28,1.09a2.93,2.93,0,0,0-.63,1.65v57.72A1.07,1.07,0,0,0,597.38,424.43Z" transform="translate(-498.15 -253.4)"/><path class="cls-18" d="M598.79,363l56.36-26.78c1.05-.51,1.93-.1,1.93.92v57.72a3.45,3.45,0,0,1-1.93,2.76l-56.36,26.77c-1.06.5-1.93.09-1.93-.92V365.7A3.43,3.43,0,0,1,598.79,363Z" transform="translate(-498.15 -253.4)"/><path class="cls-19" d="M654.23,335l2.21,1.06a1.61,1.61,0,0,0-1.29.15L598.79,363a3.54,3.54,0,0,0-1.31,1.1L595.19,363a3.59,3.59,0,0,1,1.3-1.1l56.37-26.8a1.57,1.57,0,0,1,1.37-.1Z" transform="translate(-498.15 -253.4)"/><path class="cls-17" d="M603.18,366l46.87-22.27c.64-.3,1.15-.09,1.15.47a2,2,0,0,1-1.15,1.56L603.18,368c-.63.3-1.14.09-1.14-.47A2,2,0,0,1,603.18,366Z" transform="translate(-498.15 -253.4)"/><path class="cls-17" d="M603.18,370l46.87-22.27c.64-.3,1.15-.09,1.15.47a2,2,0,0,1-1.15,1.56l-46.87,22.27c-.63.3-1.14.08-1.14-.48A2,2,0,0,1,603.18,370Z" transform="translate(-498.15 -253.4)"/><path class="cls-17" d="M603.18,374.06l46.87-22.27c.64-.3,1.15-.08,1.15.48a2,2,0,0,1-1.15,1.55l-46.87,22.27c-.63.3-1.14.09-1.14-.47A2,2,0,0,1,603.18,374.06Z" transform="translate(-498.15 -253.4)"/><path class="cls-17" d="M603.18,378.11l46.87-22.26c.64-.3,1.15-.09,1.15.47a2,2,0,0,1-1.15,1.56l-46.87,22.27c-.63.3-1.14.08-1.14-.48A2,2,0,0,1,603.18,378.11Z" transform="translate(-498.15 -253.4)"/><path class="cls-17" d="M603.18,382.16l46.87-22.27c.64-.3,1.15-.09,1.15.47a2,2,0,0,1-1.15,1.56l-46.87,22.27c-.63.3-1.14.09-1.14-.48A2,2,0,0,1,603.18,382.16Z" transform="translate(-498.15 -253.4)"/><path class="cls-17" d="M603.18,386.21l46.87-22.27c.64-.3,1.15-.09,1.15.47a2,2,0,0,1-1.15,1.56l-46.87,22.27c-.63.3-1.14.09-1.14-.48A2,2,0,0,1,603.18,386.21Z" transform="translate(-498.15 -253.4)"/><path class="cls-17" d="M603.18,390.26,650.05,368c.64-.3,1.15-.09,1.15.47a2,2,0,0,1-1.15,1.56l-46.87,22.27c-.63.3-1.14.09-1.14-.48A2,2,0,0,1,603.18,390.26Z" transform="translate(-498.15 -253.4)"/><path class="cls-17" d="M603.18,394.3,650.05,372c.64-.3,1.15-.08,1.15.48a2,2,0,0,1-1.15,1.55l-46.87,22.28c-.63.29-1.14.08-1.14-.48A2,2,0,0,1,603.18,394.3Z" transform="translate(-498.15 -253.4)"/><path class="cls-12" d="M661.19,396.83l-.07.09-29.24-10.68a5.68,5.68,0,0,0-6.32,1.6L594.3,429.12l-1.15.55h0a1.12,1.12,0,0,1-.9.08L624.4,387.3a5.68,5.68,0,0,1,6.32-1.61Z" transform="translate(-498.15 -253.4)"/><path class="cls-20" d="M622.68,391.6l.07-.05-28.46,37.58-1.15.55h0a1.17,1.17,0,0,1-.9.08L621.53,391Z" transform="translate(-498.15 -253.4)"/><path class="cls-20" d="M661.19,396.83l-.07.09-29.25-10.68a5.66,5.66,0,0,0-6.31,1.6l-1.16-.55a5.68,5.68,0,0,1,6.32-1.59Z" transform="translate(-498.15 -253.4)"/><path class="cls-12" d="M663,353.39h0c-.06-.31-.26-.4-.53-.25a1.32,1.32,0,0,0-.33.29l-.15.16L633.1,386.65l-4.31,4.94a2.75,2.75,0,0,1-2.37.74l-3.72-.73L594.29,386a1.82,1.82,0,0,0-.57,0,.79.79,0,0,0-.22.06l.78-.38,27.36,5.36,3.73.7a2.73,2.73,0,0,0,2.37-.73l4.31-4.94,29-33.23a1.17,1.17,0,0,1,.33-.24l-2.5-1.18,1-.5,1.74.82A2.51,2.51,0,0,1,663,353.39Z" transform="translate(-498.15 -253.4)"/><path class="cls-20" d="M633.1,386.65l-4.31,4.94a2.75,2.75,0,0,1-2.37.74l-3.72-.73.08-.05.18-.24,2.43.48a2.72,2.72,0,0,0,2.37-.73l4.27-4.89Z" transform="translate(-498.15 -253.4)"/><path class="cls-14" d="M661.65,351.78l-1.74-.82-1,.5,2.51,1.19h0a1,1,0,0,0-.33.24l-29,33.23,0,.05h0l1,.48,28.87-33.06.15-.16a1.37,1.37,0,0,1,.34-.29c.26-.15.45-.06.52.25h0A2.49,2.49,0,0,0,661.65,351.78Z" transform="translate(-498.15 -253.4)"/><path class="cls-12" d="M594.86,386.73l-6.18-2.94v43.85a2.35,2.35,0,0,0,1.32,1.88l1.48.71a3.52,3.52,0,0,0,2.63,0l.74-.35Z" transform="translate(-498.15 -253.4)"/><path class="cls-21" d="M594.86,386.73l-6.18-2.94v43.85a2.35,2.35,0,0,0,1.32,1.88l1.48.71a3.52,3.52,0,0,0,2.63,0l.74-.35Z" transform="translate(-498.15 -253.4)"/><path class="cls-22" d="M661.94,353.59v42.14a2,2,0,0,1-.41,1.1,2.54,2.54,0,0,1-.78.71l0,0-.09.05-67.53,32.08h0a1.17,1.17,0,0,1-.26.1V387a1,1,0,0,1,1.07-1,1.2,1.2,0,0,1,.42,0l28.4,5.56,3.72.72a2.75,2.75,0,0,0,2.38-.73l4.28-5Z" transform="translate(-498.15 -253.4)"/><path class="cls-12" d="M663,353.68v42.6a1.85,1.85,0,0,1-.41,1.1,2.4,2.4,0,0,1-.77.71l0,0-.09.05-67.52,32.07h0a1.13,1.13,0,0,1-.9.08.66.66,0,0,1-.4-.52V387a1,1,0,0,1,1.07-1,1.2,1.2,0,0,1,.42,0l28.4,5.56,3.72.72a2.75,2.75,0,0,0,2.38-.73l4.28-5L662,353.59l.15-.16C662.56,352.87,663,353,663,353.68Z" transform="translate(-498.15 -253.4)"/><path class="cls-12" d="M661.65,398.14l.09,0,0,0a2.54,2.54,0,0,0,.77-.72,1.9,1.9,0,0,0,.41-1.08l-29.87-9.63,20,15.56Z" transform="translate(-498.15 -253.4)"/><path class="cls-16" d="M661.65,398.14l.09,0,0,0a2.54,2.54,0,0,0,.77-.72,1.9,1.9,0,0,0,.41-1.08l-29.87-9.63,20,15.56Z" transform="translate(-498.15 -253.4)"/><path class="cls-12" d="M592.81,429.6a.7.7,0,0,0,.41.72,1.13,1.13,0,0,0,.9-.09h0l23.24-11,5.31-27.59-29.86,37.29Z" transform="translate(-498.15 -253.4)"/><path class="cls-21" d="M625.54,387.84l-32.33,42.47a.7.7,0,0,1-.41-.71v-.71l28.53-37.54.22-.29,2.84-3.74h0Z" transform="translate(-498.15 -253.4)"/><path class="cls-12" d="M662.56,397.36a2.54,2.54,0,0,1-.77.72l0,0-67.61,32.13h0a1.13,1.13,0,0,1-.9.08l32.33-42.48a5.71,5.71,0,0,1,6.36-1.61Z" transform="translate(-498.15 -253.4)"/><path class="cls-12" d="M662.56,397.37a2.51,2.51,0,0,1-.77.71l0,0-67.62,32.13h0a1.12,1.12,0,0,1-.9.08l.9-1.17,66.45-31.58,0,0a2.48,2.48,0,0,0,.7-.62Z" transform="translate(-498.15 -253.4)"/><path class="cls-21" d="M588.91,379.85l1.05.51a3.71,3.71,0,0,0-.24,1.19v2.75l-1.06-.51V381A3.72,3.72,0,0,1,588.91,379.85Z" transform="translate(-498.15 -253.4)"/><polygon class="cls-12" points="97.11 132.5 96.12 132.31 95.34 132.68 94.26 132.16 91.59 130.9 92.63 130.39 97.11 132.5"/><path class="cls-14" d="M595.27,385.9h0l-4.49-2.1-1,.5,2.67,1.27,1.08.51h0l.2-.05a1.88,1.88,0,0,1,.58,0l2.19.43,24.88,4.89.22-.29Z" transform="translate(-498.15 -253.4)"/></g><g id="freepik--Notification--inject-2"><path class="cls-23" d="M675.45,387.6l-5-2.38h0l0,0h0c-2.18-1-5.17-.87-8.48.71-6.66,3.16-12.06,10.86-12.06,17.19,0,3.16,1.35,5.38,3.52,6.42h0l4.55,2.17,1-1.47a13.73,13.73,0,0,0,3.46-1.11c6.66-3.16,12.07-10.86,12.07-17.19a8.78,8.78,0,0,0-.38-2.54Z" transform="translate(-498.15 -253.4)"/><path class="cls-21" d="M650.32,399.77a13.06,13.06,0,0,0-.46,3.34c0,3.16,1.35,5.38,3.52,6.42h0l4.55,2.16,1.06-1.47a14,14,0,0,0,3.46-1.1,19.76,19.76,0,0,0,3.29-2Z" transform="translate(-498.15 -253.4)"/><path class="cls-24" d="M666.67,388.17c-6.66,3.16-12.06,10.86-12.06,17.19s5.4,8.89,12.06,5.73,12.07-10.86,12.07-17.19S673.34,385,666.67,388.17Z" transform="translate(-498.15 -253.4)"/><path class="cls-25" d="M671.44,397v-2.44c0-2.77-2.05-4.05-4.58-2.85h0a8.72,8.72,0,0,0-4.58,7.2v2.17a7.59,7.59,0,0,1-1.54,4.25h0a2,2,0,0,0-.37,1.11h0a.74.74,0,0,0,1.15.72l10.69-5.09a2.21,2.21,0,0,0,1.16-1.81h0a.84.84,0,0,0-.34-.74h0A2.46,2.46,0,0,1,671.44,397Z" transform="translate(-498.15 -253.4)"/><path class="cls-25" d="M669.06,404.34a4.2,4.2,0,0,1-2.2,3.46,1.41,1.41,0,0,1-2.2-1.36Z" transform="translate(-498.15 -253.4)"/></g></g></svg>