<svg id="Layer_1" data-name="Layer 1" xmlns="http://www.w3.org/2000/svg" xmlns:xlink="http://www.w3.org/1999/xlink" viewBox="0 0 274.33 342.65"><defs><style>.cls-1,.cls-18,.cls-2,.cls-20,.cls-24,.cls-5,.cls-9{fill:none;}.cls-17,.cls-2{stroke:#fff;}.cls-14,.cls-17,.cls-18,.cls-2,.cls-20{stroke-miterlimit:10;}.cls-3{fill:url(#linear-gradient);}.cls-11,.cls-4,.cls-7{fill:#fff;}.cls-18,.cls-19,.cls-24,.cls-25,.cls-4,.cls-5,.cls-6,.cls-7,.cls-9{stroke:#263238;}.cls-24,.cls-25,.cls-4,.cls-9{stroke-linecap:round;}.cls-19,.cls-24,.cls-25,.cls-4,.cls-5,.cls-6,.cls-7,.cls-9{stroke-linejoin:round;}.cls-14,.cls-18,.cls-19,.cls-20,.cls-24,.cls-25,.cls-4,.cls-5,.cls-6,.cls-7{stroke-width:0.5px;}.cls-17,.cls-25,.cls-6,.cls-8{fill:#f9ff00;}.cls-9{stroke-width:0.25px;}.cls-10{fill:#ccc;}.cls-12,.cls-19{fill:#263238;}.cls-13,.cls-22{opacity:0.2;}.cls-14,.cls-15{fill:#a3a3a3;}.cls-14{stroke:#f9ff00;}.cls-16{fill:#787878;}.cls-17{stroke-width:1px;}.cls-20{stroke:#636363;}.cls-21{clip-path:url(#clip-path);}.cls-22{isolation:isolate;}.cls-23{clip-path:url(#clip-path-2);}</style><linearGradient id="linear-gradient" x1="507.69" y1="469.32" x2="745.77" y2="331.87" gradientUnits="userSpaceOnUse"><stop offset="0" stop-color="#f9ff00" stop-opacity="0.1"/><stop offset="0.46" stop-color="#f7ec13" stop-opacity="0.67"/><stop offset="0.77" stop-color="#f9ff00"/></linearGradient><clipPath id="clip-path" transform="translate(-498.15 -253.4)"><path class="cls-1" d="M648.34,467.37c-.07,5.53-4.46,21.05-6.55,28.14h22l5.62-40.7-5.27-2.8s-4-2.08-6.8-1.36a27.06,27.06,0,0,0-6.21,3l-2.92,1.14S648.43,460.1,648.34,467.37Z"/></clipPath><clipPath id="clip-path-2" transform="translate(-498.15 -253.4)"><path class="cls-1" d="M651,448.69a11.4,11.4,0,0,1,2.08,3.72c.33,1.59-.8,7.8,1.93,9.39s5.79-1.41,7.4-5,.8-5.65.8-5.65a51.94,51.94,0,0,1-5.62-7.44A29.29,29.29,0,0,1,655,437.2s-1,5.85-2.26,8A20.07,20.07,0,0,0,651,448.69Z"/></clipPath></defs><rect class="cls-2" x="0.5" y="0.5" width="273.33" height="341.65"/><path class="cls-3" d="M729.37,324c-18-8.68-58.16-24.85-108.6-19.67-8.82.91-82.19,8.45-102.09,48.79-2.3,4.66-6.41,13.35-5.45,24.45,2.37,27.57,33.07,32.74,35.49,55.1,2.68,24.7-32.76,36.72-28.25,57.16,3.73,16.9,31.26,23.71,45.47,27.22,30.33,7.51,76.92,6.7,86.95-15.28,7.41-16.23-10-33.21,0-45,1.76-2.06,12.31-5.14,33.35-11.2,11.8-3.4,17.72-4.94,20.31-5.51,13.73-3,18.51-2.42,27.82-7.79,3.82-2.2,22.7-13.65,28.78-36.32,4.4-16.37-.19-30-1.8-34.62C754.34,341.27,739.83,329,729.37,324Z" transform="translate(-498.15 -253.4)"/><g id="freepik--Mug--inject-139"><rect class="cls-4" x="183.64" y="228.61" width="8.25" height="13.44"/><path class="cls-4" d="M689.67,493.64h-.86a.76.76,0,0,1-.6-.84.73.73,0,0,1,.6-.66h.86a1.38,1.38,0,0,0,1.3-1.43v-3.25a1.38,1.38,0,0,0-1.3-1.43h-1.1a.75.75,0,0,1,0-1.49h1.1a2.79,2.79,0,0,1,2.65,2.92h0v3.25A2.8,2.8,0,0,1,689.67,493.64Z" transform="translate(-498.15 -253.4)"/><path class="cls-5" d="M683.08,469.34a6.28,6.28,0,0,1-.9-1.88" transform="translate(-498.15 -253.4)"/><path class="cls-5" d="M682.87,481s-.34-.38,2.6-2.1,3.11-4.58.17-6.86a13.33,13.33,0,0,1-1.43-1.29" transform="translate(-498.15 -253.4)"/><path class="cls-5" d="M686.68,480.81s2.77-1.34,3.12-3.81a5.59,5.59,0,0,0-1.73-5" transform="translate(-498.15 -253.4)"/><path class="cls-6" d="M705.37,491.26c-1.86,0-3.37.84-3.37,1.88s1.51,1.87,3.37,1.87,3.37-.84,3.37-1.87S707.23,491.26,705.37,491.26Zm0,2.54c-.66,0-1.19-.3-1.19-.66s.53-.66,1.19-.66,1.19.29,1.19.66S706,493.8,705.37,493.8Z" transform="translate(-498.15 -253.4)"/><path class="cls-6" d="M701,488.43c-2.64,0-4.78,1.53-4.78,3.43s2.14,3.42,4.78,3.42,4.78-1.53,4.78-3.42S703.65,488.43,701,488.43Zm0,4.16c-.56,0-1-.33-1-.73s.45-.73,1-.73,1,.32,1,.73S701.57,492.59,701,492.59Z" transform="translate(-498.15 -253.4)"/><polygon class="cls-7" points="213.71 239.73 196.23 239.73 198.25 242.05 211.69 242.05 213.71 239.73"/></g><g id="freepik--Plants--inject-139"><path class="cls-8" d="M730.75,409.82s.18-2.44-2.67-6.15-4.7-5.84-4.7-5.84-2,5.5.66,9.17a58,58,0,0,0,6.38,7.23Z" transform="translate(-498.15 -253.4)"/><path class="cls-8" d="M725.11,424.67s.18-2.44-2.67-6.14-4.7-5.84-4.7-5.84-2,5.49.66,9.16a57.18,57.18,0,0,0,6.38,7.22Z" transform="translate(-498.15 -253.4)"/><path class="cls-8" d="M730.24,414s.42-2.41,4.08-5.15,5.94-4.24,5.94-4.24.58,5.86-2.85,8.64a54.12,54.12,0,0,1-7.9,5.08Z" transform="translate(-498.15 -253.4)"/><path class="cls-8" d="M723.46,431.5s.64-2.35,4.53-4.64,6.31-3.54,6.31-3.54,0,5.9-3.66,8.27a53.83,53.83,0,0,1-8.33,4.14Z" transform="translate(-498.15 -253.4)"/><path class="cls-8" d="M723,451.25s.18-2.44,3.55-5.59,5.5-4.91,5.5-4.91,1.13,5.76-2,8.92a55.14,55.14,0,0,1-7.36,6Z" transform="translate(-498.15 -253.4)"/><path class="cls-8" d="M722.61,456s.49-2.39-1.85-6.49-3.9-6.52-3.9-6.52-2.66,5.12-.53,9.18a60.44,60.44,0,0,0,5.38,8.15Z" transform="translate(-498.15 -253.4)"/><path class="cls-8" d="M718.48,470s.18-2.44,3.55-5.58,5.5-4.92,5.5-4.92,1.13,5.77-2,8.93a55.3,55.3,0,0,1-7.37,6Z" transform="translate(-498.15 -253.4)"/><path class="cls-8" d="M719.59,483.06s-.38-2.41,2.15-6.39,4.19-6.29,4.19-6.29,2.42,5.26.11,9.19a59.84,59.84,0,0,1-5.75,7.84Z" transform="translate(-498.15 -253.4)"/><path class="cls-9" d="M731.08,409.24q-.52,3.78-1.41,7.49c-1.75,6.88-5.16,11.11-6.86,17.31s1.22,14.66-.33,22.68-4.75,12.27-4.33,17.75S721.78,495,721.78,495" transform="translate(-498.15 -253.4)"/><line class="cls-9" x1="231.94" y1="162.19" x2="235.5" y2="159.66"/><line class="cls-9" x1="232.34" y1="158.95" x2="231.14" y2="156.07"/><path class="cls-9" d="M723,433.77s3-2.06,6-4.12" transform="translate(-498.15 -253.4)"/><path class="cls-9" d="M724.78,429.07a51.84,51.84,0,0,0-4.35-8.84" transform="translate(-498.15 -253.4)"/><path class="cls-9" d="M722.86,454.74a37.67,37.67,0,0,1,6.65-8.29" transform="translate(-498.15 -253.4)"/><path class="cls-9" d="M722.06,458.12a44.87,44.87,0,0,0-2.56-6.62c-1.43-2.81-1.64-3.17-1.64-3.17" transform="translate(-498.15 -253.4)"/><path class="cls-9" d="M718.15,474.47a41.27,41.27,0,0,1,2.94-5.39,34.35,34.35,0,0,1,3.62-4.42" transform="translate(-498.15 -253.4)"/><path class="cls-9" d="M720.29,487.41a11.28,11.28,0,0,1,1.24-5.34c1.36-2.38,2.92-5.52,3.56-6.76" transform="translate(-498.15 -253.4)"/><path class="cls-8" d="M708,440.63s-.13-1.55,1.67-3.93,3-3.74,3-3.74,1.28,3.5-.37,5.84a37.34,37.34,0,0,1-4,4.63Z" transform="translate(-498.15 -253.4)"/><path class="cls-8" d="M711.64,450.06s-.13-1.56,1.67-3.93,3-3.74,3-3.74,1.27,3.5-.38,5.84a37.15,37.15,0,0,1-4,4.63Z" transform="translate(-498.15 -253.4)"/><path class="cls-8" d="M708.33,443.27s-.28-1.54-2.61-3.25-3.8-2.68-3.8-2.68-.34,3.74,1.85,5.5a34.28,34.28,0,0,0,5.05,3.19Z" transform="translate(-498.15 -253.4)"/><path class="cls-8" d="M712.72,454.39s-.42-1.49-2.9-2.93-4-2.22-4-2.22,0,3.76,2.36,5.24a34.42,34.42,0,0,0,5.32,2.6Z" transform="translate(-498.15 -253.4)"/><path class="cls-8" d="M713.08,467s-.12-1.56-2.26-3.54-3.53-3.1-3.53-3.1-.7,3.67,1.32,5.67a34.36,34.36,0,0,0,4.71,3.76Z" transform="translate(-498.15 -253.4)"/><path class="cls-8" d="M713.36,470s-.32-1.49,1.15-4.14,2.45-4.17,2.45-4.17,1.72,3.24.39,5.84a38.86,38.86,0,0,1-3.4,5.21Z" transform="translate(-498.15 -253.4)"/><path class="cls-8" d="M716.34,482.72s.28-1.53,2.6-3.25,3.81-2.66,3.81-2.66.34,3.73-1.86,5.49a34.28,34.28,0,0,1-5,3.19Z" transform="translate(-498.15 -253.4)"/><path class="cls-8" d="M716.05,478.86s-.13-1.56-2.27-3.54-3.52-3.1-3.52-3.1-.7,3.67,1.31,5.67a35.22,35.22,0,0,0,4.71,3.77Z" transform="translate(-498.15 -253.4)"/><path class="cls-8" d="M715.39,487.18s.24-1.53-1.39-4.05-2.69-4-2.69-4-1.52,3.36,0,5.85a38.44,38.44,0,0,0,3.69,5Z" transform="translate(-498.15 -253.4)"/><path class="cls-9" d="M707.77,440.25c.24,1.61.55,3.2.94,4.77,1.14,4.37,3.32,7.05,4.43,11s-.71,9.33.3,14.43,3.08,7.78,2.84,11.28-2.21,13.08-2.21,13.08" transform="translate(-498.15 -253.4)"/><line class="cls-9" x1="210.28" y1="190.9" x2="208" y2="189.31"/><line class="cls-9" x1="210.01" y1="188.83" x2="210.76" y2="187"/><path class="cls-9" d="M713,455.83s-1.9-1.29-3.86-2.59" transform="translate(-498.15 -253.4)"/><path class="cls-9" d="M711.87,452.86a32.32,32.32,0,0,1,2.72-5.65" transform="translate(-498.15 -253.4)"/><path class="cls-9" d="M713.2,469.17a24,24,0,0,0-4.27-5.25" transform="translate(-498.15 -253.4)"/><path class="cls-9" d="M713.72,471.32a28.2,28.2,0,0,1,1.6-4.22l1-2" transform="translate(-498.15 -253.4)"/><path class="cls-9" d="M716,484.35a21.39,21.39,0,0,1,2.78-2.69,15.15,15.15,0,0,0,1.78-1.44" transform="translate(-498.15 -253.4)"/><path class="cls-9" d="M716.28,481.71a27.11,27.11,0,0,0-1.9-3.42,22.3,22.3,0,0,0-2.32-2.79" transform="translate(-498.15 -253.4)"/><path class="cls-9" d="M715,490a7.18,7.18,0,0,0-.81-3.39c-.87-1.49-1.88-3.49-2.3-4.28" transform="translate(-498.15 -253.4)"/><path class="cls-8" d="M575.74,409.82s.18-2.44-2.67-6.15-4.7-5.84-4.7-5.84-2,5.5.66,9.17a58,58,0,0,0,6.38,7.23Z" transform="translate(-498.15 -253.4)"/><path class="cls-8" d="M570.1,424.67s.18-2.44-2.67-6.14-4.7-5.84-4.7-5.84-2,5.49.66,9.16a57.11,57.11,0,0,0,6.37,7.22Z" transform="translate(-498.15 -253.4)"/><path class="cls-8" d="M575.24,414s.41-2.41,4.07-5.15,5.94-4.24,5.94-4.24.58,5.86-2.85,8.64a54,54,0,0,1-7.89,5.08Z" transform="translate(-498.15 -253.4)"/><path class="cls-8" d="M568.44,431.5s.64-2.35,4.53-4.64,6.32-3.54,6.32-3.54,0,5.9-3.66,8.27a53.39,53.39,0,0,1-8.34,4.12Z" transform="translate(-498.15 -253.4)"/><path class="cls-8" d="M568,451.25s.18-2.44,3.54-5.59,5.52-4.91,5.52-4.91,1.13,5.76-2,8.92a55.14,55.14,0,0,1-7.36,6Z" transform="translate(-498.15 -253.4)"/><path class="cls-8" d="M567.59,456s.5-2.39-1.85-6.49-3.89-6.52-3.89-6.52-2.66,5.11-.54,9.16a61.48,61.48,0,0,0,5.39,8.15Z" transform="translate(-498.15 -253.4)"/><path class="cls-8" d="M563.46,470s.18-2.44,3.54-5.58,5.52-4.92,5.52-4.92,1.13,5.77-2,8.93a55.94,55.94,0,0,1-7.37,6Z" transform="translate(-498.15 -253.4)"/><path class="cls-8" d="M564.58,483.06s-.39-2.41,2.15-6.4,4.19-6.3,4.19-6.3,2.41,5.26.1,9.2a58.81,58.81,0,0,1-5.75,7.85Z" transform="translate(-498.15 -253.4)"/><path class="cls-9" d="M576.07,409.24a76,76,0,0,1-1.42,7.49c-1.75,6.88-5.15,11.11-6.85,17.31s1.22,14.66-.33,22.68-4.75,12.27-4.34,17.75S566.76,495,566.76,495" transform="translate(-498.15 -253.4)"/><line class="cls-9" x1="76.92" y1="162.19" x2="80.48" y2="159.66"/><line class="cls-9" x1="77.32" y1="158.95" x2="76.13" y2="156.07"/><path class="cls-9" d="M568,433.77s3-2.06,6-4.12" transform="translate(-498.15 -253.4)"/><path class="cls-9" d="M569.76,429.07a51.32,51.32,0,0,0-4.35-8.85" transform="translate(-498.15 -253.4)"/><path class="cls-9" d="M567.85,454.74a37.1,37.1,0,0,1,6.65-8.29" transform="translate(-498.15 -253.4)"/><path class="cls-9" d="M567.05,458.12a46,46,0,0,0-2.56-6.62c-1.43-2.81-1.64-3.17-1.64-3.17" transform="translate(-498.15 -253.4)"/><path class="cls-9" d="M563.13,474.47a42.55,42.55,0,0,1,3-5.39,34.35,34.35,0,0,1,3.62-4.42" transform="translate(-498.15 -253.4)"/><path class="cls-9" d="M565.27,487.41a11.28,11.28,0,0,1,1.24-5.34c1.36-2.38,2.92-5.52,3.56-6.76" transform="translate(-498.15 -253.4)"/><path class="cls-8" d="M553,440.63s-.12-1.55,1.67-3.93,3-3.74,3-3.74,1.28,3.5-.38,5.84a35.77,35.77,0,0,1-4,4.63Z" transform="translate(-498.15 -253.4)"/><path class="cls-8" d="M556.63,450.06s-.13-1.56,1.67-3.93,3-3.74,3-3.74,1.27,3.5-.38,5.84a38.08,38.08,0,0,1-4,4.63Z" transform="translate(-498.15 -253.4)"/><path class="cls-8" d="M553.31,443.27s-.27-1.54-2.6-3.25-3.8-2.68-3.8-2.68-.34,3.74,1.85,5.5a35.6,35.6,0,0,0,5,3.19Z" transform="translate(-498.15 -253.4)"/><path class="cls-8" d="M557.71,454.39s-.42-1.49-2.9-2.93-4-2.22-4-2.22,0,3.76,2.36,5.24a33.42,33.42,0,0,0,5.35,2.6Z" transform="translate(-498.15 -253.4)"/><path class="cls-8" d="M558.07,467s-.12-1.56-2.26-3.54-3.52-3.1-3.52-3.1-.7,3.67,1.31,5.67a34.36,34.36,0,0,0,4.71,3.76Z" transform="translate(-498.15 -253.4)"/><path class="cls-8" d="M558.35,470s-.32-1.49,1.15-4.14,2.45-4.19,2.45-4.19,1.72,3.25.38,5.84a38.45,38.45,0,0,1-3.4,5.23Z" transform="translate(-498.15 -253.4)"/><path class="cls-8" d="M561.32,482.72s.28-1.53,2.61-3.25,3.81-2.66,3.81-2.66.33,3.73-1.86,5.49a34.28,34.28,0,0,1-5,3.19Z" transform="translate(-498.15 -253.4)"/><path class="cls-8" d="M561,478.86s-.12-1.56-2.26-3.54-3.52-3.1-3.52-3.1-.7,3.67,1.31,5.67a35.86,35.86,0,0,0,4.7,3.76Z" transform="translate(-498.15 -253.4)"/><path class="cls-8" d="M560.38,487.18s.24-1.53-1.39-4.05-2.72-4-2.72-4-1.51,3.36,0,5.85a38.44,38.44,0,0,0,3.69,5Z" transform="translate(-498.15 -253.4)"/><path class="cls-9" d="M552.76,440.25a47.86,47.86,0,0,0,.94,4.77c1.14,4.37,3.32,7.05,4.43,11s-.71,9.33.3,14.43,3.08,7.78,2.84,11.28-2.22,13.08-2.22,13.08" transform="translate(-498.15 -253.4)"/><line class="cls-9" x1="55.26" y1="190.9" x2="52.99" y2="189.31"/><line class="cls-9" x1="54.99" y1="188.83" x2="55.74" y2="187"/><path class="cls-9" d="M558,455.83l-3.86-2.59" transform="translate(-498.15 -253.4)"/><path class="cls-9" d="M556.85,452.86a32,32,0,0,1,2.72-5.65" transform="translate(-498.15 -253.4)"/><path class="cls-9" d="M558.18,469.17a23.71,23.71,0,0,0-4.27-5.25" transform="translate(-498.15 -253.4)"/><path class="cls-9" d="M558.71,471.32a28.53,28.53,0,0,1,1.58-4.22c.9-1.8,1-2,1-2" transform="translate(-498.15 -253.4)"/><path class="cls-9" d="M561,484.35a22.05,22.05,0,0,1,2.77-2.7,14.37,14.37,0,0,0,1.78-1.44" transform="translate(-498.15 -253.4)"/><path class="cls-9" d="M561.27,481.71a27,27,0,0,0-1.89-3.42,22.3,22.3,0,0,0-2.32-2.79" transform="translate(-498.15 -253.4)"/><path class="cls-9" d="M560,490a7.21,7.21,0,0,0-.81-3.39c-.87-1.49-1.88-3.49-2.3-4.28" transform="translate(-498.15 -253.4)"/></g><g id="freepik--Page--inject-139"><path class="cls-10" d="M568.94,325.8H712.3a2.22,2.22,0,0,1,2.11,2.31v121a2.23,2.23,0,0,1-2.11,2.32H568.94a2.22,2.22,0,0,1-2.1-2.32v-121A2.21,2.21,0,0,1,568.94,325.8Z" transform="translate(-498.15 -253.4)"/><rect class="cls-11" x="72.26" y="81.91" width="140.42" height="99.69"/><rect class="cls-12" x="72.26" y="81.91" width="36.3" height="99.69"/><g class="cls-13"><path class="cls-11" d="M580.27,405.86V361.54l26.44,9.2v-18.3H584.09c-3.43,0-6.21,3.07-6.21,6.85h0v50.59l28.83,12.33v-4.73Z" transform="translate(-498.15 -253.4)"/><polygon class="cls-11" points="108.55 161.84 108.55 119.55 84.03 111.02 84.03 151.03 108.55 161.84"/><path class="cls-11" d="M606.71,427.89l-26.47-11.84a1.15,1.15,0,0,0-1.56.72,1.38,1.38,0,0,0,.66,1.72l27.37,12.22Z" transform="translate(-498.15 -253.4)"/></g><path class="cls-14" d="M657.42,438.61h19.16a1.19,1.19,0,0,1,1.13,1.24v5.38a1.2,1.2,0,0,1-1.13,1.25H657.42a1.19,1.19,0,0,1-1.13-1.25v-5.38A1.18,1.18,0,0,1,657.42,438.61Z" transform="translate(-498.15 -253.4)"/><path class="cls-12" d="M662.67,444.53a.25.25,0,0,1,0-.15v-2.83a.29.29,0,0,1,.07-.22.21.21,0,0,1,.17-.08.37.37,0,0,1,.15,0,.47.47,0,0,1,.14.14l1.54,2.5v-2.46a.22.22,0,0,1,.06-.15.21.21,0,0,1,.28,0,.22.22,0,0,1,.06.15v2.84a.35.35,0,0,1-.08.22.27.27,0,0,1-.18.08.42.42,0,0,1-.15,0,.43.43,0,0,1-.12-.11L663,442v2.42a.17.17,0,0,1-.06.15.21.21,0,0,1-.28,0Z" transform="translate(-498.15 -253.4)"/><path class="cls-12" d="M666.14,444.49a1.1,1.1,0,0,1-.38-.42,1.46,1.46,0,0,1-.13-.65,1.29,1.29,0,0,1,.11-.59,1.09,1.09,0,0,1,.35-.44.94.94,0,0,1,.55-.17,1,1,0,0,1,.45.09.73.73,0,0,1,.3.25,1.19,1.19,0,0,1,.17.36,1.59,1.59,0,0,1,.06.43.19.19,0,0,1,0,.12.12.12,0,0,1-.1,0H666a.93.93,0,0,0,.19.61.68.68,0,0,0,.49.21.77.77,0,0,0,.34-.07,2.11,2.11,0,0,0,.31-.21.11.11,0,0,1,.08,0,.18.18,0,0,1,.09,0,.2.2,0,0,1,0,.11.16.16,0,0,1-.06.13,1.09,1.09,0,0,1-.81.33A1,1,0,0,1,666.14,444.49Zm1.13-1.24a1.07,1.07,0,0,0-.17-.53.49.49,0,0,0-.45-.21.6.6,0,0,0-.27.06.55.55,0,0,0-.2.17.9.9,0,0,0-.12.24,1.31,1.31,0,0,0-.06.27Z" transform="translate(-498.15 -253.4)"/><path class="cls-12" d="M669.44,444.5l-.6-.8-.6.83a.18.18,0,0,1-.13.08.18.18,0,0,1-.13-.06.19.19,0,0,1-.05-.13.17.17,0,0,1,0-.1l.67-.9-.6-.82a.21.21,0,0,1,0-.11.2.2,0,0,1,.06-.15.17.17,0,0,1,.26,0l0,0,.55.75.55-.76a.16.16,0,0,1,.13-.08.21.21,0,0,1,.18.18.36.36,0,0,1,0,.11l-.61.84.65.89a.15.15,0,0,1,0,.11.21.21,0,0,1-.19.2A.21.21,0,0,1,669.44,444.5Z" transform="translate(-498.15 -253.4)"/><path class="cls-12" d="M670.58,444.45a.8.8,0,0,1-.14-.54v-1.35h-.26a.14.14,0,0,1-.11,0,.15.15,0,0,1,0-.2.15.15,0,0,1,.11,0h.26l0-.67a.18.18,0,0,1,.06-.13.17.17,0,0,1,.12-.05.15.15,0,0,1,.11,0,.2.2,0,0,1,0,.13v.68h.39a.1.1,0,0,1,.1,0,.12.12,0,0,1,0,.1c0,.09-.05.13-.14.13h-.38v1.28a.7.7,0,0,0,.06.35.2.2,0,0,0,.2.1h.18a.13.13,0,0,1,.11,0,.2.2,0,0,1,0,.21l-.08.05H671A.5.5,0,0,1,670.58,444.45Z" transform="translate(-498.15 -253.4)"/><path class="cls-15" d="M685.78,438.61h19.16a1.19,1.19,0,0,1,1.13,1.24v5.38a1.2,1.2,0,0,1-1.13,1.25H685.78a1.19,1.19,0,0,1-1.13-1.25v-5.38A1.18,1.18,0,0,1,685.78,438.61Z" transform="translate(-498.15 -253.4)"/><path class="cls-12" d="M690,444.46a1.48,1.48,0,0,1-.49-.61,2.41,2.41,0,0,1-.06-1.55,1.91,1.91,0,0,1,.28-.55,1.59,1.59,0,0,1,.45-.37,1.46,1.46,0,0,1,.61-.13,1.51,1.51,0,0,1,.77.21.19.19,0,0,1,.09.17.21.21,0,0,1,0,.13.14.14,0,0,1-.11.05h-.07l-.05,0-.07,0-.11-.05-.1,0-.14,0h-.16a.9.9,0,0,0-.37.07.7.7,0,0,0-.29.19,1.81,1.81,0,0,0-.19.29,1.58,1.58,0,0,0-.11.37,2.37,2.37,0,0,0,0,.84,1.58,1.58,0,0,0,.11.37,1.32,1.32,0,0,0,.19.29.91.91,0,0,0,.29.19,1,1,0,0,0,.38.07,1.26,1.26,0,0,0,.33-.05l.31-.16a.11.11,0,0,1,.08,0,.14.14,0,0,1,.11.06.17.17,0,0,1,.05.12.21.21,0,0,1-.11.19,1.42,1.42,0,0,1-.83.25A1.33,1.33,0,0,1,690,444.46Z" transform="translate(-498.15 -253.4)"/><path class="cls-12" d="M692.34,444.51a.62.62,0,0,1-.21-.5,1.94,1.94,0,0,1,0-.24.87.87,0,0,1,.07-.17.35.35,0,0,1,.14-.13.66.66,0,0,1,.19-.09,1.11,1.11,0,0,1,.25-.05h.73v-.26a.55.55,0,0,0-.12-.37.54.54,0,0,0-.34-.12,1.15,1.15,0,0,0-.26,0l-.2.07-.19.08h0a.12.12,0,0,1-.09-.05.16.16,0,0,1,0-.12.11.11,0,0,1,.06-.1,1.55,1.55,0,0,1,.78-.21.92.92,0,0,1,.61.2.86.86,0,0,1,.22.62v1.36a.2.2,0,0,1-.06.14.2.2,0,0,1-.27,0,.24.24,0,0,1-.05-.14v-.23a.68.68,0,0,1-.65.46A.8.8,0,0,1,692.34,444.51Zm1-.33a.84.84,0,0,0,.19-.57v-.07h-.43l-.29,0a.5.5,0,0,0-.2.08.25.25,0,0,0-.09.13.58.58,0,0,0,0,.19.37.37,0,0,0,.12.31.45.45,0,0,0,.31.1.51.51,0,0,0,.42-.19Z" transform="translate(-498.15 -253.4)"/><path class="cls-12" d="M694.58,444.59a.21.21,0,0,1-.05-.15v-1.93a.22.22,0,0,1,.05-.14.22.22,0,0,1,.28,0,.2.2,0,0,1,0,.14v.19a.62.62,0,0,1,.26-.33.85.85,0,0,1,.43-.12.71.71,0,0,1,.56.23,1,1,0,0,1,.21.68v1.26a.2.2,0,0,1-.06.15.21.21,0,0,1-.13.05.24.24,0,0,1-.14-.05.2.2,0,0,1-.06-.15v-1.27a.66.66,0,0,0-.12-.45.42.42,0,0,0-.36-.16.56.56,0,0,0-.41.19.89.89,0,0,0-.18.5v1.17a.2.2,0,0,1-.06.15.19.19,0,0,1-.13.05A.23.23,0,0,1,694.58,444.59Z" transform="translate(-498.15 -253.4)"/><path class="cls-12" d="M697.1,444.34a1.38,1.38,0,0,1-.27-.86,1.42,1.42,0,0,1,.13-.61,1,1,0,0,1,.37-.44.89.89,0,0,1,.55-.16,1.26,1.26,0,0,1,.33.05.64.64,0,0,1,.25.15.17.17,0,0,1,.07.13.11.11,0,0,1-.12.12l-.09,0a.71.71,0,0,0-.42-.14.6.6,0,0,0-.5.26,1.11,1.11,0,0,0-.18.67,1.31,1.31,0,0,0,0,.34,1.48,1.48,0,0,0,.12.29.58.58,0,0,0,.49.28.72.72,0,0,0,.49-.15.12.12,0,0,1,.11,0c.06,0,.11,0,.12.11h0a.21.21,0,0,1-.07.14,1,1,0,0,1-.65.21A.92.92,0,0,1,697.1,444.34Z" transform="translate(-498.15 -253.4)"/><path class="cls-12" d="M699.41,444.54a1.1,1.1,0,0,1-.38-.42,1.46,1.46,0,0,1-.14-.65,1.53,1.53,0,0,1,.12-.6.93.93,0,0,1,.35-.43.84.84,0,0,1,.55-.17.89.89,0,0,1,.45.09.72.72,0,0,1,.3.25,1.17,1.17,0,0,1,.16.36,2,2,0,0,1,.07.43.28.28,0,0,1,0,.12.12.12,0,0,1-.1,0h-1.47a.89.89,0,0,0,.19.61.67.67,0,0,0,.49.21.77.77,0,0,0,.34-.07,2.11,2.11,0,0,0,.31-.21.09.09,0,0,1,.07,0,.1.1,0,0,1,.09,0,.36.36,0,0,1,0,.11.31.31,0,0,1-.06.13,1.11,1.11,0,0,1-.81.33A1.08,1.08,0,0,1,699.41,444.54Zm1.12-1.24a1,1,0,0,0-.16-.54.53.53,0,0,0-.46-.2.66.66,0,0,0-.27.06.61.61,0,0,0-.19.17.7.7,0,0,0-.13.24,1.31,1.31,0,0,0-.06.27Z" transform="translate(-498.15 -253.4)"/><path class="cls-12" d="M701.48,444.58a.22.22,0,0,1-.06-.15v-2.92a.23.23,0,0,1,.06-.16.24.24,0,0,1,.14-.05.21.21,0,0,1,.13.05.25.25,0,0,1,.06.16v2.92a.22.22,0,0,1-.06.15.2.2,0,0,1-.14.06A.16.16,0,0,1,701.48,444.58Z" transform="translate(-498.15 -253.4)"/><path class="cls-15" d="M678.11,325.8v5.9a1.57,1.57,0,0,0,1.48,1.64h30a1.58,1.58,0,0,0,1.49-1.64v-5.9Z" transform="translate(-498.15 -253.4)"/><path class="cls-15" d="M684.5,325.8h-8.33v5.9a1.57,1.57,0,0,0,1.49,1.64h6.84Z" transform="translate(-498.15 -253.4)"/><path class="cls-12" d="M694.47,325.8v7.53h15.17a1.57,1.57,0,0,0,1.49-1.64V325.8Z" transform="translate(-498.15 -253.4)"/><rect class="cls-16" x="186.35" y="72.4" width="9.97" height="7.54"/><polygon class="cls-11" points="205.98 77.67 204.66 77.67 202.45 73.95 203.77 73.95 205.98 77.67"/><polygon class="cls-11" points="202.45 77.67 203.77 77.67 205.98 73.95 204.66 73.95 202.45 77.67"/><rect class="cls-11" x="179.82" y="76.2" width="4.78" height="1.4"/><path class="cls-11" d="M687.24,327.63V331h4.37v-3.37Zm3.55,2.42h-2.72v-1.47h2.72Z" transform="translate(-498.15 -253.4)"/><rect class="cls-17" x="91.84" y="88.5" width="11.48" height="12.3"/><rect class="cls-12" x="114.15" y="88.85" width="51" height="2.46"/><rect class="cls-12" x="114.15" y="94.12" width="32.2" height="2.46"/><line class="cls-18" x1="115.11" y1="107.12" x2="192.57" y2="107.12"/><line class="cls-18" x1="115.11" y1="122.93" x2="192.57" y2="122.93"/><line class="cls-18" x1="115.11" y1="126.8" x2="192.57" y2="126.8"/><line class="cls-18" x1="115.11" y1="130.66" x2="192.57" y2="130.66"/><line class="cls-18" x1="115.11" y1="134.53" x2="128.18" y2="134.53"/><line class="cls-18" x1="115.11" y1="110.28" x2="144.44" y2="110.28"/><line class="cls-18" x1="115.11" y1="143.31" x2="144.44" y2="143.31"/><path class="cls-12" d="M572.62,331.83a.54.54,0,0,0-.15-.38,1.53,1.53,0,0,0-.56-.27,2.26,2.26,0,0,1-.88-.43.88.88,0,0,1-.3-.71.91.91,0,0,1,.34-.75,1.27,1.27,0,0,1,.87-.29,1.24,1.24,0,0,1,.91.33,1.1,1.1,0,0,1,.33.8h-.55a.61.61,0,0,0-.17-.46.67.67,0,0,0-.51-.18.66.66,0,0,0-.48.15.45.45,0,0,0-.16.38.4.4,0,0,0,.18.35,1.66,1.66,0,0,0,.59.27,2,2,0,0,1,.84.45,1,1,0,0,1,.28.73.9.9,0,0,1-.34.74,1.34,1.34,0,0,1-.9.28,1.48,1.48,0,0,1-.94-.31,1.06,1.06,0,0,1-.39-.86h.55a.58.58,0,0,0,.22.5.86.86,0,0,0,.55.17.75.75,0,0,0,.5-.14A.45.45,0,0,0,572.62,331.83Z" transform="translate(-498.15 -253.4)"/><path class="cls-12" d="M574.78,332.86a1,1,0,0,1-.85-.38,1.5,1.5,0,0,1-.32-1v-.11a1.61,1.61,0,0,1,.31-1,1,1,0,0,1,.8-.39.93.93,0,0,1,.78.34,1.4,1.4,0,0,1,.27.91v.37h-1.56a1,1,0,0,0,.18.55.54.54,0,0,0,.45.21,1.34,1.34,0,0,0,.4-.06,1.57,1.57,0,0,0,.31-.18l.19.41a1.38,1.38,0,0,1-.38.23A1.45,1.45,0,0,1,574.78,332.86Zm-.06-2.39a.42.42,0,0,0-.35.19,1.11,1.11,0,0,0-.17.47h1v-.07a.82.82,0,0,0-.12-.43.48.48,0,0,0-.39-.16Z" transform="translate(-498.15 -253.4)"/><path class="cls-12" d="M577,329.34V330h.46v.46H577V332a.4.4,0,0,0,.07.24.25.25,0,0,0,.18.08h.09l.09,0,0,.46a.51.51,0,0,1-.17.07.74.74,0,0,1-.21,0,.63.63,0,0,1-.49-.2.93.93,0,0,1-.17-.63v-1.54H576V330h.39v-.67Z" transform="translate(-498.15 -253.4)"/><path class="cls-12" d="M579.48,332.4a.78.78,0,0,1-.72.46.75.75,0,0,1-.63-.28,1.33,1.33,0,0,1-.23-.89V330h.56v1.66a.94.94,0,0,0,.11.5.36.36,0,0,0,.33.15.77.77,0,0,0,.34-.08.64.64,0,0,0,.22-.24v-2H580v2.8h-.5Z" transform="translate(-498.15 -253.4)"/><path class="cls-12" d="M582.83,331.51a1.67,1.67,0,0,1-.26,1,.87.87,0,0,1-1.1.28.75.75,0,0,1-.28-.25v1.36h-.57V330h.48l0,.35a.83.83,0,0,1,1.22-.23.87.87,0,0,1,.2.23,1.93,1.93,0,0,1,.26,1.08Zm-.56-.06a1.37,1.37,0,0,0-.15-.69.46.46,0,0,0-.45-.28.55.55,0,0,0-.5.32v1.26a.47.47,0,0,0,.2.22.46.46,0,0,0,.3.08.47.47,0,0,0,.45-.23,1.12,1.12,0,0,0,.15-.62Z" transform="translate(-498.15 -253.4)"/><path class="cls-12" d="M585.41,331.83h0l.68-2.74h.46l.68,2.75h0l.54-2.74h.56l-.8,3.73H587l-.68-2.69h0l-.68,2.69h-.52l-.84-3.77h.56Z" transform="translate(-498.15 -253.4)"/><path class="cls-12" d="M589.35,329.34h-.56v-.55h.56Zm0,3.47h-.56V330h.56Z" transform="translate(-498.15 -253.4)"/><path class="cls-12" d="M590.59,332.33H592v.5H589.9v-.41l1.27-1.88h-1.25v-.49h2v.39Z" transform="translate(-498.15 -253.4)"/><path class="cls-12" d="M593.93,332.83a1.6,1.6,0,0,0,0-.21l0-.2a1.06,1.06,0,0,1-.3.33.75.75,0,0,1-.43.13.77.77,0,0,1-.6-.22.86.86,0,0,1-.22-.62.75.75,0,0,1,.29-.63,1.34,1.34,0,0,1,.82-.22h.45v-.25a.47.47,0,0,0-.11-.34.51.51,0,0,0-.64,0,.36.36,0,0,0-.12.27h-.54a.77.77,0,0,1,.27-.59,1.13,1.13,0,0,1,.74-.25,1,1,0,0,1,.71.24.93.93,0,0,1,.28.71v1.24a1.93,1.93,0,0,0,0,.34,1.7,1.7,0,0,0,.06.31Zm-.69-.45a.66.66,0,0,0,.38-.12.56.56,0,0,0,.23-.27v-.41h-.45a.51.51,0,0,0-.39.14.41.41,0,0,0-.14.31.35.35,0,0,0,.09.26.35.35,0,0,0,.28.07Z" transform="translate(-498.15 -253.4)"/><path class="cls-12" d="M596.27,330.59H596a.53.53,0,0,0-.28.07.62.62,0,0,0-.17.22v1.95H595v-2.78h.52l0,.4a.92.92,0,0,1,.24-.34.52.52,0,0,1,.35-.11h.18Z" transform="translate(-498.15 -253.4)"/><path class="cls-12" d="M596.56,331.46a2.11,2.11,0,0,1,.26-1.08.81.81,0,0,1,.73-.4.62.62,0,0,1,.37.09,1,1,0,0,1,.28.25V328.8h.57v4h-.48l-.06-.34a.78.78,0,0,1-.69.39.81.81,0,0,1-.72-.37,1.65,1.65,0,0,1-.26-1Zm.57.05a1.33,1.33,0,0,0,.13.62.56.56,0,0,0,.73.14.61.61,0,0,0,.21-.24v-1.2a.61.61,0,0,0-.21-.24.53.53,0,0,0-.3-.09.45.45,0,0,0-.42.27,1.56,1.56,0,0,0-.14.71Z" transform="translate(-498.15 -253.4)"/></g><g id="freepik--Character--inject-139"><ellipse class="cls-19" cx="168.08" cy="180.36" rx="5.51" ry="6.96"/><path class="cls-19" d="M639.36,435.11a16.7,16.7,0,0,1-4.81-2.19,4.93,4.93,0,0,1-1.88-6.22c.75-2,7.91-10.28,15.16-12s12.71,3.84,15.07,10.27.56,13.81-1,16-5.65,3.74-7.44,2.29-4.71-5.82-8.19-7.58A9.35,9.35,0,0,0,639.36,435.11Z" transform="translate(-498.15 -253.4)"/><path class="cls-20" d="M643.35,422s7,8.63,18.27,7.68" transform="translate(-498.15 -253.4)"/><path class="cls-20" d="M644.55,420.12l3.83-3.46s9.57.19,13.74,10.55" transform="translate(-498.15 -253.4)"/><path class="cls-20" d="M639.35,425.48s-7.83,3.84-5.57,5.57,3.65.38,3.65.38" transform="translate(-498.15 -253.4)"/><path class="cls-20" d="M634.82,424.72s1.22-2.11,5.75-2.11" transform="translate(-498.15 -253.4)"/><path class="cls-20" d="M641.09,424.14a17.62,17.62,0,0,0,11.32,8.63c7.83,1.73,10.44-.38,10.44-.38" transform="translate(-498.15 -253.4)"/><path class="cls-11" d="M648.34,467.37c-.07,5.53-4.46,21.05-6.55,28.14h22l5.62-40.7-5.27-2.8s-4-2.08-6.8-1.36a27.06,27.06,0,0,0-6.21,3l-2.92,1.14S648.43,460.1,648.34,467.37Z" transform="translate(-498.15 -253.4)"/><g class="cls-21"><path class="cls-22" d="M647.82,495.51c.46-2.19,1.39-6.69,2.92-14,2.29-11,2.49-28.28,2.49-28.28-.17,4.55-6.73,34.14-8.54,42.26Z" transform="translate(-498.15 -253.4)"/></g><path class="cls-5" d="M648.34,467.37c-.07,5.53-4.46,21.05-6.55,28.14h22l5.62-40.7-5.27-2.8s-4-2.08-6.8-1.36a27.06,27.06,0,0,0-6.21,3l-2.92,1.14S648.43,460.1,648.34,467.37Z" transform="translate(-498.15 -253.4)"/><path class="cls-11" d="M651,448.69a11.4,11.4,0,0,1,2.08,3.72c.33,1.59-.8,7.8,1.93,9.39s5.79-1.41,7.4-5,.8-5.65.8-5.65a51.94,51.94,0,0,1-5.62-7.44A29.29,29.29,0,0,1,655,437.2s-1,5.85-2.26,8A20.07,20.07,0,0,0,651,448.69Z" transform="translate(-498.15 -253.4)"/><g class="cls-23"><path class="cls-22" d="M652.08,449.46l-.28.36a10.22,10.22,0,0,1,1.06,1.92,6.66,6.66,0,0,0,3-2.7c1-1.53,1-4.53,1-6.69-.22-.47-.43-.93-.6-1.38C655.49,443,653.78,447.27,652.08,449.46Z" transform="translate(-498.15 -253.4)"/></g><path class="cls-24" d="M651,448.69a11.4,11.4,0,0,1,2.08,3.72c.33,1.59-.8,7.8,1.93,9.39s5.79-1.41,7.4-5,.8-5.65.8-5.65a51.94,51.94,0,0,1-5.62-7.44A29.29,29.29,0,0,1,655,437.2s-1,5.85-2.26,8A20.07,20.07,0,0,0,651,448.69Z" transform="translate(-498.15 -253.4)"/><path class="cls-4" d="M640.12,427.42s7.25,6.2,10.77,7.62a16.26,16.26,0,0,0,7.7.71,2.49,2.49,0,0,1-.49,2.13,14,14,0,0,0-1.44,1.95s.16,5.31-1.45,8-3.7,4.07-6.59,2.83-5.3-2.83-6.75-5.5-1.29-5.31-1.93-7.08L638,432.75S638.83,428.84,640.12,427.42Z" transform="translate(-498.15 -253.4)"/><path class="cls-24" d="M643.5,436.56s.38,5.71.94,5.92,2.16-.42,2.16-.42" transform="translate(-498.15 -253.4)"/><path class="cls-24" d="M645.85,444.24a3.2,3.2,0,0,0,3.11-1.66" transform="translate(-498.15 -253.4)"/><path class="cls-12" d="M642.76,437.7c.19.66.08,1.28-.24,1.4s-.73-.33-.9-1-.09-1.28.23-1.39S642.57,437.05,642.76,437.7Z" transform="translate(-498.15 -253.4)"/><path class="cls-12" d="M647.27,436c.19.66.08,1.28-.24,1.39s-.74-.32-.93-1-.08-1.28.24-1.4S647.09,435.39,647.27,436Z" transform="translate(-498.15 -253.4)"/><path class="cls-24" d="M640.3,435.83s-.1-1.24,1.88-1" transform="translate(-498.15 -253.4)"/><path class="cls-24" d="M644.16,434.17a2,2,0,0,1,2.72-.93" transform="translate(-498.15 -253.4)"/><path class="cls-5" d="M643.47,436.58c.77,2,.25,4.21-1.17,4.86s-3.17-.47-3.95-2.49-.25-4.22,1.16-4.87S642.7,434.54,643.47,436.58Z" transform="translate(-498.15 -253.4)"/><path class="cls-5" d="M649.69,434.21c.77,2,.24,4.21-1.17,4.87s-3.17-.48-4-2.5-.25-4.21,1.17-4.87S648.92,432.15,649.69,434.21Z" transform="translate(-498.15 -253.4)"/><line class="cls-5" x1="145.06" y1="182.43" x2="146.19" y2="181.81"/><path class="cls-6" d="M673.23,495.51c1.69-10.6,6.34-40.31,5.24-40.91-1.3-.73-15.28-3.41-15.28-3.41s-1.58,12.55-3.65,24.07c-1.36,7.65-2.83,15.7-3.65,20.26Z" transform="translate(-498.15 -253.4)"/><path class="cls-25" d="M643.16,456.78s-2.59,2.41-2.76,4.19-2.9,23.09-2.9,23.09-.64-.88-1.45-.53a3.1,3.1,0,0,0-1.29,1.25s-.29-1.17-1.13-.36-1.45,3.91-1.45,3.91,1.29,4.62,2.27,5.33,2.42-.35,2.42-.35-.16.7,1.61.7,2.09-3,2.74-4.26,2.58-14.57,3.54-21.86S643.16,456.78,643.16,456.78Z" transform="translate(-498.15 -253.4)"/><path class="cls-6" d="M638.18,495.51h8.15c.81-3.49,2.09-9.2,3.41-15.27,2.17-10,3.32-27.82,3.32-27.82l-9.91,4.36a139.54,139.54,0,0,1-.19,18.06C642.45,481.65,639.79,490.59,638.18,495.51Z" transform="translate(-498.15 -253.4)"/><path class="cls-25" d="M671.52,457.23,665.88,483l-2.42-.71-1.13,1.06s-.81-1.24-1.61.18a9,9,0,0,1-1.62,2.14l1.13,7.28s4.79,2.16,5.48,1.95a2.17,2.17,0,0,0,1.45-2.49,4.8,4.8,0,0,0,1.94.71,7.86,7.86,0,0,0,2.53-1.72,7.14,7.14,0,0,0,2.26-3.57c1.7-6,6.55-23.3,7.32-25.63,1.94-5.87-3.06-8-3.7-8" transform="translate(-498.15 -253.4)"/><path class="cls-4" d="M606.43,487.64s-3.57,1.85-3.25,2.2,2.71-.92,3.25-1S607.59,487.42,606.43,487.64Z" transform="translate(-498.15 -253.4)"/><path class="cls-4" d="M607.8,486.38s-1.16-.23-1.36.35a20.18,20.18,0,0,0-1.05,4.4c.1.69,1.05-.7,1.47-1.39A18.09,18.09,0,0,0,607.8,486.38Z" transform="translate(-498.15 -253.4)"/><path class="cls-4" d="M610,486.38s-1.89-.58-2.2,0-2,4.63-2,4.63-.2.47.74,0S610,486.38,610,486.38Z" transform="translate(-498.15 -253.4)"/><path class="cls-4" d="M632.58,486.38l-12,1.26s-8.3-1.85-9.24-2a2.68,2.68,0,0,0-2.31,1.38c-.42.7-3,4.4-3,4.4l.63.23,3.68-3.24s2-.11,2.62-.11-1.78,1.5-2.52,1.61-1.57.24-1.47.7,2,.58,2.42.58a31.29,31.29,0,0,0,3.36-1.16,15.81,15.81,0,0,1,1.68.12,6.69,6.69,0,0,0,2.63-.7s14.91,3.94,16,3.82S636.13,487.14,632.58,486.38Z" transform="translate(-498.15 -253.4)"/><path class="cls-4" d="M628.91,486.84a12.27,12.27,0,0,1-3,1.39c-1,.12-.84,1,0,1.4s3.78-1.28,4.41-1.28,5.57.46,6.62.58,1.68-1-.95-2S628.91,486.84,628.91,486.84Z" transform="translate(-498.15 -253.4)"/><path class="cls-4" d="M631.24,485.22s-2-.5-2.2.4-2.53,4.44-2.58,4.78.75.62,1.68-.5S631.24,485.22,631.24,485.22Z" transform="translate(-498.15 -253.4)"/><path class="cls-4" d="M632.69,484.76s-1.68-.46-2.11,0a46.5,46.5,0,0,0-3.35,6.37c0,.46,1.15.23,1.15.23l3.36-5.1,1-1Z" transform="translate(-498.15 -253.4)"/><path class="cls-4" d="M663.67,493.1a3.07,3.07,0,0,0,2.52-3c.21-2.78-2.52-5.44-4.41-5.55s-10.71,2.08-14.28,2.19-6.73.12-7.46-.23a73.06,73.06,0,0,0-7.35-1.73c-.42,0-4.73,6.59-4.73,6.59s.32.82,1.16,0,3.57-3.58,3.57-3.58h3s-2.83,1.85-3.25,2.19-2.1,2.32-1.68,2.44,2.62-2,2.62-2l3.17-.93a10.38,10.38,0,0,0,4.41,1.74,8.92,8.92,0,0,0,3.68-.58S656.84,493.21,663.67,493.1Z" transform="translate(-498.15 -253.4)"/></g><g id="freepik--Device--inject-139"><line class="cls-5" x1="233.55" y1="242.05" x2="51.38" y2="242.05"/><rect class="cls-7" x="91.31" y="239.77" width="56.42" height="2.28"/><rect class="cls-19" x="121.23" y="239.77" width="26.51" height="2.28"/><polygon class="cls-19" points="122.54 239.77 112.11 210.91 79.6 210.91 92.63 239.77 122.54 239.77"/><polygon class="cls-7" points="121.23 239.77 110.8 210.91 78.28 210.91 91.31 239.77 121.23 239.77"/></g></svg>